G75*
G70*
%OFA0B0*%
%FSLAX24Y24*%
%IPPOS*%
%LPD*%
%AMOC8*
5,1,8,0,0,1.08239X$1,22.5*
%
%ADD10C,0.0600*%
%ADD11C,0.0860*%
%ADD12R,0.0236X0.0866*%
%ADD13R,0.0512X0.0591*%
%ADD14R,0.0591X0.0512*%
%ADD15C,0.0100*%
%ADD16C,0.0320*%
D10*
X001811Y001899D02*
X002411Y001899D01*
X002411Y002899D02*
X001811Y002899D01*
X001811Y003899D02*
X002411Y003899D01*
X002411Y004899D02*
X001811Y004899D01*
X001811Y006399D02*
X002411Y006399D01*
X002411Y007399D02*
X001811Y007399D01*
X001811Y008399D02*
X002411Y008399D01*
X002411Y009399D02*
X001811Y009399D01*
D11*
X004242Y004668D03*
X005226Y004668D03*
X006211Y002699D03*
X007195Y004668D03*
X008179Y004668D03*
D12*
X007961Y007375D03*
X008461Y007375D03*
X007461Y007375D03*
X006961Y007375D03*
X005361Y007375D03*
X004861Y007375D03*
X004361Y007375D03*
X003861Y007375D03*
X003861Y009423D03*
X004361Y009423D03*
X004861Y009423D03*
X005361Y009423D03*
X006961Y009423D03*
X007461Y009423D03*
X007961Y009423D03*
X008461Y009423D03*
D13*
X008385Y010499D03*
X007637Y010499D03*
X006785Y010499D03*
X006037Y010499D03*
X005185Y010499D03*
X004437Y010499D03*
X003585Y010499D03*
X002837Y010499D03*
X001985Y010499D03*
X001237Y010499D03*
X004137Y006299D03*
X004885Y006299D03*
X005837Y006299D03*
X006585Y006299D03*
X007537Y006299D03*
X008285Y006299D03*
D14*
X006111Y007225D03*
X006111Y007973D03*
X006111Y008825D03*
X006111Y009573D03*
D15*
X005511Y009573D01*
X005361Y009423D01*
X005611Y009173D01*
X005611Y007699D01*
X006085Y007225D01*
X006085Y006825D01*
X006211Y006699D01*
X006211Y005899D01*
X006111Y005799D01*
X005385Y005799D01*
X004885Y006299D01*
X005111Y006799D02*
X005111Y008499D01*
X004911Y008699D01*
X004911Y009373D01*
X004861Y009423D01*
X005111Y009899D02*
X005111Y008899D01*
X005311Y008699D01*
X005411Y008599D01*
X005411Y007099D01*
X005361Y007375D01*
X004911Y007325D02*
X004911Y007099D01*
X004137Y006325D01*
X004137Y006299D01*
X004111Y006273D01*
X004111Y005899D01*
X004411Y005599D01*
X005411Y005599D01*
X006211Y004799D01*
X006211Y003799D01*
X006411Y003599D01*
X008211Y003599D01*
X008811Y004199D01*
X008811Y006499D01*
X008511Y006799D01*
X008111Y006799D01*
X007961Y006949D01*
X007961Y007375D01*
X007711Y006899D02*
X007711Y007899D01*
X007511Y008099D01*
X007111Y008099D01*
X006611Y008599D01*
X006385Y008825D01*
X006111Y008825D01*
X006363Y008825D01*
X006961Y009423D01*
X007411Y009373D02*
X007461Y009423D01*
X007411Y009373D02*
X007411Y008599D01*
X007961Y009423D02*
X007961Y009849D01*
X007811Y009999D01*
X007285Y009999D01*
X006785Y010499D01*
X007211Y010999D02*
X006211Y010999D01*
X006011Y010799D01*
X006011Y010525D01*
X006037Y010499D01*
X006037Y009647D01*
X006111Y009573D01*
X005661Y009999D02*
X005211Y010499D01*
X005185Y010499D01*
X005011Y009999D02*
X004811Y009999D01*
X004437Y010373D01*
X004437Y010499D01*
X004211Y009999D02*
X004411Y009799D01*
X004411Y009473D01*
X004361Y009423D01*
X004411Y009373D01*
X004411Y008599D01*
X003911Y008399D02*
X004311Y007999D01*
X004311Y007425D01*
X004361Y007375D01*
X003861Y007375D02*
X003487Y007375D01*
X003111Y006999D01*
X002711Y007399D01*
X002111Y007399D01*
X002111Y008399D02*
X001611Y008399D01*
X001211Y007999D01*
X001211Y005999D01*
X001711Y005499D01*
X002611Y005499D01*
X002911Y005199D01*
X002911Y004499D01*
X002311Y003899D01*
X002111Y003899D01*
X002111Y004899D02*
X001611Y004899D01*
X000811Y005699D01*
X000811Y008799D01*
X001411Y009399D01*
X001411Y009799D01*
X001211Y009999D01*
X001211Y010473D01*
X001237Y010499D01*
X001211Y010525D01*
X001211Y010899D01*
X001311Y010999D01*
X003411Y010999D01*
X003585Y010825D01*
X003759Y010999D01*
X005811Y010999D01*
X006037Y010773D01*
X006037Y010499D01*
X005111Y009899D02*
X005011Y009999D01*
X004211Y009999D02*
X003111Y009999D01*
X002837Y010273D01*
X002837Y010499D01*
X003585Y010499D02*
X003585Y010825D01*
X003861Y009423D02*
X003861Y008749D01*
X003911Y008399D02*
X002111Y008399D01*
X002111Y009399D02*
X001411Y009399D01*
X001985Y010499D02*
X002011Y010499D01*
X003111Y009399D01*
X003837Y009399D01*
X003861Y009423D01*
X004861Y007375D02*
X004911Y007325D01*
X005111Y006799D02*
X005611Y006299D01*
X005837Y006299D01*
X006585Y006299D02*
X007537Y006299D01*
X007611Y006225D01*
X007611Y005799D01*
X008179Y005231D01*
X008179Y004668D01*
X008285Y006299D02*
X008285Y006325D01*
X007711Y006899D01*
X007461Y007049D02*
X007061Y006649D01*
X007461Y007049D02*
X007461Y007375D01*
X006961Y007375D02*
X006810Y007225D01*
X006111Y007225D01*
X006085Y007225D01*
X006111Y007973D02*
X006111Y008825D01*
X007637Y010499D02*
X007637Y010573D01*
X007211Y010999D01*
X008385Y010499D02*
X008385Y009499D01*
X008461Y009423D01*
X008411Y008599D02*
X008411Y007999D01*
X008461Y007949D01*
X008461Y007375D01*
X006211Y003799D02*
X006211Y002699D01*
X003111Y003799D02*
X003111Y006999D01*
X003111Y003799D02*
X002211Y002899D01*
X002111Y002899D01*
D16*
X004411Y008599D03*
X003861Y008749D03*
X005311Y008699D03*
X005661Y009999D03*
X006611Y008599D03*
X007411Y008599D03*
X008411Y008599D03*
X007061Y006649D03*
M02*
