G75*
G70*
%OFA0B0*%
%FSLAX24Y24*%
%IPPOS*%
%LPD*%
%AMOC8*
5,1,8,0,0,1.08239X$1,22.5*
%
%ADD10C,0.0640*%
%ADD11C,0.0900*%
%ADD12C,0.0512*%
%ADD13R,0.0276X0.0906*%
%ADD14R,0.0552X0.0631*%
%ADD15R,0.0631X0.0552*%
D10*
X001811Y001899D02*
X002411Y001899D01*
X002411Y002899D02*
X001811Y002899D01*
X001811Y003899D02*
X002411Y003899D01*
X002411Y004899D02*
X001811Y004899D01*
X001811Y006399D02*
X002411Y006399D01*
X002411Y007399D02*
X001811Y007399D01*
X001811Y008399D02*
X002411Y008399D01*
X002411Y009399D02*
X001811Y009399D01*
D11*
X004242Y004668D03*
X005226Y004668D03*
X006211Y002699D03*
X007195Y004668D03*
X008179Y004668D03*
D12*
X008179Y002699D03*
X008179Y001715D03*
X004242Y001715D03*
X004242Y002699D03*
D13*
X004361Y007375D03*
X003861Y007375D03*
X004861Y007375D03*
X005361Y007375D03*
X006961Y007375D03*
X007461Y007375D03*
X007961Y007375D03*
X008461Y007375D03*
X008461Y009423D03*
X007961Y009423D03*
X007461Y009423D03*
X006961Y009423D03*
X005361Y009423D03*
X004861Y009423D03*
X004361Y009423D03*
X003861Y009423D03*
D14*
X003585Y010499D03*
X002837Y010499D03*
X001985Y010499D03*
X001237Y010499D03*
X004437Y010499D03*
X005185Y010499D03*
X006037Y010499D03*
X006785Y010499D03*
X007637Y010499D03*
X008385Y010499D03*
X008285Y006299D03*
X007537Y006299D03*
X006585Y006299D03*
X005837Y006299D03*
X004885Y006299D03*
X004137Y006299D03*
D15*
X006111Y007225D03*
X006111Y007973D03*
X006111Y008825D03*
X006111Y009573D03*
M02*
