G75*
G70*
%OFA0B0*%
%FSLAX24Y24*%
%IPPOS*%
%LPD*%
%AMOC8*
5,1,8,0,0,1.08239X$1,22.5*
%
%ADD10C,0.0600*%
%ADD11C,0.0860*%
%ADD12C,0.0320*%
%ADD13C,0.0100*%
D10*
X001811Y001899D02*
X002411Y001899D01*
X002411Y002899D02*
X001811Y002899D01*
X001811Y003899D02*
X002411Y003899D01*
X002411Y004899D02*
X001811Y004899D01*
X001811Y006399D02*
X002411Y006399D01*
X002411Y007399D02*
X001811Y007399D01*
X001811Y008399D02*
X002411Y008399D01*
X002411Y009399D02*
X001811Y009399D01*
D11*
X004242Y004668D03*
X005226Y004668D03*
X006211Y002699D03*
X007195Y004668D03*
X008179Y004668D03*
D12*
X007061Y006649D03*
X007411Y008599D03*
X006611Y008599D03*
X005661Y009999D03*
X005311Y008699D03*
X004411Y008599D03*
X003861Y008749D03*
X008411Y008599D03*
D13*
X000992Y001337D02*
X000848Y001481D01*
X000771Y001668D01*
X000761Y001770D01*
X000761Y010732D01*
X000769Y010813D01*
X000830Y010962D01*
X000944Y011076D01*
X001093Y011137D01*
X001173Y011145D01*
X008466Y011145D01*
X008557Y011136D01*
X008724Y011067D01*
X008852Y010939D01*
X008922Y010771D01*
X008931Y010680D01*
X008931Y001795D01*
X008920Y001689D01*
X008839Y001492D01*
X008688Y001341D01*
X008491Y001260D01*
X008384Y001249D01*
X001281Y001249D01*
X001180Y001259D01*
X000992Y001337D01*
X000934Y001395D02*
X004016Y001395D01*
X004023Y001387D02*
X004165Y001329D01*
X004319Y001329D01*
X004461Y001387D01*
X004570Y001496D01*
X004628Y001638D01*
X004628Y001792D01*
X004570Y001934D01*
X004461Y002042D01*
X004319Y002101D01*
X004165Y002101D01*
X004023Y002042D01*
X003915Y001934D01*
X003856Y001792D01*
X003856Y001638D01*
X003915Y001496D01*
X004023Y001387D01*
X003918Y001493D02*
X002605Y001493D01*
X002583Y001482D02*
X002646Y001514D01*
X002704Y001556D01*
X002754Y001606D01*
X002795Y001663D01*
X002828Y001726D01*
X002850Y001794D01*
X002858Y001849D01*
X002161Y001849D01*
X002161Y001949D01*
X002858Y001949D01*
X002850Y002004D01*
X002828Y002072D01*
X002795Y002135D01*
X002754Y002192D01*
X002704Y002242D01*
X002646Y002284D01*
X002583Y002316D01*
X002516Y002338D01*
X002446Y002349D01*
X002161Y002349D01*
X002161Y001949D01*
X002061Y001949D01*
X002061Y002349D01*
X001775Y002349D01*
X001705Y002338D01*
X001638Y002316D01*
X001575Y002284D01*
X001517Y002242D01*
X001467Y002192D01*
X001426Y002135D01*
X001394Y002072D01*
X001372Y002004D01*
X001363Y001949D01*
X002061Y001949D01*
X002061Y001849D01*
X002161Y001849D01*
X002161Y001449D01*
X002446Y001449D01*
X002516Y001460D01*
X002583Y001482D01*
X002739Y001592D02*
X003875Y001592D01*
X003856Y001690D02*
X002809Y001690D01*
X002848Y001789D02*
X003856Y001789D01*
X003895Y001887D02*
X002161Y001887D01*
X002161Y001789D02*
X002061Y001789D01*
X002061Y001849D02*
X002061Y001449D01*
X001775Y001449D01*
X001705Y001460D01*
X001638Y001482D01*
X001575Y001514D01*
X001517Y001556D01*
X001467Y001606D01*
X001426Y001663D01*
X001394Y001726D01*
X001372Y001794D01*
X001363Y001849D01*
X002061Y001849D01*
X002061Y001887D02*
X000761Y001887D01*
X000761Y001789D02*
X001373Y001789D01*
X001412Y001690D02*
X000768Y001690D01*
X000802Y001592D02*
X001482Y001592D01*
X001616Y001493D02*
X000843Y001493D01*
X001090Y001296D02*
X008579Y001296D01*
X008741Y001395D02*
X008405Y001395D01*
X008398Y001387D02*
X008507Y001496D01*
X008565Y001638D01*
X008565Y001792D01*
X008507Y001934D01*
X008398Y002042D01*
X008256Y002101D01*
X008102Y002101D01*
X007960Y002042D01*
X007852Y001934D01*
X007793Y001792D01*
X007793Y001638D01*
X007852Y001496D01*
X007960Y001387D01*
X008102Y001329D01*
X008256Y001329D01*
X008398Y001387D01*
X008504Y001493D02*
X008839Y001493D01*
X008880Y001592D02*
X008546Y001592D01*
X008565Y001690D02*
X008920Y001690D01*
X008930Y001789D02*
X008565Y001789D01*
X008526Y001887D02*
X008931Y001887D01*
X008931Y001986D02*
X008455Y001986D01*
X008297Y002084D02*
X008931Y002084D01*
X008931Y002183D02*
X006479Y002183D01*
X006539Y002207D02*
X006702Y002371D01*
X006791Y002584D01*
X006791Y002814D01*
X006702Y003028D01*
X006539Y003191D01*
X006326Y003279D01*
X006095Y003279D01*
X005882Y003191D01*
X005719Y003028D01*
X005631Y002814D01*
X005631Y002584D01*
X005719Y002371D01*
X005882Y002207D01*
X006095Y002119D01*
X006326Y002119D01*
X006539Y002207D01*
X006613Y002281D02*
X008931Y002281D01*
X008931Y002380D02*
X008406Y002380D01*
X008398Y002372D02*
X008507Y002480D01*
X008565Y002622D01*
X008565Y002776D01*
X008507Y002918D01*
X008398Y003026D01*
X008256Y003085D01*
X008102Y003085D01*
X007960Y003026D01*
X007852Y002918D01*
X007793Y002776D01*
X007793Y002622D01*
X007852Y002480D01*
X007960Y002372D01*
X008102Y002313D01*
X008256Y002313D01*
X008398Y002372D01*
X008504Y002478D02*
X008931Y002478D01*
X008931Y002577D02*
X008546Y002577D01*
X008565Y002675D02*
X008931Y002675D01*
X008931Y002774D02*
X008565Y002774D01*
X008525Y002872D02*
X008931Y002872D01*
X008931Y002971D02*
X008454Y002971D01*
X008295Y003069D02*
X008931Y003069D01*
X008931Y003168D02*
X006562Y003168D01*
X006661Y003069D02*
X008063Y003069D01*
X007904Y002971D02*
X006726Y002971D01*
X006767Y002872D02*
X007833Y002872D01*
X007793Y002774D02*
X006791Y002774D01*
X006791Y002675D02*
X007793Y002675D01*
X007812Y002577D02*
X006788Y002577D01*
X006747Y002478D02*
X007854Y002478D01*
X007952Y002380D02*
X006706Y002380D01*
X006357Y003266D02*
X008931Y003266D01*
X008931Y003365D02*
X000761Y003365D01*
X000761Y003463D02*
X001687Y003463D01*
X001721Y003449D02*
X001556Y003518D01*
X001429Y003644D01*
X001361Y003810D01*
X001361Y003989D01*
X001429Y004154D01*
X001556Y004281D01*
X001721Y004349D01*
X002500Y004349D01*
X002665Y004281D01*
X002792Y004154D01*
X002861Y003989D01*
X002861Y003810D01*
X002792Y003644D01*
X002665Y003518D01*
X002500Y003449D01*
X001721Y003449D01*
X001721Y003349D02*
X001556Y003281D01*
X001429Y003154D01*
X001361Y002989D01*
X001361Y002810D01*
X001429Y002644D01*
X001556Y002518D01*
X001721Y002449D01*
X002500Y002449D01*
X002665Y002518D01*
X002792Y002644D01*
X002861Y002810D01*
X002861Y002989D01*
X002792Y003154D01*
X002665Y003281D01*
X002500Y003349D01*
X001721Y003349D01*
X001541Y003266D02*
X000761Y003266D01*
X000761Y003168D02*
X001443Y003168D01*
X001394Y003069D02*
X000761Y003069D01*
X000761Y002971D02*
X001361Y002971D01*
X001361Y002872D02*
X000761Y002872D01*
X000761Y002774D02*
X001375Y002774D01*
X001416Y002675D02*
X000761Y002675D01*
X000761Y002577D02*
X001497Y002577D01*
X001651Y002478D02*
X000761Y002478D01*
X000761Y002380D02*
X004015Y002380D01*
X004023Y002372D02*
X004165Y002313D01*
X004319Y002313D01*
X004461Y002372D01*
X004570Y002480D01*
X004628Y002622D01*
X004628Y002776D01*
X004570Y002918D01*
X004461Y003026D01*
X004319Y003085D01*
X004165Y003085D01*
X004023Y003026D01*
X003915Y002918D01*
X003856Y002776D01*
X003856Y002622D01*
X003915Y002480D01*
X004023Y002372D01*
X003917Y002478D02*
X002570Y002478D01*
X002724Y002577D02*
X003875Y002577D01*
X003856Y002675D02*
X002805Y002675D01*
X002846Y002774D02*
X003856Y002774D01*
X003896Y002872D02*
X002861Y002872D01*
X002861Y002971D02*
X003967Y002971D01*
X004126Y003069D02*
X002827Y003069D01*
X002778Y003168D02*
X005859Y003168D01*
X005760Y003069D02*
X004358Y003069D01*
X004517Y002971D02*
X005695Y002971D01*
X005654Y002872D02*
X004588Y002872D01*
X004628Y002774D02*
X005631Y002774D01*
X005631Y002675D02*
X004628Y002675D01*
X004609Y002577D02*
X005634Y002577D01*
X005674Y002478D02*
X004567Y002478D01*
X004469Y002380D02*
X005715Y002380D01*
X005808Y002281D02*
X002650Y002281D01*
X002761Y002183D02*
X005942Y002183D01*
X006064Y003266D02*
X002680Y003266D01*
X002534Y003463D02*
X008931Y003463D01*
X008931Y003562D02*
X002709Y003562D01*
X002799Y003660D02*
X008931Y003660D01*
X008931Y003759D02*
X002839Y003759D01*
X002861Y003857D02*
X008931Y003857D01*
X008931Y003956D02*
X002861Y003956D01*
X002833Y004054D02*
X008931Y004054D01*
X008931Y004153D02*
X008451Y004153D01*
X008508Y004176D02*
X008294Y004088D01*
X008064Y004088D01*
X007851Y004176D01*
X007687Y004339D01*
X007687Y004340D01*
X007687Y004339D01*
X007523Y004176D01*
X007310Y004088D01*
X007079Y004088D01*
X006866Y004176D01*
X006703Y004339D01*
X006615Y004552D01*
X006615Y004783D01*
X006703Y004996D01*
X006866Y005159D01*
X007079Y005248D01*
X007310Y005248D01*
X007523Y005159D01*
X007687Y004996D01*
X007687Y004995D01*
X007687Y004996D01*
X007851Y005159D01*
X008064Y005248D01*
X008294Y005248D01*
X008508Y005159D01*
X008671Y004996D01*
X008759Y004783D01*
X008759Y004552D01*
X008671Y004339D01*
X008508Y004176D01*
X008583Y004251D02*
X008931Y004251D01*
X008931Y004350D02*
X008675Y004350D01*
X008716Y004448D02*
X008931Y004448D01*
X008931Y004547D02*
X008757Y004547D01*
X008759Y004645D02*
X008931Y004645D01*
X008931Y004744D02*
X008759Y004744D01*
X008735Y004842D02*
X008931Y004842D01*
X008931Y004941D02*
X008694Y004941D01*
X008628Y005039D02*
X008931Y005039D01*
X008931Y005138D02*
X008529Y005138D01*
X008322Y005236D02*
X008931Y005236D01*
X008931Y005335D02*
X002535Y005335D01*
X002500Y005349D02*
X002665Y005281D01*
X002792Y005154D01*
X002861Y004989D01*
X002861Y004810D01*
X002792Y004644D01*
X002665Y004518D01*
X002500Y004449D01*
X001721Y004449D01*
X001556Y004518D01*
X001429Y004644D01*
X001361Y004810D01*
X001361Y004989D01*
X001429Y005154D01*
X001556Y005281D01*
X001721Y005349D01*
X002500Y005349D01*
X002710Y005236D02*
X004124Y005236D01*
X004106Y005233D02*
X004019Y005205D01*
X003938Y005164D01*
X003864Y005110D01*
X003800Y005045D01*
X003746Y004972D01*
X003705Y004890D01*
X003676Y004803D01*
X003663Y004718D01*
X004192Y004718D01*
X004192Y005247D01*
X004106Y005233D01*
X004192Y005236D02*
X004292Y005236D01*
X004292Y005247D02*
X004292Y004718D01*
X004192Y004718D01*
X004192Y004618D01*
X003663Y004618D01*
X003676Y004532D01*
X003705Y004445D01*
X003746Y004364D01*
X003800Y004290D01*
X003864Y004225D01*
X003938Y004171D01*
X004019Y004130D01*
X004106Y004102D01*
X004192Y004088D01*
X004192Y004618D01*
X004292Y004618D01*
X004292Y004088D01*
X004378Y004102D01*
X004465Y004130D01*
X004546Y004171D01*
X004620Y004225D01*
X004684Y004290D01*
X004729Y004352D01*
X004735Y004339D01*
X004898Y004176D01*
X005111Y004088D01*
X005342Y004088D01*
X005555Y004176D01*
X005718Y004339D01*
X005806Y004552D01*
X005806Y004783D01*
X005718Y004996D01*
X005555Y005159D01*
X005342Y005248D01*
X005111Y005248D01*
X004898Y005159D01*
X004735Y004996D01*
X004729Y004984D01*
X004684Y005045D01*
X004620Y005110D01*
X004546Y005164D01*
X004465Y005205D01*
X004378Y005233D01*
X004292Y005247D01*
X004360Y005236D02*
X005083Y005236D01*
X004876Y005138D02*
X004582Y005138D01*
X004689Y005039D02*
X004778Y005039D01*
X004292Y005039D02*
X004192Y005039D01*
X004192Y004941D02*
X004292Y004941D01*
X004292Y004842D02*
X004192Y004842D01*
X004192Y004744D02*
X004292Y004744D01*
X004192Y004645D02*
X002792Y004645D01*
X002833Y004744D02*
X003667Y004744D01*
X003689Y004842D02*
X002861Y004842D01*
X002861Y004941D02*
X003730Y004941D01*
X003795Y005039D02*
X002840Y005039D01*
X002799Y005138D02*
X003902Y005138D01*
X004192Y005138D02*
X004292Y005138D01*
X004292Y004547D02*
X004192Y004547D01*
X004192Y004448D02*
X004292Y004448D01*
X004292Y004350D02*
X004192Y004350D01*
X004192Y004251D02*
X004292Y004251D01*
X004292Y004153D02*
X004192Y004153D01*
X003975Y004153D02*
X002793Y004153D01*
X002695Y004251D02*
X003838Y004251D01*
X003756Y004350D02*
X000761Y004350D01*
X000761Y004448D02*
X003704Y004448D01*
X003674Y004547D02*
X002694Y004547D01*
X001686Y005335D02*
X000761Y005335D01*
X000761Y005433D02*
X008931Y005433D01*
X008931Y005532D02*
X000761Y005532D01*
X000761Y005630D02*
X008931Y005630D01*
X008931Y005729D02*
X000761Y005729D01*
X000761Y005827D02*
X008931Y005827D01*
X008931Y005926D02*
X000761Y005926D01*
X000761Y006024D02*
X001561Y006024D01*
X001575Y006014D02*
X001638Y005982D01*
X001705Y005960D01*
X001775Y005949D01*
X002061Y005949D01*
X002061Y006349D01*
X002161Y006349D01*
X002161Y006449D01*
X002858Y006449D01*
X002850Y006504D01*
X002828Y006572D01*
X002795Y006635D01*
X002754Y006692D01*
X002704Y006742D01*
X002646Y006784D01*
X002583Y006816D01*
X002516Y006838D01*
X002446Y006849D01*
X002161Y006849D01*
X002161Y006449D01*
X002061Y006449D01*
X002061Y006849D01*
X001775Y006849D01*
X001705Y006838D01*
X001638Y006816D01*
X001575Y006784D01*
X001517Y006742D01*
X001467Y006692D01*
X001426Y006635D01*
X001394Y006572D01*
X001372Y006504D01*
X001363Y006449D01*
X002061Y006449D01*
X002061Y006349D01*
X001363Y006349D01*
X001372Y006294D01*
X001394Y006226D01*
X001426Y006163D01*
X001467Y006106D01*
X001517Y006056D01*
X001575Y006014D01*
X001455Y006123D02*
X000761Y006123D01*
X000761Y006221D02*
X001396Y006221D01*
X001368Y006320D02*
X000761Y006320D01*
X000761Y006418D02*
X002061Y006418D01*
X002061Y006320D02*
X002161Y006320D01*
X002161Y006349D02*
X002161Y005949D01*
X002446Y005949D01*
X002516Y005960D01*
X002583Y005982D01*
X002646Y006014D01*
X002704Y006056D01*
X002754Y006106D01*
X002795Y006163D01*
X002828Y006226D01*
X002850Y006294D01*
X002858Y006349D01*
X002161Y006349D01*
X002161Y006418D02*
X006853Y006418D01*
X006885Y006386D02*
X006798Y006473D01*
X006751Y006587D01*
X006751Y006676D01*
X005828Y007599D01*
X004728Y007599D01*
X003888Y008439D01*
X003799Y008439D01*
X003685Y008486D01*
X003598Y008573D01*
X003551Y008687D01*
X003551Y008811D01*
X003598Y008925D01*
X003685Y009012D01*
X003799Y009059D01*
X003922Y009059D01*
X004036Y009012D01*
X004123Y008925D01*
X004171Y008811D01*
X004171Y008797D01*
X004235Y008862D01*
X004349Y008909D01*
X004472Y008909D01*
X004586Y008862D01*
X004673Y008775D01*
X004721Y008661D01*
X004721Y008572D01*
X004893Y008399D01*
X007030Y008399D01*
X007030Y008399D01*
X007028Y008399D01*
X006970Y008456D01*
X005694Y009689D01*
X005599Y009689D01*
X005485Y009736D01*
X005398Y009823D01*
X005351Y009937D01*
X005351Y010061D01*
X005398Y010175D01*
X005485Y010262D01*
X005599Y010309D01*
X005722Y010309D01*
X005836Y010262D01*
X005923Y010175D01*
X005971Y010061D01*
X005971Y009978D01*
X007182Y008808D01*
X007235Y008862D01*
X007349Y008909D01*
X007472Y008909D01*
X007586Y008862D01*
X007673Y008775D01*
X007721Y008661D01*
X007721Y008537D01*
X007673Y008423D01*
X007649Y008399D01*
X008011Y008399D01*
X008011Y008482D01*
X008101Y008572D01*
X008101Y008661D01*
X008148Y008775D01*
X008235Y008862D01*
X008349Y008909D01*
X008472Y008909D01*
X008586Y008862D01*
X008673Y008775D01*
X008721Y008661D01*
X008721Y008537D01*
X008673Y008423D01*
X008586Y008336D01*
X008472Y008289D01*
X008411Y008289D01*
X008411Y008116D01*
X008293Y007999D01*
X004893Y007999D01*
X004893Y007999D01*
X005993Y007999D01*
X006111Y007882D01*
X007033Y006959D01*
X007122Y006959D01*
X007236Y006912D01*
X007323Y006825D01*
X007371Y006711D01*
X007371Y006587D01*
X007323Y006473D01*
X007236Y006386D01*
X007122Y006339D01*
X006999Y006339D01*
X006885Y006386D01*
X006780Y006517D02*
X002846Y006517D01*
X002806Y006615D02*
X006751Y006615D01*
X006713Y006714D02*
X002732Y006714D01*
X002591Y006812D02*
X006615Y006812D01*
X006516Y006911D02*
X000761Y006911D01*
X000761Y007009D02*
X001576Y007009D01*
X001556Y007018D02*
X001721Y006949D01*
X002500Y006949D01*
X002665Y007018D01*
X002792Y007144D01*
X002861Y007310D01*
X002861Y007489D01*
X002792Y007654D01*
X002665Y007781D01*
X002500Y007849D01*
X001721Y007849D01*
X001556Y007781D01*
X001429Y007654D01*
X001361Y007489D01*
X001361Y007310D01*
X001429Y007144D01*
X001556Y007018D01*
X001466Y007108D02*
X000761Y007108D01*
X000761Y007206D02*
X001403Y007206D01*
X001363Y007305D02*
X000761Y007305D01*
X000761Y007403D02*
X001361Y007403D01*
X001366Y007502D02*
X000761Y007502D01*
X000761Y007600D02*
X001407Y007600D01*
X001474Y007699D02*
X000761Y007699D01*
X000761Y007797D02*
X001596Y007797D01*
X001721Y007949D02*
X001556Y008018D01*
X001429Y008144D01*
X001361Y008310D01*
X001361Y008489D01*
X001429Y008654D01*
X001556Y008781D01*
X001721Y008849D01*
X002500Y008849D01*
X002665Y008781D01*
X002792Y008654D01*
X002861Y008489D01*
X002861Y008310D01*
X002792Y008144D01*
X002665Y008018D01*
X002500Y007949D01*
X001721Y007949D01*
X001612Y007994D02*
X000761Y007994D01*
X000761Y007896D02*
X004431Y007896D01*
X004333Y007994D02*
X002609Y007994D01*
X002741Y008093D02*
X004234Y008093D01*
X004136Y008191D02*
X002812Y008191D01*
X002852Y008290D02*
X004037Y008290D01*
X003939Y008388D02*
X002861Y008388D01*
X002861Y008487D02*
X003685Y008487D01*
X003593Y008585D02*
X002821Y008585D01*
X002762Y008684D02*
X003552Y008684D01*
X003551Y008782D02*
X002662Y008782D01*
X002500Y008949D02*
X002665Y009018D01*
X002792Y009144D01*
X002861Y009310D01*
X002861Y009489D01*
X002792Y009654D01*
X002665Y009781D01*
X002500Y009849D01*
X001721Y009849D01*
X001556Y009781D01*
X001429Y009654D01*
X001361Y009489D01*
X001361Y009310D01*
X001429Y009144D01*
X001556Y009018D01*
X001721Y008949D01*
X002500Y008949D01*
X002573Y008979D02*
X003652Y008979D01*
X003580Y008881D02*
X000761Y008881D01*
X000761Y008979D02*
X001649Y008979D01*
X001496Y009078D02*
X000761Y009078D01*
X000761Y009176D02*
X001416Y009176D01*
X001375Y009275D02*
X000761Y009275D01*
X000761Y009373D02*
X001361Y009373D01*
X001361Y009472D02*
X000761Y009472D01*
X000761Y009570D02*
X001394Y009570D01*
X001444Y009669D02*
X000761Y009669D01*
X000761Y009767D02*
X001542Y009767D01*
X001559Y008782D02*
X000761Y008782D01*
X000761Y008684D02*
X001459Y008684D01*
X001401Y008585D02*
X000761Y008585D01*
X000761Y008487D02*
X001361Y008487D01*
X001361Y008388D02*
X000761Y008388D01*
X000761Y008290D02*
X001369Y008290D01*
X001410Y008191D02*
X000761Y008191D01*
X000761Y008093D02*
X001481Y008093D01*
X001630Y006812D02*
X000761Y006812D01*
X000761Y006714D02*
X001489Y006714D01*
X001416Y006615D02*
X000761Y006615D01*
X000761Y006517D02*
X001376Y006517D01*
X002061Y006517D02*
X002161Y006517D01*
X002161Y006615D02*
X002061Y006615D01*
X002061Y006714D02*
X002161Y006714D01*
X002161Y006812D02*
X002061Y006812D01*
X002061Y006221D02*
X002161Y006221D01*
X002161Y006123D02*
X002061Y006123D01*
X002061Y006024D02*
X002161Y006024D01*
X002660Y006024D02*
X008931Y006024D01*
X008931Y006123D02*
X002766Y006123D01*
X002825Y006221D02*
X008931Y006221D01*
X008931Y006320D02*
X002854Y006320D01*
X002645Y007009D02*
X006418Y007009D01*
X006319Y007108D02*
X002756Y007108D01*
X002818Y007206D02*
X006221Y007206D01*
X006122Y007305D02*
X002859Y007305D01*
X002861Y007403D02*
X006024Y007403D01*
X005925Y007502D02*
X002855Y007502D01*
X002814Y007600D02*
X004727Y007600D01*
X004628Y007699D02*
X002747Y007699D01*
X002626Y007797D02*
X004530Y007797D01*
X004811Y007799D02*
X003861Y008749D01*
X003811Y008799D01*
X004069Y008979D02*
X006429Y008979D01*
X006531Y008881D02*
X004541Y008881D01*
X004666Y008782D02*
X006633Y008782D01*
X006735Y008684D02*
X004711Y008684D01*
X004721Y008585D02*
X006837Y008585D01*
X006939Y008487D02*
X004806Y008487D01*
X004811Y008199D02*
X004411Y008599D01*
X004280Y008881D02*
X004142Y008881D01*
X004811Y008199D02*
X008211Y008199D01*
X008211Y008399D01*
X008411Y008599D01*
X008638Y008388D02*
X008931Y008388D01*
X008931Y008290D02*
X008474Y008290D01*
X008411Y008191D02*
X008931Y008191D01*
X008931Y008093D02*
X008387Y008093D01*
X008700Y008487D02*
X008931Y008487D01*
X008931Y008585D02*
X008721Y008585D01*
X008711Y008684D02*
X008931Y008684D01*
X008931Y008782D02*
X008666Y008782D01*
X008541Y008881D02*
X008931Y008881D01*
X008931Y008979D02*
X007005Y008979D01*
X007107Y008881D02*
X007280Y008881D01*
X007541Y008881D02*
X008280Y008881D01*
X008155Y008782D02*
X007666Y008782D01*
X007711Y008684D02*
X008110Y008684D01*
X008101Y008585D02*
X007721Y008585D01*
X007700Y008487D02*
X008015Y008487D01*
X007411Y008599D02*
X007111Y008599D01*
X005661Y009999D01*
X005454Y009767D02*
X002679Y009767D01*
X002777Y009669D02*
X005715Y009669D01*
X005817Y009570D02*
X002827Y009570D01*
X002861Y009472D02*
X005919Y009472D01*
X006021Y009373D02*
X002861Y009373D01*
X002846Y009275D02*
X006123Y009275D01*
X006225Y009176D02*
X002805Y009176D01*
X002726Y009078D02*
X006327Y009078D01*
X006597Y009373D02*
X008931Y009373D01*
X008931Y009275D02*
X006699Y009275D01*
X006801Y009176D02*
X008931Y009176D01*
X008931Y009078D02*
X006903Y009078D01*
X006611Y008599D02*
X006711Y008499D01*
X006195Y007797D02*
X008931Y007797D01*
X008931Y007699D02*
X006294Y007699D01*
X006392Y007600D02*
X008931Y007600D01*
X008931Y007502D02*
X006491Y007502D01*
X006589Y007403D02*
X008931Y007403D01*
X008931Y007305D02*
X006688Y007305D01*
X006786Y007206D02*
X008931Y007206D01*
X008931Y007108D02*
X006885Y007108D01*
X006983Y007009D02*
X008931Y007009D01*
X008931Y006911D02*
X007237Y006911D01*
X007329Y006812D02*
X008931Y006812D01*
X008931Y006714D02*
X007369Y006714D01*
X007371Y006615D02*
X008931Y006615D01*
X008931Y006517D02*
X007341Y006517D01*
X007268Y006418D02*
X008931Y006418D01*
X008036Y005236D02*
X007338Y005236D01*
X007545Y005138D02*
X007829Y005138D01*
X007730Y005039D02*
X007644Y005039D01*
X007052Y005236D02*
X005369Y005236D01*
X005577Y005138D02*
X006845Y005138D01*
X006746Y005039D02*
X005675Y005039D01*
X005741Y004941D02*
X006680Y004941D01*
X006639Y004842D02*
X005782Y004842D01*
X005806Y004744D02*
X006615Y004744D01*
X006615Y004645D02*
X005806Y004645D01*
X005804Y004547D02*
X006617Y004547D01*
X006658Y004448D02*
X005763Y004448D01*
X005722Y004350D02*
X006699Y004350D01*
X006791Y004251D02*
X005630Y004251D01*
X005499Y004153D02*
X006923Y004153D01*
X007467Y004153D02*
X007907Y004153D01*
X007775Y004251D02*
X007599Y004251D01*
X008061Y002084D02*
X004360Y002084D01*
X004518Y001986D02*
X007904Y001986D01*
X007832Y001887D02*
X004589Y001887D01*
X004628Y001789D02*
X007793Y001789D01*
X007793Y001690D02*
X004628Y001690D01*
X004609Y001592D02*
X007812Y001592D01*
X007855Y001493D02*
X004567Y001493D01*
X004468Y001395D02*
X007953Y001395D01*
X004954Y004153D02*
X004509Y004153D01*
X004646Y004251D02*
X004823Y004251D01*
X004730Y004350D02*
X004728Y004350D01*
X004124Y002084D02*
X002821Y002084D01*
X002852Y001986D02*
X003967Y001986D01*
X002161Y001986D02*
X002061Y001986D01*
X002061Y002084D02*
X002161Y002084D01*
X002161Y002183D02*
X002061Y002183D01*
X002061Y002281D02*
X002161Y002281D01*
X002161Y001690D02*
X002061Y001690D01*
X002061Y001592D02*
X002161Y001592D01*
X002161Y001493D02*
X002061Y001493D01*
X001460Y002183D02*
X000761Y002183D01*
X000761Y002281D02*
X001571Y002281D01*
X001400Y002084D02*
X000761Y002084D01*
X000761Y001986D02*
X001369Y001986D01*
X001512Y003562D02*
X000761Y003562D01*
X000761Y003660D02*
X001423Y003660D01*
X001382Y003759D02*
X000761Y003759D01*
X000761Y003857D02*
X001361Y003857D01*
X001361Y003956D02*
X000761Y003956D01*
X000761Y004054D02*
X001388Y004054D01*
X001429Y004153D02*
X000761Y004153D01*
X000761Y004251D02*
X001526Y004251D01*
X001527Y004547D02*
X000761Y004547D01*
X000761Y004645D02*
X001429Y004645D01*
X001388Y004744D02*
X000761Y004744D01*
X000761Y004842D02*
X001361Y004842D01*
X001361Y004941D02*
X000761Y004941D01*
X000761Y005039D02*
X001382Y005039D01*
X001422Y005138D02*
X000761Y005138D01*
X000761Y005236D02*
X001511Y005236D01*
X004811Y007799D02*
X005911Y007799D01*
X007061Y006649D01*
X006097Y007896D02*
X008931Y007896D01*
X008931Y007994D02*
X005998Y007994D01*
X005311Y008699D02*
X005411Y008799D01*
X006189Y009767D02*
X008931Y009767D01*
X008931Y009669D02*
X006291Y009669D01*
X006393Y009570D02*
X008931Y009570D01*
X008931Y009472D02*
X006495Y009472D01*
X006087Y009866D02*
X008931Y009866D01*
X008931Y009964D02*
X005985Y009964D01*
X005970Y010063D02*
X008931Y010063D01*
X008931Y010161D02*
X005929Y010161D01*
X005838Y010260D02*
X008931Y010260D01*
X008931Y010358D02*
X000761Y010358D01*
X000761Y010260D02*
X005483Y010260D01*
X005392Y010161D02*
X000761Y010161D01*
X000761Y010063D02*
X005351Y010063D01*
X005351Y009964D02*
X000761Y009964D01*
X000761Y009866D02*
X005380Y009866D01*
X008743Y011048D02*
X000916Y011048D01*
X000825Y010949D02*
X008842Y010949D01*
X008889Y010851D02*
X000784Y010851D01*
X000763Y010752D02*
X008924Y010752D01*
X008931Y010654D02*
X000761Y010654D01*
X000761Y010555D02*
X008931Y010555D01*
X008931Y010457D02*
X000761Y010457D01*
M02*
