%
M48
M72
T01C0.0200
T02C0.0400
T03C0.0472
T04C0.0512
%
T01
X5311Y8699
X6611Y8599
X7061Y6649
X3861Y8749
X4411Y8599
X8411Y8599
X5661Y9999
X7411Y8599
T02
X2111Y1899
X2111Y2899
X2111Y3899
X2111Y4899
X2111Y6399
X2111Y7399
X2111Y8399
X2111Y9399
T03
X8179Y2699
X8179Y1715
X4242Y1715
X4242Y2699
T04
X6211Y2699
X7195Y4668
X8179Y4668
X5226Y4668
X4242Y4668
M30
