G75*
G70*
%OFA0B0*%
%FSLAX24Y24*%
%IPPOS*%
%LPD*%
%AMOC8*
5,1,8,0,0,1.08239X$1,22.5*
%
%ADD10C,0.0060*%
%ADD11C,0.0050*%
%ADD12C,0.0100*%
%ADD13C,0.0080*%
D10*
X003391Y001447D02*
X003391Y001560D01*
X003391Y001504D02*
X003731Y001504D01*
X003731Y001560D02*
X003731Y001447D01*
X003674Y001692D02*
X003731Y001749D01*
X003731Y001863D01*
X003674Y001919D01*
X003617Y001919D01*
X003391Y001692D01*
X003391Y001919D01*
X003447Y002061D02*
X003391Y002117D01*
X003391Y002231D01*
X003447Y002288D01*
X003674Y002288D02*
X003731Y002231D01*
X003731Y002117D01*
X003674Y002061D01*
X003447Y002061D01*
X003391Y005897D02*
X003391Y006010D01*
X003391Y005954D02*
X003731Y005954D01*
X003731Y006010D02*
X003731Y005897D01*
X003674Y006142D02*
X003731Y006199D01*
X003731Y006313D01*
X003674Y006369D01*
X003617Y006369D01*
X003391Y006142D01*
X003391Y006369D01*
X003447Y006511D02*
X003391Y006567D01*
X003391Y006681D01*
X003447Y006738D01*
X003674Y006738D02*
X003731Y006681D01*
X003731Y006567D01*
X003674Y006511D01*
X003447Y006511D01*
D11*
X003261Y006499D02*
X003261Y006399D01*
X003111Y006399D01*
X003261Y001999D02*
X003261Y001899D01*
X003111Y001899D01*
D12*
X000961Y002349D02*
X000961Y001399D01*
X002111Y001399D01*
X003261Y001399D01*
X003261Y001899D01*
X002861Y001899D01*
X002861Y001999D01*
X003261Y001999D01*
X003261Y001899D02*
X003261Y002399D01*
X003261Y005399D01*
X002111Y005399D01*
X000961Y005399D01*
X000961Y005149D01*
X001211Y005149D01*
X001211Y004649D01*
X000961Y004649D01*
X000961Y004149D01*
X001211Y004149D01*
X001211Y003649D01*
X000961Y003649D01*
X000961Y003149D01*
X000961Y001649D01*
X001211Y001649D01*
X001211Y002149D01*
X000961Y002149D01*
X000961Y002649D01*
X001211Y002649D01*
X001211Y003149D01*
X000961Y003149D01*
X000961Y002349D02*
X000961Y005399D01*
X000961Y005899D02*
X000961Y006849D01*
X000961Y009899D01*
X000961Y009649D01*
X001211Y009649D01*
X001211Y009149D01*
X000961Y009149D01*
X000961Y008649D01*
X001211Y008649D01*
X001211Y008149D01*
X000961Y008149D01*
X000961Y007649D01*
X000961Y006149D01*
X001211Y006149D01*
X001211Y006649D01*
X000961Y006649D01*
X000961Y007149D01*
X001211Y007149D01*
X001211Y007649D01*
X000961Y007649D01*
X000961Y006149D02*
X000961Y005999D01*
X000961Y005899D02*
X002111Y005899D01*
X003261Y005899D01*
X003261Y006399D01*
X002861Y006399D01*
X002861Y006499D01*
X003261Y006499D01*
X003261Y006399D02*
X003261Y006899D01*
X003261Y009899D01*
X002111Y009899D01*
X000961Y009899D01*
X002861Y009399D02*
X002861Y009299D01*
X003261Y009299D01*
X003261Y009399D02*
X002861Y009399D01*
X002861Y009299D02*
X002861Y006499D01*
X002861Y004899D02*
X003261Y004899D01*
X003261Y004799D02*
X002861Y004799D01*
X002861Y004899D01*
X002861Y004799D02*
X002861Y001999D01*
X000961Y001649D02*
X000961Y001499D01*
D13*
X003848Y001321D02*
X003848Y004077D01*
X003848Y005258D02*
X003848Y005652D01*
X008573Y005652D01*
X008573Y005258D01*
X008573Y004077D02*
X008573Y001321D01*
X003848Y001321D01*
M02*
