G75*
G70*
%OFA0B0*%
%FSLAX24Y24*%
%IPPOS*%
%LPD*%
%AMOC8*
5,1,8,0,0,1.08239X$1,22.5*
%
%ADD10C,0.0600*%
%ADD11C,0.0860*%
%ADD12C,0.0320*%
%ADD13C,0.0100*%
D10*
X007699Y001811D02*
X007699Y002411D01*
X008699Y002411D02*
X008699Y001811D01*
X009699Y001811D02*
X009699Y002411D01*
X010699Y002411D02*
X010699Y001811D01*
X012699Y001811D02*
X012699Y002411D01*
X013699Y002411D02*
X013699Y001811D01*
X014699Y001811D02*
X014699Y002411D01*
X015699Y002411D02*
X015699Y001811D01*
X018799Y003611D02*
X019399Y003611D01*
X019399Y004611D02*
X018799Y004611D01*
X018799Y006111D02*
X019399Y006111D01*
X019399Y007111D02*
X018799Y007111D01*
X018799Y008611D02*
X019399Y008611D01*
X019399Y009611D02*
X018799Y009611D01*
X018799Y010611D02*
X019399Y010611D01*
D11*
X004668Y011595D03*
X004668Y012579D03*
X002699Y010611D03*
X004668Y009626D03*
X004668Y008642D03*
X004668Y007079D03*
X004668Y006095D03*
X002699Y005111D03*
X004668Y004126D03*
X004668Y003142D03*
D12*
X006999Y004111D03*
X006799Y005511D03*
X009399Y007111D03*
X010599Y007611D03*
X011099Y007611D03*
X012199Y006311D03*
X014799Y004811D03*
X010599Y003911D03*
X009699Y002611D03*
X007699Y009211D03*
X010599Y010911D03*
X011899Y010011D03*
X011099Y009311D03*
X009199Y012811D03*
D13*
X002666Y000802D02*
X002554Y000761D01*
X019731Y000761D01*
X019888Y000773D01*
X019942Y000791D01*
X019720Y000791D01*
X019637Y000791D01*
X019332Y000902D01*
X019332Y000902D01*
X019083Y001110D01*
X019083Y001110D01*
X018921Y001391D01*
X018921Y001391D01*
X018865Y001711D01*
X018921Y002030D01*
X018921Y002030D01*
X019083Y002311D01*
X019332Y002520D01*
X019332Y002520D01*
X019637Y002631D01*
X019961Y002631D01*
X020266Y002520D01*
X020266Y002520D01*
X020515Y002311D01*
X020515Y002311D01*
X020677Y002030D01*
X020677Y002030D01*
X020731Y001724D01*
X020734Y001764D01*
X020734Y013617D01*
X020615Y013410D01*
X020615Y013410D01*
X020615Y013410D01*
X020366Y013202D01*
X020366Y013202D01*
X020061Y013091D01*
X019737Y013091D01*
X019432Y013202D01*
X019432Y013202D01*
X019183Y013410D01*
X019183Y013410D01*
X019021Y013691D01*
X019021Y013691D01*
X018965Y014011D01*
X018965Y014011D01*
X019021Y014330D01*
X019021Y014330D01*
X019183Y014611D01*
X019183Y014611D01*
X019183Y014611D01*
X019432Y014820D01*
X019432Y014820D01*
X019503Y014846D01*
X002595Y014846D01*
X002666Y014820D01*
X002666Y014820D01*
X002915Y014611D01*
X002915Y014611D01*
X003077Y014330D01*
X003133Y014011D01*
X003077Y013691D01*
X002915Y013410D01*
X002915Y013410D01*
X002915Y013410D01*
X002666Y013202D01*
X002666Y013202D01*
X002361Y013091D01*
X002037Y013091D01*
X001732Y013202D01*
X001732Y013202D01*
X001483Y013410D01*
X001483Y013410D01*
X001349Y013643D01*
X001349Y012705D01*
X001387Y012798D01*
X001496Y012907D01*
X001638Y012965D01*
X001792Y012965D01*
X001934Y012907D01*
X002042Y012798D01*
X002101Y012656D01*
X002101Y012502D01*
X002042Y012360D01*
X001934Y012252D01*
X001792Y012193D01*
X001638Y012193D01*
X001496Y012252D01*
X001387Y012360D01*
X001349Y012453D01*
X001349Y008768D01*
X001387Y008861D01*
X001496Y008970D01*
X001638Y009028D01*
X001792Y009028D01*
X001934Y008970D01*
X002042Y008861D01*
X002101Y008719D01*
X002101Y008565D01*
X002042Y008423D01*
X001934Y008315D01*
X001792Y008256D01*
X001638Y008256D01*
X001496Y008315D01*
X001387Y008423D01*
X001349Y008516D01*
X001349Y007205D01*
X001387Y007298D01*
X001496Y007407D01*
X001638Y007465D01*
X001792Y007465D01*
X001934Y007407D01*
X002042Y007298D01*
X002101Y007156D01*
X002101Y007002D01*
X002042Y006860D01*
X001934Y006752D01*
X001792Y006693D01*
X001638Y006693D01*
X001496Y006752D01*
X001387Y006860D01*
X001349Y006953D01*
X001349Y003268D01*
X001387Y003361D01*
X001496Y003470D01*
X001638Y003528D01*
X001792Y003528D01*
X001934Y003470D01*
X002042Y003361D01*
X002101Y003219D01*
X002101Y003065D01*
X002042Y002923D01*
X001934Y002815D01*
X001792Y002756D01*
X001638Y002756D01*
X001496Y002815D01*
X001387Y002923D01*
X001349Y003016D01*
X001349Y001978D01*
X001483Y002211D01*
X001483Y002211D01*
X001483Y002211D01*
X001732Y002420D01*
X001732Y002420D01*
X002037Y002531D01*
X002361Y002531D01*
X002666Y002420D01*
X002666Y002420D01*
X002915Y002211D01*
X002915Y002211D01*
X003077Y001930D01*
X003077Y001930D01*
X003133Y001611D01*
X003133Y001611D01*
X003077Y001291D01*
X003077Y001291D01*
X002915Y001010D01*
X002915Y001010D01*
X002915Y001010D01*
X002666Y000802D01*
X002666Y000802D01*
X002673Y000808D02*
X019590Y000808D01*
X019327Y000906D02*
X002791Y000906D01*
X002908Y001005D02*
X019209Y001005D01*
X019092Y001103D02*
X002968Y001103D01*
X003025Y001202D02*
X019031Y001202D01*
X018974Y001300D02*
X003078Y001300D01*
X003096Y001399D02*
X007516Y001399D01*
X007526Y001394D02*
X007594Y001372D01*
X007649Y001363D01*
X007649Y002061D01*
X007249Y002061D01*
X007249Y001775D01*
X007260Y001705D01*
X007282Y001638D01*
X007314Y001575D01*
X007356Y001517D01*
X007406Y001467D01*
X007463Y001426D01*
X007526Y001394D01*
X007649Y001399D02*
X007749Y001399D01*
X007749Y001363D02*
X007804Y001372D01*
X007872Y001394D01*
X007935Y001426D01*
X007992Y001467D01*
X008042Y001517D01*
X008084Y001575D01*
X008116Y001638D01*
X008138Y001705D01*
X008149Y001775D01*
X008149Y002061D01*
X007749Y002061D01*
X007749Y002161D01*
X007649Y002161D01*
X007649Y002858D01*
X007594Y002850D01*
X007526Y002828D01*
X007463Y002795D01*
X007406Y002754D01*
X007356Y002704D01*
X007314Y002646D01*
X007282Y002583D01*
X007260Y002516D01*
X007249Y002446D01*
X007249Y002161D01*
X007649Y002161D01*
X007649Y002061D01*
X007749Y002061D01*
X007749Y001363D01*
X007749Y001497D02*
X007649Y001497D01*
X007649Y001596D02*
X007749Y001596D01*
X007749Y001694D02*
X007649Y001694D01*
X007649Y001793D02*
X007749Y001793D01*
X007749Y001891D02*
X007649Y001891D01*
X007649Y001990D02*
X007749Y001990D01*
X007749Y002088D02*
X008249Y002088D01*
X008249Y001990D02*
X008149Y001990D01*
X008149Y001891D02*
X008249Y001891D01*
X008249Y001793D02*
X008149Y001793D01*
X008134Y001694D02*
X008260Y001694D01*
X008249Y001721D02*
X008318Y001556D01*
X008444Y001429D01*
X008610Y001361D01*
X008789Y001361D01*
X008954Y001429D01*
X009081Y001556D01*
X009149Y001721D01*
X009149Y002500D01*
X009081Y002665D01*
X008954Y002792D01*
X008789Y002861D01*
X008610Y002861D01*
X008444Y002792D01*
X008318Y002665D01*
X008249Y002500D01*
X008249Y001721D01*
X008301Y001596D02*
X008095Y001596D01*
X008022Y001497D02*
X008376Y001497D01*
X008518Y001399D02*
X007882Y001399D01*
X007376Y001497D02*
X003113Y001497D01*
X003131Y001596D02*
X007304Y001596D01*
X007264Y001694D02*
X003119Y001694D01*
X003101Y001793D02*
X007249Y001793D01*
X007249Y001891D02*
X003084Y001891D01*
X003043Y001990D02*
X007249Y001990D01*
X007249Y002187D02*
X002929Y002187D01*
X002986Y002088D02*
X007649Y002088D01*
X007649Y002187D02*
X007749Y002187D01*
X007749Y002161D02*
X007749Y002858D01*
X007804Y002850D01*
X007872Y002828D01*
X007935Y002795D01*
X007992Y002754D01*
X008042Y002704D01*
X008084Y002646D01*
X008116Y002583D01*
X008138Y002516D01*
X008149Y002446D01*
X008149Y002161D01*
X007749Y002161D01*
X007749Y002285D02*
X007649Y002285D01*
X007649Y002384D02*
X007749Y002384D01*
X007749Y002482D02*
X007649Y002482D01*
X007649Y002581D02*
X007749Y002581D01*
X007749Y002679D02*
X007649Y002679D01*
X007649Y002778D02*
X007749Y002778D01*
X007959Y002778D02*
X008430Y002778D01*
X008331Y002679D02*
X008060Y002679D01*
X008117Y002581D02*
X008282Y002581D01*
X008249Y002482D02*
X008143Y002482D01*
X008149Y002384D02*
X008249Y002384D01*
X008249Y002285D02*
X008149Y002285D01*
X008149Y002187D02*
X008249Y002187D01*
X009149Y002187D02*
X009249Y002187D01*
X009249Y002285D02*
X009149Y002285D01*
X009149Y002384D02*
X009249Y002384D01*
X009249Y002482D02*
X009149Y002482D01*
X009249Y002500D02*
X009318Y002665D01*
X009339Y002687D01*
X006826Y005201D01*
X006737Y005201D01*
X006623Y005248D01*
X006536Y005335D01*
X006489Y005449D01*
X006489Y005572D01*
X006536Y005686D01*
X006623Y005773D01*
X006737Y005821D01*
X006861Y005821D01*
X006975Y005773D01*
X007062Y005686D01*
X007109Y005572D01*
X007109Y005483D01*
X009672Y002921D01*
X009761Y002921D01*
X009875Y002873D01*
X009962Y002786D01*
X009963Y002783D01*
X010081Y002665D01*
X010149Y002500D01*
X010149Y001721D01*
X010081Y001556D01*
X009954Y001429D01*
X009789Y001361D01*
X009610Y001361D01*
X009444Y001429D01*
X009318Y001556D01*
X009249Y001721D01*
X009249Y002500D01*
X009282Y002581D02*
X009116Y002581D01*
X009067Y002679D02*
X009331Y002679D01*
X009249Y002778D02*
X008968Y002778D01*
X009151Y002876D02*
X005183Y002876D01*
X005164Y002838D02*
X005205Y002919D01*
X005233Y003006D01*
X005247Y003092D01*
X004718Y003092D01*
X004718Y003192D01*
X005247Y003192D01*
X005233Y003278D01*
X005205Y003365D01*
X005164Y003446D01*
X005110Y003520D01*
X005045Y003584D01*
X004984Y003629D01*
X004996Y003635D01*
X005159Y003798D01*
X005248Y004011D01*
X005248Y004242D01*
X005159Y004455D01*
X004996Y004618D01*
X004783Y004706D01*
X004552Y004706D01*
X004339Y004618D01*
X004176Y004455D01*
X004088Y004242D01*
X004088Y004011D01*
X004176Y003798D01*
X004339Y003635D01*
X004352Y003629D01*
X004290Y003584D01*
X004225Y003520D01*
X004171Y003446D01*
X004130Y003365D01*
X004102Y003278D01*
X004088Y003192D01*
X004618Y003192D01*
X004618Y003092D01*
X004718Y003092D01*
X004718Y002563D01*
X004803Y002576D01*
X004890Y002605D01*
X004972Y002646D01*
X005045Y002700D01*
X005110Y002764D01*
X005164Y002838D01*
X005120Y002778D02*
X007439Y002778D01*
X007338Y002679D02*
X005017Y002679D01*
X004816Y002581D02*
X007281Y002581D01*
X007255Y002482D02*
X002495Y002482D01*
X002709Y002384D02*
X007249Y002384D01*
X007249Y002285D02*
X002826Y002285D01*
X002776Y002756D02*
X002622Y002756D01*
X002480Y002815D01*
X002372Y002923D01*
X002313Y003065D01*
X002313Y003219D01*
X002372Y003361D01*
X002480Y003470D01*
X002622Y003528D01*
X002776Y003528D01*
X002918Y003470D01*
X003026Y003361D01*
X003085Y003219D01*
X003085Y003065D01*
X003026Y002923D01*
X002918Y002815D01*
X002776Y002756D01*
X002828Y002778D02*
X004215Y002778D01*
X004225Y002764D02*
X004290Y002700D01*
X004364Y002646D01*
X004445Y002605D01*
X004532Y002576D01*
X004618Y002563D01*
X004618Y003092D01*
X004088Y003092D01*
X004102Y003006D01*
X004130Y002919D01*
X004171Y002838D01*
X004225Y002764D01*
X004318Y002679D02*
X001349Y002679D01*
X001349Y002581D02*
X004519Y002581D01*
X004618Y002581D02*
X004718Y002581D01*
X004718Y002679D02*
X004618Y002679D01*
X004618Y002778D02*
X004718Y002778D01*
X004718Y002876D02*
X004618Y002876D01*
X004618Y002975D02*
X004718Y002975D01*
X004718Y003073D02*
X004618Y003073D01*
X004618Y003172D02*
X003085Y003172D01*
X003085Y003073D02*
X004091Y003073D01*
X004112Y002975D02*
X003048Y002975D01*
X002979Y002876D02*
X004152Y002876D01*
X004101Y003270D02*
X003064Y003270D01*
X003019Y003369D02*
X004132Y003369D01*
X004187Y003467D02*
X002920Y003467D01*
X002478Y003467D02*
X001936Y003467D01*
X002034Y003369D02*
X002379Y003369D01*
X002334Y003270D02*
X002080Y003270D01*
X002101Y003172D02*
X002313Y003172D01*
X002313Y003073D02*
X002101Y003073D01*
X002063Y002975D02*
X002350Y002975D01*
X002419Y002876D02*
X001995Y002876D01*
X001844Y002778D02*
X002570Y002778D01*
X001904Y002482D02*
X001349Y002482D01*
X001349Y002384D02*
X001689Y002384D01*
X001572Y002285D02*
X001349Y002285D01*
X001349Y002187D02*
X001469Y002187D01*
X001412Y002088D02*
X001349Y002088D01*
X001349Y001990D02*
X001356Y001990D01*
X001349Y002778D02*
X001586Y002778D01*
X001435Y002876D02*
X001349Y002876D01*
X001349Y002975D02*
X001366Y002975D01*
X001349Y003270D02*
X001350Y003270D01*
X001349Y003369D02*
X001395Y003369D01*
X001349Y003467D02*
X001494Y003467D01*
X001349Y003566D02*
X004271Y003566D01*
X004310Y003664D02*
X001349Y003664D01*
X001349Y003763D02*
X004211Y003763D01*
X004150Y003861D02*
X001349Y003861D01*
X001349Y003960D02*
X004109Y003960D01*
X004088Y004058D02*
X001349Y004058D01*
X001349Y004157D02*
X004088Y004157D01*
X004093Y004255D02*
X001349Y004255D01*
X001349Y004354D02*
X004134Y004354D01*
X004175Y004452D02*
X001349Y004452D01*
X001349Y004551D02*
X002535Y004551D01*
X002584Y004531D02*
X002371Y004619D01*
X002207Y004782D01*
X002119Y004995D01*
X002119Y005226D01*
X002207Y005439D01*
X002371Y005602D01*
X002584Y005691D01*
X002814Y005691D01*
X003028Y005602D01*
X003191Y005439D01*
X003279Y005226D01*
X003279Y004995D01*
X003191Y004782D01*
X003028Y004619D01*
X002814Y004531D01*
X002584Y004531D01*
X002863Y004551D02*
X004272Y004551D01*
X004414Y004649D02*
X003058Y004649D01*
X003156Y004748D02*
X004535Y004748D01*
X004591Y004724D02*
X004744Y004724D01*
X004886Y004783D01*
X004995Y004892D01*
X005054Y005034D01*
X005054Y005187D01*
X004995Y005329D01*
X004886Y005438D01*
X004744Y005497D01*
X004591Y005497D01*
X004449Y005438D01*
X004340Y005329D01*
X004281Y005187D01*
X004281Y005034D01*
X004340Y004892D01*
X004449Y004783D01*
X004591Y004724D01*
X004800Y004748D02*
X007279Y004748D01*
X007181Y004846D02*
X004949Y004846D01*
X005017Y004945D02*
X007082Y004945D01*
X006984Y005043D02*
X005054Y005043D01*
X005054Y005142D02*
X006885Y005142D01*
X006642Y005240D02*
X005032Y005240D01*
X004986Y005339D02*
X006535Y005339D01*
X006494Y005437D02*
X004887Y005437D01*
X004833Y005536D02*
X006489Y005536D01*
X006515Y005634D02*
X005027Y005634D01*
X004996Y005603D02*
X005159Y005766D01*
X005248Y005979D01*
X005248Y006210D01*
X005159Y006423D01*
X004996Y006587D01*
X005159Y006751D01*
X005248Y006964D01*
X005248Y007194D01*
X005159Y007408D01*
X004996Y007571D01*
X004783Y007659D01*
X004552Y007659D01*
X004339Y007571D01*
X004176Y007408D01*
X004088Y007194D01*
X004088Y006964D01*
X004176Y006751D01*
X004339Y006587D01*
X004340Y006587D01*
X004339Y006587D01*
X004176Y006423D01*
X004088Y006210D01*
X004088Y005979D01*
X004176Y005766D01*
X004339Y005603D01*
X004552Y005515D01*
X004783Y005515D01*
X004996Y005603D01*
X005126Y005733D02*
X006583Y005733D01*
X006799Y005511D02*
X009699Y002611D01*
X009868Y002876D02*
X010399Y002876D01*
X010399Y002778D02*
X009968Y002778D01*
X010067Y002679D02*
X010331Y002679D01*
X010318Y002665D02*
X010249Y002500D01*
X010249Y001721D01*
X010318Y001556D01*
X010444Y001429D01*
X010610Y001361D01*
X010789Y001361D01*
X010954Y001429D01*
X011081Y001556D01*
X011149Y001721D01*
X011149Y002500D01*
X011081Y002665D01*
X010954Y002792D01*
X010799Y002856D01*
X010799Y003672D01*
X010862Y003735D01*
X010909Y003849D01*
X010909Y003972D01*
X010862Y004086D01*
X010775Y004173D01*
X010661Y004221D01*
X010537Y004221D01*
X010423Y004173D01*
X010336Y004086D01*
X010289Y003972D01*
X010289Y003849D01*
X010336Y003735D01*
X010399Y003672D01*
X010399Y002747D01*
X010318Y002665D01*
X010282Y002581D02*
X010116Y002581D01*
X010149Y002482D02*
X010249Y002482D01*
X010249Y002384D02*
X010149Y002384D01*
X010149Y002285D02*
X010249Y002285D01*
X010249Y002187D02*
X010149Y002187D01*
X010149Y002088D02*
X010249Y002088D01*
X010249Y001990D02*
X010149Y001990D01*
X010149Y001891D02*
X010249Y001891D01*
X010249Y001793D02*
X010149Y001793D01*
X010138Y001694D02*
X010260Y001694D01*
X010301Y001596D02*
X010097Y001596D01*
X010022Y001497D02*
X010376Y001497D01*
X010518Y001399D02*
X009880Y001399D01*
X009518Y001399D02*
X008880Y001399D01*
X009022Y001497D02*
X009376Y001497D01*
X009301Y001596D02*
X009097Y001596D01*
X009138Y001694D02*
X009260Y001694D01*
X009249Y001793D02*
X009149Y001793D01*
X009149Y001891D02*
X009249Y001891D01*
X009249Y001990D02*
X009149Y001990D01*
X009149Y002088D02*
X009249Y002088D01*
X009052Y002975D02*
X005223Y002975D01*
X005244Y003073D02*
X008954Y003073D01*
X008855Y003172D02*
X004718Y003172D01*
X005148Y003467D02*
X008560Y003467D01*
X008658Y003369D02*
X005203Y003369D01*
X005235Y003270D02*
X008757Y003270D01*
X009125Y003467D02*
X010399Y003467D01*
X010399Y003369D02*
X009224Y003369D01*
X009322Y003270D02*
X010399Y003270D01*
X010399Y003172D02*
X009421Y003172D01*
X009519Y003073D02*
X010399Y003073D01*
X010399Y002975D02*
X009618Y002975D01*
X009027Y003566D02*
X010399Y003566D01*
X010399Y003664D02*
X008928Y003664D01*
X008830Y003763D02*
X010325Y003763D01*
X010289Y003861D02*
X008731Y003861D01*
X008633Y003960D02*
X010289Y003960D01*
X010325Y004058D02*
X008534Y004058D01*
X008436Y004157D02*
X010407Y004157D01*
X010599Y003911D02*
X010599Y002211D01*
X010699Y002111D01*
X011149Y002088D02*
X012649Y002088D01*
X012649Y002061D02*
X012249Y002061D01*
X012249Y001775D01*
X012260Y001705D01*
X012282Y001638D01*
X012314Y001575D01*
X012356Y001517D01*
X012406Y001467D01*
X012463Y001426D01*
X012526Y001394D01*
X012594Y001372D01*
X012649Y001363D01*
X012649Y002061D01*
X012649Y002161D01*
X012649Y002858D01*
X012594Y002850D01*
X012526Y002828D01*
X012463Y002795D01*
X012406Y002754D01*
X012356Y002704D01*
X012314Y002646D01*
X012282Y002583D01*
X012260Y002516D01*
X012249Y002446D01*
X012249Y002161D01*
X012649Y002161D01*
X012749Y002161D01*
X012749Y002858D01*
X012804Y002850D01*
X012872Y002828D01*
X012935Y002795D01*
X012992Y002754D01*
X013042Y002704D01*
X013084Y002646D01*
X013116Y002583D01*
X013138Y002516D01*
X013149Y002446D01*
X013149Y002161D01*
X012749Y002161D01*
X012749Y002061D01*
X013149Y002061D01*
X013149Y001775D01*
X013138Y001705D01*
X013116Y001638D01*
X013084Y001575D01*
X013042Y001517D01*
X012992Y001467D01*
X012935Y001426D01*
X012872Y001394D01*
X012804Y001372D01*
X012749Y001363D01*
X012749Y002061D01*
X012649Y002061D01*
X012649Y001990D02*
X012749Y001990D01*
X012749Y002088D02*
X013249Y002088D01*
X013249Y001990D02*
X013149Y001990D01*
X013149Y001891D02*
X013249Y001891D01*
X013249Y001793D02*
X013149Y001793D01*
X013134Y001694D02*
X013260Y001694D01*
X013249Y001721D02*
X013318Y001556D01*
X013444Y001429D01*
X013610Y001361D01*
X013789Y001361D01*
X013954Y001429D01*
X014081Y001556D01*
X014149Y001721D01*
X014149Y002500D01*
X014081Y002665D01*
X013954Y002792D01*
X013789Y002861D01*
X013610Y002861D01*
X013444Y002792D01*
X013318Y002665D01*
X013249Y002500D01*
X013249Y001721D01*
X013301Y001596D02*
X013095Y001596D01*
X013022Y001497D02*
X013376Y001497D01*
X013518Y001399D02*
X012882Y001399D01*
X012749Y001399D02*
X012649Y001399D01*
X012649Y001497D02*
X012749Y001497D01*
X012749Y001596D02*
X012649Y001596D01*
X012649Y001694D02*
X012749Y001694D01*
X012749Y001793D02*
X012649Y001793D01*
X012649Y001891D02*
X012749Y001891D01*
X012749Y002187D02*
X012649Y002187D01*
X012649Y002285D02*
X012749Y002285D01*
X012749Y002384D02*
X012649Y002384D01*
X012649Y002482D02*
X012749Y002482D01*
X012749Y002581D02*
X012649Y002581D01*
X012649Y002679D02*
X012749Y002679D01*
X012749Y002778D02*
X012649Y002778D01*
X012439Y002778D02*
X010968Y002778D01*
X011067Y002679D02*
X012338Y002679D01*
X012281Y002581D02*
X011116Y002581D01*
X011149Y002482D02*
X012255Y002482D01*
X012249Y002384D02*
X011149Y002384D01*
X011149Y002285D02*
X012249Y002285D01*
X012249Y002187D02*
X011149Y002187D01*
X011149Y001990D02*
X012249Y001990D01*
X012249Y001891D02*
X011149Y001891D01*
X011149Y001793D02*
X012249Y001793D01*
X012264Y001694D02*
X011138Y001694D01*
X011097Y001596D02*
X012304Y001596D01*
X012376Y001497D02*
X011022Y001497D01*
X010880Y001399D02*
X012516Y001399D01*
X013149Y002187D02*
X013249Y002187D01*
X013249Y002285D02*
X013149Y002285D01*
X013149Y002384D02*
X013249Y002384D01*
X013249Y002482D02*
X013143Y002482D01*
X013117Y002581D02*
X013282Y002581D01*
X013331Y002679D02*
X013060Y002679D01*
X012959Y002778D02*
X013430Y002778D01*
X013968Y002778D02*
X014430Y002778D01*
X014444Y002792D02*
X014318Y002665D01*
X014249Y002500D01*
X014249Y001721D01*
X014318Y001556D01*
X014444Y001429D01*
X014610Y001361D01*
X014789Y001361D01*
X014954Y001429D01*
X015081Y001556D01*
X015149Y001721D01*
X015149Y002500D01*
X015081Y002665D01*
X014954Y002792D01*
X014789Y002861D01*
X014610Y002861D01*
X014444Y002792D01*
X014331Y002679D02*
X014067Y002679D01*
X014116Y002581D02*
X014282Y002581D01*
X014249Y002482D02*
X014149Y002482D01*
X014149Y002384D02*
X014249Y002384D01*
X014249Y002285D02*
X014149Y002285D01*
X014149Y002187D02*
X014249Y002187D01*
X014249Y002088D02*
X014149Y002088D01*
X014149Y001990D02*
X014249Y001990D01*
X014249Y001891D02*
X014149Y001891D01*
X014149Y001793D02*
X014249Y001793D01*
X014260Y001694D02*
X014138Y001694D01*
X014097Y001596D02*
X014301Y001596D01*
X014376Y001497D02*
X014022Y001497D01*
X013880Y001399D02*
X014518Y001399D01*
X014880Y001399D02*
X015518Y001399D01*
X015444Y001429D02*
X015610Y001361D01*
X015789Y001361D01*
X015954Y001429D01*
X016081Y001556D01*
X016149Y001721D01*
X016149Y002500D01*
X016081Y002665D01*
X015954Y002792D01*
X015789Y002861D01*
X015610Y002861D01*
X015444Y002792D01*
X015318Y002665D01*
X015249Y002500D01*
X015249Y001721D01*
X015318Y001556D01*
X015444Y001429D01*
X015376Y001497D02*
X015022Y001497D01*
X015097Y001596D02*
X015301Y001596D01*
X015260Y001694D02*
X015138Y001694D01*
X015149Y001793D02*
X015249Y001793D01*
X015249Y001891D02*
X015149Y001891D01*
X015149Y001990D02*
X015249Y001990D01*
X015249Y002088D02*
X015149Y002088D01*
X015149Y002187D02*
X015249Y002187D01*
X015249Y002285D02*
X015149Y002285D01*
X015149Y002384D02*
X015249Y002384D01*
X015249Y002482D02*
X015149Y002482D01*
X015116Y002581D02*
X015282Y002581D01*
X015331Y002679D02*
X015067Y002679D01*
X014968Y002778D02*
X015430Y002778D01*
X015968Y002778D02*
X020734Y002778D01*
X020734Y002876D02*
X010799Y002876D01*
X010799Y002975D02*
X020734Y002975D01*
X020734Y003073D02*
X010799Y003073D01*
X010799Y003172D02*
X018683Y003172D01*
X018710Y003161D02*
X018544Y003229D01*
X018418Y003356D01*
X018349Y003521D01*
X018349Y003700D01*
X018418Y003865D01*
X018544Y003992D01*
X018710Y004061D01*
X019489Y004061D01*
X019654Y003992D01*
X019781Y003865D01*
X019849Y003700D01*
X019849Y003521D01*
X019781Y003356D01*
X019654Y003229D01*
X019489Y003161D01*
X018710Y003161D01*
X018503Y003270D02*
X010799Y003270D01*
X010799Y003369D02*
X018412Y003369D01*
X018371Y003467D02*
X010799Y003467D01*
X010799Y003566D02*
X018349Y003566D01*
X018349Y003664D02*
X010799Y003664D01*
X010873Y003763D02*
X018375Y003763D01*
X018416Y003861D02*
X010909Y003861D01*
X010909Y003960D02*
X018512Y003960D01*
X018704Y004058D02*
X010873Y004058D01*
X010791Y004157D02*
X020734Y004157D01*
X020734Y004255D02*
X019680Y004255D01*
X019654Y004229D02*
X019781Y004356D01*
X019849Y004521D01*
X019849Y004700D01*
X019781Y004865D01*
X019654Y004992D01*
X019489Y005061D01*
X018710Y005061D01*
X018544Y004992D01*
X018418Y004865D01*
X018349Y004700D01*
X018349Y004521D01*
X018418Y004356D01*
X018544Y004229D01*
X018710Y004161D01*
X019489Y004161D01*
X019654Y004229D01*
X019778Y004354D02*
X020734Y004354D01*
X020734Y004452D02*
X019820Y004452D01*
X019849Y004551D02*
X020734Y004551D01*
X020734Y004649D02*
X019849Y004649D01*
X019829Y004748D02*
X020734Y004748D01*
X020734Y004846D02*
X019789Y004846D01*
X019701Y004945D02*
X020734Y004945D01*
X020734Y005043D02*
X019531Y005043D01*
X019434Y005661D02*
X019149Y005661D01*
X019149Y006061D01*
X019149Y006161D01*
X019049Y006161D01*
X019049Y006561D01*
X018764Y006561D01*
X018694Y006550D01*
X018626Y006528D01*
X018563Y006495D01*
X018506Y006454D01*
X018456Y006404D01*
X018414Y006346D01*
X018382Y006283D01*
X018360Y006216D01*
X018351Y006161D01*
X019049Y006161D01*
X019049Y006061D01*
X018351Y006061D01*
X018360Y006005D01*
X018382Y005938D01*
X018414Y005875D01*
X018456Y005817D01*
X018506Y005767D01*
X018563Y005726D01*
X018626Y005694D01*
X018694Y005672D01*
X018764Y005661D01*
X019049Y005661D01*
X019049Y006061D01*
X019149Y006061D01*
X019847Y006061D01*
X019838Y006005D01*
X019816Y005938D01*
X019784Y005875D01*
X019742Y005817D01*
X019692Y005767D01*
X019635Y005726D01*
X019572Y005694D01*
X019504Y005672D01*
X019434Y005661D01*
X019644Y005733D02*
X020734Y005733D01*
X020734Y005831D02*
X019752Y005831D01*
X019812Y005930D02*
X020734Y005930D01*
X020734Y006028D02*
X019842Y006028D01*
X019847Y006161D02*
X019838Y006216D01*
X019816Y006283D01*
X019784Y006346D01*
X019742Y006404D01*
X019692Y006454D01*
X019635Y006495D01*
X019572Y006528D01*
X019504Y006550D01*
X019434Y006561D01*
X019149Y006561D01*
X019149Y006161D01*
X019847Y006161D01*
X019835Y006225D02*
X020734Y006225D01*
X020734Y006127D02*
X019149Y006127D01*
X019149Y006225D02*
X019049Y006225D01*
X019049Y006127D02*
X005248Y006127D01*
X005241Y006225D02*
X018363Y006225D01*
X018403Y006324D02*
X005201Y006324D01*
X005160Y006422D02*
X018474Y006422D01*
X018613Y006521D02*
X005062Y006521D01*
X004996Y006587D02*
X004995Y006587D01*
X004996Y006587D01*
X005028Y006619D02*
X020734Y006619D01*
X020734Y006521D02*
X019586Y006521D01*
X019724Y006422D02*
X020734Y006422D01*
X020734Y006324D02*
X019796Y006324D01*
X019654Y006729D02*
X019489Y006661D01*
X018710Y006661D01*
X018544Y006729D01*
X018418Y006856D01*
X018349Y007021D01*
X018349Y007200D01*
X018418Y007365D01*
X018544Y007492D01*
X018710Y007561D01*
X019489Y007561D01*
X019654Y007492D01*
X019781Y007365D01*
X019849Y007200D01*
X019849Y007021D01*
X019781Y006856D01*
X019654Y006729D01*
X019626Y006718D02*
X020734Y006718D01*
X020734Y006816D02*
X019741Y006816D01*
X019805Y006915D02*
X020734Y006915D01*
X020734Y007013D02*
X019846Y007013D01*
X019849Y007112D02*
X020734Y007112D01*
X020734Y007210D02*
X019845Y007210D01*
X019804Y007309D02*
X020734Y007309D01*
X020734Y007407D02*
X019739Y007407D01*
X019621Y007506D02*
X020734Y007506D01*
X020734Y007604D02*
X011409Y007604D01*
X011409Y007549D02*
X011409Y007672D01*
X011362Y007786D01*
X011299Y007849D01*
X011299Y009072D01*
X011362Y009135D01*
X011409Y009249D01*
X011409Y009372D01*
X011362Y009486D01*
X011275Y009573D01*
X011161Y009621D01*
X011037Y009621D01*
X010923Y009573D01*
X010836Y009486D01*
X010799Y009396D01*
X010799Y010672D01*
X010862Y010735D01*
X010909Y010849D01*
X010909Y010972D01*
X010862Y011086D01*
X010775Y011173D01*
X010661Y011221D01*
X010537Y011221D01*
X010423Y011173D01*
X010336Y011086D01*
X010289Y010972D01*
X010289Y010849D01*
X010336Y010735D01*
X010399Y010672D01*
X010399Y007849D01*
X010336Y007786D01*
X010289Y007672D01*
X010289Y007549D01*
X010336Y007435D01*
X010423Y007348D01*
X010537Y007301D01*
X010661Y007301D01*
X010775Y007348D01*
X010849Y007422D01*
X010923Y007348D01*
X011037Y007301D01*
X011161Y007301D01*
X011275Y007348D01*
X011362Y007435D01*
X011409Y007549D01*
X011391Y007506D02*
X018577Y007506D01*
X018459Y007407D02*
X011334Y007407D01*
X011180Y007309D02*
X018394Y007309D01*
X018353Y007210D02*
X005241Y007210D01*
X005248Y007112D02*
X018349Y007112D01*
X018352Y007013D02*
X005248Y007013D01*
X005227Y006915D02*
X018393Y006915D01*
X018457Y006816D02*
X005186Y006816D01*
X005126Y006718D02*
X018572Y006718D01*
X019049Y006521D02*
X019149Y006521D01*
X019149Y006422D02*
X019049Y006422D01*
X019049Y006324D02*
X019149Y006324D01*
X019149Y006028D02*
X019049Y006028D01*
X019049Y005930D02*
X019149Y005930D01*
X019149Y005831D02*
X019049Y005831D01*
X019049Y005733D02*
X019149Y005733D01*
X018554Y005733D02*
X007015Y005733D01*
X007083Y005634D02*
X020734Y005634D01*
X020734Y005536D02*
X007109Y005536D01*
X007155Y005437D02*
X020734Y005437D01*
X020734Y005339D02*
X007254Y005339D01*
X007352Y005240D02*
X020734Y005240D01*
X020734Y005142D02*
X007451Y005142D01*
X007549Y005043D02*
X018667Y005043D01*
X018497Y004945D02*
X007648Y004945D01*
X007746Y004846D02*
X018410Y004846D01*
X018369Y004748D02*
X007845Y004748D01*
X007943Y004649D02*
X018349Y004649D01*
X018349Y004551D02*
X008042Y004551D01*
X008140Y004452D02*
X018378Y004452D01*
X018420Y004354D02*
X008239Y004354D01*
X008337Y004255D02*
X018518Y004255D01*
X019495Y004058D02*
X020734Y004058D01*
X020734Y003960D02*
X019686Y003960D01*
X019782Y003861D02*
X020734Y003861D01*
X020734Y003763D02*
X019823Y003763D01*
X019849Y003664D02*
X020734Y003664D01*
X020734Y003566D02*
X019849Y003566D01*
X019827Y003467D02*
X020734Y003467D01*
X020734Y003369D02*
X019786Y003369D01*
X019695Y003270D02*
X020734Y003270D01*
X020734Y003172D02*
X019515Y003172D01*
X019499Y002581D02*
X016116Y002581D01*
X016149Y002482D02*
X019287Y002482D01*
X019170Y002384D02*
X016149Y002384D01*
X016149Y002285D02*
X019068Y002285D01*
X019012Y002187D02*
X016149Y002187D01*
X016149Y002088D02*
X018955Y002088D01*
X018914Y001990D02*
X016149Y001990D01*
X016149Y001891D02*
X018897Y001891D01*
X018879Y001793D02*
X016149Y001793D01*
X016138Y001694D02*
X018868Y001694D01*
X018885Y001596D02*
X016097Y001596D01*
X016022Y001497D02*
X018903Y001497D01*
X018920Y001399D02*
X015880Y001399D01*
X016067Y002679D02*
X020734Y002679D01*
X020734Y002581D02*
X020099Y002581D01*
X020311Y002482D02*
X020734Y002482D01*
X020734Y002384D02*
X020428Y002384D01*
X020530Y002285D02*
X020734Y002285D01*
X020734Y002187D02*
X020587Y002187D01*
X020643Y002088D02*
X020734Y002088D01*
X020734Y001990D02*
X020684Y001990D01*
X020701Y001891D02*
X020734Y001891D01*
X020734Y001793D02*
X020719Y001793D01*
X018446Y005831D02*
X005186Y005831D01*
X005227Y005930D02*
X018386Y005930D01*
X018357Y006028D02*
X005248Y006028D01*
X004502Y005536D02*
X003094Y005536D01*
X003192Y005437D02*
X004448Y005437D01*
X004349Y005339D02*
X003232Y005339D01*
X003273Y005240D02*
X004303Y005240D01*
X004281Y005142D02*
X003279Y005142D01*
X003279Y005043D02*
X004281Y005043D01*
X004318Y004945D02*
X003258Y004945D01*
X003217Y004846D02*
X004386Y004846D01*
X004921Y004649D02*
X007378Y004649D01*
X007476Y004551D02*
X005064Y004551D01*
X005160Y004452D02*
X007575Y004452D01*
X007673Y004354D02*
X005201Y004354D01*
X005242Y004255D02*
X007772Y004255D01*
X007870Y004157D02*
X005248Y004157D01*
X005248Y004058D02*
X007969Y004058D01*
X008067Y003960D02*
X005226Y003960D01*
X005185Y003861D02*
X008166Y003861D01*
X008264Y003763D02*
X005124Y003763D01*
X005026Y003664D02*
X008363Y003664D01*
X008461Y003566D02*
X005064Y003566D01*
X006599Y004111D02*
X006999Y004111D01*
X004308Y005634D02*
X002951Y005634D01*
X002447Y005634D02*
X001349Y005634D01*
X001349Y005536D02*
X002304Y005536D01*
X002207Y005437D02*
X001349Y005437D01*
X001349Y005339D02*
X002166Y005339D01*
X002125Y005240D02*
X001349Y005240D01*
X001349Y005142D02*
X002119Y005142D01*
X002119Y005043D02*
X001349Y005043D01*
X001349Y004945D02*
X002140Y004945D01*
X002181Y004846D02*
X001349Y004846D01*
X001349Y004748D02*
X002242Y004748D01*
X002340Y004649D02*
X001349Y004649D01*
X001349Y005733D02*
X004210Y005733D01*
X004149Y005831D02*
X001349Y005831D01*
X001349Y005930D02*
X004108Y005930D01*
X004088Y006028D02*
X001349Y006028D01*
X001349Y006127D02*
X004088Y006127D01*
X004094Y006225D02*
X001349Y006225D01*
X001349Y006324D02*
X004135Y006324D01*
X004175Y006422D02*
X001349Y006422D01*
X001349Y006521D02*
X004273Y006521D01*
X004307Y006619D02*
X001349Y006619D01*
X001349Y006718D02*
X001578Y006718D01*
X001432Y006816D02*
X001349Y006816D01*
X001349Y006915D02*
X001365Y006915D01*
X001349Y007210D02*
X001351Y007210D01*
X001349Y007309D02*
X001398Y007309D01*
X001349Y007407D02*
X001497Y007407D01*
X001349Y007506D02*
X004274Y007506D01*
X004176Y007407D02*
X002916Y007407D01*
X002918Y007407D02*
X002776Y007465D01*
X002622Y007465D01*
X002480Y007407D01*
X002372Y007298D01*
X002313Y007156D01*
X002313Y007002D01*
X002372Y006860D01*
X002480Y006752D01*
X002622Y006693D01*
X002776Y006693D01*
X002918Y006752D01*
X003026Y006860D01*
X003085Y007002D01*
X003085Y007156D01*
X003026Y007298D01*
X002918Y007407D01*
X003016Y007309D02*
X004135Y007309D01*
X004094Y007210D02*
X003063Y007210D01*
X003085Y007112D02*
X004088Y007112D01*
X004088Y007013D02*
X003085Y007013D01*
X003049Y006915D02*
X004108Y006915D01*
X004149Y006816D02*
X002982Y006816D01*
X002836Y006718D02*
X004209Y006718D01*
X004419Y007604D02*
X001349Y007604D01*
X001349Y007703D02*
X010302Y007703D01*
X010289Y007604D02*
X004916Y007604D01*
X005061Y007506D02*
X010307Y007506D01*
X010364Y007407D02*
X005159Y007407D01*
X005200Y007309D02*
X010518Y007309D01*
X010680Y007309D02*
X011018Y007309D01*
X010864Y007407D02*
X010834Y007407D01*
X010599Y007611D02*
X010599Y010911D01*
X010322Y011052D02*
X004872Y011052D01*
X004783Y011015D02*
X004996Y011103D01*
X005159Y011266D01*
X005248Y011479D01*
X005248Y011710D01*
X005159Y011923D01*
X004996Y012087D01*
X005159Y012251D01*
X005248Y012464D01*
X005248Y012694D01*
X005159Y012908D01*
X004996Y013071D01*
X004783Y013159D01*
X004552Y013159D01*
X004339Y013071D01*
X004176Y012908D01*
X004088Y012694D01*
X004088Y012464D01*
X004176Y012251D01*
X004339Y012087D01*
X004340Y012087D01*
X004339Y012087D01*
X004176Y011923D01*
X004088Y011710D01*
X004088Y011479D01*
X004176Y011266D01*
X004339Y011103D01*
X004552Y011015D01*
X004783Y011015D01*
X004744Y010997D02*
X004591Y010997D01*
X004449Y010938D01*
X004340Y010829D01*
X004281Y010687D01*
X004281Y010534D01*
X004340Y010392D01*
X004449Y010283D01*
X004591Y010224D01*
X004744Y010224D01*
X004886Y010283D01*
X004995Y010392D01*
X005054Y010534D01*
X005054Y010687D01*
X004995Y010829D01*
X004886Y010938D01*
X004744Y010997D01*
X004850Y010953D02*
X010289Y010953D01*
X010289Y010855D02*
X004970Y010855D01*
X005025Y010756D02*
X010327Y010756D01*
X010399Y010658D02*
X005054Y010658D01*
X005054Y010559D02*
X010399Y010559D01*
X010399Y010461D02*
X005023Y010461D01*
X004965Y010362D02*
X010399Y010362D01*
X010399Y010264D02*
X004839Y010264D01*
X004783Y010206D02*
X004552Y010206D01*
X004339Y010118D01*
X004176Y009955D01*
X004088Y009742D01*
X004088Y009511D01*
X004176Y009298D01*
X004339Y009135D01*
X004352Y009129D01*
X004290Y009084D01*
X004225Y009020D01*
X004171Y008946D01*
X004130Y008865D01*
X004102Y008778D01*
X004088Y008692D01*
X004618Y008692D01*
X004618Y008592D01*
X004718Y008592D01*
X004718Y008692D01*
X005247Y008692D01*
X005233Y008778D01*
X005205Y008865D01*
X005164Y008946D01*
X005110Y009020D01*
X005045Y009084D01*
X004984Y009129D01*
X004996Y009135D01*
X005159Y009298D01*
X005248Y009511D01*
X005248Y009742D01*
X005159Y009955D01*
X004996Y010118D01*
X004783Y010206D01*
X004882Y010165D02*
X010399Y010165D01*
X010399Y010067D02*
X005048Y010067D01*
X005146Y009968D02*
X010399Y009968D01*
X010399Y009870D02*
X005195Y009870D01*
X005235Y009771D02*
X010399Y009771D01*
X010399Y009673D02*
X005248Y009673D01*
X005248Y009574D02*
X010399Y009574D01*
X010399Y009476D02*
X005233Y009476D01*
X005192Y009377D02*
X010399Y009377D01*
X010399Y009279D02*
X005140Y009279D01*
X005042Y009180D02*
X010399Y009180D01*
X010399Y009082D02*
X005048Y009082D01*
X005137Y008983D02*
X010399Y008983D01*
X010399Y008885D02*
X005195Y008885D01*
X005231Y008786D02*
X010399Y008786D01*
X010399Y008688D02*
X004718Y008688D01*
X004718Y008592D02*
X005247Y008592D01*
X005233Y008506D01*
X005205Y008419D01*
X005164Y008338D01*
X005110Y008264D01*
X005045Y008200D01*
X004972Y008146D01*
X004890Y008105D01*
X004803Y008076D01*
X004718Y008063D01*
X004718Y008592D01*
X004718Y008589D02*
X004618Y008589D01*
X004618Y008592D02*
X004618Y008063D01*
X004532Y008076D01*
X004445Y008105D01*
X004364Y008146D01*
X004290Y008200D01*
X004225Y008264D01*
X004171Y008338D01*
X004130Y008419D01*
X004102Y008506D01*
X004088Y008592D01*
X004618Y008592D01*
X004618Y008688D02*
X003085Y008688D01*
X003085Y008719D02*
X003085Y008565D01*
X003026Y008423D01*
X002918Y008315D01*
X002776Y008256D01*
X002622Y008256D01*
X002480Y008315D01*
X002372Y008423D01*
X002313Y008565D01*
X002313Y008719D01*
X002372Y008861D01*
X002480Y008970D01*
X002622Y009028D01*
X002776Y009028D01*
X002918Y008970D01*
X003026Y008861D01*
X003085Y008719D01*
X003057Y008786D02*
X004105Y008786D01*
X004140Y008885D02*
X003003Y008885D01*
X002885Y008983D02*
X004198Y008983D01*
X004287Y009082D02*
X001349Y009082D01*
X001349Y009180D02*
X004294Y009180D01*
X004195Y009279D02*
X001349Y009279D01*
X001349Y009377D02*
X004143Y009377D01*
X004102Y009476D02*
X001349Y009476D01*
X001349Y009574D02*
X004088Y009574D01*
X004088Y009673D02*
X001349Y009673D01*
X001349Y009771D02*
X004100Y009771D01*
X004141Y009870D02*
X001349Y009870D01*
X001349Y009968D02*
X004189Y009968D01*
X004288Y010067D02*
X002901Y010067D01*
X002814Y010031D02*
X003028Y010119D01*
X003191Y010282D01*
X003279Y010495D01*
X003279Y010726D01*
X003191Y010939D01*
X003028Y011102D01*
X002814Y011191D01*
X002584Y011191D01*
X002371Y011102D01*
X002207Y010939D01*
X002119Y010726D01*
X002119Y010495D01*
X002207Y010282D01*
X002371Y010119D01*
X002584Y010031D01*
X002814Y010031D01*
X003074Y010165D02*
X004453Y010165D01*
X004496Y010264D02*
X003172Y010264D01*
X003224Y010362D02*
X004370Y010362D01*
X004312Y010461D02*
X003265Y010461D01*
X003279Y010559D02*
X004281Y010559D01*
X004281Y010658D02*
X003279Y010658D01*
X003267Y010756D02*
X004310Y010756D01*
X004365Y010855D02*
X003226Y010855D01*
X003177Y010953D02*
X004485Y010953D01*
X004463Y011052D02*
X003078Y011052D01*
X002912Y011150D02*
X004292Y011150D01*
X004194Y011249D02*
X001349Y011249D01*
X001349Y011347D02*
X004142Y011347D01*
X004102Y011446D02*
X001349Y011446D01*
X001349Y011544D02*
X004088Y011544D01*
X004088Y011643D02*
X001349Y011643D01*
X001349Y011741D02*
X004100Y011741D01*
X004141Y011840D02*
X001349Y011840D01*
X001349Y011938D02*
X004191Y011938D01*
X004289Y012037D02*
X001349Y012037D01*
X001349Y012135D02*
X004291Y012135D01*
X004193Y012234D02*
X002874Y012234D01*
X002918Y012252D02*
X003026Y012360D01*
X003085Y012502D01*
X003085Y012656D01*
X003026Y012798D01*
X002918Y012907D01*
X002776Y012965D01*
X002622Y012965D01*
X002480Y012907D01*
X002372Y012798D01*
X002313Y012656D01*
X002313Y012502D01*
X002372Y012360D01*
X002480Y012252D01*
X002622Y012193D01*
X002776Y012193D01*
X002918Y012252D01*
X002998Y012332D02*
X004142Y012332D01*
X004101Y012431D02*
X003056Y012431D01*
X003085Y012529D02*
X004088Y012529D01*
X004088Y012628D02*
X003085Y012628D01*
X003056Y012726D02*
X004101Y012726D01*
X004141Y012825D02*
X003000Y012825D01*
X002878Y012923D02*
X004191Y012923D01*
X004290Y013022D02*
X001349Y013022D01*
X001349Y013120D02*
X001956Y013120D01*
X001893Y012923D02*
X002520Y012923D01*
X002398Y012825D02*
X002015Y012825D01*
X002072Y012726D02*
X002342Y012726D01*
X002313Y012628D02*
X002101Y012628D01*
X002101Y012529D02*
X002313Y012529D01*
X002343Y012431D02*
X002071Y012431D01*
X002014Y012332D02*
X002400Y012332D01*
X002524Y012234D02*
X001890Y012234D01*
X001540Y012234D02*
X001349Y012234D01*
X001349Y012332D02*
X001416Y012332D01*
X001358Y012431D02*
X001349Y012431D01*
X001349Y012726D02*
X001358Y012726D01*
X001349Y012825D02*
X001414Y012825D01*
X001349Y012923D02*
X001536Y012923D01*
X001712Y013219D02*
X001349Y013219D01*
X001349Y013317D02*
X001594Y013317D01*
X001480Y013416D02*
X001349Y013416D01*
X001349Y013514D02*
X001423Y013514D01*
X001366Y013613D02*
X001349Y013613D01*
X002442Y013120D02*
X004458Y013120D01*
X004877Y013120D02*
X019656Y013120D01*
X019412Y013219D02*
X002686Y013219D01*
X002804Y013317D02*
X019294Y013317D01*
X019180Y013416D02*
X002918Y013416D01*
X002975Y013514D02*
X019123Y013514D01*
X019066Y013613D02*
X003032Y013613D01*
X003080Y013711D02*
X019018Y013711D01*
X019000Y013810D02*
X003098Y013810D01*
X003115Y013908D02*
X018983Y013908D01*
X018966Y014007D02*
X003133Y014007D01*
X003117Y014105D02*
X018982Y014105D01*
X018999Y014204D02*
X003099Y014204D01*
X003082Y014302D02*
X019016Y014302D01*
X019062Y014401D02*
X003036Y014401D01*
X002979Y014499D02*
X019119Y014499D01*
X019176Y014598D02*
X002922Y014598D01*
X002813Y014696D02*
X019285Y014696D01*
X019402Y014795D02*
X002696Y014795D01*
X005045Y013022D02*
X020734Y013022D01*
X020734Y013120D02*
X020142Y013120D01*
X020386Y013219D02*
X020734Y013219D01*
X020734Y013317D02*
X020504Y013317D01*
X020618Y013416D02*
X020734Y013416D01*
X020734Y013514D02*
X020675Y013514D01*
X020732Y013613D02*
X020734Y013613D01*
X020734Y012923D02*
X005144Y012923D01*
X005194Y012825D02*
X020734Y012825D01*
X020734Y012726D02*
X005234Y012726D01*
X005248Y012628D02*
X020734Y012628D01*
X020734Y012529D02*
X005248Y012529D01*
X005234Y012431D02*
X020734Y012431D01*
X020734Y012332D02*
X005193Y012332D01*
X005142Y012234D02*
X020734Y012234D01*
X020734Y012135D02*
X005044Y012135D01*
X004996Y012087D02*
X004995Y012087D01*
X004996Y012087D01*
X005046Y012037D02*
X020734Y012037D01*
X020734Y011938D02*
X005145Y011938D01*
X005194Y011840D02*
X020734Y011840D01*
X020734Y011741D02*
X005235Y011741D01*
X005248Y011643D02*
X020734Y011643D01*
X020734Y011544D02*
X005248Y011544D01*
X005234Y011446D02*
X020734Y011446D01*
X020734Y011347D02*
X005193Y011347D01*
X005142Y011249D02*
X020734Y011249D01*
X020734Y011150D02*
X010798Y011150D01*
X010876Y011052D02*
X018688Y011052D01*
X018710Y011061D02*
X018544Y010992D01*
X018418Y010865D01*
X018349Y010700D01*
X018349Y010521D01*
X018418Y010356D01*
X018544Y010229D01*
X018710Y010161D01*
X019489Y010161D01*
X019654Y010229D01*
X019781Y010356D01*
X019849Y010521D01*
X019849Y010700D01*
X019781Y010865D01*
X019654Y010992D01*
X019489Y011061D01*
X018710Y011061D01*
X018505Y010953D02*
X010909Y010953D01*
X010909Y010855D02*
X018413Y010855D01*
X018372Y010756D02*
X010871Y010756D01*
X010799Y010658D02*
X018349Y010658D01*
X018349Y010559D02*
X010799Y010559D01*
X010799Y010461D02*
X018374Y010461D01*
X018415Y010362D02*
X010799Y010362D01*
X010799Y010264D02*
X018510Y010264D01*
X018699Y010165D02*
X010799Y010165D01*
X010799Y010067D02*
X020734Y010067D01*
X020734Y010165D02*
X019499Y010165D01*
X019489Y010061D02*
X018710Y010061D01*
X018544Y009992D01*
X018418Y009865D01*
X018349Y009700D01*
X018349Y009521D01*
X018418Y009356D01*
X018544Y009229D01*
X018710Y009161D01*
X019489Y009161D01*
X019654Y009229D01*
X019781Y009356D01*
X019849Y009521D01*
X019849Y009700D01*
X019781Y009865D01*
X019654Y009992D01*
X019489Y010061D01*
X019678Y009968D02*
X020734Y009968D01*
X020734Y009870D02*
X019776Y009870D01*
X019820Y009771D02*
X020734Y009771D01*
X020734Y009673D02*
X019849Y009673D01*
X019849Y009574D02*
X020734Y009574D01*
X020734Y009476D02*
X019830Y009476D01*
X019789Y009377D02*
X020734Y009377D01*
X020734Y009279D02*
X019703Y009279D01*
X019536Y009180D02*
X020734Y009180D01*
X020734Y009082D02*
X011308Y009082D01*
X011299Y008983D02*
X018546Y008983D01*
X018563Y008995D02*
X018506Y008954D01*
X018456Y008904D01*
X018414Y008846D01*
X018382Y008783D01*
X018360Y008716D01*
X018351Y008661D01*
X019049Y008661D01*
X019049Y009061D01*
X018764Y009061D01*
X018694Y009050D01*
X018626Y009028D01*
X018563Y008995D01*
X018442Y008885D02*
X011299Y008885D01*
X011299Y008786D02*
X018383Y008786D01*
X018356Y008688D02*
X011299Y008688D01*
X011299Y008589D02*
X019049Y008589D01*
X019049Y008561D02*
X018351Y008561D01*
X018360Y008505D01*
X018382Y008438D01*
X018414Y008375D01*
X018456Y008317D01*
X018506Y008267D01*
X018563Y008226D01*
X018626Y008194D01*
X018694Y008172D01*
X018764Y008161D01*
X019049Y008161D01*
X019049Y008561D01*
X019049Y008661D01*
X019149Y008661D01*
X019149Y009061D01*
X019434Y009061D01*
X019504Y009050D01*
X019572Y009028D01*
X019635Y008995D01*
X019692Y008954D01*
X019742Y008904D01*
X019784Y008846D01*
X019816Y008783D01*
X019838Y008716D01*
X019847Y008661D01*
X019149Y008661D01*
X019149Y008561D01*
X019847Y008561D01*
X019838Y008505D01*
X019816Y008438D01*
X019784Y008375D01*
X019742Y008317D01*
X019692Y008267D01*
X019635Y008226D01*
X019572Y008194D01*
X019504Y008172D01*
X019434Y008161D01*
X019149Y008161D01*
X019149Y008561D01*
X019049Y008561D01*
X019049Y008491D02*
X019149Y008491D01*
X019149Y008589D02*
X020734Y008589D01*
X020734Y008491D02*
X019833Y008491D01*
X019793Y008392D02*
X020734Y008392D01*
X020734Y008294D02*
X019718Y008294D01*
X019575Y008195D02*
X020734Y008195D01*
X020734Y008097D02*
X011299Y008097D01*
X011299Y008195D02*
X018623Y008195D01*
X018480Y008294D02*
X011299Y008294D01*
X011299Y008392D02*
X018405Y008392D01*
X018365Y008491D02*
X011299Y008491D01*
X011299Y007998D02*
X020734Y007998D01*
X020734Y007900D02*
X011299Y007900D01*
X011347Y007801D02*
X020734Y007801D01*
X020734Y007703D02*
X011396Y007703D01*
X011099Y007611D02*
X011099Y009311D01*
X010832Y009476D02*
X010799Y009476D01*
X010799Y009574D02*
X010925Y009574D01*
X010799Y009673D02*
X018349Y009673D01*
X018349Y009574D02*
X011273Y009574D01*
X011366Y009476D02*
X018368Y009476D01*
X018409Y009377D02*
X011407Y009377D01*
X011409Y009279D02*
X018495Y009279D01*
X018662Y009180D02*
X011381Y009180D01*
X010799Y009771D02*
X018378Y009771D01*
X018422Y009870D02*
X010799Y009870D01*
X010799Y009968D02*
X018520Y009968D01*
X019688Y010264D02*
X020734Y010264D01*
X020734Y010362D02*
X019783Y010362D01*
X019824Y010461D02*
X020734Y010461D01*
X020734Y010559D02*
X019849Y010559D01*
X019849Y010658D02*
X020734Y010658D01*
X020734Y010756D02*
X019826Y010756D01*
X019785Y010855D02*
X020734Y010855D01*
X020734Y010953D02*
X019693Y010953D01*
X019510Y011052D02*
X020734Y011052D01*
X020734Y008983D02*
X019652Y008983D01*
X019756Y008885D02*
X020734Y008885D01*
X020734Y008786D02*
X019815Y008786D01*
X019842Y008688D02*
X020734Y008688D01*
X019149Y008688D02*
X019049Y008688D01*
X019049Y008786D02*
X019149Y008786D01*
X019149Y008885D02*
X019049Y008885D01*
X019049Y008983D02*
X019149Y008983D01*
X019149Y008392D02*
X019049Y008392D01*
X019049Y008294D02*
X019149Y008294D01*
X019149Y008195D02*
X019049Y008195D01*
X014999Y004911D02*
X014899Y004811D01*
X014799Y004811D01*
X012299Y006411D02*
X012199Y006311D01*
X010351Y007801D02*
X001349Y007801D01*
X001349Y007900D02*
X010399Y007900D01*
X010399Y007998D02*
X001349Y007998D01*
X001349Y008097D02*
X004469Y008097D01*
X004618Y008097D02*
X004718Y008097D01*
X004718Y008195D02*
X004618Y008195D01*
X004618Y008294D02*
X004718Y008294D01*
X004718Y008392D02*
X004618Y008392D01*
X004618Y008491D02*
X004718Y008491D01*
X004866Y008097D02*
X010399Y008097D01*
X010399Y008195D02*
X005039Y008195D01*
X005131Y008294D02*
X010399Y008294D01*
X010399Y008392D02*
X005191Y008392D01*
X005228Y008491D02*
X010399Y008491D01*
X010399Y008589D02*
X005246Y008589D01*
X004296Y008195D02*
X001349Y008195D01*
X001349Y008294D02*
X001547Y008294D01*
X001419Y008392D02*
X001349Y008392D01*
X001349Y008491D02*
X001360Y008491D01*
X001349Y008786D02*
X001356Y008786D01*
X001349Y008885D02*
X001411Y008885D01*
X001349Y008983D02*
X001529Y008983D01*
X001901Y008983D02*
X002513Y008983D01*
X002395Y008885D02*
X002018Y008885D01*
X002073Y008786D02*
X002341Y008786D01*
X002313Y008688D02*
X002101Y008688D01*
X002101Y008589D02*
X002313Y008589D01*
X002344Y008491D02*
X002070Y008491D01*
X002011Y008392D02*
X002403Y008392D01*
X002531Y008294D02*
X001883Y008294D01*
X002867Y008294D02*
X004204Y008294D01*
X004144Y008392D02*
X002995Y008392D01*
X003054Y008491D02*
X004107Y008491D01*
X004089Y008589D02*
X003085Y008589D01*
X002482Y007407D02*
X001932Y007407D01*
X002031Y007309D02*
X002382Y007309D01*
X002335Y007210D02*
X002079Y007210D01*
X002101Y007112D02*
X002313Y007112D01*
X002313Y007013D02*
X002101Y007013D01*
X002065Y006915D02*
X002349Y006915D01*
X002416Y006816D02*
X001998Y006816D01*
X001851Y006718D02*
X002563Y006718D01*
X002497Y010067D02*
X001349Y010067D01*
X001349Y010165D02*
X002324Y010165D01*
X002226Y010264D02*
X001349Y010264D01*
X001349Y010362D02*
X002174Y010362D01*
X002133Y010461D02*
X001349Y010461D01*
X001349Y010559D02*
X002119Y010559D01*
X002119Y010658D02*
X001349Y010658D01*
X001349Y010756D02*
X002132Y010756D01*
X002172Y010855D02*
X001349Y010855D01*
X001349Y010953D02*
X002221Y010953D01*
X002320Y011052D02*
X001349Y011052D01*
X001349Y011150D02*
X002486Y011150D01*
X005043Y011150D02*
X010400Y011150D01*
X011899Y010011D02*
X011999Y009911D01*
X009599Y007111D02*
X009399Y007111D01*
X007899Y009111D02*
X007799Y009211D01*
X007699Y009211D01*
X009199Y012811D02*
X009299Y012811D01*
M02*
