G75*
G70*
%OFA0B0*%
%FSLAX24Y24*%
%IPPOS*%
%LPD*%
%AMOC8*
5,1,8,0,0,1.08239X$1,22.5*
%
%ADD10C,0.0600*%
%ADD11R,0.0315X0.0315*%
%ADD12R,0.0512X0.0591*%
%ADD13C,0.0860*%
%ADD14R,0.0866X0.0236*%
%ADD15R,0.0630X0.0236*%
%ADD16R,0.0591X0.0512*%
%ADD17C,0.0100*%
%ADD18C,0.0320*%
D10*
X007699Y001811D02*
X007699Y002411D01*
X008699Y002411D02*
X008699Y001811D01*
X009699Y001811D02*
X009699Y002411D01*
X010699Y002411D02*
X010699Y001811D01*
X012699Y001811D02*
X012699Y002411D01*
X013699Y002411D02*
X013699Y001811D01*
X014699Y001811D02*
X014699Y002411D01*
X015699Y002411D02*
X015699Y001811D01*
X018799Y003611D02*
X019399Y003611D01*
X019399Y004611D02*
X018799Y004611D01*
X018799Y006111D02*
X019399Y006111D01*
X019399Y007111D02*
X018799Y007111D01*
X018799Y008611D02*
X019399Y008611D01*
X019399Y009611D02*
X018799Y009611D01*
X018799Y010611D02*
X019399Y010611D01*
D11*
X003804Y001611D03*
X004394Y001611D03*
D12*
X005325Y001611D03*
X006073Y001611D03*
X010625Y004611D03*
X011373Y004611D03*
X012225Y005611D03*
X012973Y005611D03*
X008673Y007111D03*
X007925Y007111D03*
X007073Y007111D03*
X006325Y007111D03*
X010625Y010011D03*
X011373Y010011D03*
X008573Y012811D03*
X007825Y012811D03*
X006973Y012811D03*
X006225Y012811D03*
D13*
X004668Y012579D03*
X004668Y011595D03*
X002699Y010611D03*
X004668Y009626D03*
X004668Y008642D03*
X004668Y007079D03*
X004668Y006095D03*
X002699Y005111D03*
X004668Y004126D03*
X004668Y003142D03*
D14*
X007575Y004561D03*
X007575Y005061D03*
X007575Y005561D03*
X007575Y006061D03*
X009623Y006061D03*
X009623Y005561D03*
X009623Y005061D03*
X009623Y004561D03*
X009623Y009961D03*
X009623Y010461D03*
X009623Y010961D03*
X009623Y011461D03*
X007575Y011461D03*
X007575Y010961D03*
X007575Y010461D03*
X007575Y009961D03*
D15*
X013875Y006061D03*
X013875Y005561D03*
X013875Y005061D03*
X013875Y004561D03*
X015923Y004561D03*
X015923Y005061D03*
X015923Y005561D03*
X015923Y006061D03*
D16*
X016899Y006337D03*
X016899Y007085D03*
D17*
X016399Y006585D01*
X016399Y005611D01*
X015973Y005611D01*
X015923Y005561D01*
X013875Y005561D01*
X013825Y005611D01*
X012973Y005611D01*
X012225Y005611D02*
X012225Y005463D01*
X011373Y004611D01*
X010625Y004611D02*
X010575Y004561D01*
X010575Y003935D01*
X010599Y003911D01*
X010575Y004561D02*
X009623Y004561D01*
X009573Y005011D02*
X009099Y005011D01*
X008599Y005511D01*
X008599Y005911D01*
X008099Y006411D01*
X007799Y006411D01*
X007099Y007111D01*
X007073Y007111D01*
X006325Y007111D02*
X006325Y007437D01*
X006599Y007711D01*
X007599Y007711D01*
X007999Y007311D01*
X007999Y007185D01*
X007925Y007111D01*
X008673Y007111D02*
X009399Y007111D01*
X010599Y007611D02*
X010599Y005811D01*
X010349Y005561D01*
X009623Y005561D01*
X009623Y005061D02*
X009573Y005011D01*
X010599Y005011D02*
X010599Y004637D01*
X010625Y004611D01*
X010599Y005011D02*
X011099Y005511D01*
X011099Y007611D01*
X012399Y008511D02*
X009499Y008511D01*
X008299Y009711D01*
X008299Y010211D01*
X008099Y010411D01*
X007625Y010411D01*
X007575Y010461D01*
X005249Y010461D01*
X004999Y010211D01*
X003099Y010211D01*
X002699Y010611D01*
X004668Y012579D02*
X004899Y012811D01*
X006225Y012811D01*
X006299Y012885D01*
X006299Y013211D01*
X006599Y013511D01*
X007399Y013511D01*
X007825Y013085D01*
X007825Y012811D01*
X007399Y012411D02*
X007399Y013211D01*
X007299Y013311D01*
X006699Y013311D01*
X006599Y013211D01*
X006599Y011411D01*
X006999Y011011D01*
X007525Y011011D01*
X007575Y010961D01*
X007625Y011411D02*
X007575Y011461D01*
X007625Y011411D02*
X008099Y011411D01*
X008399Y011111D01*
X008399Y010811D01*
X008699Y010511D01*
X008699Y009911D01*
X009699Y008911D01*
X012699Y008911D01*
X015549Y006061D01*
X015923Y006061D01*
X015923Y005561D02*
X015923Y005061D01*
X015973Y004611D02*
X015923Y004561D01*
X015973Y004611D02*
X019099Y004611D01*
X019099Y003611D02*
X013899Y003611D01*
X013199Y004311D01*
X013199Y004711D01*
X013499Y005011D01*
X013825Y005011D01*
X013875Y005061D01*
X013875Y004561D02*
X014549Y004561D01*
X014799Y004811D01*
X013875Y006061D02*
X013875Y007034D01*
X012399Y008511D01*
X011099Y009311D02*
X010625Y009785D01*
X010625Y010011D01*
X009673Y010011D01*
X009623Y009961D01*
X009573Y010411D02*
X009099Y010411D01*
X008599Y010911D01*
X008599Y011511D01*
X008099Y012011D01*
X007499Y012011D01*
X006973Y012537D01*
X006973Y012811D01*
X007399Y012411D02*
X007499Y012311D01*
X009599Y012311D01*
X010449Y011461D01*
X017049Y011461D01*
X018799Y009711D01*
X019099Y009611D01*
X019899Y010611D02*
X020199Y010311D01*
X020199Y003511D01*
X019499Y002811D01*
X016399Y002811D01*
X015699Y002111D01*
X015699Y001411D01*
X015199Y000911D01*
X011199Y000911D01*
X006999Y000911D01*
X006299Y001611D01*
X006073Y001611D01*
X006199Y001737D01*
X007099Y001411D02*
X007099Y002711D01*
X007299Y002911D01*
X008099Y002911D01*
X008699Y003511D01*
X008299Y003911D01*
X008299Y005811D01*
X008049Y006061D01*
X007575Y006061D01*
X007575Y005561D02*
X006899Y005561D01*
X006849Y005511D01*
X006799Y005511D01*
X006849Y005561D01*
X006899Y005561D01*
X007575Y005061D02*
X005249Y005061D01*
X004899Y004711D01*
X003099Y004711D01*
X002699Y005111D01*
X004668Y007079D02*
X006294Y007079D01*
X006325Y007111D01*
X007699Y009211D02*
X007575Y009334D01*
X007575Y009961D01*
X009573Y010411D02*
X009623Y010461D01*
X009673Y010911D02*
X009623Y010961D01*
X009673Y010911D02*
X010599Y010911D01*
X011373Y010011D02*
X011899Y010011D01*
X009199Y012811D02*
X008573Y012811D01*
X006225Y012811D02*
X006225Y013037D01*
X012199Y006311D02*
X012225Y006285D01*
X012225Y005611D01*
X012299Y003511D02*
X013699Y002111D01*
X014699Y002111D02*
X014699Y001611D01*
X014399Y001311D01*
X011899Y001311D01*
X011699Y001511D01*
X011699Y002611D01*
X011199Y003111D01*
X010199Y003111D01*
X009699Y002611D01*
X009699Y002111D01*
X008699Y002111D02*
X008699Y001611D01*
X008299Y001211D01*
X007299Y001211D01*
X007099Y001411D01*
X007699Y002111D02*
X007699Y002211D01*
X008799Y003311D01*
X012199Y003311D01*
X012699Y002811D01*
X012699Y002111D01*
X011199Y000911D02*
X010699Y001411D01*
X010699Y002111D01*
X012299Y003511D02*
X008699Y003511D01*
X007575Y004561D02*
X007449Y004561D01*
X006999Y004111D01*
X004668Y003142D02*
X003804Y002278D01*
X003804Y001611D01*
X004394Y001611D02*
X005325Y001611D01*
X016925Y006111D02*
X016899Y006337D01*
X016925Y006111D02*
X019099Y006111D01*
X019073Y007085D02*
X019099Y007111D01*
X019073Y007085D02*
X016899Y007085D01*
X019099Y010611D02*
X019899Y010611D01*
D18*
X012199Y006311D03*
X011099Y007611D03*
X010599Y007611D03*
X009399Y007111D03*
X006799Y005511D03*
X006999Y004111D03*
X009699Y002611D03*
X010599Y003911D03*
X014799Y004811D03*
X011099Y009311D03*
X011899Y010011D03*
X010599Y010911D03*
X009199Y012811D03*
X007699Y009211D03*
M02*
