G75*
G70*
%OFA0B0*%
%FSLAX24Y24*%
%IPPOS*%
%LPD*%
%AMOC8*
5,1,8,0,0,1.08239X$1,22.5*
%
%ADD10C,0.0060*%
%ADD11C,0.0050*%
D10*
X007642Y001111D02*
X007869Y001111D01*
X008642Y000997D02*
X008642Y001224D01*
X008699Y001281D01*
X008869Y001281D01*
X008869Y000941D01*
X008699Y000941D01*
X008642Y000997D01*
X009642Y000997D02*
X009699Y000941D01*
X009812Y000941D01*
X009869Y000997D01*
X009869Y001224D01*
X009812Y001281D01*
X009699Y001281D01*
X009642Y001224D01*
X010642Y001111D02*
X010869Y001111D01*
X010756Y001224D02*
X010756Y000997D01*
X012642Y001111D02*
X012869Y001111D01*
X013642Y000997D02*
X013642Y001224D01*
X013699Y001281D01*
X013869Y001281D01*
X013869Y000941D01*
X013699Y000941D01*
X013642Y000997D01*
X014642Y000997D02*
X014699Y000941D01*
X014812Y000941D01*
X014869Y000997D01*
X014869Y001224D01*
X014812Y001281D01*
X014699Y001281D01*
X014642Y001224D01*
X015642Y001111D02*
X015869Y001111D01*
X015756Y001224D02*
X015756Y000997D01*
X020199Y005972D02*
X020199Y006199D01*
X020199Y006972D02*
X020199Y007199D01*
X020086Y007086D02*
X020313Y007086D01*
X020199Y008472D02*
X020199Y008699D01*
X020199Y010472D02*
X020199Y010699D01*
X020086Y010586D02*
X020313Y010586D01*
D11*
X020374Y009921D02*
X020374Y009741D01*
X020374Y009831D02*
X020104Y009831D01*
X020149Y009626D02*
X020374Y009626D01*
X020149Y009626D02*
X020104Y009581D01*
X020104Y009491D01*
X020149Y009446D01*
X020374Y009446D01*
X020329Y009332D02*
X020374Y009287D01*
X020374Y009197D01*
X020329Y009152D01*
X020149Y009152D01*
X020104Y009197D01*
X020104Y009287D01*
X020149Y009332D01*
X020329Y009332D01*
M02*
