G75*
G70*
%OFA0B0*%
%FSLAX24Y24*%
%IPPOS*%
%LPD*%
%AMOC8*
5,1,8,0,0,1.08239X$1,22.5*
%
%ADD10C,0.0640*%
%ADD11R,0.0355X0.0355*%
%ADD12R,0.0552X0.0631*%
%ADD13C,0.1340*%
%ADD14C,0.0900*%
%ADD15C,0.0512*%
%ADD16R,0.0906X0.0276*%
%ADD17R,0.0670X0.0276*%
%ADD18R,0.0631X0.0552*%
D10*
X007699Y001811D02*
X007699Y002411D01*
X008699Y002411D02*
X008699Y001811D01*
X009699Y001811D02*
X009699Y002411D01*
X010699Y002411D02*
X010699Y001811D01*
X012699Y001811D02*
X012699Y002411D01*
X013699Y002411D02*
X013699Y001811D01*
X014699Y001811D02*
X014699Y002411D01*
X015699Y002411D02*
X015699Y001811D01*
X018799Y003611D02*
X019399Y003611D01*
X019399Y004611D02*
X018799Y004611D01*
X018799Y006111D02*
X019399Y006111D01*
X019399Y007111D02*
X018799Y007111D01*
X018799Y008611D02*
X019399Y008611D01*
X019399Y009611D02*
X018799Y009611D01*
X018799Y010611D02*
X019399Y010611D01*
D11*
X004394Y001611D03*
X003804Y001611D03*
D12*
X005325Y001611D03*
X006073Y001611D03*
X010625Y004611D03*
X011373Y004611D03*
X012225Y005611D03*
X012973Y005611D03*
X008673Y007111D03*
X007925Y007111D03*
X007073Y007111D03*
X006325Y007111D03*
X010625Y010011D03*
X011373Y010011D03*
X008573Y012811D03*
X007825Y012811D03*
X006973Y012811D03*
X006225Y012811D03*
D13*
X002199Y001611D03*
X002199Y014011D03*
X019799Y001711D03*
X019899Y014011D03*
D14*
X004668Y012579D03*
X004668Y011595D03*
X002699Y010611D03*
X004668Y009626D03*
X004668Y008642D03*
X004668Y007079D03*
X004668Y006095D03*
X002699Y005111D03*
X004668Y004126D03*
X004668Y003142D03*
D15*
X002699Y003142D03*
X001715Y003142D03*
X004668Y005111D03*
X002699Y007079D03*
X001715Y007079D03*
X001715Y008642D03*
X002699Y008642D03*
X004668Y010611D03*
X002699Y012579D03*
X001715Y012579D03*
D16*
X007575Y011461D03*
X007575Y010961D03*
X007575Y010461D03*
X007575Y009961D03*
X009623Y009961D03*
X009623Y010461D03*
X009623Y010961D03*
X009623Y011461D03*
X009623Y006061D03*
X009623Y005561D03*
X009623Y005061D03*
X009623Y004561D03*
X007575Y004561D03*
X007575Y005061D03*
X007575Y005561D03*
X007575Y006061D03*
D17*
X013875Y006061D03*
X013875Y005561D03*
X013875Y005061D03*
X013875Y004561D03*
X015923Y004561D03*
X015923Y005061D03*
X015923Y005561D03*
X015923Y006061D03*
D18*
X016899Y006337D03*
X016899Y007085D03*
M02*
