%
M48
M72
T01C0.0200
T02C0.0400
T03C0.0472
T04C0.0512
T05C0.1300
%
T01
X9199Y12811
X11899Y10011
X7699Y9211
X9399Y7111
X6999Y4111
X12199Y6311
X14799Y4811
X9699Y2611
X6799Y5511
X11099Y9311
X11099Y7611
X10599Y3911
X10599Y7611
X10599Y10911
T02
X7699Y2111
X8699Y2111
X9699Y2111
X10699Y2111
X12699Y2111
X13699Y2111
X14699Y2111
X15699Y2111
X19099Y3611
X19099Y4611
X19099Y8611
X19099Y9611
X19099Y10611
X19099Y6111
X19099Y7111
T03
X2699Y7079
X1715Y7079
X1715Y3142
X2699Y3142
X4668Y5111
X2699Y12579
X1715Y12579
X1715Y8642
X2699Y8642
X4668Y10611
T04
X2699Y5111
X4668Y6095
X4668Y7079
X4668Y4126
X4668Y3142
X2699Y10611
X4668Y11595
X4668Y12579
X4668Y9626
X4668Y8642
T05
X2199Y1611
X19899Y14011
X2199Y14011
X19799Y1711
M30
