G75*
G70*
%OFA0B0*%
%FSLAX24Y24*%
%IPPOS*%
%LPD*%
%AMOC8*
5,1,8,0,0,1.08239X$1,22.5*
%
%ADD10C,0.0600*%
%ADD11C,0.0860*%
%ADD12C,0.0100*%
%ADD13C,0.0320*%
D10*
X001811Y002753D02*
X002411Y002753D01*
X002411Y003753D02*
X001811Y003753D01*
X001811Y004753D02*
X002411Y004753D01*
X002411Y005753D02*
X001811Y005753D01*
X001811Y007553D02*
X002411Y007553D01*
X002411Y008553D02*
X001811Y008553D01*
X001811Y009553D02*
X002411Y009553D01*
X002411Y010553D02*
X001811Y010553D01*
X010111Y010453D02*
X010711Y010453D01*
X010711Y009453D02*
X010111Y009453D01*
X010111Y007653D02*
X010711Y007653D01*
X010711Y006653D02*
X010111Y006653D01*
X010111Y004853D02*
X010711Y004853D01*
X010711Y003853D02*
X010111Y003853D01*
D11*
X008279Y009685D03*
X007295Y009685D03*
X005326Y009685D03*
X004342Y009685D03*
X006311Y011653D03*
D12*
X000461Y011686D02*
X000461Y001621D01*
X000595Y001854D01*
X000595Y001854D01*
X000843Y002062D01*
X000843Y002062D01*
X001148Y002173D01*
X001473Y002173D01*
X001778Y002062D01*
X001778Y002062D01*
X002026Y001854D01*
X002026Y001854D01*
X002188Y001573D01*
X002245Y001253D01*
X002188Y000934D01*
X002026Y000653D01*
X002026Y000653D01*
X002026Y000653D01*
X001778Y000444D01*
X001778Y000444D01*
X001665Y000403D01*
X010856Y000403D01*
X010743Y000444D01*
X010743Y000444D01*
X010495Y000653D01*
X010495Y000653D01*
X010333Y000934D01*
X010333Y000934D01*
X010276Y001253D01*
X010333Y001573D01*
X010333Y001573D01*
X010495Y001854D01*
X010743Y002062D01*
X010743Y002062D01*
X011048Y002173D01*
X011373Y002173D01*
X011678Y002062D01*
X011678Y002062D01*
X011926Y001854D01*
X011926Y001854D01*
X012031Y001673D01*
X012031Y011634D01*
X011926Y011453D01*
X011926Y011453D01*
X011926Y011453D01*
X011678Y011244D01*
X011678Y011244D01*
X011373Y011133D01*
X011048Y011133D01*
X010743Y011244D01*
X010743Y011244D01*
X010495Y011453D01*
X010495Y011453D01*
X010333Y011734D01*
X010333Y011734D01*
X010276Y012053D01*
X010276Y012053D01*
X010333Y012373D01*
X010333Y012373D01*
X010495Y012654D01*
X010495Y012654D01*
X010743Y012862D01*
X010743Y012862D01*
X010845Y012899D01*
X008563Y012899D01*
X008607Y012856D01*
X008665Y012714D01*
X008665Y012561D01*
X008607Y012419D01*
X008498Y012310D01*
X008356Y012251D01*
X008202Y012251D01*
X008060Y012310D01*
X007952Y012419D01*
X007893Y012561D01*
X007893Y012714D01*
X007952Y012856D01*
X007995Y012899D01*
X004626Y012899D01*
X004670Y012856D01*
X004728Y012714D01*
X004728Y012561D01*
X004670Y012419D01*
X004561Y012310D01*
X004419Y012251D01*
X004265Y012251D01*
X004123Y012310D01*
X004015Y012419D01*
X003956Y012561D01*
X003956Y012714D01*
X004015Y012856D01*
X004058Y012899D01*
X001676Y012899D01*
X001778Y012862D01*
X001778Y012862D01*
X002026Y012654D01*
X002026Y012654D01*
X002188Y012373D01*
X002188Y012373D01*
X002245Y012053D01*
X002245Y012053D01*
X002188Y011734D01*
X002188Y011734D01*
X002026Y011453D01*
X002026Y011453D01*
X002026Y011453D01*
X001778Y011244D01*
X001778Y011244D01*
X001473Y011133D01*
X001232Y011133D01*
X001148Y011133D01*
X000843Y011244D01*
X000843Y011244D01*
X000595Y011453D01*
X000461Y011686D01*
X000461Y011679D02*
X000464Y011679D01*
X000461Y011581D02*
X000521Y011581D01*
X000578Y011482D02*
X000461Y011482D01*
X000461Y011384D02*
X000677Y011384D01*
X000795Y011285D02*
X000461Y011285D01*
X000461Y011187D02*
X001001Y011187D01*
X000461Y011088D02*
X006159Y011088D01*
X006195Y011073D02*
X005982Y011162D01*
X005819Y011325D01*
X005731Y011538D01*
X005731Y011769D01*
X005819Y011982D01*
X005982Y012145D01*
X006195Y012233D01*
X006426Y012233D01*
X006639Y012145D01*
X006802Y011982D01*
X006891Y011769D01*
X006891Y011538D01*
X006802Y011325D01*
X006639Y011162D01*
X006426Y011073D01*
X006195Y011073D01*
X005957Y011187D02*
X001620Y011187D01*
X001698Y010990D02*
X000461Y010990D01*
X000461Y010891D02*
X001512Y010891D01*
X001517Y010897D02*
X001467Y010846D01*
X001426Y010789D01*
X001394Y010726D01*
X001372Y010659D01*
X001363Y010603D01*
X002061Y010603D01*
X002061Y010503D01*
X002161Y010503D01*
X002161Y010603D01*
X002858Y010603D01*
X002850Y010659D01*
X002828Y010726D01*
X002795Y010789D01*
X002754Y010846D01*
X002704Y010897D01*
X002646Y010938D01*
X002583Y010970D01*
X002516Y010992D01*
X002446Y011003D01*
X002161Y011003D01*
X002161Y010603D01*
X002061Y010603D01*
X002061Y011003D01*
X001775Y011003D01*
X001705Y010992D01*
X001638Y010970D01*
X001575Y010938D01*
X001517Y010897D01*
X001428Y010793D02*
X000461Y010793D01*
X000461Y010694D02*
X001383Y010694D01*
X001363Y010503D02*
X001372Y010448D01*
X001394Y010381D01*
X001426Y010317D01*
X001467Y010260D01*
X001517Y010210D01*
X001575Y010168D01*
X001638Y010136D01*
X001705Y010114D01*
X001775Y010103D01*
X000461Y010103D01*
X000461Y010005D02*
X003858Y010005D01*
X003846Y009989D02*
X003805Y009907D01*
X003776Y009821D01*
X003763Y009735D01*
X004292Y009735D01*
X004292Y010264D01*
X004206Y010251D01*
X004119Y010222D01*
X004038Y010181D01*
X003964Y010127D01*
X003900Y010063D01*
X003846Y009989D01*
X003804Y009906D02*
X002694Y009906D01*
X002665Y009935D02*
X002500Y010003D01*
X001721Y010003D01*
X001556Y009935D01*
X001429Y009808D01*
X000461Y009808D01*
X000461Y009906D02*
X001527Y009906D01*
X001429Y009808D02*
X001361Y009643D01*
X001361Y009586D01*
X000911Y009136D01*
X000911Y005170D01*
X001028Y005053D01*
X001361Y004720D01*
X001361Y004664D01*
X001429Y004498D01*
X001556Y004372D01*
X001721Y004303D01*
X002500Y004303D01*
X002665Y004372D01*
X002792Y004498D01*
X002861Y004664D01*
X002861Y004843D01*
X002792Y005008D01*
X002665Y005135D01*
X002500Y005203D01*
X001721Y005203D01*
X001556Y005135D01*
X001534Y005113D01*
X001311Y005336D01*
X001311Y008970D01*
X001534Y009194D01*
X001556Y009172D01*
X001721Y009103D01*
X002500Y009103D01*
X002665Y009172D01*
X002792Y009298D01*
X002861Y009464D01*
X002861Y009643D01*
X002792Y009808D01*
X002665Y009935D01*
X002792Y009808D02*
X003774Y009808D01*
X003763Y009635D02*
X003776Y009549D01*
X003805Y009462D01*
X003846Y009381D01*
X003900Y009307D01*
X003964Y009242D01*
X004038Y009189D01*
X004119Y009147D01*
X004206Y009119D01*
X004292Y009106D01*
X004292Y009635D01*
X003763Y009635D01*
X003767Y009611D02*
X002861Y009611D01*
X002861Y009512D02*
X003788Y009512D01*
X003829Y009414D02*
X002840Y009414D01*
X002799Y009315D02*
X003894Y009315D01*
X003999Y009217D02*
X002711Y009217D01*
X002536Y009118D02*
X004211Y009118D01*
X004292Y009118D02*
X004392Y009118D01*
X004392Y009106D02*
X004478Y009119D01*
X004565Y009147D01*
X004646Y009189D01*
X004720Y009242D01*
X004784Y009307D01*
X004829Y009369D01*
X004835Y009356D01*
X004998Y009193D01*
X005211Y009105D01*
X005442Y009105D01*
X005655Y009193D01*
X005818Y009356D01*
X005906Y009569D01*
X005906Y009800D01*
X005818Y010013D01*
X005655Y010177D01*
X005442Y010265D01*
X005211Y010265D01*
X004998Y010177D01*
X004835Y010013D01*
X004829Y010001D01*
X004784Y010063D01*
X004720Y010127D01*
X004646Y010181D01*
X004565Y010222D01*
X004478Y010251D01*
X004392Y010264D01*
X004392Y009735D01*
X004292Y009735D01*
X004292Y009635D01*
X004392Y009635D01*
X004392Y009106D01*
X004473Y009118D02*
X005178Y009118D01*
X004974Y009217D02*
X004685Y009217D01*
X004791Y009315D02*
X004876Y009315D01*
X004392Y009315D02*
X004292Y009315D01*
X004292Y009217D02*
X004392Y009217D01*
X004392Y009414D02*
X004292Y009414D01*
X004292Y009512D02*
X004392Y009512D01*
X004392Y009611D02*
X004292Y009611D01*
X004292Y009709D02*
X002833Y009709D01*
X002583Y010136D02*
X002516Y010114D01*
X002446Y010103D01*
X002161Y010103D01*
X002161Y010503D01*
X002858Y010503D01*
X002850Y010448D01*
X002828Y010381D01*
X002795Y010317D01*
X002754Y010260D01*
X002704Y010210D01*
X002646Y010168D01*
X002583Y010136D01*
X002692Y010202D02*
X004079Y010202D01*
X003940Y010103D02*
X002446Y010103D01*
X002161Y010103D02*
X002061Y010103D01*
X002061Y010503D01*
X001363Y010503D01*
X001364Y010497D02*
X000461Y010497D01*
X000461Y010399D02*
X001388Y010399D01*
X001438Y010300D02*
X000461Y010300D01*
X000461Y010202D02*
X001529Y010202D01*
X001775Y010103D02*
X002061Y010103D01*
X002061Y010202D02*
X002161Y010202D01*
X002161Y010300D02*
X002061Y010300D01*
X002061Y010399D02*
X002161Y010399D01*
X002161Y010497D02*
X002061Y010497D01*
X002061Y010596D02*
X000461Y010596D01*
X000461Y009709D02*
X001388Y009709D01*
X001361Y009611D02*
X000461Y009611D01*
X000461Y009512D02*
X001287Y009512D01*
X001188Y009414D02*
X000461Y009414D01*
X000461Y009315D02*
X001090Y009315D01*
X000991Y009217D02*
X000461Y009217D01*
X000461Y009118D02*
X000911Y009118D01*
X000911Y009020D02*
X000461Y009020D01*
X000461Y008921D02*
X000911Y008921D01*
X000911Y008823D02*
X000461Y008823D01*
X000461Y008724D02*
X000911Y008724D01*
X000911Y008626D02*
X000461Y008626D01*
X000461Y008527D02*
X000911Y008527D01*
X000911Y008429D02*
X000461Y008429D01*
X000461Y008330D02*
X000911Y008330D01*
X000911Y008232D02*
X000461Y008232D01*
X000461Y008133D02*
X000911Y008133D01*
X000911Y008035D02*
X000461Y008035D01*
X000461Y007936D02*
X000911Y007936D01*
X000911Y007838D02*
X000461Y007838D01*
X000461Y007739D02*
X000911Y007739D01*
X000911Y007641D02*
X000461Y007641D01*
X000461Y007542D02*
X000911Y007542D01*
X000911Y007444D02*
X000461Y007444D01*
X000461Y007345D02*
X000911Y007345D01*
X000911Y007247D02*
X000461Y007247D01*
X000461Y007148D02*
X000911Y007148D01*
X000911Y007050D02*
X000461Y007050D01*
X000461Y006951D02*
X000911Y006951D01*
X000911Y006853D02*
X000461Y006853D01*
X000461Y006754D02*
X000911Y006754D01*
X000911Y006656D02*
X000461Y006656D01*
X000461Y006557D02*
X000911Y006557D01*
X000911Y006459D02*
X000461Y006459D01*
X000461Y006360D02*
X000911Y006360D01*
X000911Y006262D02*
X000461Y006262D01*
X000461Y006163D02*
X000911Y006163D01*
X000911Y006065D02*
X000461Y006065D01*
X000461Y005966D02*
X000911Y005966D01*
X000911Y005868D02*
X000461Y005868D01*
X000461Y005769D02*
X000911Y005769D01*
X000911Y005671D02*
X000461Y005671D01*
X000461Y005572D02*
X000911Y005572D01*
X000911Y005474D02*
X000461Y005474D01*
X000461Y005375D02*
X000911Y005375D01*
X000911Y005277D02*
X000461Y005277D01*
X000461Y005178D02*
X000911Y005178D01*
X001001Y005080D02*
X000461Y005080D01*
X000461Y004981D02*
X001100Y004981D01*
X001198Y004883D02*
X000461Y004883D01*
X000461Y004784D02*
X001297Y004784D01*
X001361Y004686D02*
X000461Y004686D01*
X000461Y004587D02*
X001392Y004587D01*
X001439Y004489D02*
X000461Y004489D01*
X000461Y004390D02*
X001537Y004390D01*
X001697Y004193D02*
X000461Y004193D01*
X000461Y004095D02*
X001516Y004095D01*
X001556Y004135D02*
X001429Y004008D01*
X001361Y003843D01*
X001361Y003664D01*
X001429Y003498D01*
X001556Y003372D01*
X001721Y003303D01*
X002500Y003303D01*
X002665Y003372D01*
X002792Y003498D01*
X002861Y003664D01*
X002861Y003843D01*
X002792Y004008D01*
X002665Y004135D01*
X002500Y004203D01*
X001721Y004203D01*
X001556Y004135D01*
X001424Y003996D02*
X000461Y003996D01*
X000461Y003898D02*
X001383Y003898D01*
X001361Y003799D02*
X000461Y003799D01*
X000461Y003701D02*
X001361Y003701D01*
X001386Y003602D02*
X000461Y003602D01*
X000461Y003504D02*
X001427Y003504D01*
X001522Y003405D02*
X000461Y003405D01*
X000461Y003307D02*
X001713Y003307D01*
X001721Y003203D02*
X001556Y003135D01*
X001429Y003008D01*
X001361Y002843D01*
X001361Y002664D01*
X001429Y002498D01*
X001556Y002372D01*
X001721Y002303D01*
X002500Y002303D01*
X002665Y002372D01*
X002792Y002498D01*
X002861Y002664D01*
X002861Y002843D01*
X002792Y003008D01*
X002665Y003135D01*
X002500Y003203D01*
X001721Y003203D01*
X001531Y003110D02*
X000461Y003110D01*
X000461Y003208D02*
X012031Y003208D01*
X012031Y003110D02*
X002690Y003110D01*
X002789Y003011D02*
X012031Y003011D01*
X012031Y002913D02*
X002832Y002913D01*
X002861Y002814D02*
X012031Y002814D01*
X012031Y002716D02*
X002861Y002716D01*
X002841Y002617D02*
X012031Y002617D01*
X012031Y002519D02*
X002801Y002519D01*
X002714Y002420D02*
X012031Y002420D01*
X012031Y002322D02*
X002545Y002322D01*
X002040Y001829D02*
X010481Y001829D01*
X010424Y001731D02*
X002097Y001731D01*
X002154Y001632D02*
X010367Y001632D01*
X010326Y001534D02*
X002195Y001534D01*
X002213Y001435D02*
X010308Y001435D01*
X010291Y001337D02*
X002230Y001337D01*
X002242Y001238D02*
X010279Y001238D01*
X010296Y001140D02*
X002225Y001140D01*
X002207Y001041D02*
X010314Y001041D01*
X010331Y000943D02*
X002190Y000943D01*
X002137Y000844D02*
X010384Y000844D01*
X010441Y000746D02*
X002080Y000746D01*
X002020Y000647D02*
X010502Y000647D01*
X010619Y000549D02*
X001902Y000549D01*
X001785Y000450D02*
X010736Y000450D01*
X011997Y001731D02*
X012031Y001731D01*
X012031Y001829D02*
X011940Y001829D01*
X012031Y001928D02*
X011838Y001928D01*
X011721Y002026D02*
X012031Y002026D01*
X012031Y002125D02*
X011506Y002125D01*
X012031Y002223D02*
X000461Y002223D01*
X000461Y002125D02*
X001015Y002125D01*
X000801Y002026D02*
X000461Y002026D01*
X000461Y001928D02*
X000683Y001928D01*
X000595Y001854D02*
X000595Y001854D01*
X000581Y001829D02*
X000461Y001829D01*
X000461Y001731D02*
X000524Y001731D01*
X000467Y001632D02*
X000461Y001632D01*
X000461Y002322D02*
X001676Y002322D01*
X001507Y002420D02*
X000461Y002420D01*
X000461Y002519D02*
X001421Y002519D01*
X001380Y002617D02*
X000461Y002617D01*
X000461Y002716D02*
X001361Y002716D01*
X001361Y002814D02*
X000461Y002814D01*
X000461Y002913D02*
X001390Y002913D01*
X001432Y003011D02*
X000461Y003011D01*
X001606Y002125D02*
X010915Y002125D01*
X010701Y002026D02*
X001821Y002026D01*
X001938Y001928D02*
X010583Y001928D01*
X010800Y003403D02*
X010021Y003403D01*
X009856Y003472D01*
X009729Y003598D01*
X009661Y003764D01*
X009661Y003943D01*
X009729Y004108D01*
X009856Y004235D01*
X010021Y004303D01*
X010800Y004303D01*
X010965Y004235D01*
X011092Y004108D01*
X011161Y003943D01*
X011161Y003764D01*
X011092Y003598D01*
X010965Y003472D01*
X010800Y003403D01*
X010805Y003405D02*
X012031Y003405D01*
X012031Y003307D02*
X002509Y003307D01*
X002699Y003405D02*
X010016Y003405D01*
X009824Y003504D02*
X002794Y003504D01*
X002835Y003602D02*
X009727Y003602D01*
X009687Y003701D02*
X002861Y003701D01*
X002861Y003799D02*
X009661Y003799D01*
X009661Y003898D02*
X002838Y003898D01*
X002797Y003996D02*
X009683Y003996D01*
X009724Y004095D02*
X006891Y004095D01*
X006886Y004091D02*
X006973Y004178D01*
X007021Y004292D01*
X009993Y004292D01*
X010021Y004403D02*
X009856Y004472D01*
X009729Y004598D01*
X009661Y004764D01*
X009661Y004943D01*
X009729Y005108D01*
X009856Y005235D01*
X010021Y005303D01*
X010800Y005303D01*
X010965Y005235D01*
X011092Y005108D01*
X011161Y004943D01*
X011161Y004764D01*
X011092Y004598D01*
X010965Y004472D01*
X010800Y004403D01*
X010021Y004403D01*
X009839Y004489D02*
X006990Y004489D01*
X006973Y004529D02*
X006911Y004592D01*
X006911Y008470D01*
X007193Y008753D01*
X007893Y008753D01*
X008245Y009105D01*
X008394Y009105D01*
X008608Y009193D01*
X008771Y009356D01*
X008859Y009569D01*
X008859Y009800D01*
X008771Y010013D01*
X008608Y010177D01*
X008394Y010265D01*
X008164Y010265D01*
X007951Y010177D01*
X007787Y010013D01*
X007787Y010012D01*
X007787Y010013D01*
X007623Y010177D01*
X007410Y010265D01*
X007179Y010265D01*
X006966Y010177D01*
X006803Y010013D01*
X006715Y009800D01*
X006715Y009569D01*
X006803Y009356D01*
X006966Y009193D01*
X007062Y009153D01*
X007028Y009153D01*
X006911Y009036D01*
X006511Y008636D01*
X006511Y004592D01*
X006448Y004529D01*
X006401Y004415D01*
X006401Y004292D01*
X000461Y004292D01*
X001111Y005253D02*
X001111Y009053D01*
X001611Y009553D01*
X002111Y009553D01*
X001685Y009118D02*
X001458Y009118D01*
X001360Y009020D02*
X006894Y009020D01*
X006796Y008921D02*
X002679Y008921D01*
X002665Y008935D02*
X002500Y009003D01*
X001721Y009003D01*
X001556Y008935D01*
X001429Y008808D01*
X001361Y008643D01*
X001361Y008464D01*
X001429Y008298D01*
X001556Y008172D01*
X001721Y008103D01*
X002500Y008103D01*
X002665Y008172D01*
X002792Y008298D01*
X002861Y008464D01*
X002861Y008643D01*
X002792Y008808D01*
X002665Y008935D01*
X002777Y008823D02*
X006697Y008823D01*
X006599Y008724D02*
X002827Y008724D01*
X002861Y008626D02*
X006511Y008626D01*
X006511Y008527D02*
X002861Y008527D01*
X002846Y008429D02*
X006511Y008429D01*
X006511Y008330D02*
X002805Y008330D01*
X002726Y008232D02*
X006511Y008232D01*
X006511Y008133D02*
X002573Y008133D01*
X002500Y008003D02*
X002665Y007935D01*
X002792Y007808D01*
X002861Y007643D01*
X002861Y007464D01*
X002792Y007298D01*
X002665Y007172D01*
X002500Y007103D01*
X001721Y007103D01*
X001556Y007172D01*
X001429Y007298D01*
X001361Y007464D01*
X001361Y007643D01*
X001429Y007808D01*
X001556Y007935D01*
X001721Y008003D01*
X002500Y008003D01*
X002662Y007936D02*
X006511Y007936D01*
X006511Y007838D02*
X002762Y007838D01*
X002821Y007739D02*
X006511Y007739D01*
X006511Y007641D02*
X002861Y007641D01*
X002861Y007542D02*
X006511Y007542D01*
X006511Y007444D02*
X002852Y007444D01*
X002812Y007345D02*
X006511Y007345D01*
X006511Y007247D02*
X002741Y007247D01*
X002609Y007148D02*
X006511Y007148D01*
X006511Y007050D02*
X001311Y007050D01*
X001311Y007148D02*
X001612Y007148D01*
X001481Y007247D02*
X001311Y007247D01*
X001311Y007345D02*
X001410Y007345D01*
X001369Y007444D02*
X001311Y007444D01*
X001311Y007542D02*
X001361Y007542D01*
X001361Y007641D02*
X001311Y007641D01*
X001311Y007739D02*
X001401Y007739D01*
X001459Y007838D02*
X001311Y007838D01*
X001311Y007936D02*
X001559Y007936D01*
X001649Y008133D02*
X001311Y008133D01*
X001311Y008035D02*
X006511Y008035D01*
X006911Y008035D02*
X009856Y008035D01*
X009729Y007908D01*
X009661Y007743D01*
X009661Y007564D01*
X009729Y007398D01*
X009856Y007272D01*
X010021Y007203D01*
X010800Y007203D01*
X010965Y007272D01*
X011092Y007398D01*
X011161Y007564D01*
X011161Y007743D01*
X011092Y007908D01*
X010965Y008035D01*
X012031Y008035D01*
X012031Y008133D02*
X006911Y008133D01*
X006911Y008232D02*
X012031Y008232D01*
X012031Y008330D02*
X006911Y008330D01*
X006911Y008429D02*
X012031Y008429D01*
X012031Y008527D02*
X006967Y008527D01*
X007066Y008626D02*
X012031Y008626D01*
X012031Y008724D02*
X007164Y008724D01*
X007111Y008953D02*
X007811Y008953D01*
X008211Y009353D01*
X008211Y009616D01*
X008279Y009685D01*
X007877Y010103D02*
X007697Y010103D01*
X007562Y010202D02*
X008012Y010202D01*
X008546Y010202D02*
X009728Y010202D01*
X009729Y010198D02*
X009856Y010072D01*
X010021Y010003D01*
X010800Y010003D01*
X010965Y010072D01*
X011092Y010198D01*
X011161Y010364D01*
X011161Y010543D01*
X011092Y010708D01*
X010965Y010835D01*
X010800Y010903D01*
X010021Y010903D01*
X009856Y010835D01*
X009729Y010708D01*
X009661Y010543D01*
X009661Y010364D01*
X009729Y010198D01*
X009687Y010300D02*
X002783Y010300D01*
X002834Y010399D02*
X009661Y010399D01*
X009661Y010497D02*
X002857Y010497D01*
X002838Y010694D02*
X009723Y010694D01*
X009683Y010596D02*
X002161Y010596D01*
X002161Y010694D02*
X002061Y010694D01*
X002061Y010793D02*
X002161Y010793D01*
X002161Y010891D02*
X002061Y010891D01*
X002061Y010990D02*
X002161Y010990D01*
X002523Y010990D02*
X012031Y010990D01*
X012031Y011088D02*
X006462Y011088D01*
X006664Y011187D02*
X010901Y011187D01*
X010695Y011285D02*
X008400Y011285D01*
X008356Y011267D02*
X008498Y011326D01*
X008607Y011435D01*
X008665Y011577D01*
X008665Y011730D01*
X008607Y011872D01*
X008498Y011981D01*
X008356Y012040D01*
X008202Y012040D01*
X008060Y011981D01*
X007952Y011872D01*
X007893Y011730D01*
X007893Y011577D01*
X007952Y011435D01*
X008060Y011326D01*
X008202Y011267D01*
X008356Y011267D01*
X008556Y011384D02*
X010577Y011384D01*
X010478Y011482D02*
X008626Y011482D01*
X008665Y011581D02*
X010421Y011581D01*
X010364Y011679D02*
X008665Y011679D01*
X008646Y011778D02*
X010325Y011778D01*
X010308Y011876D02*
X008602Y011876D01*
X008504Y011975D02*
X010290Y011975D01*
X010280Y012073D02*
X006711Y012073D01*
X006805Y011975D02*
X008054Y011975D01*
X007956Y011876D02*
X006846Y011876D01*
X006887Y011778D02*
X007913Y011778D01*
X007893Y011679D02*
X006891Y011679D01*
X006891Y011581D02*
X007893Y011581D01*
X007932Y011482D02*
X006868Y011482D01*
X006827Y011384D02*
X008002Y011384D01*
X008158Y011285D02*
X006763Y011285D01*
X006574Y012172D02*
X010297Y012172D01*
X010315Y012270D02*
X008402Y012270D01*
X008557Y012369D02*
X010332Y012369D01*
X010387Y012467D02*
X008627Y012467D01*
X008665Y012566D02*
X010444Y012566D01*
X010495Y012654D02*
X010495Y012654D01*
X010508Y012664D02*
X008665Y012664D01*
X008645Y012763D02*
X010625Y012763D01*
X010742Y012861D02*
X008602Y012861D01*
X007957Y012861D02*
X004665Y012861D01*
X004708Y012763D02*
X007913Y012763D01*
X007893Y012664D02*
X004728Y012664D01*
X004728Y012566D02*
X007893Y012566D01*
X007932Y012467D02*
X004690Y012467D01*
X004620Y012369D02*
X008002Y012369D01*
X008156Y012270D02*
X004465Y012270D01*
X004419Y012040D02*
X004265Y012040D01*
X004123Y011981D01*
X004015Y011872D01*
X003956Y011730D01*
X003956Y011577D01*
X004015Y011435D01*
X004123Y011326D01*
X004265Y011267D01*
X004419Y011267D01*
X004561Y011326D01*
X004670Y011435D01*
X004728Y011577D01*
X004728Y011730D01*
X004670Y011872D01*
X004561Y011981D01*
X004419Y012040D01*
X004567Y011975D02*
X005816Y011975D01*
X005775Y011876D02*
X004665Y011876D01*
X004709Y011778D02*
X005734Y011778D01*
X005731Y011679D02*
X004728Y011679D01*
X004728Y011581D02*
X005731Y011581D01*
X005754Y011482D02*
X004689Y011482D01*
X004619Y011384D02*
X005794Y011384D01*
X005858Y011285D02*
X004463Y011285D01*
X004221Y011285D02*
X001827Y011285D01*
X001944Y011384D02*
X004065Y011384D01*
X003995Y011482D02*
X002043Y011482D01*
X002100Y011581D02*
X003956Y011581D01*
X003956Y011679D02*
X002157Y011679D01*
X002196Y011778D02*
X003976Y011778D01*
X004019Y011876D02*
X002214Y011876D01*
X002231Y011975D02*
X004117Y011975D01*
X004219Y012270D02*
X002207Y012270D01*
X002224Y012172D02*
X006047Y012172D01*
X005910Y012073D02*
X002241Y012073D01*
X002189Y012369D02*
X004065Y012369D01*
X003995Y012467D02*
X002134Y012467D01*
X002077Y012566D02*
X003956Y012566D01*
X003956Y012664D02*
X002014Y012664D01*
X001896Y012763D02*
X003976Y012763D01*
X004020Y012861D02*
X001779Y012861D01*
X002709Y010891D02*
X009992Y010891D01*
X009814Y010793D02*
X002793Y010793D01*
X004292Y010202D02*
X004392Y010202D01*
X004392Y010103D02*
X004292Y010103D01*
X004292Y010005D02*
X004392Y010005D01*
X004392Y009906D02*
X004292Y009906D01*
X004292Y009808D02*
X004392Y009808D01*
X004605Y010202D02*
X005059Y010202D01*
X004925Y010103D02*
X004744Y010103D01*
X004826Y010005D02*
X004831Y010005D01*
X005594Y010202D02*
X007027Y010202D01*
X006893Y010103D02*
X005728Y010103D01*
X005822Y010005D02*
X006084Y010005D01*
X006092Y010012D02*
X005983Y009904D01*
X005924Y009762D01*
X005924Y009608D01*
X005983Y009466D01*
X006092Y009357D01*
X006234Y009299D01*
X006387Y009299D01*
X006529Y009357D01*
X006638Y009466D01*
X006697Y009608D01*
X006697Y009762D01*
X006638Y009904D01*
X006529Y010012D01*
X006387Y010071D01*
X006234Y010071D01*
X006092Y010012D01*
X005986Y009906D02*
X005862Y009906D01*
X005903Y009808D02*
X005944Y009808D01*
X005924Y009709D02*
X005906Y009709D01*
X005906Y009611D02*
X005924Y009611D01*
X005964Y009512D02*
X005883Y009512D01*
X005842Y009414D02*
X006035Y009414D01*
X006193Y009315D02*
X005777Y009315D01*
X005679Y009217D02*
X006943Y009217D01*
X006993Y009118D02*
X005474Y009118D01*
X006428Y009315D02*
X006844Y009315D01*
X006779Y009414D02*
X006586Y009414D01*
X006657Y009512D02*
X006738Y009512D01*
X006715Y009611D02*
X006697Y009611D01*
X006697Y009709D02*
X006715Y009709D01*
X006718Y009808D02*
X006678Y009808D01*
X006635Y009906D02*
X006759Y009906D01*
X006800Y010005D02*
X006537Y010005D01*
X007111Y008953D02*
X006711Y008553D01*
X006711Y004353D01*
X006506Y004587D02*
X002829Y004587D01*
X002861Y004686D02*
X006511Y004686D01*
X006511Y004784D02*
X002861Y004784D01*
X002844Y004883D02*
X006511Y004883D01*
X006511Y004981D02*
X002803Y004981D01*
X002720Y005080D02*
X006511Y005080D01*
X006511Y005178D02*
X002560Y005178D01*
X002516Y005314D02*
X002446Y005303D01*
X002161Y005303D01*
X002161Y005703D01*
X002161Y005803D01*
X002858Y005803D01*
X002850Y005859D01*
X002828Y005926D01*
X002795Y005989D01*
X002754Y006046D01*
X002704Y006097D01*
X002646Y006138D01*
X002583Y006170D01*
X002516Y006192D01*
X002446Y006203D01*
X002161Y006203D01*
X002161Y005803D01*
X002061Y005803D01*
X002061Y005703D01*
X002161Y005703D01*
X002858Y005703D01*
X002850Y005648D01*
X002828Y005581D01*
X002795Y005517D01*
X002754Y005460D01*
X002704Y005410D01*
X002646Y005368D01*
X002583Y005336D01*
X002516Y005314D01*
X002656Y005375D02*
X006511Y005375D01*
X006511Y005277D02*
X001370Y005277D01*
X001311Y005375D02*
X001565Y005375D01*
X001575Y005368D02*
X001638Y005336D01*
X001705Y005314D01*
X001775Y005303D01*
X002061Y005303D01*
X002061Y005703D01*
X001363Y005703D01*
X001372Y005648D01*
X001394Y005581D01*
X001426Y005517D01*
X001467Y005460D01*
X001517Y005410D01*
X001575Y005368D01*
X001457Y005474D02*
X001311Y005474D01*
X001311Y005572D02*
X001398Y005572D01*
X001368Y005671D02*
X001311Y005671D01*
X001311Y005769D02*
X002061Y005769D01*
X002061Y005803D02*
X001363Y005803D01*
X001372Y005859D01*
X001394Y005926D01*
X001426Y005989D01*
X001467Y006046D01*
X001517Y006097D01*
X001575Y006138D01*
X001638Y006170D01*
X001705Y006192D01*
X001775Y006203D01*
X002061Y006203D01*
X002061Y005803D01*
X002061Y005868D02*
X002161Y005868D01*
X002161Y005966D02*
X002061Y005966D01*
X002061Y006065D02*
X002161Y006065D01*
X002161Y006163D02*
X002061Y006163D01*
X002161Y005769D02*
X006511Y005769D01*
X006511Y005671D02*
X002853Y005671D01*
X002823Y005572D02*
X006511Y005572D01*
X006511Y005474D02*
X002764Y005474D01*
X002847Y005868D02*
X006511Y005868D01*
X006511Y005966D02*
X002807Y005966D01*
X002735Y006065D02*
X006511Y006065D01*
X006511Y006163D02*
X002597Y006163D01*
X002161Y005671D02*
X002061Y005671D01*
X002061Y005572D02*
X002161Y005572D01*
X002161Y005474D02*
X002061Y005474D01*
X002061Y005375D02*
X002161Y005375D01*
X001661Y005178D02*
X001468Y005178D01*
X001111Y005253D02*
X001611Y004753D01*
X002111Y004753D01*
X002684Y004390D02*
X006401Y004390D01*
X006401Y004292D02*
X006448Y004178D01*
X006535Y004091D01*
X006649Y004043D01*
X006772Y004043D01*
X006886Y004091D01*
X006980Y004193D02*
X009814Y004193D01*
X009740Y004587D02*
X006915Y004587D01*
X006973Y004529D02*
X007021Y004415D01*
X007021Y004292D01*
X007021Y004390D02*
X012031Y004390D01*
X012031Y004292D02*
X010828Y004292D01*
X011007Y004193D02*
X012031Y004193D01*
X012031Y004095D02*
X011098Y004095D01*
X011138Y003996D02*
X012031Y003996D01*
X012031Y003898D02*
X011161Y003898D01*
X011161Y003799D02*
X012031Y003799D01*
X012031Y003701D02*
X011135Y003701D01*
X011094Y003602D02*
X012031Y003602D01*
X012031Y003504D02*
X010997Y003504D01*
X010982Y004489D02*
X012031Y004489D01*
X012031Y004587D02*
X011081Y004587D01*
X011128Y004686D02*
X012031Y004686D01*
X012031Y004784D02*
X011161Y004784D01*
X011161Y004883D02*
X012031Y004883D01*
X012031Y004981D02*
X011145Y004981D01*
X011104Y005080D02*
X012031Y005080D01*
X012031Y005178D02*
X011022Y005178D01*
X010864Y005277D02*
X012031Y005277D01*
X012031Y005375D02*
X006911Y005375D01*
X006911Y005277D02*
X009957Y005277D01*
X009799Y005178D02*
X006911Y005178D01*
X006911Y005080D02*
X009717Y005080D01*
X009677Y004981D02*
X006911Y004981D01*
X006911Y004883D02*
X009661Y004883D01*
X009661Y004784D02*
X006911Y004784D01*
X006911Y004686D02*
X009693Y004686D01*
X010021Y006203D02*
X009856Y006272D01*
X009729Y006398D01*
X009661Y006564D01*
X009661Y006743D01*
X009729Y006908D01*
X009856Y007035D01*
X010021Y007103D01*
X010800Y007103D01*
X010965Y007035D01*
X011092Y006908D01*
X011161Y006743D01*
X011161Y006564D01*
X011092Y006398D01*
X010965Y006272D01*
X010800Y006203D01*
X010021Y006203D01*
X009880Y006262D02*
X006911Y006262D01*
X006911Y006360D02*
X009767Y006360D01*
X009704Y006459D02*
X006911Y006459D01*
X006911Y006557D02*
X009663Y006557D01*
X009661Y006656D02*
X006911Y006656D01*
X006911Y006754D02*
X009665Y006754D01*
X009706Y006853D02*
X006911Y006853D01*
X006911Y006951D02*
X009772Y006951D01*
X009892Y007050D02*
X006911Y007050D01*
X006911Y007148D02*
X012031Y007148D01*
X012031Y007050D02*
X010929Y007050D01*
X011049Y006951D02*
X012031Y006951D01*
X012031Y006853D02*
X011115Y006853D01*
X011156Y006754D02*
X012031Y006754D01*
X012031Y006656D02*
X011161Y006656D01*
X011158Y006557D02*
X012031Y006557D01*
X012031Y006459D02*
X011117Y006459D01*
X011054Y006360D02*
X012031Y006360D01*
X012031Y006262D02*
X010941Y006262D01*
X010905Y007247D02*
X012031Y007247D01*
X012031Y007345D02*
X011039Y007345D01*
X011111Y007444D02*
X012031Y007444D01*
X012031Y007542D02*
X011152Y007542D01*
X011161Y007641D02*
X012031Y007641D01*
X012031Y007739D02*
X011161Y007739D01*
X011121Y007838D02*
X012031Y007838D01*
X012031Y007936D02*
X011064Y007936D01*
X010965Y008035D02*
X010800Y008103D01*
X010021Y008103D01*
X009856Y008035D01*
X009757Y007936D02*
X006911Y007936D01*
X006911Y007838D02*
X009700Y007838D01*
X009661Y007739D02*
X006911Y007739D01*
X006911Y007641D02*
X009661Y007641D01*
X009669Y007542D02*
X006911Y007542D01*
X006911Y007444D02*
X009710Y007444D01*
X009782Y007345D02*
X006911Y007345D01*
X006911Y007247D02*
X009916Y007247D01*
X010075Y009003D02*
X010005Y009014D01*
X009938Y009036D01*
X009875Y009068D01*
X009817Y009110D01*
X009767Y009160D01*
X009726Y009217D01*
X008631Y009217D01*
X008730Y009315D02*
X009682Y009315D01*
X009672Y009348D02*
X009694Y009281D01*
X009726Y009217D01*
X009809Y009118D02*
X008427Y009118D01*
X008160Y009020D02*
X009988Y009020D01*
X010075Y009003D02*
X010361Y009003D01*
X010361Y009403D01*
X010461Y009403D01*
X010461Y009503D01*
X011158Y009503D01*
X011150Y009559D01*
X011128Y009626D01*
X011095Y009689D01*
X011054Y009746D01*
X011004Y009797D01*
X010946Y009838D01*
X010883Y009870D01*
X010816Y009892D01*
X010746Y009903D01*
X010461Y009903D01*
X010461Y009503D01*
X010361Y009503D01*
X010361Y009903D01*
X010075Y009903D01*
X010005Y009892D01*
X009938Y009870D01*
X009875Y009838D01*
X009817Y009797D01*
X009767Y009746D01*
X009726Y009689D01*
X009694Y009626D01*
X009672Y009559D01*
X009663Y009503D01*
X010361Y009503D01*
X010361Y009403D01*
X009663Y009403D01*
X009672Y009348D01*
X009664Y009512D02*
X008835Y009512D01*
X008859Y009611D02*
X009689Y009611D01*
X009740Y009709D02*
X008859Y009709D01*
X008856Y009808D02*
X009833Y009808D01*
X010017Y010005D02*
X008774Y010005D01*
X008815Y009906D02*
X012031Y009906D01*
X012031Y009808D02*
X010988Y009808D01*
X011081Y009709D02*
X012031Y009709D01*
X012031Y009611D02*
X011133Y009611D01*
X011157Y009512D02*
X012031Y009512D01*
X012031Y009414D02*
X010461Y009414D01*
X010461Y009403D02*
X011158Y009403D01*
X011150Y009348D01*
X011128Y009281D01*
X011095Y009217D01*
X012031Y009217D01*
X012031Y009315D02*
X011139Y009315D01*
X011095Y009217D02*
X011054Y009160D01*
X011004Y009110D01*
X010946Y009068D01*
X010883Y009036D01*
X010816Y009014D01*
X010746Y009003D01*
X010461Y009003D01*
X010461Y009403D01*
X010461Y009315D02*
X010361Y009315D01*
X010361Y009217D02*
X010461Y009217D01*
X010461Y009118D02*
X010361Y009118D01*
X010361Y009020D02*
X010461Y009020D01*
X010833Y009020D02*
X012031Y009020D01*
X012031Y009118D02*
X011012Y009118D01*
X010461Y009512D02*
X010361Y009512D01*
X010361Y009414D02*
X008795Y009414D01*
X008681Y010103D02*
X009824Y010103D01*
X010361Y009808D02*
X010461Y009808D01*
X010461Y009709D02*
X010361Y009709D01*
X010361Y009611D02*
X010461Y009611D01*
X010804Y010005D02*
X012031Y010005D01*
X012031Y010103D02*
X010997Y010103D01*
X011094Y010202D02*
X012031Y010202D01*
X012031Y010300D02*
X011134Y010300D01*
X011161Y010399D02*
X012031Y010399D01*
X012031Y010497D02*
X011161Y010497D01*
X011139Y010596D02*
X012031Y010596D01*
X012031Y010694D02*
X011098Y010694D01*
X011007Y010793D02*
X012031Y010793D01*
X012031Y010891D02*
X010829Y010891D01*
X011520Y011187D02*
X012031Y011187D01*
X012031Y011285D02*
X011727Y011285D01*
X011844Y011384D02*
X012031Y011384D01*
X012031Y011482D02*
X011943Y011482D01*
X012000Y011581D02*
X012031Y011581D01*
X012031Y008921D02*
X008061Y008921D01*
X007963Y008823D02*
X012031Y008823D01*
X012031Y006163D02*
X006911Y006163D01*
X006911Y006065D02*
X012031Y006065D01*
X012031Y005966D02*
X006911Y005966D01*
X006911Y005868D02*
X012031Y005868D01*
X012031Y005769D02*
X006911Y005769D01*
X006911Y005671D02*
X012031Y005671D01*
X012031Y005572D02*
X006911Y005572D01*
X006911Y005474D02*
X012031Y005474D01*
X006511Y006262D02*
X001311Y006262D01*
X001311Y006360D02*
X006511Y006360D01*
X006511Y006459D02*
X001311Y006459D01*
X001311Y006557D02*
X006511Y006557D01*
X006511Y006656D02*
X001311Y006656D01*
X001311Y006754D02*
X006511Y006754D01*
X006511Y006853D02*
X001311Y006853D01*
X001311Y006951D02*
X006511Y006951D01*
X006431Y004489D02*
X002782Y004489D01*
X002524Y004193D02*
X006441Y004193D01*
X006531Y004095D02*
X002705Y004095D01*
X001375Y005868D02*
X001311Y005868D01*
X001311Y005966D02*
X001414Y005966D01*
X001486Y006065D02*
X001311Y006065D01*
X001311Y006163D02*
X001624Y006163D01*
X001496Y008232D02*
X001311Y008232D01*
X001311Y008330D02*
X001416Y008330D01*
X001375Y008429D02*
X001311Y008429D01*
X001311Y008527D02*
X001361Y008527D01*
X001361Y008626D02*
X001311Y008626D01*
X001311Y008724D02*
X001394Y008724D01*
X001444Y008823D02*
X001311Y008823D01*
X001311Y008921D02*
X001542Y008921D01*
D13*
X004111Y008553D03*
X007411Y004653D03*
X006711Y004353D03*
X004311Y002253D03*
M02*
