%
M48
M72
T01C0.0200
T02C0.0400
T03C0.0472
T04C0.0512
T05C0.1300
%
T01
X4111Y8553
X4311Y2253
X7411Y4653
X6711Y4353
T02
X2111Y5753
X2111Y4753
X2111Y3753
X2111Y2753
X2111Y10553
X2111Y9553
X2111Y8553
X2111Y7553
X10411Y3853
X10411Y4853
X10411Y9453
X10411Y10453
X10411Y6653
X10411Y7653
T03
X8279Y11653
X8279Y12638
X4342Y12638
X4342Y11653
X6311Y9685
T04
X6311Y11653
X7295Y9685
X8279Y9685
X5326Y9685
X4342Y9685
T05
X1311Y12053
X11211Y12053
X1311Y1253
X11211Y1253
M30
