G75*
G70*
%OFA0B0*%
%FSLAX24Y24*%
%IPPOS*%
%LPD*%
%AMOC8*
5,1,8,0,0,1.08239X$1,22.5*
%
%ADD10C,0.0050*%
%ADD11R,0.0003X0.0042*%
%ADD12R,0.0003X0.0066*%
%ADD13R,0.0003X0.0084*%
%ADD14R,0.0003X0.0105*%
%ADD15R,0.0003X0.0117*%
%ADD16R,0.0003X0.0135*%
%ADD17R,0.0003X0.0147*%
%ADD18R,0.0003X0.0162*%
%ADD19R,0.0003X0.0174*%
%ADD20R,0.0003X0.0186*%
%ADD21R,0.0003X0.0198*%
%ADD22R,0.0003X0.0210*%
%ADD23R,0.0003X0.0222*%
%ADD24R,0.0003X0.0234*%
%ADD25R,0.0003X0.0243*%
%ADD26R,0.0003X0.0255*%
%ADD27R,0.0003X0.0264*%
%ADD28R,0.0003X0.0273*%
%ADD29R,0.0003X0.0285*%
%ADD30R,0.0003X0.0297*%
%ADD31R,0.0003X0.0303*%
%ADD32R,0.0003X0.0315*%
%ADD33R,0.0003X0.0327*%
%ADD34R,0.0003X0.0333*%
%ADD35R,0.0003X0.0345*%
%ADD36R,0.0003X0.0354*%
%ADD37R,0.0003X0.0363*%
%ADD38R,0.0003X0.0372*%
%ADD39R,0.0003X0.0381*%
%ADD40R,0.0003X0.0390*%
%ADD41R,0.0003X0.0402*%
%ADD42R,0.0003X0.0408*%
%ADD43R,0.0003X0.0420*%
%ADD44R,0.0003X0.0426*%
%ADD45R,0.0003X0.0438*%
%ADD46R,0.0003X0.0444*%
%ADD47R,0.0003X0.0456*%
%ADD48R,0.0003X0.0462*%
%ADD49R,0.0003X0.0468*%
%ADD50R,0.0003X0.0480*%
%ADD51R,0.0003X0.0486*%
%ADD52R,0.0003X0.0495*%
%ADD53R,0.0003X0.0504*%
%ADD54R,0.0003X0.0513*%
%ADD55R,0.0003X0.0522*%
%ADD56R,0.0003X0.0528*%
%ADD57R,0.0003X0.0537*%
%ADD58R,0.0003X0.0546*%
%ADD59R,0.0003X0.0555*%
%ADD60R,0.0003X0.0561*%
%ADD61R,0.0003X0.0570*%
%ADD62R,0.0003X0.0579*%
%ADD63R,0.0003X0.0585*%
%ADD64R,0.0003X0.0594*%
%ADD65R,0.0003X0.0603*%
%ADD66R,0.0003X0.0609*%
%ADD67R,0.0003X0.0618*%
%ADD68R,0.0003X0.0627*%
%ADD69R,0.0003X0.0633*%
%ADD70R,0.0003X0.0639*%
%ADD71R,0.0003X0.0651*%
%ADD72R,0.0003X0.0657*%
%ADD73R,0.0003X0.0663*%
%ADD74R,0.0003X0.0675*%
%ADD75R,0.0003X0.0681*%
%ADD76R,0.0003X0.0687*%
%ADD77R,0.0003X0.0693*%
%ADD78R,0.0003X0.0705*%
%ADD79R,0.0003X0.0711*%
%ADD80R,0.0003X0.0717*%
%ADD81R,0.0003X0.0726*%
%ADD82R,0.0003X0.0732*%
%ADD83R,0.0003X0.0741*%
%ADD84R,0.0003X0.0747*%
%ADD85R,0.0003X0.0756*%
%ADD86R,0.0003X0.0762*%
%ADD87R,0.0003X0.0771*%
%ADD88R,0.0003X0.0777*%
%ADD89R,0.0003X0.0786*%
%ADD90R,0.0003X0.0792*%
%ADD91R,0.0003X0.0798*%
%ADD92R,0.0003X0.0807*%
%ADD93R,0.0003X0.0813*%
%ADD94R,0.0003X0.0822*%
%ADD95R,0.0003X0.0828*%
%ADD96R,0.0003X0.0837*%
%ADD97R,0.0003X0.0843*%
%ADD98R,0.0003X0.0852*%
%ADD99R,0.0003X0.0858*%
%ADD100R,0.0003X0.0864*%
%ADD101R,0.0003X0.0870*%
%ADD102R,0.0003X0.0879*%
%ADD103R,0.0003X0.0885*%
%ADD104R,0.0003X0.0894*%
%ADD105R,0.0003X0.0900*%
%ADD106R,0.0003X0.0906*%
%ADD107R,0.0003X0.0912*%
%ADD108R,0.0003X0.0921*%
%ADD109R,0.0003X0.0930*%
%ADD110R,0.0003X0.0936*%
%ADD111R,0.0003X0.0942*%
%ADD112R,0.0003X0.0948*%
%ADD113R,0.0003X0.0954*%
%ADD114R,0.0003X0.0963*%
%ADD115R,0.0003X0.0972*%
%ADD116R,0.0003X0.0978*%
%ADD117R,0.0003X0.0984*%
%ADD118R,0.0003X0.0990*%
%ADD119R,0.0003X0.0996*%
%ADD120R,0.0003X0.1002*%
%ADD121R,0.0003X0.1008*%
%ADD122R,0.0003X0.1020*%
%ADD123R,0.0003X0.1026*%
%ADD124R,0.0003X0.1032*%
%ADD125R,0.0003X0.1038*%
%ADD126R,0.0003X0.1044*%
%ADD127R,0.0003X0.1050*%
%ADD128R,0.0003X0.1056*%
%ADD129R,0.0003X0.1068*%
%ADD130R,0.0003X0.1074*%
%ADD131R,0.0003X0.1080*%
%ADD132R,0.0003X0.1086*%
%ADD133R,0.0003X0.1092*%
%ADD134R,0.0003X0.1098*%
%ADD135R,0.0003X0.1104*%
%ADD136R,0.0003X0.1110*%
%ADD137R,0.0003X0.1116*%
%ADD138R,0.0003X0.1125*%
%ADD139R,0.0003X0.1131*%
%ADD140R,0.0003X0.1140*%
%ADD141R,0.0003X0.1146*%
%ADD142R,0.0003X0.1152*%
%ADD143R,0.0003X0.1158*%
%ADD144R,0.0003X0.1164*%
%ADD145R,0.0003X0.1170*%
%ADD146R,0.0003X0.1176*%
%ADD147R,0.0003X0.1182*%
%ADD148R,0.0003X0.1191*%
%ADD149R,0.0003X0.1197*%
%ADD150R,0.0003X0.1203*%
%ADD151R,0.0003X0.1209*%
%ADD152R,0.0003X0.1218*%
%ADD153R,0.0003X0.1224*%
%ADD154R,0.0003X0.1230*%
%ADD155R,0.0003X0.1236*%
%ADD156R,0.0003X0.1242*%
%ADD157R,0.0003X0.1248*%
%ADD158R,0.0003X0.1254*%
%ADD159R,0.0003X0.1260*%
%ADD160R,0.0003X0.1266*%
%ADD161R,0.0003X0.1275*%
%ADD162R,0.0003X0.1281*%
%ADD163R,0.0003X0.1287*%
%ADD164R,0.0003X0.1293*%
%ADD165R,0.0003X0.1299*%
%ADD166R,0.0003X0.1305*%
%ADD167R,0.0003X0.1314*%
%ADD168R,0.0003X0.1320*%
%ADD169R,0.0003X0.1326*%
%ADD170R,0.0003X0.1332*%
%ADD171R,0.0003X0.1338*%
%ADD172R,0.0003X0.1344*%
%ADD173R,0.0003X0.1350*%
%ADD174R,0.0003X0.1356*%
%ADD175R,0.0003X0.1362*%
%ADD176R,0.0003X0.1368*%
%ADD177R,0.0003X0.1374*%
%ADD178R,0.0003X0.1380*%
%ADD179R,0.0003X0.1386*%
%ADD180R,0.0003X0.1395*%
%ADD181R,0.0003X0.1401*%
%ADD182R,0.0003X0.1407*%
%ADD183R,0.0003X0.1413*%
%ADD184R,0.0003X0.1419*%
%ADD185R,0.0003X0.1425*%
%ADD186R,0.0003X0.1431*%
%ADD187R,0.0003X0.1437*%
%ADD188R,0.0003X0.1443*%
%ADD189R,0.0003X0.1449*%
%ADD190R,0.0003X0.1455*%
%ADD191R,0.0003X0.1461*%
%ADD192R,0.0003X0.1467*%
%ADD193R,0.0003X0.1473*%
%ADD194R,0.0003X0.1479*%
%ADD195R,0.0003X0.1485*%
%ADD196R,0.0003X0.1491*%
%ADD197R,0.0003X0.1497*%
%ADD198R,0.0003X0.1503*%
%ADD199R,0.0003X0.1509*%
%ADD200R,0.0003X0.1515*%
%ADD201R,0.0003X0.1521*%
%ADD202R,0.0003X0.1527*%
%ADD203R,0.0003X0.1533*%
%ADD204R,0.0003X0.1539*%
%ADD205R,0.0003X0.1545*%
%ADD206R,0.0003X0.1551*%
%ADD207R,0.0003X0.1557*%
%ADD208R,0.0003X0.1563*%
%ADD209R,0.0003X0.1569*%
%ADD210R,0.0003X0.1575*%
%ADD211R,0.0003X0.1581*%
%ADD212R,0.0003X0.1587*%
%ADD213R,0.0003X0.1593*%
%ADD214R,0.0003X0.1599*%
%ADD215R,0.0003X0.1605*%
%ADD216R,0.0003X0.1611*%
%ADD217R,0.0003X0.1617*%
%ADD218R,0.0003X0.1623*%
%ADD219R,0.0003X0.1629*%
%ADD220R,0.0003X0.1635*%
%ADD221R,0.0003X0.1641*%
%ADD222R,0.0003X0.1647*%
%ADD223R,0.0003X0.1653*%
%ADD224R,0.0003X0.1659*%
%ADD225R,0.0003X0.1665*%
%ADD226R,0.0003X0.1671*%
%ADD227R,0.0003X0.1677*%
%ADD228R,0.0003X0.1683*%
%ADD229R,0.0003X0.1686*%
%ADD230R,0.0003X0.1692*%
%ADD231R,0.0003X0.1698*%
%ADD232R,0.0003X0.1704*%
%ADD233R,0.0003X0.1710*%
%ADD234R,0.0003X0.1716*%
%ADD235R,0.0003X0.1722*%
%ADD236R,0.0003X0.1728*%
%ADD237R,0.0003X0.1734*%
%ADD238R,0.0003X0.1740*%
%ADD239R,0.0003X0.1746*%
%ADD240R,0.0003X0.1752*%
%ADD241R,0.0003X0.1758*%
%ADD242R,0.0003X0.1764*%
%ADD243R,0.0003X0.1767*%
%ADD244R,0.0003X0.1773*%
%ADD245R,0.0003X0.1779*%
%ADD246R,0.0003X0.1785*%
%ADD247R,0.0003X0.1791*%
%ADD248R,0.0003X0.1797*%
%ADD249R,0.0003X0.1803*%
%ADD250R,0.0003X0.1809*%
%ADD251R,0.0003X0.1815*%
%ADD252R,0.0003X0.1818*%
%ADD253R,0.0003X0.1824*%
%ADD254R,0.0003X0.1830*%
%ADD255R,0.0003X0.1836*%
%ADD256R,0.0003X0.1842*%
%ADD257R,0.0003X0.1848*%
%ADD258R,0.0003X0.1854*%
%ADD259R,0.0003X0.1860*%
%ADD260R,0.0003X0.1863*%
%ADD261R,0.0003X0.1869*%
%ADD262R,0.0003X0.1875*%
%ADD263R,0.0003X0.1881*%
%ADD264R,0.0003X0.1887*%
%ADD265R,0.0003X0.1890*%
%ADD266R,0.0003X0.1896*%
%ADD267R,0.0003X0.1902*%
%ADD268R,0.0003X0.1908*%
%ADD269R,0.0003X0.1914*%
%ADD270R,0.0003X0.1920*%
%ADD271R,0.0003X0.1926*%
%ADD272R,0.0003X0.1932*%
%ADD273R,0.0003X0.1938*%
%ADD274R,0.0003X0.1941*%
%ADD275R,0.0003X0.1947*%
%ADD276R,0.0003X0.1953*%
%ADD277R,0.0003X0.1959*%
%ADD278R,0.0003X0.1962*%
%ADD279R,0.0003X0.1968*%
%ADD280R,0.0003X0.1974*%
%ADD281R,0.0003X0.1980*%
%ADD282R,0.0003X0.1986*%
%ADD283R,0.0003X0.1992*%
%ADD284R,0.0003X0.1998*%
%ADD285R,0.0003X0.2004*%
%ADD286R,0.0003X0.2007*%
%ADD287R,0.0003X0.2013*%
%ADD288R,0.0003X0.2019*%
%ADD289R,0.0003X0.2022*%
%ADD290R,0.0003X0.2028*%
%ADD291R,0.0003X0.2034*%
%ADD292R,0.0003X0.2040*%
%ADD293R,0.0003X0.2046*%
%ADD294R,0.0003X0.2052*%
%ADD295R,0.0003X0.2055*%
%ADD296R,0.0003X0.2061*%
%ADD297R,0.0003X0.2067*%
%ADD298R,0.0003X0.2070*%
%ADD299R,0.0003X0.2076*%
%ADD300R,0.0003X0.2082*%
%ADD301R,0.0003X0.2088*%
%ADD302R,0.0003X0.2094*%
%ADD303R,0.0003X0.2100*%
%ADD304R,0.0003X0.2106*%
%ADD305R,0.0003X0.2109*%
%ADD306R,0.0003X0.2115*%
%ADD307R,0.0003X0.2118*%
%ADD308R,0.0003X0.2124*%
%ADD309R,0.0003X0.2130*%
%ADD310R,0.0003X0.2136*%
%ADD311R,0.0003X0.2142*%
%ADD312R,0.0003X0.2148*%
%ADD313R,0.0003X0.2154*%
%ADD314R,0.0003X0.2157*%
%ADD315R,0.0003X0.2160*%
%ADD316R,0.0003X0.2166*%
%ADD317R,0.0003X0.2172*%
%ADD318R,0.0003X0.2178*%
%ADD319R,0.0003X0.2184*%
%ADD320R,0.0003X0.2190*%
%ADD321R,0.0003X0.2196*%
%ADD322R,0.0003X0.2196*%
%ADD323R,0.0003X0.2202*%
%ADD324R,0.0003X0.2208*%
%ADD325R,0.0003X0.2214*%
%ADD326R,0.0003X0.2220*%
%ADD327R,0.0003X0.2226*%
%ADD328R,0.0003X0.2232*%
%ADD329R,0.0003X0.2238*%
%ADD330R,0.0003X0.2244*%
%ADD331R,0.0003X0.2250*%
%ADD332R,0.0003X0.2256*%
%ADD333R,0.0003X0.2262*%
%ADD334R,0.0003X0.2268*%
%ADD335R,0.0003X0.2274*%
%ADD336R,0.0003X0.2274*%
%ADD337R,0.0003X0.2280*%
%ADD338R,0.0003X0.2286*%
%ADD339R,0.0003X0.2292*%
%ADD340R,0.0003X0.2298*%
%ADD341R,0.0003X0.2304*%
%ADD342R,0.0003X0.2304*%
%ADD343R,0.0003X0.2310*%
%ADD344R,0.0003X0.2316*%
%ADD345R,0.0003X0.2322*%
%ADD346R,0.0003X0.2328*%
%ADD347R,0.0003X0.2334*%
%ADD348R,0.0003X0.2337*%
%ADD349R,0.0003X0.2340*%
%ADD350R,0.0003X0.2346*%
%ADD351R,0.0003X0.2352*%
%ADD352R,0.0003X0.2358*%
%ADD353R,0.0003X0.2364*%
%ADD354R,0.0003X0.2367*%
%ADD355R,0.0003X0.2373*%
%ADD356R,0.0003X0.2376*%
%ADD357R,0.0003X0.2382*%
%ADD358R,0.0003X0.2388*%
%ADD359R,0.0003X0.2394*%
%ADD360R,0.0003X0.2397*%
%ADD361R,0.0003X0.2400*%
%ADD362R,0.0003X0.2406*%
%ADD363R,0.0003X0.2412*%
%ADD364R,0.0003X0.2418*%
%ADD365R,0.0003X0.2424*%
%ADD366R,0.0003X0.2427*%
%ADD367R,0.0003X0.2430*%
%ADD368R,0.0003X0.2436*%
%ADD369R,0.0003X0.2442*%
%ADD370R,0.0003X0.2448*%
%ADD371R,0.0003X0.2454*%
%ADD372R,0.0003X0.2457*%
%ADD373R,0.0003X0.2460*%
%ADD374R,0.0003X0.2466*%
%ADD375R,0.0003X0.2472*%
%ADD376R,0.0003X0.2478*%
%ADD377R,0.0003X0.2481*%
%ADD378R,0.0003X0.2487*%
%ADD379R,0.0003X0.2490*%
%ADD380R,0.0003X0.2496*%
%ADD381R,0.0003X0.2502*%
%ADD382R,0.0003X0.2505*%
%ADD383R,0.0003X0.2511*%
%ADD384R,0.0003X0.2514*%
%ADD385R,0.0003X0.2520*%
%ADD386R,0.0003X0.2526*%
%ADD387R,0.0003X0.2529*%
%ADD388R,0.0003X0.2535*%
%ADD389R,0.0003X0.2538*%
%ADD390R,0.0003X0.2544*%
%ADD391R,0.0003X0.2550*%
%ADD392R,0.0003X0.2553*%
%ADD393R,0.0003X0.2559*%
%ADD394R,0.0003X0.2562*%
%ADD395R,0.0003X0.2568*%
%ADD396R,0.0003X0.2574*%
%ADD397R,0.0003X0.2577*%
%ADD398R,0.0003X0.2583*%
%ADD399R,0.0003X0.2586*%
%ADD400R,0.0003X0.2592*%
%ADD401R,0.0003X0.2598*%
%ADD402R,0.0003X0.2601*%
%ADD403R,0.0003X0.2607*%
%ADD404R,0.0003X0.2610*%
%ADD405R,0.0003X0.2616*%
%ADD406R,0.0003X0.2619*%
%ADD407R,0.0003X0.2625*%
%ADD408R,0.0003X0.2631*%
%ADD409R,0.0003X0.2634*%
%ADD410R,0.0003X0.2640*%
%ADD411R,0.0003X0.2643*%
%ADD412R,0.0003X0.2649*%
%ADD413R,0.0003X0.2655*%
%ADD414R,0.0003X0.2658*%
%ADD415R,0.0003X0.2661*%
%ADD416R,0.0003X0.2667*%
%ADD417R,0.0003X0.2673*%
%ADD418R,0.0003X0.2676*%
%ADD419R,0.0003X0.2682*%
%ADD420R,0.0003X0.2685*%
%ADD421R,0.0003X0.2691*%
%ADD422R,0.0003X0.2697*%
%ADD423R,0.0003X0.2700*%
%ADD424R,0.0003X0.2703*%
%ADD425R,0.0003X0.2709*%
%ADD426R,0.0003X0.2715*%
%ADD427R,0.0003X0.2718*%
%ADD428R,0.0003X0.2721*%
%ADD429R,0.0003X0.2727*%
%ADD430R,0.0003X0.2733*%
%ADD431R,0.0003X0.2739*%
%ADD432R,0.0003X0.2739*%
%ADD433R,0.0003X0.2745*%
%ADD434R,0.0003X0.2751*%
%ADD435R,0.0003X0.2757*%
%ADD436R,0.0003X0.2757*%
%ADD437R,0.0003X0.2763*%
%ADD438R,0.0003X0.2769*%
%ADD439R,0.0003X0.2775*%
%ADD440R,0.0003X0.2781*%
%ADD441R,0.0003X0.2787*%
%ADD442R,0.0003X0.2793*%
%ADD443R,0.0003X0.2799*%
%ADD444R,0.0003X0.2805*%
%ADD445R,0.0003X0.2811*%
%ADD446R,0.0003X0.2817*%
%ADD447R,0.0003X0.2823*%
%ADD448R,0.0003X0.2829*%
%ADD449R,0.0003X0.2829*%
%ADD450R,0.0003X0.2835*%
%ADD451R,0.0003X0.2841*%
%ADD452R,0.0003X0.2847*%
%ADD453R,0.0003X0.2847*%
%ADD454R,0.0003X0.2853*%
%ADD455R,0.0003X0.2859*%
%ADD456R,0.0003X0.2865*%
%ADD457R,0.0003X0.2871*%
%ADD458R,0.0003X0.2877*%
%ADD459R,0.0003X0.2880*%
%ADD460R,0.0003X0.2883*%
%ADD461R,0.0003X0.2889*%
%ADD462R,0.0003X0.2895*%
%ADD463R,0.0003X0.2898*%
%ADD464R,0.0003X0.2901*%
%ADD465R,0.0003X0.2907*%
%ADD466R,0.0003X0.2910*%
%ADD467R,0.0003X0.2913*%
%ADD468R,0.0003X0.2919*%
%ADD469R,0.0003X0.2925*%
%ADD470R,0.0003X0.2928*%
%ADD471R,0.0003X0.2931*%
%ADD472R,0.0003X0.2937*%
%ADD473R,0.0003X0.2940*%
%ADD474R,0.0003X0.2946*%
%ADD475R,0.0003X0.2949*%
%ADD476R,0.0003X0.2955*%
%ADD477R,0.0003X0.2958*%
%ADD478R,0.0003X0.2961*%
%ADD479R,0.0003X0.2967*%
%ADD480R,0.0003X0.2970*%
%ADD481R,0.0003X0.2973*%
%ADD482R,0.0003X0.2979*%
%ADD483R,0.0003X0.2985*%
%ADD484R,0.0003X0.2988*%
%ADD485R,0.0003X0.2991*%
%ADD486R,0.0003X0.2997*%
%ADD487R,0.0003X0.3000*%
%ADD488R,0.0003X0.3003*%
%ADD489R,0.0003X0.3009*%
%ADD490R,0.0003X0.3015*%
%ADD491R,0.0003X0.3018*%
%ADD492R,0.0003X0.3021*%
%ADD493R,0.0003X0.3027*%
%ADD494R,0.0003X0.3030*%
%ADD495R,0.0003X0.3033*%
%ADD496R,0.0003X0.3039*%
%ADD497R,0.0003X0.3042*%
%ADD498R,0.0003X0.3045*%
%ADD499R,0.0003X0.3051*%
%ADD500R,0.0003X0.3054*%
%ADD501R,0.0003X0.3060*%
%ADD502R,0.0003X0.3063*%
%ADD503R,0.0003X0.3066*%
%ADD504R,0.0003X0.3072*%
%ADD505R,0.0003X0.3075*%
%ADD506R,0.0003X0.3081*%
%ADD507R,0.0003X0.3084*%
%ADD508R,0.0003X0.3090*%
%ADD509R,0.0003X0.3093*%
%ADD510R,0.0003X0.3096*%
%ADD511R,0.0003X0.3102*%
%ADD512R,0.0003X0.3105*%
%ADD513R,0.0003X0.3108*%
%ADD514R,0.0003X0.3114*%
%ADD515R,0.0003X0.3117*%
%ADD516R,0.0003X0.3120*%
%ADD517R,0.0003X0.3126*%
%ADD518R,0.0003X0.3129*%
%ADD519R,0.0003X0.3132*%
%ADD520R,0.0003X0.3138*%
%ADD521R,0.0003X0.3141*%
%ADD522R,0.0003X0.3144*%
%ADD523R,0.0003X0.3150*%
%ADD524R,0.0003X0.3153*%
%ADD525R,0.0003X0.3156*%
%ADD526R,0.0003X0.3162*%
%ADD527R,0.0003X0.3165*%
%ADD528R,0.0003X0.3168*%
%ADD529R,0.0003X0.3174*%
%ADD530R,0.0003X0.3180*%
%ADD531R,0.0003X0.3186*%
%ADD532R,0.0003X0.3186*%
%ADD533R,0.0003X0.3192*%
%ADD534R,0.0003X0.3198*%
%ADD535R,0.0003X0.3204*%
%ADD536R,0.0003X0.3210*%
%ADD537R,0.0003X0.3216*%
%ADD538R,0.0003X0.3222*%
%ADD539R,0.0003X0.3222*%
%ADD540R,0.0003X0.3228*%
%ADD541R,0.0003X0.3234*%
%ADD542R,0.0003X0.3240*%
%ADD543R,0.0003X0.3246*%
%ADD544R,0.0003X0.3246*%
%ADD545R,0.0003X0.3252*%
%ADD546R,0.0003X0.3255*%
%ADD547R,0.0003X0.3258*%
%ADD548R,0.0003X0.3264*%
%ADD549R,0.0003X0.3264*%
%ADD550R,0.0003X0.3270*%
%ADD551R,0.0003X0.3276*%
%ADD552R,0.0003X0.3282*%
%ADD553R,0.0003X0.3288*%
%ADD554R,0.0003X0.3294*%
%ADD555R,0.0003X0.3297*%
%ADD556R,0.0003X0.3300*%
%ADD557R,0.0003X0.3306*%
%ADD558R,0.0003X0.3312*%
%ADD559R,0.0003X0.3318*%
%ADD560R,0.0003X0.3318*%
%ADD561R,0.0003X0.3324*%
%ADD562R,0.0003X0.3327*%
%ADD563R,0.0003X0.3330*%
%ADD564R,0.0003X0.3336*%
%ADD565R,0.0003X0.3339*%
%ADD566R,0.0003X0.3342*%
%ADD567R,0.0003X0.3345*%
%ADD568R,0.0003X0.3348*%
%ADD569R,0.0003X0.3354*%
%ADD570R,0.0003X0.3357*%
%ADD571R,0.0003X0.3360*%
%ADD572R,0.0003X0.3363*%
%ADD573R,0.0003X0.3366*%
%ADD574R,0.0003X0.3372*%
%ADD575R,0.0003X0.3375*%
%ADD576R,0.0003X0.3378*%
%ADD577R,0.0003X0.3381*%
%ADD578R,0.0003X0.3384*%
%ADD579R,0.0003X0.3390*%
%ADD580R,0.0003X0.3393*%
%ADD581R,0.0003X0.3396*%
%ADD582R,0.0003X0.3399*%
%ADD583R,0.0003X0.3405*%
%ADD584R,0.0003X0.3408*%
%ADD585R,0.0003X0.3411*%
%ADD586R,0.0003X0.3414*%
%ADD587R,0.0003X0.3417*%
%ADD588R,0.0003X0.3423*%
%ADD589R,0.0003X0.3426*%
%ADD590R,0.0003X0.3429*%
%ADD591R,0.0003X0.3432*%
%ADD592R,0.0003X0.3435*%
%ADD593R,0.0003X0.3441*%
%ADD594R,0.0003X0.3444*%
%ADD595R,0.0003X0.3447*%
%ADD596R,0.0003X0.3450*%
%ADD597R,0.0003X0.3453*%
%ADD598R,0.0003X0.3459*%
%ADD599R,0.0003X0.3465*%
%ADD600R,0.0003X0.3468*%
%ADD601R,0.0003X0.3471*%
%ADD602R,0.0003X0.3474*%
%ADD603R,0.0003X0.3477*%
%ADD604R,0.0003X0.3483*%
%ADD605R,0.0003X0.3483*%
%ADD606R,0.0003X0.3489*%
%ADD607R,0.0003X0.3495*%
%ADD608R,0.0003X0.3501*%
%ADD609R,0.0003X0.3501*%
%ADD610R,0.0003X0.3507*%
%ADD611R,0.0003X0.3513*%
%ADD612R,0.0003X0.3513*%
%ADD613R,0.0003X0.3519*%
%ADD614R,0.0003X0.3525*%
%ADD615R,0.0003X0.3531*%
%ADD616R,0.0003X0.3531*%
%ADD617R,0.0003X0.3537*%
%ADD618R,0.0003X0.3543*%
%ADD619R,0.0003X0.3549*%
%ADD620R,0.0003X0.3555*%
%ADD621R,0.0003X0.3561*%
%ADD622R,0.0003X0.3567*%
%ADD623R,0.0003X0.3567*%
%ADD624R,0.0003X0.3573*%
%ADD625R,0.0003X0.3579*%
%ADD626R,0.0003X0.3579*%
%ADD627R,0.0003X0.3585*%
%ADD628R,0.0003X0.3588*%
%ADD629R,0.0003X0.3591*%
%ADD630R,0.0003X0.3597*%
%ADD631R,0.0003X0.3597*%
%ADD632R,0.0003X0.3603*%
%ADD633R,0.0003X0.3609*%
%ADD634R,0.0003X0.3615*%
%ADD635R,0.0003X0.3615*%
%ADD636R,0.0003X0.3621*%
%ADD637R,0.0003X0.3624*%
%ADD638R,0.0003X0.3627*%
%ADD639R,0.0003X0.3630*%
%ADD640R,0.0003X0.3633*%
%ADD641R,0.0003X0.3636*%
%ADD642R,0.0003X0.3639*%
%ADD643R,0.0003X0.3642*%
%ADD644R,0.0003X0.3645*%
%ADD645R,0.0003X0.3648*%
%ADD646R,0.0003X0.1050*%
%ADD647R,0.0003X0.2469*%
%ADD648R,0.0003X0.1053*%
%ADD649R,0.0003X0.1056*%
%ADD650R,0.0003X0.2472*%
%ADD651R,0.0003X0.2475*%
%ADD652R,0.0003X0.1059*%
%ADD653R,0.0003X0.2478*%
%ADD654R,0.0003X0.1062*%
%ADD655R,0.0003X0.1062*%
%ADD656R,0.0003X0.2481*%
%ADD657R,0.0003X0.1065*%
%ADD658R,0.0003X0.2481*%
%ADD659R,0.0003X0.2484*%
%ADD660R,0.0003X0.1068*%
%ADD661R,0.0003X0.2487*%
%ADD662R,0.0003X0.1071*%
%ADD663R,0.0003X0.2487*%
%ADD664R,0.0003X0.1071*%
%ADD665R,0.0003X0.1074*%
%ADD666R,0.0003X0.2493*%
%ADD667R,0.0003X0.1077*%
%ADD668R,0.0003X0.1077*%
%ADD669R,0.0003X0.2496*%
%ADD670R,0.0003X0.2499*%
%ADD671R,0.0003X0.1083*%
%ADD672R,0.0003X0.2502*%
%ADD673R,0.0003X0.1086*%
%ADD674R,0.0003X0.1089*%
%ADD675R,0.0003X0.2508*%
%ADD676R,0.0003X0.1092*%
%ADD677R,0.0003X0.2511*%
%ADD678R,0.0003X0.1095*%
%ADD679R,0.0003X0.2511*%
%ADD680R,0.0003X0.2514*%
%ADD681R,0.0003X0.1098*%
%ADD682R,0.0003X0.1101*%
%ADD683R,0.0003X0.2517*%
%ADD684R,0.0003X0.1101*%
%ADD685R,0.0003X0.1104*%
%ADD686R,0.0003X0.1107*%
%ADD687R,0.0003X0.2523*%
%ADD688R,0.0003X0.1107*%
%ADD689R,0.0003X0.2523*%
%ADD690R,0.0003X0.2526*%
%ADD691R,0.0003X0.1113*%
%ADD692R,0.0003X0.1113*%
%ADD693R,0.0003X0.2532*%
%ADD694R,0.0003X0.1116*%
%ADD695R,0.0003X0.2532*%
%ADD696R,0.0003X0.1119*%
%ADD697R,0.0003X0.1122*%
%ADD698R,0.0003X0.2538*%
%ADD699R,0.0003X0.1122*%
%ADD700R,0.0003X0.2538*%
%ADD701R,0.0003X0.2541*%
%ADD702R,0.0003X0.1128*%
%ADD703R,0.0003X0.2544*%
%ADD704R,0.0003X0.1128*%
%ADD705R,0.0003X0.2544*%
%ADD706R,0.0003X0.1131*%
%ADD707R,0.0003X0.2547*%
%ADD708R,0.0003X0.1134*%
%ADD709R,0.0003X0.2550*%
%ADD710R,0.0003X0.1134*%
%ADD711R,0.0003X0.1137*%
%ADD712R,0.0003X0.2556*%
%ADD713R,0.0003X0.1140*%
%ADD714R,0.0003X0.2559*%
%ADD715R,0.0003X0.1143*%
%ADD716R,0.0003X0.1149*%
%ADD717R,0.0003X0.2565*%
%ADD718R,0.0003X0.1149*%
%ADD719R,0.0003X0.2565*%
%ADD720R,0.0003X0.1152*%
%ADD721R,0.0003X0.2568*%
%ADD722R,0.0003X0.1155*%
%ADD723R,0.0003X0.2571*%
%ADD724R,0.0003X0.1155*%
%ADD725R,0.0003X0.2571*%
%ADD726R,0.0003X0.1158*%
%ADD727R,0.0003X0.2574*%
%ADD728R,0.0003X0.1161*%
%ADD729R,0.0003X0.2577*%
%ADD730R,0.0003X0.1161*%
%ADD731R,0.0003X0.2577*%
%ADD732R,0.0003X0.1164*%
%ADD733R,0.0003X0.2580*%
%ADD734R,0.0003X0.1167*%
%ADD735R,0.0003X0.1167*%
%ADD736R,0.0003X0.2583*%
%ADD737R,0.0003X0.1173*%
%ADD738R,0.0003X0.1173*%
%ADD739R,0.0003X0.2589*%
%ADD740R,0.0003X0.2589*%
%ADD741R,0.0003X0.1179*%
%ADD742R,0.0003X0.1179*%
%ADD743R,0.0003X0.2595*%
%ADD744R,0.0003X0.2595*%
%ADD745R,0.0003X0.1182*%
%ADD746R,0.0003X0.2598*%
%ADD747R,0.0003X0.1185*%
%ADD748R,0.0003X0.1185*%
%ADD749R,0.0003X0.2601*%
%ADD750R,0.0003X0.2601*%
%ADD751R,0.0003X0.1188*%
%ADD752R,0.0003X0.2604*%
%ADD753R,0.0003X0.1191*%
%ADD754R,0.0003X0.1191*%
%ADD755R,0.0003X0.2604*%
%ADD756R,0.0003X0.2607*%
%ADD757R,0.0003X0.1194*%
%ADD758R,0.0003X0.1197*%
%ADD759R,0.0003X0.2610*%
%ADD760R,0.0003X0.0546*%
%ADD761R,0.0003X0.0219*%
%ADD762R,0.0003X0.0819*%
%ADD763R,0.0003X0.1410*%
%ADD764R,0.0003X0.0561*%
%ADD765R,0.0003X0.0195*%
%ADD766R,0.0003X0.0768*%
%ADD767R,0.0003X0.1374*%
%ADD768R,0.0003X0.0516*%
%ADD769R,0.0003X0.0549*%
%ADD770R,0.0003X0.0183*%
%ADD771R,0.0003X0.0741*%
%ADD772R,0.0003X0.1353*%
%ADD773R,0.0003X0.0060*%
%ADD774R,0.0003X0.0063*%
%ADD775R,0.0003X0.0534*%
%ADD776R,0.0003X0.0171*%
%ADD777R,0.0003X0.0708*%
%ADD778R,0.0003X0.1335*%
%ADD779R,0.0003X0.0114*%
%ADD780R,0.0003X0.0120*%
%ADD781R,0.0003X0.0522*%
%ADD782R,0.0003X0.0159*%
%ADD783R,0.0003X0.0684*%
%ADD784R,0.0003X0.1317*%
%ADD785R,0.0003X0.0156*%
%ADD786R,0.0003X0.0489*%
%ADD787R,0.0003X0.0150*%
%ADD788R,0.0003X0.0666*%
%ADD789R,0.0003X0.1311*%
%ADD790R,0.0003X0.0171*%
%ADD791R,0.0003X0.0180*%
%ADD792R,0.0003X0.0231*%
%ADD793R,0.0003X0.0141*%
%ADD794R,0.0003X0.0645*%
%ADD795R,0.0003X0.0219*%
%ADD796R,0.0003X0.0429*%
%ADD797R,0.0003X0.0348*%
%ADD798R,0.0003X0.0207*%
%ADD799R,0.0003X0.0477*%
%ADD800R,0.0003X0.0144*%
%ADD801R,0.0003X0.0132*%
%ADD802R,0.0003X0.0627*%
%ADD803R,0.0003X0.0423*%
%ADD804R,0.0003X0.0216*%
%ADD805R,0.0003X0.0228*%
%ADD806R,0.0003X0.0471*%
%ADD807R,0.0003X0.0126*%
%ADD808R,0.0003X0.0612*%
%ADD809R,0.0003X0.0201*%
%ADD810R,0.0003X0.0228*%
%ADD811R,0.0003X0.0123*%
%ADD812R,0.0003X0.0246*%
%ADD813R,0.0003X0.0468*%
%ADD814R,0.0003X0.0129*%
%ADD815R,0.0003X0.0231*%
%ADD816R,0.0003X0.0120*%
%ADD817R,0.0003X0.0597*%
%ADD818R,0.0003X0.0189*%
%ADD819R,0.0003X0.0417*%
%ADD820R,0.0003X0.0357*%
%ADD821R,0.0003X0.0132*%
%ADD822R,0.0003X0.0135*%
%ADD823R,0.0003X0.0246*%
%ADD824R,0.0003X0.0123*%
%ADD825R,0.0003X0.0117*%
%ADD826R,0.0003X0.0582*%
%ADD827R,0.0003X0.0411*%
%ADD828R,0.0003X0.0357*%
%ADD829R,0.0003X0.0264*%
%ADD830R,0.0003X0.0282*%
%ADD831R,0.0003X0.0456*%
%ADD832R,0.0003X0.0108*%
%ADD833R,0.0003X0.0177*%
%ADD834R,0.0003X0.0363*%
%ADD835R,0.0003X0.0273*%
%ADD836R,0.0003X0.0294*%
%ADD837R,0.0003X0.0453*%
%ADD838R,0.0003X0.0108*%
%ADD839R,0.0003X0.0102*%
%ADD840R,0.0003X0.0558*%
%ADD841R,0.0003X0.0405*%
%ADD842R,0.0003X0.0366*%
%ADD843R,0.0003X0.0306*%
%ADD844R,0.0003X0.0450*%
%ADD845R,0.0003X0.0096*%
%ADD846R,0.0003X0.0543*%
%ADD847R,0.0003X0.0165*%
%ADD848R,0.0003X0.0300*%
%ADD849R,0.0003X0.0321*%
%ADD850R,0.0003X0.0444*%
%ADD851R,0.0003X0.0099*%
%ADD852R,0.0003X0.0234*%
%ADD853R,0.0003X0.0090*%
%ADD854R,0.0003X0.0534*%
%ADD855R,0.0003X0.0162*%
%ADD856R,0.0003X0.0399*%
%ADD857R,0.0003X0.0372*%
%ADD858R,0.0003X0.0312*%
%ADD859R,0.0003X0.0114*%
%ADD860R,0.0003X0.0333*%
%ADD861R,0.0003X0.0093*%
%ADD862R,0.0003X0.0087*%
%ADD863R,0.0003X0.0153*%
%ADD864R,0.0003X0.0393*%
%ADD865R,0.0003X0.0375*%
%ADD866R,0.0003X0.0321*%
%ADD867R,0.0003X0.0441*%
%ADD868R,0.0003X0.0081*%
%ADD869R,0.0003X0.0330*%
%ADD870R,0.0003X0.0435*%
%ADD871R,0.0003X0.0237*%
%ADD872R,0.0003X0.0078*%
%ADD873R,0.0003X0.0501*%
%ADD874R,0.0003X0.0147*%
%ADD875R,0.0003X0.0387*%
%ADD876R,0.0003X0.0381*%
%ADD877R,0.0003X0.0342*%
%ADD878R,0.0003X0.0078*%
%ADD879R,0.0003X0.0072*%
%ADD880R,0.0003X0.0384*%
%ADD881R,0.0003X0.0351*%
%ADD882R,0.0003X0.0432*%
%ADD883R,0.0003X0.0075*%
%ADD884R,0.0003X0.0237*%
%ADD885R,0.0003X0.0069*%
%ADD886R,0.0003X0.0483*%
%ADD887R,0.0003X0.0381*%
%ADD888R,0.0003X0.0384*%
%ADD889R,0.0003X0.0360*%
%ADD890R,0.0003X0.0387*%
%ADD891R,0.0003X0.0069*%
%ADD892R,0.0003X0.0066*%
%ADD893R,0.0003X0.0471*%
%ADD894R,0.0003X0.0369*%
%ADD895R,0.0003X0.0396*%
%ADD896R,0.0003X0.0063*%
%ADD897R,0.0003X0.0465*%
%ADD898R,0.0003X0.0057*%
%ADD899R,0.0003X0.0456*%
%ADD900R,0.0003X0.0156*%
%ADD901R,0.0003X0.0414*%
%ADD902R,0.0003X0.0054*%
%ADD903R,0.0003X0.0447*%
%ADD904R,0.0003X0.0159*%
%ADD905R,0.0003X0.0399*%
%ADD906R,0.0003X0.0423*%
%ADD907R,0.0003X0.0054*%
%ADD908R,0.0003X0.0051*%
%ADD909R,0.0003X0.0441*%
%ADD910R,0.0003X0.0159*%
%ADD911R,0.0003X0.0402*%
%ADD912R,0.0003X0.0429*%
%ADD913R,0.0003X0.0051*%
%ADD914R,0.0003X0.0240*%
%ADD915R,0.0003X0.0048*%
%ADD916R,0.0003X0.0432*%
%ADD917R,0.0003X0.0408*%
%ADD918R,0.0003X0.0417*%
%ADD919R,0.0003X0.0045*%
%ADD920R,0.0003X0.0168*%
%ADD921R,0.0003X0.0444*%
%ADD922R,0.0003X0.0042*%
%ADD923R,0.0003X0.0417*%
%ADD924R,0.0003X0.0414*%
%ADD925R,0.0003X0.0039*%
%ADD926R,0.0003X0.0426*%
%ADD927R,0.0003X0.0459*%
%ADD928R,0.0003X0.0411*%
%ADD929R,0.0003X0.0039*%
%ADD930R,0.0003X0.0240*%
%ADD931R,0.0003X0.0036*%
%ADD932R,0.0003X0.0177*%
%ADD933R,0.0003X0.0339*%
%ADD934R,0.0003X0.0432*%
%ADD935R,0.0003X0.0465*%
%ADD936R,0.0003X0.0033*%
%ADD937R,0.0003X0.0033*%
%ADD938R,0.0003X0.0396*%
%ADD939R,0.0003X0.0336*%
%ADD940R,0.0003X0.0030*%
%ADD941R,0.0003X0.0027*%
%ADD942R,0.0003X0.0027*%
%ADD943R,0.0003X0.0384*%
%ADD944R,0.0003X0.0186*%
%ADD945R,0.0003X0.0411*%
%ADD946R,0.0003X0.0024*%
%ADD947R,0.0003X0.0024*%
%ADD948R,0.0003X0.0378*%
%ADD949R,0.0003X0.0189*%
%ADD950R,0.0003X0.0492*%
%ADD951R,0.0003X0.0408*%
%ADD952R,0.0003X0.0021*%
%ADD953R,0.0003X0.0021*%
%ADD954R,0.0003X0.0189*%
%ADD955R,0.0003X0.0321*%
%ADD956R,0.0003X0.0219*%
%ADD957R,0.0003X0.0174*%
%ADD958R,0.0003X0.0498*%
%ADD959R,0.0003X0.0018*%
%ADD960R,0.0003X0.0018*%
%ADD961R,0.0003X0.0366*%
%ADD962R,0.0003X0.0192*%
%ADD963R,0.0003X0.0318*%
%ADD964R,0.0003X0.0207*%
%ADD965R,0.0003X0.0015*%
%ADD966R,0.0003X0.0360*%
%ADD967R,0.0003X0.0096*%
%ADD968R,0.0003X0.0315*%
%ADD969R,0.0003X0.0198*%
%ADD970R,0.0003X0.0249*%
%ADD971R,0.0003X0.0012*%
%ADD972R,0.0003X0.0090*%
%ADD973R,0.0003X0.0309*%
%ADD974R,0.0003X0.0009*%
%ADD975R,0.0003X0.0111*%
%ADD976R,0.0003X0.0405*%
%ADD977R,0.0003X0.0006*%
%ADD978R,0.0003X0.0009*%
%ADD979R,0.0003X0.0138*%
%ADD980R,0.0003X0.0342*%
%ADD981R,0.0003X0.0207*%
%ADD982R,0.0003X0.0207*%
%ADD983R,0.0003X0.0303*%
%ADD984R,0.0003X0.0447*%
%ADD985R,0.0003X0.0180*%
%ADD986R,0.0003X0.0129*%
%ADD987R,0.0003X0.0213*%
%ADD988R,0.0003X0.0162*%
%ADD989R,0.0003X0.0003*%
%ADD990R,0.0003X0.0009*%
%ADD991R,0.0003X0.0339*%
%ADD992R,0.0003X0.0234*%
%ADD993R,0.0003X0.0447*%
%ADD994R,0.0003X0.0123*%
%ADD995R,0.0003X0.0006*%
%ADD996R,0.0003X0.0252*%
%ADD997R,0.0003X0.0210*%
%ADD998R,0.0003X0.0174*%
%ADD999R,0.0003X0.0117*%
%ADD1000R,0.0003X0.0144*%
%ADD1001R,0.0003X0.0399*%
%ADD1002R,0.0003X0.0183*%
%ADD1003R,0.0003X0.0243*%
%ADD1004R,0.0003X0.0003*%
%ADD1005R,0.0003X0.0270*%
%ADD1006R,0.0003X0.0213*%
%ADD1007R,0.0003X0.0291*%
%ADD1008R,0.0003X0.0138*%
%ADD1009R,0.0003X0.0324*%
%ADD1010R,0.0003X0.0291*%
%ADD1011R,0.0003X0.0288*%
%ADD1012R,0.0003X0.0111*%
%ADD1013R,0.0003X0.0399*%
%ADD1014R,0.0003X0.0204*%
%ADD1015R,0.0003X0.0243*%
%ADD1016R,0.0003X0.0318*%
%ADD1017R,0.0003X0.0285*%
%ADD1018R,0.0003X0.0459*%
%ADD1019R,0.0003X0.0165*%
%ADD1020R,0.0003X0.0312*%
%ADD1021R,0.0003X0.0222*%
%ADD1022R,0.0003X0.0279*%
%ADD1023R,0.0003X0.0126*%
%ADD1024R,0.0003X0.0276*%
%ADD1025R,0.0003X0.0231*%
%ADD1026R,0.0003X0.0225*%
%ADD1027R,0.0003X0.0468*%
%ADD1028R,0.0003X0.0159*%
%ADD1029R,0.0003X0.0177*%
%ADD1030R,0.0003X0.0267*%
%ADD1031R,0.0003X0.0114*%
%ADD1032R,0.0003X0.0297*%
%ADD1033R,0.0003X0.0375*%
%ADD1034R,0.0003X0.0474*%
%ADD1035R,0.0003X0.0216*%
%ADD1036R,0.0003X0.0174*%
%ADD1037R,0.0003X0.0249*%
%ADD1038R,0.0003X0.0621*%
%ADD1039R,0.0003X0.0261*%
%ADD1040R,0.0003X0.0282*%
%ADD1041R,0.0003X0.0630*%
%ADD1042R,0.0003X0.0258*%
%ADD1043R,0.0003X0.0633*%
%ADD1044R,0.0003X0.0483*%
%ADD1045R,0.0003X0.0204*%
%ADD1046R,0.0003X0.0639*%
%ADD1047R,0.0003X0.0486*%
%ADD1048R,0.0003X0.0201*%
%ADD1049R,0.0003X0.0396*%
%ADD1050R,0.0003X0.0270*%
%ADD1051R,0.0003X0.0276*%
%ADD1052R,0.0003X0.0648*%
%ADD1053R,0.0003X0.0246*%
%ADD1054R,0.0003X0.0486*%
%ADD1055R,0.0003X0.0150*%
%ADD1056R,0.0003X0.0198*%
%ADD1057R,0.0003X0.0228*%
%ADD1058R,0.0003X0.0276*%
%ADD1059R,0.0003X0.0309*%
%ADD1060R,0.0003X0.0651*%
%ADD1061R,0.0003X0.0147*%
%ADD1062R,0.0003X0.0657*%
%ADD1063R,0.0003X0.0495*%
%ADD1064R,0.0003X0.0324*%
%ADD1065R,0.0003X0.0663*%
%ADD1066R,0.0003X0.0669*%
%ADD1067R,0.0003X0.0498*%
%ADD1068R,0.0003X0.0213*%
%ADD1069R,0.0003X0.0396*%
%ADD1070R,0.0003X0.0294*%
%ADD1071R,0.0003X0.0255*%
%ADD1072R,0.0003X0.0672*%
%ADD1073R,0.0003X0.0228*%
%ADD1074R,0.0003X0.0501*%
%ADD1075R,0.0003X0.0183*%
%ADD1076R,0.0003X0.0339*%
%ADD1077R,0.0003X0.0678*%
%ADD1078R,0.0003X0.0507*%
%ADD1079R,0.0003X0.0351*%
%ADD1080R,0.0003X0.0687*%
%ADD1081R,0.0003X0.0216*%
%ADD1082R,0.0003X0.0510*%
%ADD1083R,0.0003X0.0156*%
%ADD1084R,0.0003X0.0693*%
%ADD1085R,0.0003X0.0312*%
%ADD1086R,0.0003X0.0696*%
%ADD1087R,0.0003X0.0516*%
%ADD1088R,0.0003X0.0144*%
%ADD1089R,0.0003X0.0171*%
%ADD1090R,0.0003X0.0195*%
%ADD1091R,0.0003X0.0153*%
%ADD1092R,0.0003X0.0312*%
%ADD1093R,0.0003X0.0702*%
%ADD1094R,0.0003X0.0519*%
%ADD1095R,0.0003X0.0141*%
%ADD1096R,0.0003X0.0168*%
%ADD1097R,0.0003X0.0369*%
%ADD1098R,0.0003X0.0318*%
%ADD1099R,0.0003X0.0714*%
%ADD1100R,0.0003X0.0525*%
%ADD1101R,0.0003X0.0324*%
%ADD1102R,0.0003X0.0381*%
%ADD1103R,0.0003X0.0225*%
%ADD1104R,0.0003X0.0720*%
%ADD1105R,0.0003X0.0186*%
%ADD1106R,0.0003X0.0528*%
%ADD1107R,0.0003X0.0141*%
%ADD1108R,0.0003X0.0723*%
%ADD1109R,0.0003X0.0531*%
%ADD1110R,0.0003X0.0729*%
%ADD1111R,0.0003X0.0732*%
%ADD1112R,0.0003X0.0537*%
%ADD1113R,0.0003X0.0138*%
%ADD1114R,0.0003X0.0153*%
%ADD1115R,0.0003X0.0738*%
%ADD1116R,0.0003X0.0540*%
%ADD1117R,0.0003X0.0741*%
%ADD1118R,0.0003X0.0168*%
%ADD1119R,0.0003X0.0543*%
%ADD1120R,0.0003X0.0171*%
%ADD1121R,0.0003X0.0336*%
%ADD1122R,0.0003X0.0744*%
%ADD1123R,0.0003X0.0543*%
%ADD1124R,0.0003X0.0750*%
%ADD1125R,0.0003X0.0549*%
%ADD1126R,0.0003X0.0204*%
%ADD1127R,0.0003X0.0552*%
%ADD1128R,0.0003X0.0201*%
%ADD1129R,0.0003X0.0762*%
%ADD1130R,0.0003X0.0558*%
%ADD1131R,0.0003X0.0162*%
%ADD1132R,0.0003X0.0147*%
%ADD1133R,0.0003X0.0768*%
%ADD1134R,0.0003X0.0771*%
%ADD1135R,0.0003X0.0564*%
%ADD1136R,0.0003X0.0429*%
%ADD1137R,0.0003X0.0774*%
%ADD1138R,0.0003X0.0567*%
%ADD1139R,0.0003X0.0348*%
%ADD1140R,0.0003X0.0777*%
%ADD1141R,0.0003X0.0570*%
%ADD1142R,0.0003X0.0138*%
%ADD1143R,0.0003X0.0783*%
%ADD1144R,0.0003X0.0129*%
%ADD1145R,0.0003X0.0573*%
%ADD1146R,0.0003X0.0576*%
%ADD1147R,0.0003X0.0441*%
%ADD1148R,0.0003X0.0786*%
%ADD1149R,0.0003X0.0579*%
%ADD1150R,0.0003X0.0414*%
%ADD1151R,0.0003X0.0351*%
%ADD1152R,0.0003X0.0444*%
%ADD1153R,0.0003X0.0792*%
%ADD1154R,0.0003X0.0582*%
%ADD1155R,0.0003X0.0801*%
%ADD1156R,0.0003X0.0588*%
%ADD1157R,0.0003X0.0807*%
%ADD1158R,0.0003X0.0099*%
%ADD1159R,0.0003X0.0594*%
%ADD1160R,0.0003X0.0354*%
%ADD1161R,0.0003X0.0456*%
%ADD1162R,0.0003X0.0810*%
%ADD1163R,0.0003X0.0096*%
%ADD1164R,0.0003X0.0144*%
%ADD1165R,0.0003X0.0813*%
%ADD1166R,0.0003X0.0597*%
%ADD1167R,0.0003X0.0816*%
%ADD1168R,0.0003X0.0600*%
%ADD1169R,0.0003X0.0603*%
%ADD1170R,0.0003X0.0081*%
%ADD1171R,0.0003X0.0606*%
%ADD1172R,0.0003X0.0351*%
%ADD1173R,0.0003X0.0825*%
%ADD1174R,0.0003X0.0078*%
%ADD1175R,0.0003X0.0609*%
%ADD1176R,0.0003X0.0141*%
%ADD1177R,0.0003X0.0075*%
%ADD1178R,0.0003X0.0348*%
%ADD1179R,0.0003X0.0831*%
%ADD1180R,0.0003X0.0066*%
%ADD1181R,0.0003X0.0615*%
%ADD1182R,0.0003X0.0837*%
%ADD1183R,0.0003X0.0618*%
%ADD1184R,0.0003X0.0429*%
%ADD1185R,0.0003X0.0345*%
%ADD1186R,0.0003X0.0471*%
%ADD1187R,0.0003X0.0156*%
%ADD1188R,0.0003X0.0840*%
%ADD1189R,0.0003X0.0060*%
%ADD1190R,0.0003X0.0621*%
%ADD1191R,0.0003X0.0840*%
%ADD1192R,0.0003X0.0624*%
%ADD1193R,0.0003X0.0846*%
%ADD1194R,0.0003X0.0051*%
%ADD1195R,0.0003X0.0474*%
%ADD1196R,0.0003X0.0849*%
%ADD1197R,0.0003X0.0435*%
%ADD1198R,0.0003X0.0474*%
%ADD1199R,0.0003X0.0852*%
%ADD1200R,0.0003X0.0042*%
%ADD1201R,0.0003X0.0636*%
%ADD1202R,0.0003X0.0636*%
%ADD1203R,0.0003X0.0132*%
%ADD1204R,0.0003X0.0477*%
%ADD1205R,0.0003X0.0861*%
%ADD1206R,0.0003X0.0642*%
%ADD1207R,0.0003X0.0333*%
%ADD1208R,0.0003X0.0480*%
%ADD1209R,0.0003X0.0864*%
%ADD1210R,0.0003X0.0024*%
%ADD1211R,0.0003X0.0645*%
%ADD1212R,0.0003X0.0132*%
%ADD1213R,0.0003X0.0333*%
%ADD1214R,0.0003X0.0867*%
%ADD1215R,0.0003X0.0021*%
%ADD1216R,0.0003X0.0483*%
%ADD1217R,0.0003X0.0873*%
%ADD1218R,0.0003X0.0654*%
%ADD1219R,0.0003X0.0876*%
%ADD1220R,0.0003X0.0453*%
%ADD1221R,0.0003X0.0879*%
%ADD1222R,0.0003X0.0657*%
%ADD1223R,0.0003X0.0879*%
%ADD1224R,0.0003X0.0006*%
%ADD1225R,0.0003X0.0660*%
%ADD1226R,0.0003X0.0882*%
%ADD1227R,0.0003X0.0888*%
%ADD1228R,0.0003X0.0669*%
%ADD1229R,0.0003X0.0459*%
%ADD1230R,0.0003X0.0486*%
%ADD1231R,0.0003X0.0891*%
%ADD1232R,0.0003X0.0891*%
%ADD1233R,0.0003X0.0672*%
%ADD1234R,0.0003X0.0306*%
%ADD1235R,0.0003X0.0303*%
%ADD1236R,0.0003X0.0897*%
%ADD1237R,0.0003X0.0900*%
%ADD1238R,0.0003X0.0684*%
%ADD1239R,0.0003X0.0474*%
%ADD1240R,0.0003X0.0903*%
%ADD1241R,0.0003X0.0288*%
%ADD1242R,0.0003X0.0906*%
%ADD1243R,0.0003X0.0690*%
%ADD1244R,0.0003X0.0909*%
%ADD1245R,0.0003X0.0489*%
%ADD1246R,0.0003X0.0912*%
%ADD1247R,0.0003X0.0693*%
%ADD1248R,0.0003X0.0912*%
%ADD1249R,0.0003X0.0696*%
%ADD1250R,0.0003X0.0489*%
%ADD1251R,0.0003X0.0264*%
%ADD1252R,0.0003X0.0918*%
%ADD1253R,0.0003X0.0699*%
%ADD1254R,0.0003X0.0258*%
%ADD1255R,0.0003X0.0921*%
%ADD1256R,0.0003X0.0702*%
%ADD1257R,0.0003X0.0924*%
%ADD1258R,0.0003X0.0705*%
%ADD1259R,0.0003X0.0927*%
%ADD1260R,0.0003X0.0192*%
%ADD1261R,0.0003X0.0513*%
%ADD1262R,0.0003X0.0717*%
%ADD1263R,0.0003X0.0519*%
%ADD1264R,0.0003X0.0522*%
%ADD1265R,0.0003X0.0531*%
%ADD1266R,0.0003X0.0366*%
%ADD1267R,0.0003X0.0729*%
%ADD1268R,0.0003X0.0243*%
%ADD1269R,0.0003X0.0534*%
%ADD1270R,0.0003X0.0279*%
%ADD1271R,0.0003X0.0552*%
%ADD1272R,0.0003X0.0540*%
%ADD1273R,0.0003X0.0354*%
%ADD1274R,0.0003X0.0564*%
%ADD1275R,0.0003X0.0528*%
%ADD1276R,0.0003X0.0723*%
%ADD1277R,0.0003X0.0573*%
%ADD1278R,0.0003X0.0720*%
%ADD1279R,0.0003X0.0717*%
%ADD1280R,0.0003X0.0507*%
%ADD1281R,0.0003X0.0588*%
%ADD1282R,0.0003X0.0714*%
%ADD1283R,0.0003X0.0501*%
%ADD1284R,0.0003X0.0603*%
%ADD1285R,0.0003X0.0711*%
%ADD1286R,0.0003X0.0621*%
%ADD1287R,0.0003X0.0327*%
%ADD1288R,0.0003X0.0702*%
%ADD1289R,0.0003X0.0450*%
%ADD1290R,0.0003X0.0699*%
%ADD1291R,0.0003X0.0696*%
%ADD1292R,0.0003X0.0423*%
%ADD1293R,0.0003X0.0678*%
%ADD1294R,0.0003X0.0690*%
%ADD1295R,0.0003X0.0711*%
%ADD1296R,0.0003X0.0684*%
%ADD1297R,0.0003X0.0681*%
%ADD1298R,0.0003X0.0738*%
%ADD1299R,0.0003X0.0309*%
%ADD1300R,0.0003X0.0681*%
%ADD1301R,0.0003X0.0336*%
%ADD1302R,0.0003X0.0753*%
%ADD1303R,0.0003X0.0774*%
%ADD1304R,0.0003X0.0789*%
%ADD1305R,0.0003X0.0819*%
%ADD1306R,0.0003X0.0477*%
%ADD1307R,0.0003X0.0438*%
%ADD1308R,0.0003X0.0300*%
%ADD1309R,0.0003X0.0018*%
%ADD1310R,0.0003X0.0933*%
%ADD1311R,0.0003X0.0021*%
%ADD1312R,0.0003X0.0294*%
%ADD1313R,0.0003X0.0933*%
%ADD1314R,0.0003X0.0291*%
%ADD1315R,0.0003X0.0033*%
%ADD1316R,0.0003X0.0663*%
%ADD1317R,0.0003X0.0039*%
%ADD1318R,0.0003X0.0048*%
%ADD1319R,0.0003X0.0462*%
%ADD1320R,0.0003X0.0651*%
%ADD1321R,0.0003X0.0648*%
%ADD1322R,0.0003X0.0246*%
%ADD1323R,0.0003X0.0453*%
%ADD1324R,0.0003X0.0420*%
%ADD1325R,0.0003X0.0069*%
%ADD1326R,0.0003X0.0639*%
%ADD1327R,0.0003X0.0087*%
%ADD1328R,0.0003X0.0630*%
%ADD1329R,0.0003X0.0624*%
%ADD1330R,0.0003X0.0099*%
%ADD1331R,0.0003X0.0930*%
%ADD1332R,0.0003X0.0249*%
%ADD1333R,0.0003X0.0426*%
%ADD1334R,0.0003X0.0186*%
%ADD1335R,0.0003X0.0108*%
%ADD1336R,0.0003X0.0927*%
%ADD1337R,0.0003X0.0252*%
%ADD1338R,0.0003X0.0414*%
%ADD1339R,0.0003X0.0393*%
%ADD1340R,0.0003X0.0258*%
%ADD1341R,0.0003X0.0126*%
%ADD1342R,0.0003X0.0609*%
%ADD1343R,0.0003X0.0129*%
%ADD1344R,0.0003X0.0606*%
%ADD1345R,0.0003X0.0252*%
%ADD1346R,0.0003X0.0921*%
%ADD1347R,0.0003X0.0378*%
%ADD1348R,0.0003X0.0153*%
%ADD1349R,0.0003X0.0393*%
%ADD1350R,0.0003X0.0378*%
%ADD1351R,0.0003X0.0372*%
%ADD1352R,0.0003X0.0591*%
%ADD1353R,0.0003X0.0915*%
%ADD1354R,0.0003X0.0258*%
%ADD1355R,0.0003X0.0378*%
%ADD1356R,0.0003X0.0222*%
%ADD1357R,0.0003X0.0588*%
%ADD1358R,0.0003X0.0183*%
%ADD1359R,0.0003X0.0915*%
%ADD1360R,0.0003X0.0189*%
%ADD1361R,0.0003X0.0912*%
%ADD1362R,0.0003X0.0363*%
%ADD1363R,0.0003X0.0261*%
%ADD1364R,0.0003X0.0909*%
%ADD1365R,0.0003X0.0261*%
%ADD1366R,0.0003X0.0357*%
%ADD1367R,0.0003X0.0576*%
%ADD1368R,0.0003X0.0909*%
%ADD1369R,0.0003X0.0567*%
%ADD1370R,0.0003X0.0264*%
%ADD1371R,0.0003X0.0327*%
%ADD1372R,0.0003X0.0564*%
%ADD1373R,0.0003X0.0198*%
%ADD1374R,0.0003X0.0267*%
%ADD1375R,0.0003X0.0558*%
%ADD1376R,0.0003X0.0267*%
%ADD1377R,0.0003X0.0297*%
%ADD1378R,0.0003X0.0552*%
%ADD1379R,0.0003X0.0237*%
%ADD1380R,0.0003X0.0531*%
%ADD1381R,0.0003X0.0342*%
%ADD1382R,0.0003X0.0273*%
%ADD1383R,0.0003X0.0261*%
%ADD1384R,0.0003X0.0288*%
%ADD1385R,0.0003X0.0102*%
%ADD1386R,0.0003X0.0537*%
%ADD1387R,0.0003X0.0012*%
%ADD1388R,0.0003X0.0519*%
%ADD1389R,0.0003X0.0282*%
%ADD1390R,0.0003X0.0282*%
%ADD1391R,0.0003X0.0015*%
%ADD1392R,0.0003X0.0309*%
%ADD1393R,0.0003X0.0234*%
%ADD1394R,0.0003X0.0042*%
%ADD1395R,0.0003X0.0117*%
%ADD1396R,0.0003X0.0192*%
%ADD1397R,0.0003X0.0513*%
%ADD1398R,0.0003X0.0222*%
%ADD1399R,0.0003X0.0027*%
%ADD1400R,0.0003X0.0084*%
%ADD1401R,0.0003X0.0297*%
%ADD1402R,0.0003X0.0087*%
%ADD1403R,0.0003X0.0036*%
%ADD1404R,0.0003X0.0504*%
%ADD1405R,0.0003X0.0039*%
%ADD1406R,0.0003X0.0507*%
%ADD1407R,0.0003X0.0252*%
%ADD1408R,0.0003X0.0504*%
%ADD1409R,0.0003X0.0057*%
%ADD1410R,0.0003X0.0507*%
%ADD1411R,0.0003X0.0402*%
%ADD1412R,0.0003X0.0408*%
%ADD1413R,0.0003X0.0492*%
%ADD1414R,0.0003X0.0324*%
%ADD1415R,0.0003X0.0072*%
%ADD1416R,0.0003X0.0336*%
%ADD1417R,0.0003X0.0501*%
%ADD1418R,0.0003X0.0432*%
%ADD1419R,0.0003X0.0339*%
%ADD1420R,0.0003X0.0471*%
%ADD1421R,0.0003X0.0093*%
%ADD1422R,0.0003X0.0528*%
%ADD1423R,0.0003X0.0111*%
%ADD1424R,0.0003X0.0366*%
%ADD1425R,0.0003X0.0561*%
%ADD1426R,0.0003X0.0384*%
%ADD1427R,0.0003X0.0279*%
%ADD1428R,0.0003X0.0276*%
%ADD1429R,0.0003X0.0306*%
%ADD1430R,0.0003X0.0579*%
%ADD1431R,0.0003X0.0606*%
%ADD1432R,0.0003X0.1452*%
%ADD1433R,0.0003X0.1458*%
%ADD1434R,0.0003X0.0756*%
%ADD1435R,0.0003X0.1467*%
%ADD1436R,0.0003X0.1479*%
%ADD1437R,0.0003X0.0804*%
%ADD1438R,0.0003X0.0681*%
%ADD1439R,0.0003X0.0846*%
%ADD1440R,0.0003X0.0756*%
%ADD1441R,0.0003X0.1509*%
%ADD1442R,0.0003X0.0045*%
%ADD1443R,0.0003X0.0051*%
%ADD1444R,0.0003X0.4113*%
%ADD1445R,0.0003X0.4110*%
%ADD1446R,0.0003X0.4110*%
%ADD1447R,0.0003X0.4107*%
%ADD1448R,0.0003X0.4104*%
%ADD1449R,0.0003X0.4104*%
%ADD1450R,0.0003X0.4101*%
%ADD1451R,0.0003X0.4098*%
%ADD1452R,0.0003X0.4098*%
%ADD1453R,0.0003X0.4095*%
%ADD1454R,0.0003X0.4095*%
%ADD1455R,0.0003X0.4092*%
%ADD1456R,0.0003X0.4089*%
%ADD1457R,0.0003X0.4089*%
%ADD1458R,0.0003X0.4086*%
%ADD1459R,0.0003X0.4083*%
%ADD1460R,0.0003X0.4083*%
%ADD1461R,0.0003X0.4080*%
%ADD1462R,0.0003X0.4077*%
%ADD1463R,0.0003X0.4077*%
%ADD1464R,0.0003X0.4074*%
%ADD1465R,0.0003X0.4071*%
%ADD1466R,0.0003X0.4071*%
%ADD1467R,0.0003X0.4068*%
%ADD1468R,0.0003X0.4065*%
%ADD1469R,0.0003X0.4062*%
%ADD1470R,0.0003X0.4062*%
%ADD1471R,0.0003X0.4059*%
%ADD1472R,0.0003X0.4056*%
%ADD1473R,0.0003X0.4056*%
%ADD1474R,0.0003X0.4053*%
%ADD1475R,0.0003X0.4050*%
%ADD1476R,0.0003X0.4050*%
%ADD1477R,0.0003X0.4047*%
%ADD1478R,0.0003X0.4044*%
%ADD1479R,0.0003X0.4041*%
%ADD1480R,0.0003X0.4041*%
%ADD1481R,0.0003X0.4038*%
%ADD1482R,0.0003X0.4035*%
%ADD1483R,0.0003X0.4035*%
%ADD1484R,0.0003X0.4032*%
%ADD1485R,0.0003X0.4029*%
%ADD1486R,0.0003X0.4026*%
%ADD1487R,0.0003X0.4026*%
%ADD1488R,0.0003X0.4023*%
%ADD1489R,0.0003X0.4020*%
%ADD1490R,0.0003X0.4017*%
%ADD1491R,0.0003X0.4017*%
%ADD1492R,0.0003X0.4014*%
%ADD1493R,0.0003X0.4011*%
%ADD1494R,0.0003X0.4011*%
%ADD1495R,0.0003X0.4008*%
%ADD1496R,0.0003X0.4005*%
%ADD1497R,0.0003X0.4002*%
%ADD1498R,0.0003X0.4002*%
%ADD1499R,0.0003X0.3999*%
%ADD1500R,0.0003X0.3996*%
%ADD1501R,0.0003X0.3993*%
%ADD1502R,0.0003X0.3993*%
%ADD1503R,0.0003X0.3990*%
%ADD1504R,0.0003X0.3987*%
%ADD1505R,0.0003X0.3984*%
%ADD1506R,0.0003X0.3984*%
%ADD1507R,0.0003X0.3981*%
%ADD1508R,0.0003X0.3978*%
%ADD1509R,0.0003X0.3975*%
%ADD1510R,0.0003X0.3975*%
%ADD1511R,0.0003X0.3972*%
%ADD1512R,0.0003X0.3969*%
%ADD1513R,0.0003X0.3966*%
%ADD1514R,0.0003X0.3963*%
%ADD1515R,0.0003X0.3963*%
%ADD1516R,0.0003X0.3960*%
%ADD1517R,0.0003X0.3957*%
%ADD1518R,0.0003X0.3954*%
%ADD1519R,0.0003X0.3951*%
%ADD1520R,0.0003X0.3948*%
%ADD1521R,0.0003X0.3945*%
%ADD1522R,0.0003X0.3945*%
%ADD1523R,0.0003X0.3942*%
%ADD1524R,0.0003X0.3939*%
%ADD1525R,0.0003X0.3936*%
%ADD1526R,0.0003X0.3933*%
%ADD1527R,0.0003X0.3930*%
%ADD1528R,0.0003X0.3927*%
%ADD1529R,0.0003X0.3924*%
%ADD1530R,0.0003X0.3921*%
%ADD1531R,0.0003X0.3918*%
%ADD1532R,0.0003X0.3915*%
%ADD1533R,0.0003X0.3912*%
%ADD1534R,0.0003X0.3909*%
%ADD1535R,0.0003X0.3906*%
%ADD1536R,0.0003X0.3903*%
%ADD1537R,0.0003X0.3900*%
%ADD1538R,0.0003X0.3900*%
%ADD1539R,0.0003X0.3897*%
%ADD1540R,0.0003X0.3894*%
%ADD1541R,0.0003X0.3891*%
%ADD1542R,0.0003X0.3888*%
%ADD1543R,0.0003X0.3885*%
%ADD1544R,0.0003X0.3882*%
%ADD1545R,0.0003X0.3879*%
%ADD1546R,0.0003X0.3879*%
%ADD1547R,0.0003X0.3876*%
%ADD1548R,0.0003X0.3873*%
%ADD1549R,0.0003X0.3870*%
%ADD1550R,0.0003X0.3867*%
%ADD1551R,0.0003X0.3864*%
%ADD1552R,0.0003X0.3861*%
%ADD1553R,0.0003X0.3858*%
%ADD1554R,0.0003X0.3855*%
%ADD1555R,0.0003X0.3852*%
%ADD1556R,0.0003X0.3849*%
%ADD1557R,0.0003X0.3846*%
%ADD1558R,0.0003X0.3843*%
%ADD1559R,0.0003X0.3840*%
%ADD1560R,0.0003X0.3840*%
%ADD1561R,0.0003X0.3837*%
%ADD1562R,0.0003X0.3834*%
%ADD1563R,0.0003X0.3831*%
%ADD1564R,0.0003X0.3828*%
%ADD1565R,0.0003X0.3825*%
%ADD1566R,0.0003X0.3822*%
%ADD1567R,0.0003X0.3819*%
%ADD1568R,0.0003X0.3816*%
%ADD1569R,0.0003X0.3813*%
%ADD1570R,0.0003X0.3810*%
%ADD1571R,0.0003X0.3807*%
%ADD1572R,0.0003X0.3804*%
%ADD1573R,0.0003X0.3804*%
%ADD1574R,0.0003X0.3801*%
%ADD1575R,0.0003X0.3798*%
%ADD1576R,0.0003X0.3795*%
%ADD1577R,0.0003X0.3792*%
%ADD1578R,0.0003X0.3789*%
%ADD1579R,0.0003X0.3786*%
%ADD1580R,0.0003X0.3783*%
%ADD1581R,0.0003X0.3780*%
%ADD1582R,0.0003X0.3777*%
%ADD1583R,0.0003X0.3774*%
%ADD1584R,0.0003X0.3771*%
%ADD1585R,0.0003X0.3768*%
%ADD1586R,0.0003X0.3762*%
%ADD1587R,0.0003X0.3762*%
%ADD1588R,0.0003X0.3759*%
%ADD1589R,0.0003X0.3756*%
%ADD1590R,0.0003X0.3753*%
%ADD1591R,0.0003X0.3750*%
%ADD1592R,0.0003X0.3747*%
%ADD1593R,0.0003X0.3744*%
%ADD1594R,0.0003X0.3741*%
%ADD1595R,0.0003X0.3738*%
%ADD1596R,0.0003X0.3735*%
%ADD1597R,0.0003X0.3732*%
%ADD1598R,0.0003X0.3729*%
%ADD1599R,0.0003X0.3726*%
%ADD1600R,0.0003X0.3723*%
%ADD1601R,0.0003X0.3720*%
%ADD1602R,0.0003X0.3717*%
%ADD1603R,0.0003X0.3714*%
%ADD1604R,0.0003X0.3711*%
%ADD1605R,0.0003X0.3708*%
%ADD1606R,0.0003X0.3705*%
%ADD1607R,0.0003X0.3702*%
%ADD1608R,0.0003X0.3696*%
%ADD1609R,0.0003X0.3690*%
%ADD1610R,0.0003X0.3687*%
%ADD1611R,0.0003X0.3684*%
%ADD1612R,0.0003X0.3681*%
%ADD1613R,0.0003X0.3678*%
%ADD1614R,0.0003X0.3675*%
%ADD1615R,0.0003X0.3672*%
%ADD1616R,0.0003X0.3669*%
%ADD1617R,0.0003X0.3666*%
%ADD1618R,0.0003X0.3663*%
%ADD1619R,0.0003X0.3660*%
%ADD1620R,0.0003X0.3657*%
%ADD1621R,0.0003X0.3654*%
%ADD1622R,0.0003X0.3648*%
%ADD1623R,0.0003X0.3645*%
%ADD1624R,0.0003X0.3642*%
%ADD1625R,0.0003X0.3639*%
%ADD1626R,0.0003X0.3636*%
%ADD1627R,0.0003X0.3630*%
%ADD1628R,0.0003X0.3618*%
%ADD1629R,0.0003X0.3612*%
%ADD1630R,0.0003X0.3609*%
%ADD1631R,0.0003X0.3606*%
%ADD1632R,0.0003X0.3603*%
%ADD1633R,0.0003X0.3600*%
%ADD1634R,0.0003X0.3594*%
%ADD1635R,0.0003X0.3591*%
%ADD1636R,0.0003X0.3588*%
%ADD1637R,0.0003X0.3585*%
%ADD1638R,0.0003X0.3582*%
%ADD1639R,0.0003X0.3576*%
%ADD1640R,0.0003X0.3570*%
%ADD1641R,0.0003X0.3564*%
%ADD1642R,0.0003X0.3558*%
%ADD1643R,0.0003X0.3552*%
%ADD1644R,0.0003X0.3549*%
%ADD1645R,0.0003X0.3546*%
%ADD1646R,0.0003X0.3540*%
%ADD1647R,0.0003X0.3534*%
%ADD1648R,0.0003X0.3528*%
%ADD1649R,0.0003X0.3522*%
%ADD1650R,0.0003X0.3519*%
%ADD1651R,0.0003X0.3510*%
%ADD1652R,0.0003X0.3504*%
%ADD1653R,0.0003X0.3498*%
%ADD1654R,0.0003X0.3492*%
%ADD1655R,0.0003X0.3486*%
%ADD1656R,0.0003X0.3480*%
%ADD1657R,0.0003X0.3474*%
%ADD1658R,0.0003X0.3471*%
%ADD1659R,0.0003X0.3468*%
%ADD1660R,0.0003X0.3462*%
%ADD1661R,0.0003X0.3459*%
%ADD1662R,0.0003X0.3456*%
%ADD1663R,0.0003X0.3450*%
%ADD1664R,0.0003X0.3447*%
%ADD1665R,0.0003X0.3444*%
%ADD1666R,0.0003X0.3438*%
%ADD1667R,0.0003X0.3429*%
%ADD1668R,0.0003X0.3426*%
%ADD1669R,0.0003X0.3414*%
%ADD1670R,0.0003X0.3408*%
%ADD1671R,0.0003X0.3402*%
%ADD1672R,0.0003X0.3396*%
%ADD1673R,0.0003X0.3393*%
%ADD1674R,0.0003X0.3390*%
%ADD1675R,0.0003X0.3384*%
%ADD1676R,0.0003X0.3381*%
%ADD1677R,0.0003X0.3375*%
%ADD1678R,0.0003X0.3372*%
%ADD1679R,0.0003X0.3366*%
%ADD1680R,0.0003X0.3357*%
%ADD1681R,0.0003X0.3354*%
%ADD1682R,0.0003X0.3348*%
%ADD1683R,0.0003X0.3345*%
%ADD1684R,0.0003X0.3339*%
%ADD1685R,0.0003X0.3336*%
%ADD1686R,0.0003X0.3321*%
%ADD1687R,0.0003X0.3318*%
%ADD1688R,0.0003X0.3312*%
%ADD1689R,0.0003X0.3309*%
%ADD1690R,0.0003X0.3303*%
%ADD1691R,0.0003X0.3294*%
%ADD1692R,0.0003X0.3291*%
%ADD1693R,0.0003X0.3285*%
%ADD1694R,0.0003X0.3282*%
%ADD1695R,0.0003X0.3276*%
%ADD1696R,0.0003X0.3267*%
%ADD1697R,0.0003X0.3261*%
%ADD1698R,0.0003X0.3258*%
%ADD1699R,0.0003X0.3252*%
%ADD1700R,0.0003X0.3246*%
%ADD1701R,0.0003X0.3243*%
%ADD1702R,0.0003X0.3237*%
%ADD1703R,0.0003X0.3231*%
%ADD1704R,0.0003X0.3228*%
%ADD1705R,0.0003X0.3222*%
%ADD1706R,0.0003X0.3219*%
%ADD1707R,0.0003X0.3213*%
%ADD1708R,0.0003X0.3207*%
%ADD1709R,0.0003X0.3204*%
%ADD1710R,0.0003X0.3198*%
%ADD1711R,0.0003X0.3192*%
%ADD1712R,0.0003X0.3189*%
%ADD1713R,0.0003X0.3183*%
%ADD1714R,0.0003X0.3177*%
%ADD1715R,0.0003X0.3174*%
%ADD1716R,0.0003X0.3168*%
%ADD1717R,0.0003X0.3162*%
%ADD1718R,0.0003X0.3156*%
%ADD1719R,0.0003X0.3153*%
%ADD1720R,0.0003X0.3147*%
%ADD1721R,0.0003X0.3141*%
%ADD1722R,0.0003X0.3135*%
%ADD1723R,0.0003X0.3132*%
%ADD1724R,0.0003X0.3126*%
%ADD1725R,0.0003X0.3114*%
%ADD1726R,0.0003X0.3108*%
%ADD1727R,0.0003X0.3105*%
%ADD1728R,0.0003X0.3099*%
%ADD1729R,0.0003X0.3093*%
%ADD1730R,0.0003X0.3087*%
%ADD1731R,0.0003X0.3084*%
%ADD1732R,0.0003X0.3078*%
%ADD1733R,0.0003X0.3072*%
%ADD1734R,0.0003X0.3066*%
%ADD1735R,0.0003X0.3054*%
%ADD1736R,0.0003X0.3051*%
%ADD1737R,0.0003X0.3045*%
%ADD1738R,0.0003X0.3039*%
%ADD1739R,0.0003X0.3033*%
%ADD1740R,0.0003X0.3027*%
%ADD1741R,0.0003X0.3021*%
%ADD1742R,0.0003X0.3015*%
%ADD1743R,0.0003X0.3009*%
%ADD1744R,0.0003X0.3003*%
%ADD1745R,0.0003X0.3000*%
%ADD1746R,0.0003X0.2994*%
%ADD1747R,0.0003X0.2988*%
%ADD1748R,0.0003X0.2982*%
%ADD1749R,0.0003X0.2976*%
%ADD1750R,0.0003X0.2964*%
%ADD1751R,0.0003X0.2958*%
%ADD1752R,0.0003X0.2952*%
%ADD1753R,0.0003X0.2946*%
%ADD1754R,0.0003X0.2934*%
%ADD1755R,0.0003X0.2928*%
%ADD1756R,0.0003X0.2922*%
%ADD1757R,0.0003X0.2916*%
%ADD1758R,0.0003X0.2904*%
%ADD1759R,0.0003X0.2892*%
%ADD1760R,0.0003X0.2883*%
%ADD1761R,0.0003X0.2877*%
%ADD1762R,0.0003X0.2871*%
%ADD1763R,0.0003X0.2865*%
%ADD1764R,0.0003X0.2859*%
%ADD1765R,0.0003X0.2853*%
%ADD1766R,0.0003X0.2847*%
%ADD1767R,0.0003X0.2838*%
%ADD1768R,0.0003X0.2832*%
%ADD1769R,0.0003X0.2826*%
%ADD1770R,0.0003X0.2820*%
%ADD1771R,0.0003X0.2814*%
%ADD1772R,0.0003X0.2808*%
%ADD1773R,0.0003X0.2802*%
%ADD1774R,0.0003X0.2793*%
%ADD1775R,0.0003X0.2787*%
%ADD1776R,0.0003X0.2781*%
%ADD1777R,0.0003X0.2766*%
%ADD1778R,0.0003X0.2760*%
%ADD1779R,0.0003X0.2754*%
%ADD1780R,0.0003X0.2748*%
%ADD1781R,0.0003X0.2739*%
%ADD1782R,0.0003X0.2733*%
%ADD1783R,0.0003X0.2727*%
%ADD1784R,0.0003X0.2718*%
%ADD1785R,0.0003X0.2712*%
%ADD1786R,0.0003X0.2706*%
%ADD1787R,0.0003X0.2697*%
%ADD1788R,0.0003X0.2691*%
%ADD1789R,0.0003X0.2676*%
%ADD1790R,0.0003X0.2670*%
%ADD1791R,0.0003X0.2664*%
%ADD1792R,0.0003X0.2649*%
%ADD1793R,0.0003X0.2634*%
%ADD1794R,0.0003X0.2625*%
%ADD1795R,0.0003X0.2619*%
%ADD1796R,0.0003X0.2589*%
%ADD1797R,0.0003X0.2559*%
%ADD1798R,0.0003X0.2526*%
%ADD1799R,0.0003X0.2502*%
%ADD1800R,0.0003X0.2496*%
%ADD1801R,0.0003X0.2472*%
%ADD1802R,0.0003X0.2463*%
%ADD1803R,0.0003X0.2454*%
%ADD1804R,0.0003X0.2445*%
%ADD1805R,0.0003X0.2439*%
%ADD1806R,0.0003X0.2430*%
%ADD1807R,0.0003X0.2421*%
%ADD1808R,0.0003X0.2415*%
%ADD1809R,0.0003X0.2406*%
%ADD1810R,0.0003X0.2397*%
%ADD1811R,0.0003X0.2388*%
%ADD1812R,0.0003X0.2379*%
%ADD1813R,0.0003X0.2370*%
%ADD1814R,0.0003X0.2361*%
%ADD1815R,0.0003X0.2352*%
%ADD1816R,0.0003X0.2343*%
%ADD1817R,0.0003X0.2337*%
%ADD1818R,0.0003X0.2328*%
%ADD1819R,0.0003X0.2316*%
%ADD1820R,0.0003X0.2298*%
%ADD1821R,0.0003X0.2289*%
%ADD1822R,0.0003X0.2271*%
%ADD1823R,0.0003X0.2262*%
%ADD1824R,0.0003X0.2253*%
%ADD1825R,0.0003X0.2244*%
%ADD1826R,0.0003X0.2235*%
%ADD1827R,0.0003X0.2226*%
%ADD1828R,0.0003X0.2217*%
%ADD1829R,0.0003X0.2208*%
%ADD1830R,0.0003X0.2196*%
%ADD1831R,0.0003X0.2187*%
%ADD1832R,0.0003X0.2178*%
%ADD1833R,0.0003X0.2169*%
%ADD1834R,0.0003X0.2157*%
%ADD1835R,0.0003X0.2148*%
%ADD1836R,0.0003X0.2139*%
%ADD1837R,0.0003X0.2127*%
%ADD1838R,0.0003X0.2118*%
%ADD1839R,0.0003X0.2109*%
%ADD1840R,0.0003X0.2097*%
%ADD1841R,0.0003X0.2088*%
%ADD1842R,0.0003X0.2076*%
%ADD1843R,0.0003X0.2067*%
%ADD1844R,0.0003X0.2055*%
%ADD1845R,0.0003X0.2046*%
%ADD1846R,0.0003X0.2034*%
%ADD1847R,0.0003X0.2022*%
%ADD1848R,0.0003X0.2013*%
%ADD1849R,0.0003X0.2001*%
%ADD1850R,0.0003X0.1992*%
%ADD1851R,0.0003X0.1968*%
%ADD1852R,0.0003X0.1956*%
%ADD1853R,0.0003X0.1947*%
%ADD1854R,0.0003X0.1935*%
%ADD1855R,0.0003X0.1923*%
%ADD1856R,0.0003X0.1911*%
%ADD1857R,0.0003X0.1902*%
%ADD1858R,0.0003X0.1890*%
%ADD1859R,0.0003X0.1878*%
%ADD1860R,0.0003X0.1866*%
%ADD1861R,0.0003X0.1854*%
%ADD1862R,0.0003X0.1842*%
%ADD1863R,0.0003X0.1830*%
%ADD1864R,0.0003X0.1791*%
%ADD1865R,0.0003X0.1779*%
%ADD1866R,0.0003X0.1764*%
%ADD1867R,0.0003X0.1752*%
%ADD1868R,0.0003X0.1725*%
%ADD1869R,0.0003X0.1716*%
%ADD1870R,0.0003X0.1701*%
%ADD1871R,0.0003X0.1686*%
%ADD1872R,0.0003X0.1674*%
%ADD1873R,0.0003X0.1659*%
%ADD1874R,0.0003X0.1644*%
%ADD1875R,0.0003X0.1632*%
%ADD1876R,0.0003X0.1617*%
%ADD1877R,0.0003X0.1602*%
%ADD1878R,0.0003X0.1590*%
%ADD1879R,0.0003X0.1572*%
%ADD1880R,0.0003X0.1530*%
%ADD1881R,0.0003X0.1512*%
%ADD1882R,0.0003X0.1500*%
%ADD1883R,0.0003X0.1482*%
%ADD1884R,0.0003X0.1452*%
%ADD1885R,0.0003X0.1434*%
%ADD1886R,0.0003X0.1416*%
%ADD1887R,0.0003X0.1404*%
%ADD1888R,0.0003X0.1383*%
%ADD1889R,0.0003X0.1365*%
%ADD1890R,0.0003X0.1332*%
%ADD1891R,0.0003X0.1314*%
%ADD1892R,0.0003X0.1296*%
%ADD1893R,0.0003X0.1278*%
%ADD1894R,0.0003X0.1257*%
%ADD1895R,0.0003X0.1242*%
%ADD1896R,0.0003X0.1218*%
%ADD1897R,0.0003X0.1200*%
%ADD1898R,0.0003X0.1182*%
%ADD1899R,0.0003X0.1119*%
%ADD1900R,0.0003X0.1053*%
%ADD1901R,0.0003X0.1026*%
%ADD1902R,0.0003X0.1002*%
%ADD1903R,0.0003X0.0978*%
%ADD1904R,0.0003X0.0951*%
%ADD1905R,0.0003X0.0924*%
%ADD1906R,0.0003X0.0870*%
%ADD1907R,0.0003X0.0843*%
%ADD1908R,0.0003X0.0642*%
%ADD1909R,0.0003X0.0510*%
%ADD1910R,0.0003X0.0108*%
D10*
X001231Y002647D02*
X001231Y002854D01*
X001334Y002750D02*
X001127Y002750D01*
X001127Y003647D02*
X001076Y003699D01*
X001076Y003802D01*
X001127Y003854D01*
X001127Y003647D02*
X001334Y003647D01*
X001386Y003699D01*
X001386Y003802D01*
X001334Y003854D01*
X001386Y004647D02*
X001076Y004647D01*
X001076Y004802D01*
X001127Y004854D01*
X001334Y004854D01*
X001386Y004802D01*
X001386Y004647D01*
X001231Y005647D02*
X001231Y005854D01*
X001231Y007447D02*
X001231Y007654D01*
X001334Y007550D02*
X001127Y007550D01*
X001127Y008447D02*
X001076Y008499D01*
X001076Y008602D01*
X001127Y008654D01*
X001334Y008654D02*
X001386Y008602D01*
X001386Y008499D01*
X001334Y008447D01*
X001127Y008447D01*
X001076Y009447D02*
X001076Y009602D01*
X001127Y009654D01*
X001334Y009654D01*
X001386Y009602D01*
X001386Y009447D01*
X001076Y009447D01*
X001231Y010447D02*
X001231Y010654D01*
X011187Y010482D02*
X011394Y010482D01*
X011291Y010585D02*
X011291Y010378D01*
X011291Y009585D02*
X011291Y009378D01*
X011291Y007785D02*
X011291Y007578D01*
X011394Y007682D02*
X011187Y007682D01*
X011291Y006785D02*
X011291Y006578D01*
X011291Y004985D02*
X011291Y004778D01*
X011394Y004882D02*
X011187Y004882D01*
X011291Y003985D02*
X011291Y003778D01*
D11*
X008708Y006870D03*
X005627Y007500D03*
D12*
X008705Y006870D03*
D13*
X008702Y006870D03*
X006356Y008040D03*
X006116Y005607D03*
X005798Y005598D03*
D14*
X005783Y005596D03*
X006134Y005605D03*
X005663Y004357D03*
X005669Y002506D03*
X006251Y002527D03*
X008699Y006868D03*
X005957Y008068D03*
D15*
X006296Y008221D03*
X005567Y007465D03*
X006143Y005605D03*
X005771Y005596D03*
X006254Y002650D03*
X006257Y002650D03*
X006263Y002650D03*
X006266Y002650D03*
X006269Y002650D03*
X006272Y002650D03*
X006278Y002650D03*
X006281Y002650D03*
X006284Y002650D03*
X006287Y002650D03*
X006293Y002650D03*
X006296Y002650D03*
X006299Y002650D03*
X006302Y002650D03*
X006323Y002653D03*
X006326Y002653D03*
X006329Y002653D03*
X006332Y002653D03*
X006338Y002653D03*
X006341Y002653D03*
X006344Y002653D03*
X006347Y002653D03*
X006377Y002656D03*
X006383Y002656D03*
X006266Y002509D03*
X005657Y002494D03*
X005528Y002269D03*
X008696Y006868D03*
D16*
X008693Y006868D03*
X006383Y008062D03*
X005558Y007459D03*
X005642Y007267D03*
X005894Y006817D03*
X005897Y006817D03*
X005903Y006817D03*
X005906Y006817D03*
X005909Y006817D03*
X005912Y006817D03*
X005918Y006817D03*
X005921Y006817D03*
X005924Y006817D03*
X005927Y006817D03*
X006026Y006820D03*
X005759Y005596D03*
X005828Y004489D03*
X005831Y004489D03*
X005834Y004489D03*
X005837Y004489D03*
X005843Y004489D03*
X005846Y004489D03*
X005849Y004489D03*
X005642Y004327D03*
X005804Y003910D03*
X005807Y003910D03*
X005822Y003907D03*
X005828Y003907D03*
X005831Y003907D03*
X005834Y003907D03*
X005837Y003907D03*
X005843Y003907D03*
X005846Y003907D03*
X005849Y003907D03*
X005852Y003904D03*
X005858Y003904D03*
X005861Y003904D03*
X005864Y003904D03*
X005867Y003904D03*
X005873Y003904D03*
X005876Y003904D03*
X005879Y003904D03*
X005882Y003904D03*
X005888Y003904D03*
X005891Y003904D03*
X005894Y003904D03*
X005897Y003904D03*
X005903Y003904D03*
X005906Y003904D03*
X005909Y003904D03*
X005912Y003904D03*
X005918Y003904D03*
X005921Y003904D03*
X005924Y003904D03*
X005927Y003904D03*
X005933Y003904D03*
X005936Y003904D03*
X005939Y003904D03*
X005942Y003904D03*
X005948Y003904D03*
X005951Y003904D03*
X005954Y003904D03*
X005957Y003904D03*
X005963Y003904D03*
X005966Y003904D03*
X005969Y003904D03*
X005972Y003904D03*
X005978Y003904D03*
X005981Y003904D03*
X005984Y003904D03*
X005987Y003904D03*
X005993Y003904D03*
X005996Y003904D03*
X005999Y003904D03*
X006002Y003904D03*
X006008Y003904D03*
X006011Y003904D03*
X006014Y003904D03*
X006017Y003904D03*
X006023Y003904D03*
X006026Y003904D03*
X006029Y003904D03*
X006032Y003904D03*
X006038Y003904D03*
X006041Y003904D03*
X006044Y003904D03*
X006047Y003904D03*
X006053Y003904D03*
X006056Y003904D03*
X006059Y003904D03*
X006062Y003904D03*
X006068Y003904D03*
X006071Y003904D03*
X006074Y003904D03*
X006077Y003904D03*
X006083Y003904D03*
X006086Y003904D03*
X006089Y003904D03*
X006092Y003904D03*
X006098Y003904D03*
X006101Y003904D03*
X006104Y003904D03*
X006107Y003904D03*
X006113Y003904D03*
X006116Y003904D03*
X006119Y003904D03*
X006122Y003904D03*
X006128Y003904D03*
X006131Y003904D03*
X006134Y003904D03*
X006137Y003904D03*
X006143Y003904D03*
X006146Y003904D03*
X006149Y003904D03*
X006152Y003904D03*
X006158Y003904D03*
X006161Y003904D03*
X006164Y003904D03*
X006167Y003904D03*
X006173Y003904D03*
X006176Y003904D03*
X006179Y003904D03*
X006182Y003904D03*
X006188Y003904D03*
X006191Y003904D03*
X006194Y003904D03*
X006197Y003904D03*
X006203Y003904D03*
X006206Y003904D03*
X006209Y003904D03*
X006212Y003904D03*
X006218Y003904D03*
X006221Y003904D03*
X006224Y003904D03*
X006227Y003904D03*
X006233Y003904D03*
X006236Y003904D03*
X006239Y003904D03*
X006242Y003904D03*
X006248Y003904D03*
X006251Y003904D03*
X006254Y003904D03*
X006257Y003904D03*
X006263Y003904D03*
X006266Y003904D03*
X006269Y003904D03*
X006272Y003904D03*
X006278Y003904D03*
X006281Y003904D03*
X006284Y003904D03*
X006287Y003904D03*
X006293Y003904D03*
X006296Y003904D03*
X006299Y003904D03*
X006302Y003904D03*
X006308Y003904D03*
X006311Y003904D03*
X006314Y003904D03*
X006317Y003904D03*
X006323Y003904D03*
X006326Y003904D03*
X006329Y003904D03*
X006332Y003904D03*
X006338Y003904D03*
X006341Y003904D03*
X006344Y003904D03*
X006347Y003904D03*
X006353Y003904D03*
X006356Y003904D03*
X006359Y003904D03*
X006362Y003904D03*
X006368Y003904D03*
X006371Y003904D03*
X006374Y003904D03*
X006377Y003904D03*
X006383Y003904D03*
X006143Y003565D03*
X006137Y003565D03*
X006134Y003565D03*
X006131Y003565D03*
X006128Y003565D03*
X006116Y003562D03*
X006113Y003562D03*
X006101Y003559D03*
X006098Y003559D03*
X006089Y003556D03*
X006293Y003187D03*
X006143Y003043D03*
X006137Y003043D03*
X006134Y003043D03*
X006131Y003043D03*
X006128Y003043D03*
X006122Y003043D03*
X005852Y003043D03*
X005849Y003043D03*
X005846Y003043D03*
X005843Y003043D03*
X005837Y003043D03*
X005834Y003043D03*
X005831Y003043D03*
X005828Y003043D03*
X005792Y003046D03*
X005759Y003052D03*
X005756Y003052D03*
X005747Y003055D03*
X005744Y003055D03*
X005732Y003058D03*
X005729Y003061D03*
X005726Y003061D03*
X005723Y003061D03*
X005717Y003064D03*
X005528Y003298D03*
X005846Y002638D03*
X005849Y002638D03*
X005852Y002638D03*
X005858Y002638D03*
X005861Y002638D03*
X005864Y002638D03*
X006083Y002638D03*
X006086Y002638D03*
X006089Y002638D03*
X006092Y002638D03*
X006098Y002638D03*
X006059Y001981D03*
X006017Y001975D03*
X006014Y001975D03*
X005966Y001972D03*
X005963Y001972D03*
X005957Y001972D03*
X005954Y001972D03*
X005951Y001972D03*
X006383Y004489D03*
D17*
X005735Y003928D03*
X006035Y003529D03*
X006230Y003553D03*
X006395Y003370D03*
X006185Y002026D03*
X005810Y001993D03*
X005795Y001999D03*
X006350Y006016D03*
X006080Y006820D03*
X006290Y008221D03*
X008690Y006868D03*
D18*
X008687Y006867D03*
X006179Y005607D03*
X005753Y004476D03*
X005684Y003957D03*
X005687Y003954D03*
X006008Y003504D03*
X006269Y003531D03*
X006272Y003528D03*
X006302Y003207D03*
X006206Y003057D03*
X006203Y003057D03*
X005657Y003102D03*
X005651Y003108D03*
X005633Y002454D03*
X005708Y002043D03*
X005717Y002037D03*
X006236Y002061D03*
X006239Y002064D03*
X006242Y002067D03*
X005822Y006816D03*
X005819Y006816D03*
X005546Y007446D03*
D19*
X006284Y008220D03*
X006323Y006012D03*
X006191Y005607D03*
X006188Y005607D03*
X005732Y004470D03*
X005663Y003975D03*
X005666Y003972D03*
X005642Y003120D03*
X006221Y003063D03*
X006257Y002082D03*
X008684Y006867D03*
D20*
X008681Y006867D03*
X006281Y007272D03*
X006197Y005607D03*
X005732Y002613D03*
X006272Y002100D03*
D21*
X005654Y002094D03*
X005717Y002607D03*
X006206Y005607D03*
X006209Y005607D03*
X006296Y006006D03*
X006299Y006006D03*
X008678Y006867D03*
D22*
X008675Y006867D03*
X006275Y007272D03*
X006230Y002604D03*
X005705Y002601D03*
D23*
X005639Y002118D03*
X006293Y002139D03*
X005684Y004446D03*
X006227Y005607D03*
X006197Y006819D03*
X006272Y007272D03*
X005981Y008127D03*
X008672Y006867D03*
D24*
X008669Y006867D03*
X006377Y007758D03*
X006374Y007758D03*
X006371Y007758D03*
X006368Y007758D03*
X006362Y007758D03*
X006359Y007758D03*
X006269Y007272D03*
X005723Y006813D03*
X005633Y006012D03*
X005648Y006003D03*
X005651Y006000D03*
X005654Y005997D03*
X005657Y005997D03*
X005669Y005988D03*
X005678Y005982D03*
X005681Y005598D03*
X006236Y005607D03*
X005546Y004140D03*
X005537Y003303D03*
X006272Y003093D03*
X005648Y008220D03*
D25*
X005714Y006814D03*
X005663Y006385D03*
X005597Y006040D03*
X005609Y006031D03*
X005717Y005959D03*
X005723Y005956D03*
X006218Y006820D03*
X008666Y006865D03*
D26*
X008663Y006865D03*
X006254Y008212D03*
X005747Y007768D03*
X005744Y007768D03*
X005741Y007768D03*
X005672Y007267D03*
X005702Y006814D03*
X005666Y006385D03*
X005576Y006061D03*
X005579Y006058D03*
X005753Y005941D03*
X005759Y005938D03*
D27*
X005780Y005928D03*
X006260Y005607D03*
X006260Y007272D03*
X008660Y006867D03*
X006380Y002295D03*
D28*
X005651Y005596D03*
X005798Y005920D03*
X005801Y005920D03*
X006242Y006820D03*
X006257Y007273D03*
X005681Y007780D03*
X005678Y007780D03*
X005657Y008224D03*
X008657Y006865D03*
D29*
X008654Y006865D03*
X006254Y006820D03*
X005684Y007267D03*
X005654Y007786D03*
X006011Y008158D03*
X006236Y008209D03*
X005549Y006094D03*
X005828Y005908D03*
X006371Y003367D03*
D30*
X006284Y005605D03*
X005849Y005899D03*
X005669Y006811D03*
X006227Y008206D03*
X008651Y006865D03*
D31*
X008648Y006865D03*
X006266Y006820D03*
X005858Y005896D03*
X005624Y007798D03*
X005621Y007798D03*
X006221Y008206D03*
D32*
X008645Y006865D03*
D33*
X008642Y006865D03*
X006281Y006820D03*
X006233Y007273D03*
X005648Y006811D03*
X005897Y005881D03*
X005609Y005596D03*
X006308Y005605D03*
X005594Y007810D03*
X006053Y008179D03*
X006197Y008203D03*
D34*
X006188Y008200D03*
X005678Y008233D03*
X005591Y007813D03*
X006284Y006820D03*
X005708Y006388D03*
X005906Y005878D03*
X005909Y005878D03*
X006314Y005605D03*
X005948Y003355D03*
X003776Y006868D03*
X008639Y006865D03*
D35*
X008636Y006865D03*
X006323Y005605D03*
X005927Y005872D03*
X005924Y005872D03*
X005717Y006388D03*
X005636Y006811D03*
X005714Y007267D03*
X006224Y007273D03*
X005579Y007819D03*
X006089Y008188D03*
X006092Y008188D03*
X006158Y008197D03*
X006161Y008197D03*
X006164Y008197D03*
X006167Y008197D03*
X006362Y002293D03*
X005564Y002275D03*
D36*
X005567Y002274D03*
X006383Y005064D03*
X005981Y005871D03*
X006296Y006819D03*
X005573Y007824D03*
X008633Y006864D03*
D37*
X008630Y006865D03*
X006215Y007273D03*
D38*
X005732Y007269D03*
X005561Y007833D03*
X005573Y005598D03*
X005576Y005598D03*
X008627Y006864D03*
D39*
X008624Y006865D03*
X006353Y005605D03*
X005567Y005599D03*
X005738Y007267D03*
D40*
X005744Y007269D03*
X005552Y007842D03*
X006314Y006819D03*
X005762Y006390D03*
X005561Y005598D03*
X005558Y005598D03*
X006347Y005070D03*
X006338Y003363D03*
X005882Y003171D03*
X008621Y006864D03*
D41*
X008618Y006864D03*
X006332Y005073D03*
X005594Y004143D03*
X006344Y002292D03*
X005777Y006393D03*
X005756Y007269D03*
X005546Y007848D03*
X006173Y008709D03*
X006176Y008709D03*
X006179Y008709D03*
X006182Y008709D03*
X006188Y008706D03*
X006191Y008706D03*
X006194Y008706D03*
X006278Y008682D03*
X006284Y008679D03*
X006287Y008679D03*
X006293Y008676D03*
D42*
X006155Y008712D03*
X008615Y006864D03*
D43*
X008612Y006864D03*
X006332Y008655D03*
X006116Y008715D03*
X005771Y007269D03*
X005804Y006393D03*
X005807Y006393D03*
X006314Y005076D03*
X006317Y005076D03*
X006326Y003363D03*
X006338Y002292D03*
X005588Y002274D03*
D44*
X006308Y005076D03*
X006311Y005076D03*
X006329Y006819D03*
X005777Y007269D03*
X006341Y008649D03*
X008609Y006864D03*
D45*
X008606Y006864D03*
X006296Y005079D03*
X005546Y005028D03*
X005543Y005028D03*
X005849Y006396D03*
X005852Y006396D03*
X005858Y006396D03*
X005861Y006396D03*
X005792Y007269D03*
X006149Y007272D03*
X006074Y008712D03*
X006332Y002292D03*
X005594Y002274D03*
D46*
X005597Y002274D03*
X005879Y006399D03*
X005882Y006399D03*
X005801Y007269D03*
X005798Y007269D03*
X006362Y008634D03*
X008603Y006864D03*
D47*
X008600Y006864D03*
X005570Y005034D03*
D48*
X005576Y005037D03*
X006272Y005082D03*
X005624Y004146D03*
X005603Y002274D03*
X008597Y006864D03*
X006377Y008619D03*
X006032Y008706D03*
X006113Y007272D03*
X006116Y007272D03*
X005828Y007269D03*
D49*
X005834Y007269D03*
X005837Y007269D03*
X006098Y007269D03*
X006026Y008706D03*
X008594Y006864D03*
X005627Y004146D03*
X005582Y005037D03*
X005606Y002274D03*
D50*
X005612Y002274D03*
X006314Y002289D03*
X005912Y003216D03*
X005588Y003321D03*
X005597Y005043D03*
X005873Y007266D03*
X005876Y007266D03*
X006062Y007269D03*
X006068Y007269D03*
X006389Y008604D03*
X006011Y008703D03*
X008591Y006864D03*
D51*
X008588Y006864D03*
X006038Y007266D03*
X006032Y007266D03*
X006029Y007266D03*
X006026Y007266D03*
X006023Y007266D03*
X005903Y007266D03*
X005897Y007266D03*
X005894Y007266D03*
X005891Y007266D03*
X005888Y007266D03*
X005591Y003321D03*
X006311Y002289D03*
D52*
X005615Y005047D03*
X008585Y006862D03*
X006395Y008596D03*
D53*
X006398Y008589D03*
X005984Y008694D03*
X008582Y006864D03*
X006227Y005091D03*
X006302Y002289D03*
X005624Y002274D03*
D54*
X006218Y005092D03*
X006359Y006817D03*
X006392Y007897D03*
X005579Y008677D03*
X008579Y006862D03*
D55*
X008576Y006864D03*
X006362Y006816D03*
X005651Y005058D03*
X005933Y003237D03*
X005573Y008673D03*
X005666Y008682D03*
X005669Y008682D03*
X005672Y008682D03*
D56*
X005678Y008682D03*
X005681Y008682D03*
X006404Y008577D03*
X008573Y006864D03*
X006203Y005097D03*
X005657Y005058D03*
D57*
X008570Y006862D03*
D58*
X008567Y006864D03*
X005948Y008676D03*
D59*
X005942Y008671D03*
X005558Y008653D03*
X008564Y006862D03*
X005693Y005068D03*
D60*
X006164Y005104D03*
X006167Y005104D03*
X008561Y006862D03*
D61*
X008558Y006864D03*
X006374Y006816D03*
X005552Y006807D03*
X005711Y005076D03*
X005714Y005076D03*
X005933Y008664D03*
D62*
X008555Y006862D03*
D63*
X008552Y006862D03*
X006407Y007933D03*
X005924Y008656D03*
X005546Y008638D03*
X005549Y006808D03*
X006137Y005110D03*
D64*
X008549Y006864D03*
X005543Y008631D03*
D65*
X008546Y006862D03*
D66*
X008543Y006862D03*
X005912Y008647D03*
X005768Y005092D03*
D67*
X005780Y005097D03*
X008540Y006864D03*
D68*
X008537Y006862D03*
X006089Y005122D03*
X006086Y005122D03*
D69*
X008534Y006862D03*
D70*
X008531Y006862D03*
X006074Y005125D03*
D71*
X008528Y006862D03*
D72*
X008525Y006862D03*
D73*
X008522Y006862D03*
D74*
X008519Y006862D03*
X006029Y005137D03*
X005864Y005125D03*
X005858Y005122D03*
D75*
X006023Y005137D03*
X006224Y006199D03*
X008516Y006862D03*
D76*
X008513Y006862D03*
D77*
X008510Y006862D03*
D78*
X008507Y006862D03*
X005993Y005146D03*
X005906Y005140D03*
D79*
X005981Y005149D03*
X005984Y005149D03*
X008504Y006862D03*
D80*
X008501Y006862D03*
X005972Y005152D03*
D81*
X005966Y005154D03*
X005963Y005154D03*
X005942Y005154D03*
X005939Y005151D03*
X005936Y005151D03*
X008498Y006861D03*
X005873Y008589D03*
D82*
X008495Y006861D03*
D83*
X008492Y006862D03*
D84*
X008489Y006862D03*
D85*
X008486Y006861D03*
X006173Y006201D03*
D86*
X006167Y006201D03*
X008483Y006861D03*
D87*
X008480Y006862D03*
D88*
X008477Y006862D03*
D89*
X008474Y006861D03*
D90*
X008471Y006861D03*
X006143Y006198D03*
D91*
X006137Y006198D03*
X008468Y006861D03*
D92*
X008465Y006862D03*
D93*
X008462Y006862D03*
D94*
X008459Y006861D03*
D95*
X008456Y006861D03*
X006107Y006192D03*
X006104Y006192D03*
D96*
X008453Y006862D03*
D97*
X008450Y006862D03*
D98*
X008447Y006861D03*
X006077Y006186D03*
D99*
X006074Y006186D03*
X008444Y006861D03*
D100*
X008441Y006861D03*
D101*
X008438Y006861D03*
X006059Y006183D03*
D102*
X008435Y006862D03*
D103*
X008432Y006862D03*
D104*
X008429Y006861D03*
X006029Y006174D03*
X005696Y008499D03*
D105*
X005708Y008496D03*
X003818Y006870D03*
X006023Y006171D03*
X008426Y006861D03*
D106*
X008423Y006861D03*
X005714Y008496D03*
D107*
X008420Y006861D03*
D108*
X008417Y006862D03*
D109*
X008414Y006861D03*
X005789Y008487D03*
X005786Y008487D03*
X005783Y008487D03*
X005777Y008487D03*
D110*
X008411Y006861D03*
D111*
X008408Y006861D03*
D112*
X008405Y006861D03*
D113*
X008402Y006861D03*
D114*
X008399Y006862D03*
D115*
X008396Y006861D03*
D116*
X008393Y006861D03*
D117*
X008390Y006861D03*
D118*
X008387Y006861D03*
D119*
X008384Y006861D03*
D120*
X008381Y006861D03*
D121*
X008378Y006861D03*
D122*
X008375Y006861D03*
D123*
X008372Y006861D03*
D124*
X008369Y006861D03*
D125*
X008366Y006861D03*
D126*
X008363Y006861D03*
D127*
X008360Y006861D03*
D128*
X008357Y006861D03*
X006722Y008169D03*
D129*
X008354Y006861D03*
D130*
X008351Y006861D03*
D131*
X008348Y006861D03*
X006677Y008181D03*
X006674Y008181D03*
D132*
X006665Y008184D03*
X008345Y006861D03*
D133*
X008342Y006861D03*
X006653Y008187D03*
D134*
X008339Y006861D03*
D135*
X008336Y006861D03*
D136*
X008333Y006861D03*
X006617Y008196D03*
X006614Y008196D03*
D137*
X008330Y006861D03*
D138*
X008327Y006859D03*
X006584Y008203D03*
X006581Y008203D03*
D139*
X008324Y006859D03*
D140*
X008321Y006861D03*
X006551Y008211D03*
X006548Y008211D03*
D141*
X006536Y008214D03*
X006533Y008214D03*
X008318Y006861D03*
D142*
X008315Y006861D03*
D143*
X008312Y006861D03*
D144*
X008309Y006861D03*
D145*
X008306Y006861D03*
X006479Y008226D03*
X006476Y008226D03*
D146*
X006464Y008229D03*
X006461Y008229D03*
X008303Y006861D03*
D147*
X008300Y006861D03*
D148*
X008297Y006859D03*
D149*
X008294Y006859D03*
D150*
X008291Y006859D03*
D151*
X008288Y006859D03*
D152*
X008285Y006861D03*
D153*
X008282Y006861D03*
D154*
X008279Y006861D03*
D155*
X008276Y006861D03*
D156*
X008273Y006861D03*
D157*
X008270Y006861D03*
D158*
X008267Y006861D03*
D159*
X008264Y006861D03*
D160*
X008261Y006861D03*
D161*
X008258Y006859D03*
D162*
X008255Y006859D03*
D163*
X008252Y006859D03*
D164*
X008249Y006859D03*
D165*
X008246Y006859D03*
D166*
X008243Y006859D03*
D167*
X008240Y006861D03*
D168*
X008237Y006861D03*
D169*
X008234Y006861D03*
D170*
X008231Y006861D03*
D171*
X008228Y006861D03*
D172*
X008225Y006861D03*
D173*
X008222Y006861D03*
X003881Y006870D03*
D174*
X008219Y006861D03*
D175*
X008216Y006861D03*
D176*
X008213Y006861D03*
D177*
X008210Y006861D03*
D178*
X008207Y006861D03*
D179*
X008204Y006861D03*
D180*
X008201Y006859D03*
D181*
X008198Y006859D03*
D182*
X008195Y006859D03*
D183*
X008192Y006859D03*
D184*
X008189Y006859D03*
D185*
X008186Y006859D03*
D186*
X008183Y006859D03*
D187*
X008180Y006859D03*
D188*
X008177Y006859D03*
D189*
X008174Y006859D03*
D190*
X008171Y006859D03*
D191*
X008168Y006859D03*
D192*
X008165Y006859D03*
D193*
X008162Y006859D03*
D194*
X008159Y006859D03*
D195*
X008156Y006859D03*
D196*
X008153Y006859D03*
X005528Y005557D03*
D197*
X008150Y006859D03*
D198*
X008147Y006859D03*
D199*
X008144Y006859D03*
D200*
X008141Y006859D03*
D201*
X008138Y006859D03*
D202*
X008135Y006859D03*
D203*
X008132Y006859D03*
D204*
X008129Y006859D03*
D205*
X008126Y006859D03*
X003917Y006868D03*
D206*
X008123Y006859D03*
D207*
X008120Y006859D03*
X003920Y006868D03*
D208*
X008117Y006859D03*
D209*
X008114Y006859D03*
D210*
X008111Y006859D03*
D211*
X008108Y006859D03*
D212*
X008105Y006859D03*
D213*
X008102Y006859D03*
D214*
X008099Y006859D03*
D215*
X008096Y006859D03*
D216*
X008093Y006859D03*
D217*
X008090Y006859D03*
D218*
X008087Y006859D03*
D219*
X008084Y006859D03*
D220*
X008081Y006859D03*
D221*
X008078Y006859D03*
D222*
X008075Y006859D03*
D223*
X008072Y006859D03*
D224*
X008069Y006859D03*
D225*
X008066Y006859D03*
D226*
X008063Y006859D03*
D227*
X008060Y006859D03*
D228*
X008057Y006859D03*
D229*
X008054Y006861D03*
D230*
X008051Y006861D03*
D231*
X008048Y006861D03*
D232*
X008045Y006861D03*
D233*
X008042Y006861D03*
D234*
X008039Y006861D03*
D235*
X008036Y006861D03*
D236*
X008033Y006861D03*
D237*
X008030Y006861D03*
D238*
X008027Y006861D03*
X003959Y006870D03*
D239*
X008024Y006861D03*
D240*
X008021Y006861D03*
D241*
X008018Y006861D03*
D242*
X008015Y006861D03*
D243*
X008012Y006859D03*
D244*
X008009Y006859D03*
D245*
X008006Y006859D03*
D246*
X008003Y006859D03*
D247*
X008000Y006859D03*
D248*
X007997Y006859D03*
D249*
X007994Y006859D03*
X003974Y006868D03*
D250*
X007991Y006859D03*
D251*
X007988Y006859D03*
X003977Y006868D03*
D252*
X007985Y006861D03*
D253*
X007982Y006861D03*
D254*
X007979Y006861D03*
D255*
X007976Y006861D03*
D256*
X007973Y006861D03*
D257*
X007970Y006861D03*
D258*
X007967Y006861D03*
D259*
X007964Y006861D03*
D260*
X007961Y006859D03*
D261*
X007958Y006859D03*
D262*
X007955Y006859D03*
D263*
X007952Y006859D03*
D264*
X007949Y006859D03*
D265*
X007946Y006861D03*
D266*
X007943Y006861D03*
D267*
X007940Y006861D03*
D268*
X007937Y006861D03*
D269*
X007934Y006861D03*
D270*
X007931Y006861D03*
D271*
X007928Y006861D03*
D272*
X007925Y006861D03*
D273*
X007922Y006861D03*
D274*
X007919Y006859D03*
D275*
X007916Y006859D03*
D276*
X007913Y006859D03*
D277*
X007910Y006859D03*
D278*
X007907Y006861D03*
D279*
X007904Y006861D03*
D280*
X007901Y006861D03*
D281*
X007898Y006861D03*
X004019Y006870D03*
D282*
X007895Y006861D03*
D283*
X007892Y006861D03*
D284*
X007889Y006861D03*
D285*
X007886Y006861D03*
D286*
X007883Y006859D03*
D287*
X007880Y006859D03*
D288*
X007877Y006859D03*
D289*
X007874Y006861D03*
D290*
X007871Y006861D03*
D291*
X007868Y006861D03*
D292*
X007865Y006861D03*
D293*
X007862Y006861D03*
D294*
X007859Y006861D03*
D295*
X007856Y006859D03*
D296*
X007853Y006859D03*
D297*
X007850Y006859D03*
D298*
X007847Y006861D03*
D299*
X007844Y006861D03*
D300*
X007841Y006861D03*
D301*
X007838Y006861D03*
D302*
X007835Y006861D03*
D303*
X007832Y006861D03*
D304*
X007829Y006861D03*
D305*
X007826Y006859D03*
D306*
X007823Y006859D03*
D307*
X007820Y006861D03*
D308*
X007817Y006861D03*
D309*
X007814Y006861D03*
D310*
X007811Y006861D03*
D311*
X007808Y006861D03*
D312*
X007805Y006861D03*
D313*
X007802Y006861D03*
D314*
X007799Y006859D03*
D315*
X007796Y006861D03*
D316*
X007793Y006861D03*
D317*
X007790Y006861D03*
D318*
X007787Y006861D03*
D319*
X007784Y006861D03*
D320*
X007781Y006861D03*
D321*
X007778Y006861D03*
D322*
X007775Y006861D03*
D323*
X007772Y006861D03*
D324*
X007769Y006861D03*
D325*
X007766Y006861D03*
D326*
X007763Y006861D03*
D327*
X007760Y006861D03*
D328*
X007757Y006861D03*
D329*
X007754Y006861D03*
X007751Y006861D03*
D330*
X007748Y006861D03*
D331*
X007745Y006861D03*
D332*
X007742Y006861D03*
D333*
X007739Y006861D03*
D334*
X007736Y006861D03*
D335*
X007733Y006861D03*
D336*
X007730Y006861D03*
D337*
X007727Y006861D03*
X004109Y006870D03*
D338*
X007724Y006861D03*
D339*
X007721Y006861D03*
D340*
X007718Y006861D03*
D341*
X007715Y006861D03*
D342*
X007712Y006861D03*
D343*
X007709Y006861D03*
X004118Y006870D03*
D344*
X007706Y006861D03*
D345*
X007703Y006861D03*
D346*
X007700Y006861D03*
D347*
X007697Y006861D03*
D348*
X007694Y006862D03*
D349*
X007691Y006861D03*
D350*
X007688Y006861D03*
D351*
X007685Y006861D03*
D352*
X007682Y006861D03*
D353*
X007679Y006861D03*
D354*
X007676Y006862D03*
D355*
X007673Y006862D03*
D356*
X007670Y006861D03*
D357*
X007667Y006861D03*
D358*
X007664Y006861D03*
D359*
X007661Y006861D03*
D360*
X007658Y006862D03*
D361*
X007655Y006861D03*
D362*
X007652Y006861D03*
D363*
X007649Y006861D03*
D364*
X007646Y006861D03*
D365*
X007643Y006861D03*
D366*
X007640Y006862D03*
D367*
X007637Y006861D03*
D368*
X007634Y006861D03*
D369*
X007631Y006861D03*
D370*
X007628Y006861D03*
D371*
X007625Y006861D03*
D372*
X007622Y006862D03*
D373*
X007619Y006861D03*
D374*
X007616Y006861D03*
D375*
X007613Y006861D03*
X006728Y006273D03*
D376*
X007610Y006861D03*
D377*
X007607Y006862D03*
D378*
X007604Y006862D03*
D379*
X007601Y006861D03*
X006692Y006264D03*
X006689Y006264D03*
D380*
X006677Y006261D03*
X007598Y006861D03*
D381*
X007595Y006861D03*
X006665Y006258D03*
D382*
X006662Y006256D03*
X006659Y006256D03*
X007592Y006862D03*
D383*
X007589Y006862D03*
D384*
X007586Y006861D03*
D385*
X007583Y006861D03*
X006632Y006249D03*
X006629Y006249D03*
X006626Y006249D03*
X004193Y006870D03*
D386*
X007580Y006861D03*
D387*
X007577Y006862D03*
X006611Y006244D03*
X006608Y006244D03*
D388*
X006596Y006241D03*
X006593Y006241D03*
X007574Y006862D03*
X004199Y006868D03*
D389*
X007571Y006861D03*
D390*
X007568Y006861D03*
D391*
X007565Y006861D03*
X006560Y006234D03*
X004205Y006870D03*
D392*
X006554Y006232D03*
X006557Y006232D03*
X007562Y006862D03*
D393*
X007559Y006862D03*
X006542Y006229D03*
X006539Y006229D03*
D394*
X006536Y006228D03*
X006533Y006228D03*
X007556Y006861D03*
D395*
X007553Y006861D03*
D396*
X007550Y006861D03*
D397*
X007547Y006862D03*
D398*
X007544Y006862D03*
X006482Y006217D03*
D399*
X006479Y006216D03*
X006476Y006216D03*
X006473Y006216D03*
X007541Y006861D03*
D400*
X007538Y006861D03*
X006464Y006213D03*
X006461Y006213D03*
X006458Y006213D03*
D401*
X007535Y006861D03*
D402*
X007532Y006862D03*
D403*
X007529Y006862D03*
D404*
X007526Y006861D03*
X006416Y006204D03*
X006413Y006204D03*
X004229Y006870D03*
D405*
X007523Y006861D03*
D406*
X007520Y006862D03*
D407*
X007517Y006862D03*
D408*
X007514Y006862D03*
D409*
X007511Y006861D03*
D410*
X007508Y006861D03*
X004241Y006870D03*
D411*
X007505Y006862D03*
D412*
X007502Y006862D03*
D413*
X007499Y006862D03*
X004247Y006868D03*
D414*
X007496Y006861D03*
D415*
X007493Y006862D03*
D416*
X007490Y006862D03*
D417*
X007487Y006862D03*
D418*
X007484Y006861D03*
D419*
X007481Y006861D03*
D420*
X007478Y006862D03*
X004259Y006868D03*
D421*
X007475Y006862D03*
D422*
X007472Y006862D03*
D423*
X007469Y006861D03*
D424*
X007466Y006862D03*
D425*
X007463Y006862D03*
D426*
X007460Y006862D03*
D427*
X007457Y006861D03*
D428*
X007454Y006862D03*
D429*
X007451Y006862D03*
D430*
X007448Y006862D03*
D431*
X007445Y006862D03*
D432*
X007442Y006862D03*
D433*
X007439Y006862D03*
D434*
X007436Y006862D03*
D435*
X007433Y006862D03*
D436*
X007430Y006862D03*
D437*
X007427Y006862D03*
D438*
X007424Y006862D03*
D439*
X007421Y006862D03*
X007418Y006862D03*
X004298Y006868D03*
D440*
X007415Y006862D03*
D441*
X007412Y006862D03*
D442*
X007409Y006862D03*
X007406Y006862D03*
D443*
X007403Y006862D03*
D444*
X007400Y006862D03*
D445*
X007397Y006862D03*
X007394Y006862D03*
D446*
X007391Y006862D03*
D447*
X007388Y006862D03*
D448*
X007385Y006862D03*
D449*
X007382Y006862D03*
D450*
X007379Y006862D03*
D451*
X007376Y006862D03*
D452*
X007373Y006862D03*
D453*
X007370Y006862D03*
D454*
X007367Y006862D03*
D455*
X007364Y006862D03*
D456*
X007361Y006862D03*
X007358Y006862D03*
D457*
X007355Y006862D03*
D458*
X007352Y006862D03*
D459*
X007349Y006864D03*
D460*
X007346Y006862D03*
D461*
X007343Y006862D03*
D462*
X007340Y006862D03*
X004355Y006868D03*
D463*
X007337Y006864D03*
D464*
X007334Y006862D03*
D465*
X007331Y006862D03*
D466*
X007328Y006864D03*
X004361Y006870D03*
D467*
X007325Y006862D03*
D468*
X007322Y006862D03*
D469*
X007319Y006862D03*
D470*
X007316Y006864D03*
D471*
X007313Y006862D03*
D472*
X007310Y006862D03*
D473*
X007307Y006864D03*
X004376Y006870D03*
D474*
X007304Y006864D03*
D475*
X007301Y006862D03*
D476*
X007298Y006862D03*
D477*
X007295Y006864D03*
D478*
X007292Y006862D03*
D479*
X007289Y006862D03*
D480*
X007286Y006864D03*
X004391Y006870D03*
D481*
X007283Y006862D03*
D482*
X007280Y006862D03*
D483*
X007277Y006862D03*
D484*
X007274Y006864D03*
D485*
X007271Y006862D03*
D486*
X007268Y006862D03*
D487*
X007265Y006864D03*
D488*
X007262Y006862D03*
D489*
X007259Y006862D03*
D490*
X007256Y006862D03*
D491*
X007253Y006864D03*
D492*
X007250Y006862D03*
D493*
X007247Y006862D03*
D494*
X007244Y006864D03*
D495*
X007241Y006862D03*
D496*
X007238Y006862D03*
D497*
X007235Y006864D03*
D498*
X007232Y006862D03*
D499*
X007229Y006862D03*
D500*
X007226Y006864D03*
D501*
X007223Y006864D03*
X004439Y006870D03*
D502*
X007220Y006862D03*
D503*
X007217Y006864D03*
D504*
X007214Y006864D03*
D505*
X007211Y006862D03*
D506*
X007208Y006862D03*
D507*
X007205Y006864D03*
D508*
X007202Y006864D03*
D509*
X007199Y006862D03*
D510*
X007196Y006864D03*
D511*
X007193Y006864D03*
D512*
X007190Y006862D03*
D513*
X007187Y006864D03*
D514*
X007184Y006864D03*
D515*
X007181Y006862D03*
D516*
X007178Y006864D03*
X004472Y006870D03*
D517*
X007175Y006864D03*
D518*
X007172Y006862D03*
D519*
X007169Y006864D03*
D520*
X007166Y006864D03*
D521*
X007163Y006862D03*
D522*
X007160Y006864D03*
D523*
X007157Y006864D03*
D524*
X007154Y006862D03*
D525*
X007151Y006864D03*
D526*
X007148Y006864D03*
D527*
X007145Y006862D03*
D528*
X007142Y006864D03*
D529*
X007139Y006864D03*
X007136Y006864D03*
D530*
X007133Y006864D03*
D531*
X007130Y006864D03*
D532*
X007127Y006864D03*
D533*
X007124Y006864D03*
D534*
X007121Y006864D03*
X007118Y006864D03*
D535*
X007115Y006864D03*
D536*
X007112Y006864D03*
X007109Y006864D03*
D537*
X007106Y006864D03*
D538*
X007103Y006864D03*
D539*
X007100Y006864D03*
D540*
X007097Y006864D03*
D541*
X007094Y006864D03*
X007091Y006864D03*
D542*
X007088Y006864D03*
D543*
X007085Y006864D03*
D544*
X007082Y006864D03*
D545*
X007079Y006864D03*
D546*
X007076Y006865D03*
D547*
X007073Y006864D03*
D548*
X007070Y006864D03*
D549*
X007067Y006864D03*
D550*
X007064Y006864D03*
X004562Y006870D03*
D551*
X007058Y006864D03*
X007061Y006864D03*
D552*
X007055Y006864D03*
D553*
X007052Y006864D03*
X007049Y006864D03*
D554*
X007046Y006864D03*
D555*
X007043Y006865D03*
D556*
X007040Y006864D03*
X004580Y006870D03*
D557*
X007034Y006864D03*
X007037Y006864D03*
D558*
X007031Y006864D03*
D559*
X007028Y006864D03*
D560*
X007025Y006864D03*
D561*
X007022Y006864D03*
D562*
X007019Y006865D03*
X004598Y006868D03*
D563*
X004601Y006870D03*
X007016Y006864D03*
D564*
X007013Y006864D03*
D565*
X007010Y006865D03*
D566*
X007007Y006864D03*
D567*
X007004Y006865D03*
D568*
X007001Y006864D03*
D569*
X006998Y006864D03*
D570*
X006995Y006865D03*
D571*
X006992Y006864D03*
D572*
X006989Y006865D03*
X004622Y006868D03*
D573*
X006986Y006864D03*
D574*
X006983Y006864D03*
D575*
X006980Y006865D03*
D576*
X006977Y006864D03*
D577*
X006974Y006865D03*
D578*
X006971Y006864D03*
D579*
X006968Y006864D03*
D580*
X006965Y006865D03*
D581*
X006962Y006864D03*
D582*
X006959Y006865D03*
D583*
X006956Y006865D03*
X004652Y006868D03*
D584*
X006953Y006864D03*
D585*
X006950Y006865D03*
D586*
X006947Y006864D03*
D587*
X006944Y006865D03*
X004661Y006868D03*
D588*
X004664Y006868D03*
X006941Y006865D03*
D589*
X006938Y006864D03*
D590*
X006935Y006865D03*
D591*
X006932Y006864D03*
D592*
X006929Y006865D03*
X004673Y006868D03*
D593*
X006926Y006865D03*
D594*
X006923Y006864D03*
D595*
X006920Y006865D03*
D596*
X006917Y006864D03*
D597*
X006914Y006865D03*
D598*
X006911Y006865D03*
X006908Y006865D03*
D599*
X006905Y006865D03*
D600*
X006902Y006864D03*
D601*
X006899Y006865D03*
D602*
X006896Y006864D03*
D603*
X006893Y006865D03*
D604*
X006890Y006865D03*
D605*
X006887Y006865D03*
X004709Y006868D03*
D606*
X006881Y006865D03*
X006884Y006865D03*
D607*
X006878Y006865D03*
X004718Y006868D03*
D608*
X006875Y006865D03*
D609*
X006872Y006865D03*
D610*
X006869Y006865D03*
X006866Y006865D03*
X004727Y006868D03*
D611*
X004733Y006868D03*
X006863Y006865D03*
D612*
X006860Y006865D03*
D613*
X006857Y006865D03*
D614*
X006854Y006865D03*
X006851Y006865D03*
X004742Y006868D03*
D615*
X006848Y006865D03*
D616*
X006845Y006865D03*
D617*
X006842Y006865D03*
X006839Y006865D03*
X004751Y006868D03*
D618*
X006833Y006865D03*
X006836Y006865D03*
D619*
X006830Y006865D03*
D620*
X006827Y006865D03*
X006824Y006865D03*
X004766Y006868D03*
D621*
X006818Y006865D03*
X006821Y006865D03*
D622*
X006815Y006865D03*
X004775Y006868D03*
D623*
X006812Y006865D03*
D624*
X006809Y006865D03*
X006806Y006865D03*
X004781Y006868D03*
D625*
X006803Y006865D03*
D626*
X006800Y006865D03*
D627*
X006797Y006865D03*
D628*
X006794Y006867D03*
D629*
X006791Y006865D03*
D630*
X006788Y006865D03*
D631*
X006785Y006865D03*
D632*
X006782Y006865D03*
X006779Y006865D03*
D633*
X006776Y006865D03*
X006773Y006865D03*
D634*
X006770Y006865D03*
D635*
X006767Y006865D03*
X004817Y006868D03*
D636*
X006764Y006865D03*
D637*
X006761Y006867D03*
X004823Y006870D03*
D638*
X004826Y006868D03*
X006758Y006865D03*
D639*
X006755Y006867D03*
D640*
X006752Y006865D03*
X004832Y006868D03*
D641*
X006749Y006867D03*
D642*
X006746Y006865D03*
D643*
X006743Y006867D03*
D644*
X006740Y006865D03*
D645*
X006737Y006867D03*
D646*
X006734Y008166D03*
D647*
X006734Y006274D03*
X006731Y006274D03*
D648*
X006731Y008167D03*
X006728Y008167D03*
D649*
X006725Y008169D03*
D650*
X006725Y006273D03*
D651*
X006722Y006271D03*
X006719Y006271D03*
D652*
X006719Y008170D03*
X006716Y008170D03*
D653*
X006716Y006270D03*
X006713Y006270D03*
X004178Y006870D03*
D654*
X006713Y008172D03*
D655*
X006710Y008172D03*
D656*
X006710Y006268D03*
D657*
X006707Y008173D03*
X006704Y008173D03*
D658*
X006707Y006268D03*
D659*
X006704Y006267D03*
X006701Y006267D03*
D660*
X006701Y008175D03*
X006698Y008175D03*
D661*
X006698Y006265D03*
X004181Y006868D03*
D662*
X006695Y008176D03*
D663*
X006695Y006265D03*
D664*
X006692Y008176D03*
X003839Y006868D03*
D665*
X006686Y008178D03*
X006689Y008178D03*
D666*
X006686Y006262D03*
X006683Y006262D03*
D667*
X006683Y008179D03*
D668*
X006680Y008179D03*
D669*
X006680Y006261D03*
D670*
X006674Y006259D03*
X006671Y006259D03*
D671*
X006671Y008182D03*
X006668Y008182D03*
D672*
X006668Y006258D03*
D673*
X006662Y008184D03*
D674*
X006659Y008185D03*
X006656Y008185D03*
D675*
X006656Y006255D03*
X006653Y006255D03*
D676*
X006650Y008187D03*
D677*
X006650Y006253D03*
X004190Y006868D03*
D678*
X003842Y006868D03*
X006644Y008188D03*
X006647Y008188D03*
D679*
X006647Y006253D03*
D680*
X006644Y006252D03*
X006641Y006252D03*
X006638Y006252D03*
D681*
X006638Y008190D03*
X006641Y008190D03*
D682*
X006635Y008191D03*
D683*
X006635Y006250D03*
D684*
X006632Y008191D03*
D685*
X006629Y008193D03*
X006626Y008193D03*
D686*
X006623Y008194D03*
D687*
X006623Y006247D03*
D688*
X006620Y008194D03*
D689*
X006620Y006247D03*
D690*
X006617Y006246D03*
X006614Y006246D03*
D691*
X006611Y008197D03*
X006608Y008197D03*
D692*
X006605Y008197D03*
D693*
X006605Y006243D03*
D694*
X006602Y008199D03*
X006599Y008199D03*
D695*
X006599Y006243D03*
X006602Y006243D03*
D696*
X006596Y008200D03*
X006593Y008200D03*
D697*
X006590Y008202D03*
D698*
X006590Y006240D03*
D699*
X006587Y008202D03*
D700*
X006587Y006240D03*
D701*
X006584Y006238D03*
X006581Y006238D03*
X004202Y006868D03*
D702*
X006578Y008205D03*
D703*
X006578Y006237D03*
D704*
X006575Y008205D03*
D705*
X006575Y006237D03*
D706*
X006572Y008206D03*
X006569Y008206D03*
X006566Y008206D03*
D707*
X006566Y006235D03*
X006569Y006235D03*
X006572Y006235D03*
D708*
X006563Y008208D03*
D709*
X006563Y006234D03*
D710*
X006560Y008208D03*
D711*
X006557Y008209D03*
X006554Y008209D03*
X003848Y006868D03*
D712*
X006548Y006231D03*
X006551Y006231D03*
D713*
X006545Y008211D03*
D714*
X006545Y006229D03*
D715*
X006542Y008212D03*
X006539Y008212D03*
D716*
X006530Y008215D03*
D717*
X006530Y006226D03*
D718*
X006527Y008215D03*
X006524Y008215D03*
D719*
X006524Y006226D03*
X006527Y006226D03*
X004211Y006868D03*
D720*
X006518Y008217D03*
X006521Y008217D03*
D721*
X006521Y006225D03*
X006518Y006225D03*
D722*
X006515Y008218D03*
D723*
X006515Y006223D03*
D724*
X006512Y008218D03*
D725*
X006512Y006223D03*
D726*
X006509Y008220D03*
X006506Y008220D03*
X006503Y008220D03*
X003851Y006870D03*
D727*
X004214Y006870D03*
X006503Y006222D03*
X006506Y006222D03*
X006509Y006222D03*
D728*
X006500Y008221D03*
D729*
X006500Y006220D03*
D730*
X006497Y008221D03*
D731*
X006497Y006220D03*
X006494Y006220D03*
D732*
X006494Y008223D03*
X006491Y008223D03*
D733*
X006491Y006219D03*
X006488Y006219D03*
X004217Y006870D03*
D734*
X006482Y008224D03*
X006488Y008224D03*
D735*
X006485Y008224D03*
D736*
X006485Y006217D03*
D737*
X006473Y008227D03*
X006467Y008227D03*
D738*
X006470Y008227D03*
D739*
X006470Y006214D03*
D740*
X006467Y006214D03*
D741*
X006458Y008230D03*
X006452Y008230D03*
D742*
X006455Y008230D03*
D743*
X006455Y006211D03*
D744*
X006452Y006211D03*
X006449Y006211D03*
X004223Y006868D03*
D745*
X006446Y008232D03*
X006449Y008232D03*
D746*
X006446Y006210D03*
X006443Y006210D03*
D747*
X006443Y008233D03*
X006437Y008233D03*
D748*
X006440Y008233D03*
D749*
X006440Y006208D03*
D750*
X006437Y006208D03*
X006434Y006208D03*
D751*
X006434Y008235D03*
X006431Y008235D03*
D752*
X006431Y006207D03*
X006428Y006207D03*
X004226Y006870D03*
D753*
X006422Y008236D03*
X006428Y008236D03*
D754*
X006425Y008236D03*
D755*
X006425Y006207D03*
D756*
X006422Y006205D03*
X006419Y006205D03*
D757*
X006419Y008238D03*
X006416Y008238D03*
X006413Y008238D03*
D758*
X006410Y008239D03*
D759*
X006410Y006204D03*
D760*
X005558Y006807D03*
X005681Y005067D03*
X005684Y005067D03*
X006407Y008565D03*
X005561Y008658D03*
D761*
X006269Y008215D03*
X006407Y007399D03*
X006194Y006820D03*
X005741Y006814D03*
X005738Y006814D03*
X005654Y006385D03*
X006224Y005605D03*
X005636Y004012D03*
X005624Y003154D03*
X006263Y003085D03*
X006239Y002599D03*
D762*
X006116Y006193D03*
X006113Y006193D03*
X006407Y006808D03*
D763*
X006407Y005601D03*
D764*
X005699Y005071D03*
X006404Y007921D03*
X005939Y008668D03*
D765*
X006278Y008218D03*
X006404Y007411D03*
X006167Y006820D03*
X006164Y006820D03*
X006161Y006820D03*
X005771Y006814D03*
X005768Y006814D03*
X005654Y007267D03*
X005711Y005596D03*
X005708Y004459D03*
X005978Y003460D03*
X006389Y003370D03*
X006242Y003073D03*
X006212Y002611D03*
X006281Y002113D03*
X005657Y002089D03*
D766*
X006404Y006810D03*
D767*
X006404Y005583D03*
D768*
X005642Y005055D03*
X006401Y008583D03*
X005972Y008688D03*
X005654Y008685D03*
X005651Y008685D03*
D769*
X006401Y007915D03*
D770*
X005969Y008107D03*
X006401Y007417D03*
X006377Y006052D03*
X005636Y003127D03*
X006197Y002617D03*
X005669Y002077D03*
D771*
X006401Y006811D03*
D772*
X006401Y005572D03*
D773*
X005819Y005598D03*
X005612Y007494D03*
X005954Y008046D03*
X006302Y008226D03*
X006341Y008031D03*
X006344Y007479D03*
X006401Y003372D03*
D774*
X006401Y002293D03*
X005816Y005596D03*
X006098Y005605D03*
D775*
X006194Y005100D03*
X005561Y006807D03*
X006398Y007908D03*
D776*
X006398Y007423D03*
X005543Y007441D03*
X005729Y005596D03*
X005738Y004471D03*
X005999Y003493D03*
X006218Y003061D03*
X005693Y002053D03*
D777*
X005909Y005142D03*
X005912Y005142D03*
X005987Y005148D03*
X006209Y006201D03*
X006398Y006813D03*
D778*
X006398Y005560D03*
D779*
X005774Y005598D03*
X005657Y004350D03*
X005654Y004347D03*
X005636Y003498D03*
X006281Y003168D03*
X006398Y003372D03*
X006374Y002655D03*
X006371Y002655D03*
X006368Y002655D03*
X006362Y002655D03*
X006359Y002655D03*
X006356Y002655D03*
X006353Y002655D03*
X006317Y002652D03*
X006314Y002652D03*
X006311Y002652D03*
X006308Y002652D03*
X006377Y007452D03*
X006374Y008055D03*
D780*
X006146Y005607D03*
X005651Y004341D03*
X006314Y003033D03*
X006317Y003033D03*
X006323Y003033D03*
X006326Y003033D03*
X006341Y003030D03*
X006344Y003030D03*
X006347Y003030D03*
X006353Y003030D03*
X006356Y003030D03*
X006362Y003027D03*
X006368Y003027D03*
X006371Y003027D03*
X006374Y003027D03*
X006251Y002649D03*
X006248Y002649D03*
X006398Y002295D03*
X005654Y002490D03*
D781*
X006395Y007902D03*
D782*
X006395Y007429D03*
X006110Y006820D03*
X005690Y003952D03*
X006200Y003055D03*
D783*
X006395Y006813D03*
D784*
X006395Y005551D03*
D785*
X006260Y003537D03*
X006290Y002472D03*
X006395Y002295D03*
X005735Y002025D03*
D786*
X005609Y005044D03*
X005606Y005044D03*
X006242Y005089D03*
X006353Y006817D03*
X006017Y007264D03*
X006014Y007264D03*
X006011Y007264D03*
X006008Y007264D03*
X006002Y007264D03*
X005999Y007264D03*
X005996Y007264D03*
X005993Y007264D03*
X005987Y007264D03*
X005984Y007264D03*
X005981Y007264D03*
X005978Y007264D03*
X005972Y007264D03*
X005969Y007264D03*
X005966Y007264D03*
X005963Y007264D03*
X005957Y007264D03*
X005954Y007264D03*
X005951Y007264D03*
X005948Y007264D03*
X005942Y007264D03*
X005939Y007264D03*
X005936Y007264D03*
X005933Y007264D03*
X005927Y007264D03*
X005924Y007264D03*
X005921Y007264D03*
X005918Y007264D03*
X005912Y007264D03*
X005909Y007264D03*
X005906Y007264D03*
X006392Y008599D03*
X005597Y008692D03*
X005594Y008692D03*
D787*
X005963Y008091D03*
X006389Y008070D03*
X006392Y007434D03*
X006086Y006819D03*
X006083Y006819D03*
X005858Y006816D03*
X005852Y006816D03*
X005849Y006816D03*
X005846Y006816D03*
X006296Y006327D03*
X006359Y006024D03*
X006347Y006015D03*
X005747Y005598D03*
X005777Y004482D03*
X005636Y004314D03*
X005714Y003939D03*
X005717Y003936D03*
X006029Y003525D03*
X006026Y003522D03*
X006239Y003549D03*
X006251Y003543D03*
X006182Y003051D03*
X006179Y003051D03*
X006149Y002631D03*
X006146Y002631D03*
X006143Y002631D03*
X005801Y002631D03*
X005798Y002631D03*
X005636Y002460D03*
X005531Y002271D03*
X005759Y002013D03*
X005768Y002010D03*
X005771Y002007D03*
X005774Y002007D03*
X006194Y002031D03*
X006203Y002037D03*
X006209Y002040D03*
X005672Y003090D03*
D788*
X005843Y005118D03*
X005846Y005118D03*
X006041Y005133D03*
X006044Y005133D03*
X006392Y006813D03*
D789*
X006392Y005545D03*
D790*
X006326Y006010D03*
X006371Y006040D03*
X006131Y006820D03*
X006128Y006820D03*
X005804Y006814D03*
X006284Y007270D03*
X005669Y003967D03*
X006281Y003520D03*
X006392Y003370D03*
X006188Y002620D03*
X005756Y002620D03*
X005753Y002620D03*
X005687Y002059D03*
D791*
X005678Y002067D03*
X005534Y002271D03*
X005741Y002616D03*
X006194Y002619D03*
X006392Y002295D03*
X006269Y002097D03*
X006227Y003066D03*
X006287Y003513D03*
X005639Y003123D03*
X005657Y003981D03*
X005537Y004140D03*
X005726Y004467D03*
X006194Y005607D03*
X006314Y006009D03*
X006143Y006819D03*
X005792Y006816D03*
X005789Y006816D03*
X005651Y007266D03*
D792*
X006383Y007756D03*
X006386Y007756D03*
X006389Y007756D03*
X005984Y008131D03*
X006263Y005998D03*
X005684Y005596D03*
X006296Y002146D03*
D793*
X006158Y002011D03*
X006149Y002008D03*
X006122Y001996D03*
X006119Y001996D03*
X006116Y001996D03*
X006107Y001993D03*
X005882Y001978D03*
X005879Y001978D03*
X005876Y001978D03*
X005873Y001978D03*
X005864Y001981D03*
X005861Y001981D03*
X005858Y001981D03*
X005699Y003073D03*
X005696Y003073D03*
X005693Y003076D03*
X006158Y003046D03*
X006161Y003046D03*
X006164Y003046D03*
X006296Y003193D03*
X006053Y003541D03*
X005789Y003913D03*
X005777Y003916D03*
X005774Y003916D03*
X005771Y003916D03*
X005801Y004486D03*
X005804Y004486D03*
X005807Y004486D03*
X005753Y005596D03*
X006389Y007438D03*
D794*
X006389Y006814D03*
X005819Y005110D03*
X005531Y008605D03*
D795*
X006389Y006076D03*
X005693Y005596D03*
X005696Y002596D03*
D796*
X005591Y002275D03*
X005606Y004144D03*
X006389Y005605D03*
X005828Y006394D03*
X005822Y006394D03*
X006347Y008644D03*
X006344Y008647D03*
D797*
X006152Y008196D03*
X006149Y008196D03*
X006293Y006819D03*
X006266Y006312D03*
X005594Y005598D03*
X005591Y005598D03*
X006386Y005064D03*
X006389Y005064D03*
D798*
X005702Y005596D03*
X006287Y006004D03*
X006386Y006070D03*
X006182Y006820D03*
X006179Y006820D03*
X005753Y006814D03*
X005651Y006385D03*
X005696Y004453D03*
X005534Y003301D03*
X005627Y003145D03*
X006254Y003079D03*
X006227Y002605D03*
X006389Y002296D03*
X006287Y002125D03*
D799*
X006257Y005086D03*
X006254Y005086D03*
X005594Y005041D03*
X006386Y008608D03*
D800*
X006386Y008067D03*
X006164Y005607D03*
X005798Y004485D03*
X005792Y004485D03*
X005639Y004320D03*
X005732Y003930D03*
X005738Y003927D03*
X005741Y003927D03*
X006047Y003537D03*
X006056Y003543D03*
X006218Y003558D03*
X006221Y003555D03*
X006224Y003555D03*
X006227Y003555D03*
X006167Y003048D03*
X005687Y003078D03*
X006152Y002010D03*
X006146Y002007D03*
X006161Y002013D03*
X006179Y002022D03*
X005819Y001992D03*
X005816Y001992D03*
X005813Y001992D03*
X005807Y001995D03*
X005804Y001995D03*
X005798Y001998D03*
D801*
X006278Y002493D03*
X006119Y003042D03*
X006116Y003042D03*
X006113Y003042D03*
X006107Y003042D03*
X006104Y003042D03*
X006101Y003042D03*
X006098Y003042D03*
X006092Y003042D03*
X006089Y003042D03*
X006086Y003042D03*
X006083Y003042D03*
X006077Y003042D03*
X006074Y003042D03*
X006071Y003042D03*
X006068Y003042D03*
X006062Y003042D03*
X006059Y003042D03*
X006056Y003042D03*
X006053Y003042D03*
X006047Y003042D03*
X006044Y003042D03*
X006041Y003042D03*
X006038Y003042D03*
X006032Y003042D03*
X006029Y003042D03*
X006026Y003042D03*
X006023Y003042D03*
X006017Y003042D03*
X006014Y003042D03*
X006011Y003042D03*
X006008Y003042D03*
X006002Y003042D03*
X005999Y003042D03*
X005996Y003042D03*
X005993Y003042D03*
X005987Y003042D03*
X005984Y003042D03*
X005981Y003042D03*
X005978Y003042D03*
X005972Y003042D03*
X005969Y003042D03*
X005966Y003042D03*
X005963Y003042D03*
X005957Y003042D03*
X005954Y003042D03*
X005951Y003042D03*
X005948Y003042D03*
X005789Y003048D03*
X005786Y003048D03*
X005783Y003048D03*
X005777Y003048D03*
X005774Y003048D03*
X005771Y003051D03*
X005768Y003051D03*
X005762Y003051D03*
X005753Y003054D03*
X005741Y003057D03*
X005738Y003057D03*
X005672Y004491D03*
X005669Y004491D03*
X005666Y004491D03*
X005663Y004491D03*
X005657Y004491D03*
X005654Y004491D03*
X005651Y004491D03*
X005648Y004491D03*
X005642Y004491D03*
X005639Y004491D03*
X005636Y004491D03*
X005633Y004491D03*
X005627Y004491D03*
X005624Y004491D03*
X005621Y004491D03*
X005618Y004491D03*
X005612Y004491D03*
X005609Y004491D03*
X005606Y004491D03*
X005603Y004491D03*
X005597Y004491D03*
X005594Y004491D03*
X005591Y004491D03*
X005588Y004491D03*
X005582Y004491D03*
X005579Y004491D03*
X005576Y004491D03*
X005573Y004491D03*
X005567Y004491D03*
X005564Y004491D03*
X005561Y004491D03*
X005558Y004491D03*
X005552Y004491D03*
X005549Y004491D03*
X005546Y004491D03*
X005543Y004491D03*
X005537Y004491D03*
X005534Y004491D03*
X005531Y004491D03*
X005528Y004491D03*
X005522Y004491D03*
X005519Y004491D03*
X005516Y004491D03*
X005513Y004491D03*
X005507Y004491D03*
X005504Y004491D03*
X005501Y004491D03*
X005498Y004491D03*
X005492Y004491D03*
X005489Y004491D03*
X005486Y004491D03*
X005483Y004491D03*
X005477Y004491D03*
X005474Y004491D03*
X005471Y004491D03*
X005468Y004491D03*
X005462Y004491D03*
X005459Y004491D03*
X005456Y004491D03*
X005453Y004491D03*
X005447Y004491D03*
X005444Y004491D03*
X005441Y004491D03*
X005438Y004491D03*
X005432Y004491D03*
X005429Y004491D03*
X005426Y004491D03*
X005423Y004491D03*
X005417Y004491D03*
X005414Y004491D03*
X005411Y004491D03*
X005408Y004491D03*
X005402Y004491D03*
X005399Y004491D03*
X005396Y004491D03*
X005393Y004491D03*
X005387Y004491D03*
X005384Y004491D03*
X005381Y004491D03*
X005378Y004491D03*
X005372Y004491D03*
X005369Y004491D03*
X005366Y004491D03*
X005363Y004491D03*
X005357Y004491D03*
X005354Y004491D03*
X005351Y004491D03*
X005348Y004491D03*
X005342Y004491D03*
X005339Y004491D03*
X005336Y004491D03*
X005333Y004491D03*
X005327Y004491D03*
X005324Y004491D03*
X005321Y004491D03*
X005318Y004491D03*
X005312Y004491D03*
X005309Y004491D03*
X005306Y004491D03*
X005303Y004491D03*
X005297Y004491D03*
X005294Y004491D03*
X005291Y004491D03*
X005288Y004491D03*
X005282Y004491D03*
X005279Y004491D03*
X005276Y004491D03*
X005273Y004491D03*
X005267Y004491D03*
X005264Y004491D03*
X005261Y004491D03*
X005258Y004491D03*
X005252Y004491D03*
X005249Y004491D03*
X005246Y004491D03*
X005243Y004491D03*
X005237Y004491D03*
X005234Y004491D03*
X005231Y004491D03*
X005228Y004491D03*
X005222Y004491D03*
X005219Y004491D03*
X005216Y004491D03*
X005213Y004491D03*
X005207Y004491D03*
X005204Y004491D03*
X005201Y004491D03*
X005198Y004491D03*
X005192Y004491D03*
X005189Y004491D03*
X005186Y004491D03*
X005183Y004491D03*
X005177Y004491D03*
X005174Y004491D03*
X005171Y004491D03*
X005168Y004491D03*
X005162Y004491D03*
X005159Y004491D03*
X005156Y004491D03*
X005153Y004491D03*
X005852Y004491D03*
X005858Y004491D03*
X005861Y004491D03*
X005864Y004491D03*
X005867Y004491D03*
X005873Y004491D03*
X005876Y004491D03*
X005879Y004491D03*
X005882Y004491D03*
X005888Y004491D03*
X005891Y004491D03*
X005894Y004491D03*
X005897Y004491D03*
X005903Y004491D03*
X005906Y004491D03*
X005909Y004491D03*
X005912Y004491D03*
X005918Y004491D03*
X005921Y004491D03*
X005924Y004491D03*
X005927Y004491D03*
X005933Y004491D03*
X005936Y004491D03*
X005939Y004491D03*
X005942Y004491D03*
X005948Y004491D03*
X005951Y004491D03*
X005954Y004491D03*
X005957Y004491D03*
X005963Y004491D03*
X005966Y004491D03*
X005969Y004491D03*
X005972Y004491D03*
X005978Y004491D03*
X005981Y004491D03*
X005984Y004491D03*
X005987Y004491D03*
X005993Y004491D03*
X005996Y004491D03*
X005999Y004491D03*
X006002Y004491D03*
X006008Y004491D03*
X006011Y004491D03*
X006014Y004491D03*
X006017Y004491D03*
X006023Y004491D03*
X006026Y004491D03*
X006029Y004491D03*
X006032Y004491D03*
X006038Y004491D03*
X006041Y004491D03*
X006044Y004491D03*
X006047Y004491D03*
X006053Y004491D03*
X006056Y004491D03*
X006059Y004491D03*
X006062Y004491D03*
X006068Y004491D03*
X006071Y004491D03*
X006074Y004491D03*
X006077Y004491D03*
X006083Y004491D03*
X006086Y004491D03*
X006089Y004491D03*
X006092Y004491D03*
X006098Y004491D03*
X006101Y004491D03*
X006104Y004491D03*
X006107Y004491D03*
X006113Y004491D03*
X006116Y004491D03*
X006119Y004491D03*
X006122Y004491D03*
X006128Y004491D03*
X006131Y004491D03*
X006134Y004491D03*
X006137Y004491D03*
X006143Y004491D03*
X006146Y004491D03*
X006149Y004491D03*
X006152Y004491D03*
X006158Y004491D03*
X006161Y004491D03*
X006164Y004491D03*
X006167Y004491D03*
X006173Y004491D03*
X006176Y004491D03*
X006179Y004491D03*
X006182Y004491D03*
X006188Y004491D03*
X006191Y004491D03*
X006194Y004491D03*
X006197Y004491D03*
X006203Y004491D03*
X006206Y004491D03*
X006209Y004491D03*
X006212Y004491D03*
X006218Y004491D03*
X006221Y004491D03*
X006224Y004491D03*
X006227Y004491D03*
X006233Y004491D03*
X006236Y004491D03*
X006239Y004491D03*
X006242Y004491D03*
X006248Y004491D03*
X006251Y004491D03*
X006254Y004491D03*
X006257Y004491D03*
X006263Y004491D03*
X006266Y004491D03*
X006269Y004491D03*
X006272Y004491D03*
X006278Y004491D03*
X006281Y004491D03*
X006284Y004491D03*
X006287Y004491D03*
X006293Y004491D03*
X006296Y004491D03*
X006299Y004491D03*
X006302Y004491D03*
X006308Y004491D03*
X006311Y004491D03*
X006314Y004491D03*
X006317Y004491D03*
X006323Y004491D03*
X006326Y004491D03*
X006329Y004491D03*
X006332Y004491D03*
X006338Y004491D03*
X006341Y004491D03*
X006344Y004491D03*
X006347Y004491D03*
X006353Y004491D03*
X006356Y004491D03*
X006359Y004491D03*
X006362Y004491D03*
X006368Y004491D03*
X006371Y004491D03*
X006374Y004491D03*
X006377Y004491D03*
X006023Y006819D03*
X006017Y006819D03*
X006014Y006819D03*
X006011Y006819D03*
X006008Y006819D03*
X006002Y006819D03*
X005999Y006819D03*
X005996Y006819D03*
X005993Y006819D03*
X005987Y006819D03*
X005984Y006819D03*
X005981Y006819D03*
X005978Y006819D03*
X005972Y006819D03*
X005969Y006819D03*
X005966Y006819D03*
X005963Y006819D03*
X005957Y006819D03*
X005954Y006819D03*
X005951Y006819D03*
X005948Y006819D03*
X005942Y006819D03*
X005939Y006819D03*
X005936Y006819D03*
X005933Y006819D03*
X006386Y007443D03*
X006293Y008223D03*
D802*
X005534Y008614D03*
X006386Y006814D03*
X005792Y005101D03*
D803*
X006383Y005605D03*
X006386Y005605D03*
X005819Y006394D03*
X005816Y006394D03*
X005813Y006394D03*
X006164Y007273D03*
X006167Y007273D03*
X006338Y008650D03*
X006113Y008713D03*
X006107Y008713D03*
X006104Y008713D03*
X005603Y004144D03*
D804*
X005687Y004449D03*
X005969Y003441D03*
X006386Y003369D03*
X006236Y002601D03*
X006191Y006819D03*
X005978Y008124D03*
D805*
X005633Y004020D03*
X005858Y003090D03*
X006269Y003090D03*
X006386Y002295D03*
D806*
X006263Y005086D03*
X006383Y008611D03*
D807*
X006383Y007446D03*
D808*
X006383Y006816D03*
X005543Y006807D03*
X005771Y005094D03*
X006104Y005118D03*
X006107Y005118D03*
D809*
X006293Y006004D03*
X006383Y006064D03*
X006173Y006820D03*
X005762Y006814D03*
X005759Y006814D03*
X005648Y006385D03*
X006278Y007270D03*
X005642Y004000D03*
X005714Y002605D03*
X006284Y002119D03*
D810*
X005636Y002124D03*
X005687Y002592D03*
X006383Y003369D03*
X005678Y004443D03*
X006233Y005607D03*
X006203Y006819D03*
X005729Y006813D03*
X005663Y007266D03*
D811*
X005633Y006385D03*
X005768Y005596D03*
X005648Y004336D03*
X006287Y003175D03*
X006293Y003034D03*
X006296Y003034D03*
X006299Y003034D03*
X006302Y003034D03*
X006308Y003034D03*
X006311Y003034D03*
X006329Y003031D03*
X006332Y003031D03*
X006338Y003031D03*
X006359Y003028D03*
X006377Y003025D03*
X006383Y003025D03*
X006269Y002506D03*
X005651Y002485D03*
X006377Y008056D03*
D812*
X005651Y008223D03*
X006266Y007272D03*
X005711Y006813D03*
X005594Y006045D03*
X005726Y005955D03*
X005729Y005955D03*
X005732Y005952D03*
X005672Y005598D03*
X005549Y004140D03*
X006383Y002295D03*
D813*
X005840Y007269D03*
X006380Y008616D03*
D814*
X006380Y008059D03*
X006275Y002497D03*
D815*
X006260Y005998D03*
X006380Y007756D03*
D816*
X006380Y007449D03*
X006290Y003036D03*
X006320Y003033D03*
X006350Y003030D03*
X006365Y003027D03*
D817*
X006125Y005113D03*
X005750Y005086D03*
X006380Y006814D03*
D818*
X006380Y006058D03*
D819*
X006380Y005605D03*
X006320Y005074D03*
X006170Y007273D03*
X006125Y008713D03*
D820*
X005570Y007825D03*
X005630Y006811D03*
X005945Y005866D03*
X005975Y005869D03*
X006335Y005605D03*
X006380Y005065D03*
D821*
X006380Y004491D03*
X006365Y004491D03*
X006350Y004491D03*
X006335Y004491D03*
X006320Y004491D03*
X006305Y004491D03*
X006290Y004491D03*
X006275Y004491D03*
X006260Y004491D03*
X006245Y004491D03*
X006230Y004491D03*
X006215Y004491D03*
X006200Y004491D03*
X006185Y004491D03*
X006170Y004491D03*
X006155Y004491D03*
X006140Y004491D03*
X006125Y004491D03*
X006110Y004491D03*
X006095Y004491D03*
X006080Y004491D03*
X006065Y004491D03*
X006050Y004491D03*
X006035Y004491D03*
X006020Y004491D03*
X006005Y004491D03*
X005990Y004491D03*
X005975Y004491D03*
X005960Y004491D03*
X005945Y004491D03*
X005930Y004491D03*
X005915Y004491D03*
X005900Y004491D03*
X005885Y004491D03*
X005870Y004491D03*
X005855Y004491D03*
X005660Y004491D03*
X005645Y004491D03*
X005630Y004491D03*
X005615Y004491D03*
X005600Y004491D03*
X005585Y004491D03*
X005570Y004491D03*
X005555Y004491D03*
X005540Y004491D03*
X005525Y004491D03*
X005510Y004491D03*
X005495Y004491D03*
X005480Y004491D03*
X005465Y004491D03*
X005450Y004491D03*
X005435Y004491D03*
X005420Y004491D03*
X005405Y004491D03*
X005390Y004491D03*
X005375Y004491D03*
X005360Y004491D03*
X005345Y004491D03*
X005330Y004491D03*
X005315Y004491D03*
X005300Y004491D03*
X005285Y004491D03*
X005270Y004491D03*
X005255Y004491D03*
X005240Y004491D03*
X005225Y004491D03*
X005210Y004491D03*
X005195Y004491D03*
X005180Y004491D03*
X005165Y004491D03*
X005150Y004491D03*
X006155Y005607D03*
X006020Y006819D03*
X006005Y006819D03*
X005990Y006819D03*
X005975Y006819D03*
X005960Y006819D03*
X005945Y006819D03*
X005930Y006819D03*
X005960Y008082D03*
X005750Y003054D03*
X005765Y003051D03*
X005780Y003048D03*
X005960Y003042D03*
X005975Y003042D03*
X005990Y003042D03*
X006005Y003042D03*
X006020Y003042D03*
X006035Y003042D03*
X006050Y003042D03*
X006065Y003042D03*
X006080Y003042D03*
X006095Y003042D03*
X006110Y003042D03*
D822*
X006125Y003043D03*
X006140Y003043D03*
X005855Y003043D03*
X005840Y003043D03*
X005795Y003046D03*
X005735Y003058D03*
X005720Y003064D03*
X005855Y002638D03*
X005645Y002476D03*
X006080Y002638D03*
X006095Y002638D03*
X006020Y001975D03*
X005960Y001972D03*
X006110Y003562D03*
X006125Y003565D03*
X006140Y003565D03*
X006140Y003904D03*
X006155Y003904D03*
X006170Y003904D03*
X006185Y003904D03*
X006200Y003904D03*
X006215Y003904D03*
X006230Y003904D03*
X006245Y003904D03*
X006260Y003904D03*
X006275Y003904D03*
X006290Y003904D03*
X006305Y003904D03*
X006320Y003904D03*
X006335Y003904D03*
X006350Y003904D03*
X006365Y003904D03*
X006380Y003904D03*
X006125Y003904D03*
X006110Y003904D03*
X006095Y003904D03*
X006080Y003904D03*
X006065Y003904D03*
X006050Y003904D03*
X006035Y003904D03*
X006020Y003904D03*
X006005Y003904D03*
X005990Y003904D03*
X005975Y003904D03*
X005960Y003904D03*
X005945Y003904D03*
X005930Y003904D03*
X005915Y003904D03*
X005900Y003904D03*
X005885Y003904D03*
X005870Y003904D03*
X005855Y003904D03*
X005840Y003907D03*
X005825Y003907D03*
X005840Y004489D03*
X005900Y006817D03*
X005915Y006817D03*
D823*
X005600Y006039D03*
X005795Y007764D03*
X005810Y007764D03*
X005990Y008139D03*
X006380Y003369D03*
D824*
X006335Y003031D03*
X006305Y003034D03*
X006380Y003025D03*
D825*
X006380Y002656D03*
X006350Y002653D03*
X006335Y002653D03*
X006320Y002653D03*
X006305Y002650D03*
X006290Y002650D03*
X006275Y002650D03*
X006260Y002650D03*
D826*
X005732Y005082D03*
X005729Y005082D03*
X006377Y006816D03*
D827*
X005543Y007852D03*
X006146Y008710D03*
X006314Y008665D03*
X006374Y005605D03*
X006377Y005605D03*
X006326Y005074D03*
X006323Y005074D03*
X005543Y005599D03*
D828*
X005942Y005866D03*
X005978Y005869D03*
X006332Y005605D03*
X006377Y005065D03*
X005729Y006388D03*
X005726Y006388D03*
X006218Y007273D03*
X006359Y002293D03*
D829*
X005627Y002151D03*
X005546Y002274D03*
X006377Y003369D03*
X005777Y005931D03*
X006236Y006819D03*
X005702Y007776D03*
X005699Y007776D03*
X006248Y008211D03*
D830*
X005657Y007785D03*
X005552Y006090D03*
X005822Y005910D03*
X006377Y002295D03*
D831*
X006308Y003360D03*
X006278Y005082D03*
X006122Y007272D03*
X006119Y007272D03*
X006374Y008622D03*
D832*
X005573Y007470D03*
X006374Y007455D03*
X006257Y002520D03*
X005666Y002505D03*
D833*
X005681Y002065D03*
X006263Y002089D03*
X006296Y002458D03*
X006191Y002620D03*
X006224Y003064D03*
X005729Y004468D03*
X005726Y005596D03*
X005723Y005596D03*
X006317Y006010D03*
X006374Y006046D03*
X006293Y006325D03*
X006137Y006820D03*
X006134Y006820D03*
D834*
X005627Y006811D03*
X005951Y005863D03*
X005954Y005863D03*
X005963Y005863D03*
X005966Y005866D03*
X005969Y005866D03*
X006338Y005605D03*
X006374Y005065D03*
X005558Y003310D03*
X006356Y002293D03*
X005567Y007828D03*
D835*
X005558Y006082D03*
X005804Y005917D03*
X006374Y003367D03*
D836*
X005951Y003378D03*
X006374Y002295D03*
X005636Y005598D03*
X005633Y005598D03*
X005684Y006387D03*
X006248Y007272D03*
D837*
X006371Y008626D03*
X006047Y008710D03*
X006281Y005080D03*
X005618Y004144D03*
X006326Y002290D03*
D838*
X006254Y002523D03*
X006137Y005607D03*
X006371Y008052D03*
D839*
X006368Y008049D03*
X006371Y007458D03*
X005576Y007473D03*
X006131Y005607D03*
X005666Y004362D03*
X005639Y003501D03*
X005672Y002511D03*
X006248Y002529D03*
D840*
X006371Y006816D03*
D841*
X006182Y007273D03*
X005783Y006391D03*
X005549Y005599D03*
X006368Y005605D03*
X006371Y005605D03*
X005567Y003313D03*
X005582Y002275D03*
X006302Y008671D03*
X006299Y008674D03*
X006296Y008674D03*
X006167Y008710D03*
X006164Y008710D03*
X006161Y008710D03*
D842*
X005564Y007830D03*
X006212Y007272D03*
X005957Y005862D03*
X005579Y005598D03*
X006368Y005067D03*
X006371Y005067D03*
D843*
X006293Y005607D03*
X005867Y005892D03*
X005864Y005895D03*
X005861Y005895D03*
X005627Y005598D03*
X005624Y005598D03*
X005693Y006387D03*
X005663Y006813D03*
X005618Y007800D03*
X006218Y008205D03*
X006371Y002295D03*
D844*
X006311Y003360D03*
X005579Y003318D03*
X005561Y005031D03*
X005558Y005031D03*
X006284Y005082D03*
X005588Y006810D03*
X005804Y007269D03*
X005807Y007269D03*
X006128Y007272D03*
X006131Y007272D03*
X006134Y007272D03*
X006368Y008628D03*
D845*
X006368Y007461D03*
D846*
X006368Y006817D03*
X005951Y008677D03*
X005564Y008662D03*
D847*
X005636Y008215D03*
X005648Y007267D03*
X006113Y006820D03*
X006116Y006820D03*
X006119Y006820D03*
X006122Y006820D03*
X006368Y006037D03*
X006332Y006013D03*
X006182Y005608D03*
X005747Y004474D03*
X005678Y003961D03*
X005681Y003958D03*
X006002Y003496D03*
X006209Y003058D03*
X006176Y002623D03*
X005768Y002623D03*
X005702Y002047D03*
X005714Y002038D03*
D848*
X005546Y003306D03*
X005561Y004140D03*
X006368Y003366D03*
X006287Y005607D03*
X005852Y005898D03*
X005543Y006102D03*
X005687Y006387D03*
X005666Y006813D03*
X006263Y006819D03*
X005627Y007797D03*
X005666Y008229D03*
X006023Y008166D03*
X006224Y008208D03*
D849*
X006203Y008203D03*
X006047Y008176D03*
X006044Y008176D03*
X006272Y006313D03*
X005567Y004141D03*
X006368Y002293D03*
D850*
X006365Y008631D03*
D851*
X006365Y008047D03*
X005630Y006385D03*
D852*
X005630Y006015D03*
X005645Y006003D03*
X005675Y005985D03*
X005675Y004440D03*
X006365Y007758D03*
D853*
X006365Y007464D03*
X005585Y007479D03*
D854*
X006365Y006816D03*
D855*
X005825Y006816D03*
X006365Y006033D03*
X005750Y004476D03*
X006005Y003501D03*
X005720Y002034D03*
D856*
X006335Y003364D03*
X006365Y005605D03*
X006260Y008689D03*
X006200Y008704D03*
D857*
X006305Y006819D03*
X006365Y005067D03*
D858*
X006365Y003366D03*
X006035Y008172D03*
D859*
X006140Y005607D03*
X006365Y002655D03*
X006260Y002517D03*
D860*
X006365Y002293D03*
X005570Y004141D03*
X005645Y006811D03*
X006230Y007273D03*
X006185Y008200D03*
D861*
X006299Y008224D03*
X006362Y008044D03*
X006122Y005605D03*
X005792Y005596D03*
X005642Y003505D03*
D862*
X006119Y005605D03*
X006362Y007465D03*
X006359Y008041D03*
X005588Y007480D03*
D863*
X006089Y006820D03*
X006092Y006820D03*
X006362Y006028D03*
X006344Y006016D03*
X005744Y005596D03*
X005768Y004480D03*
X005771Y004480D03*
X005774Y004480D03*
X005699Y003946D03*
X005708Y003940D03*
X005711Y003940D03*
X006023Y003520D03*
X006248Y003544D03*
X006254Y003541D03*
X005669Y003091D03*
X005666Y003094D03*
X005789Y002629D03*
X005792Y002629D03*
X006152Y002629D03*
X006212Y002041D03*
X006206Y002038D03*
X005762Y002011D03*
X005756Y002014D03*
X005744Y002020D03*
D864*
X005564Y003313D03*
X005591Y004144D03*
X006341Y005071D03*
X006344Y005071D03*
X006359Y005605D03*
X006362Y005605D03*
X005768Y006391D03*
X005612Y006811D03*
X006191Y007273D03*
X006194Y007273D03*
D865*
X006206Y007273D03*
X005621Y006811D03*
X006347Y005605D03*
X006359Y005068D03*
X006362Y005068D03*
X006344Y003364D03*
X006353Y002293D03*
D866*
X006362Y003367D03*
X005891Y005884D03*
X005888Y005884D03*
X005672Y008230D03*
D867*
X006359Y008635D03*
X005876Y006397D03*
X005873Y006397D03*
X005867Y006397D03*
X005864Y006397D03*
X006293Y005080D03*
X005552Y005029D03*
X005549Y005029D03*
X005612Y004144D03*
D868*
X005801Y005596D03*
X005591Y007483D03*
X006359Y007468D03*
D869*
X006059Y008181D03*
X006056Y008181D03*
X006191Y008202D03*
X006194Y008202D03*
X005903Y005880D03*
X005606Y005598D03*
X006311Y005607D03*
X006359Y003366D03*
X005561Y002274D03*
D870*
X006317Y003361D03*
X005609Y004144D03*
X006299Y005077D03*
X006302Y005077D03*
X005846Y006397D03*
X005789Y007267D03*
X006152Y007273D03*
X006356Y008638D03*
X006353Y008641D03*
X006083Y008713D03*
X006077Y008713D03*
D871*
X006338Y007759D03*
X006341Y007759D03*
X006344Y007759D03*
X006347Y007759D03*
X006353Y007759D03*
X006356Y007759D03*
X006212Y006820D03*
X005612Y006028D03*
X005624Y006019D03*
X005627Y006016D03*
X005636Y006010D03*
X005672Y005986D03*
X005681Y005980D03*
X005693Y005974D03*
X005696Y005971D03*
X005702Y005968D03*
X005678Y005596D03*
X005633Y002131D03*
D872*
X005594Y007485D03*
X006356Y007470D03*
D873*
X006356Y006817D03*
X005624Y005050D03*
X005621Y008689D03*
X005618Y008689D03*
D874*
X005552Y007453D03*
X006071Y006820D03*
X006074Y006820D03*
X006077Y006820D03*
X005636Y006385D03*
X006353Y006016D03*
X006356Y006019D03*
X006167Y005605D03*
X005789Y004483D03*
X005786Y004483D03*
X005783Y004483D03*
X005723Y003934D03*
X005726Y003931D03*
X005729Y003931D03*
X005744Y003925D03*
X006044Y003535D03*
X006032Y003526D03*
X006233Y003550D03*
X006236Y003550D03*
X006299Y003199D03*
X006176Y003049D03*
X006173Y003049D03*
X005678Y003085D03*
X006287Y002479D03*
X006191Y002029D03*
X006188Y002026D03*
X006182Y002023D03*
X006176Y002020D03*
X005801Y001996D03*
X005792Y001999D03*
X005789Y001999D03*
X005777Y002005D03*
D875*
X006356Y005605D03*
X005759Y006391D03*
X006197Y007273D03*
D876*
X006203Y007273D03*
X005618Y006811D03*
X006356Y005068D03*
X005879Y003166D03*
D877*
X006356Y003366D03*
X005573Y004143D03*
X005597Y005598D03*
X005921Y005874D03*
X005582Y007818D03*
X006083Y008187D03*
X006086Y008187D03*
X006173Y008199D03*
X006176Y008199D03*
D878*
X006353Y008037D03*
X005804Y005598D03*
D879*
X006353Y007473D03*
X005648Y003513D03*
D880*
X005588Y004143D03*
X006341Y003363D03*
X006353Y005070D03*
X005564Y005598D03*
X005753Y006390D03*
X005756Y006390D03*
D881*
X005933Y005869D03*
X005936Y005869D03*
X006326Y005605D03*
X006329Y005605D03*
X005717Y007267D03*
X005576Y007822D03*
X006128Y008194D03*
X006131Y008194D03*
X006134Y008194D03*
X006137Y008194D03*
X006143Y008194D03*
X006146Y008194D03*
X006353Y003364D03*
D882*
X005840Y006396D03*
X006155Y007272D03*
X006350Y008643D03*
D883*
X006350Y008035D03*
D884*
X006350Y007759D03*
X006335Y007759D03*
X005720Y006814D03*
X005660Y006385D03*
X005690Y005974D03*
X006275Y003094D03*
D885*
X006350Y007474D03*
D886*
X006050Y007267D03*
X005885Y007267D03*
X006350Y006817D03*
D887*
X006350Y005605D03*
D888*
X006350Y005070D03*
D889*
X005585Y005598D03*
X006350Y003366D03*
D890*
X006350Y002293D03*
X005615Y006811D03*
D891*
X005603Y007489D03*
X005627Y008209D03*
X006347Y008035D03*
X006104Y005605D03*
D892*
X006347Y007476D03*
X005606Y007491D03*
X005651Y003516D03*
D893*
X006317Y002290D03*
X006347Y006817D03*
X006092Y007270D03*
X006089Y007270D03*
X005849Y007267D03*
X005846Y007267D03*
X005843Y007267D03*
X006023Y008704D03*
D894*
X005729Y007267D03*
X006341Y005605D03*
X006344Y005605D03*
X006347Y003364D03*
D895*
X006347Y002292D03*
X005549Y007845D03*
X006209Y008703D03*
X006212Y008703D03*
X006218Y008700D03*
X006221Y008700D03*
X006224Y008700D03*
X006227Y008700D03*
X006233Y008697D03*
X006236Y008697D03*
X006263Y008688D03*
D896*
X006344Y008032D03*
X005609Y007492D03*
D897*
X005831Y007267D03*
X006101Y007270D03*
X006104Y007270D03*
X006107Y007270D03*
X006344Y006817D03*
X006269Y005083D03*
X005579Y005035D03*
X006029Y008707D03*
D898*
X006338Y008029D03*
X006341Y007480D03*
X006092Y005605D03*
X005654Y003520D03*
D899*
X005567Y005034D03*
X006341Y006819D03*
X005819Y007269D03*
X005816Y007269D03*
X006041Y008709D03*
X006044Y008709D03*
D900*
X006287Y007272D03*
X006341Y006015D03*
X006176Y005607D03*
X006173Y005607D03*
X005741Y005598D03*
X005696Y003948D03*
X005702Y003945D03*
X005627Y003480D03*
X006017Y003513D03*
X006257Y003540D03*
X006161Y002628D03*
X006158Y002628D03*
X005786Y002628D03*
X005783Y002628D03*
X005732Y002028D03*
X005738Y002025D03*
X005741Y002022D03*
X006224Y002052D03*
D901*
X006341Y002292D03*
X005888Y003183D03*
X006329Y003363D03*
X005798Y006393D03*
X005792Y006393D03*
X005603Y006810D03*
X006134Y008712D03*
X006137Y008712D03*
X006143Y008712D03*
D902*
X006338Y007482D03*
X005618Y007497D03*
X005822Y005598D03*
D903*
X006338Y006817D03*
D904*
X006338Y006013D03*
X005738Y005596D03*
X005633Y004306D03*
X005534Y004138D03*
X006014Y003511D03*
X006011Y003508D03*
X006164Y002626D03*
X006167Y002626D03*
X005777Y002626D03*
X005774Y002626D03*
X006227Y002053D03*
D905*
X006338Y005071D03*
X005774Y006391D03*
X005771Y006391D03*
X006188Y007273D03*
X006272Y008683D03*
X006269Y008686D03*
X006266Y008686D03*
D906*
X006335Y008653D03*
X006110Y008713D03*
D907*
X006335Y008028D03*
D908*
X006335Y007483D03*
X005825Y005596D03*
D909*
X005870Y006397D03*
X006335Y006817D03*
X005795Y007267D03*
D910*
X006335Y006013D03*
X005780Y002626D03*
X006230Y002056D03*
D911*
X005885Y003177D03*
X006335Y005073D03*
X006320Y006819D03*
X006185Y008706D03*
D912*
X005825Y006394D03*
X006305Y005077D03*
X006335Y002290D03*
D913*
X006332Y008026D03*
D914*
X006332Y007761D03*
X006329Y007761D03*
X006326Y007761D03*
X006323Y007761D03*
X006317Y007761D03*
X006314Y007761D03*
X006311Y007761D03*
X006308Y007761D03*
X006302Y007761D03*
X006299Y007761D03*
X006296Y007761D03*
X006293Y007761D03*
X006287Y007761D03*
X006284Y007761D03*
X005987Y008136D03*
X005717Y006813D03*
X005603Y006036D03*
X005606Y006033D03*
X005618Y006024D03*
X005699Y005970D03*
X005708Y005964D03*
X005711Y005964D03*
X006239Y005607D03*
X006242Y005607D03*
X005621Y003168D03*
D915*
X006332Y007485D03*
X006329Y008025D03*
D916*
X006086Y008712D03*
X005786Y007269D03*
X005783Y007269D03*
X006332Y006819D03*
X005843Y006396D03*
X005837Y006396D03*
X005834Y006396D03*
X005831Y006396D03*
X005894Y003192D03*
D917*
X006332Y003363D03*
X005597Y004143D03*
X006329Y005073D03*
X005546Y005598D03*
X005786Y006393D03*
X005789Y006393D03*
X006323Y006819D03*
X005762Y007269D03*
X005759Y007269D03*
X006149Y008712D03*
X006152Y008712D03*
X006158Y008712D03*
X006311Y008667D03*
D918*
X006326Y008659D03*
X006329Y008656D03*
X006131Y008713D03*
X006128Y008713D03*
X006122Y008713D03*
X006119Y008713D03*
X006173Y007273D03*
X005801Y006394D03*
D919*
X006083Y005605D03*
X005831Y005596D03*
X005624Y007498D03*
X006329Y007486D03*
X006326Y008023D03*
D920*
X005816Y006816D03*
X005813Y006816D03*
X005807Y006816D03*
X006329Y006012D03*
X005732Y005598D03*
X005741Y004473D03*
X005744Y004473D03*
X005672Y003966D03*
X006278Y003522D03*
X005648Y003111D03*
X005759Y002622D03*
X005762Y002622D03*
X006179Y002622D03*
X006182Y002622D03*
X006293Y002466D03*
X006254Y002079D03*
X006251Y002076D03*
X006248Y002073D03*
X005699Y002049D03*
X005696Y002052D03*
D921*
X006329Y002292D03*
X005897Y003198D03*
X006314Y003360D03*
X005591Y006810D03*
X006137Y007272D03*
X006143Y007272D03*
X006062Y008712D03*
D922*
X006323Y008022D03*
X006326Y007488D03*
X005633Y007269D03*
X005834Y005598D03*
D923*
X006326Y006817D03*
X005768Y007267D03*
D924*
X006323Y008661D03*
X006317Y008664D03*
D925*
X006323Y007489D03*
X006077Y005605D03*
D926*
X005597Y006810D03*
X006161Y007272D03*
X006101Y008715D03*
X006098Y008715D03*
X006323Y003363D03*
D927*
X005903Y003205D03*
X005582Y003319D03*
X005621Y004144D03*
X005573Y005035D03*
X005822Y007267D03*
X006038Y008707D03*
X006323Y002290D03*
D928*
X006320Y008662D03*
D929*
X006320Y008020D03*
D930*
X006320Y007761D03*
X006305Y007761D03*
X006290Y007761D03*
X006260Y008214D03*
X006215Y006819D03*
X005705Y005967D03*
X005615Y006027D03*
D931*
X006320Y007491D03*
D932*
X006140Y006820D03*
X005795Y006814D03*
X006320Y006010D03*
X005660Y003976D03*
D933*
X006320Y005605D03*
X005915Y005875D03*
D934*
X006320Y003360D03*
D935*
X006320Y002290D03*
X006110Y007270D03*
D936*
X006299Y007273D03*
X005636Y007504D03*
X006317Y008020D03*
X006074Y005605D03*
X006071Y005605D03*
X005843Y005596D03*
X005663Y003526D03*
D937*
X006317Y007492D03*
D938*
X006317Y006819D03*
X006254Y008691D03*
X006251Y008691D03*
X006248Y008694D03*
X006242Y008694D03*
X005579Y002274D03*
D939*
X005603Y005598D03*
X005912Y005877D03*
X006317Y005607D03*
X006269Y006312D03*
X005711Y006387D03*
X005588Y007815D03*
D940*
X005639Y007506D03*
X005642Y007506D03*
X006314Y007494D03*
X006314Y008019D03*
X006068Y005607D03*
D941*
X006311Y008017D03*
D942*
X006311Y007495D03*
X005846Y005596D03*
X005666Y003529D03*
D943*
X005576Y002274D03*
X006311Y006819D03*
X005741Y007269D03*
D944*
X005783Y006816D03*
X006311Y006009D03*
X005717Y004464D03*
X005654Y003984D03*
X005984Y003471D03*
X006293Y003504D03*
X006236Y003069D03*
X006233Y003069D03*
X006203Y002616D03*
X005666Y002079D03*
D945*
X006176Y007273D03*
X006179Y007273D03*
X006308Y008668D03*
D946*
X006308Y008016D03*
X005648Y007509D03*
D947*
X006308Y007497D03*
X005849Y005598D03*
D948*
X006308Y006819D03*
X005558Y007836D03*
X005561Y003312D03*
X005573Y002274D03*
D949*
X005627Y002434D03*
X006206Y002614D03*
X005714Y004462D03*
X006308Y006007D03*
X006158Y006820D03*
X005777Y006814D03*
X005774Y006814D03*
D950*
X005612Y005046D03*
X005618Y002274D03*
X006308Y002289D03*
X005996Y008697D03*
X005603Y008691D03*
D951*
X006305Y008670D03*
D952*
X006305Y008014D03*
D953*
X006305Y007498D03*
D954*
X006155Y006820D03*
X005645Y006385D03*
X006305Y006007D03*
X006275Y002104D03*
D955*
X006305Y005605D03*
D956*
X006275Y006001D03*
X006305Y003478D03*
D957*
X006305Y003219D03*
X005750Y002619D03*
D958*
X006305Y002289D03*
X005990Y008694D03*
X005615Y008691D03*
D959*
X006302Y008013D03*
X005657Y007512D03*
X006059Y005607D03*
D960*
X006299Y007500D03*
X006302Y007500D03*
D961*
X006302Y006819D03*
X005876Y003159D03*
D962*
X006239Y003072D03*
X006296Y003501D03*
X005648Y003993D03*
X005711Y004461D03*
X006203Y005607D03*
X006302Y006006D03*
X005972Y008112D03*
X006209Y002613D03*
X006299Y002448D03*
X006278Y002109D03*
D963*
X005558Y002274D03*
X006302Y005607D03*
X005699Y006387D03*
X005654Y006813D03*
X005606Y007806D03*
X005603Y007806D03*
D964*
X005621Y003457D03*
X006302Y003487D03*
X005708Y002602D03*
X005537Y002272D03*
D965*
X005672Y003532D03*
X005858Y005596D03*
X006056Y005605D03*
X006296Y007501D03*
X006299Y008011D03*
X005663Y007513D03*
D966*
X005723Y007269D03*
X006299Y006819D03*
X006263Y006312D03*
X005972Y005868D03*
X005948Y005865D03*
X005582Y005598D03*
X005732Y006390D03*
X005579Y004143D03*
D967*
X005672Y004368D03*
X005789Y005598D03*
X006299Y006330D03*
D968*
X005882Y005887D03*
X005879Y005887D03*
X006299Y005605D03*
X005618Y005596D03*
X005657Y006811D03*
X005699Y007267D03*
X006239Y007273D03*
X005609Y007804D03*
X006038Y008173D03*
X006209Y008203D03*
X005549Y003307D03*
X005867Y003133D03*
D969*
X006299Y003495D03*
X006218Y002610D03*
D970*
X006299Y002158D03*
X005669Y005596D03*
X005591Y006046D03*
D971*
X005861Y005598D03*
X006053Y005607D03*
X006293Y007503D03*
X006296Y008013D03*
D972*
X006296Y007272D03*
D973*
X006269Y006820D03*
X005696Y007267D03*
X006032Y008170D03*
X005873Y005890D03*
X006296Y005605D03*
D974*
X005864Y005596D03*
X005672Y007516D03*
X005669Y007516D03*
X006293Y008011D03*
D975*
X006293Y007270D03*
X005639Y007267D03*
X005663Y002500D03*
D976*
X005780Y006391D03*
X006185Y007273D03*
X006290Y008677D03*
X006170Y008710D03*
D977*
X006290Y008010D03*
X005675Y007518D03*
D978*
X006290Y007504D03*
X006050Y005605D03*
X005675Y003535D03*
D979*
X005795Y003912D03*
X005810Y003909D03*
X006095Y003558D03*
X006155Y003567D03*
X006170Y003567D03*
X006185Y003564D03*
X005705Y003069D03*
X005840Y002637D03*
X006110Y002637D03*
X006095Y001989D03*
X006080Y001986D03*
X006065Y001983D03*
X006035Y001977D03*
X006005Y001974D03*
X005990Y001974D03*
X005975Y001974D03*
X005945Y001974D03*
X005930Y001974D03*
X005915Y001974D03*
X005885Y001977D03*
X005825Y004488D03*
X005810Y004488D03*
X006035Y006819D03*
X006290Y007272D03*
D980*
X006290Y006819D03*
X006080Y008187D03*
X006170Y008199D03*
D981*
X006290Y006322D03*
X005645Y002107D03*
D982*
X006215Y005605D03*
X006290Y006004D03*
X005750Y006814D03*
D983*
X005690Y006388D03*
X006275Y006316D03*
X006290Y005605D03*
X006245Y007273D03*
D984*
X006290Y005080D03*
X005555Y005029D03*
X005615Y004144D03*
D985*
X005630Y004293D03*
X005990Y003480D03*
X006290Y003510D03*
X005675Y002070D03*
D986*
X006290Y003181D03*
X005645Y004333D03*
D987*
X005690Y004450D03*
X006185Y006820D03*
X006290Y002131D03*
D988*
X006173Y002625D03*
X005771Y002625D03*
X005654Y003105D03*
X005711Y002040D03*
X006287Y008220D03*
D989*
X006287Y008008D03*
X006284Y008008D03*
X005681Y007519D03*
X005678Y007519D03*
X005867Y005596D03*
X005678Y003538D03*
D990*
X006287Y007504D03*
D991*
X005711Y007267D03*
X006287Y006820D03*
X005918Y005875D03*
X006074Y008185D03*
X006077Y008185D03*
X006179Y008200D03*
D992*
X006263Y008214D03*
X006287Y006321D03*
X005684Y005979D03*
X005666Y005991D03*
X005663Y005991D03*
X005642Y006006D03*
X005639Y006009D03*
X005963Y003426D03*
X005681Y002589D03*
D993*
X006287Y005080D03*
X006059Y008710D03*
X006056Y008710D03*
X006053Y008710D03*
D994*
X005564Y007462D03*
X006278Y003037D03*
X006281Y003037D03*
X006284Y003037D03*
X006287Y003037D03*
D995*
X006284Y007506D03*
D996*
X006263Y007272D03*
X006227Y006819D03*
X006284Y006321D03*
X005747Y005946D03*
X005744Y005946D03*
X005582Y006054D03*
X005666Y005598D03*
X006251Y005607D03*
X005762Y007767D03*
X005759Y007767D03*
X005756Y007767D03*
X005753Y007767D03*
X005993Y008142D03*
D997*
X006272Y008217D03*
X006284Y006003D03*
X006218Y005607D03*
X005699Y005598D03*
X005693Y004452D03*
X005639Y004008D03*
X005972Y003447D03*
X006257Y003081D03*
D998*
X006284Y003516D03*
X005996Y003489D03*
X005993Y003486D03*
X005624Y003471D03*
X005642Y006384D03*
X005798Y006816D03*
X005801Y006816D03*
D999*
X006284Y003172D03*
D1000*
X006206Y003561D03*
X006041Y003534D03*
X005759Y003921D03*
X005747Y003924D03*
X005684Y003081D03*
X005813Y002634D03*
X005816Y002634D03*
X005819Y002634D03*
X005639Y002466D03*
X006128Y002634D03*
X006131Y002634D03*
X006284Y002484D03*
X006173Y002019D03*
X006167Y002016D03*
X006131Y002001D03*
X005837Y001986D03*
X005828Y001989D03*
X005822Y001989D03*
X006068Y006819D03*
D1001*
X005753Y007267D03*
X006197Y008704D03*
X006203Y008704D03*
X006206Y008704D03*
X006239Y008695D03*
X006257Y008689D03*
X006281Y008680D03*
X005552Y005599D03*
D1002*
X005723Y004465D03*
X005987Y003475D03*
X005738Y002614D03*
X005672Y002074D03*
X005786Y006814D03*
X006146Y006820D03*
X006149Y006820D03*
X006152Y006820D03*
X006281Y008218D03*
X005639Y008215D03*
D1003*
X005819Y007762D03*
X005822Y007762D03*
X005828Y007762D03*
X005831Y007762D03*
X005834Y007762D03*
X005837Y007762D03*
X005843Y007762D03*
X005846Y007762D03*
X005849Y007762D03*
X005852Y007762D03*
X005858Y007762D03*
X005861Y007762D03*
X005864Y007762D03*
X005867Y007762D03*
X005873Y007762D03*
X005876Y007762D03*
X005879Y007762D03*
X005882Y007762D03*
X005888Y007762D03*
X005891Y007762D03*
X005894Y007762D03*
X005897Y007762D03*
X005903Y007762D03*
X005906Y007762D03*
X005909Y007762D03*
X005912Y007762D03*
X005918Y007762D03*
X005921Y007762D03*
X005924Y007762D03*
X005927Y007762D03*
X005933Y007762D03*
X005936Y007762D03*
X005939Y007762D03*
X005942Y007762D03*
X005948Y007762D03*
X005951Y007762D03*
X005954Y007762D03*
X005957Y007762D03*
X005963Y007762D03*
X005966Y007762D03*
X005969Y007762D03*
X005972Y007762D03*
X005978Y007762D03*
X005981Y007762D03*
X005984Y007762D03*
X005987Y007762D03*
X005993Y007762D03*
X005996Y007762D03*
X005999Y007762D03*
X006002Y007762D03*
X006008Y007762D03*
X006011Y007762D03*
X006014Y007762D03*
X006017Y007762D03*
X006023Y007762D03*
X006026Y007762D03*
X006029Y007762D03*
X006032Y007762D03*
X006038Y007762D03*
X006041Y007762D03*
X006044Y007762D03*
X006047Y007762D03*
X006053Y007762D03*
X006056Y007762D03*
X006059Y007762D03*
X006062Y007762D03*
X006068Y007762D03*
X006071Y007762D03*
X006074Y007762D03*
X006077Y007762D03*
X006083Y007762D03*
X006086Y007762D03*
X006089Y007762D03*
X006092Y007762D03*
X006098Y007762D03*
X006101Y007762D03*
X006104Y007762D03*
X006107Y007762D03*
X006113Y007762D03*
X006116Y007762D03*
X006119Y007762D03*
X006122Y007762D03*
X006128Y007762D03*
X006131Y007762D03*
X006134Y007762D03*
X006137Y007762D03*
X006143Y007762D03*
X006146Y007762D03*
X006149Y007762D03*
X006152Y007762D03*
X006158Y007762D03*
X006161Y007762D03*
X006164Y007762D03*
X006167Y007762D03*
X006173Y007762D03*
X006176Y007762D03*
X006179Y007762D03*
X006182Y007762D03*
X006188Y007762D03*
X006191Y007762D03*
X006194Y007762D03*
X006197Y007762D03*
X006203Y007762D03*
X006206Y007762D03*
X006209Y007762D03*
X006212Y007762D03*
X006218Y007762D03*
X006221Y007762D03*
X006224Y007762D03*
X006227Y007762D03*
X006233Y007762D03*
X006236Y007762D03*
X006239Y007762D03*
X006242Y007762D03*
X006248Y007762D03*
X006251Y007762D03*
X006254Y007762D03*
X006257Y007762D03*
X006263Y007762D03*
X006266Y007762D03*
X006269Y007762D03*
X006272Y007762D03*
X006278Y007762D03*
X006281Y007762D03*
X005714Y005962D03*
X005543Y002272D03*
D1004*
X006278Y007507D03*
X006281Y007507D03*
D1005*
X005678Y007266D03*
X005687Y006813D03*
X006281Y006318D03*
X006266Y005607D03*
X005654Y005598D03*
X005561Y006078D03*
X005684Y007779D03*
X005687Y007779D03*
X006002Y008151D03*
D1006*
X006188Y006820D03*
X005747Y006814D03*
X005744Y006814D03*
X006278Y006001D03*
X006281Y006001D03*
X005696Y005596D03*
X005702Y002599D03*
D1007*
X006281Y005605D03*
X005834Y005905D03*
X005546Y006097D03*
X006257Y006820D03*
X005687Y007267D03*
X005642Y007789D03*
X005663Y008227D03*
D1008*
X005783Y003915D03*
X005786Y003915D03*
X006083Y003555D03*
X006086Y003555D03*
X006146Y003045D03*
X006149Y003045D03*
X006152Y003045D03*
X006281Y002490D03*
X006113Y001995D03*
X006056Y001980D03*
X006053Y001980D03*
X006047Y001980D03*
X006044Y001980D03*
X006041Y001980D03*
X005867Y001980D03*
D1009*
X006278Y006819D03*
X005702Y007269D03*
X005597Y007809D03*
D1010*
X006017Y008161D03*
X005672Y006811D03*
X006278Y006316D03*
X005864Y003121D03*
D1011*
X005639Y005598D03*
X005831Y005907D03*
X005837Y005904D03*
X005681Y006387D03*
X006278Y005607D03*
X006251Y007272D03*
X005651Y007788D03*
X005648Y007788D03*
X006233Y008208D03*
D1012*
X005777Y005596D03*
X006278Y003163D03*
D1013*
X006275Y008683D03*
X006215Y008701D03*
D1014*
X006275Y008217D03*
X005975Y008118D03*
X005705Y005598D03*
D1015*
X005825Y007762D03*
X005840Y007762D03*
X005855Y007762D03*
X005870Y007762D03*
X005885Y007762D03*
X005900Y007762D03*
X005915Y007762D03*
X005930Y007762D03*
X005945Y007762D03*
X005960Y007762D03*
X005975Y007762D03*
X005990Y007762D03*
X006005Y007762D03*
X006020Y007762D03*
X006035Y007762D03*
X006050Y007762D03*
X006065Y007762D03*
X006080Y007762D03*
X006095Y007762D03*
X006110Y007762D03*
X006125Y007762D03*
X006140Y007762D03*
X006155Y007762D03*
X006170Y007762D03*
X006185Y007762D03*
X006200Y007762D03*
X006215Y007762D03*
X006230Y007762D03*
X006245Y007762D03*
X006260Y007762D03*
X006275Y007762D03*
D1016*
X006275Y006819D03*
X005885Y005886D03*
X005615Y005598D03*
D1017*
X005825Y005908D03*
X006275Y005605D03*
D1018*
X006275Y005083D03*
X005585Y006808D03*
D1019*
X005735Y005596D03*
X006275Y003526D03*
X005765Y002623D03*
X005705Y002044D03*
X006245Y002068D03*
D1020*
X005621Y005598D03*
X005876Y005889D03*
X005696Y006387D03*
X006272Y006819D03*
X005612Y007803D03*
X005669Y008229D03*
D1021*
X006269Y006000D03*
X006272Y006000D03*
X005693Y002595D03*
D1022*
X005543Y003304D03*
X006272Y005605D03*
X005813Y005914D03*
X005678Y006385D03*
X006248Y006820D03*
X005681Y007267D03*
X006008Y008155D03*
X006239Y008209D03*
D1023*
X006149Y005607D03*
X005633Y003492D03*
X006272Y002502D03*
D1024*
X006269Y005607D03*
X005648Y005598D03*
X005684Y006813D03*
X005672Y007782D03*
D1025*
X006266Y008215D03*
X006209Y006820D03*
X006206Y006820D03*
X005726Y006814D03*
X005657Y006385D03*
X005684Y002590D03*
D1026*
X006242Y002596D03*
X006266Y003088D03*
X005966Y003433D03*
X005681Y004444D03*
X005687Y005596D03*
X006266Y005998D03*
X005732Y006814D03*
D1027*
X005582Y006810D03*
X003782Y006870D03*
X006266Y005085D03*
X005906Y003210D03*
D1028*
X006197Y003055D03*
X006266Y003532D03*
X006263Y003535D03*
X005693Y003949D03*
X005756Y004477D03*
X005759Y004477D03*
X005639Y006385D03*
X005828Y006817D03*
X006098Y006820D03*
X006101Y006820D03*
X006104Y006820D03*
X006107Y006820D03*
X006233Y002059D03*
X005729Y002029D03*
X005726Y002032D03*
X005723Y002032D03*
D1029*
X005684Y002062D03*
X005744Y002617D03*
X005747Y002617D03*
X006266Y002092D03*
D1030*
X005861Y003109D03*
X006263Y005605D03*
X005792Y005923D03*
X005789Y005923D03*
X005786Y005926D03*
X005564Y006073D03*
X005672Y006385D03*
X006239Y006820D03*
D1031*
X006263Y002514D03*
D1032*
X006260Y006820D03*
X006020Y008164D03*
D1033*
X006260Y006310D03*
D1034*
X006260Y005085D03*
D1035*
X006260Y003084D03*
X005660Y007266D03*
D1036*
X005735Y004470D03*
X005630Y002445D03*
X006260Y002085D03*
D1037*
X006248Y005605D03*
X005741Y005947D03*
X005588Y006049D03*
X005708Y006814D03*
X006221Y006820D03*
X006224Y006820D03*
X005789Y007765D03*
X005786Y007765D03*
X005783Y007765D03*
X005777Y007765D03*
X005774Y007765D03*
X005771Y007765D03*
X005768Y007765D03*
X006257Y008212D03*
D1038*
X006257Y006190D03*
D1039*
X005774Y005932D03*
X005771Y005932D03*
X005573Y006064D03*
X005669Y006385D03*
X006233Y006820D03*
X005714Y007774D03*
X005711Y007774D03*
X005708Y007774D03*
X005654Y008224D03*
X006251Y008212D03*
X006257Y005605D03*
D1040*
X005819Y005913D03*
X005816Y005913D03*
X005642Y005598D03*
X005678Y006813D03*
X005681Y006813D03*
X006251Y006819D03*
X006254Y007272D03*
D1041*
X006254Y006192D03*
X006083Y005124D03*
X005798Y005103D03*
X005903Y008637D03*
D1042*
X005699Y006813D03*
X005762Y005937D03*
X005768Y005934D03*
X005663Y005598D03*
X006254Y005607D03*
D1043*
X006251Y006193D03*
X005801Y005104D03*
D1044*
X006251Y005086D03*
X005576Y006808D03*
X006008Y008701D03*
D1045*
X006212Y005607D03*
X005699Y004455D03*
X006251Y003078D03*
X006224Y002607D03*
X005648Y002103D03*
D1046*
X006248Y006193D03*
D1047*
X006248Y005088D03*
X005603Y005043D03*
X006002Y008700D03*
D1048*
X005642Y008218D03*
X005708Y005596D03*
X005702Y004456D03*
X006248Y003076D03*
X006221Y002608D03*
X005651Y002098D03*
D1049*
X005750Y007269D03*
X006245Y008694D03*
D1050*
X006245Y008211D03*
X005690Y006813D03*
X005795Y005922D03*
D1051*
X005810Y005916D03*
X006245Y006819D03*
X006005Y008154D03*
D1052*
X006245Y006195D03*
D1053*
X006245Y005607D03*
D1054*
X006245Y005088D03*
X006005Y008700D03*
D1055*
X005855Y006816D03*
X006170Y005607D03*
X005780Y004482D03*
X005720Y003936D03*
X006245Y003546D03*
X006185Y003051D03*
X005795Y002631D03*
X005675Y003087D03*
X005765Y002010D03*
X005780Y002004D03*
X006200Y002034D03*
D1056*
X006245Y003075D03*
X005540Y004140D03*
D1057*
X006245Y002595D03*
D1058*
X005549Y002274D03*
X005807Y005916D03*
X006242Y008211D03*
D1059*
X006242Y007273D03*
D1060*
X006242Y006196D03*
X006062Y005128D03*
X006059Y005128D03*
X005828Y005113D03*
X005894Y008626D03*
D1061*
X005867Y006817D03*
X005864Y006817D03*
X005861Y006817D03*
X006038Y003532D03*
X006242Y003547D03*
X005681Y003082D03*
X005804Y002632D03*
X005807Y002632D03*
X006134Y002632D03*
X006137Y002632D03*
X006197Y002032D03*
X005786Y002002D03*
X005783Y002002D03*
D1062*
X005831Y005113D03*
X006053Y005131D03*
X006239Y006196D03*
X005528Y008599D03*
D1063*
X005591Y008689D03*
X005606Y008689D03*
X005609Y008689D03*
X005612Y008689D03*
X005993Y008695D03*
X005573Y006808D03*
X005618Y005047D03*
X006236Y005089D03*
X006239Y005089D03*
X005594Y003322D03*
X005918Y003223D03*
D1064*
X005612Y005598D03*
X005894Y005883D03*
X005702Y006387D03*
X005651Y006813D03*
X006236Y007272D03*
D1065*
X006236Y006196D03*
D1066*
X006233Y006196D03*
D1067*
X006233Y005091D03*
X005621Y005049D03*
X005597Y003321D03*
X005621Y002274D03*
X005588Y008688D03*
X005987Y008694D03*
D1068*
X006233Y002602D03*
D1069*
X005555Y005598D03*
X006230Y008697D03*
D1070*
X006230Y008208D03*
D1071*
X006230Y006820D03*
X005540Y003304D03*
D1072*
X005855Y005121D03*
X006035Y005136D03*
X006230Y006198D03*
D1073*
X006230Y005607D03*
D1074*
X006230Y005092D03*
D1075*
X006230Y003067D03*
X006200Y002617D03*
D1076*
X005714Y006388D03*
X005642Y006811D03*
X005639Y006811D03*
X006227Y007273D03*
D1077*
X006227Y006198D03*
X006026Y005139D03*
X005867Y005127D03*
X005861Y005124D03*
D1078*
X006224Y005092D03*
X005981Y008692D03*
D1079*
X006107Y008191D03*
X006113Y008191D03*
X006116Y008191D03*
X006119Y008191D03*
X006122Y008191D03*
X006221Y007273D03*
X005633Y006811D03*
X005723Y006388D03*
X005576Y004141D03*
X005873Y003151D03*
D1080*
X005879Y005131D03*
X006014Y005140D03*
X006017Y005140D03*
X006221Y006199D03*
D1081*
X006221Y005607D03*
X005543Y004140D03*
X005699Y002598D03*
X005642Y002112D03*
D1082*
X005927Y003231D03*
X005618Y003306D03*
X005612Y003309D03*
X005633Y005052D03*
X005636Y005052D03*
X006221Y005094D03*
X005978Y008691D03*
X005639Y008688D03*
D1083*
X005549Y007449D03*
X005831Y006816D03*
X005834Y006816D03*
X005837Y006816D03*
X005762Y004479D03*
X005663Y003096D03*
X006194Y003054D03*
X006221Y002049D03*
X006218Y002046D03*
X005747Y002019D03*
D1084*
X005888Y005134D03*
X006218Y006199D03*
X005531Y006805D03*
D1085*
X006215Y008205D03*
D1086*
X006215Y006201D03*
D1087*
X006215Y005094D03*
X005930Y003234D03*
D1088*
X005690Y003078D03*
X006050Y003540D03*
X006215Y003558D03*
X006170Y003048D03*
X006155Y002010D03*
X005795Y004485D03*
X005750Y005598D03*
D1089*
X006215Y003061D03*
X005690Y002056D03*
D1090*
X005720Y002608D03*
X006215Y002611D03*
X005765Y006814D03*
D1091*
X005705Y003943D03*
X006155Y002629D03*
X006215Y002044D03*
D1092*
X005564Y004140D03*
X006212Y008205D03*
D1093*
X006212Y006201D03*
X005903Y005139D03*
D1094*
X006209Y005095D03*
X006212Y005095D03*
X005576Y008674D03*
D1095*
X005873Y006817D03*
X005876Y006817D03*
X005879Y006817D03*
X005882Y006817D03*
X005888Y006817D03*
X006047Y006820D03*
X006053Y006820D03*
X006056Y006820D03*
X006059Y006820D03*
X006062Y006820D03*
X005756Y003922D03*
X005753Y003922D03*
X005762Y003919D03*
X005768Y003919D03*
X006059Y003544D03*
X006071Y003550D03*
X006176Y003565D03*
X006179Y003565D03*
X006182Y003565D03*
X006194Y003562D03*
X006197Y003562D03*
X006203Y003562D03*
X006209Y003559D03*
X006212Y003559D03*
X005702Y003070D03*
X005822Y002635D03*
X005828Y002635D03*
X005831Y002635D03*
X006113Y002635D03*
X006116Y002635D03*
X006119Y002635D03*
X006122Y002635D03*
X006164Y002014D03*
X006143Y002005D03*
X006137Y002002D03*
X006134Y002002D03*
X006128Y001999D03*
X006098Y001990D03*
X006086Y001987D03*
X005849Y001984D03*
X005846Y001984D03*
X005843Y001984D03*
X005834Y001987D03*
X005831Y001987D03*
D1096*
X006212Y003060D03*
X005531Y003300D03*
X005966Y008100D03*
D1097*
X006209Y007273D03*
X005624Y006811D03*
X005738Y006388D03*
X005582Y004141D03*
D1098*
X006041Y008175D03*
X006206Y008205D03*
D1099*
X006206Y006201D03*
X006203Y006201D03*
X005978Y005151D03*
D1100*
X006206Y005095D03*
X005654Y005059D03*
X005564Y006808D03*
X005963Y008683D03*
D1101*
X006200Y008202D03*
X006050Y008178D03*
D1102*
X006200Y007273D03*
D1103*
X006200Y006820D03*
X005690Y002593D03*
X005540Y002272D03*
D1104*
X005930Y005148D03*
X006200Y006201D03*
X005540Y007707D03*
X003800Y006870D03*
D1105*
X006200Y005607D03*
D1106*
X006200Y005097D03*
X005675Y008682D03*
D1107*
X005885Y006817D03*
X006050Y006820D03*
X005765Y003919D03*
X006065Y003547D03*
X006200Y003562D03*
X005825Y002635D03*
X005900Y001975D03*
X006125Y001999D03*
X006140Y002005D03*
D1108*
X005969Y005152D03*
X006197Y006202D03*
D1109*
X006197Y005098D03*
X005939Y003241D03*
D1110*
X005948Y005155D03*
X006194Y006202D03*
D1111*
X006191Y006201D03*
X005957Y005157D03*
X005954Y005157D03*
X005951Y005157D03*
X005537Y007707D03*
D1112*
X005567Y008665D03*
X006191Y005098D03*
X005942Y003244D03*
D1113*
X005714Y003066D03*
X005711Y003066D03*
X005708Y003069D03*
X005834Y002637D03*
X005837Y002637D03*
X005843Y002637D03*
X005642Y002472D03*
X006101Y002637D03*
X006104Y002637D03*
X006107Y002637D03*
X006104Y001992D03*
X006101Y001992D03*
X006092Y001989D03*
X006089Y001989D03*
X006083Y001986D03*
X006077Y001986D03*
X006074Y001986D03*
X006071Y001983D03*
X006068Y001983D03*
X006062Y001983D03*
X006038Y001977D03*
X006032Y001977D03*
X006029Y001977D03*
X006026Y001977D03*
X006023Y001977D03*
X006011Y001974D03*
X006008Y001974D03*
X006002Y001974D03*
X005999Y001974D03*
X005996Y001974D03*
X005993Y001974D03*
X005987Y001974D03*
X005984Y001974D03*
X005981Y001974D03*
X005978Y001974D03*
X005972Y001974D03*
X005969Y001974D03*
X005948Y001974D03*
X005942Y001974D03*
X005939Y001974D03*
X005936Y001974D03*
X005933Y001974D03*
X005927Y001974D03*
X005924Y001974D03*
X005921Y001974D03*
X005918Y001974D03*
X005912Y001974D03*
X005909Y001974D03*
X005906Y001974D03*
X005903Y001974D03*
X005897Y001977D03*
X005894Y001977D03*
X005891Y001977D03*
X005888Y001977D03*
X005852Y001983D03*
X006062Y003546D03*
X006068Y003549D03*
X006074Y003552D03*
X006077Y003552D03*
X006092Y003558D03*
X006104Y003561D03*
X006107Y003561D03*
X006119Y003564D03*
X006122Y003564D03*
X006146Y003567D03*
X006149Y003567D03*
X006152Y003567D03*
X006158Y003567D03*
X006161Y003567D03*
X006164Y003567D03*
X006167Y003567D03*
X006173Y003567D03*
X006188Y003564D03*
X006191Y003564D03*
X005819Y003909D03*
X005816Y003909D03*
X005813Y003909D03*
X005801Y003912D03*
X005798Y003912D03*
X005792Y003912D03*
X005813Y004488D03*
X005816Y004488D03*
X005819Y004488D03*
X005822Y004488D03*
X005756Y005598D03*
X006158Y005607D03*
X006161Y005607D03*
X006044Y006819D03*
X006041Y006819D03*
X006038Y006819D03*
X006032Y006819D03*
X006029Y006819D03*
X005891Y006816D03*
X005633Y008214D03*
D1114*
X005843Y006817D03*
X006188Y003052D03*
X006191Y003052D03*
X005753Y002017D03*
D1115*
X006188Y006201D03*
D1116*
X006188Y005100D03*
X005672Y005064D03*
X005954Y008679D03*
D1117*
X006185Y006202D03*
D1118*
X006185Y005607D03*
X005810Y006816D03*
X005675Y003963D03*
D1119*
X006185Y005101D03*
D1120*
X006125Y006820D03*
X005645Y003115D03*
X006185Y002620D03*
D1121*
X005552Y003309D03*
X006068Y008184D03*
X006071Y008184D03*
X006182Y008199D03*
D1122*
X006182Y006201D03*
D1123*
X006182Y005101D03*
X005678Y005065D03*
D1124*
X006176Y006201D03*
X006179Y006201D03*
X003803Y006870D03*
D1125*
X005687Y005068D03*
X006179Y005101D03*
D1126*
X006176Y006819D03*
X005756Y006816D03*
X005657Y007266D03*
X005711Y002604D03*
D1127*
X006173Y005103D03*
X006176Y005103D03*
D1128*
X005975Y003454D03*
X006170Y006820D03*
D1129*
X006170Y006201D03*
D1130*
X005555Y006807D03*
X006170Y005103D03*
D1131*
X006170Y002625D03*
D1132*
X006140Y002632D03*
X005810Y002632D03*
X006170Y002017D03*
D1133*
X006164Y006201D03*
D1134*
X006161Y006199D03*
D1135*
X006161Y005106D03*
D1136*
X005573Y003316D03*
X006158Y007273D03*
X006092Y008713D03*
X006089Y008713D03*
D1137*
X006158Y006201D03*
D1138*
X006158Y005107D03*
X005552Y008647D03*
D1139*
X006155Y008196D03*
X005930Y005871D03*
D1140*
X006155Y006199D03*
D1141*
X006155Y005106D03*
D1142*
X005780Y003915D03*
X006080Y003555D03*
X006155Y003045D03*
X006050Y001980D03*
D1143*
X006149Y006199D03*
X006152Y006199D03*
X003806Y006868D03*
D1144*
X005561Y007462D03*
X006152Y005605D03*
X005648Y002482D03*
D1145*
X005717Y005077D03*
X006152Y005107D03*
D1146*
X006149Y005109D03*
X006146Y005109D03*
X005723Y005079D03*
D1147*
X005576Y003316D03*
X006146Y007273D03*
X006071Y008713D03*
X006068Y008713D03*
D1148*
X005531Y007707D03*
X006146Y006198D03*
D1149*
X006143Y005110D03*
X005726Y005080D03*
X005927Y008659D03*
D1150*
X006140Y008712D03*
X005795Y006393D03*
X005600Y004143D03*
D1151*
X005555Y003310D03*
X006140Y008194D03*
D1152*
X006065Y008712D03*
X006140Y007272D03*
D1153*
X006140Y006198D03*
D1154*
X006140Y005109D03*
D1155*
X006134Y006196D03*
X006131Y006196D03*
D1156*
X006131Y005112D03*
X006134Y005112D03*
D1157*
X006128Y006196D03*
D1158*
X006128Y005605D03*
X005579Y007474D03*
X005678Y002515D03*
D1159*
X005744Y005085D03*
X006128Y005112D03*
X005546Y006807D03*
D1160*
X006125Y008193D03*
D1161*
X006125Y007272D03*
D1162*
X006125Y006195D03*
D1163*
X006125Y005607D03*
D1164*
X006065Y006819D03*
X005870Y006816D03*
X005750Y003924D03*
X005630Y003486D03*
X006125Y002634D03*
X005840Y001986D03*
X005825Y001989D03*
D1165*
X006122Y006196D03*
D1166*
X006122Y005113D03*
X005747Y005086D03*
X005918Y008653D03*
D1167*
X003809Y006870D03*
X006119Y006195D03*
D1168*
X006119Y005115D03*
X005753Y005088D03*
D1169*
X005756Y005089D03*
X006116Y005116D03*
D1170*
X006113Y005605D03*
D1171*
X006113Y005115D03*
X003791Y006870D03*
D1172*
X006110Y008191D03*
D1173*
X006110Y006193D03*
D1174*
X006110Y005607D03*
D1175*
X006110Y005116D03*
D1176*
X005555Y007456D03*
X005855Y001981D03*
X005870Y001978D03*
X006110Y001993D03*
D1177*
X005807Y005596D03*
X006107Y005605D03*
X005627Y006385D03*
X005597Y007486D03*
D1178*
X005684Y008235D03*
X006098Y008190D03*
X006101Y008190D03*
X006104Y008190D03*
D1179*
X006101Y006190D03*
D1180*
X006101Y005607D03*
X005813Y005598D03*
D1181*
X005774Y005095D03*
X006101Y005119D03*
X005909Y008644D03*
X005537Y008620D03*
D1182*
X006098Y006190D03*
D1183*
X006098Y005121D03*
X005777Y005097D03*
D1184*
X006095Y008713D03*
D1185*
X006095Y008188D03*
X005720Y006388D03*
D1186*
X006095Y007270D03*
X006020Y008704D03*
X005585Y003319D03*
D1187*
X005660Y003099D03*
X006020Y003516D03*
X005765Y004479D03*
X005840Y006816D03*
X006095Y006819D03*
D1188*
X006095Y006189D03*
D1189*
X006095Y005607D03*
D1190*
X006095Y005119D03*
D1191*
X006092Y006189D03*
D1192*
X006092Y005121D03*
D1193*
X006089Y006189D03*
X006086Y006189D03*
D1194*
X006086Y005605D03*
X006089Y005605D03*
D1195*
X006086Y007269D03*
X006083Y007269D03*
X006077Y007269D03*
X005609Y002274D03*
D1196*
X006083Y006187D03*
D1197*
X006080Y008713D03*
D1198*
X006080Y007269D03*
D1199*
X006080Y006186D03*
D1200*
X006080Y005607D03*
D1201*
X006080Y005124D03*
X005900Y008634D03*
D1202*
X006077Y005124D03*
X005807Y005106D03*
X005804Y005106D03*
D1203*
X005804Y003045D03*
X005807Y003045D03*
X005813Y003045D03*
X005816Y003045D03*
X005819Y003045D03*
X005822Y003045D03*
X005801Y003045D03*
X005798Y003045D03*
X005867Y002640D03*
X005873Y002640D03*
X005876Y002640D03*
X005879Y002640D03*
X005882Y002640D03*
X005888Y002640D03*
X005891Y002640D03*
X005894Y002640D03*
X005897Y002640D03*
X005903Y002640D03*
X005906Y002640D03*
X005909Y002640D03*
X005912Y002640D03*
X005918Y002640D03*
X005921Y002640D03*
X005924Y002640D03*
X005927Y002640D03*
X005933Y002640D03*
X005936Y002640D03*
X005939Y002640D03*
X005942Y002640D03*
X005948Y002640D03*
X005951Y002640D03*
X005954Y002640D03*
X005957Y002640D03*
X005963Y002640D03*
X005966Y002640D03*
X005969Y002640D03*
X005972Y002640D03*
X005978Y002640D03*
X005981Y002640D03*
X005984Y002640D03*
X005987Y002640D03*
X005993Y002640D03*
X005996Y002640D03*
X005999Y002640D03*
X006002Y002640D03*
X006008Y002640D03*
X006011Y002640D03*
X006014Y002640D03*
X006017Y002640D03*
X006023Y002640D03*
X006026Y002640D03*
X006029Y002640D03*
X006032Y002640D03*
X006038Y002640D03*
X006041Y002640D03*
X006044Y002640D03*
X006047Y002640D03*
X006053Y002640D03*
X006056Y002640D03*
X006059Y002640D03*
X006062Y002640D03*
X006068Y002640D03*
X006071Y002640D03*
X006074Y002640D03*
X006077Y002640D03*
X005678Y002640D03*
X005672Y002640D03*
X005669Y002640D03*
X005666Y002640D03*
X005663Y002640D03*
X005657Y002640D03*
X005654Y002640D03*
X005651Y002640D03*
X005648Y002640D03*
X005642Y002640D03*
X005639Y002640D03*
X005636Y002640D03*
X005633Y002640D03*
X005627Y002640D03*
X005624Y002640D03*
X005621Y002640D03*
X005618Y002640D03*
X005612Y002640D03*
X005609Y002640D03*
X005606Y002640D03*
X005603Y002640D03*
X005597Y002640D03*
X005594Y002640D03*
X005591Y002640D03*
X005588Y002640D03*
X005582Y002640D03*
X005579Y002640D03*
X005576Y002640D03*
X005573Y002640D03*
X005567Y002640D03*
X005564Y002640D03*
X005561Y002640D03*
X005558Y002640D03*
X005552Y002640D03*
X005549Y002640D03*
X005546Y002640D03*
X005543Y002640D03*
X005537Y002640D03*
X005534Y002640D03*
X005531Y002640D03*
X005528Y002640D03*
X005522Y002640D03*
X005519Y002640D03*
X005516Y002640D03*
X005513Y002640D03*
X005507Y002640D03*
X005504Y002640D03*
X005501Y002640D03*
X005498Y002640D03*
X005492Y002640D03*
X005489Y002640D03*
X005486Y002640D03*
X005483Y002640D03*
X005477Y002640D03*
X005474Y002640D03*
X005471Y002640D03*
X005468Y002640D03*
X005462Y002640D03*
X005459Y002640D03*
X005456Y002640D03*
X005453Y002640D03*
X005447Y002640D03*
X005444Y002640D03*
X005441Y002640D03*
X005438Y002640D03*
X005432Y002640D03*
X005429Y002640D03*
X005426Y002640D03*
X005423Y002640D03*
X005417Y002640D03*
X005414Y002640D03*
X005411Y002640D03*
X005408Y002640D03*
X005402Y002640D03*
X005399Y002640D03*
X005396Y002640D03*
X005393Y002640D03*
X005387Y002640D03*
X005384Y002640D03*
X005381Y002640D03*
X005378Y002640D03*
X005372Y002640D03*
X005369Y002640D03*
X005366Y002640D03*
X005363Y002640D03*
X005357Y002640D03*
X005354Y002640D03*
X005351Y002640D03*
X005348Y002640D03*
X005342Y002640D03*
X005339Y002640D03*
X005336Y002640D03*
X005333Y002640D03*
X005327Y002640D03*
X005324Y002640D03*
X005321Y002640D03*
X005318Y002640D03*
X005312Y002640D03*
X005309Y002640D03*
X005306Y002640D03*
X005303Y002640D03*
X005297Y002640D03*
X005294Y002640D03*
X005291Y002640D03*
X005288Y002640D03*
X005282Y002640D03*
X005279Y002640D03*
X005276Y002640D03*
X005273Y002640D03*
X005267Y002640D03*
X005264Y002640D03*
X005261Y002640D03*
X005258Y002640D03*
X005252Y002640D03*
X005249Y002640D03*
X005246Y002640D03*
X005243Y002640D03*
X005237Y002640D03*
X005234Y002640D03*
X005231Y002640D03*
X005228Y002640D03*
X005222Y002640D03*
X005219Y002640D03*
X005216Y002640D03*
X005213Y002640D03*
X005207Y002640D03*
X005204Y002640D03*
X005201Y002640D03*
X005198Y002640D03*
X005192Y002640D03*
X005189Y002640D03*
X005186Y002640D03*
X005183Y002640D03*
X005177Y002640D03*
X005174Y002640D03*
X005171Y002640D03*
X005168Y002640D03*
X005162Y002640D03*
X005159Y002640D03*
X005156Y002640D03*
X005153Y002640D03*
D1204*
X005852Y007267D03*
X005858Y007267D03*
X005861Y007267D03*
X005864Y007267D03*
X005867Y007267D03*
X006071Y007267D03*
X006074Y007267D03*
D1205*
X006071Y006184D03*
X006068Y006184D03*
D1206*
X006068Y005127D03*
X006071Y005127D03*
X005816Y005109D03*
X005813Y005109D03*
X005897Y008631D03*
D1207*
X006065Y008182D03*
D1208*
X006065Y007269D03*
X005870Y007266D03*
X005600Y005043D03*
D1209*
X006065Y006183D03*
X005855Y008520D03*
D1210*
X006065Y005607D03*
D1211*
X006065Y005128D03*
D1212*
X005825Y003045D03*
X005810Y003045D03*
X005870Y002640D03*
X005885Y002640D03*
X005900Y002640D03*
X005915Y002640D03*
X005930Y002640D03*
X005945Y002640D03*
X005960Y002640D03*
X005975Y002640D03*
X005990Y002640D03*
X006005Y002640D03*
X006020Y002640D03*
X006035Y002640D03*
X006050Y002640D03*
X006065Y002640D03*
X005675Y002640D03*
X005660Y002640D03*
X005645Y002640D03*
X005630Y002640D03*
X005615Y002640D03*
X005600Y002640D03*
X005585Y002640D03*
X005570Y002640D03*
X005555Y002640D03*
X005540Y002640D03*
X005525Y002640D03*
X005510Y002640D03*
X005495Y002640D03*
X005480Y002640D03*
X005465Y002640D03*
X005450Y002640D03*
X005435Y002640D03*
X005420Y002640D03*
X005405Y002640D03*
X005390Y002640D03*
X005375Y002640D03*
X005360Y002640D03*
X005345Y002640D03*
X005330Y002640D03*
X005315Y002640D03*
X005300Y002640D03*
X005285Y002640D03*
X005270Y002640D03*
X005255Y002640D03*
X005240Y002640D03*
X005225Y002640D03*
X005210Y002640D03*
X005195Y002640D03*
X005180Y002640D03*
X005165Y002640D03*
X005150Y002640D03*
D1213*
X005708Y007267D03*
X006062Y008182D03*
D1214*
X006062Y006181D03*
D1215*
X006062Y005605D03*
X005654Y007510D03*
X005651Y007510D03*
X005669Y003532D03*
D1216*
X005879Y007267D03*
X005882Y007267D03*
X006041Y007267D03*
X006044Y007267D03*
X006047Y007267D03*
X006053Y007267D03*
X006056Y007267D03*
X006059Y007267D03*
D1217*
X006056Y006181D03*
D1218*
X006056Y005130D03*
D1219*
X006053Y006180D03*
D1220*
X006050Y008710D03*
D1221*
X006050Y006178D03*
D1222*
X006050Y005131D03*
D1223*
X006047Y006178D03*
D1224*
X006047Y005607D03*
D1225*
X006047Y005133D03*
X005837Y005115D03*
X005834Y005115D03*
X005891Y008622D03*
D1226*
X006044Y006177D03*
D1227*
X006041Y006177D03*
X006038Y006177D03*
X005687Y008502D03*
D1228*
X005888Y008617D03*
X005534Y006805D03*
X005849Y005119D03*
X006038Y005134D03*
D1229*
X006035Y008707D03*
D1230*
X006035Y007266D03*
X006020Y007266D03*
X005900Y007266D03*
X005615Y002274D03*
D1231*
X006035Y006175D03*
X005690Y008500D03*
D1232*
X005693Y008500D03*
X006032Y006175D03*
D1233*
X006032Y005136D03*
X005852Y005121D03*
D1234*
X006029Y008169D03*
D1235*
X006026Y008167D03*
X005693Y007267D03*
D1236*
X006026Y006172D03*
X005702Y008497D03*
X005699Y008497D03*
D1237*
X005705Y008496D03*
X006020Y006171D03*
D1238*
X006020Y005139D03*
D1239*
X005591Y005040D03*
X005588Y005040D03*
X005579Y006810D03*
X006014Y008703D03*
X006017Y008703D03*
X005909Y003213D03*
D1240*
X006017Y006169D03*
X005711Y008494D03*
D1241*
X006014Y008160D03*
X005558Y004140D03*
D1242*
X006011Y006168D03*
X006014Y006168D03*
D1243*
X006011Y005142D03*
X006008Y005142D03*
X005882Y005133D03*
X005882Y008607D03*
D1244*
X006008Y006166D03*
D1245*
X006005Y007264D03*
X005990Y007264D03*
X005975Y007264D03*
X005960Y007264D03*
X005945Y007264D03*
X005930Y007264D03*
X005915Y007264D03*
X005915Y003220D03*
D1246*
X006005Y006165D03*
D1247*
X006005Y005143D03*
D1248*
X006002Y006165D03*
D1249*
X006002Y005145D03*
D1250*
X005999Y008698D03*
D1251*
X005999Y008148D03*
X005696Y006813D03*
X005693Y006813D03*
X005567Y006072D03*
X005783Y005928D03*
X005657Y005598D03*
X005552Y004140D03*
D1252*
X005999Y006165D03*
X005744Y008490D03*
X005741Y008490D03*
X005738Y008490D03*
D1253*
X005999Y005143D03*
D1254*
X005957Y003405D03*
X003773Y006870D03*
X005726Y007770D03*
X005729Y007770D03*
X005732Y007770D03*
X005738Y007770D03*
X005996Y008145D03*
D1255*
X005759Y008488D03*
X005756Y008488D03*
X005753Y008488D03*
X005747Y008488D03*
X005993Y006163D03*
X005996Y006163D03*
D1256*
X005996Y005145D03*
D1257*
X005990Y006162D03*
D1258*
X005990Y005146D03*
D1259*
X005987Y006160D03*
X005984Y006160D03*
X005774Y008488D03*
X005771Y008488D03*
X005768Y008488D03*
X005762Y008488D03*
D1260*
X005981Y003465D03*
X005726Y002610D03*
X005723Y002610D03*
D1261*
X005645Y008686D03*
X005975Y008689D03*
D1262*
X005975Y005152D03*
D1263*
X005648Y005056D03*
X005657Y008683D03*
X005663Y008683D03*
X005969Y008686D03*
D1264*
X005966Y008685D03*
D1265*
X005960Y008680D03*
X005660Y005059D03*
D1266*
X005960Y005862D03*
X005735Y006390D03*
D1267*
X005945Y005155D03*
X005960Y005155D03*
D1268*
X005675Y005596D03*
X005720Y005959D03*
X005960Y003415D03*
D1269*
X005666Y005061D03*
X005663Y005061D03*
X005957Y008679D03*
D1270*
X005669Y007783D03*
X005666Y007783D03*
X005663Y007783D03*
X005954Y003391D03*
D1271*
X005945Y008673D03*
D1272*
X005675Y005064D03*
X005945Y003246D03*
D1273*
X005588Y005598D03*
X005939Y005868D03*
D1274*
X005702Y005073D03*
X005936Y008667D03*
D1275*
X005936Y003240D03*
D1276*
X005933Y005149D03*
D1277*
X005930Y008662D03*
D1278*
X005927Y005148D03*
D1279*
X005924Y005146D03*
X005528Y006805D03*
D1280*
X005627Y005050D03*
X005606Y003313D03*
X005609Y003310D03*
X005924Y003229D03*
X005582Y008680D03*
X005633Y008686D03*
X005636Y008686D03*
D1281*
X005921Y008655D03*
D1282*
X005921Y005145D03*
X005918Y005145D03*
D1283*
X005921Y003226D03*
D1284*
X005915Y008650D03*
D1285*
X005915Y005143D03*
D1286*
X005783Y005098D03*
X005906Y008641D03*
D1287*
X005675Y008230D03*
X005705Y006388D03*
X005900Y005881D03*
D1288*
X005900Y005139D03*
D1289*
X005900Y003201D03*
X005600Y002274D03*
X005810Y007269D03*
D1290*
X005879Y008602D03*
X005897Y005137D03*
D1291*
X005894Y005136D03*
X005891Y005136D03*
D1292*
X005891Y003187D03*
X005774Y007267D03*
D1293*
X005885Y008613D03*
D1294*
X005885Y005133D03*
D1295*
X005876Y008596D03*
D1296*
X005876Y005130D03*
D1297*
X005873Y005128D03*
X003797Y006868D03*
D1298*
X005870Y008583D03*
D1299*
X005870Y005890D03*
D1300*
X005870Y005128D03*
D1301*
X005870Y003144D03*
D1302*
X005867Y008575D03*
D1303*
X005864Y008565D03*
D1304*
X005861Y008557D03*
D1305*
X005858Y008542D03*
D1306*
X005855Y007267D03*
D1307*
X005855Y006396D03*
D1308*
X005855Y005898D03*
X005630Y005598D03*
X005630Y007794D03*
D1309*
X005855Y005598D03*
D1310*
X005852Y008485D03*
X005849Y008485D03*
X005846Y008485D03*
X005843Y008485D03*
X005837Y008485D03*
X005834Y008485D03*
X005831Y008485D03*
X005828Y008485D03*
X005822Y008485D03*
X005819Y008485D03*
X005816Y008485D03*
X005813Y008485D03*
X005807Y008485D03*
X005804Y008485D03*
X005801Y008485D03*
X005798Y008485D03*
X005792Y008485D03*
D1311*
X005852Y005596D03*
D1312*
X005846Y005901D03*
X005843Y005901D03*
X005639Y007791D03*
X005552Y002274D03*
D1313*
X005795Y008485D03*
X005810Y008485D03*
X005825Y008485D03*
X005840Y008485D03*
D1314*
X005645Y007789D03*
X005840Y005902D03*
D1315*
X005840Y005596D03*
D1316*
X005840Y005116D03*
D1317*
X005837Y005596D03*
D1318*
X005828Y005598D03*
X005621Y007497D03*
X005657Y003522D03*
D1319*
X005825Y007269D03*
D1320*
X005825Y005113D03*
D1321*
X005822Y005112D03*
X005537Y006807D03*
D1322*
X005669Y007266D03*
X005792Y007764D03*
X005798Y007764D03*
X005801Y007764D03*
X005804Y007764D03*
X005807Y007764D03*
X005813Y007764D03*
X005816Y007764D03*
X005738Y005949D03*
D1323*
X005564Y005032D03*
X005813Y007267D03*
D1324*
X005600Y006810D03*
X005810Y006393D03*
X005570Y003315D03*
D1325*
X005810Y005596D03*
D1326*
X005810Y005107D03*
D1327*
X005795Y005596D03*
D1328*
X005795Y005103D03*
X005540Y006807D03*
D1329*
X005786Y005100D03*
X005789Y005100D03*
D1330*
X005786Y005596D03*
X005669Y004363D03*
X005528Y004138D03*
D1331*
X005780Y008487D03*
D1332*
X005780Y007765D03*
X005585Y006052D03*
X005735Y005950D03*
X005630Y002140D03*
D1333*
X005780Y007269D03*
D1334*
X005780Y006816D03*
D1335*
X005780Y005598D03*
X005660Y004353D03*
D1336*
X005765Y008488D03*
D1337*
X005765Y007767D03*
X005750Y007767D03*
X005705Y006813D03*
X005750Y005943D03*
D1338*
X005765Y007269D03*
X005585Y002274D03*
D1339*
X005765Y006391D03*
D1340*
X005765Y005937D03*
D1341*
X005765Y005598D03*
D1342*
X005765Y005092D03*
D1343*
X005762Y005596D03*
X005531Y004138D03*
D1344*
X005759Y005091D03*
X005762Y005091D03*
D1345*
X005756Y005940D03*
D1346*
X005750Y008488D03*
D1347*
X005750Y006390D03*
D1348*
X005645Y007267D03*
X005750Y002017D03*
D1349*
X005747Y007267D03*
D1350*
X005747Y006390D03*
D1351*
X005744Y006390D03*
X005741Y006390D03*
D1352*
X005741Y005083D03*
X005738Y005083D03*
D1353*
X005735Y008491D03*
D1354*
X005735Y007770D03*
D1355*
X005735Y007269D03*
X005570Y005598D03*
X005585Y004143D03*
D1356*
X005690Y005598D03*
X005735Y006813D03*
D1357*
X005735Y005082D03*
D1358*
X005720Y005596D03*
X005720Y004465D03*
X005735Y002614D03*
D1359*
X005732Y008491D03*
X005729Y008491D03*
D1360*
X005717Y005596D03*
X005714Y005596D03*
X005651Y003988D03*
X005633Y003133D03*
X005729Y002611D03*
X005663Y002083D03*
D1361*
X005723Y008493D03*
X005726Y008493D03*
D1362*
X005726Y007267D03*
D1363*
X005723Y007771D03*
X005717Y007771D03*
D1364*
X005720Y008494D03*
D1365*
X005720Y007771D03*
X005660Y005596D03*
D1366*
X005720Y007267D03*
D1367*
X005720Y005079D03*
D1368*
X005717Y008494D03*
D1369*
X005708Y005074D03*
D1370*
X005705Y007776D03*
D1371*
X005705Y007267D03*
D1372*
X005705Y005073D03*
D1373*
X005705Y004458D03*
X005645Y003996D03*
X005630Y003138D03*
D1374*
X005693Y007777D03*
X005696Y007777D03*
D1375*
X003788Y006870D03*
X005696Y005070D03*
D1376*
X005690Y007777D03*
D1377*
X005690Y007267D03*
D1378*
X005690Y005070D03*
D1379*
X005687Y005977D03*
X005621Y006022D03*
X005666Y007267D03*
D1380*
X005684Y008680D03*
D1381*
X005681Y008235D03*
D1382*
X005675Y007780D03*
X005675Y006385D03*
D1383*
X005570Y006067D03*
X005675Y007267D03*
D1384*
X005675Y006813D03*
D1385*
X005630Y008211D03*
X005675Y002514D03*
D1386*
X005669Y005062D03*
D1387*
X005666Y007515D03*
D1388*
X005660Y008683D03*
X005645Y005056D03*
D1389*
X005645Y005598D03*
X005660Y008226D03*
D1390*
X005660Y007785D03*
D1391*
X005660Y007513D03*
D1392*
X005615Y007801D03*
X005660Y006811D03*
D1393*
X005660Y005994D03*
D1394*
X005660Y003525D03*
D1395*
X005660Y002497D03*
D1396*
X005660Y002088D03*
D1397*
X005639Y005053D03*
X005567Y006808D03*
X005642Y008686D03*
X005648Y008686D03*
D1398*
X005645Y008220D03*
D1399*
X005645Y007507D03*
D1400*
X005645Y003510D03*
D1401*
X005636Y007792D03*
X005633Y007792D03*
D1402*
X005636Y007267D03*
D1403*
X005633Y007503D03*
D1404*
X005630Y008688D03*
D1405*
X005630Y007501D03*
D1406*
X005630Y005050D03*
D1407*
X005630Y004035D03*
D1408*
X005603Y003315D03*
X005624Y008688D03*
X005627Y008688D03*
D1409*
X005615Y007495D03*
X005525Y003298D03*
D1410*
X005615Y003307D03*
D1411*
X005609Y006810D03*
X003779Y006870D03*
D1412*
X005606Y006810D03*
D1413*
X005600Y008691D03*
D1414*
X005600Y007809D03*
D1415*
X005600Y007488D03*
D1416*
X005600Y005598D03*
D1417*
X005570Y006808D03*
X005585Y008683D03*
X005600Y003316D03*
D1418*
X005594Y006810D03*
D1419*
X005585Y007816D03*
D1420*
X005585Y005038D03*
D1421*
X005582Y007477D03*
D1422*
X005570Y008670D03*
D1423*
X005570Y007468D03*
D1424*
X005570Y002274D03*
D1425*
X005555Y008650D03*
D1426*
X005555Y007839D03*
D1427*
X005555Y006085D03*
D1428*
X005555Y004140D03*
D1429*
X005555Y002274D03*
D1430*
X005549Y008641D03*
D1431*
X005540Y008625D03*
D1432*
X005540Y005535D03*
D1433*
X005537Y005538D03*
D1434*
X005534Y007707D03*
D1435*
X003902Y006868D03*
X005534Y005545D03*
D1436*
X005531Y005551D03*
D1437*
X005528Y007707D03*
D1438*
X005525Y008587D03*
D1439*
X005525Y007707D03*
D1440*
X005525Y006804D03*
D1441*
X005525Y005566D03*
D1442*
X005525Y004138D03*
D1443*
X005525Y002269D03*
D1444*
X005522Y006868D03*
X005519Y006868D03*
X005516Y006868D03*
D1445*
X005513Y006870D03*
X005507Y006870D03*
D1446*
X005510Y006870D03*
D1447*
X005504Y006868D03*
X005501Y006868D03*
X005498Y006868D03*
D1448*
X005495Y006870D03*
D1449*
X005492Y006870D03*
X005489Y006870D03*
D1450*
X005486Y006868D03*
X005483Y006868D03*
D1451*
X005480Y006870D03*
D1452*
X005477Y006870D03*
X005474Y006870D03*
D1453*
X005471Y006868D03*
X005468Y006868D03*
D1454*
X005465Y006868D03*
D1455*
X005462Y006870D03*
X005459Y006870D03*
X005456Y006870D03*
D1456*
X005453Y006868D03*
D1457*
X005450Y006868D03*
D1458*
X005447Y006870D03*
X005444Y006870D03*
D1459*
X005441Y006868D03*
X005438Y006868D03*
D1460*
X005435Y006868D03*
D1461*
X005432Y006870D03*
X005429Y006870D03*
D1462*
X005426Y006868D03*
X005423Y006868D03*
D1463*
X005420Y006868D03*
D1464*
X005417Y006870D03*
X005414Y006870D03*
X005411Y006870D03*
D1465*
X005408Y006868D03*
D1466*
X005405Y006868D03*
D1467*
X005402Y006870D03*
X005399Y006870D03*
D1468*
X005396Y006868D03*
X005393Y006868D03*
D1469*
X005390Y006870D03*
D1470*
X005387Y006870D03*
D1471*
X005384Y006868D03*
X005381Y006868D03*
D1472*
X005378Y006870D03*
X005372Y006870D03*
D1473*
X005375Y006870D03*
D1474*
X005369Y006868D03*
X005366Y006868D03*
D1475*
X005363Y006870D03*
D1476*
X005360Y006870D03*
D1477*
X005357Y006868D03*
X005354Y006868D03*
D1478*
X005351Y006870D03*
X005348Y006870D03*
D1479*
X005345Y006868D03*
D1480*
X005342Y006868D03*
D1481*
X005339Y006870D03*
X005336Y006870D03*
D1482*
X005333Y006868D03*
D1483*
X005330Y006868D03*
D1484*
X005327Y006870D03*
X005324Y006870D03*
D1485*
X005321Y006868D03*
D1486*
X005318Y006870D03*
D1487*
X005315Y006870D03*
D1488*
X005312Y006868D03*
X005309Y006868D03*
D1489*
X005306Y006870D03*
X005303Y006870D03*
D1490*
X005300Y006868D03*
D1491*
X005297Y006868D03*
D1492*
X005294Y006870D03*
X005291Y006870D03*
D1493*
X005288Y006868D03*
D1494*
X005285Y006868D03*
D1495*
X005282Y006870D03*
D1496*
X005279Y006868D03*
X005276Y006868D03*
D1497*
X005273Y006870D03*
D1498*
X005270Y006870D03*
D1499*
X005267Y006868D03*
X005264Y006868D03*
D1500*
X005261Y006870D03*
D1501*
X005258Y006868D03*
D1502*
X005255Y006868D03*
D1503*
X005252Y006870D03*
D1504*
X005249Y006868D03*
X005246Y006868D03*
D1505*
X005243Y006870D03*
D1506*
X005240Y006870D03*
D1507*
X005237Y006868D03*
X005234Y006868D03*
D1508*
X005231Y006870D03*
D1509*
X005228Y006868D03*
D1510*
X005225Y006868D03*
D1511*
X005222Y006870D03*
D1512*
X005219Y006868D03*
X005216Y006868D03*
D1513*
X005213Y006870D03*
D1514*
X005210Y006868D03*
D1515*
X005207Y006868D03*
D1516*
X005204Y006870D03*
X005201Y006870D03*
D1517*
X005198Y006868D03*
D1518*
X005195Y006870D03*
D1519*
X005192Y006868D03*
X005189Y006868D03*
D1520*
X005186Y006870D03*
D1521*
X005183Y006868D03*
D1522*
X005180Y006868D03*
D1523*
X005177Y006870D03*
D1524*
X005174Y006868D03*
X005171Y006868D03*
D1525*
X005168Y006870D03*
D1526*
X005165Y006868D03*
D1527*
X005162Y006870D03*
X005159Y006870D03*
D1528*
X005156Y006868D03*
X005153Y006868D03*
D1529*
X005150Y006870D03*
D1530*
X005147Y006868D03*
D1531*
X005144Y006870D03*
D1532*
X005141Y006868D03*
X005138Y006868D03*
D1533*
X005135Y006870D03*
D1534*
X005132Y006868D03*
X005129Y006868D03*
D1535*
X005126Y006870D03*
D1536*
X005123Y006868D03*
D1537*
X005120Y006870D03*
D1538*
X005117Y006870D03*
D1539*
X005114Y006868D03*
D1540*
X005111Y006870D03*
X005108Y006870D03*
D1541*
X005105Y006868D03*
D1542*
X005102Y006870D03*
D1543*
X005099Y006868D03*
D1544*
X005096Y006870D03*
D1545*
X005093Y006868D03*
D1546*
X005090Y006868D03*
D1547*
X005087Y006870D03*
D1548*
X005084Y006868D03*
D1549*
X005081Y006870D03*
X005078Y006870D03*
D1550*
X005075Y006868D03*
D1551*
X005072Y006870D03*
D1552*
X005069Y006868D03*
D1553*
X005066Y006870D03*
X005063Y006870D03*
D1554*
X005060Y006868D03*
D1555*
X005057Y006870D03*
D1556*
X005054Y006868D03*
D1557*
X005051Y006870D03*
D1558*
X005048Y006868D03*
D1559*
X005045Y006870D03*
D1560*
X005042Y006870D03*
D1561*
X005039Y006868D03*
D1562*
X005036Y006870D03*
D1563*
X005033Y006868D03*
D1564*
X005030Y006870D03*
D1565*
X005027Y006868D03*
D1566*
X005024Y006870D03*
X005021Y006870D03*
D1567*
X005018Y006868D03*
D1568*
X005015Y006870D03*
D1569*
X005012Y006868D03*
D1570*
X005009Y006870D03*
D1571*
X005006Y006868D03*
D1572*
X005003Y006870D03*
D1573*
X005000Y006870D03*
D1574*
X004997Y006868D03*
D1575*
X004994Y006870D03*
D1576*
X004991Y006868D03*
D1577*
X004988Y006870D03*
D1578*
X004985Y006868D03*
D1579*
X004982Y006870D03*
D1580*
X004979Y006868D03*
D1581*
X004976Y006870D03*
D1582*
X004973Y006868D03*
D1583*
X004970Y006870D03*
D1584*
X004967Y006868D03*
D1585*
X004964Y006870D03*
X004961Y006870D03*
D1586*
X004958Y006870D03*
D1587*
X004955Y006870D03*
D1588*
X004952Y006868D03*
D1589*
X004949Y006870D03*
D1590*
X004946Y006868D03*
D1591*
X004943Y006870D03*
D1592*
X004940Y006868D03*
D1593*
X004937Y006870D03*
D1594*
X004934Y006868D03*
D1595*
X004931Y006870D03*
D1596*
X004928Y006868D03*
D1597*
X004925Y006870D03*
D1598*
X004922Y006868D03*
D1599*
X004919Y006870D03*
D1600*
X004916Y006868D03*
D1601*
X004913Y006870D03*
D1602*
X004910Y006868D03*
D1603*
X004907Y006870D03*
D1604*
X004904Y006868D03*
D1605*
X004901Y006870D03*
D1606*
X004898Y006868D03*
D1607*
X004895Y006870D03*
D1608*
X004892Y006870D03*
X004889Y006870D03*
D1609*
X004886Y006870D03*
D1610*
X004883Y006868D03*
D1611*
X004880Y006870D03*
D1612*
X004877Y006868D03*
D1613*
X004874Y006870D03*
D1614*
X004871Y006868D03*
D1615*
X004868Y006870D03*
D1616*
X004865Y006868D03*
D1617*
X004862Y006870D03*
D1618*
X004859Y006868D03*
D1619*
X004856Y006870D03*
D1620*
X004853Y006868D03*
D1621*
X004850Y006870D03*
D1622*
X004847Y006870D03*
D1623*
X004844Y006868D03*
D1624*
X004841Y006870D03*
D1625*
X004838Y006868D03*
D1626*
X004835Y006870D03*
D1627*
X004829Y006870D03*
D1628*
X004820Y006870D03*
D1629*
X004814Y006870D03*
D1630*
X004811Y006868D03*
D1631*
X004808Y006870D03*
D1632*
X004805Y006868D03*
D1633*
X004802Y006870D03*
D1634*
X004799Y006870D03*
D1635*
X004796Y006868D03*
D1636*
X004793Y006870D03*
D1637*
X004790Y006868D03*
D1638*
X004787Y006870D03*
D1639*
X004784Y006870D03*
D1640*
X004778Y006870D03*
D1641*
X004772Y006870D03*
D1642*
X004769Y006870D03*
D1643*
X004763Y006870D03*
D1644*
X004760Y006868D03*
D1645*
X004757Y006870D03*
D1646*
X004754Y006870D03*
D1647*
X004748Y006870D03*
D1648*
X004745Y006870D03*
D1649*
X004739Y006870D03*
D1650*
X004736Y006868D03*
D1651*
X004730Y006870D03*
D1652*
X004724Y006870D03*
D1653*
X004721Y006870D03*
D1654*
X004715Y006870D03*
D1655*
X004712Y006870D03*
D1656*
X004706Y006870D03*
D1657*
X004703Y006870D03*
D1658*
X004700Y006868D03*
D1659*
X004697Y006870D03*
D1660*
X004694Y006870D03*
D1661*
X004691Y006868D03*
D1662*
X004688Y006870D03*
D1663*
X004685Y006870D03*
D1664*
X004682Y006868D03*
D1665*
X004679Y006870D03*
D1666*
X004676Y006870D03*
D1667*
X004670Y006868D03*
D1668*
X004667Y006870D03*
D1669*
X004658Y006870D03*
D1670*
X004655Y006870D03*
D1671*
X004649Y006870D03*
D1672*
X004646Y006870D03*
D1673*
X004643Y006868D03*
D1674*
X004640Y006870D03*
D1675*
X004637Y006870D03*
D1676*
X004634Y006868D03*
D1677*
X004631Y006868D03*
D1678*
X004628Y006870D03*
D1679*
X004625Y006870D03*
D1680*
X004619Y006868D03*
D1681*
X004616Y006870D03*
D1682*
X004613Y006870D03*
D1683*
X004610Y006868D03*
D1684*
X004607Y006868D03*
D1685*
X004604Y006870D03*
D1686*
X004595Y006868D03*
D1687*
X004592Y006870D03*
D1688*
X004589Y006870D03*
D1689*
X004586Y006868D03*
D1690*
X004583Y006868D03*
D1691*
X004577Y006870D03*
D1692*
X004574Y006868D03*
D1693*
X004571Y006868D03*
D1694*
X004568Y006870D03*
D1695*
X004565Y006870D03*
D1696*
X004559Y006868D03*
D1697*
X004556Y006868D03*
D1698*
X004553Y006870D03*
D1699*
X004550Y006870D03*
D1700*
X004547Y006870D03*
D1701*
X004544Y006868D03*
D1702*
X004541Y006868D03*
D1703*
X004538Y006868D03*
D1704*
X004535Y006870D03*
D1705*
X004532Y006870D03*
D1706*
X004529Y006868D03*
D1707*
X004526Y006868D03*
D1708*
X004523Y006868D03*
D1709*
X004520Y006870D03*
D1710*
X004517Y006870D03*
D1711*
X004514Y006870D03*
D1712*
X004511Y006868D03*
D1713*
X004508Y006868D03*
D1714*
X004505Y006868D03*
D1715*
X004502Y006870D03*
D1716*
X004499Y006870D03*
D1717*
X004496Y006870D03*
D1718*
X004493Y006870D03*
D1719*
X004490Y006868D03*
D1720*
X004487Y006868D03*
D1721*
X004484Y006868D03*
D1722*
X004481Y006868D03*
D1723*
X004478Y006870D03*
D1724*
X004475Y006870D03*
D1725*
X004469Y006870D03*
D1726*
X004466Y006870D03*
D1727*
X004463Y006868D03*
D1728*
X004460Y006868D03*
D1729*
X004457Y006868D03*
D1730*
X004454Y006868D03*
D1731*
X004451Y006870D03*
D1732*
X004448Y006870D03*
D1733*
X004445Y006870D03*
D1734*
X004442Y006870D03*
D1735*
X004436Y006870D03*
D1736*
X004433Y006868D03*
D1737*
X004430Y006868D03*
D1738*
X004427Y006868D03*
D1739*
X004424Y006868D03*
D1740*
X004421Y006868D03*
D1741*
X004418Y006868D03*
D1742*
X004415Y006868D03*
D1743*
X004412Y006868D03*
D1744*
X004409Y006868D03*
D1745*
X004406Y006870D03*
D1746*
X004403Y006870D03*
D1747*
X004400Y006870D03*
D1748*
X004397Y006870D03*
D1749*
X004394Y006870D03*
D1750*
X004388Y006870D03*
D1751*
X004385Y006870D03*
D1752*
X004382Y006870D03*
D1753*
X004379Y006870D03*
D1754*
X004373Y006870D03*
D1755*
X004370Y006870D03*
D1756*
X004367Y006870D03*
D1757*
X004364Y006870D03*
D1758*
X004358Y006870D03*
D1759*
X004352Y006870D03*
D1760*
X004349Y006868D03*
D1761*
X004346Y006868D03*
D1762*
X004343Y006868D03*
D1763*
X004340Y006868D03*
D1764*
X004337Y006868D03*
D1765*
X004334Y006868D03*
D1766*
X004331Y006868D03*
D1767*
X004328Y006870D03*
D1768*
X004325Y006870D03*
D1769*
X004322Y006870D03*
D1770*
X004319Y006870D03*
D1771*
X004316Y006870D03*
D1772*
X004313Y006870D03*
D1773*
X004310Y006870D03*
D1774*
X004307Y006868D03*
D1775*
X004304Y006868D03*
D1776*
X004301Y006868D03*
D1777*
X004295Y006870D03*
D1778*
X004292Y006870D03*
D1779*
X004289Y006870D03*
D1780*
X004286Y006870D03*
D1781*
X004283Y006868D03*
D1782*
X004280Y006868D03*
D1783*
X004277Y006868D03*
D1784*
X004274Y006870D03*
D1785*
X004271Y006870D03*
D1786*
X004268Y006870D03*
D1787*
X004265Y006868D03*
D1788*
X004262Y006868D03*
D1789*
X004256Y006870D03*
D1790*
X004253Y006870D03*
D1791*
X004250Y006870D03*
D1792*
X004244Y006868D03*
D1793*
X004238Y006870D03*
D1794*
X004235Y006868D03*
D1795*
X004232Y006868D03*
D1796*
X004220Y006868D03*
D1797*
X004208Y006868D03*
D1798*
X004196Y006870D03*
D1799*
X004187Y006870D03*
D1800*
X004184Y006870D03*
D1801*
X004175Y006870D03*
D1802*
X004172Y006868D03*
D1803*
X004169Y006870D03*
D1804*
X004166Y006868D03*
D1805*
X004163Y006868D03*
D1806*
X004160Y006870D03*
D1807*
X004157Y006868D03*
D1808*
X004154Y006868D03*
D1809*
X004151Y006870D03*
D1810*
X004148Y006868D03*
D1811*
X004145Y006870D03*
D1812*
X004142Y006868D03*
D1813*
X004139Y006870D03*
D1814*
X004136Y006868D03*
D1815*
X004133Y006870D03*
D1816*
X004130Y006868D03*
D1817*
X004127Y006868D03*
D1818*
X004124Y006870D03*
D1819*
X004121Y006870D03*
D1820*
X004115Y006870D03*
D1821*
X004112Y006868D03*
D1822*
X004106Y006868D03*
D1823*
X004103Y006870D03*
D1824*
X004100Y006868D03*
D1825*
X004097Y006870D03*
D1826*
X004094Y006868D03*
D1827*
X004091Y006870D03*
D1828*
X004088Y006868D03*
D1829*
X004085Y006870D03*
D1830*
X004082Y006870D03*
D1831*
X004079Y006868D03*
D1832*
X004076Y006870D03*
D1833*
X004073Y006868D03*
D1834*
X004070Y006868D03*
D1835*
X004067Y006870D03*
D1836*
X004064Y006868D03*
D1837*
X004061Y006868D03*
D1838*
X004058Y006870D03*
D1839*
X004055Y006868D03*
D1840*
X004052Y006868D03*
D1841*
X004049Y006870D03*
D1842*
X004046Y006870D03*
D1843*
X004043Y006868D03*
D1844*
X004040Y006868D03*
D1845*
X004037Y006870D03*
D1846*
X004034Y006870D03*
D1847*
X004031Y006870D03*
D1848*
X004028Y006868D03*
D1849*
X004025Y006868D03*
D1850*
X004022Y006870D03*
D1851*
X004016Y006870D03*
D1852*
X004013Y006870D03*
D1853*
X004010Y006868D03*
D1854*
X004007Y006868D03*
D1855*
X004004Y006868D03*
D1856*
X004001Y006868D03*
D1857*
X003998Y006870D03*
D1858*
X003995Y006870D03*
D1859*
X003992Y006870D03*
D1860*
X003989Y006870D03*
D1861*
X003986Y006870D03*
D1862*
X003983Y006870D03*
D1863*
X003980Y006870D03*
D1864*
X003971Y006868D03*
D1865*
X003968Y006868D03*
D1866*
X003965Y006870D03*
D1867*
X003962Y006870D03*
D1868*
X003956Y006868D03*
D1869*
X003953Y006870D03*
D1870*
X003950Y006868D03*
D1871*
X003947Y006870D03*
D1872*
X003944Y006870D03*
D1873*
X003941Y006868D03*
D1874*
X003938Y006870D03*
D1875*
X003935Y006870D03*
D1876*
X003932Y006868D03*
D1877*
X003929Y006870D03*
D1878*
X003926Y006870D03*
D1879*
X003923Y006870D03*
D1880*
X003914Y006870D03*
D1881*
X003911Y006870D03*
D1882*
X003908Y006870D03*
D1883*
X003905Y006870D03*
D1884*
X003899Y006870D03*
D1885*
X003896Y006870D03*
D1886*
X003893Y006870D03*
D1887*
X003890Y006870D03*
D1888*
X003887Y006868D03*
D1889*
X003884Y006868D03*
D1890*
X003878Y006870D03*
D1891*
X003875Y006870D03*
D1892*
X003872Y006870D03*
D1893*
X003869Y006870D03*
D1894*
X003866Y006868D03*
D1895*
X003863Y006870D03*
D1896*
X003860Y006870D03*
D1897*
X003857Y006870D03*
D1898*
X003854Y006870D03*
D1899*
X003845Y006868D03*
D1900*
X003836Y006868D03*
D1901*
X003833Y006870D03*
D1902*
X003830Y006870D03*
D1903*
X003827Y006870D03*
D1904*
X003824Y006868D03*
D1905*
X003821Y006870D03*
D1906*
X003815Y006870D03*
D1907*
X003812Y006868D03*
D1908*
X003794Y006870D03*
D1909*
X003785Y006870D03*
D1910*
X003770Y006870D03*
M02*
