G75*
G70*
%OFA0B0*%
%FSLAX24Y24*%
%IPPOS*%
%LPD*%
%AMOC8*
5,1,8,0,0,1.08239X$1,22.5*
%
%ADD10R,0.0480X0.0880*%
%ADD11R,0.1417X0.0866*%
%ADD12C,0.0600*%
%ADD13R,0.0315X0.0315*%
%ADD14R,0.0512X0.0591*%
%ADD15C,0.0860*%
%ADD16R,0.0236X0.0866*%
%ADD17R,0.0591X0.0512*%
%ADD18R,0.0394X0.0551*%
%ADD19C,0.0100*%
%ADD20C,0.0320*%
%ADD21C,0.0540*%
%ADD22C,0.0660*%
D10*
X006701Y005873D03*
X007611Y005873D03*
X008521Y005873D03*
D11*
X007611Y003433D03*
D12*
X002411Y002753D02*
X001811Y002753D01*
X001811Y003753D02*
X002411Y003753D01*
X002411Y004753D02*
X001811Y004753D01*
X001811Y005753D02*
X002411Y005753D01*
X002411Y007553D02*
X001811Y007553D01*
X001811Y008553D02*
X002411Y008553D01*
X002411Y009553D02*
X001811Y009553D01*
X001811Y010553D02*
X002411Y010553D01*
X010111Y010453D02*
X010711Y010453D01*
X010711Y009453D02*
X010111Y009453D01*
X010111Y007653D02*
X010711Y007653D01*
X010711Y006653D02*
X010111Y006653D01*
X010111Y004853D02*
X010711Y004853D01*
X010711Y003853D02*
X010111Y003853D01*
D13*
X010815Y002553D03*
X011406Y002553D03*
D14*
X010185Y002553D03*
X009437Y002553D03*
D15*
X008279Y009685D03*
X007295Y009685D03*
X005326Y009685D03*
X004342Y009685D03*
X006311Y011653D03*
D16*
X005561Y007677D03*
X005061Y007677D03*
X004561Y007677D03*
X004061Y007677D03*
X004061Y005630D03*
X004561Y005630D03*
X005061Y005630D03*
X005561Y005630D03*
D17*
X006711Y006979D03*
X006711Y007727D03*
X005911Y003427D03*
X005911Y002679D03*
X004911Y002679D03*
X004911Y003427D03*
X003911Y003427D03*
X003911Y002679D03*
D18*
X008311Y006920D03*
X008685Y007786D03*
X007937Y007786D03*
D19*
X007711Y007353D02*
X007311Y007753D01*
X007311Y008353D01*
X006911Y008753D01*
X004711Y008753D01*
X004561Y008603D01*
X003611Y009553D01*
X003611Y010553D01*
X004011Y010953D01*
X005611Y010953D01*
X006311Y011653D01*
X004561Y008603D02*
X004561Y007677D01*
X005011Y007627D02*
X005061Y007677D01*
X005011Y007627D02*
X005011Y007053D01*
X004811Y006853D01*
X003711Y006853D01*
X003411Y007153D01*
X003411Y007453D01*
X002311Y008553D01*
X002111Y008553D01*
X001511Y008553D01*
X001111Y008153D01*
X001111Y004153D01*
X001511Y003753D01*
X002111Y003753D01*
X002111Y002753D02*
X002811Y002753D01*
X003411Y003353D01*
X003411Y002253D01*
X003811Y001853D01*
X008737Y001853D01*
X009437Y002553D01*
X009111Y003053D02*
X011111Y003053D01*
X011411Y002753D01*
X011411Y002558D01*
X011406Y002553D01*
X010815Y002553D02*
X010185Y002553D01*
X009111Y003053D02*
X008737Y002679D01*
X005911Y002679D01*
X005485Y002253D01*
X004311Y002253D01*
X003911Y002653D01*
X003911Y002679D01*
X003911Y003427D02*
X003485Y003427D01*
X003411Y003353D01*
X003911Y003427D02*
X004061Y003577D01*
X004061Y005630D01*
X004061Y005803D01*
X003711Y006153D01*
X003211Y006153D01*
X002111Y007253D01*
X002111Y007553D01*
X003111Y008053D02*
X003611Y007553D01*
X003611Y007253D01*
X003811Y007053D01*
X004711Y007053D01*
X004811Y007153D01*
X004811Y008253D01*
X004911Y008353D01*
X005411Y008353D01*
X005511Y008253D01*
X005511Y007727D01*
X005561Y007677D01*
X006411Y007753D02*
X006685Y007753D01*
X006711Y007727D01*
X006411Y007753D02*
X005061Y006403D01*
X005061Y005630D01*
X004561Y005630D02*
X004561Y003777D01*
X004911Y003427D01*
X004911Y002679D02*
X005163Y002679D01*
X005911Y003427D01*
X006711Y004227D01*
X006711Y004353D01*
X007411Y004653D02*
X006701Y005363D01*
X006701Y005873D01*
X007137Y006553D02*
X006711Y006979D01*
X007137Y006553D02*
X007911Y006553D01*
X008521Y005943D01*
X008521Y005873D01*
X007611Y005873D02*
X007611Y005053D01*
X008311Y004353D01*
X008911Y004353D01*
X009411Y003853D01*
X010411Y003853D01*
X008211Y007353D02*
X007711Y007353D01*
X008211Y007353D02*
X008644Y007786D01*
X008685Y007786D01*
X004111Y007727D02*
X004111Y008553D01*
X004111Y007727D02*
X004061Y007677D01*
X003111Y008053D02*
X003111Y008753D01*
X002311Y009553D01*
X002111Y009553D01*
D20*
X004111Y008553D03*
X007411Y004653D03*
X006711Y004353D03*
X004311Y002253D03*
D21*
X007937Y007786D02*
X007937Y008179D01*
X008411Y008653D01*
X010011Y008653D01*
X010411Y009053D01*
X010411Y009453D01*
X010411Y010453D02*
X011311Y010453D01*
X011611Y010153D01*
X011611Y008253D01*
X011011Y007653D01*
X011611Y007053D01*
X011611Y005253D01*
X011211Y004853D01*
X010411Y004853D01*
X011611Y007053D02*
X011611Y007453D01*
X011411Y007653D01*
X011011Y007653D01*
X010411Y007653D01*
X011611Y007453D02*
X011611Y008253D01*
D22*
X009766Y006920D02*
X008311Y006920D01*
X009766Y006920D02*
X009826Y006918D01*
X009885Y006912D01*
X009944Y006902D01*
X010002Y006889D01*
X010059Y006872D01*
X010115Y006851D01*
X010169Y006826D01*
X010221Y006798D01*
X010272Y006766D01*
X010321Y006732D01*
X010367Y006694D01*
X010410Y006653D01*
M02*
