G75*
G70*
%OFA0B0*%
%FSLAX24Y24*%
%IPPOS*%
%LPD*%
%AMOC8*
5,1,8,0,0,1.08239X$1,22.5*
%
%ADD10C,0.0090*%
%ADD11R,0.0042X0.0003*%
%ADD12R,0.0066X0.0003*%
%ADD13R,0.0084X0.0003*%
%ADD14R,0.0105X0.0003*%
%ADD15R,0.0117X0.0003*%
%ADD16R,0.0135X0.0003*%
%ADD17R,0.0147X0.0003*%
%ADD18R,0.0162X0.0003*%
%ADD19R,0.0174X0.0003*%
%ADD20R,0.0186X0.0003*%
%ADD21R,0.0198X0.0003*%
%ADD22R,0.0210X0.0003*%
%ADD23R,0.0222X0.0003*%
%ADD24R,0.0234X0.0003*%
%ADD25R,0.0243X0.0003*%
%ADD26R,0.0255X0.0003*%
%ADD27R,0.0264X0.0003*%
%ADD28R,0.0273X0.0003*%
%ADD29R,0.0285X0.0003*%
%ADD30R,0.0297X0.0003*%
%ADD31R,0.0303X0.0003*%
%ADD32R,0.0315X0.0003*%
%ADD33R,0.0327X0.0003*%
%ADD34R,0.0333X0.0003*%
%ADD35R,0.0345X0.0003*%
%ADD36R,0.0354X0.0003*%
%ADD37R,0.0363X0.0003*%
%ADD38R,0.0372X0.0003*%
%ADD39R,0.0381X0.0003*%
%ADD40R,0.0390X0.0003*%
%ADD41R,0.0402X0.0003*%
%ADD42R,0.0408X0.0003*%
%ADD43R,0.0420X0.0003*%
%ADD44R,0.0426X0.0003*%
%ADD45R,0.0438X0.0003*%
%ADD46R,0.0444X0.0003*%
%ADD47R,0.0456X0.0003*%
%ADD48R,0.0462X0.0003*%
%ADD49R,0.0468X0.0003*%
%ADD50R,0.0480X0.0003*%
%ADD51R,0.0486X0.0003*%
%ADD52R,0.0495X0.0003*%
%ADD53R,0.0504X0.0003*%
%ADD54R,0.0513X0.0003*%
%ADD55R,0.0522X0.0003*%
%ADD56R,0.0528X0.0003*%
%ADD57R,0.0537X0.0003*%
%ADD58R,0.0546X0.0003*%
%ADD59R,0.0555X0.0003*%
%ADD60R,0.0561X0.0003*%
%ADD61R,0.0570X0.0003*%
%ADD62R,0.0579X0.0003*%
%ADD63R,0.0585X0.0003*%
%ADD64R,0.0594X0.0003*%
%ADD65R,0.0603X0.0003*%
%ADD66R,0.0609X0.0003*%
%ADD67R,0.0618X0.0003*%
%ADD68R,0.0627X0.0003*%
%ADD69R,0.0633X0.0003*%
%ADD70R,0.0639X0.0003*%
%ADD71R,0.0651X0.0003*%
%ADD72R,0.0657X0.0003*%
%ADD73R,0.0663X0.0003*%
%ADD74R,0.0675X0.0003*%
%ADD75R,0.0681X0.0003*%
%ADD76R,0.0687X0.0003*%
%ADD77R,0.0693X0.0003*%
%ADD78R,0.0705X0.0003*%
%ADD79R,0.0711X0.0003*%
%ADD80R,0.0717X0.0003*%
%ADD81R,0.0726X0.0003*%
%ADD82R,0.0732X0.0003*%
%ADD83R,0.0741X0.0003*%
%ADD84R,0.0747X0.0003*%
%ADD85R,0.0756X0.0003*%
%ADD86R,0.0762X0.0003*%
%ADD87R,0.0771X0.0003*%
%ADD88R,0.0777X0.0003*%
%ADD89R,0.0786X0.0003*%
%ADD90R,0.0792X0.0003*%
%ADD91R,0.0798X0.0003*%
%ADD92R,0.0807X0.0003*%
%ADD93R,0.0813X0.0003*%
%ADD94R,0.0822X0.0003*%
%ADD95R,0.0828X0.0003*%
%ADD96R,0.0837X0.0003*%
%ADD97R,0.0843X0.0003*%
%ADD98R,0.0852X0.0003*%
%ADD99R,0.0858X0.0003*%
%ADD100R,0.0864X0.0003*%
%ADD101R,0.0870X0.0003*%
%ADD102R,0.0879X0.0003*%
%ADD103R,0.0885X0.0003*%
%ADD104R,0.0894X0.0003*%
%ADD105R,0.0900X0.0003*%
%ADD106R,0.0906X0.0003*%
%ADD107R,0.0912X0.0003*%
%ADD108R,0.0921X0.0003*%
%ADD109R,0.0930X0.0003*%
%ADD110R,0.0936X0.0003*%
%ADD111R,0.0942X0.0003*%
%ADD112R,0.0948X0.0003*%
%ADD113R,0.0954X0.0003*%
%ADD114R,0.0963X0.0003*%
%ADD115R,0.0972X0.0003*%
%ADD116R,0.0978X0.0003*%
%ADD117R,0.0984X0.0003*%
%ADD118R,0.0990X0.0003*%
%ADD119R,0.0996X0.0003*%
%ADD120R,0.1002X0.0003*%
%ADD121R,0.1008X0.0003*%
%ADD122R,0.1020X0.0003*%
%ADD123R,0.1026X0.0003*%
%ADD124R,0.1032X0.0003*%
%ADD125R,0.1038X0.0003*%
%ADD126R,0.1044X0.0003*%
%ADD127R,0.1050X0.0003*%
%ADD128R,0.1056X0.0003*%
%ADD129R,0.1068X0.0003*%
%ADD130R,0.1074X0.0003*%
%ADD131R,0.1080X0.0003*%
%ADD132R,0.1086X0.0003*%
%ADD133R,0.1092X0.0003*%
%ADD134R,0.1098X0.0003*%
%ADD135R,0.1104X0.0003*%
%ADD136R,0.1110X0.0003*%
%ADD137R,0.1116X0.0003*%
%ADD138R,0.1125X0.0003*%
%ADD139R,0.1131X0.0003*%
%ADD140R,0.1140X0.0003*%
%ADD141R,0.1146X0.0003*%
%ADD142R,0.1152X0.0003*%
%ADD143R,0.1158X0.0003*%
%ADD144R,0.1164X0.0003*%
%ADD145R,0.1170X0.0003*%
%ADD146R,0.1176X0.0003*%
%ADD147R,0.1182X0.0003*%
%ADD148R,0.1191X0.0003*%
%ADD149R,0.1197X0.0003*%
%ADD150R,0.1203X0.0003*%
%ADD151R,0.1209X0.0003*%
%ADD152R,0.1218X0.0003*%
%ADD153R,0.1224X0.0003*%
%ADD154R,0.1230X0.0003*%
%ADD155R,0.1236X0.0003*%
%ADD156R,0.1242X0.0003*%
%ADD157R,0.1248X0.0003*%
%ADD158R,0.1254X0.0003*%
%ADD159R,0.1260X0.0003*%
%ADD160R,0.1266X0.0003*%
%ADD161R,0.1275X0.0003*%
%ADD162R,0.1281X0.0003*%
%ADD163R,0.1287X0.0003*%
%ADD164R,0.1293X0.0003*%
%ADD165R,0.1299X0.0003*%
%ADD166R,0.1305X0.0003*%
%ADD167R,0.1314X0.0003*%
%ADD168R,0.1320X0.0003*%
%ADD169R,0.1326X0.0003*%
%ADD170R,0.1332X0.0003*%
%ADD171R,0.1338X0.0003*%
%ADD172R,0.1344X0.0003*%
%ADD173R,0.1350X0.0003*%
%ADD174R,0.1356X0.0003*%
%ADD175R,0.1362X0.0003*%
%ADD176R,0.1368X0.0003*%
%ADD177R,0.1374X0.0003*%
%ADD178R,0.1380X0.0003*%
%ADD179R,0.1386X0.0003*%
%ADD180R,0.1395X0.0003*%
%ADD181R,0.1401X0.0003*%
%ADD182R,0.1407X0.0003*%
%ADD183R,0.1413X0.0003*%
%ADD184R,0.1419X0.0003*%
%ADD185R,0.1425X0.0003*%
%ADD186R,0.1431X0.0003*%
%ADD187R,0.1437X0.0003*%
%ADD188R,0.1443X0.0003*%
%ADD189R,0.1449X0.0003*%
%ADD190R,0.1455X0.0003*%
%ADD191R,0.1461X0.0003*%
%ADD192R,0.1467X0.0003*%
%ADD193R,0.1473X0.0003*%
%ADD194R,0.1479X0.0003*%
%ADD195R,0.1485X0.0003*%
%ADD196R,0.1491X0.0003*%
%ADD197R,0.1497X0.0003*%
%ADD198R,0.1503X0.0003*%
%ADD199R,0.1509X0.0003*%
%ADD200R,0.1515X0.0003*%
%ADD201R,0.1521X0.0003*%
%ADD202R,0.1527X0.0003*%
%ADD203R,0.1533X0.0003*%
%ADD204R,0.1539X0.0003*%
%ADD205R,0.1545X0.0003*%
%ADD206R,0.1551X0.0003*%
%ADD207R,0.1557X0.0003*%
%ADD208R,0.1563X0.0003*%
%ADD209R,0.1569X0.0003*%
%ADD210R,0.1575X0.0003*%
%ADD211R,0.1581X0.0003*%
%ADD212R,0.1587X0.0003*%
%ADD213R,0.1593X0.0003*%
%ADD214R,0.1599X0.0003*%
%ADD215R,0.1605X0.0003*%
%ADD216R,0.1611X0.0003*%
%ADD217R,0.1617X0.0003*%
%ADD218R,0.1623X0.0003*%
%ADD219R,0.1629X0.0003*%
%ADD220R,0.1635X0.0003*%
%ADD221R,0.1641X0.0003*%
%ADD222R,0.1647X0.0003*%
%ADD223R,0.1653X0.0003*%
%ADD224R,0.1659X0.0003*%
%ADD225R,0.1665X0.0003*%
%ADD226R,0.1671X0.0003*%
%ADD227R,0.1677X0.0003*%
%ADD228R,0.1683X0.0003*%
%ADD229R,0.1686X0.0003*%
%ADD230R,0.1692X0.0003*%
%ADD231R,0.1698X0.0003*%
%ADD232R,0.1704X0.0003*%
%ADD233R,0.1710X0.0003*%
%ADD234R,0.1716X0.0003*%
%ADD235R,0.1722X0.0003*%
%ADD236R,0.1728X0.0003*%
%ADD237R,0.1734X0.0003*%
%ADD238R,0.1740X0.0003*%
%ADD239R,0.1746X0.0003*%
%ADD240R,0.1752X0.0003*%
%ADD241R,0.1758X0.0003*%
%ADD242R,0.1764X0.0003*%
%ADD243R,0.1767X0.0003*%
%ADD244R,0.1773X0.0003*%
%ADD245R,0.1779X0.0003*%
%ADD246R,0.1785X0.0003*%
%ADD247R,0.1791X0.0003*%
%ADD248R,0.1797X0.0003*%
%ADD249R,0.1803X0.0003*%
%ADD250R,0.1809X0.0003*%
%ADD251R,0.1815X0.0003*%
%ADD252R,0.1818X0.0003*%
%ADD253R,0.1824X0.0003*%
%ADD254R,0.1830X0.0003*%
%ADD255R,0.1836X0.0003*%
%ADD256R,0.1842X0.0003*%
%ADD257R,0.1848X0.0003*%
%ADD258R,0.1854X0.0003*%
%ADD259R,0.1860X0.0003*%
%ADD260R,0.1863X0.0003*%
%ADD261R,0.1869X0.0003*%
%ADD262R,0.1875X0.0003*%
%ADD263R,0.1881X0.0003*%
%ADD264R,0.1887X0.0003*%
%ADD265R,0.1890X0.0003*%
%ADD266R,0.1896X0.0003*%
%ADD267R,0.1902X0.0003*%
%ADD268R,0.1908X0.0003*%
%ADD269R,0.1914X0.0003*%
%ADD270R,0.1920X0.0003*%
%ADD271R,0.1926X0.0003*%
%ADD272R,0.1932X0.0003*%
%ADD273R,0.1938X0.0003*%
%ADD274R,0.1941X0.0003*%
%ADD275R,0.1947X0.0003*%
%ADD276R,0.1953X0.0003*%
%ADD277R,0.1959X0.0003*%
%ADD278R,0.1962X0.0003*%
%ADD279R,0.1968X0.0003*%
%ADD280R,0.1974X0.0003*%
%ADD281R,0.1980X0.0003*%
%ADD282R,0.1986X0.0003*%
%ADD283R,0.1992X0.0003*%
%ADD284R,0.1998X0.0003*%
%ADD285R,0.2004X0.0003*%
%ADD286R,0.2007X0.0003*%
%ADD287R,0.2013X0.0003*%
%ADD288R,0.2019X0.0003*%
%ADD289R,0.2022X0.0003*%
%ADD290R,0.2028X0.0003*%
%ADD291R,0.2034X0.0003*%
%ADD292R,0.2040X0.0003*%
%ADD293R,0.2046X0.0003*%
%ADD294R,0.2052X0.0003*%
%ADD295R,0.2055X0.0003*%
%ADD296R,0.2061X0.0003*%
%ADD297R,0.2067X0.0003*%
%ADD298R,0.2070X0.0003*%
%ADD299R,0.2076X0.0003*%
%ADD300R,0.2082X0.0003*%
%ADD301R,0.2088X0.0003*%
%ADD302R,0.2094X0.0003*%
%ADD303R,0.2100X0.0003*%
%ADD304R,0.2106X0.0003*%
%ADD305R,0.2109X0.0003*%
%ADD306R,0.2115X0.0003*%
%ADD307R,0.2118X0.0003*%
%ADD308R,0.2124X0.0003*%
%ADD309R,0.2130X0.0003*%
%ADD310R,0.2136X0.0003*%
%ADD311R,0.2142X0.0003*%
%ADD312R,0.2148X0.0003*%
%ADD313R,0.2154X0.0003*%
%ADD314R,0.2157X0.0003*%
%ADD315R,0.2160X0.0003*%
%ADD316R,0.2166X0.0003*%
%ADD317R,0.2172X0.0003*%
%ADD318R,0.2178X0.0003*%
%ADD319R,0.2184X0.0003*%
%ADD320R,0.2190X0.0003*%
%ADD321R,0.2196X0.0003*%
%ADD322R,0.2196X0.0003*%
%ADD323R,0.2202X0.0003*%
%ADD324R,0.2208X0.0003*%
%ADD325R,0.2214X0.0003*%
%ADD326R,0.2220X0.0003*%
%ADD327R,0.2226X0.0003*%
%ADD328R,0.2232X0.0003*%
%ADD329R,0.2238X0.0003*%
%ADD330R,0.2244X0.0003*%
%ADD331R,0.2250X0.0003*%
%ADD332R,0.2256X0.0003*%
%ADD333R,0.2262X0.0003*%
%ADD334R,0.2268X0.0003*%
%ADD335R,0.2274X0.0003*%
%ADD336R,0.2274X0.0003*%
%ADD337R,0.2280X0.0003*%
%ADD338R,0.2286X0.0003*%
%ADD339R,0.2292X0.0003*%
%ADD340R,0.2298X0.0003*%
%ADD341R,0.2304X0.0003*%
%ADD342R,0.2304X0.0003*%
%ADD343R,0.2310X0.0003*%
%ADD344R,0.2316X0.0003*%
%ADD345R,0.2322X0.0003*%
%ADD346R,0.2328X0.0003*%
%ADD347R,0.2334X0.0003*%
%ADD348R,0.2337X0.0003*%
%ADD349R,0.2340X0.0003*%
%ADD350R,0.2346X0.0003*%
%ADD351R,0.2352X0.0003*%
%ADD352R,0.2358X0.0003*%
%ADD353R,0.2364X0.0003*%
%ADD354R,0.2367X0.0003*%
%ADD355R,0.2373X0.0003*%
%ADD356R,0.2376X0.0003*%
%ADD357R,0.2382X0.0003*%
%ADD358R,0.2388X0.0003*%
%ADD359R,0.2394X0.0003*%
%ADD360R,0.2397X0.0003*%
%ADD361R,0.2400X0.0003*%
%ADD362R,0.2406X0.0003*%
%ADD363R,0.2412X0.0003*%
%ADD364R,0.2418X0.0003*%
%ADD365R,0.2424X0.0003*%
%ADD366R,0.2427X0.0003*%
%ADD367R,0.2430X0.0003*%
%ADD368R,0.2436X0.0003*%
%ADD369R,0.2442X0.0003*%
%ADD370R,0.2448X0.0003*%
%ADD371R,0.2454X0.0003*%
%ADD372R,0.2457X0.0003*%
%ADD373R,0.2460X0.0003*%
%ADD374R,0.2466X0.0003*%
%ADD375R,0.2472X0.0003*%
%ADD376R,0.2478X0.0003*%
%ADD377R,0.2481X0.0003*%
%ADD378R,0.2487X0.0003*%
%ADD379R,0.2490X0.0003*%
%ADD380R,0.2496X0.0003*%
%ADD381R,0.2502X0.0003*%
%ADD382R,0.2505X0.0003*%
%ADD383R,0.2511X0.0003*%
%ADD384R,0.2514X0.0003*%
%ADD385R,0.2520X0.0003*%
%ADD386R,0.2526X0.0003*%
%ADD387R,0.2529X0.0003*%
%ADD388R,0.2535X0.0003*%
%ADD389R,0.2538X0.0003*%
%ADD390R,0.2544X0.0003*%
%ADD391R,0.2550X0.0003*%
%ADD392R,0.2553X0.0003*%
%ADD393R,0.2559X0.0003*%
%ADD394R,0.2562X0.0003*%
%ADD395R,0.2568X0.0003*%
%ADD396R,0.2574X0.0003*%
%ADD397R,0.2577X0.0003*%
%ADD398R,0.2583X0.0003*%
%ADD399R,0.2586X0.0003*%
%ADD400R,0.2592X0.0003*%
%ADD401R,0.2598X0.0003*%
%ADD402R,0.2601X0.0003*%
%ADD403R,0.2607X0.0003*%
%ADD404R,0.2610X0.0003*%
%ADD405R,0.2616X0.0003*%
%ADD406R,0.2619X0.0003*%
%ADD407R,0.2625X0.0003*%
%ADD408R,0.2631X0.0003*%
%ADD409R,0.2634X0.0003*%
%ADD410R,0.2640X0.0003*%
%ADD411R,0.2643X0.0003*%
%ADD412R,0.2649X0.0003*%
%ADD413R,0.2655X0.0003*%
%ADD414R,0.2658X0.0003*%
%ADD415R,0.2661X0.0003*%
%ADD416R,0.2667X0.0003*%
%ADD417R,0.2673X0.0003*%
%ADD418R,0.2676X0.0003*%
%ADD419R,0.2682X0.0003*%
%ADD420R,0.2685X0.0003*%
%ADD421R,0.2691X0.0003*%
%ADD422R,0.2697X0.0003*%
%ADD423R,0.2700X0.0003*%
%ADD424R,0.2703X0.0003*%
%ADD425R,0.2709X0.0003*%
%ADD426R,0.2715X0.0003*%
%ADD427R,0.2718X0.0003*%
%ADD428R,0.2721X0.0003*%
%ADD429R,0.2727X0.0003*%
%ADD430R,0.2733X0.0003*%
%ADD431R,0.2739X0.0003*%
%ADD432R,0.2739X0.0003*%
%ADD433R,0.2745X0.0003*%
%ADD434R,0.2751X0.0003*%
%ADD435R,0.2757X0.0003*%
%ADD436R,0.2757X0.0003*%
%ADD437R,0.2763X0.0003*%
%ADD438R,0.2769X0.0003*%
%ADD439R,0.2775X0.0003*%
%ADD440R,0.2781X0.0003*%
%ADD441R,0.2787X0.0003*%
%ADD442R,0.2793X0.0003*%
%ADD443R,0.2799X0.0003*%
%ADD444R,0.2805X0.0003*%
%ADD445R,0.2811X0.0003*%
%ADD446R,0.2817X0.0003*%
%ADD447R,0.2823X0.0003*%
%ADD448R,0.2829X0.0003*%
%ADD449R,0.2829X0.0003*%
%ADD450R,0.2835X0.0003*%
%ADD451R,0.2841X0.0003*%
%ADD452R,0.2847X0.0003*%
%ADD453R,0.2847X0.0003*%
%ADD454R,0.2853X0.0003*%
%ADD455R,0.2859X0.0003*%
%ADD456R,0.2865X0.0003*%
%ADD457R,0.2871X0.0003*%
%ADD458R,0.2877X0.0003*%
%ADD459R,0.2880X0.0003*%
%ADD460R,0.2883X0.0003*%
%ADD461R,0.2889X0.0003*%
%ADD462R,0.2895X0.0003*%
%ADD463R,0.2898X0.0003*%
%ADD464R,0.2901X0.0003*%
%ADD465R,0.2907X0.0003*%
%ADD466R,0.2910X0.0003*%
%ADD467R,0.2913X0.0003*%
%ADD468R,0.2919X0.0003*%
%ADD469R,0.2925X0.0003*%
%ADD470R,0.2928X0.0003*%
%ADD471R,0.2931X0.0003*%
%ADD472R,0.2937X0.0003*%
%ADD473R,0.2940X0.0003*%
%ADD474R,0.2946X0.0003*%
%ADD475R,0.2949X0.0003*%
%ADD476R,0.2955X0.0003*%
%ADD477R,0.2958X0.0003*%
%ADD478R,0.2961X0.0003*%
%ADD479R,0.2967X0.0003*%
%ADD480R,0.2970X0.0003*%
%ADD481R,0.2973X0.0003*%
%ADD482R,0.2979X0.0003*%
%ADD483R,0.2985X0.0003*%
%ADD484R,0.2988X0.0003*%
%ADD485R,0.2991X0.0003*%
%ADD486R,0.2997X0.0003*%
%ADD487R,0.3000X0.0003*%
%ADD488R,0.3003X0.0003*%
%ADD489R,0.3009X0.0003*%
%ADD490R,0.3015X0.0003*%
%ADD491R,0.3018X0.0003*%
%ADD492R,0.3021X0.0003*%
%ADD493R,0.3027X0.0003*%
%ADD494R,0.3030X0.0003*%
%ADD495R,0.3033X0.0003*%
%ADD496R,0.3039X0.0003*%
%ADD497R,0.3042X0.0003*%
%ADD498R,0.3045X0.0003*%
%ADD499R,0.3051X0.0003*%
%ADD500R,0.3054X0.0003*%
%ADD501R,0.3060X0.0003*%
%ADD502R,0.3063X0.0003*%
%ADD503R,0.3066X0.0003*%
%ADD504R,0.3072X0.0003*%
%ADD505R,0.3075X0.0003*%
%ADD506R,0.3081X0.0003*%
%ADD507R,0.3084X0.0003*%
%ADD508R,0.3090X0.0003*%
%ADD509R,0.3093X0.0003*%
%ADD510R,0.3096X0.0003*%
%ADD511R,0.3102X0.0003*%
%ADD512R,0.3105X0.0003*%
%ADD513R,0.3108X0.0003*%
%ADD514R,0.3114X0.0003*%
%ADD515R,0.3117X0.0003*%
%ADD516R,0.3120X0.0003*%
%ADD517R,0.3126X0.0003*%
%ADD518R,0.3129X0.0003*%
%ADD519R,0.3132X0.0003*%
%ADD520R,0.3138X0.0003*%
%ADD521R,0.3141X0.0003*%
%ADD522R,0.3144X0.0003*%
%ADD523R,0.3150X0.0003*%
%ADD524R,0.3153X0.0003*%
%ADD525R,0.3156X0.0003*%
%ADD526R,0.3162X0.0003*%
%ADD527R,0.3165X0.0003*%
%ADD528R,0.3168X0.0003*%
%ADD529R,0.3174X0.0003*%
%ADD530R,0.3180X0.0003*%
%ADD531R,0.3186X0.0003*%
%ADD532R,0.3186X0.0003*%
%ADD533R,0.3192X0.0003*%
%ADD534R,0.3198X0.0003*%
%ADD535R,0.3204X0.0003*%
%ADD536R,0.3210X0.0003*%
%ADD537R,0.3216X0.0003*%
%ADD538R,0.3222X0.0003*%
%ADD539R,0.3222X0.0003*%
%ADD540R,0.3228X0.0003*%
%ADD541R,0.3234X0.0003*%
%ADD542R,0.3240X0.0003*%
%ADD543R,0.3246X0.0003*%
%ADD544R,0.3246X0.0003*%
%ADD545R,0.3252X0.0003*%
%ADD546R,0.3255X0.0003*%
%ADD547R,0.3258X0.0003*%
%ADD548R,0.3264X0.0003*%
%ADD549R,0.3264X0.0003*%
%ADD550R,0.3270X0.0003*%
%ADD551R,0.3276X0.0003*%
%ADD552R,0.3282X0.0003*%
%ADD553R,0.3288X0.0003*%
%ADD554R,0.3294X0.0003*%
%ADD555R,0.3297X0.0003*%
%ADD556R,0.3300X0.0003*%
%ADD557R,0.3306X0.0003*%
%ADD558R,0.3312X0.0003*%
%ADD559R,0.3318X0.0003*%
%ADD560R,0.3318X0.0003*%
%ADD561R,0.3324X0.0003*%
%ADD562R,0.3327X0.0003*%
%ADD563R,0.3330X0.0003*%
%ADD564R,0.3336X0.0003*%
%ADD565R,0.3339X0.0003*%
%ADD566R,0.3342X0.0003*%
%ADD567R,0.3345X0.0003*%
%ADD568R,0.3348X0.0003*%
%ADD569R,0.3354X0.0003*%
%ADD570R,0.3357X0.0003*%
%ADD571R,0.3360X0.0003*%
%ADD572R,0.3363X0.0003*%
%ADD573R,0.3366X0.0003*%
%ADD574R,0.3372X0.0003*%
%ADD575R,0.3375X0.0003*%
%ADD576R,0.3378X0.0003*%
%ADD577R,0.3381X0.0003*%
%ADD578R,0.3384X0.0003*%
%ADD579R,0.3390X0.0003*%
%ADD580R,0.3393X0.0003*%
%ADD581R,0.3396X0.0003*%
%ADD582R,0.3399X0.0003*%
%ADD583R,0.3405X0.0003*%
%ADD584R,0.3408X0.0003*%
%ADD585R,0.3411X0.0003*%
%ADD586R,0.3414X0.0003*%
%ADD587R,0.3417X0.0003*%
%ADD588R,0.3423X0.0003*%
%ADD589R,0.3426X0.0003*%
%ADD590R,0.3429X0.0003*%
%ADD591R,0.3432X0.0003*%
%ADD592R,0.3435X0.0003*%
%ADD593R,0.3441X0.0003*%
%ADD594R,0.3444X0.0003*%
%ADD595R,0.3447X0.0003*%
%ADD596R,0.3450X0.0003*%
%ADD597R,0.3453X0.0003*%
%ADD598R,0.3459X0.0003*%
%ADD599R,0.3465X0.0003*%
%ADD600R,0.3468X0.0003*%
%ADD601R,0.3471X0.0003*%
%ADD602R,0.3474X0.0003*%
%ADD603R,0.3477X0.0003*%
%ADD604R,0.3483X0.0003*%
%ADD605R,0.3483X0.0003*%
%ADD606R,0.3489X0.0003*%
%ADD607R,0.3495X0.0003*%
%ADD608R,0.3501X0.0003*%
%ADD609R,0.3501X0.0003*%
%ADD610R,0.3507X0.0003*%
%ADD611R,0.3513X0.0003*%
%ADD612R,0.3513X0.0003*%
%ADD613R,0.3519X0.0003*%
%ADD614R,0.3525X0.0003*%
%ADD615R,0.3531X0.0003*%
%ADD616R,0.3531X0.0003*%
%ADD617R,0.3537X0.0003*%
%ADD618R,0.3543X0.0003*%
%ADD619R,0.3549X0.0003*%
%ADD620R,0.3555X0.0003*%
%ADD621R,0.3561X0.0003*%
%ADD622R,0.3567X0.0003*%
%ADD623R,0.3567X0.0003*%
%ADD624R,0.3573X0.0003*%
%ADD625R,0.3579X0.0003*%
%ADD626R,0.3579X0.0003*%
%ADD627R,0.3585X0.0003*%
%ADD628R,0.3588X0.0003*%
%ADD629R,0.3591X0.0003*%
%ADD630R,0.3597X0.0003*%
%ADD631R,0.3597X0.0003*%
%ADD632R,0.3603X0.0003*%
%ADD633R,0.3609X0.0003*%
%ADD634R,0.3615X0.0003*%
%ADD635R,0.3615X0.0003*%
%ADD636R,0.3621X0.0003*%
%ADD637R,0.3624X0.0003*%
%ADD638R,0.3627X0.0003*%
%ADD639R,0.3630X0.0003*%
%ADD640R,0.3633X0.0003*%
%ADD641R,0.3636X0.0003*%
%ADD642R,0.3639X0.0003*%
%ADD643R,0.3642X0.0003*%
%ADD644R,0.3645X0.0003*%
%ADD645R,0.3648X0.0003*%
%ADD646R,0.1050X0.0003*%
%ADD647R,0.2469X0.0003*%
%ADD648R,0.1053X0.0003*%
%ADD649R,0.1056X0.0003*%
%ADD650R,0.2472X0.0003*%
%ADD651R,0.2475X0.0003*%
%ADD652R,0.1059X0.0003*%
%ADD653R,0.2478X0.0003*%
%ADD654R,0.1062X0.0003*%
%ADD655R,0.1062X0.0003*%
%ADD656R,0.2481X0.0003*%
%ADD657R,0.1065X0.0003*%
%ADD658R,0.2481X0.0003*%
%ADD659R,0.2484X0.0003*%
%ADD660R,0.1068X0.0003*%
%ADD661R,0.2487X0.0003*%
%ADD662R,0.1071X0.0003*%
%ADD663R,0.2487X0.0003*%
%ADD664R,0.1071X0.0003*%
%ADD665R,0.1074X0.0003*%
%ADD666R,0.2493X0.0003*%
%ADD667R,0.1077X0.0003*%
%ADD668R,0.1077X0.0003*%
%ADD669R,0.2496X0.0003*%
%ADD670R,0.2499X0.0003*%
%ADD671R,0.1083X0.0003*%
%ADD672R,0.2502X0.0003*%
%ADD673R,0.1086X0.0003*%
%ADD674R,0.1089X0.0003*%
%ADD675R,0.2508X0.0003*%
%ADD676R,0.1092X0.0003*%
%ADD677R,0.2511X0.0003*%
%ADD678R,0.1095X0.0003*%
%ADD679R,0.2511X0.0003*%
%ADD680R,0.2514X0.0003*%
%ADD681R,0.1098X0.0003*%
%ADD682R,0.1101X0.0003*%
%ADD683R,0.2517X0.0003*%
%ADD684R,0.1101X0.0003*%
%ADD685R,0.1104X0.0003*%
%ADD686R,0.1107X0.0003*%
%ADD687R,0.2523X0.0003*%
%ADD688R,0.1107X0.0003*%
%ADD689R,0.2523X0.0003*%
%ADD690R,0.2526X0.0003*%
%ADD691R,0.1113X0.0003*%
%ADD692R,0.1113X0.0003*%
%ADD693R,0.2532X0.0003*%
%ADD694R,0.1116X0.0003*%
%ADD695R,0.2532X0.0003*%
%ADD696R,0.1119X0.0003*%
%ADD697R,0.1122X0.0003*%
%ADD698R,0.2538X0.0003*%
%ADD699R,0.1122X0.0003*%
%ADD700R,0.2538X0.0003*%
%ADD701R,0.2541X0.0003*%
%ADD702R,0.1128X0.0003*%
%ADD703R,0.2544X0.0003*%
%ADD704R,0.1128X0.0003*%
%ADD705R,0.2544X0.0003*%
%ADD706R,0.1131X0.0003*%
%ADD707R,0.2547X0.0003*%
%ADD708R,0.1134X0.0003*%
%ADD709R,0.2550X0.0003*%
%ADD710R,0.1134X0.0003*%
%ADD711R,0.1137X0.0003*%
%ADD712R,0.2556X0.0003*%
%ADD713R,0.1140X0.0003*%
%ADD714R,0.2559X0.0003*%
%ADD715R,0.1143X0.0003*%
%ADD716R,0.1149X0.0003*%
%ADD717R,0.2565X0.0003*%
%ADD718R,0.1149X0.0003*%
%ADD719R,0.2565X0.0003*%
%ADD720R,0.1152X0.0003*%
%ADD721R,0.2568X0.0003*%
%ADD722R,0.1155X0.0003*%
%ADD723R,0.2571X0.0003*%
%ADD724R,0.1155X0.0003*%
%ADD725R,0.2571X0.0003*%
%ADD726R,0.1158X0.0003*%
%ADD727R,0.2574X0.0003*%
%ADD728R,0.1161X0.0003*%
%ADD729R,0.2577X0.0003*%
%ADD730R,0.1161X0.0003*%
%ADD731R,0.2577X0.0003*%
%ADD732R,0.1164X0.0003*%
%ADD733R,0.2580X0.0003*%
%ADD734R,0.1167X0.0003*%
%ADD735R,0.1167X0.0003*%
%ADD736R,0.2583X0.0003*%
%ADD737R,0.1173X0.0003*%
%ADD738R,0.1173X0.0003*%
%ADD739R,0.2589X0.0003*%
%ADD740R,0.2589X0.0003*%
%ADD741R,0.1179X0.0003*%
%ADD742R,0.1179X0.0003*%
%ADD743R,0.2595X0.0003*%
%ADD744R,0.2595X0.0003*%
%ADD745R,0.1182X0.0003*%
%ADD746R,0.2598X0.0003*%
%ADD747R,0.1185X0.0003*%
%ADD748R,0.1185X0.0003*%
%ADD749R,0.2601X0.0003*%
%ADD750R,0.2601X0.0003*%
%ADD751R,0.1188X0.0003*%
%ADD752R,0.2604X0.0003*%
%ADD753R,0.1191X0.0003*%
%ADD754R,0.1191X0.0003*%
%ADD755R,0.2604X0.0003*%
%ADD756R,0.2607X0.0003*%
%ADD757R,0.1194X0.0003*%
%ADD758R,0.1197X0.0003*%
%ADD759R,0.2610X0.0003*%
%ADD760R,0.0546X0.0003*%
%ADD761R,0.0219X0.0003*%
%ADD762R,0.0819X0.0003*%
%ADD763R,0.1410X0.0003*%
%ADD764R,0.0561X0.0003*%
%ADD765R,0.0195X0.0003*%
%ADD766R,0.0768X0.0003*%
%ADD767R,0.1374X0.0003*%
%ADD768R,0.0516X0.0003*%
%ADD769R,0.0549X0.0003*%
%ADD770R,0.0183X0.0003*%
%ADD771R,0.0741X0.0003*%
%ADD772R,0.1353X0.0003*%
%ADD773R,0.0060X0.0003*%
%ADD774R,0.0063X0.0003*%
%ADD775R,0.0534X0.0003*%
%ADD776R,0.0171X0.0003*%
%ADD777R,0.0708X0.0003*%
%ADD778R,0.1335X0.0003*%
%ADD779R,0.0114X0.0003*%
%ADD780R,0.0120X0.0003*%
%ADD781R,0.0522X0.0003*%
%ADD782R,0.0159X0.0003*%
%ADD783R,0.0684X0.0003*%
%ADD784R,0.1317X0.0003*%
%ADD785R,0.0156X0.0003*%
%ADD786R,0.0489X0.0003*%
%ADD787R,0.0150X0.0003*%
%ADD788R,0.0666X0.0003*%
%ADD789R,0.1311X0.0003*%
%ADD790R,0.0171X0.0003*%
%ADD791R,0.0180X0.0003*%
%ADD792R,0.0231X0.0003*%
%ADD793R,0.0141X0.0003*%
%ADD794R,0.0645X0.0003*%
%ADD795R,0.0219X0.0003*%
%ADD796R,0.0429X0.0003*%
%ADD797R,0.0348X0.0003*%
%ADD798R,0.0207X0.0003*%
%ADD799R,0.0477X0.0003*%
%ADD800R,0.0144X0.0003*%
%ADD801R,0.0132X0.0003*%
%ADD802R,0.0627X0.0003*%
%ADD803R,0.0423X0.0003*%
%ADD804R,0.0216X0.0003*%
%ADD805R,0.0228X0.0003*%
%ADD806R,0.0471X0.0003*%
%ADD807R,0.0126X0.0003*%
%ADD808R,0.0612X0.0003*%
%ADD809R,0.0201X0.0003*%
%ADD810R,0.0228X0.0003*%
%ADD811R,0.0123X0.0003*%
%ADD812R,0.0246X0.0003*%
%ADD813R,0.0468X0.0003*%
%ADD814R,0.0129X0.0003*%
%ADD815R,0.0231X0.0003*%
%ADD816R,0.0120X0.0003*%
%ADD817R,0.0597X0.0003*%
%ADD818R,0.0189X0.0003*%
%ADD819R,0.0417X0.0003*%
%ADD820R,0.0357X0.0003*%
%ADD821R,0.0132X0.0003*%
%ADD822R,0.0135X0.0003*%
%ADD823R,0.0246X0.0003*%
%ADD824R,0.0123X0.0003*%
%ADD825R,0.0117X0.0003*%
%ADD826R,0.0582X0.0003*%
%ADD827R,0.0411X0.0003*%
%ADD828R,0.0357X0.0003*%
%ADD829R,0.0264X0.0003*%
%ADD830R,0.0282X0.0003*%
%ADD831R,0.0456X0.0003*%
%ADD832R,0.0108X0.0003*%
%ADD833R,0.0177X0.0003*%
%ADD834R,0.0363X0.0003*%
%ADD835R,0.0273X0.0003*%
%ADD836R,0.0294X0.0003*%
%ADD837R,0.0453X0.0003*%
%ADD838R,0.0108X0.0003*%
%ADD839R,0.0102X0.0003*%
%ADD840R,0.0558X0.0003*%
%ADD841R,0.0405X0.0003*%
%ADD842R,0.0366X0.0003*%
%ADD843R,0.0306X0.0003*%
%ADD844R,0.0450X0.0003*%
%ADD845R,0.0096X0.0003*%
%ADD846R,0.0543X0.0003*%
%ADD847R,0.0165X0.0003*%
%ADD848R,0.0300X0.0003*%
%ADD849R,0.0321X0.0003*%
%ADD850R,0.0444X0.0003*%
%ADD851R,0.0099X0.0003*%
%ADD852R,0.0234X0.0003*%
%ADD853R,0.0090X0.0003*%
%ADD854R,0.0534X0.0003*%
%ADD855R,0.0162X0.0003*%
%ADD856R,0.0399X0.0003*%
%ADD857R,0.0372X0.0003*%
%ADD858R,0.0312X0.0003*%
%ADD859R,0.0114X0.0003*%
%ADD860R,0.0333X0.0003*%
%ADD861R,0.0093X0.0003*%
%ADD862R,0.0087X0.0003*%
%ADD863R,0.0153X0.0003*%
%ADD864R,0.0393X0.0003*%
%ADD865R,0.0375X0.0003*%
%ADD866R,0.0321X0.0003*%
%ADD867R,0.0441X0.0003*%
%ADD868R,0.0081X0.0003*%
%ADD869R,0.0330X0.0003*%
%ADD870R,0.0435X0.0003*%
%ADD871R,0.0237X0.0003*%
%ADD872R,0.0078X0.0003*%
%ADD873R,0.0501X0.0003*%
%ADD874R,0.0147X0.0003*%
%ADD875R,0.0387X0.0003*%
%ADD876R,0.0381X0.0003*%
%ADD877R,0.0342X0.0003*%
%ADD878R,0.0078X0.0003*%
%ADD879R,0.0072X0.0003*%
%ADD880R,0.0384X0.0003*%
%ADD881R,0.0351X0.0003*%
%ADD882R,0.0432X0.0003*%
%ADD883R,0.0075X0.0003*%
%ADD884R,0.0237X0.0003*%
%ADD885R,0.0069X0.0003*%
%ADD886R,0.0483X0.0003*%
%ADD887R,0.0381X0.0003*%
%ADD888R,0.0384X0.0003*%
%ADD889R,0.0360X0.0003*%
%ADD890R,0.0387X0.0003*%
%ADD891R,0.0069X0.0003*%
%ADD892R,0.0066X0.0003*%
%ADD893R,0.0471X0.0003*%
%ADD894R,0.0369X0.0003*%
%ADD895R,0.0396X0.0003*%
%ADD896R,0.0063X0.0003*%
%ADD897R,0.0465X0.0003*%
%ADD898R,0.0057X0.0003*%
%ADD899R,0.0456X0.0003*%
%ADD900R,0.0156X0.0003*%
%ADD901R,0.0414X0.0003*%
%ADD902R,0.0054X0.0003*%
%ADD903R,0.0447X0.0003*%
%ADD904R,0.0159X0.0003*%
%ADD905R,0.0399X0.0003*%
%ADD906R,0.0423X0.0003*%
%ADD907R,0.0054X0.0003*%
%ADD908R,0.0051X0.0003*%
%ADD909R,0.0441X0.0003*%
%ADD910R,0.0159X0.0003*%
%ADD911R,0.0402X0.0003*%
%ADD912R,0.0429X0.0003*%
%ADD913R,0.0051X0.0003*%
%ADD914R,0.0240X0.0003*%
%ADD915R,0.0048X0.0003*%
%ADD916R,0.0432X0.0003*%
%ADD917R,0.0408X0.0003*%
%ADD918R,0.0417X0.0003*%
%ADD919R,0.0045X0.0003*%
%ADD920R,0.0168X0.0003*%
%ADD921R,0.0444X0.0003*%
%ADD922R,0.0042X0.0003*%
%ADD923R,0.0417X0.0003*%
%ADD924R,0.0414X0.0003*%
%ADD925R,0.0039X0.0003*%
%ADD926R,0.0426X0.0003*%
%ADD927R,0.0459X0.0003*%
%ADD928R,0.0411X0.0003*%
%ADD929R,0.0039X0.0003*%
%ADD930R,0.0240X0.0003*%
%ADD931R,0.0036X0.0003*%
%ADD932R,0.0177X0.0003*%
%ADD933R,0.0339X0.0003*%
%ADD934R,0.0432X0.0003*%
%ADD935R,0.0465X0.0003*%
%ADD936R,0.0033X0.0003*%
%ADD937R,0.0033X0.0003*%
%ADD938R,0.0396X0.0003*%
%ADD939R,0.0336X0.0003*%
%ADD940R,0.0030X0.0003*%
%ADD941R,0.0027X0.0003*%
%ADD942R,0.0027X0.0003*%
%ADD943R,0.0384X0.0003*%
%ADD944R,0.0186X0.0003*%
%ADD945R,0.0411X0.0003*%
%ADD946R,0.0024X0.0003*%
%ADD947R,0.0024X0.0003*%
%ADD948R,0.0378X0.0003*%
%ADD949R,0.0189X0.0003*%
%ADD950R,0.0492X0.0003*%
%ADD951R,0.0408X0.0003*%
%ADD952R,0.0021X0.0003*%
%ADD953R,0.0021X0.0003*%
%ADD954R,0.0189X0.0003*%
%ADD955R,0.0321X0.0003*%
%ADD956R,0.0219X0.0003*%
%ADD957R,0.0174X0.0003*%
%ADD958R,0.0498X0.0003*%
%ADD959R,0.0018X0.0003*%
%ADD960R,0.0018X0.0003*%
%ADD961R,0.0366X0.0003*%
%ADD962R,0.0192X0.0003*%
%ADD963R,0.0318X0.0003*%
%ADD964R,0.0207X0.0003*%
%ADD965R,0.0015X0.0003*%
%ADD966R,0.0360X0.0003*%
%ADD967R,0.0096X0.0003*%
%ADD968R,0.0315X0.0003*%
%ADD969R,0.0198X0.0003*%
%ADD970R,0.0249X0.0003*%
%ADD971R,0.0012X0.0003*%
%ADD972R,0.0090X0.0003*%
%ADD973R,0.0309X0.0003*%
%ADD974R,0.0009X0.0003*%
%ADD975R,0.0111X0.0003*%
%ADD976R,0.0405X0.0003*%
%ADD977R,0.0006X0.0003*%
%ADD978R,0.0009X0.0003*%
%ADD979R,0.0138X0.0003*%
%ADD980R,0.0342X0.0003*%
%ADD981R,0.0207X0.0003*%
%ADD982R,0.0207X0.0003*%
%ADD983R,0.0303X0.0003*%
%ADD984R,0.0447X0.0003*%
%ADD985R,0.0180X0.0003*%
%ADD986R,0.0129X0.0003*%
%ADD987R,0.0213X0.0003*%
%ADD988R,0.0162X0.0003*%
%ADD989R,0.0003X0.0003*%
%ADD990R,0.0009X0.0003*%
%ADD991R,0.0339X0.0003*%
%ADD992R,0.0234X0.0003*%
%ADD993R,0.0447X0.0003*%
%ADD994R,0.0123X0.0003*%
%ADD995R,0.0006X0.0003*%
%ADD996R,0.0252X0.0003*%
%ADD997R,0.0210X0.0003*%
%ADD998R,0.0174X0.0003*%
%ADD999R,0.0117X0.0003*%
%ADD1000R,0.0144X0.0003*%
%ADD1001R,0.0399X0.0003*%
%ADD1002R,0.0183X0.0003*%
%ADD1003R,0.0243X0.0003*%
%ADD1004R,0.0003X0.0003*%
%ADD1005R,0.0270X0.0003*%
%ADD1006R,0.0213X0.0003*%
%ADD1007R,0.0291X0.0003*%
%ADD1008R,0.0138X0.0003*%
%ADD1009R,0.0324X0.0003*%
%ADD1010R,0.0291X0.0003*%
%ADD1011R,0.0288X0.0003*%
%ADD1012R,0.0111X0.0003*%
%ADD1013R,0.0399X0.0003*%
%ADD1014R,0.0204X0.0003*%
%ADD1015R,0.0243X0.0003*%
%ADD1016R,0.0318X0.0003*%
%ADD1017R,0.0285X0.0003*%
%ADD1018R,0.0459X0.0003*%
%ADD1019R,0.0165X0.0003*%
%ADD1020R,0.0312X0.0003*%
%ADD1021R,0.0222X0.0003*%
%ADD1022R,0.0279X0.0003*%
%ADD1023R,0.0126X0.0003*%
%ADD1024R,0.0276X0.0003*%
%ADD1025R,0.0231X0.0003*%
%ADD1026R,0.0225X0.0003*%
%ADD1027R,0.0468X0.0003*%
%ADD1028R,0.0159X0.0003*%
%ADD1029R,0.0177X0.0003*%
%ADD1030R,0.0267X0.0003*%
%ADD1031R,0.0114X0.0003*%
%ADD1032R,0.0297X0.0003*%
%ADD1033R,0.0375X0.0003*%
%ADD1034R,0.0474X0.0003*%
%ADD1035R,0.0216X0.0003*%
%ADD1036R,0.0174X0.0003*%
%ADD1037R,0.0249X0.0003*%
%ADD1038R,0.0621X0.0003*%
%ADD1039R,0.0261X0.0003*%
%ADD1040R,0.0282X0.0003*%
%ADD1041R,0.0630X0.0003*%
%ADD1042R,0.0258X0.0003*%
%ADD1043R,0.0633X0.0003*%
%ADD1044R,0.0483X0.0003*%
%ADD1045R,0.0204X0.0003*%
%ADD1046R,0.0639X0.0003*%
%ADD1047R,0.0486X0.0003*%
%ADD1048R,0.0201X0.0003*%
%ADD1049R,0.0396X0.0003*%
%ADD1050R,0.0270X0.0003*%
%ADD1051R,0.0276X0.0003*%
%ADD1052R,0.0648X0.0003*%
%ADD1053R,0.0246X0.0003*%
%ADD1054R,0.0486X0.0003*%
%ADD1055R,0.0150X0.0003*%
%ADD1056R,0.0198X0.0003*%
%ADD1057R,0.0228X0.0003*%
%ADD1058R,0.0276X0.0003*%
%ADD1059R,0.0309X0.0003*%
%ADD1060R,0.0651X0.0003*%
%ADD1061R,0.0147X0.0003*%
%ADD1062R,0.0657X0.0003*%
%ADD1063R,0.0495X0.0003*%
%ADD1064R,0.0324X0.0003*%
%ADD1065R,0.0663X0.0003*%
%ADD1066R,0.0669X0.0003*%
%ADD1067R,0.0498X0.0003*%
%ADD1068R,0.0213X0.0003*%
%ADD1069R,0.0396X0.0003*%
%ADD1070R,0.0294X0.0003*%
%ADD1071R,0.0255X0.0003*%
%ADD1072R,0.0672X0.0003*%
%ADD1073R,0.0228X0.0003*%
%ADD1074R,0.0501X0.0003*%
%ADD1075R,0.0183X0.0003*%
%ADD1076R,0.0339X0.0003*%
%ADD1077R,0.0678X0.0003*%
%ADD1078R,0.0507X0.0003*%
%ADD1079R,0.0351X0.0003*%
%ADD1080R,0.0687X0.0003*%
%ADD1081R,0.0216X0.0003*%
%ADD1082R,0.0510X0.0003*%
%ADD1083R,0.0156X0.0003*%
%ADD1084R,0.0693X0.0003*%
%ADD1085R,0.0312X0.0003*%
%ADD1086R,0.0696X0.0003*%
%ADD1087R,0.0516X0.0003*%
%ADD1088R,0.0144X0.0003*%
%ADD1089R,0.0171X0.0003*%
%ADD1090R,0.0195X0.0003*%
%ADD1091R,0.0153X0.0003*%
%ADD1092R,0.0312X0.0003*%
%ADD1093R,0.0702X0.0003*%
%ADD1094R,0.0519X0.0003*%
%ADD1095R,0.0141X0.0003*%
%ADD1096R,0.0168X0.0003*%
%ADD1097R,0.0369X0.0003*%
%ADD1098R,0.0318X0.0003*%
%ADD1099R,0.0714X0.0003*%
%ADD1100R,0.0525X0.0003*%
%ADD1101R,0.0324X0.0003*%
%ADD1102R,0.0381X0.0003*%
%ADD1103R,0.0225X0.0003*%
%ADD1104R,0.0720X0.0003*%
%ADD1105R,0.0186X0.0003*%
%ADD1106R,0.0528X0.0003*%
%ADD1107R,0.0141X0.0003*%
%ADD1108R,0.0723X0.0003*%
%ADD1109R,0.0531X0.0003*%
%ADD1110R,0.0729X0.0003*%
%ADD1111R,0.0732X0.0003*%
%ADD1112R,0.0537X0.0003*%
%ADD1113R,0.0138X0.0003*%
%ADD1114R,0.0153X0.0003*%
%ADD1115R,0.0738X0.0003*%
%ADD1116R,0.0540X0.0003*%
%ADD1117R,0.0741X0.0003*%
%ADD1118R,0.0168X0.0003*%
%ADD1119R,0.0543X0.0003*%
%ADD1120R,0.0171X0.0003*%
%ADD1121R,0.0336X0.0003*%
%ADD1122R,0.0744X0.0003*%
%ADD1123R,0.0543X0.0003*%
%ADD1124R,0.0750X0.0003*%
%ADD1125R,0.0549X0.0003*%
%ADD1126R,0.0204X0.0003*%
%ADD1127R,0.0552X0.0003*%
%ADD1128R,0.0201X0.0003*%
%ADD1129R,0.0762X0.0003*%
%ADD1130R,0.0558X0.0003*%
%ADD1131R,0.0162X0.0003*%
%ADD1132R,0.0147X0.0003*%
%ADD1133R,0.0768X0.0003*%
%ADD1134R,0.0771X0.0003*%
%ADD1135R,0.0564X0.0003*%
%ADD1136R,0.0429X0.0003*%
%ADD1137R,0.0774X0.0003*%
%ADD1138R,0.0567X0.0003*%
%ADD1139R,0.0348X0.0003*%
%ADD1140R,0.0777X0.0003*%
%ADD1141R,0.0570X0.0003*%
%ADD1142R,0.0138X0.0003*%
%ADD1143R,0.0783X0.0003*%
%ADD1144R,0.0129X0.0003*%
%ADD1145R,0.0573X0.0003*%
%ADD1146R,0.0576X0.0003*%
%ADD1147R,0.0441X0.0003*%
%ADD1148R,0.0786X0.0003*%
%ADD1149R,0.0579X0.0003*%
%ADD1150R,0.0414X0.0003*%
%ADD1151R,0.0351X0.0003*%
%ADD1152R,0.0444X0.0003*%
%ADD1153R,0.0792X0.0003*%
%ADD1154R,0.0582X0.0003*%
%ADD1155R,0.0801X0.0003*%
%ADD1156R,0.0588X0.0003*%
%ADD1157R,0.0807X0.0003*%
%ADD1158R,0.0099X0.0003*%
%ADD1159R,0.0594X0.0003*%
%ADD1160R,0.0354X0.0003*%
%ADD1161R,0.0456X0.0003*%
%ADD1162R,0.0810X0.0003*%
%ADD1163R,0.0096X0.0003*%
%ADD1164R,0.0144X0.0003*%
%ADD1165R,0.0813X0.0003*%
%ADD1166R,0.0597X0.0003*%
%ADD1167R,0.0816X0.0003*%
%ADD1168R,0.0600X0.0003*%
%ADD1169R,0.0603X0.0003*%
%ADD1170R,0.0081X0.0003*%
%ADD1171R,0.0606X0.0003*%
%ADD1172R,0.0351X0.0003*%
%ADD1173R,0.0825X0.0003*%
%ADD1174R,0.0078X0.0003*%
%ADD1175R,0.0609X0.0003*%
%ADD1176R,0.0141X0.0003*%
%ADD1177R,0.0075X0.0003*%
%ADD1178R,0.0348X0.0003*%
%ADD1179R,0.0831X0.0003*%
%ADD1180R,0.0066X0.0003*%
%ADD1181R,0.0615X0.0003*%
%ADD1182R,0.0837X0.0003*%
%ADD1183R,0.0618X0.0003*%
%ADD1184R,0.0429X0.0003*%
%ADD1185R,0.0345X0.0003*%
%ADD1186R,0.0471X0.0003*%
%ADD1187R,0.0156X0.0003*%
%ADD1188R,0.0840X0.0003*%
%ADD1189R,0.0060X0.0003*%
%ADD1190R,0.0621X0.0003*%
%ADD1191R,0.0840X0.0003*%
%ADD1192R,0.0624X0.0003*%
%ADD1193R,0.0846X0.0003*%
%ADD1194R,0.0051X0.0003*%
%ADD1195R,0.0474X0.0003*%
%ADD1196R,0.0849X0.0003*%
%ADD1197R,0.0435X0.0003*%
%ADD1198R,0.0474X0.0003*%
%ADD1199R,0.0852X0.0003*%
%ADD1200R,0.0042X0.0003*%
%ADD1201R,0.0636X0.0003*%
%ADD1202R,0.0636X0.0003*%
%ADD1203R,0.0132X0.0003*%
%ADD1204R,0.0477X0.0003*%
%ADD1205R,0.0861X0.0003*%
%ADD1206R,0.0642X0.0003*%
%ADD1207R,0.0333X0.0003*%
%ADD1208R,0.0480X0.0003*%
%ADD1209R,0.0864X0.0003*%
%ADD1210R,0.0024X0.0003*%
%ADD1211R,0.0645X0.0003*%
%ADD1212R,0.0132X0.0003*%
%ADD1213R,0.0333X0.0003*%
%ADD1214R,0.0867X0.0003*%
%ADD1215R,0.0021X0.0003*%
%ADD1216R,0.0483X0.0003*%
%ADD1217R,0.0873X0.0003*%
%ADD1218R,0.0654X0.0003*%
%ADD1219R,0.0876X0.0003*%
%ADD1220R,0.0453X0.0003*%
%ADD1221R,0.0879X0.0003*%
%ADD1222R,0.0657X0.0003*%
%ADD1223R,0.0879X0.0003*%
%ADD1224R,0.0006X0.0003*%
%ADD1225R,0.0660X0.0003*%
%ADD1226R,0.0882X0.0003*%
%ADD1227R,0.0888X0.0003*%
%ADD1228R,0.0669X0.0003*%
%ADD1229R,0.0459X0.0003*%
%ADD1230R,0.0486X0.0003*%
%ADD1231R,0.0891X0.0003*%
%ADD1232R,0.0891X0.0003*%
%ADD1233R,0.0672X0.0003*%
%ADD1234R,0.0306X0.0003*%
%ADD1235R,0.0303X0.0003*%
%ADD1236R,0.0897X0.0003*%
%ADD1237R,0.0900X0.0003*%
%ADD1238R,0.0684X0.0003*%
%ADD1239R,0.0474X0.0003*%
%ADD1240R,0.0903X0.0003*%
%ADD1241R,0.0288X0.0003*%
%ADD1242R,0.0906X0.0003*%
%ADD1243R,0.0690X0.0003*%
%ADD1244R,0.0909X0.0003*%
%ADD1245R,0.0489X0.0003*%
%ADD1246R,0.0912X0.0003*%
%ADD1247R,0.0693X0.0003*%
%ADD1248R,0.0912X0.0003*%
%ADD1249R,0.0696X0.0003*%
%ADD1250R,0.0489X0.0003*%
%ADD1251R,0.0264X0.0003*%
%ADD1252R,0.0918X0.0003*%
%ADD1253R,0.0699X0.0003*%
%ADD1254R,0.0258X0.0003*%
%ADD1255R,0.0921X0.0003*%
%ADD1256R,0.0702X0.0003*%
%ADD1257R,0.0924X0.0003*%
%ADD1258R,0.0705X0.0003*%
%ADD1259R,0.0927X0.0003*%
%ADD1260R,0.0192X0.0003*%
%ADD1261R,0.0513X0.0003*%
%ADD1262R,0.0717X0.0003*%
%ADD1263R,0.0519X0.0003*%
%ADD1264R,0.0522X0.0003*%
%ADD1265R,0.0531X0.0003*%
%ADD1266R,0.0366X0.0003*%
%ADD1267R,0.0729X0.0003*%
%ADD1268R,0.0243X0.0003*%
%ADD1269R,0.0534X0.0003*%
%ADD1270R,0.0279X0.0003*%
%ADD1271R,0.0552X0.0003*%
%ADD1272R,0.0540X0.0003*%
%ADD1273R,0.0354X0.0003*%
%ADD1274R,0.0564X0.0003*%
%ADD1275R,0.0528X0.0003*%
%ADD1276R,0.0723X0.0003*%
%ADD1277R,0.0573X0.0003*%
%ADD1278R,0.0720X0.0003*%
%ADD1279R,0.0717X0.0003*%
%ADD1280R,0.0507X0.0003*%
%ADD1281R,0.0588X0.0003*%
%ADD1282R,0.0714X0.0003*%
%ADD1283R,0.0501X0.0003*%
%ADD1284R,0.0603X0.0003*%
%ADD1285R,0.0711X0.0003*%
%ADD1286R,0.0621X0.0003*%
%ADD1287R,0.0327X0.0003*%
%ADD1288R,0.0702X0.0003*%
%ADD1289R,0.0450X0.0003*%
%ADD1290R,0.0699X0.0003*%
%ADD1291R,0.0696X0.0003*%
%ADD1292R,0.0423X0.0003*%
%ADD1293R,0.0678X0.0003*%
%ADD1294R,0.0690X0.0003*%
%ADD1295R,0.0711X0.0003*%
%ADD1296R,0.0684X0.0003*%
%ADD1297R,0.0681X0.0003*%
%ADD1298R,0.0738X0.0003*%
%ADD1299R,0.0309X0.0003*%
%ADD1300R,0.0681X0.0003*%
%ADD1301R,0.0336X0.0003*%
%ADD1302R,0.0753X0.0003*%
%ADD1303R,0.0774X0.0003*%
%ADD1304R,0.0789X0.0003*%
%ADD1305R,0.0819X0.0003*%
%ADD1306R,0.0477X0.0003*%
%ADD1307R,0.0438X0.0003*%
%ADD1308R,0.0300X0.0003*%
%ADD1309R,0.0018X0.0003*%
%ADD1310R,0.0933X0.0003*%
%ADD1311R,0.0021X0.0003*%
%ADD1312R,0.0294X0.0003*%
%ADD1313R,0.0933X0.0003*%
%ADD1314R,0.0291X0.0003*%
%ADD1315R,0.0033X0.0003*%
%ADD1316R,0.0663X0.0003*%
%ADD1317R,0.0039X0.0003*%
%ADD1318R,0.0048X0.0003*%
%ADD1319R,0.0462X0.0003*%
%ADD1320R,0.0651X0.0003*%
%ADD1321R,0.0648X0.0003*%
%ADD1322R,0.0246X0.0003*%
%ADD1323R,0.0453X0.0003*%
%ADD1324R,0.0420X0.0003*%
%ADD1325R,0.0069X0.0003*%
%ADD1326R,0.0639X0.0003*%
%ADD1327R,0.0087X0.0003*%
%ADD1328R,0.0630X0.0003*%
%ADD1329R,0.0624X0.0003*%
%ADD1330R,0.0099X0.0003*%
%ADD1331R,0.0930X0.0003*%
%ADD1332R,0.0249X0.0003*%
%ADD1333R,0.0426X0.0003*%
%ADD1334R,0.0186X0.0003*%
%ADD1335R,0.0108X0.0003*%
%ADD1336R,0.0927X0.0003*%
%ADD1337R,0.0252X0.0003*%
%ADD1338R,0.0414X0.0003*%
%ADD1339R,0.0393X0.0003*%
%ADD1340R,0.0258X0.0003*%
%ADD1341R,0.0126X0.0003*%
%ADD1342R,0.0609X0.0003*%
%ADD1343R,0.0129X0.0003*%
%ADD1344R,0.0606X0.0003*%
%ADD1345R,0.0252X0.0003*%
%ADD1346R,0.0921X0.0003*%
%ADD1347R,0.0378X0.0003*%
%ADD1348R,0.0153X0.0003*%
%ADD1349R,0.0393X0.0003*%
%ADD1350R,0.0378X0.0003*%
%ADD1351R,0.0372X0.0003*%
%ADD1352R,0.0591X0.0003*%
%ADD1353R,0.0915X0.0003*%
%ADD1354R,0.0258X0.0003*%
%ADD1355R,0.0378X0.0003*%
%ADD1356R,0.0222X0.0003*%
%ADD1357R,0.0588X0.0003*%
%ADD1358R,0.0183X0.0003*%
%ADD1359R,0.0915X0.0003*%
%ADD1360R,0.0189X0.0003*%
%ADD1361R,0.0912X0.0003*%
%ADD1362R,0.0363X0.0003*%
%ADD1363R,0.0261X0.0003*%
%ADD1364R,0.0909X0.0003*%
%ADD1365R,0.0261X0.0003*%
%ADD1366R,0.0357X0.0003*%
%ADD1367R,0.0576X0.0003*%
%ADD1368R,0.0909X0.0003*%
%ADD1369R,0.0567X0.0003*%
%ADD1370R,0.0264X0.0003*%
%ADD1371R,0.0327X0.0003*%
%ADD1372R,0.0564X0.0003*%
%ADD1373R,0.0198X0.0003*%
%ADD1374R,0.0267X0.0003*%
%ADD1375R,0.0558X0.0003*%
%ADD1376R,0.0267X0.0003*%
%ADD1377R,0.0297X0.0003*%
%ADD1378R,0.0552X0.0003*%
%ADD1379R,0.0237X0.0003*%
%ADD1380R,0.0531X0.0003*%
%ADD1381R,0.0342X0.0003*%
%ADD1382R,0.0273X0.0003*%
%ADD1383R,0.0261X0.0003*%
%ADD1384R,0.0288X0.0003*%
%ADD1385R,0.0102X0.0003*%
%ADD1386R,0.0537X0.0003*%
%ADD1387R,0.0012X0.0003*%
%ADD1388R,0.0519X0.0003*%
%ADD1389R,0.0282X0.0003*%
%ADD1390R,0.0282X0.0003*%
%ADD1391R,0.0015X0.0003*%
%ADD1392R,0.0309X0.0003*%
%ADD1393R,0.0234X0.0003*%
%ADD1394R,0.0042X0.0003*%
%ADD1395R,0.0117X0.0003*%
%ADD1396R,0.0192X0.0003*%
%ADD1397R,0.0513X0.0003*%
%ADD1398R,0.0222X0.0003*%
%ADD1399R,0.0027X0.0003*%
%ADD1400R,0.0084X0.0003*%
%ADD1401R,0.0297X0.0003*%
%ADD1402R,0.0087X0.0003*%
%ADD1403R,0.0036X0.0003*%
%ADD1404R,0.0504X0.0003*%
%ADD1405R,0.0039X0.0003*%
%ADD1406R,0.0507X0.0003*%
%ADD1407R,0.0252X0.0003*%
%ADD1408R,0.0504X0.0003*%
%ADD1409R,0.0057X0.0003*%
%ADD1410R,0.0507X0.0003*%
%ADD1411R,0.0402X0.0003*%
%ADD1412R,0.0408X0.0003*%
%ADD1413R,0.0492X0.0003*%
%ADD1414R,0.0324X0.0003*%
%ADD1415R,0.0072X0.0003*%
%ADD1416R,0.0336X0.0003*%
%ADD1417R,0.0501X0.0003*%
%ADD1418R,0.0432X0.0003*%
%ADD1419R,0.0339X0.0003*%
%ADD1420R,0.0471X0.0003*%
%ADD1421R,0.0093X0.0003*%
%ADD1422R,0.0528X0.0003*%
%ADD1423R,0.0111X0.0003*%
%ADD1424R,0.0366X0.0003*%
%ADD1425R,0.0561X0.0003*%
%ADD1426R,0.0384X0.0003*%
%ADD1427R,0.0279X0.0003*%
%ADD1428R,0.0276X0.0003*%
%ADD1429R,0.0306X0.0003*%
%ADD1430R,0.0579X0.0003*%
%ADD1431R,0.0606X0.0003*%
%ADD1432R,0.1452X0.0003*%
%ADD1433R,0.1458X0.0003*%
%ADD1434R,0.0756X0.0003*%
%ADD1435R,0.1467X0.0003*%
%ADD1436R,0.1479X0.0003*%
%ADD1437R,0.0804X0.0003*%
%ADD1438R,0.0681X0.0003*%
%ADD1439R,0.0846X0.0003*%
%ADD1440R,0.0756X0.0003*%
%ADD1441R,0.1509X0.0003*%
%ADD1442R,0.0045X0.0003*%
%ADD1443R,0.0051X0.0003*%
%ADD1444R,0.4113X0.0003*%
%ADD1445R,0.4110X0.0003*%
%ADD1446R,0.4110X0.0003*%
%ADD1447R,0.4107X0.0003*%
%ADD1448R,0.4104X0.0003*%
%ADD1449R,0.4104X0.0003*%
%ADD1450R,0.4101X0.0003*%
%ADD1451R,0.4098X0.0003*%
%ADD1452R,0.4098X0.0003*%
%ADD1453R,0.4095X0.0003*%
%ADD1454R,0.4095X0.0003*%
%ADD1455R,0.4092X0.0003*%
%ADD1456R,0.4089X0.0003*%
%ADD1457R,0.4089X0.0003*%
%ADD1458R,0.4086X0.0003*%
%ADD1459R,0.4083X0.0003*%
%ADD1460R,0.4083X0.0003*%
%ADD1461R,0.4080X0.0003*%
%ADD1462R,0.4077X0.0003*%
%ADD1463R,0.4077X0.0003*%
%ADD1464R,0.4074X0.0003*%
%ADD1465R,0.4071X0.0003*%
%ADD1466R,0.4071X0.0003*%
%ADD1467R,0.4068X0.0003*%
%ADD1468R,0.4065X0.0003*%
%ADD1469R,0.4062X0.0003*%
%ADD1470R,0.4062X0.0003*%
%ADD1471R,0.4059X0.0003*%
%ADD1472R,0.4056X0.0003*%
%ADD1473R,0.4056X0.0003*%
%ADD1474R,0.4053X0.0003*%
%ADD1475R,0.4050X0.0003*%
%ADD1476R,0.4050X0.0003*%
%ADD1477R,0.4047X0.0003*%
%ADD1478R,0.4044X0.0003*%
%ADD1479R,0.4041X0.0003*%
%ADD1480R,0.4041X0.0003*%
%ADD1481R,0.4038X0.0003*%
%ADD1482R,0.4035X0.0003*%
%ADD1483R,0.4035X0.0003*%
%ADD1484R,0.4032X0.0003*%
%ADD1485R,0.4029X0.0003*%
%ADD1486R,0.4026X0.0003*%
%ADD1487R,0.4026X0.0003*%
%ADD1488R,0.4023X0.0003*%
%ADD1489R,0.4020X0.0003*%
%ADD1490R,0.4017X0.0003*%
%ADD1491R,0.4017X0.0003*%
%ADD1492R,0.4014X0.0003*%
%ADD1493R,0.4011X0.0003*%
%ADD1494R,0.4011X0.0003*%
%ADD1495R,0.4008X0.0003*%
%ADD1496R,0.4005X0.0003*%
%ADD1497R,0.4002X0.0003*%
%ADD1498R,0.4002X0.0003*%
%ADD1499R,0.3999X0.0003*%
%ADD1500R,0.3996X0.0003*%
%ADD1501R,0.3993X0.0003*%
%ADD1502R,0.3993X0.0003*%
%ADD1503R,0.3990X0.0003*%
%ADD1504R,0.3987X0.0003*%
%ADD1505R,0.3984X0.0003*%
%ADD1506R,0.3984X0.0003*%
%ADD1507R,0.3981X0.0003*%
%ADD1508R,0.3978X0.0003*%
%ADD1509R,0.3975X0.0003*%
%ADD1510R,0.3975X0.0003*%
%ADD1511R,0.3972X0.0003*%
%ADD1512R,0.3969X0.0003*%
%ADD1513R,0.3966X0.0003*%
%ADD1514R,0.3963X0.0003*%
%ADD1515R,0.3963X0.0003*%
%ADD1516R,0.3960X0.0003*%
%ADD1517R,0.3957X0.0003*%
%ADD1518R,0.3954X0.0003*%
%ADD1519R,0.3951X0.0003*%
%ADD1520R,0.3948X0.0003*%
%ADD1521R,0.3945X0.0003*%
%ADD1522R,0.3945X0.0003*%
%ADD1523R,0.3942X0.0003*%
%ADD1524R,0.3939X0.0003*%
%ADD1525R,0.3936X0.0003*%
%ADD1526R,0.3933X0.0003*%
%ADD1527R,0.3930X0.0003*%
%ADD1528R,0.3927X0.0003*%
%ADD1529R,0.3924X0.0003*%
%ADD1530R,0.3921X0.0003*%
%ADD1531R,0.3918X0.0003*%
%ADD1532R,0.3915X0.0003*%
%ADD1533R,0.3912X0.0003*%
%ADD1534R,0.3909X0.0003*%
%ADD1535R,0.3906X0.0003*%
%ADD1536R,0.3903X0.0003*%
%ADD1537R,0.3900X0.0003*%
%ADD1538R,0.3900X0.0003*%
%ADD1539R,0.3897X0.0003*%
%ADD1540R,0.3894X0.0003*%
%ADD1541R,0.3891X0.0003*%
%ADD1542R,0.3888X0.0003*%
%ADD1543R,0.3885X0.0003*%
%ADD1544R,0.3882X0.0003*%
%ADD1545R,0.3879X0.0003*%
%ADD1546R,0.3879X0.0003*%
%ADD1547R,0.3876X0.0003*%
%ADD1548R,0.3873X0.0003*%
%ADD1549R,0.3870X0.0003*%
%ADD1550R,0.3867X0.0003*%
%ADD1551R,0.3864X0.0003*%
%ADD1552R,0.3861X0.0003*%
%ADD1553R,0.3858X0.0003*%
%ADD1554R,0.3855X0.0003*%
%ADD1555R,0.3852X0.0003*%
%ADD1556R,0.3849X0.0003*%
%ADD1557R,0.3846X0.0003*%
%ADD1558R,0.3843X0.0003*%
%ADD1559R,0.3840X0.0003*%
%ADD1560R,0.3840X0.0003*%
%ADD1561R,0.3837X0.0003*%
%ADD1562R,0.3834X0.0003*%
%ADD1563R,0.3831X0.0003*%
%ADD1564R,0.3828X0.0003*%
%ADD1565R,0.3825X0.0003*%
%ADD1566R,0.3822X0.0003*%
%ADD1567R,0.3819X0.0003*%
%ADD1568R,0.3816X0.0003*%
%ADD1569R,0.3813X0.0003*%
%ADD1570R,0.3810X0.0003*%
%ADD1571R,0.3807X0.0003*%
%ADD1572R,0.3804X0.0003*%
%ADD1573R,0.3804X0.0003*%
%ADD1574R,0.3801X0.0003*%
%ADD1575R,0.3798X0.0003*%
%ADD1576R,0.3795X0.0003*%
%ADD1577R,0.3792X0.0003*%
%ADD1578R,0.3789X0.0003*%
%ADD1579R,0.3786X0.0003*%
%ADD1580R,0.3783X0.0003*%
%ADD1581R,0.3780X0.0003*%
%ADD1582R,0.3777X0.0003*%
%ADD1583R,0.3774X0.0003*%
%ADD1584R,0.3771X0.0003*%
%ADD1585R,0.3768X0.0003*%
%ADD1586R,0.3762X0.0003*%
%ADD1587R,0.3762X0.0003*%
%ADD1588R,0.3759X0.0003*%
%ADD1589R,0.3756X0.0003*%
%ADD1590R,0.3753X0.0003*%
%ADD1591R,0.3750X0.0003*%
%ADD1592R,0.3747X0.0003*%
%ADD1593R,0.3744X0.0003*%
%ADD1594R,0.3741X0.0003*%
%ADD1595R,0.3738X0.0003*%
%ADD1596R,0.3735X0.0003*%
%ADD1597R,0.3732X0.0003*%
%ADD1598R,0.3729X0.0003*%
%ADD1599R,0.3726X0.0003*%
%ADD1600R,0.3723X0.0003*%
%ADD1601R,0.3720X0.0003*%
%ADD1602R,0.3717X0.0003*%
%ADD1603R,0.3714X0.0003*%
%ADD1604R,0.3711X0.0003*%
%ADD1605R,0.3708X0.0003*%
%ADD1606R,0.3705X0.0003*%
%ADD1607R,0.3702X0.0003*%
%ADD1608R,0.3696X0.0003*%
%ADD1609R,0.3690X0.0003*%
%ADD1610R,0.3687X0.0003*%
%ADD1611R,0.3684X0.0003*%
%ADD1612R,0.3681X0.0003*%
%ADD1613R,0.3678X0.0003*%
%ADD1614R,0.3675X0.0003*%
%ADD1615R,0.3672X0.0003*%
%ADD1616R,0.3669X0.0003*%
%ADD1617R,0.3666X0.0003*%
%ADD1618R,0.3663X0.0003*%
%ADD1619R,0.3660X0.0003*%
%ADD1620R,0.3657X0.0003*%
%ADD1621R,0.3654X0.0003*%
%ADD1622R,0.3648X0.0003*%
%ADD1623R,0.3645X0.0003*%
%ADD1624R,0.3642X0.0003*%
%ADD1625R,0.3639X0.0003*%
%ADD1626R,0.3636X0.0003*%
%ADD1627R,0.3630X0.0003*%
%ADD1628R,0.3618X0.0003*%
%ADD1629R,0.3612X0.0003*%
%ADD1630R,0.3609X0.0003*%
%ADD1631R,0.3606X0.0003*%
%ADD1632R,0.3603X0.0003*%
%ADD1633R,0.3600X0.0003*%
%ADD1634R,0.3594X0.0003*%
%ADD1635R,0.3591X0.0003*%
%ADD1636R,0.3588X0.0003*%
%ADD1637R,0.3585X0.0003*%
%ADD1638R,0.3582X0.0003*%
%ADD1639R,0.3576X0.0003*%
%ADD1640R,0.3570X0.0003*%
%ADD1641R,0.3564X0.0003*%
%ADD1642R,0.3558X0.0003*%
%ADD1643R,0.3552X0.0003*%
%ADD1644R,0.3549X0.0003*%
%ADD1645R,0.3546X0.0003*%
%ADD1646R,0.3540X0.0003*%
%ADD1647R,0.3534X0.0003*%
%ADD1648R,0.3528X0.0003*%
%ADD1649R,0.3522X0.0003*%
%ADD1650R,0.3519X0.0003*%
%ADD1651R,0.3510X0.0003*%
%ADD1652R,0.3504X0.0003*%
%ADD1653R,0.3498X0.0003*%
%ADD1654R,0.3492X0.0003*%
%ADD1655R,0.3486X0.0003*%
%ADD1656R,0.3480X0.0003*%
%ADD1657R,0.3474X0.0003*%
%ADD1658R,0.3471X0.0003*%
%ADD1659R,0.3468X0.0003*%
%ADD1660R,0.3462X0.0003*%
%ADD1661R,0.3459X0.0003*%
%ADD1662R,0.3456X0.0003*%
%ADD1663R,0.3450X0.0003*%
%ADD1664R,0.3447X0.0003*%
%ADD1665R,0.3444X0.0003*%
%ADD1666R,0.3438X0.0003*%
%ADD1667R,0.3429X0.0003*%
%ADD1668R,0.3426X0.0003*%
%ADD1669R,0.3414X0.0003*%
%ADD1670R,0.3408X0.0003*%
%ADD1671R,0.3402X0.0003*%
%ADD1672R,0.3396X0.0003*%
%ADD1673R,0.3393X0.0003*%
%ADD1674R,0.3390X0.0003*%
%ADD1675R,0.3384X0.0003*%
%ADD1676R,0.3381X0.0003*%
%ADD1677R,0.3375X0.0003*%
%ADD1678R,0.3372X0.0003*%
%ADD1679R,0.3366X0.0003*%
%ADD1680R,0.3357X0.0003*%
%ADD1681R,0.3354X0.0003*%
%ADD1682R,0.3348X0.0003*%
%ADD1683R,0.3345X0.0003*%
%ADD1684R,0.3339X0.0003*%
%ADD1685R,0.3336X0.0003*%
%ADD1686R,0.3321X0.0003*%
%ADD1687R,0.3318X0.0003*%
%ADD1688R,0.3312X0.0003*%
%ADD1689R,0.3309X0.0003*%
%ADD1690R,0.3303X0.0003*%
%ADD1691R,0.3294X0.0003*%
%ADD1692R,0.3291X0.0003*%
%ADD1693R,0.3285X0.0003*%
%ADD1694R,0.3282X0.0003*%
%ADD1695R,0.3276X0.0003*%
%ADD1696R,0.3267X0.0003*%
%ADD1697R,0.3261X0.0003*%
%ADD1698R,0.3258X0.0003*%
%ADD1699R,0.3252X0.0003*%
%ADD1700R,0.3246X0.0003*%
%ADD1701R,0.3243X0.0003*%
%ADD1702R,0.3237X0.0003*%
%ADD1703R,0.3231X0.0003*%
%ADD1704R,0.3228X0.0003*%
%ADD1705R,0.3222X0.0003*%
%ADD1706R,0.3219X0.0003*%
%ADD1707R,0.3213X0.0003*%
%ADD1708R,0.3207X0.0003*%
%ADD1709R,0.3204X0.0003*%
%ADD1710R,0.3198X0.0003*%
%ADD1711R,0.3192X0.0003*%
%ADD1712R,0.3189X0.0003*%
%ADD1713R,0.3183X0.0003*%
%ADD1714R,0.3177X0.0003*%
%ADD1715R,0.3174X0.0003*%
%ADD1716R,0.3168X0.0003*%
%ADD1717R,0.3162X0.0003*%
%ADD1718R,0.3156X0.0003*%
%ADD1719R,0.3153X0.0003*%
%ADD1720R,0.3147X0.0003*%
%ADD1721R,0.3141X0.0003*%
%ADD1722R,0.3135X0.0003*%
%ADD1723R,0.3132X0.0003*%
%ADD1724R,0.3126X0.0003*%
%ADD1725R,0.3114X0.0003*%
%ADD1726R,0.3108X0.0003*%
%ADD1727R,0.3105X0.0003*%
%ADD1728R,0.3099X0.0003*%
%ADD1729R,0.3093X0.0003*%
%ADD1730R,0.3087X0.0003*%
%ADD1731R,0.3084X0.0003*%
%ADD1732R,0.3078X0.0003*%
%ADD1733R,0.3072X0.0003*%
%ADD1734R,0.3066X0.0003*%
%ADD1735R,0.3054X0.0003*%
%ADD1736R,0.3051X0.0003*%
%ADD1737R,0.3045X0.0003*%
%ADD1738R,0.3039X0.0003*%
%ADD1739R,0.3033X0.0003*%
%ADD1740R,0.3027X0.0003*%
%ADD1741R,0.3021X0.0003*%
%ADD1742R,0.3015X0.0003*%
%ADD1743R,0.3009X0.0003*%
%ADD1744R,0.3003X0.0003*%
%ADD1745R,0.3000X0.0003*%
%ADD1746R,0.2994X0.0003*%
%ADD1747R,0.2988X0.0003*%
%ADD1748R,0.2982X0.0003*%
%ADD1749R,0.2976X0.0003*%
%ADD1750R,0.2964X0.0003*%
%ADD1751R,0.2958X0.0003*%
%ADD1752R,0.2952X0.0003*%
%ADD1753R,0.2946X0.0003*%
%ADD1754R,0.2934X0.0003*%
%ADD1755R,0.2928X0.0003*%
%ADD1756R,0.2922X0.0003*%
%ADD1757R,0.2916X0.0003*%
%ADD1758R,0.2904X0.0003*%
%ADD1759R,0.2892X0.0003*%
%ADD1760R,0.2883X0.0003*%
%ADD1761R,0.2877X0.0003*%
%ADD1762R,0.2871X0.0003*%
%ADD1763R,0.2865X0.0003*%
%ADD1764R,0.2859X0.0003*%
%ADD1765R,0.2853X0.0003*%
%ADD1766R,0.2847X0.0003*%
%ADD1767R,0.2838X0.0003*%
%ADD1768R,0.2832X0.0003*%
%ADD1769R,0.2826X0.0003*%
%ADD1770R,0.2820X0.0003*%
%ADD1771R,0.2814X0.0003*%
%ADD1772R,0.2808X0.0003*%
%ADD1773R,0.2802X0.0003*%
%ADD1774R,0.2793X0.0003*%
%ADD1775R,0.2787X0.0003*%
%ADD1776R,0.2781X0.0003*%
%ADD1777R,0.2766X0.0003*%
%ADD1778R,0.2760X0.0003*%
%ADD1779R,0.2754X0.0003*%
%ADD1780R,0.2748X0.0003*%
%ADD1781R,0.2739X0.0003*%
%ADD1782R,0.2733X0.0003*%
%ADD1783R,0.2727X0.0003*%
%ADD1784R,0.2718X0.0003*%
%ADD1785R,0.2712X0.0003*%
%ADD1786R,0.2706X0.0003*%
%ADD1787R,0.2697X0.0003*%
%ADD1788R,0.2691X0.0003*%
%ADD1789R,0.2676X0.0003*%
%ADD1790R,0.2670X0.0003*%
%ADD1791R,0.2664X0.0003*%
%ADD1792R,0.2649X0.0003*%
%ADD1793R,0.2634X0.0003*%
%ADD1794R,0.2625X0.0003*%
%ADD1795R,0.2619X0.0003*%
%ADD1796R,0.2589X0.0003*%
%ADD1797R,0.2559X0.0003*%
%ADD1798R,0.2526X0.0003*%
%ADD1799R,0.2502X0.0003*%
%ADD1800R,0.2496X0.0003*%
%ADD1801R,0.2472X0.0003*%
%ADD1802R,0.2463X0.0003*%
%ADD1803R,0.2454X0.0003*%
%ADD1804R,0.2445X0.0003*%
%ADD1805R,0.2439X0.0003*%
%ADD1806R,0.2430X0.0003*%
%ADD1807R,0.2421X0.0003*%
%ADD1808R,0.2415X0.0003*%
%ADD1809R,0.2406X0.0003*%
%ADD1810R,0.2397X0.0003*%
%ADD1811R,0.2388X0.0003*%
%ADD1812R,0.2379X0.0003*%
%ADD1813R,0.2370X0.0003*%
%ADD1814R,0.2361X0.0003*%
%ADD1815R,0.2352X0.0003*%
%ADD1816R,0.2343X0.0003*%
%ADD1817R,0.2337X0.0003*%
%ADD1818R,0.2328X0.0003*%
%ADD1819R,0.2316X0.0003*%
%ADD1820R,0.2298X0.0003*%
%ADD1821R,0.2289X0.0003*%
%ADD1822R,0.2271X0.0003*%
%ADD1823R,0.2262X0.0003*%
%ADD1824R,0.2253X0.0003*%
%ADD1825R,0.2244X0.0003*%
%ADD1826R,0.2235X0.0003*%
%ADD1827R,0.2226X0.0003*%
%ADD1828R,0.2217X0.0003*%
%ADD1829R,0.2208X0.0003*%
%ADD1830R,0.2196X0.0003*%
%ADD1831R,0.2187X0.0003*%
%ADD1832R,0.2178X0.0003*%
%ADD1833R,0.2169X0.0003*%
%ADD1834R,0.2157X0.0003*%
%ADD1835R,0.2148X0.0003*%
%ADD1836R,0.2139X0.0003*%
%ADD1837R,0.2127X0.0003*%
%ADD1838R,0.2118X0.0003*%
%ADD1839R,0.2109X0.0003*%
%ADD1840R,0.2097X0.0003*%
%ADD1841R,0.2088X0.0003*%
%ADD1842R,0.2076X0.0003*%
%ADD1843R,0.2067X0.0003*%
%ADD1844R,0.2055X0.0003*%
%ADD1845R,0.2046X0.0003*%
%ADD1846R,0.2034X0.0003*%
%ADD1847R,0.2022X0.0003*%
%ADD1848R,0.2013X0.0003*%
%ADD1849R,0.2001X0.0003*%
%ADD1850R,0.1992X0.0003*%
%ADD1851R,0.1968X0.0003*%
%ADD1852R,0.1956X0.0003*%
%ADD1853R,0.1947X0.0003*%
%ADD1854R,0.1935X0.0003*%
%ADD1855R,0.1923X0.0003*%
%ADD1856R,0.1911X0.0003*%
%ADD1857R,0.1902X0.0003*%
%ADD1858R,0.1890X0.0003*%
%ADD1859R,0.1878X0.0003*%
%ADD1860R,0.1866X0.0003*%
%ADD1861R,0.1854X0.0003*%
%ADD1862R,0.1842X0.0003*%
%ADD1863R,0.1830X0.0003*%
%ADD1864R,0.1791X0.0003*%
%ADD1865R,0.1779X0.0003*%
%ADD1866R,0.1764X0.0003*%
%ADD1867R,0.1752X0.0003*%
%ADD1868R,0.1725X0.0003*%
%ADD1869R,0.1716X0.0003*%
%ADD1870R,0.1701X0.0003*%
%ADD1871R,0.1686X0.0003*%
%ADD1872R,0.1674X0.0003*%
%ADD1873R,0.1659X0.0003*%
%ADD1874R,0.1644X0.0003*%
%ADD1875R,0.1632X0.0003*%
%ADD1876R,0.1617X0.0003*%
%ADD1877R,0.1602X0.0003*%
%ADD1878R,0.1590X0.0003*%
%ADD1879R,0.1572X0.0003*%
%ADD1880R,0.1530X0.0003*%
%ADD1881R,0.1512X0.0003*%
%ADD1882R,0.1500X0.0003*%
%ADD1883R,0.1482X0.0003*%
%ADD1884R,0.1452X0.0003*%
%ADD1885R,0.1434X0.0003*%
%ADD1886R,0.1416X0.0003*%
%ADD1887R,0.1404X0.0003*%
%ADD1888R,0.1383X0.0003*%
%ADD1889R,0.1365X0.0003*%
%ADD1890R,0.1332X0.0003*%
%ADD1891R,0.1314X0.0003*%
%ADD1892R,0.1296X0.0003*%
%ADD1893R,0.1278X0.0003*%
%ADD1894R,0.1257X0.0003*%
%ADD1895R,0.1242X0.0003*%
%ADD1896R,0.1218X0.0003*%
%ADD1897R,0.1200X0.0003*%
%ADD1898R,0.1182X0.0003*%
%ADD1899R,0.1119X0.0003*%
%ADD1900R,0.1053X0.0003*%
%ADD1901R,0.1026X0.0003*%
%ADD1902R,0.1002X0.0003*%
%ADD1903R,0.0978X0.0003*%
%ADD1904R,0.0951X0.0003*%
%ADD1905R,0.0924X0.0003*%
%ADD1906R,0.0870X0.0003*%
%ADD1907R,0.0843X0.0003*%
%ADD1908R,0.0642X0.0003*%
%ADD1909R,0.0510X0.0003*%
%ADD1910R,0.0108X0.0003*%
D10*
X014771Y005378D02*
X015282Y005378D01*
X015282Y005633D01*
X015197Y005718D01*
X015027Y005718D01*
X014942Y005633D01*
X014942Y005378D01*
X014942Y005180D02*
X014942Y005010D01*
X014942Y005095D02*
X015282Y005095D01*
X015282Y005010D01*
X015452Y005095D02*
X015537Y005095D01*
X015452Y004727D02*
X014942Y004727D01*
X014942Y004642D02*
X014942Y004812D01*
X014942Y004443D02*
X014942Y004273D01*
X014942Y004358D02*
X015282Y004358D01*
X015282Y004273D01*
X015452Y004358D02*
X015537Y004358D01*
X015452Y004642D02*
X015452Y004727D01*
X015197Y004061D02*
X014942Y004061D01*
X015197Y004061D02*
X015282Y003976D01*
X015282Y003806D01*
X015197Y003721D01*
X015452Y003721D02*
X014942Y003721D01*
X015197Y003509D02*
X015112Y003424D01*
X015112Y003168D01*
X014942Y003168D02*
X015452Y003168D01*
X015452Y003424D01*
X015367Y003509D01*
X015197Y003509D01*
X015452Y006483D02*
X014942Y006483D01*
X015112Y006653D01*
X014942Y006823D01*
X015452Y006823D01*
X015282Y007121D02*
X015282Y007291D01*
X015197Y007376D01*
X014942Y007376D01*
X014942Y007121D01*
X015027Y007036D01*
X015112Y007121D01*
X015112Y007376D01*
X015112Y007588D02*
X015282Y007758D01*
X015282Y007843D01*
X015282Y007588D02*
X014942Y007588D01*
X014942Y008048D02*
X015282Y008048D01*
X015112Y008048D02*
X015282Y008219D01*
X015282Y008304D01*
X015197Y008509D02*
X015027Y008509D01*
X014942Y008594D01*
X014942Y008764D01*
X015112Y008849D02*
X015112Y008509D01*
X015197Y008509D02*
X015282Y008594D01*
X015282Y008764D01*
X015197Y008849D01*
X015112Y008849D01*
X014942Y009061D02*
X015282Y009061D01*
X015282Y009317D01*
X015197Y009402D01*
X014942Y009402D01*
D11*
X007978Y005233D03*
X007348Y002151D03*
D12*
X007348Y002155D03*
D13*
X007348Y002158D03*
X008518Y004504D03*
X006085Y004744D03*
X006076Y005061D03*
D14*
X006075Y005076D03*
X006084Y004726D03*
X004836Y005196D03*
X002985Y005191D03*
X003006Y004609D03*
X007347Y002161D03*
X008547Y004903D03*
D15*
X008700Y004564D03*
X007944Y005293D03*
X006075Y005089D03*
X006084Y004716D03*
X003132Y004536D03*
X003132Y004534D03*
X003132Y004531D03*
X003132Y004528D03*
X003132Y004521D03*
X003132Y004519D03*
X003132Y004516D03*
X003132Y004513D03*
X003135Y004483D03*
X003135Y004476D03*
X003129Y004558D03*
X003129Y004561D03*
X003129Y004564D03*
X003129Y004566D03*
X003129Y004573D03*
X003129Y004576D03*
X003129Y004579D03*
X003129Y004581D03*
X003129Y004588D03*
X003129Y004591D03*
X003129Y004594D03*
X003129Y004596D03*
X003129Y004603D03*
X003129Y004606D03*
X002988Y004594D03*
X002973Y005203D03*
X002748Y005331D03*
X007347Y002164D03*
D16*
X007347Y002166D03*
X008541Y004476D03*
X007746Y005218D03*
X007938Y005301D03*
X007296Y004966D03*
X007296Y004963D03*
X007296Y004956D03*
X007296Y004954D03*
X007296Y004951D03*
X007296Y004948D03*
X007296Y004941D03*
X007296Y004939D03*
X007296Y004936D03*
X007296Y004933D03*
X007299Y004834D03*
X006075Y005101D03*
X004968Y005031D03*
X004968Y005029D03*
X004968Y005026D03*
X004968Y005023D03*
X004968Y005016D03*
X004968Y005014D03*
X004968Y005011D03*
X004806Y005218D03*
X004389Y005056D03*
X004389Y005053D03*
X004386Y005038D03*
X004386Y005031D03*
X004386Y005029D03*
X004386Y005026D03*
X004386Y005023D03*
X004386Y005016D03*
X004386Y005014D03*
X004386Y005011D03*
X004383Y005008D03*
X004383Y005001D03*
X004383Y004999D03*
X004383Y004996D03*
X004383Y004993D03*
X004383Y004986D03*
X004383Y004984D03*
X004383Y004981D03*
X004383Y004978D03*
X004383Y004971D03*
X004383Y004969D03*
X004383Y004966D03*
X004383Y004963D03*
X004383Y004956D03*
X004383Y004954D03*
X004383Y004951D03*
X004383Y004948D03*
X004383Y004941D03*
X004383Y004939D03*
X004383Y004936D03*
X004383Y004933D03*
X004383Y004926D03*
X004383Y004924D03*
X004383Y004921D03*
X004383Y004918D03*
X004383Y004911D03*
X004383Y004909D03*
X004383Y004906D03*
X004383Y004903D03*
X004383Y004896D03*
X004383Y004894D03*
X004383Y004891D03*
X004383Y004888D03*
X004383Y004881D03*
X004383Y004879D03*
X004383Y004876D03*
X004383Y004873D03*
X004383Y004866D03*
X004383Y004864D03*
X004383Y004861D03*
X004383Y004858D03*
X004383Y004851D03*
X004383Y004849D03*
X004383Y004846D03*
X004383Y004843D03*
X004383Y004836D03*
X004383Y004834D03*
X004383Y004831D03*
X004383Y004828D03*
X004383Y004821D03*
X004383Y004819D03*
X004383Y004816D03*
X004383Y004813D03*
X004383Y004806D03*
X004383Y004804D03*
X004383Y004801D03*
X004383Y004798D03*
X004383Y004791D03*
X004383Y004789D03*
X004383Y004786D03*
X004383Y004783D03*
X004383Y004776D03*
X004383Y004774D03*
X004383Y004771D03*
X004383Y004768D03*
X004383Y004761D03*
X004383Y004759D03*
X004383Y004756D03*
X004383Y004753D03*
X004383Y004746D03*
X004383Y004744D03*
X004383Y004741D03*
X004383Y004738D03*
X004383Y004731D03*
X004383Y004729D03*
X004383Y004726D03*
X004383Y004723D03*
X004383Y004716D03*
X004383Y004714D03*
X004383Y004711D03*
X004383Y004708D03*
X004383Y004701D03*
X004383Y004699D03*
X004383Y004696D03*
X004383Y004693D03*
X004383Y004686D03*
X004383Y004684D03*
X004383Y004681D03*
X004383Y004678D03*
X004383Y004671D03*
X004383Y004669D03*
X004383Y004666D03*
X004383Y004663D03*
X004383Y004656D03*
X004383Y004654D03*
X004383Y004651D03*
X004383Y004648D03*
X004383Y004641D03*
X004383Y004639D03*
X004383Y004636D03*
X004383Y004633D03*
X004383Y004626D03*
X004383Y004624D03*
X004383Y004621D03*
X004383Y004618D03*
X004383Y004611D03*
X004383Y004609D03*
X004383Y004606D03*
X004383Y004603D03*
X004383Y004596D03*
X004383Y004594D03*
X004383Y004591D03*
X004383Y004588D03*
X004383Y004581D03*
X004383Y004579D03*
X004383Y004576D03*
X004383Y004573D03*
X004383Y004566D03*
X004383Y004564D03*
X004383Y004561D03*
X004383Y004558D03*
X004383Y004551D03*
X004383Y004549D03*
X004383Y004546D03*
X004383Y004543D03*
X004383Y004536D03*
X004383Y004534D03*
X004383Y004531D03*
X004383Y004528D03*
X004383Y004521D03*
X004383Y004519D03*
X004383Y004516D03*
X004383Y004513D03*
X004383Y004506D03*
X004383Y004504D03*
X004383Y004501D03*
X004383Y004498D03*
X004383Y004491D03*
X004383Y004489D03*
X004383Y004486D03*
X004383Y004483D03*
X004383Y004476D03*
X004044Y004716D03*
X004044Y004723D03*
X004044Y004726D03*
X004044Y004729D03*
X004044Y004731D03*
X004041Y004744D03*
X004041Y004746D03*
X004038Y004759D03*
X004038Y004761D03*
X004035Y004771D03*
X003666Y004566D03*
X003522Y004716D03*
X003522Y004723D03*
X003522Y004726D03*
X003522Y004729D03*
X003522Y004731D03*
X003522Y004738D03*
X003522Y005008D03*
X003522Y005011D03*
X003522Y005014D03*
X003522Y005016D03*
X003522Y005023D03*
X003522Y005026D03*
X003522Y005029D03*
X003522Y005031D03*
X003525Y005068D03*
X003531Y005101D03*
X003531Y005104D03*
X003534Y005113D03*
X003534Y005116D03*
X003537Y005128D03*
X003540Y005131D03*
X003540Y005134D03*
X003540Y005136D03*
X003543Y005143D03*
X003777Y005331D03*
X003117Y005014D03*
X003117Y005011D03*
X003117Y005008D03*
X003117Y005001D03*
X003117Y004999D03*
X003117Y004996D03*
X003117Y004776D03*
X003117Y004774D03*
X003117Y004771D03*
X003117Y004768D03*
X003117Y004761D03*
X002460Y004801D03*
X002454Y004843D03*
X002454Y004846D03*
X002451Y004894D03*
X002451Y004896D03*
X002451Y004903D03*
X002451Y004906D03*
X002451Y004909D03*
X004968Y004476D03*
D17*
X004407Y005125D03*
X004008Y004825D03*
X004032Y004630D03*
X003849Y004465D03*
X002505Y004675D03*
X002472Y005050D03*
X002478Y005065D03*
X006495Y004510D03*
X007299Y004780D03*
X008700Y004570D03*
X007347Y002170D03*
D18*
X007345Y002173D03*
X006085Y004681D03*
X004954Y005106D03*
X004435Y005176D03*
X004432Y005173D03*
X003982Y004851D03*
X004009Y004591D03*
X004006Y004588D03*
X003685Y004558D03*
X003535Y004654D03*
X003535Y004656D03*
X003580Y005203D03*
X003586Y005209D03*
X002932Y005226D03*
X002521Y005151D03*
X002515Y005143D03*
X002539Y004624D03*
X002542Y004621D03*
X002545Y004618D03*
X007294Y005038D03*
X007294Y005041D03*
X007924Y005314D03*
D19*
X008698Y004576D03*
X006490Y004536D03*
X006085Y004669D03*
X006085Y004671D03*
X004948Y005128D03*
X004453Y005196D03*
X004450Y005194D03*
X003598Y005218D03*
X003541Y004639D03*
X002560Y004603D03*
X007345Y002176D03*
D20*
X007345Y002179D03*
X007750Y004579D03*
X006085Y004663D03*
X003091Y005128D03*
X002578Y004588D03*
D21*
X002572Y005206D03*
X003085Y005143D03*
X006085Y004654D03*
X006085Y004651D03*
X006484Y004564D03*
X006484Y004561D03*
X007345Y002181D03*
D22*
X007345Y002185D03*
X007750Y004585D03*
X003082Y004630D03*
X003079Y005155D03*
D23*
X002596Y005221D03*
X002617Y004566D03*
X004924Y005176D03*
X006085Y004633D03*
X007297Y004663D03*
X007750Y004588D03*
X008605Y004879D03*
X007345Y002188D03*
D24*
X007345Y002191D03*
X008236Y004483D03*
X008236Y004486D03*
X008236Y004489D03*
X008236Y004491D03*
X008236Y004498D03*
X008236Y004501D03*
X007750Y004591D03*
X007291Y005136D03*
X006490Y005226D03*
X006481Y005211D03*
X006478Y005209D03*
X006475Y005206D03*
X006475Y005203D03*
X006466Y005191D03*
X006460Y005181D03*
X006076Y005179D03*
X006085Y004624D03*
X004618Y005314D03*
X003781Y005323D03*
X003571Y004588D03*
X008698Y005211D03*
D25*
X007293Y005146D03*
X006864Y005196D03*
X006519Y005263D03*
X006510Y005251D03*
X006438Y005143D03*
X006435Y005136D03*
X007299Y004641D03*
X007344Y002194D03*
D26*
X007344Y002196D03*
X008691Y004606D03*
X008247Y005113D03*
X008247Y005116D03*
X008247Y005119D03*
X007746Y005188D03*
X007293Y005158D03*
X006864Y005194D03*
X006540Y005284D03*
X006537Y005281D03*
X006420Y005106D03*
X006417Y005101D03*
D27*
X006406Y005080D03*
X006085Y004600D03*
X007750Y004600D03*
X007345Y002200D03*
X002773Y004480D03*
D28*
X006075Y005209D03*
X006399Y005061D03*
X006399Y005059D03*
X007299Y004618D03*
X007752Y004603D03*
X008259Y005179D03*
X008259Y005181D03*
X008703Y005203D03*
X007344Y002203D03*
D29*
X007344Y002206D03*
X007299Y004606D03*
X007746Y005176D03*
X008265Y005206D03*
X008637Y004849D03*
X008688Y004624D03*
X006573Y005311D03*
X006387Y005031D03*
X003846Y004489D03*
D30*
X006084Y004576D03*
X006378Y005011D03*
X007290Y005191D03*
X008685Y004633D03*
X007344Y002209D03*
D31*
X007344Y002211D03*
X007299Y004594D03*
X006375Y005001D03*
X008277Y005236D03*
X008277Y005239D03*
X008685Y004639D03*
D32*
X007344Y002215D03*
D33*
X007344Y002218D03*
X006084Y004551D03*
X006360Y004963D03*
X006075Y005251D03*
X007290Y005211D03*
X007299Y004579D03*
X007752Y004626D03*
X008289Y005266D03*
X008658Y004806D03*
X008682Y004663D03*
D34*
X008679Y004671D03*
X008712Y005181D03*
X008292Y005269D03*
X007299Y004576D03*
X006867Y005151D03*
X006357Y004954D03*
X006357Y004951D03*
X006084Y004546D03*
X003834Y004911D03*
X007347Y007084D03*
X007344Y002221D03*
D35*
X007344Y002224D03*
X006084Y004536D03*
X006351Y004933D03*
X006351Y004936D03*
X006867Y005143D03*
X007290Y005224D03*
X007746Y005146D03*
X008298Y005281D03*
X008667Y004771D03*
X008667Y004768D03*
X008676Y004701D03*
X008676Y004699D03*
X008676Y004696D03*
X008676Y004693D03*
X007752Y004636D03*
X002772Y004498D03*
X002754Y005296D03*
D36*
X002752Y005293D03*
X005542Y004476D03*
X006349Y004879D03*
X007297Y004564D03*
X008302Y005286D03*
X007342Y002226D03*
D37*
X007344Y002230D03*
X007752Y004645D03*
D38*
X007747Y005128D03*
X008311Y005299D03*
X006076Y005286D03*
X006076Y005284D03*
X007342Y002233D03*
D39*
X007344Y002236D03*
X006084Y004506D03*
X006078Y005293D03*
X007746Y005121D03*
D40*
X007747Y005116D03*
X008320Y005308D03*
X007297Y004546D03*
X006868Y005098D03*
X006076Y005299D03*
X006076Y005301D03*
X005548Y004513D03*
X003841Y004521D03*
X003649Y004978D03*
X007342Y002239D03*
D41*
X007342Y002241D03*
X005551Y004528D03*
X004621Y005266D03*
X002770Y004516D03*
X006871Y005083D03*
X007747Y005104D03*
X008326Y005314D03*
X009187Y004686D03*
X009187Y004684D03*
X009187Y004681D03*
X009187Y004678D03*
X009184Y004671D03*
X009184Y004669D03*
X009184Y004666D03*
X009160Y004581D03*
X009157Y004576D03*
X009157Y004573D03*
X009154Y004566D03*
D42*
X009190Y004705D03*
X007342Y002245D03*
D43*
X007342Y002248D03*
X009133Y004528D03*
X009193Y004744D03*
X007747Y005089D03*
X006871Y005056D03*
X006871Y005053D03*
X005554Y004546D03*
X005554Y004543D03*
X003841Y004534D03*
X002770Y004521D03*
X002752Y005271D03*
D44*
X005554Y004551D03*
X005554Y004549D03*
X007297Y004531D03*
X007747Y005083D03*
X009127Y004519D03*
X007342Y002251D03*
D45*
X007342Y002254D03*
X005557Y004564D03*
X005506Y005314D03*
X005506Y005316D03*
X006874Y005011D03*
X006874Y005008D03*
X006874Y005001D03*
X006874Y004999D03*
X007747Y005068D03*
X007750Y004711D03*
X009190Y004786D03*
X002770Y004528D03*
X002752Y005266D03*
D46*
X002752Y005263D03*
X006877Y004981D03*
X006877Y004978D03*
X007747Y005059D03*
X007747Y005061D03*
X009112Y004498D03*
X007342Y002256D03*
D47*
X007342Y002260D03*
X005512Y005290D03*
D48*
X005515Y005284D03*
X005560Y004588D03*
X004624Y005236D03*
X002752Y005256D03*
X007342Y002263D03*
X009097Y004483D03*
X009184Y004828D03*
X007750Y004746D03*
X007750Y004744D03*
X007747Y005031D03*
D49*
X007747Y005026D03*
X007747Y005023D03*
X007747Y004761D03*
X009184Y004834D03*
X007342Y002266D03*
X005515Y005278D03*
X004624Y005233D03*
X002752Y005254D03*
D50*
X002752Y005248D03*
X002767Y004546D03*
X003694Y004948D03*
X003799Y005271D03*
X005521Y005263D03*
X007744Y004986D03*
X007744Y004984D03*
X007747Y004798D03*
X007747Y004791D03*
X009082Y004471D03*
X009181Y004849D03*
X007342Y002269D03*
D51*
X007342Y002271D03*
X007744Y004821D03*
X007744Y004828D03*
X007744Y004831D03*
X007744Y004834D03*
X007744Y004836D03*
X007744Y004956D03*
X007744Y004963D03*
X007744Y004966D03*
X007744Y004969D03*
X007744Y004971D03*
X003799Y005269D03*
X002767Y004549D03*
D52*
X005526Y005245D03*
X009075Y004465D03*
X007341Y002275D03*
D53*
X007342Y002278D03*
X009067Y004461D03*
X009172Y004876D03*
X005569Y004633D03*
X002767Y004558D03*
X002752Y005236D03*
D54*
X005571Y004641D03*
X007296Y004501D03*
X008376Y004468D03*
X009156Y005281D03*
X007341Y002281D03*
D55*
X007342Y002284D03*
X007294Y004498D03*
X005536Y005209D03*
X003715Y004926D03*
X009151Y005286D03*
X009160Y005194D03*
X009160Y005191D03*
X009160Y005188D03*
D56*
X009160Y005181D03*
X009160Y005179D03*
X009055Y004456D03*
X007342Y002286D03*
X005575Y004656D03*
X005536Y005203D03*
D57*
X007341Y002290D03*
D58*
X007342Y002293D03*
X009154Y004911D03*
D59*
X009150Y004918D03*
X009132Y005301D03*
X005547Y005166D03*
X007341Y002296D03*
D60*
X007341Y002299D03*
X005583Y004693D03*
X005583Y004696D03*
D61*
X005554Y005146D03*
X005554Y005149D03*
X007285Y005308D03*
X007294Y004486D03*
X009142Y004926D03*
X007342Y002301D03*
D62*
X007341Y002305D03*
D63*
X007341Y002308D03*
X008412Y004453D03*
X009135Y004936D03*
X009117Y005314D03*
X007287Y005311D03*
X005589Y004723D03*
D64*
X007342Y002311D03*
X009109Y005316D03*
D65*
X007341Y002314D03*
D66*
X007341Y002316D03*
X009126Y004948D03*
X005571Y005091D03*
D67*
X005575Y005080D03*
X007342Y002320D03*
D68*
X007341Y002323D03*
X005601Y004771D03*
X005601Y004774D03*
D69*
X007341Y002326D03*
D70*
X007341Y002329D03*
X005604Y004786D03*
D71*
X007341Y002331D03*
D72*
X007341Y002335D03*
D73*
X007341Y002338D03*
D74*
X007341Y002341D03*
X005616Y004831D03*
X005604Y004996D03*
X005601Y005001D03*
D75*
X005616Y004836D03*
X006678Y004636D03*
X007341Y002344D03*
D76*
X007341Y002346D03*
D77*
X007341Y002350D03*
D78*
X007341Y002353D03*
X005625Y004866D03*
X005619Y004954D03*
D79*
X005628Y004879D03*
X005628Y004876D03*
X007341Y002356D03*
D80*
X007341Y002359D03*
X005631Y004888D03*
D81*
X005632Y004894D03*
X005632Y004896D03*
X005632Y004918D03*
X005629Y004921D03*
X005629Y004924D03*
X007339Y002361D03*
X009067Y004986D03*
D82*
X007339Y002365D03*
D83*
X007341Y002368D03*
D84*
X007341Y002371D03*
D85*
X007339Y002374D03*
X006679Y004686D03*
D86*
X006679Y004693D03*
X007339Y002376D03*
D87*
X007341Y002380D03*
D88*
X007341Y002383D03*
D89*
X007339Y002386D03*
D90*
X007339Y002389D03*
X006676Y004716D03*
D91*
X006676Y004723D03*
X007339Y002391D03*
D92*
X007341Y002395D03*
D93*
X007341Y002398D03*
D94*
X007339Y002401D03*
D95*
X007339Y002404D03*
X006670Y004753D03*
X006670Y004756D03*
D96*
X007341Y002406D03*
D97*
X007341Y002410D03*
D98*
X007339Y002413D03*
X006664Y004783D03*
D99*
X006664Y004786D03*
X007339Y002416D03*
D100*
X007339Y002419D03*
D101*
X007339Y002421D03*
X006661Y004801D03*
D102*
X007341Y002425D03*
D103*
X007341Y002428D03*
D104*
X007339Y002431D03*
X006652Y004831D03*
X008977Y005164D03*
D105*
X008974Y005151D03*
X006649Y004836D03*
X007348Y007041D03*
X007339Y002434D03*
D106*
X007339Y002436D03*
X008974Y005146D03*
D107*
X007339Y002440D03*
D108*
X007341Y002443D03*
D109*
X007339Y002446D03*
X008965Y005071D03*
X008965Y005074D03*
X008965Y005076D03*
X008965Y005083D03*
D110*
X007339Y002449D03*
D111*
X007339Y002451D03*
D112*
X007339Y002455D03*
D113*
X007339Y002458D03*
D114*
X007341Y002461D03*
D115*
X007339Y002464D03*
D116*
X007339Y002466D03*
D117*
X007339Y002470D03*
D118*
X007339Y002473D03*
D119*
X007339Y002476D03*
D120*
X007339Y002479D03*
D121*
X007339Y002481D03*
D122*
X007339Y002485D03*
D123*
X007339Y002488D03*
D124*
X007339Y002491D03*
D125*
X007339Y002494D03*
D126*
X007339Y002496D03*
D127*
X007339Y002500D03*
D128*
X007339Y002503D03*
X008647Y004138D03*
D129*
X007339Y002506D03*
D130*
X007339Y002509D03*
D131*
X007339Y002511D03*
X008659Y004183D03*
X008659Y004186D03*
D132*
X008662Y004195D03*
X007339Y002515D03*
D133*
X007339Y002518D03*
X008665Y004206D03*
D134*
X007339Y002521D03*
D135*
X007339Y002524D03*
D136*
X007339Y002526D03*
X008674Y004243D03*
X008674Y004246D03*
D137*
X007339Y002530D03*
D138*
X007338Y002533D03*
X008682Y004276D03*
X008682Y004279D03*
D139*
X007338Y002536D03*
D140*
X007339Y002539D03*
X008689Y004309D03*
X008689Y004311D03*
D141*
X008692Y004324D03*
X008692Y004326D03*
X007339Y002541D03*
D142*
X007339Y002545D03*
D143*
X007339Y002548D03*
D144*
X007339Y002551D03*
D145*
X007339Y002554D03*
X008704Y004381D03*
X008704Y004384D03*
D146*
X008707Y004396D03*
X008707Y004399D03*
X007339Y002556D03*
D147*
X007339Y002560D03*
D148*
X007338Y002563D03*
D149*
X007338Y002566D03*
D150*
X007338Y002569D03*
D151*
X007338Y002571D03*
D152*
X007339Y002575D03*
D153*
X007339Y002578D03*
D154*
X007339Y002581D03*
D155*
X007339Y002584D03*
D156*
X007339Y002586D03*
D157*
X007339Y002590D03*
D158*
X007339Y002593D03*
D159*
X007339Y002596D03*
D160*
X007339Y002599D03*
D161*
X007338Y002601D03*
D162*
X007338Y002605D03*
D163*
X007338Y002608D03*
D164*
X007338Y002611D03*
D165*
X007338Y002614D03*
D166*
X007338Y002616D03*
D167*
X007339Y002620D03*
D168*
X007339Y002623D03*
D169*
X007339Y002626D03*
D170*
X007339Y002629D03*
D171*
X007339Y002631D03*
D172*
X007339Y002635D03*
D173*
X007339Y002638D03*
X007348Y006979D03*
D174*
X007339Y002641D03*
D175*
X007339Y002644D03*
D176*
X007339Y002646D03*
D177*
X007339Y002650D03*
D178*
X007339Y002653D03*
D179*
X007339Y002656D03*
D180*
X007338Y002659D03*
D181*
X007338Y002661D03*
D182*
X007338Y002665D03*
D183*
X007338Y002668D03*
D184*
X007338Y002671D03*
D185*
X007338Y002674D03*
D186*
X007338Y002676D03*
D187*
X007338Y002680D03*
D188*
X007338Y002683D03*
D189*
X007338Y002686D03*
D190*
X007338Y002689D03*
D191*
X007338Y002691D03*
D192*
X007338Y002695D03*
D193*
X007338Y002698D03*
D194*
X007338Y002701D03*
D195*
X007338Y002704D03*
D196*
X007338Y002706D03*
X006036Y005331D03*
D197*
X007338Y002710D03*
D198*
X007338Y002713D03*
D199*
X007338Y002716D03*
D200*
X007338Y002719D03*
D201*
X007338Y002721D03*
D202*
X007338Y002725D03*
D203*
X007338Y002728D03*
D204*
X007338Y002731D03*
D205*
X007338Y002734D03*
X007347Y006943D03*
D206*
X007338Y002736D03*
D207*
X007338Y002740D03*
X007347Y006940D03*
D208*
X007338Y002743D03*
D209*
X007338Y002746D03*
D210*
X007338Y002749D03*
D211*
X007338Y002751D03*
D212*
X007338Y002755D03*
D213*
X007338Y002758D03*
D214*
X007338Y002761D03*
D215*
X007338Y002764D03*
D216*
X007338Y002766D03*
D217*
X007338Y002770D03*
D218*
X007338Y002773D03*
D219*
X007338Y002776D03*
D220*
X007338Y002779D03*
D221*
X007338Y002781D03*
D222*
X007338Y002785D03*
D223*
X007338Y002788D03*
D224*
X007338Y002791D03*
D225*
X007338Y002794D03*
D226*
X007338Y002796D03*
D227*
X007338Y002800D03*
D228*
X007338Y002803D03*
D229*
X007339Y002806D03*
D230*
X007339Y002809D03*
D231*
X007339Y002811D03*
D232*
X007339Y002815D03*
D233*
X007339Y002818D03*
D234*
X007339Y002821D03*
D235*
X007339Y002824D03*
D236*
X007339Y002826D03*
D237*
X007339Y002830D03*
D238*
X007339Y002833D03*
X007348Y006901D03*
D239*
X007339Y002836D03*
D240*
X007339Y002839D03*
D241*
X007339Y002841D03*
D242*
X007339Y002845D03*
D243*
X007338Y002848D03*
D244*
X007338Y002851D03*
D245*
X007338Y002854D03*
D246*
X007338Y002856D03*
D247*
X007338Y002860D03*
D248*
X007338Y002863D03*
D249*
X007338Y002866D03*
X007347Y006886D03*
D250*
X007338Y002869D03*
D251*
X007338Y002871D03*
X007347Y006883D03*
D252*
X007339Y002875D03*
D253*
X007339Y002878D03*
D254*
X007339Y002881D03*
D255*
X007339Y002884D03*
D256*
X007339Y002886D03*
D257*
X007339Y002890D03*
D258*
X007339Y002893D03*
D259*
X007339Y002896D03*
D260*
X007338Y002899D03*
D261*
X007338Y002901D03*
D262*
X007338Y002905D03*
D263*
X007338Y002908D03*
D264*
X007338Y002911D03*
D265*
X007339Y002914D03*
D266*
X007339Y002916D03*
D267*
X007339Y002920D03*
D268*
X007339Y002923D03*
D269*
X007339Y002926D03*
D270*
X007339Y002929D03*
D271*
X007339Y002931D03*
D272*
X007339Y002935D03*
D273*
X007339Y002938D03*
D274*
X007338Y002941D03*
D275*
X007338Y002944D03*
D276*
X007338Y002946D03*
D277*
X007338Y002950D03*
D278*
X007339Y002953D03*
D279*
X007339Y002956D03*
D280*
X007339Y002959D03*
D281*
X007339Y002961D03*
X007348Y006841D03*
D282*
X007339Y002965D03*
D283*
X007339Y002968D03*
D284*
X007339Y002971D03*
D285*
X007339Y002974D03*
D286*
X007338Y002976D03*
D287*
X007338Y002980D03*
D288*
X007338Y002983D03*
D289*
X007339Y002986D03*
D290*
X007339Y002989D03*
D291*
X007339Y002991D03*
D292*
X007339Y002995D03*
D293*
X007339Y002998D03*
D294*
X007339Y003001D03*
D295*
X007338Y003004D03*
D296*
X007338Y003006D03*
D297*
X007338Y003010D03*
D298*
X007339Y003013D03*
D299*
X007339Y003016D03*
D300*
X007339Y003019D03*
D301*
X007339Y003021D03*
D302*
X007339Y003025D03*
D303*
X007339Y003028D03*
D304*
X007339Y003031D03*
D305*
X007338Y003034D03*
D306*
X007338Y003036D03*
D307*
X007339Y003040D03*
D308*
X007339Y003043D03*
D309*
X007339Y003046D03*
D310*
X007339Y003049D03*
D311*
X007339Y003051D03*
D312*
X007339Y003055D03*
D313*
X007339Y003058D03*
D314*
X007338Y003061D03*
D315*
X007339Y003064D03*
D316*
X007339Y003066D03*
D317*
X007339Y003070D03*
D318*
X007339Y003073D03*
D319*
X007339Y003076D03*
D320*
X007339Y003079D03*
D321*
X007339Y003081D03*
D322*
X007339Y003085D03*
D323*
X007339Y003088D03*
D324*
X007339Y003091D03*
D325*
X007339Y003094D03*
D326*
X007339Y003096D03*
D327*
X007339Y003100D03*
D328*
X007339Y003103D03*
D329*
X007339Y003106D03*
X007339Y003109D03*
D330*
X007339Y003111D03*
D331*
X007339Y003115D03*
D332*
X007339Y003118D03*
D333*
X007339Y003121D03*
D334*
X007339Y003124D03*
D335*
X007339Y003126D03*
D336*
X007339Y003130D03*
D337*
X007339Y003133D03*
X007348Y006751D03*
D338*
X007339Y003136D03*
D339*
X007339Y003139D03*
D340*
X007339Y003141D03*
D341*
X007339Y003145D03*
D342*
X007339Y003148D03*
D343*
X007339Y003151D03*
X007348Y006741D03*
D344*
X007339Y003154D03*
D345*
X007339Y003156D03*
D346*
X007339Y003160D03*
D347*
X007339Y003163D03*
D348*
X007341Y003166D03*
D349*
X007339Y003169D03*
D350*
X007339Y003171D03*
D351*
X007339Y003175D03*
D352*
X007339Y003178D03*
D353*
X007339Y003181D03*
D354*
X007341Y003184D03*
D355*
X007341Y003186D03*
D356*
X007339Y003190D03*
D357*
X007339Y003193D03*
D358*
X007339Y003196D03*
D359*
X007339Y003199D03*
D360*
X007341Y003201D03*
D361*
X007339Y003205D03*
D362*
X007339Y003208D03*
D363*
X007339Y003211D03*
D364*
X007339Y003214D03*
D365*
X007339Y003216D03*
D366*
X007341Y003220D03*
D367*
X007339Y003223D03*
D368*
X007339Y003226D03*
D369*
X007339Y003229D03*
D370*
X007339Y003231D03*
D371*
X007339Y003235D03*
D372*
X007341Y003238D03*
D373*
X007339Y003241D03*
D374*
X007339Y003244D03*
D375*
X007339Y003246D03*
X006751Y004131D03*
D376*
X007339Y003250D03*
D377*
X007341Y003253D03*
D378*
X007341Y003256D03*
D379*
X007339Y003259D03*
X006742Y004168D03*
X006742Y004171D03*
D380*
X006739Y004183D03*
X007339Y003261D03*
D381*
X007339Y003265D03*
X006736Y004195D03*
D382*
X006735Y004198D03*
X006735Y004201D03*
X007341Y003268D03*
D383*
X007341Y003271D03*
D384*
X007339Y003274D03*
D385*
X007339Y003276D03*
X006727Y004228D03*
X006727Y004231D03*
X006727Y004234D03*
X007348Y006666D03*
D386*
X007339Y003280D03*
D387*
X007341Y003283D03*
X006723Y004249D03*
X006723Y004251D03*
D388*
X006720Y004264D03*
X006720Y004266D03*
X007341Y003286D03*
X007347Y006661D03*
D389*
X007339Y003289D03*
D390*
X007339Y003291D03*
D391*
X007339Y003295D03*
X006712Y004300D03*
X007348Y006655D03*
D392*
X006711Y004306D03*
X006711Y004303D03*
X007341Y003298D03*
D393*
X007341Y003301D03*
X006708Y004318D03*
X006708Y004321D03*
D394*
X006706Y004324D03*
X006706Y004326D03*
X007339Y003304D03*
D395*
X007339Y003306D03*
D396*
X007339Y003310D03*
D397*
X007341Y003313D03*
D398*
X007341Y003316D03*
X006696Y004378D03*
D399*
X006694Y004381D03*
X006694Y004384D03*
X006694Y004386D03*
X007339Y003319D03*
D400*
X007339Y003321D03*
X006691Y004396D03*
X006691Y004399D03*
X006691Y004401D03*
D401*
X007339Y003325D03*
D402*
X007341Y003328D03*
D403*
X007341Y003331D03*
D404*
X007339Y003334D03*
X006682Y004444D03*
X006682Y004446D03*
X007348Y006631D03*
D405*
X007339Y003336D03*
D406*
X007341Y003340D03*
D407*
X007341Y003343D03*
D408*
X007341Y003346D03*
D409*
X007339Y003349D03*
D410*
X007339Y003351D03*
X007348Y006619D03*
D411*
X007341Y003355D03*
D412*
X007341Y003358D03*
D413*
X007341Y003361D03*
X007347Y006613D03*
D414*
X007339Y003364D03*
D415*
X007341Y003366D03*
D416*
X007341Y003370D03*
D417*
X007341Y003373D03*
D418*
X007339Y003376D03*
D419*
X007339Y003379D03*
D420*
X007341Y003381D03*
X007347Y006601D03*
D421*
X007341Y003385D03*
D422*
X007341Y003388D03*
D423*
X007339Y003391D03*
D424*
X007341Y003394D03*
D425*
X007341Y003396D03*
D426*
X007341Y003400D03*
D427*
X007339Y003403D03*
D428*
X007341Y003406D03*
D429*
X007341Y003409D03*
D430*
X007341Y003411D03*
D431*
X007341Y003415D03*
D432*
X007341Y003418D03*
D433*
X007341Y003421D03*
D434*
X007341Y003424D03*
D435*
X007341Y003426D03*
D436*
X007341Y003430D03*
D437*
X007341Y003433D03*
D438*
X007341Y003436D03*
D439*
X007341Y003439D03*
X007341Y003441D03*
X007347Y006561D03*
D440*
X007341Y003445D03*
D441*
X007341Y003448D03*
D442*
X007341Y003451D03*
X007341Y003454D03*
D443*
X007341Y003456D03*
D444*
X007341Y003460D03*
D445*
X007341Y003463D03*
X007341Y003466D03*
D446*
X007341Y003469D03*
D447*
X007341Y003471D03*
D448*
X007341Y003475D03*
D449*
X007341Y003478D03*
D450*
X007341Y003481D03*
D451*
X007341Y003484D03*
D452*
X007341Y003486D03*
D453*
X007341Y003490D03*
D454*
X007341Y003493D03*
D455*
X007341Y003496D03*
D456*
X007341Y003499D03*
X007341Y003501D03*
D457*
X007341Y003505D03*
D458*
X007341Y003508D03*
D459*
X007342Y003511D03*
D460*
X007341Y003514D03*
D461*
X007341Y003516D03*
D462*
X007341Y003520D03*
X007347Y006505D03*
D463*
X007342Y003523D03*
D464*
X007341Y003526D03*
D465*
X007341Y003529D03*
D466*
X007342Y003531D03*
X007348Y006499D03*
D467*
X007341Y003535D03*
D468*
X007341Y003538D03*
D469*
X007341Y003541D03*
D470*
X007342Y003544D03*
D471*
X007341Y003546D03*
D472*
X007341Y003550D03*
D473*
X007342Y003553D03*
X007348Y006484D03*
D474*
X007342Y003556D03*
D475*
X007341Y003559D03*
D476*
X007341Y003561D03*
D477*
X007342Y003565D03*
D478*
X007341Y003568D03*
D479*
X007341Y003571D03*
D480*
X007342Y003574D03*
X007348Y006469D03*
D481*
X007341Y003576D03*
D482*
X007341Y003580D03*
D483*
X007341Y003583D03*
D484*
X007342Y003586D03*
D485*
X007341Y003589D03*
D486*
X007341Y003591D03*
D487*
X007342Y003595D03*
D488*
X007341Y003598D03*
D489*
X007341Y003601D03*
D490*
X007341Y003604D03*
D491*
X007342Y003606D03*
D492*
X007341Y003610D03*
D493*
X007341Y003613D03*
D494*
X007342Y003616D03*
D495*
X007341Y003619D03*
D496*
X007341Y003621D03*
D497*
X007342Y003625D03*
D498*
X007341Y003628D03*
D499*
X007341Y003631D03*
D500*
X007342Y003634D03*
D501*
X007342Y003636D03*
X007348Y006421D03*
D502*
X007341Y003640D03*
D503*
X007342Y003643D03*
D504*
X007342Y003646D03*
D505*
X007341Y003649D03*
D506*
X007341Y003651D03*
D507*
X007342Y003655D03*
D508*
X007342Y003658D03*
D509*
X007341Y003661D03*
D510*
X007342Y003664D03*
D511*
X007342Y003666D03*
D512*
X007341Y003670D03*
D513*
X007342Y003673D03*
D514*
X007342Y003676D03*
D515*
X007341Y003679D03*
D516*
X007342Y003681D03*
X007348Y006388D03*
D517*
X007342Y003685D03*
D518*
X007341Y003688D03*
D519*
X007342Y003691D03*
D520*
X007342Y003694D03*
D521*
X007341Y003696D03*
D522*
X007342Y003700D03*
D523*
X007342Y003703D03*
D524*
X007341Y003706D03*
D525*
X007342Y003709D03*
D526*
X007342Y003711D03*
D527*
X007341Y003715D03*
D528*
X007342Y003718D03*
D529*
X007342Y003721D03*
X007342Y003724D03*
D530*
X007342Y003726D03*
D531*
X007342Y003730D03*
D532*
X007342Y003733D03*
D533*
X007342Y003736D03*
D534*
X007342Y003739D03*
X007342Y003741D03*
D535*
X007342Y003745D03*
D536*
X007342Y003748D03*
X007342Y003751D03*
D537*
X007342Y003754D03*
D538*
X007342Y003756D03*
D539*
X007342Y003760D03*
D540*
X007342Y003763D03*
D541*
X007342Y003766D03*
X007342Y003769D03*
D542*
X007342Y003771D03*
D543*
X007342Y003775D03*
D544*
X007342Y003778D03*
D545*
X007342Y003781D03*
D546*
X007344Y003784D03*
D547*
X007342Y003786D03*
D548*
X007342Y003790D03*
D549*
X007342Y003793D03*
D550*
X007342Y003796D03*
X007348Y006298D03*
D551*
X007342Y003801D03*
X007342Y003799D03*
D552*
X007342Y003805D03*
D553*
X007342Y003808D03*
X007342Y003811D03*
D554*
X007342Y003814D03*
D555*
X007344Y003816D03*
D556*
X007342Y003820D03*
X007348Y006280D03*
D557*
X007342Y003826D03*
X007342Y003823D03*
D558*
X007342Y003829D03*
D559*
X007342Y003831D03*
D560*
X007342Y003835D03*
D561*
X007342Y003838D03*
D562*
X007344Y003841D03*
X007347Y006261D03*
D563*
X007348Y006259D03*
X007342Y003844D03*
D564*
X007342Y003846D03*
D565*
X007344Y003850D03*
D566*
X007342Y003853D03*
D567*
X007344Y003856D03*
D568*
X007342Y003859D03*
D569*
X007342Y003861D03*
D570*
X007344Y003865D03*
D571*
X007342Y003868D03*
D572*
X007344Y003871D03*
X007347Y006238D03*
D573*
X007342Y003874D03*
D574*
X007342Y003876D03*
D575*
X007344Y003880D03*
D576*
X007342Y003883D03*
D577*
X007344Y003886D03*
D578*
X007342Y003889D03*
D579*
X007342Y003891D03*
D580*
X007344Y003895D03*
D581*
X007342Y003898D03*
D582*
X007344Y003901D03*
D583*
X007344Y003904D03*
X007347Y006208D03*
D584*
X007342Y003906D03*
D585*
X007344Y003910D03*
D586*
X007342Y003913D03*
D587*
X007344Y003916D03*
X007347Y006199D03*
D588*
X007347Y006196D03*
X007344Y003919D03*
D589*
X007342Y003921D03*
D590*
X007344Y003925D03*
D591*
X007342Y003928D03*
D592*
X007344Y003931D03*
X007347Y006186D03*
D593*
X007344Y003934D03*
D594*
X007342Y003936D03*
D595*
X007344Y003940D03*
D596*
X007342Y003943D03*
D597*
X007344Y003946D03*
D598*
X007344Y003949D03*
X007344Y003951D03*
D599*
X007344Y003955D03*
D600*
X007342Y003958D03*
D601*
X007344Y003961D03*
D602*
X007342Y003964D03*
D603*
X007344Y003966D03*
D604*
X007344Y003970D03*
D605*
X007344Y003973D03*
X007347Y006151D03*
D606*
X007344Y003979D03*
X007344Y003976D03*
D607*
X007344Y003981D03*
X007347Y006141D03*
D608*
X007344Y003985D03*
D609*
X007344Y003988D03*
D610*
X007344Y003991D03*
X007344Y003994D03*
X007347Y006133D03*
D611*
X007347Y006126D03*
X007344Y003996D03*
D612*
X007344Y004000D03*
D613*
X007344Y004003D03*
D614*
X007344Y004006D03*
X007344Y004009D03*
X007347Y006118D03*
D615*
X007344Y004011D03*
D616*
X007344Y004015D03*
D617*
X007344Y004018D03*
X007344Y004021D03*
X007347Y006109D03*
D618*
X007344Y004026D03*
X007344Y004024D03*
D619*
X007344Y004030D03*
D620*
X007344Y004033D03*
X007344Y004036D03*
X007347Y006094D03*
D621*
X007344Y004041D03*
X007344Y004039D03*
D622*
X007344Y004045D03*
X007347Y006085D03*
D623*
X007344Y004048D03*
D624*
X007344Y004051D03*
X007344Y004054D03*
X007347Y006079D03*
D625*
X007344Y004056D03*
D626*
X007344Y004060D03*
D627*
X007344Y004063D03*
D628*
X007345Y004066D03*
D629*
X007344Y004069D03*
D630*
X007344Y004071D03*
D631*
X007344Y004075D03*
D632*
X007344Y004078D03*
X007344Y004081D03*
D633*
X007344Y004084D03*
X007344Y004086D03*
D634*
X007344Y004090D03*
D635*
X007344Y004093D03*
X007347Y006043D03*
D636*
X007344Y004096D03*
D637*
X007345Y004099D03*
X007348Y006036D03*
D638*
X007347Y006034D03*
X007344Y004101D03*
D639*
X007345Y004105D03*
D640*
X007344Y004108D03*
X007347Y006028D03*
D641*
X007345Y004111D03*
D642*
X007344Y004114D03*
D643*
X007345Y004116D03*
D644*
X007344Y004120D03*
D645*
X007345Y004123D03*
D646*
X008644Y004126D03*
D647*
X006753Y004126D03*
X006753Y004129D03*
D648*
X008646Y004129D03*
X008646Y004131D03*
D649*
X008647Y004135D03*
D650*
X006751Y004135D03*
D651*
X006750Y004138D03*
X006750Y004141D03*
D652*
X008649Y004141D03*
X008649Y004144D03*
D653*
X006748Y004144D03*
X006748Y004146D03*
X007348Y006681D03*
D654*
X008650Y004146D03*
D655*
X008650Y004150D03*
D656*
X006747Y004150D03*
D657*
X008652Y004153D03*
X008652Y004156D03*
D658*
X006747Y004153D03*
D659*
X006745Y004156D03*
X006745Y004159D03*
D660*
X008653Y004159D03*
X008653Y004161D03*
D661*
X006744Y004161D03*
X007347Y006679D03*
D662*
X008655Y004165D03*
D663*
X006744Y004165D03*
D664*
X008655Y004168D03*
X007347Y007021D03*
D665*
X008656Y004174D03*
X008656Y004171D03*
D666*
X006741Y004174D03*
X006741Y004176D03*
D667*
X008658Y004176D03*
D668*
X008658Y004180D03*
D669*
X006739Y004180D03*
D670*
X006738Y004186D03*
X006738Y004189D03*
D671*
X008661Y004189D03*
X008661Y004191D03*
D672*
X006736Y004191D03*
D673*
X008662Y004198D03*
D674*
X008664Y004201D03*
X008664Y004204D03*
D675*
X006733Y004204D03*
X006733Y004206D03*
D676*
X008665Y004210D03*
D677*
X006732Y004210D03*
X007347Y006670D03*
D678*
X007347Y007018D03*
X008667Y004216D03*
X008667Y004213D03*
D679*
X006732Y004213D03*
D680*
X006730Y004216D03*
X006730Y004219D03*
X006730Y004221D03*
D681*
X008668Y004221D03*
X008668Y004219D03*
D682*
X008670Y004225D03*
D683*
X006729Y004225D03*
D684*
X008670Y004228D03*
D685*
X008671Y004231D03*
X008671Y004234D03*
D686*
X008673Y004236D03*
D687*
X006726Y004236D03*
D688*
X008673Y004240D03*
D689*
X006726Y004240D03*
D690*
X006724Y004243D03*
X006724Y004246D03*
D691*
X008676Y004249D03*
X008676Y004251D03*
D692*
X008676Y004255D03*
D693*
X006721Y004255D03*
D694*
X008677Y004258D03*
X008677Y004261D03*
D695*
X006721Y004261D03*
X006721Y004258D03*
D696*
X008679Y004264D03*
X008679Y004266D03*
D697*
X008680Y004270D03*
D698*
X006718Y004270D03*
D699*
X008680Y004273D03*
D700*
X006718Y004273D03*
D701*
X006717Y004276D03*
X006717Y004279D03*
X007347Y006658D03*
D702*
X008683Y004281D03*
D703*
X006715Y004281D03*
D704*
X008683Y004285D03*
D705*
X006715Y004285D03*
D706*
X008685Y004288D03*
X008685Y004291D03*
X008685Y004294D03*
D707*
X006714Y004294D03*
X006714Y004291D03*
X006714Y004288D03*
D708*
X008686Y004296D03*
D709*
X006712Y004296D03*
D710*
X008686Y004300D03*
D711*
X008688Y004303D03*
X008688Y004306D03*
X007347Y007011D03*
D712*
X006709Y004311D03*
X006709Y004309D03*
D713*
X008689Y004315D03*
D714*
X006708Y004315D03*
D715*
X008691Y004318D03*
X008691Y004321D03*
D716*
X008694Y004330D03*
D717*
X006705Y004330D03*
D718*
X008694Y004333D03*
X008694Y004336D03*
D719*
X006705Y004336D03*
X006705Y004333D03*
X007347Y006649D03*
D720*
X008695Y004341D03*
X008695Y004339D03*
D721*
X006703Y004339D03*
X006703Y004341D03*
D722*
X008697Y004345D03*
D723*
X006702Y004345D03*
D724*
X008697Y004348D03*
D725*
X006702Y004348D03*
D726*
X008698Y004351D03*
X008698Y004354D03*
X008698Y004356D03*
X007348Y007009D03*
D727*
X007348Y006646D03*
X006700Y004356D03*
X006700Y004354D03*
X006700Y004351D03*
D728*
X008700Y004360D03*
D729*
X006699Y004360D03*
D730*
X008700Y004363D03*
D731*
X006699Y004363D03*
X006699Y004366D03*
D732*
X008701Y004366D03*
X008701Y004369D03*
D733*
X006697Y004369D03*
X006697Y004371D03*
X007348Y006643D03*
D734*
X008703Y004378D03*
X008703Y004371D03*
D735*
X008703Y004375D03*
D736*
X006696Y004375D03*
D737*
X008706Y004386D03*
X008706Y004393D03*
D738*
X008706Y004390D03*
D739*
X006693Y004390D03*
D740*
X006693Y004393D03*
D741*
X008709Y004401D03*
X008709Y004408D03*
D742*
X008709Y004405D03*
D743*
X006690Y004405D03*
D744*
X006690Y004408D03*
X006690Y004411D03*
X007347Y006636D03*
D745*
X008710Y004414D03*
X008710Y004411D03*
D746*
X006688Y004414D03*
X006688Y004416D03*
D747*
X008712Y004416D03*
X008712Y004423D03*
D748*
X008712Y004420D03*
D749*
X006687Y004420D03*
D750*
X006687Y004423D03*
X006687Y004426D03*
D751*
X008713Y004426D03*
X008713Y004429D03*
D752*
X006685Y004429D03*
X006685Y004431D03*
X007348Y006634D03*
D753*
X008715Y004438D03*
X008715Y004431D03*
D754*
X008715Y004435D03*
D755*
X006685Y004435D03*
D756*
X006684Y004438D03*
X006684Y004441D03*
D757*
X008716Y004441D03*
X008716Y004444D03*
X008716Y004446D03*
D758*
X008718Y004450D03*
D759*
X006682Y004450D03*
D760*
X007285Y005301D03*
X005545Y005179D03*
X005545Y005176D03*
X009043Y004453D03*
X009136Y005299D03*
D761*
X008694Y004591D03*
X007878Y004453D03*
X007299Y004666D03*
X007293Y005119D03*
X007293Y005121D03*
X006864Y005206D03*
X006084Y004636D03*
X004491Y005224D03*
X003633Y005236D03*
X003564Y004596D03*
X003078Y004621D03*
D762*
X006672Y004744D03*
X006672Y004746D03*
X007287Y004453D03*
D763*
X006079Y004453D03*
D764*
X005550Y005161D03*
X008400Y004456D03*
X009147Y004921D03*
D765*
X008697Y004581D03*
X007890Y004456D03*
X007299Y004693D03*
X007299Y004696D03*
X007299Y004699D03*
X007293Y005089D03*
X007293Y005091D03*
X007746Y005206D03*
X006075Y005149D03*
X004938Y005151D03*
X003939Y004881D03*
X003552Y004618D03*
X003849Y004471D03*
X003090Y004648D03*
X002592Y004579D03*
X002568Y005203D03*
D766*
X007288Y004456D03*
D767*
X006061Y004456D03*
D768*
X005533Y005218D03*
X009061Y004459D03*
X009166Y004888D03*
X009163Y005206D03*
X009163Y005209D03*
D769*
X008394Y004459D03*
D770*
X008586Y004891D03*
X007896Y004459D03*
X006531Y004483D03*
X003606Y005224D03*
X003096Y004663D03*
X002556Y005191D03*
D771*
X007290Y004459D03*
D772*
X006051Y004459D03*
D773*
X006076Y005041D03*
X007972Y005248D03*
X008524Y004906D03*
X008509Y004519D03*
X008704Y004558D03*
X007957Y004516D03*
X003850Y004459D03*
D774*
X002772Y004459D03*
X006084Y004761D03*
X006075Y005044D03*
D775*
X005578Y004666D03*
X007285Y005299D03*
X008386Y004461D03*
D776*
X007902Y004461D03*
X007920Y005316D03*
X006075Y005131D03*
X004950Y005121D03*
X003972Y004861D03*
X003540Y004641D03*
X002532Y005166D03*
D777*
X005620Y004951D03*
X005620Y004948D03*
X005626Y004873D03*
X006679Y004651D03*
X007291Y004461D03*
D778*
X006039Y004461D03*
D779*
X006076Y005086D03*
X004828Y005203D03*
X004825Y005206D03*
X003976Y005224D03*
X003646Y004579D03*
X003850Y004461D03*
X003133Y004486D03*
X003133Y004489D03*
X003133Y004491D03*
X003133Y004498D03*
X003133Y004501D03*
X003133Y004504D03*
X003133Y004506D03*
X003130Y004543D03*
X003130Y004546D03*
X003130Y004549D03*
X003130Y004551D03*
X007930Y004483D03*
X008533Y004486D03*
D780*
X006085Y004714D03*
X004819Y005209D03*
X003511Y004546D03*
X003511Y004543D03*
X003511Y004536D03*
X003511Y004534D03*
X003508Y004519D03*
X003508Y004516D03*
X003508Y004513D03*
X003508Y004506D03*
X003508Y004504D03*
X003505Y004498D03*
X003505Y004491D03*
X003505Y004489D03*
X003505Y004486D03*
X003127Y004609D03*
X003127Y004611D03*
X002773Y004461D03*
X002968Y005206D03*
D781*
X008380Y004465D03*
D782*
X007908Y004465D03*
X007299Y004750D03*
X004431Y005170D03*
X003534Y004660D03*
D783*
X007291Y004465D03*
D784*
X006030Y004465D03*
D785*
X004015Y004600D03*
X002950Y004570D03*
X002773Y004465D03*
X002503Y005125D03*
D786*
X005523Y005251D03*
X005523Y005254D03*
X005568Y004618D03*
X007296Y004506D03*
X007743Y004843D03*
X007743Y004846D03*
X007743Y004849D03*
X007743Y004851D03*
X007743Y004858D03*
X007743Y004861D03*
X007743Y004864D03*
X007743Y004866D03*
X007743Y004873D03*
X007743Y004876D03*
X007743Y004879D03*
X007743Y004881D03*
X007743Y004888D03*
X007743Y004891D03*
X007743Y004894D03*
X007743Y004896D03*
X007743Y004903D03*
X007743Y004906D03*
X007743Y004909D03*
X007743Y004911D03*
X007743Y004918D03*
X007743Y004921D03*
X007743Y004924D03*
X007743Y004926D03*
X007743Y004933D03*
X007743Y004936D03*
X007743Y004939D03*
X007743Y004941D03*
X007743Y004948D03*
X007743Y004951D03*
X007743Y004954D03*
X009078Y004468D03*
X009171Y005263D03*
X009171Y005266D03*
D787*
X008569Y004896D03*
X008548Y004471D03*
X007912Y004468D03*
X007297Y004774D03*
X007297Y004776D03*
X007294Y005001D03*
X007294Y005008D03*
X007294Y005011D03*
X007294Y005014D03*
X006805Y004564D03*
X006502Y004501D03*
X006493Y004513D03*
X006076Y005113D03*
X004960Y005083D03*
X004792Y005224D03*
X004417Y005146D03*
X004414Y005143D03*
X004003Y004831D03*
X004000Y004834D03*
X004027Y004621D03*
X004021Y004609D03*
X003529Y004678D03*
X003529Y004681D03*
X003109Y004711D03*
X003109Y004714D03*
X003109Y004716D03*
X003109Y005059D03*
X003109Y005061D03*
X002938Y005224D03*
X002749Y005329D03*
X002491Y005101D03*
X002488Y005091D03*
X002485Y005089D03*
X002485Y005086D03*
X002509Y004666D03*
X002515Y004656D03*
X002518Y004651D03*
X003568Y005188D03*
D788*
X005596Y005016D03*
X005596Y005014D03*
X005611Y004819D03*
X005611Y004816D03*
X007291Y004468D03*
D789*
X006024Y004468D03*
D790*
X006489Y004534D03*
X006519Y004489D03*
X007299Y004729D03*
X007299Y004731D03*
X007293Y005056D03*
X007749Y004576D03*
X004446Y005191D03*
X003999Y004579D03*
X003849Y004468D03*
X003099Y004671D03*
X003099Y005104D03*
X003099Y005106D03*
X002538Y005173D03*
D791*
X002545Y005181D03*
X002749Y005326D03*
X003094Y005119D03*
X003601Y005221D03*
X003544Y004633D03*
X003991Y004573D03*
X004459Y005203D03*
X004618Y005323D03*
X004945Y005134D03*
X006085Y004666D03*
X006487Y004546D03*
X007297Y004716D03*
X007294Y005068D03*
X007294Y005071D03*
X007744Y005209D03*
X003097Y004666D03*
X002773Y004468D03*
X002575Y004591D03*
D792*
X002625Y004564D03*
X006075Y005176D03*
X006477Y004596D03*
X008235Y004476D03*
X008235Y004474D03*
X008235Y004471D03*
X008610Y004876D03*
D793*
X007917Y004471D03*
X006075Y005106D03*
X004965Y005059D03*
X004965Y005056D03*
X004965Y005053D03*
X004395Y005083D03*
X004395Y005086D03*
X004395Y005089D03*
X004392Y005071D03*
X004020Y004806D03*
X003672Y004564D03*
X003525Y004696D03*
X003525Y004699D03*
X003525Y004701D03*
X003552Y005161D03*
X003552Y005164D03*
X003555Y005166D03*
X002460Y005001D03*
X002460Y004999D03*
X002460Y004996D03*
X002457Y004986D03*
X002457Y004984D03*
X002457Y004981D03*
X002457Y004978D03*
X002472Y004753D03*
X002475Y004744D03*
X002475Y004741D03*
X002475Y004738D03*
X002487Y004711D03*
X002490Y004701D03*
D794*
X005589Y005041D03*
X007293Y004471D03*
X009084Y005329D03*
D795*
X006555Y004471D03*
X006075Y005166D03*
X003075Y005164D03*
D796*
X002754Y005269D03*
X004623Y005254D03*
X006084Y004471D03*
X006873Y005031D03*
X006873Y005038D03*
X009123Y004513D03*
X009126Y004516D03*
D797*
X008674Y004708D03*
X008674Y004711D03*
X007297Y004566D03*
X006790Y004594D03*
X006076Y005266D03*
X006076Y005269D03*
X005542Y004474D03*
X005542Y004471D03*
D798*
X006075Y005158D03*
X006483Y004573D03*
X006549Y004474D03*
X007299Y004678D03*
X007299Y004681D03*
X007293Y005106D03*
X006864Y005209D03*
X004932Y005164D03*
X003780Y005326D03*
X003624Y005233D03*
X003558Y004606D03*
X003084Y004633D03*
X002775Y004471D03*
X002604Y004573D03*
D799*
X005520Y005266D03*
X005565Y004606D03*
X005565Y004603D03*
X009087Y004474D03*
D800*
X008545Y004474D03*
X006085Y004696D03*
X004963Y005061D03*
X004963Y005068D03*
X004798Y005221D03*
X004408Y005128D03*
X004405Y005121D03*
X004405Y005119D03*
X004015Y004813D03*
X004021Y004804D03*
X004036Y004641D03*
X004033Y004639D03*
X004033Y004636D03*
X004033Y004633D03*
X003526Y004693D03*
X003556Y005173D03*
X002476Y005061D03*
X002473Y005056D03*
X002473Y005053D03*
X002470Y005046D03*
X002470Y005044D03*
X002470Y005041D03*
X002485Y004714D03*
X002488Y004708D03*
X002491Y004699D03*
X002500Y004681D03*
D801*
X002971Y004581D03*
X003520Y004741D03*
X003520Y004744D03*
X003520Y004746D03*
X003520Y004753D03*
X003520Y004756D03*
X003520Y004759D03*
X003520Y004761D03*
X003520Y004768D03*
X003520Y004771D03*
X003520Y004774D03*
X003520Y004776D03*
X003520Y004783D03*
X003520Y004786D03*
X003520Y004789D03*
X003520Y004791D03*
X003520Y004798D03*
X003520Y004801D03*
X003520Y004804D03*
X003520Y004806D03*
X003520Y004813D03*
X003520Y004816D03*
X003520Y004819D03*
X003520Y004821D03*
X003520Y004828D03*
X003520Y004831D03*
X003520Y004834D03*
X003520Y004836D03*
X003520Y004843D03*
X003520Y004846D03*
X003520Y004849D03*
X003520Y004851D03*
X003520Y004858D03*
X003520Y004861D03*
X003520Y004864D03*
X003520Y004866D03*
X003520Y004873D03*
X003520Y004876D03*
X003520Y004879D03*
X003520Y004881D03*
X003520Y004888D03*
X003520Y004891D03*
X003520Y004894D03*
X003520Y004896D03*
X003520Y004903D03*
X003520Y004906D03*
X003520Y004909D03*
X003520Y004911D03*
X003526Y005071D03*
X003526Y005074D03*
X003526Y005076D03*
X003526Y005083D03*
X003526Y005086D03*
X003529Y005089D03*
X003529Y005091D03*
X003529Y005098D03*
X003532Y005106D03*
X003535Y005119D03*
X003535Y005121D03*
X004969Y005188D03*
X004969Y005191D03*
X004969Y005194D03*
X004969Y005196D03*
X004969Y005203D03*
X004969Y005206D03*
X004969Y005209D03*
X004969Y005211D03*
X004969Y005218D03*
X004969Y005221D03*
X004969Y005224D03*
X004969Y005226D03*
X004969Y005233D03*
X004969Y005236D03*
X004969Y005239D03*
X004969Y005241D03*
X004969Y005248D03*
X004969Y005251D03*
X004969Y005254D03*
X004969Y005256D03*
X004969Y005263D03*
X004969Y005266D03*
X004969Y005269D03*
X004969Y005271D03*
X004969Y005278D03*
X004969Y005281D03*
X004969Y005284D03*
X004969Y005286D03*
X004969Y005293D03*
X004969Y005296D03*
X004969Y005299D03*
X004969Y005301D03*
X004969Y005308D03*
X004969Y005311D03*
X004969Y005314D03*
X004969Y005316D03*
X004969Y005323D03*
X004969Y005326D03*
X004969Y005329D03*
X004969Y005331D03*
X004969Y005338D03*
X004969Y005341D03*
X004969Y005344D03*
X004969Y005346D03*
X004969Y005353D03*
X004969Y005356D03*
X004969Y005359D03*
X004969Y005361D03*
X004969Y005368D03*
X004969Y005371D03*
X004969Y005374D03*
X004969Y005376D03*
X004969Y005383D03*
X004969Y005386D03*
X004969Y005389D03*
X004969Y005391D03*
X004969Y005398D03*
X004969Y005401D03*
X004969Y005404D03*
X004969Y005406D03*
X004969Y005413D03*
X004969Y005416D03*
X004969Y005419D03*
X004969Y005421D03*
X004969Y005428D03*
X004969Y005431D03*
X004969Y005434D03*
X004969Y005436D03*
X004969Y005443D03*
X004969Y005446D03*
X004969Y005449D03*
X004969Y005451D03*
X004969Y005458D03*
X004969Y005461D03*
X004969Y005464D03*
X004969Y005466D03*
X004969Y005473D03*
X004969Y005476D03*
X004969Y005479D03*
X004969Y005481D03*
X004969Y005488D03*
X004969Y005491D03*
X004969Y005494D03*
X004969Y005496D03*
X004969Y005503D03*
X004969Y005506D03*
X004969Y005509D03*
X004969Y005511D03*
X004969Y005518D03*
X004969Y005521D03*
X004969Y005524D03*
X004969Y005526D03*
X004969Y005533D03*
X004969Y005536D03*
X004969Y005539D03*
X004969Y005541D03*
X004969Y005548D03*
X004969Y005551D03*
X004969Y005554D03*
X004969Y005556D03*
X004969Y005563D03*
X004969Y005566D03*
X004969Y005569D03*
X004969Y005571D03*
X004969Y005578D03*
X004969Y005581D03*
X004969Y005584D03*
X004969Y005586D03*
X004969Y005593D03*
X004969Y005596D03*
X004969Y005599D03*
X004969Y005601D03*
X004969Y005608D03*
X004969Y005611D03*
X004969Y005614D03*
X004969Y005616D03*
X004969Y005623D03*
X004969Y005626D03*
X004969Y005629D03*
X004969Y005631D03*
X004969Y005638D03*
X004969Y005641D03*
X004969Y005644D03*
X004969Y005646D03*
X004969Y005653D03*
X004969Y005656D03*
X004969Y005659D03*
X004969Y005661D03*
X004969Y005668D03*
X004969Y005671D03*
X004969Y005674D03*
X004969Y005676D03*
X004969Y005683D03*
X004969Y005686D03*
X004969Y005689D03*
X004969Y005691D03*
X004969Y005698D03*
X004969Y005701D03*
X004969Y005704D03*
X004969Y005706D03*
X004969Y005008D03*
X004969Y005001D03*
X004969Y004999D03*
X004969Y004996D03*
X004969Y004993D03*
X004969Y004986D03*
X004969Y004984D03*
X004969Y004981D03*
X004969Y004978D03*
X004969Y004971D03*
X004969Y004969D03*
X004969Y004966D03*
X004969Y004963D03*
X004969Y004956D03*
X004969Y004954D03*
X004969Y004951D03*
X004969Y004948D03*
X004969Y004941D03*
X004969Y004939D03*
X004969Y004936D03*
X004969Y004933D03*
X004969Y004926D03*
X004969Y004924D03*
X004969Y004921D03*
X004969Y004918D03*
X004969Y004911D03*
X004969Y004909D03*
X004969Y004906D03*
X004969Y004903D03*
X004969Y004896D03*
X004969Y004894D03*
X004969Y004891D03*
X004969Y004888D03*
X004969Y004881D03*
X004969Y004879D03*
X004969Y004876D03*
X004969Y004873D03*
X004969Y004866D03*
X004969Y004864D03*
X004969Y004861D03*
X004969Y004858D03*
X004969Y004851D03*
X004969Y004849D03*
X004969Y004846D03*
X004969Y004843D03*
X004969Y004836D03*
X004969Y004834D03*
X004969Y004831D03*
X004969Y004828D03*
X004969Y004821D03*
X004969Y004819D03*
X004969Y004816D03*
X004969Y004813D03*
X004969Y004806D03*
X004969Y004804D03*
X004969Y004801D03*
X004969Y004798D03*
X004969Y004791D03*
X004969Y004789D03*
X004969Y004786D03*
X004969Y004783D03*
X004969Y004776D03*
X004969Y004774D03*
X004969Y004771D03*
X004969Y004768D03*
X004969Y004761D03*
X004969Y004759D03*
X004969Y004756D03*
X004969Y004753D03*
X004969Y004746D03*
X004969Y004744D03*
X004969Y004741D03*
X004969Y004738D03*
X004969Y004731D03*
X004969Y004729D03*
X004969Y004726D03*
X004969Y004723D03*
X004969Y004716D03*
X004969Y004714D03*
X004969Y004711D03*
X004969Y004708D03*
X004969Y004701D03*
X004969Y004699D03*
X004969Y004696D03*
X004969Y004693D03*
X004969Y004686D03*
X004969Y004684D03*
X004969Y004681D03*
X004969Y004678D03*
X004969Y004671D03*
X004969Y004669D03*
X004969Y004666D03*
X004969Y004663D03*
X004969Y004656D03*
X004969Y004654D03*
X004969Y004651D03*
X004969Y004648D03*
X004969Y004641D03*
X004969Y004639D03*
X004969Y004636D03*
X004969Y004633D03*
X004969Y004626D03*
X004969Y004624D03*
X004969Y004621D03*
X004969Y004618D03*
X004969Y004611D03*
X004969Y004609D03*
X004969Y004606D03*
X004969Y004603D03*
X004969Y004596D03*
X004969Y004594D03*
X004969Y004591D03*
X004969Y004588D03*
X004969Y004581D03*
X004969Y004579D03*
X004969Y004576D03*
X004969Y004573D03*
X004969Y004566D03*
X004969Y004564D03*
X004969Y004561D03*
X004969Y004558D03*
X004969Y004551D03*
X004969Y004549D03*
X004969Y004546D03*
X004969Y004543D03*
X004969Y004536D03*
X004969Y004534D03*
X004969Y004531D03*
X004969Y004528D03*
X004969Y004521D03*
X004969Y004519D03*
X004969Y004516D03*
X004969Y004513D03*
X004969Y004506D03*
X004969Y004504D03*
X004969Y004501D03*
X004969Y004498D03*
X004969Y004491D03*
X004969Y004489D03*
X004969Y004486D03*
X004969Y004483D03*
X007297Y004836D03*
X007297Y004843D03*
X007297Y004846D03*
X007297Y004849D03*
X007297Y004851D03*
X007297Y004858D03*
X007297Y004861D03*
X007297Y004864D03*
X007297Y004866D03*
X007297Y004873D03*
X007297Y004876D03*
X007297Y004879D03*
X007297Y004881D03*
X007297Y004888D03*
X007297Y004891D03*
X007297Y004894D03*
X007297Y004896D03*
X007297Y004903D03*
X007297Y004906D03*
X007297Y004909D03*
X007297Y004911D03*
X007297Y004918D03*
X007297Y004921D03*
X007297Y004924D03*
X007297Y004926D03*
X007921Y004474D03*
X008701Y004566D03*
D802*
X009093Y005326D03*
X007293Y004474D03*
X005580Y005068D03*
D803*
X006084Y004476D03*
X006084Y004474D03*
X006873Y005041D03*
X006873Y005044D03*
X006873Y005046D03*
X007752Y004696D03*
X007752Y004693D03*
X009129Y004521D03*
X009192Y004746D03*
X009192Y004753D03*
X009192Y004756D03*
X004623Y005256D03*
D804*
X004927Y005173D03*
X003919Y004891D03*
X003847Y004474D03*
X003079Y004624D03*
X007297Y004669D03*
X008602Y004881D03*
D805*
X004498Y005226D03*
X003568Y005001D03*
X003568Y004591D03*
X002773Y004474D03*
D806*
X005565Y004596D03*
X009090Y004476D03*
D807*
X007924Y004476D03*
D808*
X007294Y004476D03*
X007285Y005316D03*
X005572Y005089D03*
X005596Y004756D03*
X005596Y004753D03*
D809*
X006483Y004566D03*
X006543Y004476D03*
X007299Y004686D03*
X007293Y005098D03*
X007293Y005101D03*
X006864Y005211D03*
X007749Y004581D03*
X004479Y005218D03*
X003084Y005146D03*
X002598Y004576D03*
D810*
X002602Y005224D03*
X003070Y005173D03*
X003847Y004476D03*
X004921Y005181D03*
X006085Y004626D03*
X007297Y004656D03*
X007291Y005131D03*
X007744Y005196D03*
D811*
X006864Y005226D03*
X006075Y005091D03*
X004815Y005211D03*
X003654Y004573D03*
X003513Y004566D03*
X003513Y004564D03*
X003513Y004561D03*
X003513Y004558D03*
X003513Y004551D03*
X003513Y004549D03*
X003510Y004531D03*
X003510Y004528D03*
X003510Y004521D03*
X003507Y004501D03*
X003504Y004483D03*
X003504Y004476D03*
X002985Y004591D03*
X002964Y005209D03*
X008535Y004483D03*
D812*
X008701Y005209D03*
X007750Y004594D03*
X007291Y005149D03*
X006523Y005266D03*
X006433Y005134D03*
X006433Y005131D03*
X006430Y005128D03*
X006076Y005188D03*
X004618Y005311D03*
X002773Y004476D03*
D813*
X007747Y005020D03*
X009094Y004480D03*
D814*
X008538Y004480D03*
X002976Y004585D03*
D815*
X006477Y004600D03*
X008235Y004480D03*
D816*
X007927Y004480D03*
X003514Y004570D03*
X003511Y004540D03*
X003508Y004510D03*
X003505Y004495D03*
D817*
X005592Y004735D03*
X005565Y005110D03*
X007293Y004480D03*
D818*
X006537Y004480D03*
D819*
X006084Y004480D03*
X005553Y004540D03*
X007752Y004690D03*
X009192Y004735D03*
D820*
X008304Y005290D03*
X007290Y005230D03*
X006345Y004915D03*
X006348Y004885D03*
X006084Y004525D03*
X005544Y004480D03*
D821*
X004969Y004480D03*
X004969Y004495D03*
X004969Y004510D03*
X004969Y004525D03*
X004969Y004540D03*
X004969Y004555D03*
X004969Y004570D03*
X004969Y004585D03*
X004969Y004600D03*
X004969Y004615D03*
X004969Y004630D03*
X004969Y004645D03*
X004969Y004660D03*
X004969Y004675D03*
X004969Y004690D03*
X004969Y004705D03*
X004969Y004720D03*
X004969Y004735D03*
X004969Y004750D03*
X004969Y004765D03*
X004969Y004780D03*
X004969Y004795D03*
X004969Y004810D03*
X004969Y004825D03*
X004969Y004840D03*
X004969Y004855D03*
X004969Y004870D03*
X004969Y004885D03*
X004969Y004900D03*
X004969Y004915D03*
X004969Y004930D03*
X004969Y004945D03*
X004969Y004960D03*
X004969Y004975D03*
X004969Y004990D03*
X004969Y005005D03*
X004969Y005200D03*
X004969Y005215D03*
X004969Y005230D03*
X004969Y005245D03*
X004969Y005260D03*
X004969Y005275D03*
X004969Y005290D03*
X004969Y005305D03*
X004969Y005320D03*
X004969Y005335D03*
X004969Y005350D03*
X004969Y005365D03*
X004969Y005380D03*
X004969Y005395D03*
X004969Y005410D03*
X004969Y005425D03*
X004969Y005440D03*
X004969Y005455D03*
X004969Y005470D03*
X004969Y005485D03*
X004969Y005500D03*
X004969Y005515D03*
X004969Y005530D03*
X004969Y005545D03*
X004969Y005560D03*
X004969Y005575D03*
X004969Y005590D03*
X004969Y005605D03*
X004969Y005620D03*
X004969Y005635D03*
X004969Y005650D03*
X004969Y005665D03*
X004969Y005680D03*
X004969Y005695D03*
X004969Y005710D03*
X006085Y004705D03*
X007297Y004840D03*
X007297Y004855D03*
X007297Y004870D03*
X007297Y004885D03*
X007297Y004900D03*
X007297Y004915D03*
X007297Y004930D03*
X008560Y004900D03*
X003532Y005110D03*
X003529Y005095D03*
X003526Y005080D03*
X003520Y004900D03*
X003520Y004885D03*
X003520Y004870D03*
X003520Y004855D03*
X003520Y004840D03*
X003520Y004825D03*
X003520Y004810D03*
X003520Y004795D03*
X003520Y004780D03*
X003520Y004765D03*
X003520Y004750D03*
D822*
X003522Y004735D03*
X003522Y004720D03*
X003522Y005005D03*
X003522Y005020D03*
X003525Y005065D03*
X003537Y005125D03*
X003543Y005140D03*
X003117Y005005D03*
X002955Y005215D03*
X002451Y004900D03*
X002454Y004840D03*
X003117Y004780D03*
X003117Y004765D03*
X004041Y004750D03*
X004044Y004735D03*
X004044Y004720D03*
X004383Y004720D03*
X004383Y004735D03*
X004383Y004750D03*
X004383Y004765D03*
X004383Y004780D03*
X004383Y004795D03*
X004383Y004810D03*
X004383Y004825D03*
X004383Y004840D03*
X004383Y004855D03*
X004383Y004870D03*
X004383Y004885D03*
X004383Y004900D03*
X004383Y004915D03*
X004383Y004930D03*
X004383Y004945D03*
X004383Y004960D03*
X004383Y004975D03*
X004383Y004990D03*
X004383Y005005D03*
X004386Y005020D03*
X004386Y005035D03*
X004383Y004705D03*
X004383Y004690D03*
X004383Y004675D03*
X004383Y004660D03*
X004383Y004645D03*
X004383Y004630D03*
X004383Y004615D03*
X004383Y004600D03*
X004383Y004585D03*
X004383Y004570D03*
X004383Y004555D03*
X004383Y004540D03*
X004383Y004525D03*
X004383Y004510D03*
X004383Y004495D03*
X004383Y004480D03*
X004968Y005020D03*
X007296Y004960D03*
X007296Y004945D03*
D823*
X006517Y005260D03*
X008242Y005065D03*
X008242Y005050D03*
X008617Y004870D03*
X003847Y004480D03*
D824*
X003510Y004525D03*
X003513Y004555D03*
X003504Y004480D03*
D825*
X003135Y004480D03*
X003132Y004510D03*
X003132Y004525D03*
X003132Y004540D03*
X003129Y004555D03*
X003129Y004570D03*
X003129Y004585D03*
X003129Y004600D03*
D826*
X005560Y005128D03*
X005560Y005131D03*
X007294Y004483D03*
D827*
X008331Y005316D03*
X009189Y004714D03*
X009144Y004546D03*
X006084Y004486D03*
X006084Y004483D03*
X005553Y004534D03*
X005553Y004536D03*
X006078Y005316D03*
D828*
X006345Y004918D03*
X006348Y004881D03*
X006084Y004528D03*
X005544Y004483D03*
X006867Y005131D03*
X006867Y005134D03*
X007752Y004641D03*
X002772Y004501D03*
D829*
X002629Y005233D03*
X002752Y005314D03*
X003847Y004483D03*
X006409Y005083D03*
X007297Y004624D03*
X008254Y005158D03*
X008254Y005161D03*
X008689Y004611D03*
D830*
X008263Y005203D03*
X006568Y005308D03*
X006388Y005038D03*
X002773Y004483D03*
D831*
X003838Y004551D03*
X005560Y004581D03*
X007750Y004738D03*
X007750Y004741D03*
X009100Y004486D03*
D832*
X007933Y004486D03*
X007948Y005286D03*
X002983Y005194D03*
X002998Y004603D03*
D833*
X002937Y004564D03*
X003099Y004669D03*
X003543Y004636D03*
X002568Y004596D03*
X002544Y005179D03*
X004947Y005131D03*
X006075Y005134D03*
X006075Y005136D03*
X006489Y004543D03*
X006525Y004486D03*
X006804Y004566D03*
X007299Y004723D03*
X007299Y004726D03*
D834*
X007290Y005233D03*
X006342Y004909D03*
X006342Y004906D03*
X006342Y004896D03*
X006345Y004894D03*
X006345Y004891D03*
X006084Y004521D03*
X005544Y004486D03*
X003789Y005301D03*
X002772Y004504D03*
X008307Y005293D03*
D835*
X006561Y005301D03*
X006396Y005056D03*
X003846Y004486D03*
D836*
X003856Y004909D03*
X002773Y004486D03*
X006076Y005224D03*
X006076Y005226D03*
X006865Y005176D03*
X007750Y004611D03*
D837*
X009105Y004489D03*
X009189Y004813D03*
X005559Y004579D03*
X004623Y005241D03*
X002769Y004534D03*
D838*
X003001Y004606D03*
X006085Y004723D03*
X008530Y004489D03*
D839*
X008527Y004491D03*
X007936Y004489D03*
X007951Y005284D03*
X006085Y004729D03*
X004840Y005194D03*
X003979Y005221D03*
X002989Y005188D03*
X003007Y004611D03*
D840*
X007294Y004489D03*
D841*
X007752Y004678D03*
X006870Y005076D03*
X006078Y005311D03*
X006084Y004491D03*
X006084Y004489D03*
X003792Y005293D03*
X002754Y005278D03*
X009150Y004558D03*
X009153Y004561D03*
X009153Y004564D03*
X009189Y004693D03*
X009189Y004696D03*
X009189Y004699D03*
D842*
X008308Y005296D03*
X007750Y004648D03*
X006340Y004903D03*
X006076Y005281D03*
X005545Y004491D03*
X005545Y004489D03*
D843*
X006085Y004566D03*
X006370Y004993D03*
X006373Y004996D03*
X006373Y004999D03*
X006076Y005233D03*
X006076Y005236D03*
X006865Y005166D03*
X007291Y005196D03*
X008278Y005241D03*
X008683Y004641D03*
X002773Y004489D03*
D844*
X003796Y005281D03*
X003838Y004549D03*
X005560Y004576D03*
X005509Y005299D03*
X005509Y005301D03*
X007288Y005271D03*
X007747Y005056D03*
X007747Y005053D03*
X007750Y004731D03*
X007750Y004729D03*
X007750Y004726D03*
X009106Y004491D03*
D845*
X007939Y004491D03*
D846*
X007296Y004491D03*
X009156Y004909D03*
X009141Y005296D03*
D847*
X008694Y005224D03*
X007746Y005211D03*
X007299Y004746D03*
X007299Y004744D03*
X007299Y004741D03*
X007299Y004738D03*
X006516Y004491D03*
X006492Y004528D03*
X006087Y004678D03*
X004953Y005113D03*
X004440Y005181D03*
X004437Y005179D03*
X003975Y004858D03*
X003537Y004651D03*
X003102Y004684D03*
X003102Y005091D03*
X002526Y005158D03*
X002517Y005146D03*
D848*
X003784Y005314D03*
X004618Y005299D03*
X003844Y004491D03*
X006085Y004573D03*
X006376Y005008D03*
X006580Y005316D03*
X006865Y005173D03*
X007291Y005194D03*
X007297Y004596D03*
X008275Y005233D03*
X008707Y005194D03*
X008644Y004836D03*
X008686Y004636D03*
D849*
X008682Y004656D03*
X008655Y004813D03*
X008655Y004816D03*
X006792Y004588D03*
X004620Y005293D03*
X002772Y004491D03*
D850*
X009109Y004495D03*
D851*
X008526Y004495D03*
X006864Y005230D03*
D852*
X006493Y005230D03*
X006481Y005215D03*
X006463Y005185D03*
X004918Y005185D03*
X008236Y004495D03*
D853*
X007942Y004495D03*
X007957Y005275D03*
D854*
X007294Y004495D03*
D855*
X007294Y005035D03*
X006511Y004495D03*
X004954Y005110D03*
X003979Y004855D03*
X002512Y005140D03*
D856*
X003843Y004525D03*
X006084Y004495D03*
X009168Y004600D03*
X009183Y004660D03*
D857*
X007297Y004555D03*
X005545Y004495D03*
D858*
X003844Y004495D03*
X008650Y004825D03*
D859*
X006085Y004720D03*
X003133Y004495D03*
X002995Y004600D03*
D860*
X002772Y004495D03*
X004620Y005290D03*
X007290Y005215D03*
X007752Y004630D03*
X008679Y004675D03*
D861*
X008703Y004561D03*
X008523Y004498D03*
X006084Y004738D03*
X006075Y005068D03*
X003984Y005218D03*
D862*
X006084Y004741D03*
X007944Y004498D03*
X008520Y004501D03*
X007959Y005271D03*
D863*
X007299Y004771D03*
X007299Y004768D03*
X006507Y004498D03*
X006495Y004516D03*
X006075Y005116D03*
X004959Y005091D03*
X004959Y005089D03*
X004959Y005086D03*
X004425Y005161D03*
X004419Y005151D03*
X004419Y005149D03*
X003999Y004836D03*
X004023Y004611D03*
X004020Y004606D03*
X003570Y005191D03*
X003573Y005194D03*
X003108Y005071D03*
X003108Y005068D03*
X003108Y004708D03*
X002520Y004648D03*
X002517Y004654D03*
X002490Y005098D03*
X002493Y005104D03*
X002499Y005116D03*
D864*
X003792Y005296D03*
X004623Y005269D03*
X005550Y004519D03*
X005550Y004516D03*
X006084Y004501D03*
X006084Y004498D03*
X006870Y005091D03*
X007290Y005248D03*
X007752Y004669D03*
X007752Y004666D03*
D865*
X007752Y004654D03*
X007290Y005239D03*
X006084Y004513D03*
X005547Y004501D03*
X005547Y004498D03*
X003843Y004516D03*
X002772Y004506D03*
D866*
X003846Y004498D03*
X006363Y004969D03*
X006363Y004971D03*
X008709Y005188D03*
D867*
X009114Y004501D03*
X006876Y004984D03*
X006876Y004986D03*
X006876Y004993D03*
X006876Y004996D03*
X005559Y004566D03*
X005508Y005308D03*
X005508Y005311D03*
X004623Y005248D03*
D868*
X006075Y005059D03*
X007962Y005269D03*
X007947Y004501D03*
D869*
X008680Y004666D03*
X008680Y004669D03*
X008659Y004801D03*
X008659Y004804D03*
X006358Y004956D03*
X006076Y005254D03*
X006085Y004549D03*
X003844Y004501D03*
X002752Y005299D03*
D870*
X003840Y004543D03*
X004623Y005251D03*
X005556Y004561D03*
X005556Y004558D03*
X006876Y005014D03*
X007746Y005071D03*
X007752Y004708D03*
X009117Y004504D03*
X009120Y004506D03*
X009192Y004776D03*
X009192Y004783D03*
D871*
X008238Y004521D03*
X008238Y004519D03*
X008238Y004516D03*
X008238Y004513D03*
X008238Y004506D03*
X008238Y004504D03*
X007299Y004648D03*
X006453Y005166D03*
X006450Y005164D03*
X006447Y005158D03*
X006459Y005179D03*
X006465Y005188D03*
X006489Y005224D03*
X006495Y005233D03*
X006498Y005236D03*
X006507Y005248D03*
X006075Y005181D03*
X002610Y005226D03*
D872*
X007963Y005266D03*
X007948Y004504D03*
D873*
X007296Y004504D03*
X005529Y005236D03*
X009168Y005239D03*
X009168Y005241D03*
D874*
X007932Y005308D03*
X007299Y004789D03*
X007299Y004786D03*
X007299Y004783D03*
X006864Y005224D03*
X006495Y004506D03*
X006498Y004504D03*
X006084Y004693D03*
X004962Y005071D03*
X004962Y005074D03*
X004962Y005076D03*
X004413Y005136D03*
X004410Y005134D03*
X004410Y005131D03*
X004404Y005116D03*
X004014Y004816D03*
X004005Y004828D03*
X004029Y004626D03*
X004029Y004624D03*
X003678Y004561D03*
X003528Y004684D03*
X003528Y004686D03*
X002958Y004573D03*
X002508Y004669D03*
X002505Y004671D03*
X002502Y004678D03*
X002499Y004684D03*
X002475Y005059D03*
X002478Y005068D03*
X002478Y005071D03*
X002484Y005083D03*
X003564Y005181D03*
D875*
X006084Y004504D03*
X006870Y005101D03*
X007752Y004663D03*
D876*
X007752Y004656D03*
X007290Y005241D03*
X005547Y004504D03*
X003645Y004981D03*
D877*
X003844Y004504D03*
X004621Y005286D03*
X006076Y005263D03*
X006352Y004939D03*
X008296Y005278D03*
X008665Y004776D03*
X008665Y004774D03*
X008677Y004686D03*
X008677Y004684D03*
D878*
X008515Y004506D03*
X006076Y005056D03*
D879*
X007951Y004506D03*
X003991Y005211D03*
D880*
X004621Y005271D03*
X003841Y004519D03*
X005548Y004506D03*
X006076Y005296D03*
X006868Y005106D03*
X006868Y005104D03*
D881*
X006348Y004926D03*
X006348Y004924D03*
X006084Y004534D03*
X006084Y004531D03*
X007746Y005143D03*
X008301Y005284D03*
X008673Y004731D03*
X008673Y004729D03*
X008673Y004726D03*
X008673Y004723D03*
X008673Y004716D03*
X008673Y004714D03*
X003843Y004506D03*
D882*
X006874Y005020D03*
X007750Y004705D03*
X009121Y004510D03*
D883*
X008514Y004510D03*
D884*
X008238Y004510D03*
X008238Y004525D03*
X007293Y005140D03*
X006864Y005200D03*
X006453Y005170D03*
X003573Y004585D03*
D885*
X007953Y004510D03*
D886*
X007746Y004810D03*
X007746Y004975D03*
X007296Y004510D03*
D887*
X006084Y004510D03*
D888*
X005548Y004510D03*
D889*
X006076Y005275D03*
X003844Y004510D03*
D890*
X002772Y004510D03*
X007290Y005245D03*
D891*
X007968Y005256D03*
X008688Y005233D03*
X008514Y004513D03*
X006084Y004756D03*
D892*
X007954Y004513D03*
X007969Y005254D03*
X003994Y005209D03*
D893*
X002769Y004543D03*
X007296Y004513D03*
X007749Y004768D03*
X007749Y004771D03*
X007746Y005011D03*
X007746Y005014D03*
X007746Y005016D03*
X009183Y004836D03*
D894*
X007746Y005131D03*
X006084Y004519D03*
X006084Y004516D03*
X003843Y004513D03*
D895*
X002770Y004513D03*
X008323Y005311D03*
X009181Y004651D03*
X009181Y004648D03*
X009178Y004641D03*
X009178Y004639D03*
X009178Y004636D03*
X009178Y004633D03*
X009175Y004626D03*
X009175Y004624D03*
X009166Y004596D03*
D896*
X008511Y004516D03*
X007971Y005251D03*
D897*
X007746Y005029D03*
X007749Y004759D03*
X007749Y004756D03*
X007749Y004753D03*
X007296Y004516D03*
X005562Y004591D03*
X005514Y005281D03*
X009186Y004831D03*
D898*
X008508Y004521D03*
X007959Y004519D03*
X006084Y004768D03*
X003999Y005206D03*
D899*
X005512Y005293D03*
X007297Y004519D03*
X007747Y005041D03*
X007747Y005044D03*
X009187Y004819D03*
X009187Y004816D03*
D900*
X007750Y004573D03*
X006493Y004519D03*
X006085Y004684D03*
X006085Y004686D03*
X006076Y005119D03*
X004426Y005164D03*
X004423Y005158D03*
X003958Y005233D03*
X003991Y004843D03*
X004018Y004603D03*
X003106Y004699D03*
X003106Y004701D03*
X003106Y005074D03*
X003106Y005076D03*
X002506Y005128D03*
X002503Y005121D03*
X002500Y005119D03*
X002530Y004636D03*
D901*
X002770Y004519D03*
X003661Y004971D03*
X003841Y004531D03*
X006871Y005061D03*
X006871Y005068D03*
X007288Y005256D03*
X009190Y004726D03*
X009190Y004723D03*
X009190Y004716D03*
D902*
X007960Y004521D03*
X007975Y005241D03*
X006076Y005038D03*
D903*
X007296Y004521D03*
D904*
X006492Y004521D03*
X006075Y005121D03*
X004785Y005226D03*
X004617Y005326D03*
X003990Y004846D03*
X003987Y004849D03*
X003105Y004696D03*
X003105Y004693D03*
X003105Y005083D03*
X003105Y005086D03*
X002532Y004633D03*
D905*
X005550Y004521D03*
X006870Y005086D03*
X006870Y005089D03*
X007752Y004671D03*
X009162Y004588D03*
X009165Y004591D03*
X009165Y004594D03*
D906*
X009132Y004525D03*
X009192Y004750D03*
D907*
X008506Y004525D03*
D908*
X007962Y004525D03*
X006075Y005035D03*
D909*
X006876Y004990D03*
X007296Y004525D03*
X007746Y005065D03*
D910*
X006492Y004525D03*
X003105Y005080D03*
X002535Y004630D03*
D911*
X003655Y004975D03*
X005551Y004525D03*
X007297Y004540D03*
X009184Y004675D03*
D912*
X006873Y005035D03*
X005556Y004555D03*
X002769Y004525D03*
D913*
X008505Y004528D03*
D914*
X008239Y004528D03*
X008239Y004531D03*
X008239Y004534D03*
X008239Y004536D03*
X008239Y004543D03*
X008239Y004546D03*
X008239Y004549D03*
X008239Y004551D03*
X008239Y004558D03*
X008239Y004561D03*
X008239Y004564D03*
X008239Y004566D03*
X008239Y004573D03*
X008239Y004576D03*
X008614Y004873D03*
X007291Y005143D03*
X006514Y005256D03*
X006511Y005254D03*
X006502Y005241D03*
X006448Y005161D03*
X006442Y005151D03*
X006442Y005149D03*
X006085Y004621D03*
X006085Y004618D03*
X003646Y005239D03*
D915*
X007963Y004528D03*
X008503Y004531D03*
D916*
X009190Y004774D03*
X007747Y005074D03*
X007747Y005076D03*
X007297Y004528D03*
X006874Y005016D03*
X006874Y005023D03*
X006874Y005026D03*
X006874Y005029D03*
X003670Y004966D03*
D917*
X003841Y004528D03*
X004621Y005263D03*
X005551Y004531D03*
X006076Y005314D03*
X006871Y005074D03*
X006871Y005071D03*
X007297Y004536D03*
X007747Y005098D03*
X007747Y005101D03*
X009190Y004711D03*
X009190Y004708D03*
X009190Y004701D03*
X009145Y004549D03*
D918*
X009138Y004534D03*
X009135Y004531D03*
X009192Y004729D03*
X009192Y004731D03*
X009192Y004738D03*
X009192Y004741D03*
X007752Y004686D03*
X006873Y005059D03*
D919*
X006075Y005029D03*
X006084Y004776D03*
X007965Y004531D03*
X008502Y004534D03*
X007977Y005236D03*
D920*
X007294Y005053D03*
X007294Y005046D03*
X007294Y005044D03*
X006490Y004531D03*
X006076Y005128D03*
X004951Y005119D03*
X004951Y005116D03*
X004444Y005188D03*
X004000Y004581D03*
X003589Y005211D03*
X003100Y005101D03*
X003100Y005098D03*
X003100Y004681D03*
X003100Y004678D03*
X002944Y004566D03*
X002557Y004606D03*
X002554Y004609D03*
X002551Y004611D03*
X002527Y005161D03*
X002530Y005164D03*
D921*
X002770Y004531D03*
X003676Y004963D03*
X003838Y004546D03*
X007288Y005269D03*
X007750Y004723D03*
X007750Y004716D03*
X009190Y004798D03*
D922*
X008500Y004536D03*
X007966Y004534D03*
X007747Y005226D03*
X006076Y005026D03*
D923*
X007296Y004534D03*
X007746Y005091D03*
D924*
X009139Y004536D03*
X009142Y004543D03*
D925*
X007968Y004536D03*
X006084Y004783D03*
D926*
X007288Y005263D03*
X007750Y004699D03*
X009193Y004759D03*
X009193Y004761D03*
X003841Y004536D03*
D927*
X003684Y004956D03*
X003798Y005278D03*
X004623Y005239D03*
X005514Y005286D03*
X007746Y005038D03*
X009186Y004821D03*
X002769Y004536D03*
D928*
X009141Y004540D03*
D929*
X008499Y004540D03*
D930*
X008692Y004600D03*
X008239Y004570D03*
X008239Y004555D03*
X008239Y004540D03*
X007297Y004645D03*
X006445Y005155D03*
X006505Y005245D03*
D931*
X007969Y004540D03*
D932*
X007299Y004720D03*
X007293Y005065D03*
X006489Y004540D03*
X004455Y005200D03*
D933*
X006084Y004540D03*
X006354Y004945D03*
D934*
X003838Y004540D03*
D935*
X002769Y004540D03*
X007749Y004750D03*
D936*
X007752Y004561D03*
X008499Y004543D03*
X007983Y005224D03*
X006075Y005016D03*
X006084Y004789D03*
X006084Y004786D03*
X004005Y005196D03*
D937*
X007971Y004543D03*
D938*
X007297Y004543D03*
X009169Y004606D03*
X009169Y004609D03*
X009172Y004611D03*
X009172Y004618D03*
X002752Y005281D03*
D939*
X006076Y005256D03*
X006355Y004948D03*
X006085Y004543D03*
X006790Y004591D03*
X006865Y005149D03*
X008293Y005271D03*
D940*
X007984Y005221D03*
X007984Y005218D03*
X007972Y004546D03*
X008497Y004546D03*
X006085Y004791D03*
D941*
X008496Y004549D03*
D942*
X007974Y004549D03*
X006075Y005014D03*
X004008Y005194D03*
D943*
X002752Y005284D03*
X007297Y004549D03*
X007747Y005119D03*
D944*
X007294Y005076D03*
X006487Y004549D03*
X004942Y005143D03*
X004462Y005206D03*
X003949Y004876D03*
X003547Y004626D03*
X003547Y004624D03*
X003982Y004566D03*
X003094Y004656D03*
X002557Y005194D03*
D945*
X007752Y004684D03*
X007752Y004681D03*
X009147Y004551D03*
D946*
X008494Y004551D03*
X007987Y005211D03*
D947*
X007975Y004551D03*
X006076Y005011D03*
D948*
X007297Y004551D03*
X008314Y005301D03*
X003790Y005299D03*
X002752Y005286D03*
D949*
X002913Y005233D03*
X003093Y004654D03*
X004941Y005146D03*
X006486Y004551D03*
X007299Y004701D03*
X007293Y005083D03*
X007293Y005086D03*
D950*
X005524Y005248D03*
X002752Y005241D03*
X002767Y004551D03*
X009175Y004864D03*
X009169Y005256D03*
D951*
X009148Y004555D03*
D952*
X008493Y004555D03*
D953*
X007977Y004555D03*
D954*
X007299Y004705D03*
X006864Y005215D03*
X006486Y004555D03*
X002583Y004585D03*
D955*
X006084Y004555D03*
D956*
X006480Y004585D03*
X003957Y004555D03*
D957*
X003697Y004555D03*
X003097Y005110D03*
D958*
X002767Y004555D03*
X009172Y004870D03*
X009169Y005245D03*
D959*
X008491Y004558D03*
X007990Y005203D03*
X006085Y004801D03*
D960*
X007978Y004561D03*
X007978Y004558D03*
D961*
X007297Y004558D03*
X003637Y004984D03*
D962*
X003550Y004621D03*
X003979Y004564D03*
X004471Y005211D03*
X004939Y005149D03*
X006085Y004656D03*
X006484Y004558D03*
X008590Y004888D03*
X003091Y004651D03*
X002926Y004561D03*
X002587Y004581D03*
D963*
X002752Y005301D03*
X006085Y004558D03*
X006865Y005161D03*
X007291Y005206D03*
X008284Y005254D03*
X008284Y005256D03*
D964*
X003936Y005239D03*
X003081Y005151D03*
X002751Y005323D03*
X003966Y004558D03*
D965*
X004011Y005188D03*
X006075Y005001D03*
X006084Y004804D03*
X007980Y004564D03*
X008490Y004561D03*
X007992Y005196D03*
D966*
X007747Y005136D03*
X007297Y004561D03*
X006790Y004596D03*
X006346Y004888D03*
X006343Y004911D03*
X006076Y005278D03*
X006868Y005128D03*
X004621Y005281D03*
D967*
X004846Y005188D03*
X006076Y005071D03*
X006808Y004561D03*
D968*
X006366Y004978D03*
X006366Y004981D03*
X006075Y005241D03*
X006084Y004561D03*
X007290Y005203D03*
X007746Y005161D03*
X008283Y005251D03*
X008652Y004821D03*
X008682Y004651D03*
X007752Y004621D03*
X003786Y005311D03*
X003612Y004993D03*
D969*
X003088Y004641D03*
X003973Y004561D03*
D970*
X002637Y004561D03*
X006075Y005191D03*
X006525Y005269D03*
D971*
X006076Y004999D03*
X006085Y004806D03*
X007981Y004566D03*
X008491Y004564D03*
D972*
X007750Y004564D03*
D973*
X007299Y004591D03*
X007746Y005164D03*
X008649Y004828D03*
X006369Y004986D03*
X006084Y004564D03*
D974*
X006075Y004996D03*
X007995Y005188D03*
X007995Y005191D03*
X008490Y004566D03*
D975*
X007749Y004566D03*
X007746Y005221D03*
X002979Y005196D03*
D976*
X006870Y005080D03*
X007752Y004675D03*
X009156Y004570D03*
X009189Y004690D03*
D977*
X008488Y004570D03*
X007996Y005185D03*
D978*
X007983Y004570D03*
X006084Y004810D03*
X004014Y005185D03*
D979*
X004390Y005065D03*
X004387Y005050D03*
X004036Y004765D03*
X004045Y004705D03*
X004045Y004690D03*
X004042Y004675D03*
X003547Y005155D03*
X003115Y005020D03*
X003115Y004750D03*
X002467Y004765D03*
X002464Y004780D03*
X002461Y004795D03*
X002455Y004825D03*
X002452Y004855D03*
X002452Y004870D03*
X002452Y004885D03*
X002452Y004915D03*
X002452Y004930D03*
X002452Y004945D03*
X002455Y004975D03*
X004966Y005035D03*
X004966Y005050D03*
X007297Y004825D03*
X007750Y004570D03*
D980*
X007297Y004570D03*
X008665Y004780D03*
X008677Y004690D03*
D981*
X006801Y004570D03*
X002586Y005215D03*
D982*
X006084Y004645D03*
X006483Y004570D03*
X007293Y005110D03*
D983*
X006867Y005170D03*
X006795Y004585D03*
X006084Y004570D03*
X007752Y004615D03*
D984*
X005559Y004570D03*
X005508Y005305D03*
X004623Y005245D03*
D985*
X004771Y005230D03*
X003958Y004870D03*
X003988Y004570D03*
X002548Y005185D03*
D986*
X003660Y004570D03*
X004812Y005215D03*
D987*
X004929Y005170D03*
X002610Y004570D03*
X007299Y004675D03*
D988*
X008698Y004573D03*
X003583Y005206D03*
X003103Y005089D03*
X003103Y004686D03*
X002518Y005149D03*
D989*
X004017Y005181D03*
X006075Y004993D03*
X007998Y005179D03*
X007998Y005181D03*
X008487Y004576D03*
X008487Y004573D03*
D990*
X007983Y004573D03*
D991*
X007299Y004573D03*
X007746Y005149D03*
X008664Y004786D03*
X008664Y004783D03*
X008679Y004681D03*
X006354Y004941D03*
D992*
X006457Y005176D03*
X006469Y005194D03*
X006469Y005196D03*
X006484Y005218D03*
X006487Y005221D03*
X006799Y004573D03*
X008692Y004596D03*
X003904Y004896D03*
X003067Y005179D03*
D993*
X005559Y004573D03*
X009189Y004801D03*
X009189Y004804D03*
X009189Y004806D03*
D994*
X007941Y005296D03*
X003516Y004581D03*
X003516Y004579D03*
X003516Y004576D03*
X003516Y004573D03*
D995*
X007984Y004576D03*
D996*
X007750Y004596D03*
X007297Y004633D03*
X006799Y004576D03*
X006424Y005113D03*
X006424Y005116D03*
X006532Y005278D03*
X006076Y005194D03*
X006085Y004609D03*
X008245Y005098D03*
X008245Y005101D03*
X008245Y005104D03*
X008245Y005106D03*
X008620Y004866D03*
D997*
X008695Y004588D03*
X006481Y004576D03*
X006085Y004641D03*
X006076Y005161D03*
X004930Y005166D03*
X004486Y005221D03*
X003925Y004888D03*
X003559Y004603D03*
D998*
X003994Y004576D03*
X003967Y004864D03*
X003964Y004866D03*
X003949Y005236D03*
X006862Y005218D03*
X007294Y005061D03*
X007294Y005059D03*
D999*
X003651Y004576D03*
D1000*
X004039Y004654D03*
X004012Y004819D03*
X004399Y005101D03*
X004402Y005113D03*
X003559Y005176D03*
X003112Y005046D03*
X003112Y005044D03*
X003112Y005041D03*
X002944Y005221D03*
X002467Y005038D03*
X002467Y005031D03*
X002464Y005023D03*
X002479Y004729D03*
X002494Y004693D03*
X002497Y004686D03*
X002962Y004576D03*
X003112Y004729D03*
X003112Y004731D03*
X007297Y004791D03*
D1001*
X007746Y005106D03*
X009183Y004663D03*
X009183Y004656D03*
X009183Y004654D03*
X009174Y004621D03*
X009168Y004603D03*
X009159Y004579D03*
X006078Y005308D03*
D1002*
X004944Y005136D03*
X003954Y004873D03*
X003093Y005121D03*
X002553Y005188D03*
X007293Y005074D03*
X007299Y004714D03*
X007299Y004711D03*
X007299Y004708D03*
X008694Y005221D03*
X008697Y004579D03*
D1003*
X008241Y004579D03*
X008241Y004581D03*
X008241Y004588D03*
X008241Y004591D03*
X008241Y004594D03*
X008241Y004596D03*
X008241Y004603D03*
X008241Y004606D03*
X008241Y004609D03*
X008241Y004611D03*
X008241Y004618D03*
X008241Y004621D03*
X008241Y004624D03*
X008241Y004626D03*
X008241Y004633D03*
X008241Y004636D03*
X008241Y004639D03*
X008241Y004641D03*
X008241Y004648D03*
X008241Y004651D03*
X008241Y004654D03*
X008241Y004656D03*
X008241Y004663D03*
X008241Y004666D03*
X008241Y004669D03*
X008241Y004671D03*
X008241Y004678D03*
X008241Y004681D03*
X008241Y004684D03*
X008241Y004686D03*
X008241Y004693D03*
X008241Y004696D03*
X008241Y004699D03*
X008241Y004701D03*
X008241Y004708D03*
X008241Y004711D03*
X008241Y004714D03*
X008241Y004716D03*
X008241Y004723D03*
X008241Y004726D03*
X008241Y004729D03*
X008241Y004731D03*
X008241Y004738D03*
X008241Y004741D03*
X008241Y004744D03*
X008241Y004746D03*
X008241Y004753D03*
X008241Y004756D03*
X008241Y004759D03*
X008241Y004761D03*
X008241Y004768D03*
X008241Y004771D03*
X008241Y004774D03*
X008241Y004776D03*
X008241Y004783D03*
X008241Y004786D03*
X008241Y004789D03*
X008241Y004791D03*
X008241Y004798D03*
X008241Y004801D03*
X008241Y004804D03*
X008241Y004806D03*
X008241Y004813D03*
X008241Y004816D03*
X008241Y004819D03*
X008241Y004821D03*
X008241Y004828D03*
X008241Y004831D03*
X008241Y004834D03*
X008241Y004836D03*
X008241Y004843D03*
X008241Y004846D03*
X008241Y004849D03*
X008241Y004851D03*
X008241Y004858D03*
X008241Y004861D03*
X008241Y004864D03*
X008241Y004866D03*
X008241Y004873D03*
X008241Y004876D03*
X008241Y004879D03*
X008241Y004881D03*
X008241Y004888D03*
X008241Y004891D03*
X008241Y004894D03*
X008241Y004896D03*
X008241Y004903D03*
X008241Y004906D03*
X008241Y004909D03*
X008241Y004911D03*
X008241Y004918D03*
X008241Y004921D03*
X008241Y004924D03*
X008241Y004926D03*
X008241Y004933D03*
X008241Y004936D03*
X008241Y004939D03*
X008241Y004941D03*
X008241Y004948D03*
X008241Y004951D03*
X008241Y004954D03*
X008241Y004956D03*
X008241Y004963D03*
X008241Y004966D03*
X008241Y004969D03*
X008241Y004971D03*
X008241Y004978D03*
X008241Y004981D03*
X008241Y004984D03*
X008241Y004986D03*
X008241Y004993D03*
X008241Y004996D03*
X008241Y004999D03*
X008241Y005001D03*
X008241Y005008D03*
X008241Y005011D03*
X008241Y005014D03*
X008241Y005016D03*
X008241Y005023D03*
X008241Y005026D03*
X008241Y005029D03*
X008241Y005031D03*
X008241Y005038D03*
X008241Y005041D03*
X006441Y005146D03*
X002751Y005316D03*
D1004*
X007986Y004581D03*
X007986Y004579D03*
D1005*
X007744Y005181D03*
X007291Y005173D03*
X006556Y005299D03*
X006076Y005206D03*
X006085Y004594D03*
X006796Y004579D03*
X008257Y005173D03*
X008257Y005176D03*
X008629Y004858D03*
D1006*
X007299Y004671D03*
X007293Y005113D03*
X007293Y005116D03*
X006480Y004581D03*
X006480Y004579D03*
X006075Y005164D03*
X003078Y005158D03*
D1007*
X006084Y004579D03*
X006384Y005026D03*
X006576Y005314D03*
X007299Y004603D03*
X007746Y005173D03*
X008268Y005218D03*
X008706Y005196D03*
D1008*
X004393Y005076D03*
X004393Y005074D03*
X004033Y004776D03*
X004033Y004774D03*
X003523Y004714D03*
X003523Y004711D03*
X003523Y004708D03*
X002968Y004579D03*
X002473Y004746D03*
X002458Y004804D03*
X002458Y004806D03*
X002458Y004813D03*
X002458Y004816D03*
X002458Y004819D03*
X002458Y004993D03*
D1009*
X007297Y004581D03*
X007747Y005158D03*
X008287Y005263D03*
D1010*
X008640Y004843D03*
X007290Y005188D03*
X006795Y004581D03*
X003600Y004996D03*
D1011*
X006076Y005221D03*
X006385Y005029D03*
X006382Y005023D03*
X006865Y005179D03*
X006085Y004581D03*
X007750Y004609D03*
X008266Y005209D03*
X008266Y005211D03*
X008686Y004626D03*
D1012*
X006075Y005083D03*
X003642Y004581D03*
D1013*
X009162Y004585D03*
X009180Y004645D03*
D1014*
X008695Y004585D03*
X008596Y004885D03*
X006076Y005155D03*
D1015*
X008241Y005035D03*
X008241Y005020D03*
X008241Y005005D03*
X008241Y004990D03*
X008241Y004975D03*
X008241Y004960D03*
X008241Y004945D03*
X008241Y004930D03*
X008241Y004915D03*
X008241Y004900D03*
X008241Y004885D03*
X008241Y004870D03*
X008241Y004855D03*
X008241Y004840D03*
X008241Y004825D03*
X008241Y004810D03*
X008241Y004795D03*
X008241Y004780D03*
X008241Y004765D03*
X008241Y004750D03*
X008241Y004735D03*
X008241Y004720D03*
X008241Y004705D03*
X008241Y004690D03*
X008241Y004675D03*
X008241Y004660D03*
X008241Y004645D03*
X008241Y004630D03*
X008241Y004615D03*
X008241Y004600D03*
X008241Y004585D03*
D1016*
X007297Y004585D03*
X006364Y004975D03*
X006076Y005245D03*
D1017*
X006387Y005035D03*
X006084Y004585D03*
D1018*
X005562Y004585D03*
X007287Y005275D03*
D1019*
X006075Y005125D03*
X004005Y004585D03*
X003102Y005095D03*
X002523Y005155D03*
X002547Y004615D03*
D1020*
X006076Y005239D03*
X006367Y004984D03*
X006865Y005164D03*
X007297Y004588D03*
X008281Y005248D03*
X008707Y005191D03*
D1021*
X006478Y004591D03*
X006478Y004588D03*
X003073Y005166D03*
D1022*
X003783Y005316D03*
X006084Y004588D03*
X006393Y005046D03*
X006864Y005181D03*
X007299Y004611D03*
X007746Y005179D03*
X008634Y004851D03*
X008688Y004621D03*
D1023*
X006085Y004711D03*
X003970Y005226D03*
X002980Y004588D03*
D1024*
X006085Y004591D03*
X006076Y005211D03*
X007291Y005176D03*
X008260Y005188D03*
D1025*
X008694Y004594D03*
X007299Y004651D03*
X007299Y004654D03*
X007293Y005134D03*
X006864Y005203D03*
X003069Y005176D03*
D1026*
X003075Y004618D03*
X003567Y004594D03*
X003912Y004894D03*
X004923Y005179D03*
X006075Y005173D03*
X006477Y004594D03*
X007293Y005128D03*
D1027*
X007288Y005278D03*
X005563Y004594D03*
X003688Y004954D03*
X007348Y007078D03*
D1028*
X006864Y005221D03*
X007296Y005031D03*
X007299Y004761D03*
X007299Y004759D03*
X007299Y004756D03*
X007299Y004753D03*
X004956Y005101D03*
X004956Y005104D03*
X004428Y005166D03*
X004014Y004596D03*
X004011Y004594D03*
X003534Y004663D03*
X002538Y004626D03*
X002508Y005131D03*
X002511Y005134D03*
X002511Y005136D03*
D1029*
X002541Y005176D03*
X003096Y005116D03*
X003096Y005113D03*
X002571Y004594D03*
D1030*
X003588Y004999D03*
X006084Y004596D03*
X006402Y005068D03*
X006402Y005071D03*
X006405Y005074D03*
X006552Y005296D03*
X006864Y005188D03*
X007299Y004621D03*
D1031*
X002992Y004596D03*
D1032*
X007299Y004600D03*
X008643Y004840D03*
D1033*
X006789Y004600D03*
D1034*
X005563Y004600D03*
D1035*
X003562Y004600D03*
X007744Y005200D03*
D1036*
X004948Y005125D03*
X002923Y005230D03*
X002563Y004600D03*
D1037*
X006084Y004611D03*
X006426Y005119D03*
X006528Y005271D03*
X007293Y005151D03*
X007299Y004639D03*
X007299Y004636D03*
X008244Y005071D03*
X008244Y005074D03*
X008244Y005076D03*
X008244Y005083D03*
X008244Y005086D03*
X008244Y005089D03*
X008244Y005091D03*
X008691Y004603D03*
D1038*
X006669Y004603D03*
D1039*
X006411Y005086D03*
X006411Y005089D03*
X006543Y005286D03*
X006864Y005191D03*
X007299Y004626D03*
X008253Y005146D03*
X008253Y005149D03*
X008253Y005151D03*
X008703Y005206D03*
X008691Y004609D03*
X006084Y004603D03*
D1040*
X006391Y005041D03*
X006391Y005044D03*
X006076Y005218D03*
X007291Y005181D03*
X007291Y005179D03*
X007297Y004609D03*
X007750Y004606D03*
D1041*
X006670Y004606D03*
X005602Y004776D03*
X005581Y005061D03*
X009115Y004956D03*
D1042*
X007291Y005161D03*
X006415Y005098D03*
X006412Y005091D03*
X006076Y005196D03*
X006085Y004606D03*
D1043*
X005583Y005059D03*
X006672Y004609D03*
D1044*
X007287Y005284D03*
X005565Y004609D03*
X009180Y004851D03*
D1045*
X006085Y004648D03*
X004933Y005161D03*
X003556Y004609D03*
X003085Y004636D03*
X002581Y005211D03*
D1046*
X006672Y004611D03*
D1047*
X005566Y004611D03*
X005521Y005256D03*
X009178Y004858D03*
D1048*
X008697Y005218D03*
X006075Y005151D03*
X004935Y005158D03*
X003555Y004611D03*
X003087Y004639D03*
X002577Y005209D03*
D1049*
X007747Y005110D03*
X009172Y004615D03*
D1050*
X008689Y004615D03*
X007291Y005170D03*
X006400Y005065D03*
D1051*
X006394Y005050D03*
X007297Y004615D03*
X008632Y004855D03*
D1052*
X006673Y004615D03*
D1053*
X006085Y004615D03*
D1054*
X005566Y004615D03*
X009178Y004855D03*
D1055*
X007294Y005005D03*
X006085Y004690D03*
X004960Y005080D03*
X004414Y005140D03*
X004024Y004615D03*
X003529Y004675D03*
X003109Y005065D03*
X003565Y005185D03*
X002488Y005095D03*
X002482Y005080D03*
X002512Y004660D03*
D1056*
X003553Y004615D03*
X004618Y005320D03*
D1057*
X003073Y004615D03*
D1058*
X002752Y005311D03*
X006394Y005053D03*
X008689Y004618D03*
D1059*
X007752Y004618D03*
D1060*
X006675Y004618D03*
X005607Y004798D03*
X005607Y004801D03*
X005592Y005031D03*
X009105Y004966D03*
D1061*
X007296Y004993D03*
X007296Y004996D03*
X007296Y004999D03*
X004011Y004821D03*
X004026Y004618D03*
X003561Y005179D03*
X003111Y005056D03*
X003111Y005053D03*
X003111Y004726D03*
X003111Y004723D03*
X002511Y004663D03*
X002481Y005074D03*
X002481Y005076D03*
D1062*
X005592Y005029D03*
X005610Y004806D03*
X006675Y004621D03*
X009078Y005331D03*
D1063*
X009168Y005269D03*
X009168Y005254D03*
X009168Y005251D03*
X009168Y005248D03*
X009174Y004866D03*
X007287Y005286D03*
X005568Y004624D03*
X005568Y004621D03*
X005526Y005241D03*
X003801Y005266D03*
X003702Y004941D03*
D1064*
X006076Y005248D03*
X006361Y004966D03*
X006865Y005158D03*
X007291Y005209D03*
X007750Y004624D03*
D1065*
X006675Y004624D03*
D1066*
X006675Y004626D03*
D1067*
X005569Y004626D03*
X005527Y005239D03*
X003799Y005263D03*
X002752Y005239D03*
X009166Y005271D03*
X009172Y004873D03*
D1068*
X003081Y004626D03*
D1069*
X006076Y005305D03*
X009175Y004630D03*
D1070*
X008686Y004630D03*
D1071*
X007299Y004630D03*
X003783Y005320D03*
D1072*
X005599Y005005D03*
X005614Y004825D03*
X006676Y004630D03*
D1073*
X006085Y004630D03*
D1074*
X005571Y004630D03*
D1075*
X003546Y004630D03*
X003096Y004660D03*
D1076*
X006867Y005146D03*
X007290Y005218D03*
X007290Y005221D03*
X007752Y004633D03*
D1077*
X006676Y004633D03*
X005617Y004834D03*
X005605Y004993D03*
X005602Y004999D03*
D1078*
X005571Y004636D03*
X009171Y004879D03*
D1079*
X008670Y004753D03*
X008670Y004746D03*
X008670Y004744D03*
X008670Y004741D03*
X008670Y004738D03*
X007752Y004639D03*
X007290Y005226D03*
X006867Y005136D03*
X004620Y005284D03*
X003630Y004986D03*
D1080*
X005610Y004981D03*
X005619Y004846D03*
X005619Y004843D03*
X006678Y004639D03*
D1081*
X006085Y004639D03*
X004618Y005316D03*
X003076Y005161D03*
X002590Y005218D03*
D1082*
X003709Y004933D03*
X003784Y005241D03*
X003787Y005248D03*
X005530Y005226D03*
X005530Y005224D03*
X005572Y004639D03*
X009169Y004881D03*
X009166Y005221D03*
D1083*
X007927Y005311D03*
X007294Y005029D03*
X007294Y005026D03*
X007294Y005023D03*
X004957Y005098D03*
X003574Y005196D03*
X003532Y004666D03*
X002527Y004639D03*
X002524Y004641D03*
X002497Y005113D03*
D1084*
X005613Y004971D03*
X006678Y004641D03*
X007284Y005329D03*
D1085*
X008683Y004645D03*
D1086*
X006679Y004645D03*
D1087*
X005572Y004645D03*
X003712Y004930D03*
D1088*
X003556Y005170D03*
X004018Y004810D03*
X004036Y004645D03*
X003526Y004690D03*
X002488Y004705D03*
X004963Y005065D03*
X006076Y005110D03*
D1089*
X003540Y004645D03*
X002535Y005170D03*
D1090*
X003087Y005140D03*
X003090Y004645D03*
X007293Y005095D03*
D1091*
X004422Y005155D03*
X003108Y004705D03*
X002523Y004645D03*
D1092*
X004618Y005296D03*
X008683Y004648D03*
D1093*
X006679Y004648D03*
X005617Y004956D03*
D1094*
X005574Y004651D03*
X005574Y004648D03*
X009153Y005284D03*
D1095*
X007296Y004986D03*
X007296Y004984D03*
X007296Y004981D03*
X007296Y004978D03*
X007296Y004971D03*
X007299Y004813D03*
X007299Y004806D03*
X007299Y004804D03*
X007299Y004801D03*
X007299Y004798D03*
X004401Y005104D03*
X004401Y005106D03*
X004398Y005098D03*
X004398Y005091D03*
X004023Y004801D03*
X004029Y004789D03*
X004044Y004684D03*
X004044Y004681D03*
X004044Y004678D03*
X004041Y004666D03*
X004041Y004663D03*
X004041Y004656D03*
X004038Y004651D03*
X004038Y004648D03*
X003549Y005158D03*
X003114Y005038D03*
X003114Y005031D03*
X003114Y005029D03*
X003114Y004746D03*
X003114Y004744D03*
X003114Y004741D03*
X003114Y004738D03*
X002493Y004696D03*
X002484Y004716D03*
X002481Y004723D03*
X002481Y004726D03*
X002478Y004731D03*
X002469Y004761D03*
X002466Y004774D03*
X002463Y005011D03*
X002463Y005014D03*
X002463Y005016D03*
X002466Y005026D03*
X002466Y005029D03*
D1096*
X003538Y004648D03*
X003778Y005329D03*
X008578Y004894D03*
D1097*
X007752Y004651D03*
X007290Y005236D03*
X006867Y005121D03*
X004620Y005278D03*
D1098*
X008653Y004819D03*
X008683Y004654D03*
D1099*
X006679Y004654D03*
X006679Y004656D03*
X005629Y004881D03*
D1100*
X005574Y004654D03*
X005538Y005206D03*
X007287Y005296D03*
X009162Y004896D03*
D1101*
X008656Y004810D03*
X008680Y004660D03*
D1102*
X007752Y004660D03*
D1103*
X007299Y004660D03*
X003072Y005170D03*
X002751Y005320D03*
D1104*
X005626Y004930D03*
X006679Y004660D03*
X008185Y005320D03*
X007348Y007060D03*
D1105*
X006085Y004660D03*
D1106*
X005575Y004660D03*
X009160Y005185D03*
D1107*
X007296Y004975D03*
X007299Y004810D03*
X004398Y005095D03*
X004026Y004795D03*
X004041Y004660D03*
X003114Y005035D03*
X002454Y004960D03*
X002478Y004735D03*
X002484Y004720D03*
D1108*
X005631Y004891D03*
X006681Y004663D03*
D1109*
X005577Y004663D03*
X003720Y004921D03*
D1110*
X005634Y004911D03*
X006681Y004666D03*
D1111*
X006679Y004669D03*
X005635Y004903D03*
X005635Y004906D03*
X005635Y004909D03*
X008185Y005323D03*
D1112*
X009144Y005293D03*
X005577Y004669D03*
X003723Y004918D03*
D1113*
X003544Y005146D03*
X003544Y005149D03*
X003547Y005151D03*
X003115Y005026D03*
X003115Y005023D03*
X003115Y005016D03*
X002950Y005218D03*
X002461Y005008D03*
X002455Y004971D03*
X002455Y004969D03*
X002455Y004966D03*
X002455Y004963D03*
X002452Y004956D03*
X002452Y004954D03*
X002452Y004951D03*
X002452Y004948D03*
X002452Y004941D03*
X002452Y004939D03*
X002452Y004936D03*
X002452Y004933D03*
X002452Y004926D03*
X002452Y004924D03*
X002452Y004921D03*
X002452Y004918D03*
X002452Y004911D03*
X002452Y004891D03*
X002452Y004888D03*
X002452Y004881D03*
X002452Y004879D03*
X002452Y004876D03*
X002452Y004873D03*
X002452Y004866D03*
X002452Y004864D03*
X002452Y004861D03*
X002452Y004858D03*
X002452Y004851D03*
X002452Y004849D03*
X002455Y004836D03*
X002455Y004834D03*
X002455Y004831D03*
X002455Y004828D03*
X002455Y004821D03*
X002461Y004798D03*
X002461Y004791D03*
X002461Y004789D03*
X002464Y004786D03*
X002464Y004783D03*
X002464Y004776D03*
X002467Y004771D03*
X002467Y004768D03*
X002470Y004759D03*
X002470Y004756D03*
X003115Y004756D03*
X003115Y004759D03*
X003115Y004753D03*
X004024Y004798D03*
X004027Y004791D03*
X004030Y004786D03*
X004030Y004783D03*
X004036Y004768D03*
X004039Y004756D03*
X004039Y004753D03*
X004042Y004741D03*
X004042Y004738D03*
X004045Y004714D03*
X004045Y004711D03*
X004045Y004708D03*
X004045Y004701D03*
X004045Y004699D03*
X004045Y004696D03*
X004045Y004693D03*
X004045Y004686D03*
X004042Y004671D03*
X004042Y004669D03*
X004387Y005041D03*
X004387Y005044D03*
X004387Y005046D03*
X004390Y005059D03*
X004390Y005061D03*
X004390Y005068D03*
X004966Y005046D03*
X004966Y005044D03*
X004966Y005041D03*
X004966Y005038D03*
X006076Y005104D03*
X006085Y004701D03*
X006085Y004699D03*
X007297Y004816D03*
X007297Y004819D03*
X007297Y004821D03*
X007297Y004828D03*
X007297Y004831D03*
X007294Y004969D03*
X008692Y005226D03*
D1114*
X007296Y005016D03*
X003531Y004671D03*
X003531Y004669D03*
X002496Y005106D03*
D1115*
X006679Y004671D03*
D1116*
X005578Y004671D03*
X005542Y005188D03*
X009157Y004906D03*
D1117*
X006681Y004675D03*
D1118*
X007294Y005050D03*
X006085Y004675D03*
X004441Y005185D03*
D1119*
X005580Y004675D03*
D1120*
X007299Y004735D03*
X003594Y005215D03*
X003099Y004675D03*
D1121*
X003787Y005308D03*
X008662Y004791D03*
X008662Y004789D03*
X008677Y004678D03*
D1122*
X006679Y004678D03*
D1123*
X005580Y004678D03*
X005544Y005181D03*
D1124*
X006679Y004684D03*
X006679Y004681D03*
X007348Y007056D03*
D1125*
X005547Y005173D03*
X005580Y004681D03*
D1126*
X007297Y004684D03*
X007294Y005104D03*
X007744Y005203D03*
X003082Y005149D03*
D1127*
X005581Y004686D03*
X005581Y004684D03*
D1128*
X007299Y004690D03*
X003933Y004885D03*
D1129*
X006679Y004690D03*
D1130*
X007285Y005305D03*
X005581Y004690D03*
D1131*
X003103Y004690D03*
D1132*
X003111Y004720D03*
X003111Y005050D03*
X002496Y004690D03*
D1133*
X006679Y004696D03*
D1134*
X006678Y004699D03*
D1135*
X005584Y004699D03*
D1136*
X003795Y005286D03*
X007752Y004701D03*
X009192Y004768D03*
X009192Y004771D03*
D1137*
X006679Y004701D03*
D1138*
X005586Y004701D03*
X009126Y005308D03*
D1139*
X008674Y004705D03*
X006349Y004930D03*
D1140*
X006678Y004705D03*
D1141*
X005584Y004705D03*
D1142*
X004393Y005080D03*
X004033Y004780D03*
X003523Y004705D03*
X002458Y004810D03*
D1143*
X006678Y004711D03*
X006678Y004708D03*
X007347Y007054D03*
D1144*
X007941Y005299D03*
X006084Y004708D03*
X002961Y005211D03*
D1145*
X005556Y005143D03*
X005586Y004708D03*
D1146*
X005587Y004711D03*
X005587Y004714D03*
X005557Y005136D03*
D1147*
X003795Y005284D03*
X007752Y004714D03*
X009192Y004789D03*
X009192Y004791D03*
D1148*
X008185Y005329D03*
X006676Y004714D03*
D1149*
X005589Y004716D03*
X005559Y005134D03*
X009138Y004933D03*
D1150*
X009190Y004720D03*
X006871Y005065D03*
X004621Y005260D03*
D1151*
X003789Y005305D03*
X008673Y004720D03*
D1152*
X009190Y004795D03*
X007750Y004720D03*
D1153*
X006676Y004720D03*
D1154*
X005587Y004720D03*
D1155*
X006675Y004726D03*
X006675Y004729D03*
D1156*
X005590Y004729D03*
X005590Y004726D03*
D1157*
X006675Y004731D03*
D1158*
X006084Y004731D03*
X007953Y005281D03*
X002994Y005181D03*
D1159*
X005563Y005116D03*
X005590Y004731D03*
X007285Y005314D03*
D1160*
X008671Y004735D03*
D1161*
X007750Y004735D03*
D1162*
X006673Y004735D03*
D1163*
X006085Y004735D03*
D1164*
X007297Y004795D03*
X007294Y004990D03*
X004402Y005110D03*
X003964Y005230D03*
X003112Y004735D03*
X002464Y005020D03*
X002467Y005035D03*
D1165*
X006675Y004738D03*
D1166*
X005592Y004738D03*
X005565Y005113D03*
X009132Y004941D03*
D1167*
X006673Y004741D03*
X007348Y007051D03*
D1168*
X005566Y005106D03*
X005593Y004741D03*
D1169*
X005595Y004744D03*
X005568Y005104D03*
D1170*
X006084Y004746D03*
D1171*
X005593Y004746D03*
X007348Y007069D03*
D1172*
X008670Y004750D03*
D1173*
X006672Y004750D03*
D1174*
X006085Y004750D03*
D1175*
X005595Y004750D03*
D1176*
X007935Y005305D03*
X002460Y005005D03*
X002457Y004990D03*
X002472Y004750D03*
D1177*
X006084Y004753D03*
X006075Y005053D03*
X006864Y005233D03*
X007965Y005263D03*
D1178*
X008668Y004761D03*
X008668Y004759D03*
X008668Y004756D03*
X008713Y005176D03*
D1179*
X006669Y004759D03*
D1180*
X006085Y004759D03*
X006076Y005046D03*
D1181*
X005574Y005086D03*
X005598Y004759D03*
X009123Y004951D03*
X009099Y005323D03*
D1182*
X006669Y004761D03*
D1183*
X005599Y004761D03*
X005575Y005083D03*
D1184*
X009192Y004765D03*
D1185*
X008667Y004765D03*
X006867Y005140D03*
D1186*
X007749Y004765D03*
X009183Y004840D03*
X003798Y005275D03*
D1187*
X003577Y005200D03*
X003994Y004840D03*
X004957Y005095D03*
X007294Y005020D03*
X007297Y004765D03*
D1188*
X006667Y004765D03*
D1189*
X006085Y004765D03*
D1190*
X005598Y004765D03*
D1191*
X006667Y004768D03*
D1192*
X005599Y004768D03*
D1193*
X006667Y004771D03*
X006667Y004774D03*
D1194*
X006084Y004774D03*
X006084Y004771D03*
D1195*
X007747Y004774D03*
X007747Y004776D03*
X007747Y004783D03*
X002752Y005251D03*
D1196*
X006666Y004776D03*
D1197*
X009192Y004780D03*
D1198*
X007747Y004780D03*
D1199*
X006664Y004780D03*
D1200*
X006085Y004780D03*
D1201*
X005602Y004780D03*
X009112Y004960D03*
D1202*
X005602Y004783D03*
X005584Y005053D03*
X005584Y005056D03*
D1203*
X003523Y005056D03*
X003523Y005059D03*
X003523Y005061D03*
X003523Y005053D03*
X003523Y005046D03*
X003523Y005044D03*
X003523Y005041D03*
X003523Y005038D03*
X003118Y004993D03*
X003118Y004986D03*
X003118Y004984D03*
X003118Y004981D03*
X003118Y004978D03*
X003118Y004971D03*
X003118Y004969D03*
X003118Y004966D03*
X003118Y004963D03*
X003118Y004956D03*
X003118Y004954D03*
X003118Y004951D03*
X003118Y004948D03*
X003118Y004941D03*
X003118Y004939D03*
X003118Y004936D03*
X003118Y004933D03*
X003118Y004926D03*
X003118Y004924D03*
X003118Y004921D03*
X003118Y004918D03*
X003118Y004911D03*
X003118Y004909D03*
X003118Y004906D03*
X003118Y004903D03*
X003118Y004896D03*
X003118Y004894D03*
X003118Y004891D03*
X003118Y004888D03*
X003118Y004881D03*
X003118Y004879D03*
X003118Y004876D03*
X003118Y004873D03*
X003118Y004866D03*
X003118Y004864D03*
X003118Y004861D03*
X003118Y004858D03*
X003118Y004851D03*
X003118Y004849D03*
X003118Y004846D03*
X003118Y004843D03*
X003118Y004836D03*
X003118Y004834D03*
X003118Y004831D03*
X003118Y004828D03*
X003118Y004821D03*
X003118Y004819D03*
X003118Y004816D03*
X003118Y004813D03*
X003118Y004806D03*
X003118Y004804D03*
X003118Y004801D03*
X003118Y004798D03*
X003118Y004791D03*
X003118Y004789D03*
X003118Y004786D03*
X003118Y004783D03*
X003118Y005181D03*
X003118Y005188D03*
X003118Y005191D03*
X003118Y005194D03*
X003118Y005196D03*
X003118Y005203D03*
X003118Y005206D03*
X003118Y005209D03*
X003118Y005211D03*
X003118Y005218D03*
X003118Y005221D03*
X003118Y005224D03*
X003118Y005226D03*
X003118Y005233D03*
X003118Y005236D03*
X003118Y005239D03*
X003118Y005241D03*
X003118Y005248D03*
X003118Y005251D03*
X003118Y005254D03*
X003118Y005256D03*
X003118Y005263D03*
X003118Y005266D03*
X003118Y005269D03*
X003118Y005271D03*
X003118Y005278D03*
X003118Y005281D03*
X003118Y005284D03*
X003118Y005286D03*
X003118Y005293D03*
X003118Y005296D03*
X003118Y005299D03*
X003118Y005301D03*
X003118Y005308D03*
X003118Y005311D03*
X003118Y005314D03*
X003118Y005316D03*
X003118Y005323D03*
X003118Y005326D03*
X003118Y005329D03*
X003118Y005331D03*
X003118Y005338D03*
X003118Y005341D03*
X003118Y005344D03*
X003118Y005346D03*
X003118Y005353D03*
X003118Y005356D03*
X003118Y005359D03*
X003118Y005361D03*
X003118Y005368D03*
X003118Y005371D03*
X003118Y005374D03*
X003118Y005376D03*
X003118Y005383D03*
X003118Y005386D03*
X003118Y005389D03*
X003118Y005391D03*
X003118Y005398D03*
X003118Y005401D03*
X003118Y005404D03*
X003118Y005406D03*
X003118Y005413D03*
X003118Y005416D03*
X003118Y005419D03*
X003118Y005421D03*
X003118Y005428D03*
X003118Y005431D03*
X003118Y005434D03*
X003118Y005436D03*
X003118Y005443D03*
X003118Y005446D03*
X003118Y005449D03*
X003118Y005451D03*
X003118Y005458D03*
X003118Y005461D03*
X003118Y005464D03*
X003118Y005466D03*
X003118Y005473D03*
X003118Y005476D03*
X003118Y005479D03*
X003118Y005481D03*
X003118Y005488D03*
X003118Y005491D03*
X003118Y005494D03*
X003118Y005496D03*
X003118Y005503D03*
X003118Y005506D03*
X003118Y005509D03*
X003118Y005511D03*
X003118Y005518D03*
X003118Y005521D03*
X003118Y005524D03*
X003118Y005526D03*
X003118Y005533D03*
X003118Y005536D03*
X003118Y005539D03*
X003118Y005541D03*
X003118Y005548D03*
X003118Y005551D03*
X003118Y005554D03*
X003118Y005556D03*
X003118Y005563D03*
X003118Y005566D03*
X003118Y005569D03*
X003118Y005571D03*
X003118Y005578D03*
X003118Y005581D03*
X003118Y005584D03*
X003118Y005586D03*
X003118Y005593D03*
X003118Y005596D03*
X003118Y005599D03*
X003118Y005601D03*
X003118Y005608D03*
X003118Y005611D03*
X003118Y005614D03*
X003118Y005616D03*
X003118Y005623D03*
X003118Y005626D03*
X003118Y005629D03*
X003118Y005631D03*
X003118Y005638D03*
X003118Y005641D03*
X003118Y005644D03*
X003118Y005646D03*
X003118Y005653D03*
X003118Y005656D03*
X003118Y005659D03*
X003118Y005661D03*
X003118Y005668D03*
X003118Y005671D03*
X003118Y005674D03*
X003118Y005676D03*
X003118Y005683D03*
X003118Y005686D03*
X003118Y005689D03*
X003118Y005691D03*
X003118Y005698D03*
X003118Y005701D03*
X003118Y005704D03*
X003118Y005706D03*
D1204*
X007746Y005008D03*
X007746Y005001D03*
X007746Y004999D03*
X007746Y004996D03*
X007746Y004993D03*
X007746Y004789D03*
X007746Y004786D03*
D1205*
X006663Y004789D03*
X006663Y004791D03*
D1206*
X005605Y004791D03*
X005605Y004789D03*
X005587Y005044D03*
X005587Y005046D03*
X009109Y004963D03*
D1207*
X008661Y004795D03*
D1208*
X007747Y004795D03*
X007744Y004990D03*
X005521Y005260D03*
D1209*
X006661Y004795D03*
X008998Y005005D03*
D1210*
X006085Y004795D03*
D1211*
X005607Y004795D03*
D1212*
X003523Y005035D03*
X003523Y005050D03*
X003118Y004990D03*
X003118Y004975D03*
X003118Y004960D03*
X003118Y004945D03*
X003118Y004930D03*
X003118Y004915D03*
X003118Y004900D03*
X003118Y004885D03*
X003118Y004870D03*
X003118Y004855D03*
X003118Y004840D03*
X003118Y004825D03*
X003118Y004810D03*
X003118Y004795D03*
X003118Y005185D03*
X003118Y005200D03*
X003118Y005215D03*
X003118Y005230D03*
X003118Y005245D03*
X003118Y005260D03*
X003118Y005275D03*
X003118Y005290D03*
X003118Y005305D03*
X003118Y005320D03*
X003118Y005335D03*
X003118Y005350D03*
X003118Y005365D03*
X003118Y005380D03*
X003118Y005395D03*
X003118Y005410D03*
X003118Y005425D03*
X003118Y005440D03*
X003118Y005455D03*
X003118Y005470D03*
X003118Y005485D03*
X003118Y005500D03*
X003118Y005515D03*
X003118Y005530D03*
X003118Y005545D03*
X003118Y005560D03*
X003118Y005575D03*
X003118Y005590D03*
X003118Y005605D03*
X003118Y005620D03*
X003118Y005635D03*
X003118Y005650D03*
X003118Y005665D03*
X003118Y005680D03*
X003118Y005695D03*
X003118Y005710D03*
D1213*
X007746Y005151D03*
X008661Y004798D03*
D1214*
X006660Y004798D03*
D1215*
X006084Y004798D03*
X007989Y005206D03*
X007989Y005209D03*
X004011Y005191D03*
D1216*
X007746Y004981D03*
X007746Y004978D03*
X007746Y004819D03*
X007746Y004816D03*
X007746Y004813D03*
X007746Y004806D03*
X007746Y004804D03*
X007746Y004801D03*
D1217*
X006660Y004804D03*
D1218*
X005608Y004804D03*
D1219*
X006658Y004806D03*
D1220*
X009189Y004810D03*
D1221*
X006657Y004810D03*
D1222*
X005610Y004810D03*
D1223*
X006657Y004813D03*
D1224*
X006085Y004813D03*
D1225*
X005611Y004813D03*
X005593Y005023D03*
X005593Y005026D03*
X009100Y004969D03*
D1226*
X006655Y004816D03*
D1227*
X006655Y004819D03*
X006655Y004821D03*
X008980Y005173D03*
D1228*
X009096Y004971D03*
X007284Y005326D03*
X005598Y005011D03*
X005613Y004821D03*
D1229*
X009186Y004825D03*
D1230*
X007744Y004825D03*
X007744Y004840D03*
X007744Y004960D03*
X002752Y005245D03*
D1231*
X006654Y004825D03*
X008979Y005170D03*
D1232*
X008979Y005166D03*
X006654Y004828D03*
D1233*
X005614Y004828D03*
X005599Y005008D03*
D1234*
X008647Y004831D03*
D1235*
X008646Y004834D03*
X007746Y005166D03*
D1236*
X006651Y004834D03*
X008976Y005158D03*
X008976Y005161D03*
D1237*
X008974Y005155D03*
X006649Y004840D03*
D1238*
X005617Y004840D03*
D1239*
X005518Y005269D03*
X005518Y005271D03*
X007288Y005281D03*
X009181Y004846D03*
X009181Y004843D03*
X003691Y004951D03*
D1240*
X006648Y004843D03*
X008973Y005149D03*
D1241*
X008638Y004846D03*
X004618Y005301D03*
D1242*
X006646Y004849D03*
X006646Y004846D03*
D1243*
X005620Y004849D03*
X005620Y004851D03*
X005611Y004978D03*
X009085Y004978D03*
D1244*
X006645Y004851D03*
D1245*
X007743Y004855D03*
X007743Y004870D03*
X007743Y004885D03*
X007743Y004900D03*
X007743Y004915D03*
X007743Y004930D03*
X007743Y004945D03*
X003699Y004945D03*
D1246*
X006643Y004855D03*
D1247*
X005622Y004855D03*
D1248*
X006643Y004858D03*
D1249*
X005623Y004858D03*
D1250*
X009177Y004861D03*
D1251*
X008626Y004861D03*
X007291Y005164D03*
X007291Y005166D03*
X006550Y005293D03*
X006406Y005076D03*
X006076Y005203D03*
X004618Y005308D03*
D1252*
X006643Y004861D03*
X008968Y005116D03*
X008968Y005119D03*
X008968Y005121D03*
D1253*
X005622Y004861D03*
D1254*
X003883Y004903D03*
X007348Y007086D03*
X008248Y005134D03*
X008248Y005131D03*
X008248Y005128D03*
X008248Y005121D03*
X008623Y004864D03*
D1255*
X008967Y005101D03*
X008967Y005104D03*
X008967Y005106D03*
X008967Y005113D03*
X006642Y004866D03*
X006642Y004864D03*
D1256*
X005623Y004864D03*
D1257*
X006640Y004870D03*
D1258*
X005625Y004870D03*
D1259*
X006639Y004873D03*
X006639Y004876D03*
X008967Y005086D03*
X008967Y005089D03*
X008967Y005091D03*
X008967Y005098D03*
D1260*
X003943Y004879D03*
X003088Y005134D03*
X003088Y005136D03*
D1261*
X009165Y005215D03*
X009168Y004885D03*
D1262*
X005631Y004885D03*
D1263*
X005535Y005211D03*
X009162Y005203D03*
X009162Y005196D03*
X009165Y004891D03*
D1264*
X009163Y004894D03*
D1265*
X009159Y004900D03*
X005538Y005200D03*
D1266*
X006340Y004900D03*
X006868Y005125D03*
D1267*
X005634Y004915D03*
X005634Y004900D03*
D1268*
X006075Y005185D03*
X006438Y005140D03*
X003894Y004900D03*
D1269*
X005539Y005194D03*
X005539Y005196D03*
X009157Y004903D03*
D1270*
X008262Y005191D03*
X008262Y005194D03*
X008262Y005196D03*
X003870Y004906D03*
D1271*
X009151Y004915D03*
D1272*
X005542Y005185D03*
X003724Y004915D03*
D1273*
X006076Y005271D03*
X006346Y004921D03*
D1274*
X005551Y005158D03*
X009145Y004924D03*
D1275*
X003718Y004924D03*
D1276*
X005628Y004926D03*
D1277*
X009141Y004930D03*
D1278*
X005626Y004933D03*
D1279*
X005625Y004936D03*
X007284Y005331D03*
D1280*
X005529Y005233D03*
X003792Y005254D03*
X003789Y005251D03*
X003708Y004936D03*
X009159Y005278D03*
X009165Y005226D03*
X009165Y005224D03*
D1281*
X009133Y004939D03*
D1282*
X005623Y004941D03*
X005623Y004939D03*
D1283*
X003705Y004939D03*
D1284*
X009129Y004945D03*
D1285*
X005622Y004945D03*
D1286*
X005577Y005076D03*
X009120Y004954D03*
D1287*
X008709Y005185D03*
X006867Y005155D03*
X006360Y004960D03*
D1288*
X005617Y004960D03*
D1289*
X003679Y004960D03*
X002752Y005260D03*
X007747Y005050D03*
D1290*
X009081Y004981D03*
X005616Y004963D03*
D1291*
X005614Y004966D03*
X005614Y004969D03*
D1292*
X003666Y004969D03*
X007746Y005086D03*
D1293*
X009091Y004975D03*
D1294*
X005611Y004975D03*
D1295*
X009075Y004984D03*
D1296*
X005608Y004984D03*
D1297*
X005607Y004986D03*
X007347Y007063D03*
D1298*
X009061Y004990D03*
D1299*
X006369Y004990D03*
D1300*
X005607Y004990D03*
D1301*
X003622Y004990D03*
D1302*
X009054Y004993D03*
D1303*
X009043Y004996D03*
D1304*
X009036Y004999D03*
D1305*
X009021Y005001D03*
D1306*
X007746Y005005D03*
D1307*
X006874Y005005D03*
D1308*
X006376Y005005D03*
X006076Y005230D03*
X008272Y005230D03*
D1309*
X006076Y005005D03*
D1310*
X008964Y005008D03*
X008964Y005011D03*
X008964Y005014D03*
X008964Y005016D03*
X008964Y005023D03*
X008964Y005026D03*
X008964Y005029D03*
X008964Y005031D03*
X008964Y005038D03*
X008964Y005041D03*
X008964Y005044D03*
X008964Y005046D03*
X008964Y005053D03*
X008964Y005056D03*
X008964Y005059D03*
X008964Y005061D03*
X008964Y005068D03*
D1311*
X006075Y005008D03*
D1312*
X006379Y005014D03*
X006379Y005016D03*
X008269Y005221D03*
X002752Y005308D03*
D1313*
X008964Y005065D03*
X008964Y005050D03*
X008964Y005035D03*
X008964Y005020D03*
D1314*
X008268Y005215D03*
X006381Y005020D03*
D1315*
X006075Y005020D03*
D1316*
X005595Y005020D03*
D1317*
X006075Y005023D03*
D1318*
X006076Y005031D03*
X007975Y005239D03*
X004000Y005203D03*
D1319*
X007747Y005035D03*
D1320*
X005592Y005035D03*
D1321*
X005590Y005038D03*
X007285Y005323D03*
D1322*
X007744Y005191D03*
X008242Y005068D03*
X008242Y005061D03*
X008242Y005059D03*
X008242Y005056D03*
X008242Y005053D03*
X008242Y005046D03*
X008242Y005044D03*
X006427Y005121D03*
D1323*
X005511Y005296D03*
X007746Y005046D03*
D1324*
X007288Y005260D03*
X006871Y005050D03*
X003793Y005290D03*
D1325*
X006075Y005050D03*
D1326*
X005586Y005050D03*
D1327*
X006075Y005065D03*
D1328*
X005581Y005065D03*
X007285Y005320D03*
D1329*
X005578Y005074D03*
X005578Y005071D03*
D1330*
X006075Y005074D03*
X004842Y005191D03*
X004617Y005331D03*
D1331*
X008965Y005080D03*
D1332*
X008244Y005080D03*
X006531Y005275D03*
X006429Y005125D03*
X002619Y005230D03*
D1333*
X007747Y005080D03*
D1334*
X007294Y005080D03*
D1335*
X006076Y005080D03*
X004831Y005200D03*
D1336*
X008967Y005095D03*
D1337*
X008245Y005095D03*
X008245Y005110D03*
X007291Y005155D03*
X006421Y005110D03*
D1338*
X007747Y005095D03*
X002752Y005275D03*
D1339*
X006870Y005095D03*
D1340*
X006415Y005095D03*
D1341*
X006076Y005095D03*
D1342*
X005571Y005095D03*
D1343*
X006075Y005098D03*
X004617Y005329D03*
D1344*
X005569Y005101D03*
X005569Y005098D03*
D1345*
X006418Y005104D03*
D1346*
X008967Y005110D03*
D1347*
X006868Y005110D03*
D1348*
X007746Y005215D03*
X002496Y005110D03*
D1349*
X007746Y005113D03*
D1350*
X006868Y005113D03*
D1351*
X006868Y005116D03*
X006868Y005119D03*
D1352*
X005562Y005119D03*
X005562Y005121D03*
D1353*
X008970Y005125D03*
D1354*
X008248Y005125D03*
D1355*
X007747Y005125D03*
X006076Y005290D03*
X004621Y005275D03*
D1356*
X006076Y005170D03*
X007291Y005125D03*
D1357*
X005560Y005125D03*
D1358*
X006075Y005140D03*
X004944Y005140D03*
X003093Y005125D03*
D1359*
X008970Y005128D03*
X008970Y005131D03*
D1360*
X006075Y005143D03*
X006075Y005146D03*
X004467Y005209D03*
X003612Y005226D03*
X003090Y005131D03*
X002562Y005196D03*
D1361*
X008971Y005136D03*
X008971Y005134D03*
D1362*
X007746Y005134D03*
D1363*
X008250Y005136D03*
X008250Y005143D03*
D1364*
X008973Y005140D03*
D1365*
X008250Y005140D03*
X006075Y005200D03*
D1366*
X007746Y005140D03*
D1367*
X005557Y005140D03*
D1368*
X008973Y005143D03*
D1369*
X005553Y005151D03*
D1370*
X008254Y005155D03*
D1371*
X007746Y005155D03*
D1372*
X005551Y005155D03*
D1373*
X004936Y005155D03*
X004474Y005215D03*
X003616Y005230D03*
D1374*
X008256Y005166D03*
X008256Y005164D03*
D1375*
X007348Y007071D03*
X005548Y005164D03*
D1376*
X008256Y005170D03*
D1377*
X007746Y005170D03*
D1378*
X005548Y005170D03*
D1379*
X006456Y005173D03*
X006501Y005239D03*
X007746Y005194D03*
D1380*
X009159Y005176D03*
D1381*
X008713Y005179D03*
D1382*
X008259Y005185D03*
X006864Y005185D03*
D1383*
X006546Y005290D03*
X007746Y005185D03*
D1384*
X007291Y005185D03*
D1385*
X008689Y005230D03*
X002992Y005185D03*
D1386*
X005541Y005191D03*
D1387*
X007993Y005194D03*
D1388*
X009162Y005200D03*
X005535Y005215D03*
D1389*
X006076Y005215D03*
X008704Y005200D03*
D1390*
X008263Y005200D03*
D1391*
X007992Y005200D03*
D1392*
X008280Y005245D03*
X007290Y005200D03*
D1393*
X006472Y005200D03*
D1394*
X004003Y005200D03*
D1395*
X002976Y005200D03*
D1396*
X002566Y005200D03*
D1397*
X005532Y005221D03*
X007287Y005293D03*
X009165Y005218D03*
X009165Y005211D03*
D1398*
X008698Y005215D03*
D1399*
X007986Y005215D03*
D1400*
X003988Y005215D03*
D1401*
X008271Y005224D03*
X008271Y005226D03*
D1402*
X007746Y005224D03*
D1403*
X007981Y005226D03*
D1404*
X009166Y005230D03*
D1405*
X007980Y005230D03*
D1406*
X005529Y005230D03*
D1407*
X004513Y005230D03*
D1408*
X003793Y005256D03*
X009166Y005236D03*
X009166Y005233D03*
D1409*
X007974Y005245D03*
X003777Y005335D03*
D1410*
X003786Y005245D03*
D1411*
X007288Y005251D03*
X007348Y007081D03*
D1412*
X007288Y005254D03*
D1413*
X009169Y005260D03*
D1414*
X008287Y005260D03*
D1415*
X007966Y005260D03*
D1416*
X006076Y005260D03*
D1417*
X007287Y005290D03*
X009162Y005275D03*
X003795Y005260D03*
D1418*
X007288Y005266D03*
D1419*
X008295Y005275D03*
D1420*
X005517Y005275D03*
D1421*
X007956Y005278D03*
D1422*
X009148Y005290D03*
D1423*
X007947Y005290D03*
D1424*
X002752Y005290D03*
D1425*
X009129Y005305D03*
D1426*
X008317Y005305D03*
D1427*
X006564Y005305D03*
D1428*
X004618Y005305D03*
D1429*
X002752Y005305D03*
D1430*
X009120Y005311D03*
D1431*
X009103Y005320D03*
D1432*
X006013Y005320D03*
D1433*
X006016Y005323D03*
D1434*
X008185Y005326D03*
D1435*
X007347Y006958D03*
X006024Y005326D03*
D1436*
X006030Y005329D03*
D1437*
X008185Y005331D03*
D1438*
X009066Y005335D03*
D1439*
X008185Y005335D03*
D1440*
X007282Y005335D03*
D1441*
X006045Y005335D03*
D1442*
X004617Y005335D03*
D1443*
X002748Y005335D03*
D1444*
X007347Y005338D03*
X007347Y005341D03*
X007347Y005344D03*
D1445*
X007348Y005346D03*
X007348Y005353D03*
D1446*
X007348Y005350D03*
D1447*
X007347Y005356D03*
X007347Y005359D03*
X007347Y005361D03*
D1448*
X007348Y005365D03*
D1449*
X007348Y005368D03*
X007348Y005371D03*
D1450*
X007347Y005374D03*
X007347Y005376D03*
D1451*
X007348Y005380D03*
D1452*
X007348Y005383D03*
X007348Y005386D03*
D1453*
X007347Y005389D03*
X007347Y005391D03*
D1454*
X007347Y005395D03*
D1455*
X007348Y005398D03*
X007348Y005401D03*
X007348Y005404D03*
D1456*
X007347Y005406D03*
D1457*
X007347Y005410D03*
D1458*
X007348Y005413D03*
X007348Y005416D03*
D1459*
X007347Y005419D03*
X007347Y005421D03*
D1460*
X007347Y005425D03*
D1461*
X007348Y005428D03*
X007348Y005431D03*
D1462*
X007347Y005434D03*
X007347Y005436D03*
D1463*
X007347Y005440D03*
D1464*
X007348Y005443D03*
X007348Y005446D03*
X007348Y005449D03*
D1465*
X007347Y005451D03*
D1466*
X007347Y005455D03*
D1467*
X007348Y005458D03*
X007348Y005461D03*
D1468*
X007347Y005464D03*
X007347Y005466D03*
D1469*
X007348Y005470D03*
D1470*
X007348Y005473D03*
D1471*
X007347Y005476D03*
X007347Y005479D03*
D1472*
X007348Y005481D03*
X007348Y005488D03*
D1473*
X007348Y005485D03*
D1474*
X007347Y005491D03*
X007347Y005494D03*
D1475*
X007348Y005496D03*
D1476*
X007348Y005500D03*
D1477*
X007347Y005503D03*
X007347Y005506D03*
D1478*
X007348Y005509D03*
X007348Y005511D03*
D1479*
X007347Y005515D03*
D1480*
X007347Y005518D03*
D1481*
X007348Y005521D03*
X007348Y005524D03*
D1482*
X007347Y005526D03*
D1483*
X007347Y005530D03*
D1484*
X007348Y005533D03*
X007348Y005536D03*
D1485*
X007347Y005539D03*
D1486*
X007348Y005541D03*
D1487*
X007348Y005545D03*
D1488*
X007347Y005548D03*
X007347Y005551D03*
D1489*
X007348Y005554D03*
X007348Y005556D03*
D1490*
X007347Y005560D03*
D1491*
X007347Y005563D03*
D1492*
X007348Y005566D03*
X007348Y005569D03*
D1493*
X007347Y005571D03*
D1494*
X007347Y005575D03*
D1495*
X007348Y005578D03*
D1496*
X007347Y005581D03*
X007347Y005584D03*
D1497*
X007348Y005586D03*
D1498*
X007348Y005590D03*
D1499*
X007347Y005593D03*
X007347Y005596D03*
D1500*
X007348Y005599D03*
D1501*
X007347Y005601D03*
D1502*
X007347Y005605D03*
D1503*
X007348Y005608D03*
D1504*
X007347Y005611D03*
X007347Y005614D03*
D1505*
X007348Y005616D03*
D1506*
X007348Y005620D03*
D1507*
X007347Y005623D03*
X007347Y005626D03*
D1508*
X007348Y005629D03*
D1509*
X007347Y005631D03*
D1510*
X007347Y005635D03*
D1511*
X007348Y005638D03*
D1512*
X007347Y005641D03*
X007347Y005644D03*
D1513*
X007348Y005646D03*
D1514*
X007347Y005650D03*
D1515*
X007347Y005653D03*
D1516*
X007348Y005656D03*
X007348Y005659D03*
D1517*
X007347Y005661D03*
D1518*
X007348Y005665D03*
D1519*
X007347Y005668D03*
X007347Y005671D03*
D1520*
X007348Y005674D03*
D1521*
X007347Y005676D03*
D1522*
X007347Y005680D03*
D1523*
X007348Y005683D03*
D1524*
X007347Y005686D03*
X007347Y005689D03*
D1525*
X007348Y005691D03*
D1526*
X007347Y005695D03*
D1527*
X007348Y005698D03*
X007348Y005701D03*
D1528*
X007347Y005704D03*
X007347Y005706D03*
D1529*
X007348Y005710D03*
D1530*
X007347Y005713D03*
D1531*
X007348Y005716D03*
D1532*
X007347Y005719D03*
X007347Y005721D03*
D1533*
X007348Y005725D03*
D1534*
X007347Y005728D03*
X007347Y005731D03*
D1535*
X007348Y005734D03*
D1536*
X007347Y005736D03*
D1537*
X007348Y005740D03*
D1538*
X007348Y005743D03*
D1539*
X007347Y005746D03*
D1540*
X007348Y005749D03*
X007348Y005751D03*
D1541*
X007347Y005755D03*
D1542*
X007348Y005758D03*
D1543*
X007347Y005761D03*
D1544*
X007348Y005764D03*
D1545*
X007347Y005766D03*
D1546*
X007347Y005770D03*
D1547*
X007348Y005773D03*
D1548*
X007347Y005776D03*
D1549*
X007348Y005779D03*
X007348Y005781D03*
D1550*
X007347Y005785D03*
D1551*
X007348Y005788D03*
D1552*
X007347Y005791D03*
D1553*
X007348Y005794D03*
X007348Y005796D03*
D1554*
X007347Y005800D03*
D1555*
X007348Y005803D03*
D1556*
X007347Y005806D03*
D1557*
X007348Y005809D03*
D1558*
X007347Y005811D03*
D1559*
X007348Y005815D03*
D1560*
X007348Y005818D03*
D1561*
X007347Y005821D03*
D1562*
X007348Y005824D03*
D1563*
X007347Y005826D03*
D1564*
X007348Y005830D03*
D1565*
X007347Y005833D03*
D1566*
X007348Y005836D03*
X007348Y005839D03*
D1567*
X007347Y005841D03*
D1568*
X007348Y005845D03*
D1569*
X007347Y005848D03*
D1570*
X007348Y005851D03*
D1571*
X007347Y005854D03*
D1572*
X007348Y005856D03*
D1573*
X007348Y005860D03*
D1574*
X007347Y005863D03*
D1575*
X007348Y005866D03*
D1576*
X007347Y005869D03*
D1577*
X007348Y005871D03*
D1578*
X007347Y005875D03*
D1579*
X007348Y005878D03*
D1580*
X007347Y005881D03*
D1581*
X007348Y005884D03*
D1582*
X007347Y005886D03*
D1583*
X007348Y005890D03*
D1584*
X007347Y005893D03*
D1585*
X007348Y005896D03*
X007348Y005899D03*
D1586*
X007348Y005901D03*
D1587*
X007348Y005905D03*
D1588*
X007347Y005908D03*
D1589*
X007348Y005911D03*
D1590*
X007347Y005914D03*
D1591*
X007348Y005916D03*
D1592*
X007347Y005920D03*
D1593*
X007348Y005923D03*
D1594*
X007347Y005926D03*
D1595*
X007348Y005929D03*
D1596*
X007347Y005931D03*
D1597*
X007348Y005935D03*
D1598*
X007347Y005938D03*
D1599*
X007348Y005941D03*
D1600*
X007347Y005944D03*
D1601*
X007348Y005946D03*
D1602*
X007347Y005950D03*
D1603*
X007348Y005953D03*
D1604*
X007347Y005956D03*
D1605*
X007348Y005959D03*
D1606*
X007347Y005961D03*
D1607*
X007348Y005965D03*
D1608*
X007348Y005968D03*
X007348Y005971D03*
D1609*
X007348Y005974D03*
D1610*
X007347Y005976D03*
D1611*
X007348Y005980D03*
D1612*
X007347Y005983D03*
D1613*
X007348Y005986D03*
D1614*
X007347Y005989D03*
D1615*
X007348Y005991D03*
D1616*
X007347Y005995D03*
D1617*
X007348Y005998D03*
D1618*
X007347Y006001D03*
D1619*
X007348Y006004D03*
D1620*
X007347Y006006D03*
D1621*
X007348Y006010D03*
D1622*
X007348Y006013D03*
D1623*
X007347Y006016D03*
D1624*
X007348Y006019D03*
D1625*
X007347Y006021D03*
D1626*
X007348Y006025D03*
D1627*
X007348Y006031D03*
D1628*
X007348Y006040D03*
D1629*
X007348Y006046D03*
D1630*
X007347Y006049D03*
D1631*
X007348Y006051D03*
D1632*
X007347Y006055D03*
D1633*
X007348Y006058D03*
D1634*
X007348Y006061D03*
D1635*
X007347Y006064D03*
D1636*
X007348Y006066D03*
D1637*
X007347Y006070D03*
D1638*
X007348Y006073D03*
D1639*
X007348Y006076D03*
D1640*
X007348Y006081D03*
D1641*
X007348Y006088D03*
D1642*
X007348Y006091D03*
D1643*
X007348Y006096D03*
D1644*
X007347Y006100D03*
D1645*
X007348Y006103D03*
D1646*
X007348Y006106D03*
D1647*
X007348Y006111D03*
D1648*
X007348Y006115D03*
D1649*
X007348Y006121D03*
D1650*
X007347Y006124D03*
D1651*
X007348Y006130D03*
D1652*
X007348Y006136D03*
D1653*
X007348Y006139D03*
D1654*
X007348Y006145D03*
D1655*
X007348Y006148D03*
D1656*
X007348Y006154D03*
D1657*
X007348Y006156D03*
D1658*
X007347Y006160D03*
D1659*
X007348Y006163D03*
D1660*
X007348Y006166D03*
D1661*
X007347Y006169D03*
D1662*
X007348Y006171D03*
D1663*
X007348Y006175D03*
D1664*
X007347Y006178D03*
D1665*
X007348Y006181D03*
D1666*
X007348Y006184D03*
D1667*
X007347Y006190D03*
D1668*
X007348Y006193D03*
D1669*
X007348Y006201D03*
D1670*
X007348Y006205D03*
D1671*
X007348Y006211D03*
D1672*
X007348Y006214D03*
D1673*
X007347Y006216D03*
D1674*
X007348Y006220D03*
D1675*
X007348Y006223D03*
D1676*
X007347Y006226D03*
D1677*
X007347Y006229D03*
D1678*
X007348Y006231D03*
D1679*
X007348Y006235D03*
D1680*
X007347Y006241D03*
D1681*
X007348Y006244D03*
D1682*
X007348Y006246D03*
D1683*
X007347Y006250D03*
D1684*
X007347Y006253D03*
D1685*
X007348Y006256D03*
D1686*
X007347Y006265D03*
D1687*
X007348Y006268D03*
D1688*
X007348Y006271D03*
D1689*
X007347Y006274D03*
D1690*
X007347Y006276D03*
D1691*
X007348Y006283D03*
D1692*
X007347Y006286D03*
D1693*
X007347Y006289D03*
D1694*
X007348Y006291D03*
D1695*
X007348Y006295D03*
D1696*
X007347Y006301D03*
D1697*
X007347Y006304D03*
D1698*
X007348Y006306D03*
D1699*
X007348Y006310D03*
D1700*
X007348Y006313D03*
D1701*
X007347Y006316D03*
D1702*
X007347Y006319D03*
D1703*
X007347Y006321D03*
D1704*
X007348Y006325D03*
D1705*
X007348Y006328D03*
D1706*
X007347Y006331D03*
D1707*
X007347Y006334D03*
D1708*
X007347Y006336D03*
D1709*
X007348Y006340D03*
D1710*
X007348Y006343D03*
D1711*
X007348Y006346D03*
D1712*
X007347Y006349D03*
D1713*
X007347Y006351D03*
D1714*
X007347Y006355D03*
D1715*
X007348Y006358D03*
D1716*
X007348Y006361D03*
D1717*
X007348Y006364D03*
D1718*
X007348Y006366D03*
D1719*
X007347Y006370D03*
D1720*
X007347Y006373D03*
D1721*
X007347Y006376D03*
D1722*
X007347Y006379D03*
D1723*
X007348Y006381D03*
D1724*
X007348Y006385D03*
D1725*
X007348Y006391D03*
D1726*
X007348Y006394D03*
D1727*
X007347Y006396D03*
D1728*
X007347Y006400D03*
D1729*
X007347Y006403D03*
D1730*
X007347Y006406D03*
D1731*
X007348Y006409D03*
D1732*
X007348Y006411D03*
D1733*
X007348Y006415D03*
D1734*
X007348Y006418D03*
D1735*
X007348Y006424D03*
D1736*
X007347Y006426D03*
D1737*
X007347Y006430D03*
D1738*
X007347Y006433D03*
D1739*
X007347Y006436D03*
D1740*
X007347Y006439D03*
D1741*
X007347Y006441D03*
D1742*
X007347Y006445D03*
D1743*
X007347Y006448D03*
D1744*
X007347Y006451D03*
D1745*
X007348Y006454D03*
D1746*
X007348Y006456D03*
D1747*
X007348Y006460D03*
D1748*
X007348Y006463D03*
D1749*
X007348Y006466D03*
D1750*
X007348Y006471D03*
D1751*
X007348Y006475D03*
D1752*
X007348Y006478D03*
D1753*
X007348Y006481D03*
D1754*
X007348Y006486D03*
D1755*
X007348Y006490D03*
D1756*
X007348Y006493D03*
D1757*
X007348Y006496D03*
D1758*
X007348Y006501D03*
D1759*
X007348Y006508D03*
D1760*
X007347Y006511D03*
D1761*
X007347Y006514D03*
D1762*
X007347Y006516D03*
D1763*
X007347Y006520D03*
D1764*
X007347Y006523D03*
D1765*
X007347Y006526D03*
D1766*
X007347Y006529D03*
D1767*
X007348Y006531D03*
D1768*
X007348Y006535D03*
D1769*
X007348Y006538D03*
D1770*
X007348Y006541D03*
D1771*
X007348Y006544D03*
D1772*
X007348Y006546D03*
D1773*
X007348Y006550D03*
D1774*
X007347Y006553D03*
D1775*
X007347Y006556D03*
D1776*
X007347Y006559D03*
D1777*
X007348Y006565D03*
D1778*
X007348Y006568D03*
D1779*
X007348Y006571D03*
D1780*
X007348Y006574D03*
D1781*
X007347Y006576D03*
D1782*
X007347Y006580D03*
D1783*
X007347Y006583D03*
D1784*
X007348Y006586D03*
D1785*
X007348Y006589D03*
D1786*
X007348Y006591D03*
D1787*
X007347Y006595D03*
D1788*
X007347Y006598D03*
D1789*
X007348Y006604D03*
D1790*
X007348Y006606D03*
D1791*
X007348Y006610D03*
D1792*
X007347Y006616D03*
D1793*
X007348Y006621D03*
D1794*
X007347Y006625D03*
D1795*
X007347Y006628D03*
D1796*
X007347Y006640D03*
D1797*
X007347Y006651D03*
D1798*
X007348Y006664D03*
D1799*
X007348Y006673D03*
D1800*
X007348Y006676D03*
D1801*
X007348Y006685D03*
D1802*
X007347Y006688D03*
D1803*
X007348Y006691D03*
D1804*
X007347Y006694D03*
D1805*
X007347Y006696D03*
D1806*
X007348Y006700D03*
D1807*
X007347Y006703D03*
D1808*
X007347Y006706D03*
D1809*
X007348Y006709D03*
D1810*
X007347Y006711D03*
D1811*
X007348Y006715D03*
D1812*
X007347Y006718D03*
D1813*
X007348Y006721D03*
D1814*
X007347Y006724D03*
D1815*
X007348Y006726D03*
D1816*
X007347Y006730D03*
D1817*
X007347Y006733D03*
D1818*
X007348Y006736D03*
D1819*
X007348Y006739D03*
D1820*
X007348Y006745D03*
D1821*
X007347Y006748D03*
D1822*
X007347Y006754D03*
D1823*
X007348Y006756D03*
D1824*
X007347Y006760D03*
D1825*
X007348Y006763D03*
D1826*
X007347Y006766D03*
D1827*
X007348Y006769D03*
D1828*
X007347Y006771D03*
D1829*
X007348Y006775D03*
D1830*
X007348Y006778D03*
D1831*
X007347Y006781D03*
D1832*
X007348Y006784D03*
D1833*
X007347Y006786D03*
D1834*
X007347Y006790D03*
D1835*
X007348Y006793D03*
D1836*
X007347Y006796D03*
D1837*
X007347Y006799D03*
D1838*
X007348Y006801D03*
D1839*
X007347Y006805D03*
D1840*
X007347Y006808D03*
D1841*
X007348Y006811D03*
D1842*
X007348Y006814D03*
D1843*
X007347Y006816D03*
D1844*
X007347Y006820D03*
D1845*
X007348Y006823D03*
D1846*
X007348Y006826D03*
D1847*
X007348Y006829D03*
D1848*
X007347Y006831D03*
D1849*
X007347Y006835D03*
D1850*
X007348Y006838D03*
D1851*
X007348Y006844D03*
D1852*
X007348Y006846D03*
D1853*
X007347Y006850D03*
D1854*
X007347Y006853D03*
D1855*
X007347Y006856D03*
D1856*
X007347Y006859D03*
D1857*
X007348Y006861D03*
D1858*
X007348Y006865D03*
D1859*
X007348Y006868D03*
D1860*
X007348Y006871D03*
D1861*
X007348Y006874D03*
D1862*
X007348Y006876D03*
D1863*
X007348Y006880D03*
D1864*
X007347Y006889D03*
D1865*
X007347Y006891D03*
D1866*
X007348Y006895D03*
D1867*
X007348Y006898D03*
D1868*
X007347Y006904D03*
D1869*
X007348Y006906D03*
D1870*
X007347Y006910D03*
D1871*
X007348Y006913D03*
D1872*
X007348Y006916D03*
D1873*
X007347Y006919D03*
D1874*
X007348Y006921D03*
D1875*
X007348Y006925D03*
D1876*
X007347Y006928D03*
D1877*
X007348Y006931D03*
D1878*
X007348Y006934D03*
D1879*
X007348Y006936D03*
D1880*
X007348Y006946D03*
D1881*
X007348Y006949D03*
D1882*
X007348Y006951D03*
D1883*
X007348Y006955D03*
D1884*
X007348Y006961D03*
D1885*
X007348Y006964D03*
D1886*
X007348Y006966D03*
D1887*
X007348Y006970D03*
D1888*
X007347Y006973D03*
D1889*
X007347Y006976D03*
D1890*
X007348Y006981D03*
D1891*
X007348Y006985D03*
D1892*
X007348Y006988D03*
D1893*
X007348Y006991D03*
D1894*
X007347Y006994D03*
D1895*
X007348Y006996D03*
D1896*
X007348Y007000D03*
D1897*
X007348Y007003D03*
D1898*
X007348Y007006D03*
D1899*
X007347Y007015D03*
D1900*
X007347Y007024D03*
D1901*
X007348Y007026D03*
D1902*
X007348Y007030D03*
D1903*
X007348Y007033D03*
D1904*
X007347Y007036D03*
D1905*
X007348Y007039D03*
D1906*
X007348Y007045D03*
D1907*
X007347Y007048D03*
D1908*
X007348Y007066D03*
D1909*
X007348Y007075D03*
D1910*
X007348Y007090D03*
M02*
