G75*
G70*
%OFA0B0*%
%FSLAX24Y24*%
%IPPOS*%
%LPD*%
%AMOC8*
5,1,8,0,0,1.08239X$1,22.5*
%
%ADD10R,0.0631X0.0296*%
%ADD11C,0.0640*%
%ADD12R,0.0355X0.0512*%
%ADD13R,0.0906X0.0276*%
%ADD14C,0.0900*%
%ADD15C,0.0512*%
%ADD16R,0.0552X0.0631*%
%ADD17R,0.0276X0.0197*%
%ADD18C,0.0780*%
%ADD19C,0.1320*%
D10*
X007255Y002698D03*
X007255Y003198D03*
X007255Y003698D03*
X007255Y004198D03*
X009412Y004198D03*
X009412Y003698D03*
X009412Y003198D03*
X009412Y002698D03*
D11*
X004334Y006435D02*
X004334Y007035D01*
X003334Y007035D02*
X003334Y006435D01*
X002334Y006435D02*
X002334Y007035D01*
X001334Y007035D02*
X001334Y006435D01*
X001334Y010116D02*
X001334Y010716D01*
X002334Y010716D02*
X002334Y010116D01*
X003334Y010116D02*
X003334Y010716D01*
X004334Y010716D02*
X004334Y010116D01*
D12*
X001692Y001948D03*
X002400Y001948D03*
X004979Y001948D03*
X005688Y001948D03*
X007979Y001948D03*
X008688Y001948D03*
D13*
X006357Y002698D03*
X006357Y003198D03*
X006357Y003698D03*
X006357Y004198D03*
X004310Y004198D03*
X004310Y003698D03*
X004310Y003198D03*
X004310Y002698D03*
D14*
X006211Y008411D03*
X007196Y008411D03*
X009164Y008411D03*
X010149Y008411D03*
X008180Y010380D03*
D15*
X010149Y010380D03*
X010149Y011364D03*
X008180Y008411D03*
X006211Y010380D03*
X006211Y011364D03*
D16*
X009672Y006916D03*
X010420Y006916D03*
X007664Y006704D03*
X006916Y006704D03*
D17*
X002645Y004105D03*
X002645Y003711D03*
X002645Y003318D03*
X001542Y003318D03*
X001542Y003711D03*
X001542Y004105D03*
D18*
X010550Y003914D03*
X011550Y003414D03*
X010550Y002914D03*
X011550Y002414D03*
X010550Y001914D03*
X011550Y004414D03*
D19*
X014050Y005164D03*
X014050Y001164D03*
M02*
