%
M48
M72
T01C0.0276
T02C0.0400
T03C0.0472
T04C0.0512
T05C0.1280
%
T01
X2542Y2542
X4314Y1952
X9432Y1952
X6676Y1952
X8841Y6873
X1715Y2503
X849Y2503
T02
X4334Y10416
X3334Y10416
X2334Y10416
X1334Y10416
X4334Y6735
X3334Y6735
X2334Y6735
X1334Y6735
X10550Y1914
X11550Y2414
X10550Y2914
X11550Y3414
X10550Y3914
X11550Y4414
T03
X10149Y10380
X10149Y11364
X6211Y11364
X6211Y10380
X8180Y8411
T04
X8180Y10380
X9164Y8411
X10149Y8411
X7196Y8411
X6211Y8411
T05
X14050Y1164
X14050Y5164
M30
