G75*
G70*
%OFA0B0*%
%FSLAX24Y24*%
%IPPOS*%
%LPD*%
%AMOC8*
5,1,8,0,0,1.08239X$1,22.5*
%
%ADD10R,0.0591X0.0256*%
%ADD11C,0.0600*%
%ADD12R,0.0315X0.0472*%
%ADD13R,0.0866X0.0236*%
%ADD14C,0.0860*%
%ADD15R,0.0512X0.0591*%
%ADD16R,0.0236X0.0157*%
%ADD17C,0.0740*%
%ADD18C,0.0320*%
%ADD19C,0.0160*%
%ADD20C,0.0413*%
D10*
X007255Y002698D03*
X007255Y003198D03*
X007255Y003698D03*
X007255Y004198D03*
X009412Y004198D03*
X009412Y003698D03*
X009412Y003198D03*
X009412Y002698D03*
D11*
X004334Y006435D02*
X004334Y007035D01*
X003334Y007035D02*
X003334Y006435D01*
X002334Y006435D02*
X002334Y007035D01*
X001334Y007035D02*
X001334Y006435D01*
X001334Y010116D02*
X001334Y010716D01*
X002334Y010716D02*
X002334Y010116D01*
X003334Y010116D02*
X003334Y010716D01*
X004334Y010716D02*
X004334Y010116D01*
D12*
X004979Y001948D03*
X005688Y001948D03*
X007979Y001948D03*
X008688Y001948D03*
X002400Y001948D03*
X001692Y001948D03*
D13*
X004310Y002698D03*
X004310Y003198D03*
X004310Y003698D03*
X004310Y004198D03*
X006357Y004198D03*
X006357Y003698D03*
X006357Y003198D03*
X006357Y002698D03*
D14*
X006211Y008411D03*
X007196Y008411D03*
X009164Y008411D03*
X010149Y008411D03*
X008180Y010380D03*
D15*
X009672Y006916D03*
X010420Y006916D03*
X007664Y006704D03*
X006916Y006704D03*
D16*
X002645Y004105D03*
X002645Y003711D03*
X002645Y003318D03*
X001542Y003318D03*
X001542Y003711D03*
X001542Y004105D03*
D17*
X010550Y003914D03*
X011550Y003414D03*
X010550Y002914D03*
X011550Y002414D03*
X010550Y001914D03*
X011550Y004414D03*
D18*
X004334Y006735D02*
X004334Y010416D01*
X003334Y010416D02*
X003334Y006735D01*
X002334Y006735D02*
X002334Y010416D01*
X001334Y010416D02*
X001334Y006735D01*
D19*
X000849Y001479D02*
X001361Y000967D01*
X004904Y000967D01*
X007050Y000967D01*
X009826Y000967D01*
X009432Y001952D02*
X009410Y001973D01*
X008688Y001973D01*
X009412Y002698D01*
X009980Y003180D02*
X010246Y002914D01*
X010550Y002914D01*
X009980Y003180D02*
X009980Y003880D01*
X009662Y004198D01*
X009412Y004198D01*
X008334Y004198D01*
X008084Y003948D01*
X008084Y002052D01*
X007979Y001948D01*
X007979Y002093D01*
X007050Y000967D01*
X006676Y001952D02*
X007255Y002530D01*
X007255Y002698D01*
X006357Y002698D02*
X006357Y002617D01*
X005688Y001948D01*
X004904Y000967D01*
X004979Y001948D02*
X004318Y001948D01*
X004314Y001952D01*
X004314Y002702D01*
X004310Y002698D01*
X004314Y002702D02*
X004314Y002739D01*
X004310Y003198D02*
X004834Y003198D01*
X005084Y003448D01*
X005084Y006826D01*
X005101Y006843D01*
X005101Y008701D01*
X005780Y009380D01*
X007180Y009380D01*
X008180Y010380D01*
X010149Y008411D02*
X010420Y008140D01*
X010420Y006916D01*
X010380Y006876D01*
X010380Y006580D01*
X009880Y006080D01*
X008480Y006080D01*
X007856Y006704D01*
X007664Y006704D01*
X007070Y006550D02*
X006916Y006704D01*
X006847Y006773D01*
X005834Y006773D01*
X005334Y006273D01*
X005334Y003448D01*
X005584Y003198D01*
X006357Y003198D01*
X006357Y003698D02*
X007255Y003698D01*
X008688Y001973D02*
X008688Y001948D01*
X011550Y002414D02*
X012114Y002414D01*
X012580Y002880D01*
X012580Y005080D01*
X012165Y005495D01*
X007660Y005495D01*
X007070Y006086D01*
X007070Y006550D01*
X008841Y006873D02*
X008885Y006916D01*
X009672Y006916D01*
X004310Y004198D02*
X003528Y004198D01*
X003290Y003960D01*
X003290Y003763D01*
X002897Y003369D01*
X002696Y003369D01*
X002645Y003318D01*
X002267Y003507D02*
X002267Y002818D01*
X002542Y002542D01*
X002542Y002089D01*
X002400Y001948D01*
X002365Y002003D01*
X002345Y002003D01*
X001692Y001948D02*
X001692Y002345D01*
X001715Y002345D01*
X001715Y002503D01*
X001952Y002739D01*
X001952Y003448D01*
X001715Y003684D01*
X001570Y003684D01*
X001542Y003711D01*
X001164Y003763D02*
X001164Y003526D01*
X001164Y002936D01*
X001164Y002897D01*
X001263Y002798D01*
X001263Y001696D01*
X001223Y001656D01*
X001479Y001400D01*
X003211Y001400D01*
X003684Y001873D01*
X003684Y003426D01*
X003662Y003448D01*
X003912Y003698D01*
X004310Y003698D01*
X004310Y004198D02*
X003334Y005174D01*
X003334Y006735D01*
X002334Y006735D02*
X002334Y005523D01*
X001912Y005101D01*
X001558Y004708D01*
X001164Y004314D01*
X001164Y003763D01*
X001164Y003526D02*
X001373Y003318D01*
X001542Y003318D01*
X002267Y003507D02*
X002471Y003711D01*
X002645Y003711D01*
X001692Y002479D02*
X001692Y002345D01*
X000849Y002503D02*
X000849Y001479D01*
X000849Y002503D02*
X000849Y006251D01*
X001334Y006735D01*
D20*
X001715Y002503D03*
X002542Y002542D03*
X000849Y002503D03*
X004314Y001952D03*
X006676Y001952D03*
X009432Y001952D03*
X008841Y006873D03*
M02*
