G75*
G70*
%OFA0B0*%
%FSLAX24Y24*%
%IPPOS*%
%LPD*%
%AMOC8*
5,1,8,0,0,1.08239X$1,22.5*
%
%ADD10C,0.0000*%
%ADD11C,0.0200*%
%ADD12C,0.0080*%
%ADD13C,0.0060*%
%ADD14C,0.0270*%
%ADD15C,0.0070*%
%ADD16C,0.0050*%
%ADD17C,0.0100*%
D10*
X001180Y000180D02*
X015125Y000180D01*
X013410Y001164D02*
X013412Y001214D01*
X013418Y001264D01*
X013428Y001313D01*
X013441Y001362D01*
X013459Y001409D01*
X013480Y001455D01*
X013504Y001498D01*
X013532Y001540D01*
X013563Y001580D01*
X013597Y001617D01*
X013634Y001651D01*
X013674Y001682D01*
X013716Y001710D01*
X013759Y001734D01*
X013805Y001755D01*
X013852Y001773D01*
X013901Y001786D01*
X013950Y001796D01*
X014000Y001802D01*
X014050Y001804D01*
X014100Y001802D01*
X014150Y001796D01*
X014199Y001786D01*
X014248Y001773D01*
X014295Y001755D01*
X014341Y001734D01*
X014384Y001710D01*
X014426Y001682D01*
X014466Y001651D01*
X014503Y001617D01*
X014537Y001580D01*
X014568Y001540D01*
X014596Y001498D01*
X014620Y001455D01*
X014641Y001409D01*
X014659Y001362D01*
X014672Y001313D01*
X014682Y001264D01*
X014688Y001214D01*
X014690Y001164D01*
X014688Y001114D01*
X014682Y001064D01*
X014672Y001015D01*
X014659Y000966D01*
X014641Y000919D01*
X014620Y000873D01*
X014596Y000830D01*
X014568Y000788D01*
X014537Y000748D01*
X014503Y000711D01*
X014466Y000677D01*
X014426Y000646D01*
X014384Y000618D01*
X014341Y000594D01*
X014295Y000573D01*
X014248Y000555D01*
X014199Y000542D01*
X014150Y000532D01*
X014100Y000526D01*
X014050Y000524D01*
X014000Y000526D01*
X013950Y000532D01*
X013901Y000542D01*
X013852Y000555D01*
X013805Y000573D01*
X013759Y000594D01*
X013716Y000618D01*
X013674Y000646D01*
X013634Y000677D01*
X013597Y000711D01*
X013563Y000748D01*
X013532Y000788D01*
X013504Y000830D01*
X013480Y000873D01*
X013459Y000919D01*
X013441Y000966D01*
X013428Y001015D01*
X013418Y001064D01*
X013412Y001114D01*
X013410Y001164D01*
X015125Y000180D02*
X015185Y000182D01*
X015246Y000187D01*
X015305Y000196D01*
X015364Y000209D01*
X015423Y000225D01*
X015480Y000245D01*
X015535Y000268D01*
X015590Y000295D01*
X015642Y000324D01*
X015693Y000357D01*
X015742Y000393D01*
X015788Y000431D01*
X015832Y000473D01*
X015874Y000517D01*
X015912Y000563D01*
X015948Y000612D01*
X015981Y000663D01*
X016010Y000715D01*
X016037Y000770D01*
X016060Y000825D01*
X016080Y000882D01*
X016096Y000941D01*
X016109Y001000D01*
X016118Y001059D01*
X016123Y001120D01*
X016125Y001180D01*
X016125Y010794D01*
X016123Y010854D01*
X016118Y010915D01*
X016109Y010974D01*
X016096Y011033D01*
X016080Y011092D01*
X016060Y011149D01*
X016037Y011204D01*
X016010Y011259D01*
X015981Y011311D01*
X015948Y011362D01*
X015912Y011411D01*
X015874Y011457D01*
X015832Y011501D01*
X015788Y011543D01*
X015742Y011581D01*
X015693Y011617D01*
X015642Y011650D01*
X015590Y011679D01*
X015535Y011706D01*
X015480Y011729D01*
X015423Y011749D01*
X015364Y011765D01*
X015305Y011778D01*
X015246Y011787D01*
X015185Y011792D01*
X015125Y011794D01*
X001180Y011794D01*
X001120Y011792D01*
X001059Y011787D01*
X001000Y011778D01*
X000941Y011765D01*
X000882Y011749D01*
X000825Y011729D01*
X000770Y011706D01*
X000715Y011679D01*
X000663Y011650D01*
X000612Y011617D01*
X000563Y011581D01*
X000517Y011543D01*
X000473Y011501D01*
X000431Y011457D01*
X000393Y011411D01*
X000357Y011362D01*
X000324Y011311D01*
X000295Y011259D01*
X000268Y011204D01*
X000245Y011149D01*
X000225Y011092D01*
X000209Y011033D01*
X000196Y010974D01*
X000187Y010915D01*
X000182Y010854D01*
X000180Y010794D01*
X000180Y001180D01*
X000182Y001120D01*
X000187Y001059D01*
X000196Y001000D01*
X000209Y000941D01*
X000225Y000882D01*
X000245Y000825D01*
X000268Y000770D01*
X000295Y000715D01*
X000324Y000663D01*
X000357Y000612D01*
X000393Y000563D01*
X000431Y000517D01*
X000473Y000473D01*
X000517Y000431D01*
X000563Y000393D01*
X000612Y000357D01*
X000663Y000324D01*
X000715Y000295D01*
X000770Y000268D01*
X000825Y000245D01*
X000882Y000225D01*
X000941Y000209D01*
X001000Y000196D01*
X001059Y000187D01*
X001120Y000182D01*
X001180Y000180D01*
X007944Y008411D02*
X007946Y008441D01*
X007952Y008471D01*
X007961Y008500D01*
X007974Y008527D01*
X007991Y008552D01*
X008010Y008575D01*
X008033Y008596D01*
X008058Y008613D01*
X008084Y008627D01*
X008113Y008637D01*
X008142Y008644D01*
X008172Y008647D01*
X008203Y008646D01*
X008233Y008641D01*
X008262Y008632D01*
X008289Y008620D01*
X008315Y008605D01*
X008339Y008586D01*
X008360Y008564D01*
X008378Y008540D01*
X008393Y008513D01*
X008404Y008485D01*
X008412Y008456D01*
X008416Y008426D01*
X008416Y008396D01*
X008412Y008366D01*
X008404Y008337D01*
X008393Y008309D01*
X008378Y008282D01*
X008360Y008258D01*
X008339Y008236D01*
X008315Y008217D01*
X008289Y008202D01*
X008262Y008190D01*
X008233Y008181D01*
X008203Y008176D01*
X008172Y008175D01*
X008142Y008178D01*
X008113Y008185D01*
X008084Y008195D01*
X008058Y008209D01*
X008033Y008226D01*
X008010Y008247D01*
X007991Y008270D01*
X007974Y008295D01*
X007961Y008322D01*
X007952Y008351D01*
X007946Y008381D01*
X007944Y008411D01*
X005975Y010380D02*
X005977Y010410D01*
X005983Y010440D01*
X005992Y010469D01*
X006005Y010496D01*
X006022Y010521D01*
X006041Y010544D01*
X006064Y010565D01*
X006089Y010582D01*
X006115Y010596D01*
X006144Y010606D01*
X006173Y010613D01*
X006203Y010616D01*
X006234Y010615D01*
X006264Y010610D01*
X006293Y010601D01*
X006320Y010589D01*
X006346Y010574D01*
X006370Y010555D01*
X006391Y010533D01*
X006409Y010509D01*
X006424Y010482D01*
X006435Y010454D01*
X006443Y010425D01*
X006447Y010395D01*
X006447Y010365D01*
X006443Y010335D01*
X006435Y010306D01*
X006424Y010278D01*
X006409Y010251D01*
X006391Y010227D01*
X006370Y010205D01*
X006346Y010186D01*
X006320Y010171D01*
X006293Y010159D01*
X006264Y010150D01*
X006234Y010145D01*
X006203Y010144D01*
X006173Y010147D01*
X006144Y010154D01*
X006115Y010164D01*
X006089Y010178D01*
X006064Y010195D01*
X006041Y010216D01*
X006022Y010239D01*
X006005Y010264D01*
X005992Y010291D01*
X005983Y010320D01*
X005977Y010350D01*
X005975Y010380D01*
X005975Y011364D02*
X005977Y011394D01*
X005983Y011424D01*
X005992Y011453D01*
X006005Y011480D01*
X006022Y011505D01*
X006041Y011528D01*
X006064Y011549D01*
X006089Y011566D01*
X006115Y011580D01*
X006144Y011590D01*
X006173Y011597D01*
X006203Y011600D01*
X006234Y011599D01*
X006264Y011594D01*
X006293Y011585D01*
X006320Y011573D01*
X006346Y011558D01*
X006370Y011539D01*
X006391Y011517D01*
X006409Y011493D01*
X006424Y011466D01*
X006435Y011438D01*
X006443Y011409D01*
X006447Y011379D01*
X006447Y011349D01*
X006443Y011319D01*
X006435Y011290D01*
X006424Y011262D01*
X006409Y011235D01*
X006391Y011211D01*
X006370Y011189D01*
X006346Y011170D01*
X006320Y011155D01*
X006293Y011143D01*
X006264Y011134D01*
X006234Y011129D01*
X006203Y011128D01*
X006173Y011131D01*
X006144Y011138D01*
X006115Y011148D01*
X006089Y011162D01*
X006064Y011179D01*
X006041Y011200D01*
X006022Y011223D01*
X006005Y011248D01*
X005992Y011275D01*
X005983Y011304D01*
X005977Y011334D01*
X005975Y011364D01*
X009913Y011364D02*
X009915Y011394D01*
X009921Y011424D01*
X009930Y011453D01*
X009943Y011480D01*
X009960Y011505D01*
X009979Y011528D01*
X010002Y011549D01*
X010027Y011566D01*
X010053Y011580D01*
X010082Y011590D01*
X010111Y011597D01*
X010141Y011600D01*
X010172Y011599D01*
X010202Y011594D01*
X010231Y011585D01*
X010258Y011573D01*
X010284Y011558D01*
X010308Y011539D01*
X010329Y011517D01*
X010347Y011493D01*
X010362Y011466D01*
X010373Y011438D01*
X010381Y011409D01*
X010385Y011379D01*
X010385Y011349D01*
X010381Y011319D01*
X010373Y011290D01*
X010362Y011262D01*
X010347Y011235D01*
X010329Y011211D01*
X010308Y011189D01*
X010284Y011170D01*
X010258Y011155D01*
X010231Y011143D01*
X010202Y011134D01*
X010172Y011129D01*
X010141Y011128D01*
X010111Y011131D01*
X010082Y011138D01*
X010053Y011148D01*
X010027Y011162D01*
X010002Y011179D01*
X009979Y011200D01*
X009960Y011223D01*
X009943Y011248D01*
X009930Y011275D01*
X009921Y011304D01*
X009915Y011334D01*
X009913Y011364D01*
X009913Y010380D02*
X009915Y010410D01*
X009921Y010440D01*
X009930Y010469D01*
X009943Y010496D01*
X009960Y010521D01*
X009979Y010544D01*
X010002Y010565D01*
X010027Y010582D01*
X010053Y010596D01*
X010082Y010606D01*
X010111Y010613D01*
X010141Y010616D01*
X010172Y010615D01*
X010202Y010610D01*
X010231Y010601D01*
X010258Y010589D01*
X010284Y010574D01*
X010308Y010555D01*
X010329Y010533D01*
X010347Y010509D01*
X010362Y010482D01*
X010373Y010454D01*
X010381Y010425D01*
X010385Y010395D01*
X010385Y010365D01*
X010381Y010335D01*
X010373Y010306D01*
X010362Y010278D01*
X010347Y010251D01*
X010329Y010227D01*
X010308Y010205D01*
X010284Y010186D01*
X010258Y010171D01*
X010231Y010159D01*
X010202Y010150D01*
X010172Y010145D01*
X010141Y010144D01*
X010111Y010147D01*
X010082Y010154D01*
X010053Y010164D01*
X010027Y010178D01*
X010002Y010195D01*
X009979Y010216D01*
X009960Y010239D01*
X009943Y010264D01*
X009930Y010291D01*
X009921Y010320D01*
X009915Y010350D01*
X009913Y010380D01*
X013410Y005164D02*
X013412Y005214D01*
X013418Y005264D01*
X013428Y005313D01*
X013441Y005362D01*
X013459Y005409D01*
X013480Y005455D01*
X013504Y005498D01*
X013532Y005540D01*
X013563Y005580D01*
X013597Y005617D01*
X013634Y005651D01*
X013674Y005682D01*
X013716Y005710D01*
X013759Y005734D01*
X013805Y005755D01*
X013852Y005773D01*
X013901Y005786D01*
X013950Y005796D01*
X014000Y005802D01*
X014050Y005804D01*
X014100Y005802D01*
X014150Y005796D01*
X014199Y005786D01*
X014248Y005773D01*
X014295Y005755D01*
X014341Y005734D01*
X014384Y005710D01*
X014426Y005682D01*
X014466Y005651D01*
X014503Y005617D01*
X014537Y005580D01*
X014568Y005540D01*
X014596Y005498D01*
X014620Y005455D01*
X014641Y005409D01*
X014659Y005362D01*
X014672Y005313D01*
X014682Y005264D01*
X014688Y005214D01*
X014690Y005164D01*
X014688Y005114D01*
X014682Y005064D01*
X014672Y005015D01*
X014659Y004966D01*
X014641Y004919D01*
X014620Y004873D01*
X014596Y004830D01*
X014568Y004788D01*
X014537Y004748D01*
X014503Y004711D01*
X014466Y004677D01*
X014426Y004646D01*
X014384Y004618D01*
X014341Y004594D01*
X014295Y004573D01*
X014248Y004555D01*
X014199Y004542D01*
X014150Y004532D01*
X014100Y004526D01*
X014050Y004524D01*
X014000Y004526D01*
X013950Y004532D01*
X013901Y004542D01*
X013852Y004555D01*
X013805Y004573D01*
X013759Y004594D01*
X013716Y004618D01*
X013674Y004646D01*
X013634Y004677D01*
X013597Y004711D01*
X013563Y004748D01*
X013532Y004788D01*
X013504Y004830D01*
X013480Y004873D01*
X013459Y004919D01*
X013441Y004966D01*
X013428Y005015D01*
X013418Y005064D01*
X013412Y005114D01*
X013410Y005164D01*
D11*
X013524Y009676D02*
X014258Y009676D01*
X014721Y009676D02*
X015455Y010777D01*
X014721Y010777D02*
X015455Y009676D01*
X014258Y010777D02*
X013524Y010777D01*
X013524Y009676D01*
X013061Y010227D02*
X012877Y010043D01*
X012327Y010043D01*
X011864Y010227D02*
X011130Y010227D01*
X011130Y010410D02*
X011497Y010777D01*
X011864Y010410D01*
X011864Y009676D01*
X012327Y009676D02*
X012327Y010777D01*
X012877Y010777D01*
X013061Y010594D01*
X013061Y010227D01*
X013524Y010227D02*
X013891Y010227D01*
X011130Y010410D02*
X011130Y009676D01*
D12*
X010542Y009002D02*
X010542Y011758D01*
X005818Y011758D01*
X005818Y009002D01*
X005455Y009966D02*
X005455Y010106D01*
X005455Y010036D02*
X005035Y010036D01*
X005035Y009966D02*
X005035Y010106D01*
X005105Y010273D02*
X005035Y010343D01*
X005035Y010483D01*
X005105Y010553D01*
X005175Y010553D01*
X005455Y010273D01*
X005455Y010553D01*
X005385Y010733D02*
X005105Y010733D01*
X005035Y010803D01*
X005035Y010943D01*
X005105Y011013D01*
X005385Y011013D02*
X005455Y010943D01*
X005455Y010803D01*
X005385Y010733D01*
X005818Y007821D02*
X005818Y007427D01*
X010542Y007427D01*
X010542Y007821D01*
X010931Y007133D02*
X011141Y007133D01*
X011211Y007063D01*
X011211Y006993D01*
X011141Y006923D01*
X010931Y006923D01*
X010931Y006713D02*
X011141Y006713D01*
X011211Y006783D01*
X011211Y006853D01*
X011141Y006923D01*
X011391Y006923D02*
X011672Y006923D01*
X011672Y006993D02*
X011672Y006713D01*
X011852Y006713D02*
X012132Y006713D01*
X012132Y006546D02*
X011852Y006546D01*
X011852Y006126D01*
X012132Y006126D01*
X012312Y006196D02*
X012382Y006126D01*
X012522Y006126D01*
X012592Y006196D01*
X012592Y006266D01*
X012522Y006336D01*
X012382Y006336D01*
X012312Y006406D01*
X012312Y006476D01*
X012382Y006546D01*
X012522Y006546D01*
X012592Y006476D01*
X012773Y006476D02*
X012773Y006406D01*
X012843Y006336D01*
X012983Y006336D01*
X013053Y006266D01*
X013053Y006196D01*
X012983Y006126D01*
X012843Y006126D01*
X012773Y006196D01*
X012773Y006476D02*
X012843Y006546D01*
X012983Y006546D01*
X013053Y006476D01*
X013233Y006546D02*
X013233Y006196D01*
X013303Y006126D01*
X013443Y006126D01*
X013513Y006196D01*
X013513Y006546D01*
X013693Y006546D02*
X013904Y006546D01*
X013974Y006476D01*
X013974Y006336D01*
X013904Y006266D01*
X013693Y006266D01*
X013693Y006126D02*
X013693Y006546D01*
X013693Y006713D02*
X013693Y007133D01*
X013974Y006713D01*
X013974Y007133D01*
X013513Y007063D02*
X013513Y006783D01*
X013443Y006713D01*
X013303Y006713D01*
X013233Y006783D01*
X013233Y007063D01*
X013303Y007133D01*
X013443Y007133D01*
X013513Y007063D01*
X013053Y007063D02*
X012983Y007133D01*
X012843Y007133D01*
X012773Y007063D01*
X012773Y006783D01*
X012843Y006713D01*
X012983Y006713D01*
X013053Y006783D01*
X013053Y007063D01*
X012592Y006713D02*
X012312Y006713D01*
X012312Y007133D01*
X011852Y007133D02*
X011852Y006713D01*
X011672Y006476D02*
X011672Y006336D01*
X011602Y006266D01*
X011391Y006266D01*
X011391Y006126D02*
X011391Y006546D01*
X011602Y006546D01*
X011672Y006476D01*
X011852Y006336D02*
X011992Y006336D01*
X011672Y006126D02*
X011532Y006266D01*
X011211Y006336D02*
X011211Y006476D01*
X011141Y006546D01*
X010931Y006546D01*
X010931Y006126D01*
X010931Y006266D02*
X011141Y006266D01*
X011211Y006336D01*
X011391Y006713D02*
X011391Y006993D01*
X011532Y007133D01*
X011672Y006993D01*
X010931Y007133D02*
X010931Y006713D01*
X009950Y005864D02*
X009950Y000464D01*
X016100Y000464D01*
X016100Y005864D01*
X009950Y005864D01*
X013833Y006266D02*
X013974Y006126D01*
X014154Y006126D02*
X014434Y006126D01*
X014294Y006336D02*
X014154Y006336D01*
X014154Y006546D02*
X014154Y006126D01*
X014154Y006546D02*
X014434Y006546D01*
X005455Y006629D02*
X005175Y006910D01*
X005105Y006910D01*
X005035Y006839D01*
X005035Y006699D01*
X005105Y006629D01*
X005035Y006462D02*
X005035Y006322D01*
X005035Y006392D02*
X005455Y006392D01*
X005455Y006322D02*
X005455Y006462D01*
X005455Y006629D02*
X005455Y006910D01*
X005385Y007090D02*
X005105Y007090D01*
X005035Y007160D01*
X005035Y007300D01*
X005105Y007370D01*
X005385Y007370D02*
X005455Y007300D01*
X005455Y007160D01*
X005385Y007090D01*
D13*
X004463Y008311D02*
X004237Y008311D01*
X004180Y008368D01*
X004180Y008481D01*
X004237Y008538D01*
X004463Y008311D01*
X004520Y008368D01*
X004520Y008481D01*
X004463Y008538D01*
X004237Y008538D01*
X004180Y008679D02*
X004407Y008679D01*
X004520Y008793D01*
X004407Y008906D01*
X004180Y008906D01*
X003477Y008973D02*
X003136Y008973D01*
X003136Y008860D02*
X003136Y009087D01*
X003250Y008719D02*
X003477Y008719D01*
X003307Y008719D02*
X003307Y008492D01*
X003250Y008492D02*
X003477Y008492D01*
X003420Y008350D02*
X003193Y008350D01*
X003136Y008294D01*
X003136Y008123D01*
X003477Y008123D01*
X003477Y008294D01*
X003420Y008350D01*
X003250Y008492D02*
X003136Y008605D01*
X003250Y008719D01*
X002512Y008708D02*
X002512Y008481D01*
X002172Y008481D01*
X002229Y008340D02*
X002172Y008283D01*
X002172Y008169D01*
X002229Y008113D01*
X002455Y008113D01*
X002512Y008169D01*
X002512Y008283D01*
X002455Y008340D01*
X002399Y008849D02*
X002172Y009076D01*
X002342Y008906D02*
X002512Y009076D01*
X002512Y008849D02*
X002172Y008849D01*
X001508Y008917D02*
X001452Y008860D01*
X001508Y008917D02*
X001508Y009030D01*
X001452Y009087D01*
X001395Y009087D01*
X001338Y009030D01*
X001338Y008973D01*
X001338Y009030D02*
X001281Y009087D01*
X001225Y009087D01*
X001168Y009030D01*
X001168Y008917D01*
X001225Y008860D01*
X001168Y008719D02*
X001395Y008719D01*
X001508Y008605D01*
X001395Y008492D01*
X001168Y008492D01*
X001225Y008350D02*
X001168Y008294D01*
X001168Y008180D01*
X001225Y008123D01*
X001338Y008237D02*
X001338Y008294D01*
X001395Y008350D01*
X001452Y008350D01*
X001508Y008294D01*
X001508Y008180D01*
X001452Y008123D01*
X001338Y008294D02*
X001281Y008350D01*
X001225Y008350D01*
X004390Y004861D02*
X004560Y004861D01*
X004616Y004805D01*
X004616Y004691D01*
X004560Y004634D01*
X004390Y004634D01*
X004390Y004521D02*
X004390Y004861D01*
X004758Y004861D02*
X004871Y004861D01*
X004815Y004861D02*
X004815Y004521D01*
X004871Y004521D02*
X004758Y004521D01*
X005003Y004578D02*
X005060Y004521D01*
X005174Y004521D01*
X005230Y004578D01*
X005372Y004521D02*
X005372Y004748D01*
X005485Y004861D01*
X005599Y004748D01*
X005599Y004521D01*
X005740Y004521D02*
X005967Y004861D01*
X006108Y004861D02*
X006108Y004521D01*
X006335Y004521D01*
X006222Y004691D02*
X006108Y004691D01*
X005967Y004521D02*
X005740Y004861D01*
X005599Y004691D02*
X005372Y004691D01*
X005230Y004805D02*
X005174Y004861D01*
X005060Y004861D01*
X005003Y004805D01*
X005003Y004578D01*
X006108Y004861D02*
X006335Y004861D01*
X007072Y004888D02*
X007072Y004548D01*
X007299Y004548D02*
X007299Y004888D01*
X007441Y004888D02*
X007611Y004888D01*
X007667Y004831D01*
X007667Y004718D01*
X007611Y004661D01*
X007441Y004661D01*
X007441Y004548D02*
X007441Y004888D01*
X007809Y004888D02*
X007979Y004888D01*
X008036Y004831D01*
X008036Y004718D01*
X007979Y004661D01*
X007809Y004661D01*
X007809Y004548D02*
X007809Y004888D01*
X008177Y004718D02*
X008404Y004718D01*
X008545Y004831D02*
X008602Y004888D01*
X008716Y004888D01*
X008772Y004831D01*
X008772Y004775D01*
X008716Y004718D01*
X008772Y004661D01*
X008772Y004605D01*
X008716Y004548D01*
X008602Y004548D01*
X008545Y004605D01*
X008659Y004718D02*
X008716Y004718D01*
X008914Y004605D02*
X008914Y004831D01*
X008970Y004888D01*
X009084Y004888D01*
X009141Y004831D01*
X008914Y004605D01*
X008970Y004548D01*
X009084Y004548D01*
X009141Y004605D01*
X009141Y004831D01*
X009282Y004775D02*
X009396Y004888D01*
X009396Y004548D01*
X009509Y004548D02*
X009282Y004548D01*
X007299Y004548D02*
X007072Y004888D01*
X008215Y002184D02*
X008452Y002184D01*
X008452Y001711D02*
X008215Y001711D01*
X005452Y001711D02*
X005215Y001711D01*
X005215Y002184D02*
X005452Y002184D01*
X002998Y004497D02*
X002941Y004441D01*
X002827Y004441D01*
X002771Y004497D01*
X002771Y004611D02*
X002884Y004668D01*
X002941Y004668D01*
X002998Y004611D01*
X002998Y004497D01*
X002771Y004611D02*
X002771Y004781D01*
X002998Y004781D01*
X002629Y004724D02*
X002629Y004668D01*
X002402Y004441D01*
X002629Y004441D01*
X002629Y004724D02*
X002572Y004781D01*
X002459Y004781D01*
X002402Y004724D01*
X002261Y004781D02*
X002034Y004781D01*
X002147Y004781D02*
X002147Y004441D01*
X001893Y004441D02*
X001893Y004781D01*
X001893Y004611D02*
X001666Y004611D01*
X001524Y004554D02*
X001524Y004497D01*
X001468Y004441D01*
X001354Y004441D01*
X001297Y004497D01*
X001354Y004611D02*
X001468Y004611D01*
X001524Y004554D01*
X001354Y004611D02*
X001297Y004668D01*
X001297Y004724D01*
X001354Y004781D01*
X001468Y004781D01*
X001524Y004724D01*
X001666Y004781D02*
X001666Y004441D01*
X001928Y002184D02*
X002164Y002184D01*
X002164Y001711D02*
X001928Y001711D01*
D14*
X011115Y007711D02*
X011115Y009242D01*
X011115Y008477D02*
X012136Y008477D01*
X012772Y008477D02*
X013793Y008477D01*
X013793Y008732D02*
X013793Y007711D01*
X014430Y007711D02*
X015195Y007711D01*
X015451Y007966D01*
X015451Y008221D01*
X015195Y008477D01*
X014430Y008477D01*
X013793Y008732D02*
X013283Y009242D01*
X012772Y008732D01*
X012772Y007711D01*
X012136Y007711D02*
X012136Y009242D01*
X014430Y009242D02*
X014430Y007711D01*
X015195Y008477D02*
X015451Y008732D01*
X015451Y008987D01*
X015195Y009242D01*
X014430Y009242D01*
D15*
X013128Y005532D02*
X012938Y005532D01*
X012875Y005468D01*
X012875Y005278D01*
X013128Y005278D01*
X013002Y005117D02*
X013002Y004864D01*
X013065Y004864D02*
X012938Y004864D01*
X012875Y004927D01*
X012875Y005054D01*
X012938Y005117D01*
X013002Y005117D01*
X013128Y005054D02*
X013128Y004927D01*
X013065Y004864D01*
X012875Y004709D02*
X012875Y004645D01*
X013002Y004518D01*
X013128Y004518D02*
X012875Y004518D01*
X012875Y004363D02*
X012875Y004300D01*
X013002Y004173D01*
X013128Y004173D02*
X012875Y004173D01*
X012938Y004012D02*
X013128Y004012D01*
X013128Y003822D01*
X013065Y003759D01*
X013002Y003822D01*
X013002Y004012D01*
X012938Y004012D02*
X012875Y003949D01*
X012875Y003822D01*
X012748Y003598D02*
X013128Y003598D01*
X013002Y003471D01*
X013128Y003344D01*
X012748Y003344D01*
X012938Y002769D02*
X013065Y002769D01*
X013128Y002706D01*
X013128Y002516D01*
X013255Y002516D02*
X012875Y002516D01*
X012875Y002706D01*
X012938Y002769D01*
X013128Y002366D02*
X013128Y002239D01*
X013128Y002303D02*
X012875Y002303D01*
X012875Y002239D01*
X012748Y002303D02*
X012685Y002303D01*
X012748Y002027D02*
X013128Y002027D01*
X013128Y002090D02*
X013128Y001963D01*
X013128Y001814D02*
X013128Y001687D01*
X013128Y001750D02*
X012875Y001750D01*
X012875Y001687D01*
X012748Y001750D02*
X012685Y001750D01*
X012748Y001963D02*
X012748Y002027D01*
X012938Y001526D02*
X013128Y001526D01*
X012938Y001526D02*
X012875Y001463D01*
X012875Y001336D01*
X012938Y001273D01*
X012938Y001112D02*
X012812Y001112D01*
X012748Y001048D01*
X012748Y000858D01*
X013128Y000858D01*
X013002Y000858D02*
X013002Y001048D01*
X012938Y001112D01*
X012748Y001273D02*
X013128Y001273D01*
X014848Y001048D02*
X014848Y000858D01*
X015228Y000858D01*
X015228Y001048D01*
X015165Y001112D01*
X014912Y001112D01*
X014848Y001048D01*
X014975Y001336D02*
X014975Y001463D01*
X015038Y001526D01*
X015228Y001526D01*
X015228Y001336D01*
X015165Y001273D01*
X015102Y001336D01*
X015102Y001526D01*
X015228Y001687D02*
X014975Y001687D01*
X014975Y001877D01*
X015038Y001941D01*
X015228Y001941D01*
X015228Y002101D02*
X015228Y002228D01*
X015228Y002165D02*
X014975Y002165D01*
X014975Y002101D01*
X014848Y002165D02*
X014785Y002165D01*
X015038Y002378D02*
X014975Y002441D01*
X014975Y002568D01*
X015038Y002631D01*
X015102Y002631D01*
X015102Y002378D01*
X015165Y002378D02*
X015038Y002378D01*
X015165Y002378D02*
X015228Y002441D01*
X015228Y002568D01*
X015228Y002792D02*
X015228Y002919D01*
X015228Y002855D02*
X014848Y002855D01*
X014848Y002792D01*
X014848Y003483D02*
X015228Y003483D01*
X015102Y003483D02*
X014848Y003736D01*
X015038Y003897D02*
X015165Y003897D01*
X015228Y003960D01*
X015228Y004087D01*
X015165Y004150D01*
X015038Y004150D01*
X014975Y004087D01*
X014975Y003960D01*
X015038Y003897D01*
X015228Y003736D02*
X015038Y003546D01*
D16*
X008137Y004091D02*
X008139Y004118D01*
X008145Y004145D01*
X008154Y004171D01*
X008167Y004195D01*
X008183Y004218D01*
X008202Y004237D01*
X008224Y004254D01*
X008248Y004268D01*
X008273Y004278D01*
X008300Y004285D01*
X008327Y004288D01*
X008355Y004287D01*
X008382Y004282D01*
X008408Y004274D01*
X008432Y004262D01*
X008455Y004246D01*
X008476Y004228D01*
X008493Y004207D01*
X008508Y004183D01*
X008519Y004158D01*
X008527Y004132D01*
X008531Y004105D01*
X008531Y004077D01*
X008527Y004050D01*
X008519Y004024D01*
X008508Y003999D01*
X008493Y003975D01*
X008476Y003954D01*
X008455Y003936D01*
X008433Y003920D01*
X008408Y003908D01*
X008382Y003900D01*
X008355Y003895D01*
X008327Y003894D01*
X008300Y003897D01*
X008273Y003904D01*
X008248Y003914D01*
X008224Y003928D01*
X008202Y003945D01*
X008183Y003964D01*
X008167Y003987D01*
X008154Y004011D01*
X008145Y004037D01*
X008139Y004064D01*
X008137Y004091D01*
X004334Y005585D02*
X004234Y005585D01*
X004334Y005585D02*
X004334Y005735D01*
X002290Y004105D02*
X001897Y004105D01*
X004234Y009266D02*
X004334Y009266D01*
X004334Y009416D01*
D17*
X004334Y009266D02*
X004334Y009666D01*
X004234Y009666D01*
X004234Y009266D01*
X004334Y009266D02*
X003834Y009266D01*
X000834Y009266D01*
X000834Y010416D01*
X000834Y011566D01*
X001084Y011566D01*
X001084Y011316D01*
X001584Y011316D01*
X001584Y011566D01*
X002084Y011566D01*
X002084Y011316D01*
X002584Y011316D01*
X002584Y011566D01*
X003084Y011566D01*
X004584Y011566D01*
X004584Y011316D01*
X004084Y011316D01*
X004084Y011566D01*
X003584Y011566D01*
X003584Y011316D01*
X003084Y011316D01*
X003084Y011566D01*
X003884Y011566D02*
X000834Y011566D01*
X001334Y009666D02*
X001334Y009266D01*
X001434Y009266D02*
X001434Y009666D01*
X001334Y009666D01*
X001434Y009666D02*
X004234Y009666D01*
X004334Y009266D02*
X004834Y009266D01*
X004834Y010416D01*
X004834Y011566D01*
X003884Y011566D01*
X004584Y011566D02*
X004734Y011566D01*
X004734Y007885D02*
X004584Y007885D01*
X003084Y007885D01*
X002584Y007885D01*
X002584Y007635D01*
X002084Y007635D01*
X002084Y007885D01*
X001584Y007885D01*
X001584Y007635D01*
X001084Y007635D01*
X001084Y007885D01*
X000834Y007885D01*
X003884Y007885D01*
X004834Y007885D01*
X004834Y006735D01*
X004834Y005585D01*
X004334Y005585D01*
X004334Y005985D01*
X004234Y005985D01*
X004234Y005585D01*
X004334Y005585D02*
X003834Y005585D01*
X000834Y005585D01*
X000834Y006735D01*
X000834Y007885D01*
X003084Y007885D02*
X003084Y007635D01*
X003584Y007635D01*
X003584Y007885D01*
X004084Y007885D01*
X004084Y007635D01*
X004584Y007635D01*
X004584Y007885D01*
X004234Y005985D02*
X001434Y005985D01*
X001434Y005585D01*
X001334Y005585D02*
X001334Y005985D01*
X001434Y005985D01*
M02*
