G75*
G70*
%OFA0B0*%
%FSLAX24Y24*%
%IPPOS*%
%LPD*%
%AMOC8*
5,1,8,0,0,1.08239X$1,22.5*
%
%ADD10C,0.0600*%
%ADD11C,0.0740*%
%ADD12R,0.0600X0.0600*%
%ADD13OC8,0.0600*%
%ADD14R,0.0900X0.2000*%
%ADD15C,0.0436*%
%ADD16C,0.0100*%
%ADD17C,0.0320*%
%ADD18C,0.0240*%
D10*
X001811Y016751D02*
X002411Y016751D01*
X002411Y017751D02*
X001811Y017751D01*
X001811Y018751D02*
X002411Y018751D01*
X003111Y021551D02*
X003111Y022151D01*
X004111Y022151D02*
X004111Y021551D01*
X005111Y021551D02*
X005111Y022151D01*
X006711Y022151D02*
X006711Y021551D01*
X007711Y021551D02*
X007711Y022151D01*
X008711Y022151D02*
X008711Y021551D01*
X010311Y021551D02*
X010311Y022151D01*
X011311Y022151D02*
X011311Y021551D01*
X012311Y021551D02*
X012311Y022151D01*
X013311Y022151D02*
X013311Y021551D01*
X014911Y021551D02*
X014911Y022151D01*
X015911Y022151D02*
X015911Y021551D01*
X016911Y021551D02*
X016911Y022151D01*
X017911Y022151D02*
X017911Y021551D01*
X019511Y021551D02*
X019511Y022151D01*
X020511Y022151D02*
X020511Y021551D01*
X021511Y021551D02*
X021511Y022151D01*
X022511Y022151D02*
X022511Y021551D01*
X024111Y021551D02*
X024111Y022151D01*
X025111Y022151D02*
X025111Y021551D01*
X026111Y021551D02*
X026111Y022151D01*
X027111Y022151D02*
X027111Y021551D01*
X028711Y021551D02*
X028711Y022151D01*
X029711Y022151D02*
X029711Y021551D01*
X030711Y021551D02*
X030711Y022151D01*
X037811Y007451D02*
X038411Y007451D01*
X038411Y006451D02*
X037811Y006451D01*
D11*
X037211Y022351D03*
X036211Y022351D03*
X035211Y022351D03*
X034211Y022351D03*
X033211Y022351D03*
X032211Y022351D03*
D12*
X038711Y011351D03*
D13*
X037711Y011351D03*
X037711Y012351D03*
X038711Y012351D03*
X038711Y013351D03*
X037711Y013351D03*
D14*
X008751Y004861D03*
X005271Y004861D03*
D15*
X003811Y004869D02*
X003811Y004433D01*
X002811Y004433D02*
X002811Y004869D01*
X015811Y004869D02*
X015811Y004433D01*
X016811Y004433D02*
X016811Y004869D01*
X017811Y004869D02*
X017811Y004433D01*
X018811Y004433D02*
X018811Y004869D01*
X019811Y004869D02*
X019811Y004433D01*
X020811Y004433D02*
X020811Y004869D01*
X021811Y004869D02*
X021811Y004433D01*
D16*
X002088Y004024D02*
X002079Y004021D01*
X004671Y004021D01*
X004671Y004811D01*
X005221Y004811D01*
X005221Y004911D01*
X005221Y006011D01*
X004801Y006011D01*
X004763Y006000D01*
X004728Y005981D01*
X004701Y005953D01*
X004681Y005919D01*
X000781Y005919D01*
X000781Y005821D02*
X004671Y005821D01*
X004671Y005880D02*
X004671Y004911D01*
X005221Y004911D01*
X005321Y004911D01*
X005871Y004911D01*
X005871Y005880D01*
X005860Y005919D01*
X008161Y005919D01*
X008151Y005880D01*
X008151Y004911D01*
X008701Y004911D01*
X008701Y006011D01*
X008281Y006011D01*
X008243Y006000D01*
X008208Y005981D01*
X008181Y005953D01*
X008161Y005919D01*
X008151Y005821D02*
X005871Y005821D01*
X005860Y005919D02*
X005841Y005953D01*
X005813Y005981D01*
X005778Y006000D01*
X005740Y006011D01*
X005321Y006011D01*
X005321Y004911D01*
X005321Y004811D01*
X005871Y004811D01*
X005871Y004021D01*
X008151Y004021D01*
X008151Y004811D01*
X008701Y004811D01*
X008701Y004911D01*
X008801Y004911D01*
X009351Y004911D01*
X009351Y005880D01*
X009340Y005919D01*
X010075Y005919D01*
X010031Y005964D02*
X010124Y005871D01*
X010245Y005821D01*
X009351Y005821D01*
X009340Y005919D02*
X009321Y005953D01*
X009293Y005981D01*
X009258Y006000D01*
X009220Y006011D01*
X008801Y006011D01*
X008801Y004911D01*
X008801Y004811D01*
X009351Y004811D01*
X009351Y004021D01*
X038143Y004021D01*
X038133Y004024D01*
X038133Y004024D01*
X037879Y004237D01*
X037879Y004237D01*
X037714Y004524D01*
X037714Y004524D01*
X037656Y004851D01*
X037656Y004851D01*
X037714Y005177D01*
X037714Y005177D01*
X037879Y005464D01*
X037879Y005464D01*
X037879Y005464D01*
X038133Y005677D01*
X038133Y005677D01*
X038445Y005791D01*
X038776Y005791D01*
X039088Y005677D01*
X039088Y005677D01*
X039342Y005464D01*
X039342Y005464D01*
X039441Y005293D01*
X039441Y021908D01*
X039342Y021737D01*
X039342Y021737D01*
X039342Y021737D01*
X039088Y021524D01*
X039088Y021524D01*
X038776Y021411D01*
X038445Y021411D01*
X038133Y021524D01*
X038133Y021524D01*
X037879Y021737D01*
X037879Y021737D01*
X037714Y022024D01*
X037714Y022024D01*
X037692Y022149D01*
X037655Y022078D01*
X037607Y022012D01*
X037549Y021954D01*
X037483Y021906D01*
X037410Y021869D01*
X037332Y021843D01*
X037261Y021832D01*
X037261Y022301D01*
X037161Y022301D01*
X037161Y021832D01*
X037089Y021843D01*
X037011Y021869D01*
X036938Y021906D01*
X036872Y021954D01*
X036814Y022012D01*
X036766Y022078D01*
X036729Y022151D01*
X036722Y022173D01*
X036668Y022045D01*
X036516Y021893D01*
X036318Y021811D01*
X036103Y021811D01*
X035905Y021893D01*
X035753Y022045D01*
X035711Y022147D01*
X035668Y022045D01*
X035516Y021893D01*
X035318Y021811D01*
X035103Y021811D01*
X034905Y021893D01*
X034753Y022045D01*
X034711Y022147D01*
X034668Y022045D01*
X034516Y021893D01*
X034318Y021811D01*
X034103Y021811D01*
X033905Y021893D01*
X033753Y022045D01*
X033711Y022147D01*
X033668Y022045D01*
X033516Y021893D01*
X033318Y021811D01*
X033103Y021811D01*
X032905Y021893D01*
X032753Y022045D01*
X032711Y022147D01*
X032668Y022045D01*
X032516Y021893D01*
X032318Y021811D01*
X032103Y021811D01*
X031905Y021893D01*
X031753Y022045D01*
X031671Y022243D01*
X031671Y022458D01*
X031753Y022657D01*
X031905Y022808D01*
X032103Y022891D01*
X032318Y022891D01*
X032516Y022808D01*
X032668Y022657D01*
X032711Y022555D01*
X032753Y022657D01*
X032905Y022808D01*
X033103Y022891D01*
X033318Y022891D01*
X033516Y022808D01*
X033668Y022657D01*
X033711Y022555D01*
X033753Y022657D01*
X033905Y022808D01*
X034103Y022891D01*
X034318Y022891D01*
X034516Y022808D01*
X034668Y022657D01*
X034711Y022555D01*
X034753Y022657D01*
X034905Y022808D01*
X035103Y022891D01*
X035318Y022891D01*
X035516Y022808D01*
X035668Y022657D01*
X035711Y022555D01*
X035753Y022657D01*
X035905Y022808D01*
X036103Y022891D01*
X036318Y022891D01*
X036516Y022808D01*
X036668Y022657D01*
X036722Y022528D01*
X036729Y022550D01*
X036766Y022623D01*
X036814Y022689D01*
X036872Y022747D01*
X036938Y022795D01*
X037011Y022833D01*
X037089Y022858D01*
X037161Y022869D01*
X037161Y022401D01*
X037261Y022401D01*
X037261Y022869D01*
X037332Y022858D01*
X037410Y022833D01*
X037483Y022795D01*
X037549Y022747D01*
X037607Y022689D01*
X037655Y022623D01*
X037692Y022552D01*
X037714Y022677D01*
X037879Y022964D01*
X037879Y022964D01*
X038133Y023177D01*
X038133Y023177D01*
X038143Y023181D01*
X002079Y023181D01*
X002088Y023177D01*
X002088Y023177D01*
X002342Y022964D01*
X002342Y022964D01*
X002508Y022677D01*
X002508Y022677D01*
X002565Y022351D01*
X002508Y022024D01*
X002508Y022024D01*
X002342Y021737D01*
X002088Y021524D01*
X002088Y021524D01*
X001776Y021411D01*
X001445Y021411D01*
X001133Y021524D01*
X001133Y021524D01*
X000879Y021737D01*
X000879Y021737D01*
X000781Y021908D01*
X000781Y005293D01*
X000879Y005464D01*
X000879Y005464D01*
X000879Y005464D01*
X001133Y005677D01*
X001133Y005677D01*
X001445Y005791D01*
X001776Y005791D01*
X002088Y005677D01*
X002088Y005677D01*
X002342Y005464D01*
X002342Y005464D01*
X002508Y005177D01*
X002508Y005177D01*
X002517Y005124D01*
X002591Y005198D01*
X002733Y005257D01*
X002888Y005257D01*
X003030Y005198D01*
X003140Y005089D01*
X003199Y004946D01*
X003199Y004355D01*
X003140Y004213D01*
X003030Y004103D01*
X002888Y004044D01*
X002733Y004044D01*
X002591Y004103D01*
X002482Y004213D01*
X002422Y004355D01*
X002422Y004377D01*
X002342Y004237D01*
X002342Y004237D01*
X002342Y004237D01*
X002088Y004024D01*
X002116Y004048D02*
X002726Y004048D01*
X002896Y004048D02*
X004671Y004048D01*
X004671Y004146D02*
X004045Y004146D01*
X004045Y004147D02*
X004097Y004198D01*
X004137Y004258D01*
X004165Y004325D01*
X004179Y004396D01*
X004179Y004642D01*
X003820Y004642D01*
X003820Y004660D01*
X004179Y004660D01*
X004179Y004905D01*
X004165Y004976D01*
X004137Y005043D01*
X004097Y005103D01*
X004045Y005155D01*
X003985Y005195D01*
X003918Y005223D01*
X003847Y005237D01*
X003820Y005237D01*
X003820Y004660D01*
X003802Y004660D01*
X003802Y005237D01*
X003774Y005237D01*
X003703Y005223D01*
X003636Y005195D01*
X003576Y005155D01*
X003525Y005103D01*
X003484Y005043D01*
X003457Y004976D01*
X003442Y004905D01*
X003442Y004660D01*
X003802Y004660D01*
X003802Y004642D01*
X003820Y004642D01*
X003820Y004064D01*
X003847Y004064D01*
X003918Y004079D01*
X003985Y004106D01*
X004045Y004147D01*
X004128Y004245D02*
X004671Y004245D01*
X004671Y004343D02*
X004168Y004343D01*
X004179Y004442D02*
X004671Y004442D01*
X004671Y004540D02*
X004179Y004540D01*
X004179Y004639D02*
X004671Y004639D01*
X004671Y004737D02*
X004179Y004737D01*
X004179Y004836D02*
X005221Y004836D01*
X005221Y004934D02*
X005321Y004934D01*
X005321Y004836D02*
X008701Y004836D01*
X008701Y004934D02*
X008801Y004934D01*
X008801Y004836D02*
X015422Y004836D01*
X015422Y004934D02*
X009351Y004934D01*
X009351Y005033D02*
X015458Y005033D01*
X015482Y005089D02*
X015422Y004946D01*
X015422Y004355D01*
X015482Y004213D01*
X015591Y004103D01*
X015733Y004044D01*
X015888Y004044D01*
X016030Y004103D01*
X016140Y004213D01*
X016199Y004355D01*
X016199Y004946D01*
X016140Y005089D01*
X016031Y005198D01*
X016031Y005960D01*
X016502Y006431D01*
X022987Y006431D01*
X022981Y006416D01*
X022981Y006285D01*
X023031Y006164D01*
X023054Y006141D01*
X018053Y006141D01*
X017946Y006096D01*
X017565Y005715D01*
X017521Y005608D01*
X017521Y005128D01*
X017482Y005089D01*
X017422Y004946D01*
X017422Y004355D01*
X017482Y004213D01*
X017591Y004103D01*
X017733Y004044D01*
X017888Y004044D01*
X018030Y004103D01*
X018140Y004213D01*
X018199Y004355D01*
X018199Y004946D01*
X018140Y005089D01*
X018101Y005128D01*
X018101Y005431D01*
X018231Y005561D01*
X035668Y005561D01*
X035775Y005605D01*
X037231Y007061D01*
X037536Y007061D01*
X037544Y007052D01*
X037717Y006981D01*
X038504Y006981D01*
X038677Y007052D01*
X038809Y007184D01*
X038881Y007357D01*
X038881Y007544D01*
X038809Y007717D01*
X038677Y007849D01*
X038504Y007921D01*
X037717Y007921D01*
X037544Y007849D01*
X037412Y007717D01*
X037381Y007641D01*
X037053Y007641D01*
X036946Y007596D01*
X036865Y007515D01*
X036865Y007515D01*
X035490Y006141D01*
X023567Y006141D01*
X023590Y006164D01*
X023641Y006285D01*
X023641Y006370D01*
X023731Y006460D01*
X023731Y014460D01*
X024502Y015231D01*
X029602Y015231D01*
X029692Y015321D01*
X029776Y015321D01*
X029898Y015371D01*
X029990Y015464D01*
X030041Y015585D01*
X030041Y015716D01*
X029990Y015838D01*
X029898Y015930D01*
X029776Y015981D01*
X029645Y015981D01*
X029524Y015930D01*
X029431Y015838D01*
X029381Y015716D01*
X029381Y015671D01*
X027742Y015671D01*
X029081Y017010D01*
X029081Y016885D01*
X029131Y016764D01*
X029224Y016671D01*
X029345Y016621D01*
X029476Y016621D01*
X029545Y016649D01*
X029624Y016571D01*
X029745Y016521D01*
X029876Y016521D01*
X029998Y016571D01*
X030090Y016664D01*
X030118Y016731D01*
X030602Y016731D01*
X031002Y017131D01*
X031131Y017260D01*
X031131Y018564D01*
X031191Y018504D01*
X031191Y018360D01*
X031319Y018231D01*
X031691Y017860D01*
X031691Y016960D01*
X031991Y016660D01*
X032119Y016531D01*
X036519Y016531D01*
X036691Y016360D01*
X036691Y010442D01*
X036419Y010171D01*
X035457Y010171D01*
X035398Y010230D01*
X035276Y010281D01*
X035145Y010281D01*
X035024Y010230D01*
X034931Y010138D01*
X034881Y010016D01*
X034881Y009885D01*
X034931Y009764D01*
X035024Y009671D01*
X035145Y009621D01*
X035276Y009621D01*
X035398Y009671D01*
X035457Y009731D01*
X036602Y009731D01*
X036731Y009860D01*
X037131Y010260D01*
X037131Y016542D01*
X037002Y016671D01*
X036702Y016971D01*
X032797Y016971D01*
X032798Y016971D01*
X032890Y017064D01*
X032941Y017185D01*
X032941Y017316D01*
X032890Y017438D01*
X032831Y017497D01*
X032831Y018060D01*
X032902Y018131D01*
X033031Y018260D01*
X033031Y018604D01*
X033090Y018664D01*
X033141Y018785D01*
X033141Y018916D01*
X033090Y019038D01*
X032998Y019130D01*
X032876Y019181D01*
X032745Y019181D01*
X032624Y019130D01*
X032531Y019038D01*
X032481Y018916D01*
X032481Y018785D01*
X032531Y018664D01*
X032591Y018604D01*
X032591Y018442D01*
X032391Y018242D01*
X032391Y017497D01*
X032331Y017438D01*
X032281Y017316D01*
X032281Y017185D01*
X032331Y017064D01*
X032424Y016971D01*
X032424Y016971D01*
X032302Y016971D01*
X032131Y017142D01*
X032131Y018042D01*
X032002Y018171D01*
X031649Y018523D01*
X031690Y018564D01*
X031741Y018685D01*
X031741Y018816D01*
X031690Y018938D01*
X031598Y019030D01*
X031476Y019081D01*
X031345Y019081D01*
X031224Y019030D01*
X031131Y018938D01*
X031131Y018937D01*
X031131Y020060D01*
X031202Y020131D01*
X033219Y020131D01*
X033281Y020070D01*
X033281Y019985D01*
X033331Y019864D01*
X033424Y019771D01*
X033545Y019721D01*
X033676Y019721D01*
X033798Y019771D01*
X033890Y019864D01*
X033941Y019985D01*
X033941Y020116D01*
X033890Y020238D01*
X033798Y020330D01*
X033676Y020381D01*
X033592Y020381D01*
X033402Y020571D01*
X031019Y020571D01*
X030931Y020482D01*
X030931Y021133D01*
X030977Y021152D01*
X031109Y021284D01*
X031181Y021457D01*
X031181Y022244D01*
X031163Y022287D01*
X031191Y022260D01*
X031191Y021060D01*
X031491Y020760D01*
X031619Y020631D01*
X033602Y020631D01*
X033702Y020731D01*
X033831Y020860D01*
X033831Y021164D01*
X033848Y021171D01*
X033940Y021264D01*
X033991Y021385D01*
X033991Y021516D01*
X033940Y021638D01*
X033848Y021730D01*
X033726Y021781D01*
X033595Y021781D01*
X033474Y021730D01*
X033381Y021638D01*
X033331Y021516D01*
X033331Y021385D01*
X033381Y021264D01*
X033391Y021254D01*
X033391Y021071D01*
X031802Y021071D01*
X031631Y021242D01*
X031631Y022442D01*
X031502Y022571D01*
X031202Y022871D01*
X028919Y022871D01*
X028791Y022742D01*
X028669Y022621D01*
X028617Y022621D01*
X028500Y022572D01*
X028131Y022942D01*
X028002Y023071D01*
X005319Y023071D01*
X004891Y022642D01*
X004891Y022568D01*
X004844Y022549D01*
X004712Y022417D01*
X004641Y022244D01*
X004641Y021457D01*
X004712Y021284D01*
X004844Y021152D01*
X005017Y021081D01*
X005204Y021081D01*
X005377Y021152D01*
X005509Y021284D01*
X005581Y021457D01*
X005581Y022244D01*
X005509Y022417D01*
X005398Y022527D01*
X005502Y022631D01*
X008491Y022631D01*
X008491Y022568D01*
X008444Y022549D01*
X008312Y022417D01*
X008241Y022244D01*
X008241Y021457D01*
X008312Y021284D01*
X008444Y021152D01*
X008617Y021081D01*
X008804Y021081D01*
X008977Y021152D01*
X009109Y021284D01*
X009181Y021457D01*
X009181Y022244D01*
X009109Y022417D01*
X008998Y022527D01*
X009102Y022631D01*
X010091Y022631D01*
X010091Y022568D01*
X010044Y022549D01*
X009912Y022417D01*
X009841Y022244D01*
X009841Y021457D01*
X009912Y021284D01*
X010044Y021152D01*
X010217Y021081D01*
X010404Y021081D01*
X010577Y021152D01*
X010709Y021284D01*
X010781Y021457D01*
X010781Y022244D01*
X010709Y022417D01*
X010598Y022527D01*
X010702Y022631D01*
X014779Y022631D01*
X014736Y022587D01*
X014644Y022549D01*
X014512Y022417D01*
X014441Y022244D01*
X014441Y021457D01*
X014512Y021284D01*
X014644Y021152D01*
X014817Y021081D01*
X015004Y021081D01*
X015177Y021152D01*
X015309Y021284D01*
X015381Y021457D01*
X015381Y022244D01*
X015309Y022417D01*
X015248Y022477D01*
X015402Y022631D01*
X019291Y022631D01*
X019291Y022568D01*
X019244Y022549D01*
X019112Y022417D01*
X019041Y022244D01*
X019041Y021457D01*
X019112Y021284D01*
X019244Y021152D01*
X019417Y021081D01*
X019604Y021081D01*
X019777Y021152D01*
X019909Y021284D01*
X019981Y021457D01*
X019981Y022244D01*
X019909Y022417D01*
X019798Y022527D01*
X019902Y022631D01*
X023891Y022631D01*
X023891Y022568D01*
X023844Y022549D01*
X023712Y022417D01*
X023641Y022244D01*
X023641Y021457D01*
X023712Y021284D01*
X023826Y021171D01*
X022795Y021171D01*
X022909Y021284D01*
X022981Y021457D01*
X022981Y022244D01*
X022909Y022417D01*
X022777Y022549D01*
X022604Y022621D01*
X022417Y022621D01*
X022244Y022549D01*
X022112Y022417D01*
X022041Y022244D01*
X022041Y021457D01*
X022112Y021284D01*
X022226Y021171D01*
X021902Y021171D01*
X021848Y021224D01*
X021909Y021284D01*
X021981Y021457D01*
X021981Y022244D01*
X021909Y022417D01*
X021777Y022549D01*
X021604Y022621D01*
X021417Y022621D01*
X021244Y022549D01*
X021112Y022417D01*
X021041Y022244D01*
X021041Y021457D01*
X021112Y021284D01*
X021244Y021152D01*
X021336Y021114D01*
X021419Y021031D01*
X021719Y020731D01*
X022479Y020731D01*
X022419Y020671D01*
X022291Y020542D01*
X022291Y020397D01*
X022231Y020338D01*
X022181Y020216D01*
X022181Y020085D01*
X022231Y019964D01*
X022324Y019871D01*
X022445Y019821D01*
X022576Y019821D01*
X022698Y019871D01*
X022790Y019964D01*
X022841Y020085D01*
X022841Y020216D01*
X022790Y020338D01*
X022749Y020378D01*
X022902Y020531D01*
X023719Y020531D01*
X024879Y019371D01*
X024619Y019371D01*
X024519Y019271D01*
X016502Y019271D01*
X016131Y019642D01*
X016131Y021133D01*
X016177Y021152D01*
X016309Y021284D01*
X016381Y021457D01*
X016381Y022244D01*
X016309Y022417D01*
X016177Y022549D01*
X016004Y022621D01*
X015817Y022621D01*
X015644Y022549D01*
X015512Y022417D01*
X015441Y022244D01*
X015441Y021457D01*
X015512Y021284D01*
X015644Y021152D01*
X015691Y021133D01*
X015691Y019460D01*
X015819Y019331D01*
X016079Y019071D01*
X014902Y019071D01*
X014831Y019142D01*
X014831Y019404D01*
X014890Y019464D01*
X014941Y019585D01*
X014941Y019716D01*
X014890Y019838D01*
X014798Y019930D01*
X014676Y019981D01*
X014545Y019981D01*
X014424Y019930D01*
X014331Y019838D01*
X014281Y019716D01*
X014281Y019585D01*
X014331Y019464D01*
X014391Y019404D01*
X014391Y018960D01*
X014479Y018871D01*
X012431Y018871D01*
X012431Y020642D01*
X012302Y020771D01*
X012002Y021071D01*
X008102Y021071D01*
X007998Y021174D01*
X008109Y021284D01*
X008181Y021457D01*
X008181Y022244D01*
X008109Y022417D01*
X007977Y022549D01*
X007804Y022621D01*
X007617Y022621D01*
X007444Y022549D01*
X007312Y022417D01*
X007241Y022244D01*
X007241Y021457D01*
X007312Y021284D01*
X007444Y021152D01*
X007491Y021133D01*
X007491Y021060D01*
X007791Y020760D01*
X007919Y020631D01*
X011819Y020631D01*
X011991Y020460D01*
X011991Y018797D01*
X011931Y018738D01*
X011881Y018616D01*
X011881Y018485D01*
X011931Y018364D01*
X012024Y018271D01*
X012145Y018221D01*
X012276Y018221D01*
X012398Y018271D01*
X012490Y018364D01*
X012518Y018431D01*
X014479Y018431D01*
X014419Y018371D01*
X014291Y018242D01*
X014291Y014742D01*
X014119Y014571D01*
X007002Y014571D01*
X006631Y014942D01*
X006631Y016542D01*
X006541Y016632D01*
X006541Y016716D01*
X006493Y016831D01*
X006719Y016831D01*
X007091Y016460D01*
X007091Y015760D01*
X007219Y015631D01*
X007619Y015231D01*
X009764Y015231D01*
X009824Y015171D01*
X009945Y015121D01*
X010076Y015121D01*
X010198Y015171D01*
X010290Y015264D01*
X010341Y015385D01*
X010341Y015516D01*
X010293Y015631D01*
X010619Y015631D01*
X011019Y015231D01*
X011064Y015231D01*
X011124Y015171D01*
X011245Y015121D01*
X011376Y015121D01*
X011498Y015171D01*
X011590Y015264D01*
X011641Y015385D01*
X011641Y015516D01*
X011590Y015638D01*
X011498Y015730D01*
X011376Y015781D01*
X011245Y015781D01*
X011137Y015736D01*
X010931Y015942D01*
X010802Y016071D01*
X007931Y016071D01*
X007931Y016842D01*
X007331Y017442D01*
X007202Y017571D01*
X006702Y017571D01*
X006641Y017632D01*
X006641Y017716D01*
X006590Y017838D01*
X008091Y017838D01*
X008091Y017760D02*
X009291Y016560D01*
X009419Y016431D01*
X009964Y016431D01*
X010024Y016371D01*
X010145Y016321D01*
X010276Y016321D01*
X010398Y016371D01*
X010490Y016464D01*
X010541Y016585D01*
X010541Y016716D01*
X010490Y016838D01*
X010398Y016930D01*
X010276Y016981D01*
X010145Y016981D01*
X010024Y016930D01*
X009964Y016871D01*
X009602Y016871D01*
X008531Y017942D01*
X008531Y019560D01*
X008531Y019661D01*
X008541Y019685D01*
X008541Y019816D01*
X008490Y019938D01*
X008398Y020030D01*
X008276Y020081D01*
X008145Y020081D01*
X008024Y020030D01*
X007931Y019938D01*
X007881Y019816D01*
X007881Y019685D01*
X007931Y019564D01*
X008024Y019471D01*
X008091Y019443D01*
X008091Y017760D01*
X008111Y017739D02*
X006631Y017739D01*
X006641Y017641D02*
X008209Y017641D01*
X008308Y017542D02*
X007230Y017542D01*
X007329Y017444D02*
X008406Y017444D01*
X008505Y017345D02*
X007427Y017345D01*
X007526Y017247D02*
X008603Y017247D01*
X008702Y017148D02*
X007624Y017148D01*
X007723Y017050D02*
X008800Y017050D01*
X008899Y016951D02*
X007821Y016951D01*
X007920Y016853D02*
X008997Y016853D01*
X009096Y016754D02*
X007931Y016754D01*
X007931Y016656D02*
X009194Y016656D01*
X009293Y016557D02*
X007931Y016557D01*
X007931Y016459D02*
X009391Y016459D01*
X009511Y016651D02*
X010211Y016651D01*
X010541Y016656D02*
X014291Y016656D01*
X014291Y016754D02*
X010525Y016754D01*
X010475Y016853D02*
X014291Y016853D01*
X014291Y016951D02*
X010347Y016951D01*
X010074Y016951D02*
X009521Y016951D01*
X009423Y017050D02*
X014291Y017050D01*
X014291Y017148D02*
X009324Y017148D01*
X009226Y017247D02*
X014291Y017247D01*
X014291Y017345D02*
X009127Y017345D01*
X009029Y017444D02*
X014291Y017444D01*
X014291Y017542D02*
X008930Y017542D01*
X008832Y017641D02*
X014291Y017641D01*
X014291Y017739D02*
X008733Y017739D01*
X008635Y017838D02*
X014291Y017838D01*
X014291Y017936D02*
X008536Y017936D01*
X008531Y018035D02*
X014291Y018035D01*
X014291Y018133D02*
X008531Y018133D01*
X008531Y018232D02*
X012118Y018232D01*
X011964Y018330D02*
X008531Y018330D01*
X008531Y018429D02*
X011904Y018429D01*
X011881Y018527D02*
X008531Y018527D01*
X008531Y018626D02*
X011884Y018626D01*
X011925Y018724D02*
X008531Y018724D01*
X008531Y018823D02*
X011991Y018823D01*
X011991Y018921D02*
X008531Y018921D01*
X008531Y019020D02*
X011991Y019020D01*
X011991Y019118D02*
X008531Y019118D01*
X008531Y019217D02*
X011991Y019217D01*
X011991Y019315D02*
X008531Y019315D01*
X008531Y019414D02*
X011991Y019414D01*
X011991Y019512D02*
X008531Y019512D01*
X008531Y019611D02*
X011991Y019611D01*
X011991Y019709D02*
X008541Y019709D01*
X008541Y019808D02*
X011991Y019808D01*
X011991Y019906D02*
X008503Y019906D01*
X008423Y020005D02*
X011991Y020005D01*
X011991Y020103D02*
X000781Y020103D01*
X000781Y020005D02*
X007998Y020005D01*
X007918Y019906D02*
X000781Y019906D01*
X000781Y019808D02*
X007881Y019808D01*
X007881Y019709D02*
X000781Y019709D01*
X000781Y019611D02*
X007911Y019611D01*
X007982Y019512D02*
X000781Y019512D01*
X000781Y019414D02*
X008091Y019414D01*
X008091Y019315D02*
X000781Y019315D01*
X000781Y019217D02*
X001708Y019217D01*
X001717Y019221D02*
X001544Y019149D01*
X001412Y019017D01*
X001341Y018844D01*
X001341Y018657D01*
X001412Y018484D01*
X001544Y018352D01*
X001717Y018281D01*
X002504Y018281D01*
X002677Y018352D01*
X002809Y018484D01*
X002881Y018657D01*
X002881Y018844D01*
X002809Y019017D01*
X002677Y019149D01*
X002504Y019221D01*
X001717Y019221D01*
X001513Y019118D02*
X000781Y019118D01*
X000781Y019020D02*
X001415Y019020D01*
X001373Y018921D02*
X000781Y018921D01*
X000781Y018823D02*
X001341Y018823D01*
X001341Y018724D02*
X000781Y018724D01*
X000781Y018626D02*
X001354Y018626D01*
X001394Y018527D02*
X000781Y018527D01*
X000781Y018429D02*
X001468Y018429D01*
X001598Y018330D02*
X000781Y018330D01*
X000781Y018232D02*
X008091Y018232D01*
X008091Y018330D02*
X002624Y018330D01*
X002753Y018429D02*
X008091Y018429D01*
X008091Y018527D02*
X002827Y018527D01*
X002868Y018626D02*
X008091Y018626D01*
X008091Y018724D02*
X002881Y018724D01*
X002881Y018823D02*
X008091Y018823D01*
X008091Y018921D02*
X002849Y018921D01*
X002806Y019020D02*
X008091Y019020D01*
X008091Y019118D02*
X002708Y019118D01*
X002514Y019217D02*
X008091Y019217D01*
X008311Y019651D02*
X008211Y019751D01*
X008311Y019651D02*
X008311Y017851D01*
X009511Y016651D01*
X010050Y016360D02*
X007931Y016360D01*
X007931Y016262D02*
X014291Y016262D01*
X014291Y016360D02*
X010372Y016360D01*
X010485Y016459D02*
X014291Y016459D01*
X014291Y016557D02*
X010529Y016557D01*
X010808Y016065D02*
X014291Y016065D01*
X014291Y016163D02*
X007931Y016163D01*
X007711Y015951D02*
X007711Y016751D01*
X007111Y017351D01*
X006611Y017351D01*
X006311Y017651D01*
X006186Y017345D02*
X004527Y017345D01*
X004602Y017271D02*
X004249Y017623D01*
X004290Y017664D01*
X004341Y017785D01*
X004341Y017916D01*
X004290Y018038D01*
X004198Y018130D01*
X004076Y018181D01*
X003945Y018181D01*
X003824Y018130D01*
X003731Y018038D01*
X003681Y017916D01*
X003681Y017785D01*
X003731Y017664D01*
X003791Y017604D01*
X003791Y017460D01*
X003919Y017331D01*
X004419Y016831D01*
X005928Y016831D01*
X005881Y016716D01*
X005881Y016585D01*
X005931Y016464D01*
X006024Y016371D01*
X006145Y016321D01*
X006191Y016321D01*
X006191Y014760D01*
X006319Y014631D01*
X006819Y014131D01*
X014302Y014131D01*
X014431Y014260D01*
X014731Y014560D01*
X014731Y018060D01*
X014902Y018231D01*
X026919Y018231D01*
X027591Y017560D01*
X027591Y017560D01*
X027719Y017431D01*
X028264Y017431D01*
X028324Y017371D01*
X028445Y017321D01*
X028576Y017321D01*
X028698Y017371D01*
X028790Y017464D01*
X028841Y017585D01*
X028841Y017716D01*
X028790Y017838D01*
X028991Y017838D01*
X028991Y017904D02*
X028991Y017542D01*
X028823Y017542D01*
X028841Y017641D02*
X028991Y017641D01*
X028991Y017739D02*
X028831Y017739D01*
X028790Y017838D02*
X028698Y017930D01*
X028576Y017981D01*
X028445Y017981D01*
X028324Y017930D01*
X028264Y017871D01*
X027902Y017871D01*
X027231Y018542D01*
X027122Y018651D01*
X027202Y018731D01*
X027902Y018731D01*
X028002Y018831D01*
X028164Y018831D01*
X028224Y018771D01*
X028345Y018721D01*
X028476Y018721D01*
X028598Y018771D01*
X028690Y018864D01*
X028718Y018932D01*
X028919Y018731D01*
X029264Y018731D01*
X029324Y018671D01*
X029445Y018621D01*
X029576Y018621D01*
X029691Y018668D01*
X029691Y017660D01*
X029819Y017531D01*
X029819Y017531D01*
X029881Y017470D01*
X029881Y017385D01*
X029887Y017371D01*
X029519Y017371D01*
X029429Y017281D01*
X029352Y017281D01*
X029431Y017360D01*
X029431Y017904D01*
X029490Y017964D01*
X029541Y018085D01*
X029541Y018216D01*
X029490Y018338D01*
X029398Y018430D01*
X029276Y018481D01*
X029145Y018481D01*
X029024Y018430D01*
X028931Y018338D01*
X028881Y018216D01*
X028881Y018085D01*
X028931Y017964D01*
X028991Y017904D01*
X028958Y017936D02*
X028684Y017936D01*
X028901Y018035D02*
X027738Y018035D01*
X027639Y018133D02*
X028881Y018133D01*
X028887Y018232D02*
X027541Y018232D01*
X027442Y018330D02*
X028928Y018330D01*
X029022Y018429D02*
X027344Y018429D01*
X027245Y018527D02*
X029691Y018527D01*
X029691Y018429D02*
X029399Y018429D01*
X029493Y018330D02*
X029691Y018330D01*
X029691Y018232D02*
X029534Y018232D01*
X029541Y018133D02*
X029691Y018133D01*
X029691Y018035D02*
X029520Y018035D01*
X029463Y017936D02*
X029691Y017936D01*
X029691Y017838D02*
X029431Y017838D01*
X029431Y017739D02*
X029691Y017739D01*
X029709Y017641D02*
X029431Y017641D01*
X029431Y017542D02*
X029808Y017542D01*
X029881Y017444D02*
X029431Y017444D01*
X029416Y017345D02*
X029494Y017345D01*
X029611Y017151D02*
X029411Y016951D01*
X029611Y017151D02*
X030411Y017151D01*
X030711Y017451D01*
X030711Y021851D01*
X031181Y021876D02*
X031191Y021876D01*
X031181Y021778D02*
X031191Y021778D01*
X031181Y021679D02*
X031191Y021679D01*
X031181Y021581D02*
X031191Y021581D01*
X031181Y021482D02*
X031191Y021482D01*
X031191Y021384D02*
X031150Y021384D01*
X031109Y021285D02*
X031191Y021285D01*
X031191Y021187D02*
X031011Y021187D01*
X030931Y021088D02*
X031191Y021088D01*
X031260Y020990D02*
X030931Y020990D01*
X030931Y020891D02*
X031359Y020891D01*
X031457Y020793D02*
X030931Y020793D01*
X030931Y020694D02*
X031556Y020694D01*
X031711Y020851D02*
X033511Y020851D01*
X033611Y020951D01*
X033611Y021401D01*
X033661Y021451D01*
X033964Y021581D02*
X038066Y021581D01*
X037948Y021679D02*
X033899Y021679D01*
X033733Y021778D02*
X037856Y021778D01*
X037799Y021876D02*
X037425Y021876D01*
X037261Y021876D02*
X037161Y021876D01*
X037161Y021975D02*
X037261Y021975D01*
X037261Y022073D02*
X037161Y022073D01*
X037161Y022172D02*
X037261Y022172D01*
X037261Y022270D02*
X037161Y022270D01*
X037161Y022467D02*
X037261Y022467D01*
X037261Y022566D02*
X037161Y022566D01*
X037161Y022664D02*
X037261Y022664D01*
X037261Y022763D02*
X037161Y022763D01*
X037161Y022861D02*
X037261Y022861D01*
X037311Y022861D02*
X037820Y022861D01*
X037763Y022763D02*
X037528Y022763D01*
X037626Y022664D02*
X037711Y022664D01*
X037694Y022566D02*
X037685Y022566D01*
X037877Y022960D02*
X028113Y022960D01*
X028211Y022861D02*
X028910Y022861D01*
X028812Y022763D02*
X028310Y022763D01*
X028408Y022664D02*
X028713Y022664D01*
X029011Y022651D02*
X031111Y022651D01*
X031411Y022351D01*
X031411Y021151D01*
X031711Y020851D01*
X031784Y021088D02*
X033391Y021088D01*
X033391Y021187D02*
X031686Y021187D01*
X031631Y021285D02*
X033372Y021285D01*
X033331Y021384D02*
X031631Y021384D01*
X031631Y021482D02*
X033331Y021482D01*
X033357Y021581D02*
X031631Y021581D01*
X031631Y021679D02*
X033422Y021679D01*
X033588Y021778D02*
X031631Y021778D01*
X031631Y021876D02*
X031945Y021876D01*
X031823Y021975D02*
X031631Y021975D01*
X031631Y022073D02*
X031741Y022073D01*
X031700Y022172D02*
X031631Y022172D01*
X031631Y022270D02*
X031671Y022270D01*
X031671Y022369D02*
X031631Y022369D01*
X031605Y022467D02*
X031674Y022467D01*
X031715Y022566D02*
X031507Y022566D01*
X031408Y022664D02*
X031760Y022664D01*
X031859Y022763D02*
X031310Y022763D01*
X031211Y022861D02*
X032032Y022861D01*
X032389Y022861D02*
X033032Y022861D01*
X032859Y022763D02*
X032562Y022763D01*
X032661Y022664D02*
X032760Y022664D01*
X032715Y022566D02*
X032706Y022566D01*
X032680Y022073D02*
X032741Y022073D01*
X032823Y021975D02*
X032598Y021975D01*
X032476Y021876D02*
X032945Y021876D01*
X033476Y021876D02*
X033945Y021876D01*
X033823Y021975D02*
X033598Y021975D01*
X033680Y022073D02*
X033741Y022073D01*
X034476Y021876D02*
X034945Y021876D01*
X034823Y021975D02*
X034598Y021975D01*
X034680Y022073D02*
X034741Y022073D01*
X034715Y022566D02*
X034706Y022566D01*
X034661Y022664D02*
X034760Y022664D01*
X034859Y022763D02*
X034562Y022763D01*
X034389Y022861D02*
X035032Y022861D01*
X035389Y022861D02*
X036032Y022861D01*
X035859Y022763D02*
X035562Y022763D01*
X035661Y022664D02*
X035760Y022664D01*
X035715Y022566D02*
X035706Y022566D01*
X035680Y022073D02*
X035741Y022073D01*
X035823Y021975D02*
X035598Y021975D01*
X035476Y021876D02*
X035945Y021876D01*
X036476Y021876D02*
X036996Y021876D01*
X036851Y021975D02*
X036598Y021975D01*
X036680Y022073D02*
X036769Y022073D01*
X036722Y022172D02*
X036721Y022172D01*
X036706Y022566D02*
X036737Y022566D01*
X036796Y022664D02*
X036661Y022664D01*
X036562Y022763D02*
X036893Y022763D01*
X037110Y022861D02*
X036389Y022861D01*
X037570Y021975D02*
X037742Y021975D01*
X037705Y022073D02*
X037652Y022073D01*
X038248Y021482D02*
X033991Y021482D01*
X033990Y021384D02*
X039441Y021384D01*
X039441Y021482D02*
X038973Y021482D01*
X039155Y021581D02*
X039441Y021581D01*
X039441Y021679D02*
X039273Y021679D01*
X039365Y021778D02*
X039441Y021778D01*
X039441Y021876D02*
X039422Y021876D01*
X039441Y021285D02*
X033949Y021285D01*
X033863Y021187D02*
X039441Y021187D01*
X039441Y021088D02*
X033831Y021088D01*
X033831Y020990D02*
X039441Y020990D01*
X039441Y020891D02*
X033831Y020891D01*
X033764Y020793D02*
X039441Y020793D01*
X039441Y020694D02*
X033665Y020694D01*
X033475Y020497D02*
X039441Y020497D01*
X039441Y020399D02*
X033574Y020399D01*
X033311Y020351D02*
X033611Y020051D01*
X033828Y020300D02*
X039441Y020300D01*
X039441Y020202D02*
X033905Y020202D01*
X033941Y020103D02*
X039441Y020103D01*
X039441Y020005D02*
X033941Y020005D01*
X033908Y019906D02*
X039441Y019906D01*
X039441Y019808D02*
X033834Y019808D01*
X033387Y019808D02*
X031131Y019808D01*
X031131Y019906D02*
X033313Y019906D01*
X033281Y020005D02*
X031131Y020005D01*
X031174Y020103D02*
X033247Y020103D01*
X033311Y020351D02*
X031111Y020351D01*
X030911Y020151D01*
X030911Y017351D01*
X030511Y016951D01*
X029911Y016951D01*
X029811Y016851D01*
X029964Y016557D02*
X032093Y016557D01*
X031994Y016656D02*
X030082Y016656D01*
X029657Y016557D02*
X028628Y016557D01*
X028530Y016459D02*
X036591Y016459D01*
X036690Y016360D02*
X028431Y016360D01*
X028333Y016262D02*
X036691Y016262D01*
X036691Y016163D02*
X028234Y016163D01*
X028136Y016065D02*
X036691Y016065D01*
X036691Y015966D02*
X029811Y015966D01*
X029960Y015868D02*
X036691Y015868D01*
X036691Y015769D02*
X030019Y015769D01*
X030041Y015671D02*
X036691Y015671D01*
X036691Y015572D02*
X030035Y015572D01*
X029994Y015474D02*
X036691Y015474D01*
X036691Y015375D02*
X029902Y015375D01*
X029648Y015277D02*
X036691Y015277D01*
X036691Y015178D02*
X024449Y015178D01*
X024351Y015080D02*
X036691Y015080D01*
X036691Y014981D02*
X024252Y014981D01*
X024154Y014883D02*
X036691Y014883D01*
X036691Y014784D02*
X024055Y014784D01*
X023957Y014686D02*
X036691Y014686D01*
X036691Y014587D02*
X023858Y014587D01*
X023760Y014489D02*
X036691Y014489D01*
X036691Y014390D02*
X023731Y014390D01*
X023731Y014292D02*
X036691Y014292D01*
X036691Y014193D02*
X023731Y014193D01*
X023731Y014095D02*
X036691Y014095D01*
X036691Y013996D02*
X023731Y013996D01*
X023731Y013898D02*
X036691Y013898D01*
X036691Y013799D02*
X023731Y013799D01*
X023731Y013701D02*
X036691Y013701D01*
X036691Y013602D02*
X023731Y013602D01*
X023731Y013504D02*
X036691Y013504D01*
X036691Y013405D02*
X023731Y013405D01*
X023731Y013307D02*
X036691Y013307D01*
X036691Y013208D02*
X023731Y013208D01*
X023731Y013110D02*
X036691Y013110D01*
X036691Y013011D02*
X023731Y013011D01*
X023731Y012913D02*
X036691Y012913D01*
X036691Y012814D02*
X023731Y012814D01*
X023731Y012716D02*
X036691Y012716D01*
X036691Y012617D02*
X023731Y012617D01*
X023731Y012519D02*
X036691Y012519D01*
X036691Y012420D02*
X023731Y012420D01*
X023731Y012322D02*
X036691Y012322D01*
X036691Y012223D02*
X023731Y012223D01*
X023731Y012125D02*
X036691Y012125D01*
X036691Y012026D02*
X023731Y012026D01*
X023731Y011928D02*
X036691Y011928D01*
X036691Y011829D02*
X023731Y011829D01*
X023731Y011731D02*
X036691Y011731D01*
X036691Y011632D02*
X023731Y011632D01*
X023731Y011534D02*
X036691Y011534D01*
X036691Y011435D02*
X023731Y011435D01*
X023731Y011337D02*
X036691Y011337D01*
X036691Y011238D02*
X023731Y011238D01*
X023731Y011140D02*
X036691Y011140D01*
X036691Y011041D02*
X023731Y011041D01*
X023731Y010943D02*
X036691Y010943D01*
X036691Y010844D02*
X023731Y010844D01*
X023731Y010746D02*
X036691Y010746D01*
X036691Y010647D02*
X023731Y010647D01*
X023731Y010549D02*
X036691Y010549D01*
X036691Y010450D02*
X023731Y010450D01*
X023731Y010352D02*
X036600Y010352D01*
X036502Y010253D02*
X035343Y010253D01*
X035079Y010253D02*
X023731Y010253D01*
X023731Y010155D02*
X034948Y010155D01*
X034897Y010056D02*
X023731Y010056D01*
X023731Y009958D02*
X034881Y009958D01*
X034891Y009859D02*
X023731Y009859D01*
X023731Y009761D02*
X034934Y009761D01*
X035045Y009662D02*
X023731Y009662D01*
X023731Y009564D02*
X039441Y009564D01*
X039441Y009662D02*
X035376Y009662D01*
X035211Y009951D02*
X036511Y009951D01*
X036911Y010351D01*
X036911Y016451D01*
X036611Y016751D01*
X032211Y016751D01*
X031911Y017051D01*
X031911Y017951D01*
X031411Y018451D01*
X031411Y018751D01*
X031716Y018626D02*
X032569Y018626D01*
X032591Y018527D02*
X031654Y018527D01*
X031744Y018429D02*
X032578Y018429D01*
X032479Y018330D02*
X031842Y018330D01*
X031941Y018232D02*
X032391Y018232D01*
X032391Y018133D02*
X032039Y018133D01*
X032131Y018035D02*
X032391Y018035D01*
X032391Y017936D02*
X032131Y017936D01*
X032131Y017838D02*
X032391Y017838D01*
X032391Y017739D02*
X032131Y017739D01*
X032131Y017641D02*
X032391Y017641D01*
X032391Y017542D02*
X032131Y017542D01*
X032131Y017444D02*
X032337Y017444D01*
X032293Y017345D02*
X032131Y017345D01*
X032131Y017247D02*
X032281Y017247D01*
X032296Y017148D02*
X032131Y017148D01*
X032223Y017050D02*
X032345Y017050D01*
X032611Y017251D02*
X032611Y018151D01*
X032811Y018351D01*
X032811Y018851D01*
X033115Y018724D02*
X038791Y018724D01*
X038791Y018626D02*
X033052Y018626D01*
X033031Y018527D02*
X038791Y018527D01*
X038791Y018429D02*
X033031Y018429D01*
X033031Y018330D02*
X038791Y018330D01*
X038791Y018232D02*
X033003Y018232D01*
X032904Y018133D02*
X038791Y018133D01*
X038791Y018035D02*
X032831Y018035D01*
X032831Y017936D02*
X038791Y017936D01*
X038791Y017838D02*
X032831Y017838D01*
X032831Y017739D02*
X038791Y017739D01*
X038791Y017641D02*
X032831Y017641D01*
X032831Y017542D02*
X038791Y017542D01*
X038791Y017444D02*
X032884Y017444D01*
X032929Y017345D02*
X038791Y017345D01*
X038791Y017247D02*
X032941Y017247D01*
X032925Y017148D02*
X038791Y017148D01*
X038791Y017050D02*
X032876Y017050D01*
X031896Y016754D02*
X030625Y016754D01*
X030724Y016853D02*
X031797Y016853D01*
X031699Y016951D02*
X030822Y016951D01*
X030921Y017050D02*
X031691Y017050D01*
X031691Y017148D02*
X031019Y017148D01*
X031118Y017247D02*
X031691Y017247D01*
X031691Y017345D02*
X031131Y017345D01*
X031131Y017444D02*
X031691Y017444D01*
X031691Y017542D02*
X031131Y017542D01*
X031131Y017641D02*
X031691Y017641D01*
X031691Y017739D02*
X031131Y017739D01*
X031131Y017838D02*
X031691Y017838D01*
X031614Y017936D02*
X031131Y017936D01*
X031131Y018035D02*
X031515Y018035D01*
X031417Y018133D02*
X031131Y018133D01*
X031131Y018232D02*
X031318Y018232D01*
X031220Y018330D02*
X031131Y018330D01*
X031131Y018429D02*
X031191Y018429D01*
X031167Y018527D02*
X031131Y018527D01*
X031131Y018564D02*
X031131Y018564D01*
X030511Y018751D02*
X030211Y018451D01*
X029911Y018651D02*
X029911Y017751D01*
X030211Y017451D01*
X029211Y017451D02*
X029211Y018151D01*
X029433Y018626D02*
X027147Y018626D01*
X027195Y018724D02*
X028336Y018724D01*
X028485Y018724D02*
X029270Y018724D01*
X029511Y018951D02*
X029011Y018951D01*
X028511Y019451D01*
X027911Y019451D01*
X027611Y019151D01*
X027011Y019151D01*
X026711Y018851D01*
X014811Y018851D01*
X014611Y019051D01*
X014611Y019651D01*
X014840Y019414D02*
X015736Y019414D01*
X015691Y019512D02*
X014910Y019512D01*
X014941Y019611D02*
X015691Y019611D01*
X015691Y019709D02*
X014941Y019709D01*
X014903Y019808D02*
X015691Y019808D01*
X015691Y019906D02*
X014822Y019906D01*
X014399Y019906D02*
X012431Y019906D01*
X012431Y019808D02*
X014318Y019808D01*
X014281Y019709D02*
X012431Y019709D01*
X012431Y019611D02*
X014281Y019611D01*
X014311Y019512D02*
X012431Y019512D01*
X012431Y019414D02*
X014381Y019414D01*
X014391Y019315D02*
X012431Y019315D01*
X012431Y019217D02*
X014391Y019217D01*
X014391Y019118D02*
X012431Y019118D01*
X012431Y019020D02*
X014391Y019020D01*
X014429Y018921D02*
X012431Y018921D01*
X012311Y018651D02*
X012211Y018551D01*
X012211Y020551D01*
X011911Y020851D01*
X008011Y020851D01*
X007711Y021151D01*
X007711Y021851D01*
X008181Y021876D02*
X008241Y021876D01*
X008241Y021778D02*
X008181Y021778D01*
X008181Y021679D02*
X008241Y021679D01*
X008241Y021581D02*
X008181Y021581D01*
X008181Y021482D02*
X008241Y021482D01*
X008271Y021384D02*
X008150Y021384D01*
X008109Y021285D02*
X008312Y021285D01*
X008410Y021187D02*
X008011Y021187D01*
X008084Y021088D02*
X008599Y021088D01*
X008822Y021088D02*
X010199Y021088D01*
X010010Y021187D02*
X009011Y021187D01*
X009109Y021285D02*
X009912Y021285D01*
X009871Y021384D02*
X009150Y021384D01*
X009181Y021482D02*
X009841Y021482D01*
X009841Y021581D02*
X009181Y021581D01*
X009181Y021679D02*
X009841Y021679D01*
X009841Y021778D02*
X009181Y021778D01*
X009181Y021876D02*
X009841Y021876D01*
X009841Y021975D02*
X009181Y021975D01*
X009181Y022073D02*
X009841Y022073D01*
X009841Y022172D02*
X009181Y022172D01*
X009170Y022270D02*
X009851Y022270D01*
X009892Y022369D02*
X009129Y022369D01*
X009059Y022467D02*
X009962Y022467D01*
X010084Y022566D02*
X009037Y022566D01*
X009011Y022851D02*
X008711Y022551D01*
X008711Y021851D01*
X008241Y021975D02*
X008181Y021975D01*
X008181Y022073D02*
X008241Y022073D01*
X008241Y022172D02*
X008181Y022172D01*
X008170Y022270D02*
X008251Y022270D01*
X008292Y022369D02*
X008129Y022369D01*
X008059Y022467D02*
X008362Y022467D01*
X008484Y022566D02*
X007937Y022566D01*
X007484Y022566D02*
X006887Y022566D01*
X006883Y022568D02*
X006816Y022590D01*
X006761Y022598D01*
X006761Y021901D01*
X006661Y021901D01*
X006661Y022598D01*
X006605Y022590D01*
X006538Y022568D01*
X006475Y022536D01*
X006417Y022494D01*
X006367Y022444D01*
X006326Y022386D01*
X006294Y022323D01*
X006272Y022256D01*
X006261Y022186D01*
X006261Y021901D01*
X006661Y021901D01*
X006661Y021801D01*
X006261Y021801D01*
X006261Y021515D01*
X006272Y021445D01*
X006294Y021378D01*
X006326Y021315D01*
X006367Y021257D01*
X006417Y021207D01*
X006475Y021166D01*
X006538Y021134D01*
X006605Y021112D01*
X006661Y021103D01*
X006661Y021801D01*
X006761Y021801D01*
X006761Y021901D01*
X007161Y021901D01*
X007161Y022186D01*
X007150Y022256D01*
X007128Y022323D01*
X007095Y022386D01*
X007054Y022444D01*
X007004Y022494D01*
X006946Y022536D01*
X006883Y022568D01*
X006761Y022566D02*
X006661Y022566D01*
X006661Y022467D02*
X006761Y022467D01*
X006761Y022369D02*
X006661Y022369D01*
X006661Y022270D02*
X006761Y022270D01*
X006761Y022172D02*
X006661Y022172D01*
X006661Y022073D02*
X006761Y022073D01*
X006761Y021975D02*
X006661Y021975D01*
X006661Y021876D02*
X005581Y021876D01*
X005581Y021778D02*
X006261Y021778D01*
X006261Y021679D02*
X005581Y021679D01*
X005581Y021581D02*
X006261Y021581D01*
X006266Y021482D02*
X005581Y021482D01*
X005550Y021384D02*
X006292Y021384D01*
X006347Y021285D02*
X005509Y021285D01*
X005411Y021187D02*
X006446Y021187D01*
X006661Y021187D02*
X006761Y021187D01*
X006761Y021103D02*
X006816Y021112D01*
X006883Y021134D01*
X006946Y021166D01*
X007004Y021207D01*
X007054Y021257D01*
X007095Y021315D01*
X007128Y021378D01*
X007150Y021445D01*
X007161Y021515D01*
X007161Y021801D01*
X006761Y021801D01*
X006761Y021103D01*
X006761Y021285D02*
X006661Y021285D01*
X006661Y021384D02*
X006761Y021384D01*
X006761Y021482D02*
X006661Y021482D01*
X006661Y021581D02*
X006761Y021581D01*
X006761Y021679D02*
X006661Y021679D01*
X006661Y021778D02*
X006761Y021778D01*
X006761Y021876D02*
X007241Y021876D01*
X007241Y021778D02*
X007161Y021778D01*
X007161Y021679D02*
X007241Y021679D01*
X007241Y021581D02*
X007161Y021581D01*
X007155Y021482D02*
X007241Y021482D01*
X007271Y021384D02*
X007129Y021384D01*
X007074Y021285D02*
X007312Y021285D01*
X007410Y021187D02*
X006975Y021187D01*
X007491Y021088D02*
X005222Y021088D01*
X004999Y021088D02*
X004222Y021088D01*
X004204Y021081D02*
X004377Y021152D01*
X004509Y021284D01*
X004581Y021457D01*
X004581Y022244D01*
X004509Y022417D01*
X004377Y022549D01*
X004204Y022621D01*
X004017Y022621D01*
X003844Y022549D01*
X003712Y022417D01*
X003641Y022244D01*
X003641Y021457D01*
X003712Y021284D01*
X003844Y021152D01*
X004017Y021081D01*
X004204Y021081D01*
X003999Y021088D02*
X000781Y021088D01*
X000781Y020990D02*
X007560Y020990D01*
X007659Y020891D02*
X000781Y020891D01*
X000781Y020793D02*
X007757Y020793D01*
X007856Y020694D02*
X000781Y020694D01*
X000781Y020596D02*
X011854Y020596D01*
X011953Y020497D02*
X000781Y020497D01*
X000781Y020399D02*
X011991Y020399D01*
X011991Y020300D02*
X000781Y020300D01*
X000781Y020202D02*
X011991Y020202D01*
X012431Y020202D02*
X015691Y020202D01*
X015691Y020300D02*
X012431Y020300D01*
X012431Y020399D02*
X015691Y020399D01*
X015691Y020497D02*
X012431Y020497D01*
X012431Y020596D02*
X015691Y020596D01*
X015691Y020694D02*
X012378Y020694D01*
X012280Y020793D02*
X015691Y020793D01*
X015691Y020891D02*
X012181Y020891D01*
X012083Y020990D02*
X015691Y020990D01*
X015691Y021088D02*
X015022Y021088D01*
X015211Y021187D02*
X015610Y021187D01*
X015512Y021285D02*
X015309Y021285D01*
X015350Y021384D02*
X015471Y021384D01*
X015441Y021482D02*
X015381Y021482D01*
X015381Y021581D02*
X015441Y021581D01*
X015441Y021679D02*
X015381Y021679D01*
X015381Y021778D02*
X015441Y021778D01*
X015441Y021876D02*
X015381Y021876D01*
X015381Y021975D02*
X015441Y021975D01*
X015441Y022073D02*
X015381Y022073D01*
X015381Y022172D02*
X015441Y022172D01*
X015451Y022270D02*
X015370Y022270D01*
X015329Y022369D02*
X015492Y022369D01*
X015562Y022467D02*
X015259Y022467D01*
X015337Y022566D02*
X015684Y022566D01*
X016137Y022566D02*
X016684Y022566D01*
X016644Y022549D02*
X016512Y022417D01*
X016441Y022244D01*
X016441Y021457D01*
X016512Y021284D01*
X016644Y021152D01*
X016817Y021081D01*
X017004Y021081D01*
X017177Y021152D01*
X017309Y021284D01*
X017381Y021457D01*
X017381Y022244D01*
X017309Y022417D01*
X017177Y022549D01*
X017004Y022621D01*
X016817Y022621D01*
X016644Y022549D01*
X016562Y022467D02*
X016259Y022467D01*
X016329Y022369D02*
X016492Y022369D01*
X016451Y022270D02*
X016370Y022270D01*
X016381Y022172D02*
X016441Y022172D01*
X016441Y022073D02*
X016381Y022073D01*
X016381Y021975D02*
X016441Y021975D01*
X016441Y021876D02*
X016381Y021876D01*
X016381Y021778D02*
X016441Y021778D01*
X016441Y021679D02*
X016381Y021679D01*
X016381Y021581D02*
X016441Y021581D01*
X016441Y021482D02*
X016381Y021482D01*
X016350Y021384D02*
X016471Y021384D01*
X016512Y021285D02*
X016309Y021285D01*
X016211Y021187D02*
X016610Y021187D01*
X016799Y021088D02*
X016131Y021088D01*
X016131Y020990D02*
X021460Y020990D01*
X021362Y021088D02*
X019622Y021088D01*
X019811Y021187D02*
X020246Y021187D01*
X020217Y021207D02*
X020275Y021166D01*
X020338Y021134D01*
X020405Y021112D01*
X020461Y021103D01*
X020461Y021801D01*
X020061Y021801D01*
X020061Y021515D01*
X020072Y021445D01*
X020094Y021378D01*
X020126Y021315D01*
X020167Y021257D01*
X020217Y021207D01*
X020147Y021285D02*
X019909Y021285D01*
X019950Y021384D02*
X020092Y021384D01*
X020066Y021482D02*
X019981Y021482D01*
X019981Y021581D02*
X020061Y021581D01*
X020061Y021679D02*
X019981Y021679D01*
X019981Y021778D02*
X020061Y021778D01*
X020061Y021901D02*
X020461Y021901D01*
X020461Y022598D01*
X020405Y022590D01*
X020338Y022568D01*
X020275Y022536D01*
X020217Y022494D01*
X020167Y022444D01*
X020126Y022386D01*
X020094Y022323D01*
X020072Y022256D01*
X020061Y022186D01*
X020061Y021901D01*
X020061Y021975D02*
X019981Y021975D01*
X019981Y022073D02*
X020061Y022073D01*
X020061Y022172D02*
X019981Y022172D01*
X019970Y022270D02*
X020076Y022270D01*
X020117Y022369D02*
X019929Y022369D01*
X019859Y022467D02*
X020191Y022467D01*
X020334Y022566D02*
X019837Y022566D01*
X019811Y022851D02*
X019511Y022551D01*
X019511Y021851D01*
X019981Y021876D02*
X020461Y021876D01*
X020461Y021901D02*
X020461Y021801D01*
X020561Y021801D01*
X020561Y021901D01*
X020461Y021901D01*
X020461Y021975D02*
X020561Y021975D01*
X020561Y021901D02*
X020561Y022598D01*
X020616Y022590D01*
X020683Y022568D01*
X020746Y022536D01*
X020804Y022494D01*
X020854Y022444D01*
X020895Y022386D01*
X020928Y022323D01*
X020950Y022256D01*
X020961Y022186D01*
X020961Y021901D01*
X020561Y021901D01*
X020561Y021876D02*
X021041Y021876D01*
X021041Y021778D02*
X020961Y021778D01*
X020961Y021801D02*
X020561Y021801D01*
X020561Y021103D01*
X020616Y021112D01*
X020683Y021134D01*
X020746Y021166D01*
X020804Y021207D01*
X020854Y021257D01*
X020895Y021315D01*
X020928Y021378D01*
X020950Y021445D01*
X020961Y021515D01*
X020961Y021801D01*
X020961Y021679D02*
X021041Y021679D01*
X021041Y021581D02*
X020961Y021581D01*
X020955Y021482D02*
X021041Y021482D01*
X021071Y021384D02*
X020929Y021384D01*
X020874Y021285D02*
X021112Y021285D01*
X021210Y021187D02*
X020775Y021187D01*
X020561Y021187D02*
X020461Y021187D01*
X020461Y021285D02*
X020561Y021285D01*
X020561Y021384D02*
X020461Y021384D01*
X020461Y021482D02*
X020561Y021482D01*
X020561Y021581D02*
X020461Y021581D01*
X020461Y021679D02*
X020561Y021679D01*
X020561Y021778D02*
X020461Y021778D01*
X020461Y022073D02*
X020561Y022073D01*
X020561Y022172D02*
X020461Y022172D01*
X020461Y022270D02*
X020561Y022270D01*
X020561Y022369D02*
X020461Y022369D01*
X020461Y022467D02*
X020561Y022467D01*
X020561Y022566D02*
X020461Y022566D01*
X020687Y022566D02*
X021284Y022566D01*
X021162Y022467D02*
X020830Y022467D01*
X020905Y022369D02*
X021092Y022369D01*
X021051Y022270D02*
X020945Y022270D01*
X020961Y022172D02*
X021041Y022172D01*
X021041Y022073D02*
X020961Y022073D01*
X020961Y021975D02*
X021041Y021975D01*
X021511Y021851D02*
X021511Y021251D01*
X021811Y020951D01*
X023911Y020951D01*
X025311Y019551D01*
X026511Y019551D01*
X026711Y019751D01*
X026711Y020251D01*
X026911Y020451D01*
X027811Y020451D01*
X027911Y020551D01*
X029911Y020551D01*
X030011Y020451D01*
X030311Y020551D02*
X030311Y019051D01*
X029911Y018651D01*
X029691Y018626D02*
X029588Y018626D01*
X028827Y018823D02*
X028649Y018823D01*
X028714Y018921D02*
X028729Y018921D01*
X028411Y019051D02*
X027911Y019051D01*
X027811Y018951D01*
X027111Y018951D01*
X026811Y018651D01*
X012311Y018651D01*
X012517Y018429D02*
X014478Y018429D01*
X014379Y018330D02*
X012457Y018330D01*
X012303Y018232D02*
X014291Y018232D01*
X014511Y018151D02*
X014511Y014651D01*
X014211Y014351D01*
X006911Y014351D01*
X006411Y014851D01*
X006411Y016451D01*
X006211Y016651D01*
X006541Y016656D02*
X006894Y016656D01*
X006796Y016754D02*
X006525Y016754D01*
X006615Y016557D02*
X006993Y016557D01*
X007091Y016459D02*
X006631Y016459D01*
X006631Y016360D02*
X007091Y016360D01*
X007091Y016262D02*
X006631Y016262D01*
X006631Y016163D02*
X007091Y016163D01*
X007091Y016065D02*
X006631Y016065D01*
X006631Y015966D02*
X007091Y015966D01*
X007091Y015868D02*
X006631Y015868D01*
X006631Y015769D02*
X007091Y015769D01*
X007179Y015671D02*
X006631Y015671D01*
X006631Y015572D02*
X007278Y015572D01*
X007376Y015474D02*
X006631Y015474D01*
X006631Y015375D02*
X007475Y015375D01*
X007573Y015277D02*
X006631Y015277D01*
X006631Y015178D02*
X009816Y015178D01*
X010011Y015451D02*
X007711Y015451D01*
X007311Y015851D01*
X007311Y016551D01*
X006811Y017051D01*
X004511Y017051D01*
X004011Y017551D01*
X004011Y017851D01*
X004341Y017838D02*
X006031Y017838D01*
X005981Y017716D01*
X005981Y017585D01*
X006031Y017464D01*
X006124Y017371D01*
X006245Y017321D01*
X006329Y017321D01*
X006379Y017271D01*
X004602Y017271D01*
X004429Y017444D02*
X006051Y017444D01*
X005998Y017542D02*
X004330Y017542D01*
X004267Y017641D02*
X005981Y017641D01*
X005990Y017739D02*
X004322Y017739D01*
X004332Y017936D02*
X006138Y017936D01*
X006124Y017930D02*
X006031Y017838D01*
X006124Y017930D02*
X006245Y017981D01*
X006376Y017981D01*
X006498Y017930D01*
X006590Y017838D01*
X006484Y017936D02*
X008091Y017936D01*
X008091Y018035D02*
X004292Y018035D01*
X004191Y018133D02*
X008091Y018133D01*
X005896Y016754D02*
X002881Y016754D01*
X002881Y016844D02*
X002809Y017017D01*
X002677Y017149D01*
X002504Y017221D01*
X001717Y017221D01*
X001544Y017149D01*
X001412Y017017D01*
X001341Y016844D01*
X001341Y016657D01*
X001412Y016484D01*
X001544Y016352D01*
X001717Y016281D01*
X002504Y016281D01*
X002677Y016352D01*
X002809Y016484D01*
X002881Y016657D01*
X002881Y016844D01*
X002877Y016853D02*
X004397Y016853D01*
X004299Y016951D02*
X002836Y016951D01*
X002776Y017050D02*
X004200Y017050D01*
X004102Y017148D02*
X002678Y017148D01*
X002583Y017334D02*
X002516Y017312D01*
X002446Y017301D01*
X002161Y017301D01*
X002161Y017701D01*
X002161Y017801D01*
X002061Y017801D01*
X002061Y018201D01*
X001775Y018201D01*
X001705Y018190D01*
X001638Y018168D01*
X001575Y018136D01*
X001517Y018094D01*
X001467Y018044D01*
X001426Y017986D01*
X001394Y017923D01*
X001372Y017856D01*
X001363Y017801D01*
X002061Y017801D01*
X002061Y017701D01*
X002161Y017701D01*
X002858Y017701D01*
X002850Y017645D01*
X002828Y017578D01*
X002795Y017515D01*
X002754Y017457D01*
X002704Y017407D01*
X002646Y017366D01*
X002583Y017334D01*
X002606Y017345D02*
X003905Y017345D01*
X004003Y017247D02*
X000781Y017247D01*
X000781Y017345D02*
X001615Y017345D01*
X001638Y017334D02*
X001705Y017312D01*
X001775Y017301D01*
X002061Y017301D01*
X002061Y017701D01*
X001363Y017701D01*
X001372Y017645D01*
X001394Y017578D01*
X001426Y017515D01*
X001467Y017457D01*
X001517Y017407D01*
X001575Y017366D01*
X001638Y017334D01*
X001481Y017444D02*
X000781Y017444D01*
X000781Y017542D02*
X001412Y017542D01*
X001373Y017641D02*
X000781Y017641D01*
X000781Y017739D02*
X002061Y017739D01*
X002061Y017641D02*
X002161Y017641D01*
X002161Y017739D02*
X003700Y017739D01*
X003681Y017838D02*
X002852Y017838D01*
X002850Y017856D02*
X002828Y017923D01*
X002795Y017986D01*
X002754Y018044D01*
X002704Y018094D01*
X002646Y018136D01*
X002583Y018168D01*
X002516Y018190D01*
X002446Y018201D01*
X002161Y018201D01*
X002161Y017801D01*
X002858Y017801D01*
X002850Y017856D01*
X002821Y017936D02*
X003689Y017936D01*
X003730Y018035D02*
X002760Y018035D01*
X002650Y018133D02*
X003830Y018133D01*
X003754Y017641D02*
X002848Y017641D01*
X002809Y017542D02*
X003791Y017542D01*
X003806Y017444D02*
X002740Y017444D01*
X002161Y017444D02*
X002061Y017444D01*
X002061Y017542D02*
X002161Y017542D01*
X002161Y017345D02*
X002061Y017345D01*
X001543Y017148D02*
X000781Y017148D01*
X000781Y017050D02*
X001445Y017050D01*
X001385Y016951D02*
X000781Y016951D01*
X000781Y016853D02*
X001344Y016853D01*
X001341Y016754D02*
X000781Y016754D01*
X000781Y016656D02*
X001341Y016656D01*
X001382Y016557D02*
X000781Y016557D01*
X000781Y016459D02*
X001438Y016459D01*
X001536Y016360D02*
X000781Y016360D01*
X000781Y016262D02*
X006191Y016262D01*
X006191Y016163D02*
X000781Y016163D01*
X000781Y016065D02*
X006191Y016065D01*
X006191Y015966D02*
X000781Y015966D01*
X000781Y015868D02*
X006191Y015868D01*
X006191Y015769D02*
X000781Y015769D01*
X000781Y015671D02*
X006191Y015671D01*
X006191Y015572D02*
X000781Y015572D01*
X000781Y015474D02*
X006191Y015474D01*
X006191Y015375D02*
X000781Y015375D01*
X000781Y015277D02*
X006191Y015277D01*
X006191Y015178D02*
X000781Y015178D01*
X000781Y015080D02*
X006191Y015080D01*
X006191Y014981D02*
X000781Y014981D01*
X000781Y014883D02*
X006191Y014883D01*
X006191Y014784D02*
X000781Y014784D01*
X000781Y014686D02*
X006264Y014686D01*
X006363Y014587D02*
X000781Y014587D01*
X000781Y014489D02*
X006461Y014489D01*
X006560Y014390D02*
X000781Y014390D01*
X000781Y014292D02*
X006658Y014292D01*
X006757Y014193D02*
X000781Y014193D01*
X000781Y014095D02*
X022691Y014095D01*
X022691Y014193D02*
X014364Y014193D01*
X014463Y014292D02*
X022691Y014292D01*
X022691Y014390D02*
X014561Y014390D01*
X014660Y014489D02*
X022691Y014489D01*
X022691Y014587D02*
X014731Y014587D01*
X014731Y014686D02*
X022691Y014686D01*
X022691Y014784D02*
X014731Y014784D01*
X014731Y014883D02*
X022691Y014883D01*
X022691Y014942D02*
X022691Y007342D01*
X022619Y007271D01*
X011119Y007271D01*
X010329Y006481D01*
X010245Y006481D01*
X010124Y006430D01*
X010031Y006338D01*
X009981Y006216D01*
X009981Y006085D01*
X010031Y005964D01*
X010008Y006018D02*
X000781Y006018D01*
X000781Y006116D02*
X009981Y006116D01*
X009981Y006215D02*
X000781Y006215D01*
X000781Y006313D02*
X010021Y006313D01*
X010105Y006412D02*
X000781Y006412D01*
X000781Y006510D02*
X010359Y006510D01*
X010457Y006609D02*
X000781Y006609D01*
X000781Y006707D02*
X010556Y006707D01*
X010654Y006806D02*
X000781Y006806D01*
X000781Y006904D02*
X010753Y006904D01*
X010851Y007003D02*
X000781Y007003D01*
X000781Y007101D02*
X010950Y007101D01*
X011048Y007200D02*
X000781Y007200D01*
X000781Y007298D02*
X022647Y007298D01*
X022691Y007397D02*
X000781Y007397D01*
X000781Y007495D02*
X022691Y007495D01*
X022691Y007594D02*
X000781Y007594D01*
X000781Y007692D02*
X022691Y007692D01*
X022691Y007791D02*
X000781Y007791D01*
X000781Y007889D02*
X022691Y007889D01*
X022691Y007988D02*
X000781Y007988D01*
X000781Y008086D02*
X022691Y008086D01*
X022691Y008185D02*
X000781Y008185D01*
X000781Y008283D02*
X022691Y008283D01*
X022691Y008382D02*
X000781Y008382D01*
X000781Y008480D02*
X022691Y008480D01*
X022691Y008579D02*
X000781Y008579D01*
X000781Y008677D02*
X022691Y008677D01*
X022691Y008776D02*
X000781Y008776D01*
X000781Y008874D02*
X022691Y008874D01*
X022691Y008973D02*
X000781Y008973D01*
X000781Y009071D02*
X022691Y009071D01*
X022691Y009170D02*
X000781Y009170D01*
X000781Y009268D02*
X022691Y009268D01*
X022691Y009367D02*
X000781Y009367D01*
X000781Y009465D02*
X022691Y009465D01*
X022691Y009564D02*
X000781Y009564D01*
X000781Y009662D02*
X022691Y009662D01*
X022691Y009761D02*
X000781Y009761D01*
X000781Y009859D02*
X022691Y009859D01*
X022691Y009958D02*
X000781Y009958D01*
X000781Y010056D02*
X022691Y010056D01*
X022691Y010155D02*
X000781Y010155D01*
X000781Y010253D02*
X022691Y010253D01*
X022691Y010352D02*
X000781Y010352D01*
X000781Y010450D02*
X022691Y010450D01*
X022691Y010549D02*
X000781Y010549D01*
X000781Y010647D02*
X022691Y010647D01*
X022691Y010746D02*
X000781Y010746D01*
X000781Y010844D02*
X022691Y010844D01*
X022691Y010943D02*
X000781Y010943D01*
X000781Y011041D02*
X022691Y011041D01*
X022691Y011140D02*
X000781Y011140D01*
X000781Y011238D02*
X022691Y011238D01*
X022691Y011337D02*
X000781Y011337D01*
X000781Y011435D02*
X022691Y011435D01*
X022691Y011534D02*
X000781Y011534D01*
X000781Y011632D02*
X022691Y011632D01*
X022691Y011731D02*
X000781Y011731D01*
X000781Y011829D02*
X022691Y011829D01*
X022691Y011928D02*
X000781Y011928D01*
X000781Y012026D02*
X022691Y012026D01*
X022691Y012125D02*
X000781Y012125D01*
X000781Y012223D02*
X022691Y012223D01*
X022691Y012322D02*
X000781Y012322D01*
X000781Y012420D02*
X022691Y012420D01*
X022691Y012519D02*
X000781Y012519D01*
X000781Y012617D02*
X022691Y012617D01*
X022691Y012716D02*
X000781Y012716D01*
X000781Y012814D02*
X022691Y012814D01*
X022691Y012913D02*
X000781Y012913D01*
X000781Y013011D02*
X022691Y013011D01*
X022691Y013110D02*
X000781Y013110D01*
X000781Y013208D02*
X022691Y013208D01*
X022691Y013307D02*
X000781Y013307D01*
X000781Y013405D02*
X022691Y013405D01*
X022691Y013504D02*
X000781Y013504D01*
X000781Y013602D02*
X022691Y013602D01*
X022691Y013701D02*
X000781Y013701D01*
X000781Y013799D02*
X022691Y013799D01*
X022691Y013898D02*
X000781Y013898D01*
X000781Y013996D02*
X022691Y013996D01*
X023311Y014651D02*
X023311Y007051D01*
X022911Y006651D01*
X016411Y006651D01*
X015811Y006051D01*
X015811Y004651D01*
X016199Y004639D02*
X016442Y004639D01*
X016442Y004642D02*
X016442Y004396D01*
X016457Y004325D01*
X016484Y004258D01*
X016525Y004198D01*
X016576Y004147D01*
X016636Y004106D01*
X016703Y004079D01*
X016774Y004064D01*
X016802Y004064D01*
X016802Y004642D01*
X016820Y004642D01*
X016820Y004660D01*
X017179Y004660D01*
X017179Y004905D01*
X017165Y004976D01*
X017137Y005043D01*
X017097Y005103D01*
X017045Y005155D01*
X016985Y005195D01*
X016918Y005223D01*
X016847Y005237D01*
X016820Y005237D01*
X016820Y004660D01*
X016802Y004660D01*
X016802Y005237D01*
X016774Y005237D01*
X016703Y005223D01*
X016636Y005195D01*
X016576Y005155D01*
X016525Y005103D01*
X016484Y005043D01*
X016457Y004976D01*
X016442Y004905D01*
X016442Y004660D01*
X016802Y004660D01*
X016802Y004642D01*
X016442Y004642D01*
X016442Y004737D02*
X016199Y004737D01*
X016199Y004836D02*
X016442Y004836D01*
X016448Y004934D02*
X016199Y004934D01*
X016163Y005033D02*
X016480Y005033D01*
X016552Y005131D02*
X016097Y005131D01*
X016031Y005230D02*
X016738Y005230D01*
X016802Y005230D02*
X016820Y005230D01*
X016883Y005230D02*
X017521Y005230D01*
X017521Y005328D02*
X016031Y005328D01*
X016031Y005427D02*
X017521Y005427D01*
X017521Y005525D02*
X016031Y005525D01*
X016031Y005624D02*
X017527Y005624D01*
X017572Y005722D02*
X016031Y005722D01*
X016031Y005821D02*
X017670Y005821D01*
X017769Y005919D02*
X016031Y005919D01*
X016089Y006018D02*
X017867Y006018D01*
X017994Y006116D02*
X016187Y006116D01*
X016286Y006215D02*
X023010Y006215D01*
X022981Y006313D02*
X016384Y006313D01*
X016483Y006412D02*
X022981Y006412D01*
X023311Y006351D02*
X023511Y006551D01*
X023511Y014551D01*
X024411Y015451D01*
X029511Y015451D01*
X029711Y015651D01*
X029402Y015769D02*
X027840Y015769D01*
X027742Y015671D02*
X029381Y015671D01*
X029461Y015868D02*
X027939Y015868D01*
X028037Y015966D02*
X029610Y015966D01*
X029260Y016656D02*
X028727Y016656D01*
X028825Y016754D02*
X029140Y016754D01*
X029094Y016853D02*
X028924Y016853D01*
X029022Y016951D02*
X029081Y016951D01*
X028695Y017247D02*
X014731Y017247D01*
X014731Y017345D02*
X028386Y017345D01*
X028635Y017345D02*
X028794Y017345D01*
X028770Y017444D02*
X028892Y017444D01*
X028991Y017542D02*
X027818Y016370D01*
X027790Y016438D01*
X027698Y016530D01*
X027576Y016581D01*
X027445Y016581D01*
X027324Y016530D01*
X027231Y016438D01*
X027211Y016389D01*
X027190Y016438D01*
X027098Y016530D01*
X026976Y016581D01*
X026845Y016581D01*
X026724Y016530D01*
X026664Y016471D01*
X026419Y016471D01*
X026219Y016271D01*
X024019Y016271D01*
X022819Y015071D01*
X022691Y014942D01*
X022730Y014981D02*
X014731Y014981D01*
X014731Y015080D02*
X022828Y015080D01*
X022927Y015178D02*
X014731Y015178D01*
X014731Y015277D02*
X023025Y015277D01*
X023124Y015375D02*
X014731Y015375D01*
X014731Y015474D02*
X023222Y015474D01*
X023321Y015572D02*
X014731Y015572D01*
X014731Y015671D02*
X023419Y015671D01*
X023518Y015769D02*
X014731Y015769D01*
X014731Y015868D02*
X023616Y015868D01*
X023715Y015966D02*
X014731Y015966D01*
X014731Y016065D02*
X023813Y016065D01*
X023912Y016163D02*
X014731Y016163D01*
X014731Y016262D02*
X024010Y016262D01*
X024111Y016051D02*
X022911Y014851D01*
X022911Y007251D01*
X022711Y007051D01*
X011211Y007051D01*
X010311Y006151D01*
X010613Y006018D02*
X012708Y006018D01*
X012731Y005964D02*
X012681Y006085D01*
X012681Y006216D01*
X012731Y006338D01*
X012824Y006430D01*
X012945Y006481D01*
X013029Y006481D01*
X013379Y006831D01*
X011302Y006831D01*
X010641Y006170D01*
X010641Y006085D01*
X010590Y005964D01*
X010498Y005871D01*
X010376Y005821D01*
X010245Y005821D01*
X010376Y005821D02*
X012945Y005821D01*
X013076Y005821D01*
X013198Y005871D01*
X013290Y005964D01*
X013341Y006085D01*
X013341Y006170D01*
X013802Y006631D01*
X016079Y006631D01*
X015719Y006271D01*
X015591Y006142D01*
X015591Y005198D01*
X015482Y005089D01*
X015524Y005131D02*
X009351Y005131D01*
X009351Y005230D02*
X015591Y005230D01*
X015591Y005328D02*
X009351Y005328D01*
X009351Y005427D02*
X015591Y005427D01*
X015591Y005525D02*
X009351Y005525D01*
X009351Y005624D02*
X015591Y005624D01*
X015591Y005722D02*
X009351Y005722D01*
X008801Y005722D02*
X008701Y005722D01*
X008701Y005624D02*
X008801Y005624D01*
X008801Y005525D02*
X008701Y005525D01*
X008701Y005427D02*
X008801Y005427D01*
X008801Y005328D02*
X008701Y005328D01*
X008701Y005230D02*
X008801Y005230D01*
X008801Y005131D02*
X008701Y005131D01*
X008701Y005033D02*
X008801Y005033D01*
X008151Y005033D02*
X005871Y005033D01*
X005871Y005131D02*
X008151Y005131D01*
X008151Y005230D02*
X005871Y005230D01*
X005871Y005328D02*
X008151Y005328D01*
X008151Y005427D02*
X005871Y005427D01*
X005871Y005525D02*
X008151Y005525D01*
X008151Y005624D02*
X005871Y005624D01*
X005871Y005722D02*
X008151Y005722D01*
X008701Y005821D02*
X008801Y005821D01*
X008801Y005919D02*
X008701Y005919D01*
X008151Y004934D02*
X005871Y004934D01*
X005871Y004737D02*
X008151Y004737D01*
X008151Y004639D02*
X005871Y004639D01*
X005871Y004540D02*
X008151Y004540D01*
X008151Y004442D02*
X005871Y004442D01*
X005871Y004343D02*
X008151Y004343D01*
X008151Y004245D02*
X005871Y004245D01*
X005871Y004146D02*
X008151Y004146D01*
X008151Y004048D02*
X005871Y004048D01*
X004671Y004934D02*
X004173Y004934D01*
X004141Y005033D02*
X004671Y005033D01*
X004671Y005131D02*
X004069Y005131D01*
X003883Y005230D02*
X004671Y005230D01*
X004671Y005328D02*
X002420Y005328D01*
X002363Y005427D02*
X004671Y005427D01*
X004671Y005525D02*
X002269Y005525D01*
X002152Y005624D02*
X004671Y005624D01*
X004671Y005722D02*
X001965Y005722D01*
X001257Y005722D02*
X000781Y005722D01*
X000781Y005624D02*
X001069Y005624D01*
X000952Y005525D02*
X000781Y005525D01*
X000781Y005427D02*
X000858Y005427D01*
X000801Y005328D02*
X000781Y005328D01*
X002477Y005230D02*
X002668Y005230D01*
X002524Y005131D02*
X002516Y005131D01*
X002953Y005230D02*
X003738Y005230D01*
X003802Y005230D02*
X003820Y005230D01*
X003820Y005131D02*
X003802Y005131D01*
X003802Y005033D02*
X003820Y005033D01*
X003820Y004934D02*
X003802Y004934D01*
X003802Y004836D02*
X003820Y004836D01*
X003820Y004737D02*
X003802Y004737D01*
X003802Y004642D02*
X003442Y004642D01*
X003442Y004396D01*
X003457Y004325D01*
X003484Y004258D01*
X003525Y004198D01*
X003576Y004147D01*
X003636Y004106D01*
X003703Y004079D01*
X003774Y004064D01*
X003802Y004064D01*
X003802Y004642D01*
X003802Y004639D02*
X003820Y004639D01*
X003820Y004540D02*
X003802Y004540D01*
X003802Y004442D02*
X003820Y004442D01*
X003820Y004343D02*
X003802Y004343D01*
X003802Y004245D02*
X003820Y004245D01*
X003820Y004146D02*
X003802Y004146D01*
X003577Y004146D02*
X003073Y004146D01*
X003153Y004245D02*
X003493Y004245D01*
X003453Y004343D02*
X003194Y004343D01*
X003199Y004442D02*
X003442Y004442D01*
X003442Y004540D02*
X003199Y004540D01*
X003199Y004639D02*
X003442Y004639D01*
X003442Y004737D02*
X003199Y004737D01*
X003199Y004836D02*
X003442Y004836D01*
X003448Y004934D02*
X003199Y004934D01*
X003163Y005033D02*
X003480Y005033D01*
X003552Y005131D02*
X003097Y005131D01*
X002428Y004343D02*
X002403Y004343D01*
X002346Y004245D02*
X002468Y004245D01*
X002548Y004146D02*
X002233Y004146D01*
X004671Y005880D02*
X004681Y005919D01*
X005221Y005919D02*
X005321Y005919D01*
X005321Y005821D02*
X005221Y005821D01*
X005221Y005722D02*
X005321Y005722D01*
X005321Y005624D02*
X005221Y005624D01*
X005221Y005525D02*
X005321Y005525D01*
X005321Y005427D02*
X005221Y005427D01*
X005221Y005328D02*
X005321Y005328D01*
X005321Y005230D02*
X005221Y005230D01*
X005221Y005131D02*
X005321Y005131D01*
X005321Y005033D02*
X005221Y005033D01*
X009351Y004737D02*
X015422Y004737D01*
X015422Y004639D02*
X009351Y004639D01*
X009351Y004540D02*
X015422Y004540D01*
X015422Y004442D02*
X009351Y004442D01*
X009351Y004343D02*
X015428Y004343D01*
X015468Y004245D02*
X009351Y004245D01*
X009351Y004146D02*
X015548Y004146D01*
X015726Y004048D02*
X009351Y004048D01*
X010546Y005919D02*
X012775Y005919D01*
X012731Y005964D02*
X012824Y005871D01*
X012945Y005821D01*
X013076Y005821D02*
X015591Y005821D01*
X015591Y005919D02*
X013246Y005919D01*
X013313Y006018D02*
X015591Y006018D01*
X015591Y006116D02*
X013341Y006116D01*
X013386Y006215D02*
X015663Y006215D01*
X015762Y006313D02*
X013484Y006313D01*
X013583Y006412D02*
X015860Y006412D01*
X015959Y006510D02*
X013681Y006510D01*
X013780Y006609D02*
X016057Y006609D01*
X018101Y005427D02*
X037858Y005427D01*
X037801Y005328D02*
X018101Y005328D01*
X018101Y005230D02*
X018668Y005230D01*
X018733Y005257D02*
X018591Y005198D01*
X018482Y005089D01*
X018422Y004946D01*
X018422Y004355D01*
X018482Y004213D01*
X018591Y004103D01*
X018733Y004044D01*
X018888Y004044D01*
X019030Y004103D01*
X019140Y004213D01*
X019199Y004355D01*
X019199Y004946D01*
X019140Y005089D01*
X019030Y005198D01*
X018888Y005257D01*
X018733Y005257D01*
X018953Y005230D02*
X019668Y005230D01*
X019733Y005257D02*
X019591Y005198D01*
X019482Y005089D01*
X019422Y004946D01*
X019422Y004355D01*
X019482Y004213D01*
X019591Y004103D01*
X019733Y004044D01*
X019888Y004044D01*
X020030Y004103D01*
X020140Y004213D01*
X020199Y004355D01*
X020199Y004946D01*
X020140Y005089D01*
X020030Y005198D01*
X019888Y005257D01*
X019733Y005257D01*
X019953Y005230D02*
X020668Y005230D01*
X020733Y005257D02*
X020591Y005198D01*
X020482Y005089D01*
X020422Y004946D01*
X020422Y004355D01*
X020482Y004213D01*
X020591Y004103D01*
X020733Y004044D01*
X020888Y004044D01*
X021030Y004103D01*
X021140Y004213D01*
X021199Y004355D01*
X021199Y004946D01*
X021140Y005089D01*
X021030Y005198D01*
X020888Y005257D01*
X020733Y005257D01*
X020953Y005230D02*
X021668Y005230D01*
X021733Y005257D02*
X021591Y005198D01*
X021482Y005089D01*
X021422Y004946D01*
X021422Y004355D01*
X021482Y004213D01*
X021591Y004103D01*
X021733Y004044D01*
X021888Y004044D01*
X022030Y004103D01*
X022140Y004213D01*
X022199Y004355D01*
X022199Y004946D01*
X022140Y005089D01*
X022030Y005198D01*
X021888Y005257D01*
X021733Y005257D01*
X021953Y005230D02*
X037744Y005230D01*
X037706Y005131D02*
X022097Y005131D01*
X022163Y005033D02*
X037688Y005033D01*
X037671Y004934D02*
X022199Y004934D01*
X022199Y004836D02*
X037659Y004836D01*
X037676Y004737D02*
X022199Y004737D01*
X022199Y004639D02*
X037693Y004639D01*
X037711Y004540D02*
X022199Y004540D01*
X022199Y004442D02*
X037761Y004442D01*
X037818Y004343D02*
X022194Y004343D01*
X022153Y004245D02*
X037875Y004245D01*
X037988Y004146D02*
X022073Y004146D01*
X021896Y004048D02*
X038105Y004048D01*
X039420Y005328D02*
X039441Y005328D01*
X039441Y005427D02*
X039363Y005427D01*
X039441Y005525D02*
X039269Y005525D01*
X039152Y005624D02*
X039441Y005624D01*
X039441Y005722D02*
X038965Y005722D01*
X039441Y005821D02*
X035991Y005821D01*
X036089Y005919D02*
X039441Y005919D01*
X039441Y006018D02*
X038534Y006018D01*
X038516Y006012D02*
X038583Y006034D01*
X038646Y006066D01*
X038704Y006107D01*
X038754Y006157D01*
X038795Y006215D01*
X039441Y006215D01*
X039441Y006313D02*
X038839Y006313D01*
X038850Y006345D02*
X038858Y006401D01*
X038161Y006401D01*
X038161Y006501D01*
X038061Y006501D01*
X038061Y006901D01*
X037775Y006901D01*
X037705Y006890D01*
X037638Y006868D01*
X037575Y006836D01*
X037517Y006794D01*
X037467Y006744D01*
X037426Y006686D01*
X037394Y006623D01*
X037372Y006556D01*
X037363Y006501D01*
X038061Y006501D01*
X038061Y006401D01*
X038161Y006401D01*
X038161Y006001D01*
X038446Y006001D01*
X038516Y006012D01*
X038712Y006116D02*
X039441Y006116D01*
X039441Y006412D02*
X038161Y006412D01*
X038161Y006501D02*
X038858Y006501D01*
X038850Y006556D01*
X038828Y006623D01*
X038795Y006686D01*
X038754Y006744D01*
X038704Y006794D01*
X038646Y006836D01*
X038583Y006868D01*
X038516Y006890D01*
X038446Y006901D01*
X038161Y006901D01*
X038161Y006501D01*
X038161Y006510D02*
X038061Y006510D01*
X038061Y006412D02*
X036582Y006412D01*
X036680Y006510D02*
X037364Y006510D01*
X037389Y006609D02*
X036779Y006609D01*
X036877Y006707D02*
X037441Y006707D01*
X037534Y006806D02*
X036976Y006806D01*
X037074Y006904D02*
X039441Y006904D01*
X039441Y006806D02*
X038688Y006806D01*
X038780Y006707D02*
X039441Y006707D01*
X039441Y006609D02*
X038832Y006609D01*
X038857Y006510D02*
X039441Y006510D01*
X038850Y006345D02*
X038828Y006278D01*
X038795Y006215D01*
X038161Y006215D02*
X038061Y006215D01*
X038061Y006313D02*
X038161Y006313D01*
X038061Y006401D02*
X038061Y006001D01*
X037775Y006001D01*
X037705Y006012D01*
X037638Y006034D01*
X037575Y006066D01*
X037517Y006107D01*
X037467Y006157D01*
X037426Y006215D01*
X037394Y006278D01*
X037372Y006345D01*
X037363Y006401D01*
X038061Y006401D01*
X038061Y006609D02*
X038161Y006609D01*
X038161Y006707D02*
X038061Y006707D01*
X038061Y006806D02*
X038161Y006806D01*
X038557Y007003D02*
X039441Y007003D01*
X039441Y007101D02*
X038726Y007101D01*
X038815Y007200D02*
X039441Y007200D01*
X039441Y007298D02*
X038856Y007298D01*
X038881Y007397D02*
X039441Y007397D01*
X039441Y007495D02*
X038881Y007495D01*
X038860Y007594D02*
X039441Y007594D01*
X039441Y007692D02*
X038819Y007692D01*
X038735Y007791D02*
X039441Y007791D01*
X039441Y007889D02*
X038580Y007889D01*
X039441Y007988D02*
X023731Y007988D01*
X023731Y008086D02*
X039441Y008086D01*
X039441Y008185D02*
X023731Y008185D01*
X023731Y008283D02*
X039441Y008283D01*
X039441Y008382D02*
X023731Y008382D01*
X023731Y008480D02*
X039441Y008480D01*
X039441Y008579D02*
X023731Y008579D01*
X023731Y008677D02*
X039441Y008677D01*
X039441Y008776D02*
X023731Y008776D01*
X023731Y008874D02*
X039441Y008874D01*
X039441Y008973D02*
X023731Y008973D01*
X023731Y009071D02*
X039441Y009071D01*
X039441Y009170D02*
X023731Y009170D01*
X023731Y009268D02*
X039441Y009268D01*
X039441Y009367D02*
X023731Y009367D01*
X023731Y009465D02*
X039441Y009465D01*
X039441Y009761D02*
X036632Y009761D01*
X036730Y009859D02*
X039441Y009859D01*
X039441Y009958D02*
X036829Y009958D01*
X036927Y010056D02*
X039441Y010056D01*
X039441Y010155D02*
X037026Y010155D01*
X037124Y010253D02*
X039441Y010253D01*
X039441Y010352D02*
X037131Y010352D01*
X037131Y010450D02*
X039441Y010450D01*
X039441Y010549D02*
X037131Y010549D01*
X037131Y010647D02*
X039441Y010647D01*
X039441Y010746D02*
X037131Y010746D01*
X037131Y010844D02*
X039441Y010844D01*
X039441Y010943D02*
X039143Y010943D01*
X039181Y010980D02*
X039081Y010881D01*
X038340Y010881D01*
X038241Y010980D01*
X038241Y011721D01*
X038340Y011821D01*
X039081Y011821D01*
X039181Y011721D01*
X039181Y010980D01*
X039181Y011041D02*
X039441Y011041D01*
X039441Y011140D02*
X039181Y011140D01*
X039181Y011238D02*
X039441Y011238D01*
X039441Y011337D02*
X039181Y011337D01*
X039181Y011435D02*
X039441Y011435D01*
X039441Y011534D02*
X039181Y011534D01*
X039181Y011632D02*
X039441Y011632D01*
X039441Y011731D02*
X039171Y011731D01*
X039441Y011829D02*
X037131Y011829D01*
X037131Y011731D02*
X037426Y011731D01*
X037516Y011821D02*
X037241Y011545D01*
X037241Y011156D01*
X037516Y010881D01*
X037905Y010881D01*
X038181Y011156D01*
X038181Y011545D01*
X037905Y011821D01*
X037516Y011821D01*
X037516Y011881D02*
X037905Y011881D01*
X038181Y012156D01*
X038181Y012210D01*
X038231Y012260D01*
X038241Y012270D01*
X038241Y012156D01*
X038516Y011881D01*
X038905Y011881D01*
X039181Y012156D01*
X039181Y012545D01*
X038905Y012821D01*
X038516Y012821D01*
X038431Y012735D01*
X038431Y012966D01*
X038516Y012881D01*
X038905Y012881D01*
X039181Y013156D01*
X039181Y013545D01*
X038905Y013821D01*
X038692Y013821D01*
X039231Y014360D01*
X039231Y019004D01*
X039290Y019064D01*
X039341Y019185D01*
X039341Y019316D01*
X039290Y019438D01*
X039198Y019530D01*
X039076Y019581D01*
X038945Y019581D01*
X038824Y019530D01*
X038731Y019438D01*
X038681Y019316D01*
X038681Y019185D01*
X038731Y019064D01*
X038791Y019004D01*
X038791Y014542D01*
X038119Y013871D01*
X037991Y013742D01*
X037991Y013707D01*
X037897Y013801D01*
X037761Y013801D01*
X037761Y013401D01*
X037661Y013401D01*
X037661Y013801D01*
X037524Y013801D01*
X037261Y013537D01*
X037261Y013401D01*
X037661Y013401D01*
X037661Y013301D01*
X037761Y013301D01*
X037761Y012901D01*
X037897Y012901D01*
X037991Y012994D01*
X037991Y012735D01*
X037905Y012821D01*
X037516Y012821D01*
X037241Y012545D01*
X037241Y012156D01*
X037516Y011881D01*
X037469Y011928D02*
X037131Y011928D01*
X037131Y012026D02*
X037370Y012026D01*
X037272Y012125D02*
X037131Y012125D01*
X037131Y012223D02*
X037241Y012223D01*
X037241Y012322D02*
X037131Y012322D01*
X037131Y012420D02*
X037241Y012420D01*
X037241Y012519D02*
X037131Y012519D01*
X037131Y012617D02*
X037312Y012617D01*
X037411Y012716D02*
X037131Y012716D01*
X037131Y012814D02*
X037509Y012814D01*
X037524Y012901D02*
X037661Y012901D01*
X037661Y013301D01*
X037261Y013301D01*
X037261Y013164D01*
X037524Y012901D01*
X037512Y012913D02*
X037131Y012913D01*
X037131Y013011D02*
X037414Y013011D01*
X037315Y013110D02*
X037131Y013110D01*
X037131Y013208D02*
X037261Y013208D01*
X037131Y013307D02*
X037661Y013307D01*
X037661Y013405D02*
X037761Y013405D01*
X037761Y013504D02*
X037661Y013504D01*
X037661Y013602D02*
X037761Y013602D01*
X037761Y013701D02*
X037661Y013701D01*
X037661Y013799D02*
X037761Y013799D01*
X037898Y013799D02*
X038048Y013799D01*
X038146Y013898D02*
X037131Y013898D01*
X037131Y013996D02*
X038245Y013996D01*
X038343Y014095D02*
X037131Y014095D01*
X037131Y014193D02*
X038442Y014193D01*
X038540Y014292D02*
X037131Y014292D01*
X037131Y014390D02*
X038639Y014390D01*
X038737Y014489D02*
X037131Y014489D01*
X037131Y014587D02*
X038791Y014587D01*
X038791Y014686D02*
X037131Y014686D01*
X037131Y014784D02*
X038791Y014784D01*
X038791Y014883D02*
X037131Y014883D01*
X037131Y014981D02*
X038791Y014981D01*
X038791Y015080D02*
X037131Y015080D01*
X037131Y015178D02*
X038791Y015178D01*
X038791Y015277D02*
X037131Y015277D01*
X037131Y015375D02*
X038791Y015375D01*
X038791Y015474D02*
X037131Y015474D01*
X037131Y015572D02*
X038791Y015572D01*
X038791Y015671D02*
X037131Y015671D01*
X037131Y015769D02*
X038791Y015769D01*
X038791Y015868D02*
X037131Y015868D01*
X037131Y015966D02*
X038791Y015966D01*
X038791Y016065D02*
X037131Y016065D01*
X037131Y016163D02*
X038791Y016163D01*
X038791Y016262D02*
X037131Y016262D01*
X037131Y016360D02*
X038791Y016360D01*
X038791Y016459D02*
X037131Y016459D01*
X037115Y016557D02*
X038791Y016557D01*
X038791Y016656D02*
X037017Y016656D01*
X036918Y016754D02*
X038791Y016754D01*
X038791Y016853D02*
X036820Y016853D01*
X036721Y016951D02*
X038791Y016951D01*
X039231Y016951D02*
X039441Y016951D01*
X039441Y016853D02*
X039231Y016853D01*
X039231Y016754D02*
X039441Y016754D01*
X039441Y016656D02*
X039231Y016656D01*
X039231Y016557D02*
X039441Y016557D01*
X039441Y016459D02*
X039231Y016459D01*
X039231Y016360D02*
X039441Y016360D01*
X039441Y016262D02*
X039231Y016262D01*
X039231Y016163D02*
X039441Y016163D01*
X039441Y016065D02*
X039231Y016065D01*
X039231Y015966D02*
X039441Y015966D01*
X039441Y015868D02*
X039231Y015868D01*
X039231Y015769D02*
X039441Y015769D01*
X039441Y015671D02*
X039231Y015671D01*
X039231Y015572D02*
X039441Y015572D01*
X039441Y015474D02*
X039231Y015474D01*
X039231Y015375D02*
X039441Y015375D01*
X039441Y015277D02*
X039231Y015277D01*
X039231Y015178D02*
X039441Y015178D01*
X039441Y015080D02*
X039231Y015080D01*
X039231Y014981D02*
X039441Y014981D01*
X039441Y014883D02*
X039231Y014883D01*
X039231Y014784D02*
X039441Y014784D01*
X039441Y014686D02*
X039231Y014686D01*
X039231Y014587D02*
X039441Y014587D01*
X039441Y014489D02*
X039231Y014489D01*
X039231Y014390D02*
X039441Y014390D01*
X039441Y014292D02*
X039163Y014292D01*
X039064Y014193D02*
X039441Y014193D01*
X039441Y014095D02*
X038966Y014095D01*
X038867Y013996D02*
X039441Y013996D01*
X039441Y013898D02*
X038769Y013898D01*
X038927Y013799D02*
X039441Y013799D01*
X039441Y013701D02*
X039025Y013701D01*
X039124Y013602D02*
X039441Y013602D01*
X039441Y013504D02*
X039181Y013504D01*
X039181Y013405D02*
X039441Y013405D01*
X039441Y013307D02*
X039181Y013307D01*
X039181Y013208D02*
X039441Y013208D01*
X039441Y013110D02*
X039134Y013110D01*
X039036Y013011D02*
X039441Y013011D01*
X039441Y012913D02*
X038937Y012913D01*
X038912Y012814D02*
X039441Y012814D01*
X039441Y012716D02*
X039010Y012716D01*
X039109Y012617D02*
X039441Y012617D01*
X039441Y012519D02*
X039181Y012519D01*
X039181Y012420D02*
X039441Y012420D01*
X039441Y012322D02*
X039181Y012322D01*
X039181Y012223D02*
X039441Y012223D01*
X039441Y012125D02*
X039149Y012125D01*
X039051Y012026D02*
X039441Y012026D01*
X039441Y011928D02*
X038952Y011928D01*
X038469Y011928D02*
X037952Y011928D01*
X038051Y012026D02*
X038370Y012026D01*
X038272Y012125D02*
X038149Y012125D01*
X038194Y012223D02*
X038241Y012223D01*
X038011Y012351D02*
X037711Y012351D01*
X038011Y012351D02*
X038211Y012551D01*
X038211Y013651D01*
X039011Y014451D01*
X039011Y019251D01*
X039313Y019118D02*
X039441Y019118D01*
X039441Y019020D02*
X039246Y019020D01*
X039231Y018921D02*
X039441Y018921D01*
X039441Y018823D02*
X039231Y018823D01*
X039231Y018724D02*
X039441Y018724D01*
X039441Y018626D02*
X039231Y018626D01*
X039231Y018527D02*
X039441Y018527D01*
X039441Y018429D02*
X039231Y018429D01*
X039231Y018330D02*
X039441Y018330D01*
X039441Y018232D02*
X039231Y018232D01*
X039231Y018133D02*
X039441Y018133D01*
X039441Y018035D02*
X039231Y018035D01*
X039231Y017936D02*
X039441Y017936D01*
X039441Y017838D02*
X039231Y017838D01*
X039231Y017739D02*
X039441Y017739D01*
X039441Y017641D02*
X039231Y017641D01*
X039231Y017542D02*
X039441Y017542D01*
X039441Y017444D02*
X039231Y017444D01*
X039231Y017345D02*
X039441Y017345D01*
X039441Y017247D02*
X039231Y017247D01*
X039231Y017148D02*
X039441Y017148D01*
X039441Y017050D02*
X039231Y017050D01*
X038791Y018823D02*
X033141Y018823D01*
X033139Y018921D02*
X038791Y018921D01*
X038775Y019020D02*
X033098Y019020D01*
X033010Y019118D02*
X038708Y019118D01*
X038681Y019217D02*
X031131Y019217D01*
X031131Y019315D02*
X038681Y019315D01*
X038721Y019414D02*
X031131Y019414D01*
X031131Y019512D02*
X038805Y019512D01*
X039216Y019512D02*
X039441Y019512D01*
X039441Y019414D02*
X039300Y019414D01*
X039341Y019315D02*
X039441Y019315D01*
X039441Y019217D02*
X039341Y019217D01*
X039441Y019611D02*
X031131Y019611D01*
X031131Y019709D02*
X039441Y019709D01*
X039441Y020596D02*
X030931Y020596D01*
X030931Y020497D02*
X030946Y020497D01*
X030511Y020651D02*
X030511Y018751D01*
X031131Y019020D02*
X031213Y019020D01*
X031131Y019118D02*
X032611Y019118D01*
X032523Y019020D02*
X031608Y019020D01*
X031697Y018921D02*
X032483Y018921D01*
X032481Y018823D02*
X031738Y018823D01*
X031741Y018724D02*
X032506Y018724D01*
X030511Y020651D02*
X030211Y020951D01*
X027311Y020951D01*
X027111Y021151D01*
X027111Y021851D01*
X026111Y021851D02*
X026111Y021251D01*
X026711Y020651D01*
X027711Y020651D01*
X027811Y020751D01*
X030111Y020751D01*
X030311Y020551D01*
X029761Y020151D02*
X029561Y020351D01*
X028011Y020351D01*
X027911Y020251D01*
X027011Y020251D01*
X026911Y020151D01*
X026911Y019651D01*
X026611Y019351D01*
X025211Y019351D01*
X023811Y020751D01*
X022811Y020751D01*
X022511Y020451D01*
X022511Y020151D01*
X022733Y019906D02*
X024344Y019906D01*
X024442Y019808D02*
X016131Y019808D01*
X016131Y019906D02*
X022288Y019906D01*
X022214Y020005D02*
X016131Y020005D01*
X016131Y020103D02*
X022181Y020103D01*
X022181Y020202D02*
X016131Y020202D01*
X016131Y020300D02*
X022215Y020300D01*
X022291Y020399D02*
X016131Y020399D01*
X016131Y020497D02*
X022291Y020497D01*
X022345Y020596D02*
X016131Y020596D01*
X016131Y020694D02*
X022443Y020694D01*
X022770Y020399D02*
X023851Y020399D01*
X023753Y020497D02*
X022868Y020497D01*
X022806Y020300D02*
X023950Y020300D01*
X024048Y020202D02*
X022841Y020202D01*
X022841Y020103D02*
X024147Y020103D01*
X024245Y020005D02*
X022807Y020005D01*
X021657Y020793D02*
X016131Y020793D01*
X016131Y020891D02*
X021559Y020891D01*
X021886Y021187D02*
X022210Y021187D01*
X022112Y021285D02*
X021909Y021285D01*
X021950Y021384D02*
X022071Y021384D01*
X022041Y021482D02*
X021981Y021482D01*
X021981Y021581D02*
X022041Y021581D01*
X022041Y021679D02*
X021981Y021679D01*
X021981Y021778D02*
X022041Y021778D01*
X022041Y021876D02*
X021981Y021876D01*
X021981Y021975D02*
X022041Y021975D01*
X022041Y022073D02*
X021981Y022073D01*
X021981Y022172D02*
X022041Y022172D01*
X022051Y022270D02*
X021970Y022270D01*
X021929Y022369D02*
X022092Y022369D01*
X022162Y022467D02*
X021859Y022467D01*
X021737Y022566D02*
X022284Y022566D01*
X022737Y022566D02*
X023884Y022566D01*
X023762Y022467D02*
X022859Y022467D01*
X022929Y022369D02*
X023692Y022369D01*
X023651Y022270D02*
X022970Y022270D01*
X022981Y022172D02*
X023641Y022172D01*
X023641Y022073D02*
X022981Y022073D01*
X022981Y021975D02*
X023641Y021975D01*
X023641Y021876D02*
X022981Y021876D01*
X022981Y021778D02*
X023641Y021778D01*
X023641Y021679D02*
X022981Y021679D01*
X022981Y021581D02*
X023641Y021581D01*
X023641Y021482D02*
X022981Y021482D01*
X022950Y021384D02*
X023671Y021384D01*
X023712Y021285D02*
X022909Y021285D01*
X022811Y021187D02*
X023810Y021187D01*
X024111Y021251D02*
X024411Y020951D01*
X025911Y020951D01*
X026311Y020551D01*
X026311Y019851D01*
X026711Y019151D02*
X027111Y019551D01*
X027311Y019551D01*
X027511Y019751D01*
X027511Y019951D01*
X026711Y019151D02*
X024711Y019151D01*
X024611Y019051D01*
X016411Y019051D01*
X015911Y019551D01*
X015911Y021851D01*
X014911Y021851D02*
X014911Y022451D01*
X015311Y022851D01*
X010611Y022851D01*
X010311Y022551D01*
X010311Y021851D01*
X010781Y021876D02*
X010841Y021876D01*
X010841Y021778D02*
X010781Y021778D01*
X010781Y021679D02*
X010841Y021679D01*
X010841Y021581D02*
X010781Y021581D01*
X010781Y021482D02*
X010841Y021482D01*
X010841Y021457D02*
X010912Y021284D01*
X011044Y021152D01*
X011217Y021081D01*
X011404Y021081D01*
X011577Y021152D01*
X011709Y021284D01*
X011781Y021457D01*
X011781Y022244D01*
X011709Y022417D01*
X011577Y022549D01*
X011404Y022621D01*
X011217Y022621D01*
X011044Y022549D01*
X010912Y022417D01*
X010841Y022244D01*
X010841Y021457D01*
X010871Y021384D02*
X010750Y021384D01*
X010709Y021285D02*
X010912Y021285D01*
X011010Y021187D02*
X010611Y021187D01*
X010422Y021088D02*
X011199Y021088D01*
X011422Y021088D02*
X012199Y021088D01*
X012217Y021081D02*
X012044Y021152D01*
X011912Y021284D01*
X011841Y021457D01*
X011841Y022244D01*
X011912Y022417D01*
X012044Y022549D01*
X012217Y022621D01*
X012404Y022621D01*
X012577Y022549D01*
X012709Y022417D01*
X012781Y022244D01*
X012781Y021457D01*
X012709Y021284D01*
X012577Y021152D01*
X012404Y021081D01*
X012217Y021081D01*
X012422Y021088D02*
X014799Y021088D01*
X014610Y021187D02*
X013575Y021187D01*
X013604Y021207D02*
X013654Y021257D01*
X013695Y021315D01*
X013728Y021378D01*
X013750Y021445D01*
X013761Y021515D01*
X013761Y021801D01*
X013361Y021801D01*
X013361Y021901D01*
X013261Y021901D01*
X013261Y022598D01*
X013205Y022590D01*
X013138Y022568D01*
X013075Y022536D01*
X013017Y022494D01*
X012967Y022444D01*
X012926Y022386D01*
X012894Y022323D01*
X012872Y022256D01*
X012861Y022186D01*
X012861Y021901D01*
X013261Y021901D01*
X013261Y021801D01*
X012861Y021801D01*
X012861Y021515D01*
X012872Y021445D01*
X012894Y021378D01*
X012926Y021315D01*
X012967Y021257D01*
X013017Y021207D01*
X013075Y021166D01*
X013138Y021134D01*
X013205Y021112D01*
X013261Y021103D01*
X013261Y021801D01*
X013361Y021801D01*
X013361Y021103D01*
X013416Y021112D01*
X013483Y021134D01*
X013546Y021166D01*
X013604Y021207D01*
X013674Y021285D02*
X014512Y021285D01*
X014471Y021384D02*
X013729Y021384D01*
X013755Y021482D02*
X014441Y021482D01*
X014441Y021581D02*
X013761Y021581D01*
X013761Y021679D02*
X014441Y021679D01*
X014441Y021778D02*
X013761Y021778D01*
X013761Y021901D02*
X013761Y022186D01*
X013750Y022256D01*
X013728Y022323D01*
X013695Y022386D01*
X013654Y022444D01*
X013604Y022494D01*
X013546Y022536D01*
X013483Y022568D01*
X013416Y022590D01*
X013361Y022598D01*
X013361Y021901D01*
X013761Y021901D01*
X013761Y021975D02*
X014441Y021975D01*
X014441Y022073D02*
X013761Y022073D01*
X013761Y022172D02*
X014441Y022172D01*
X014451Y022270D02*
X013745Y022270D01*
X013705Y022369D02*
X014492Y022369D01*
X014562Y022467D02*
X013630Y022467D01*
X013487Y022566D02*
X014684Y022566D01*
X015311Y022851D02*
X019811Y022851D01*
X024411Y022851D01*
X024111Y022551D01*
X024111Y021851D01*
X024111Y021251D01*
X024411Y022851D02*
X027911Y022851D01*
X028711Y022051D01*
X028711Y021851D01*
X028711Y022351D01*
X029011Y022651D01*
X028014Y023058D02*
X037991Y023058D01*
X038109Y023157D02*
X002112Y023157D01*
X002230Y023058D02*
X005307Y023058D01*
X005209Y022960D02*
X002344Y022960D01*
X002401Y022861D02*
X005110Y022861D01*
X005012Y022763D02*
X002458Y022763D01*
X002510Y022664D02*
X004913Y022664D01*
X004884Y022566D02*
X004337Y022566D01*
X004459Y022467D02*
X004762Y022467D01*
X004692Y022369D02*
X004529Y022369D01*
X004570Y022270D02*
X004651Y022270D01*
X004641Y022172D02*
X004581Y022172D01*
X004581Y022073D02*
X004641Y022073D01*
X004641Y021975D02*
X004581Y021975D01*
X004581Y021876D02*
X004641Y021876D01*
X004641Y021778D02*
X004581Y021778D01*
X004581Y021679D02*
X004641Y021679D01*
X004641Y021581D02*
X004581Y021581D01*
X004581Y021482D02*
X004641Y021482D01*
X004671Y021384D02*
X004550Y021384D01*
X004509Y021285D02*
X004712Y021285D01*
X004810Y021187D02*
X004411Y021187D01*
X003810Y021187D02*
X003375Y021187D01*
X003404Y021207D02*
X003454Y021257D01*
X003495Y021315D01*
X003528Y021378D01*
X003550Y021445D01*
X003561Y021515D01*
X003561Y021801D01*
X003161Y021801D01*
X003161Y021901D01*
X003061Y021901D01*
X003061Y022598D01*
X003005Y022590D01*
X002938Y022568D01*
X002875Y022536D01*
X002817Y022494D01*
X002767Y022444D01*
X002726Y022386D01*
X002694Y022323D01*
X002672Y022256D01*
X002661Y022186D01*
X002661Y021901D01*
X003061Y021901D01*
X003061Y021801D01*
X002661Y021801D01*
X002661Y021515D01*
X002672Y021445D01*
X002694Y021378D01*
X002726Y021315D01*
X002767Y021257D01*
X002817Y021207D01*
X002875Y021166D01*
X002938Y021134D01*
X003005Y021112D01*
X003061Y021103D01*
X003061Y021801D01*
X003161Y021801D01*
X003161Y021103D01*
X003216Y021112D01*
X003283Y021134D01*
X003346Y021166D01*
X003404Y021207D01*
X003474Y021285D02*
X003712Y021285D01*
X003671Y021384D02*
X003529Y021384D01*
X003555Y021482D02*
X003641Y021482D01*
X003641Y021581D02*
X003561Y021581D01*
X003561Y021679D02*
X003641Y021679D01*
X003641Y021778D02*
X003561Y021778D01*
X003561Y021901D02*
X003561Y022186D01*
X003550Y022256D01*
X003528Y022323D01*
X003495Y022386D01*
X003454Y022444D01*
X003404Y022494D01*
X003346Y022536D01*
X003283Y022568D01*
X003216Y022590D01*
X003161Y022598D01*
X003161Y021901D01*
X003561Y021901D01*
X003561Y021975D02*
X003641Y021975D01*
X003641Y022073D02*
X003561Y022073D01*
X003561Y022172D02*
X003641Y022172D01*
X003651Y022270D02*
X003545Y022270D01*
X003505Y022369D02*
X003692Y022369D01*
X003762Y022467D02*
X003430Y022467D01*
X003287Y022566D02*
X003884Y022566D01*
X003161Y022566D02*
X003061Y022566D01*
X003061Y022467D02*
X003161Y022467D01*
X003161Y022369D02*
X003061Y022369D01*
X003061Y022270D02*
X003161Y022270D01*
X003161Y022172D02*
X003061Y022172D01*
X003061Y022073D02*
X003161Y022073D01*
X003161Y021975D02*
X003061Y021975D01*
X003061Y021876D02*
X002422Y021876D01*
X002365Y021778D02*
X002661Y021778D01*
X002661Y021679D02*
X002273Y021679D01*
X002155Y021581D02*
X002661Y021581D01*
X002666Y021482D02*
X001973Y021482D01*
X002479Y021975D02*
X002661Y021975D01*
X002661Y022073D02*
X002516Y022073D01*
X002534Y022172D02*
X002661Y022172D01*
X002676Y022270D02*
X002551Y022270D01*
X002562Y022369D02*
X002717Y022369D01*
X002791Y022467D02*
X002545Y022467D01*
X002527Y022566D02*
X002934Y022566D01*
X003161Y021876D02*
X003641Y021876D01*
X003161Y021778D02*
X003061Y021778D01*
X003061Y021679D02*
X003161Y021679D01*
X003161Y021581D02*
X003061Y021581D01*
X003061Y021482D02*
X003161Y021482D01*
X003161Y021384D02*
X003061Y021384D01*
X003061Y021285D02*
X003161Y021285D01*
X003161Y021187D02*
X003061Y021187D01*
X002846Y021187D02*
X000781Y021187D01*
X000781Y021285D02*
X002747Y021285D01*
X002692Y021384D02*
X000781Y021384D01*
X000781Y021482D02*
X001248Y021482D01*
X001066Y021581D02*
X000781Y021581D01*
X000781Y021679D02*
X000948Y021679D01*
X000856Y021778D02*
X000781Y021778D01*
X000781Y021876D02*
X000799Y021876D01*
X005111Y021851D02*
X005111Y022551D01*
X005411Y022851D01*
X009011Y022851D01*
X010611Y022851D01*
X010637Y022566D02*
X011084Y022566D01*
X010962Y022467D02*
X010659Y022467D01*
X010729Y022369D02*
X010892Y022369D01*
X010851Y022270D02*
X010770Y022270D01*
X010781Y022172D02*
X010841Y022172D01*
X010841Y022073D02*
X010781Y022073D01*
X010781Y021975D02*
X010841Y021975D01*
X011537Y022566D02*
X012084Y022566D01*
X011962Y022467D02*
X011659Y022467D01*
X011729Y022369D02*
X011892Y022369D01*
X011851Y022270D02*
X011770Y022270D01*
X011781Y022172D02*
X011841Y022172D01*
X011841Y022073D02*
X011781Y022073D01*
X011781Y021975D02*
X011841Y021975D01*
X011841Y021876D02*
X011781Y021876D01*
X011781Y021778D02*
X011841Y021778D01*
X011841Y021679D02*
X011781Y021679D01*
X011781Y021581D02*
X011841Y021581D01*
X011841Y021482D02*
X011781Y021482D01*
X011750Y021384D02*
X011871Y021384D01*
X011912Y021285D02*
X011709Y021285D01*
X011611Y021187D02*
X012010Y021187D01*
X012611Y021187D02*
X013046Y021187D01*
X012947Y021285D02*
X012709Y021285D01*
X012750Y021384D02*
X012892Y021384D01*
X012866Y021482D02*
X012781Y021482D01*
X012781Y021581D02*
X012861Y021581D01*
X012861Y021679D02*
X012781Y021679D01*
X012781Y021778D02*
X012861Y021778D01*
X012781Y021876D02*
X013261Y021876D01*
X013261Y021778D02*
X013361Y021778D01*
X013361Y021876D02*
X014441Y021876D01*
X013361Y021975D02*
X013261Y021975D01*
X013261Y022073D02*
X013361Y022073D01*
X013361Y022172D02*
X013261Y022172D01*
X013261Y022270D02*
X013361Y022270D01*
X013361Y022369D02*
X013261Y022369D01*
X013261Y022467D02*
X013361Y022467D01*
X013361Y022566D02*
X013261Y022566D01*
X013134Y022566D02*
X012537Y022566D01*
X012659Y022467D02*
X012991Y022467D01*
X012917Y022369D02*
X012729Y022369D01*
X012770Y022270D02*
X012876Y022270D01*
X012861Y022172D02*
X012781Y022172D01*
X012781Y022073D02*
X012861Y022073D01*
X012861Y021975D02*
X012781Y021975D01*
X013261Y021679D02*
X013361Y021679D01*
X013361Y021581D02*
X013261Y021581D01*
X013261Y021482D02*
X013361Y021482D01*
X013361Y021384D02*
X013261Y021384D01*
X013261Y021285D02*
X013361Y021285D01*
X013361Y021187D02*
X013261Y021187D01*
X012431Y020103D02*
X015691Y020103D01*
X015691Y020005D02*
X012431Y020005D01*
X014831Y019315D02*
X015835Y019315D01*
X015933Y019217D02*
X014831Y019217D01*
X014854Y019118D02*
X016032Y019118D01*
X016359Y019414D02*
X024836Y019414D01*
X024738Y019512D02*
X016260Y019512D01*
X016162Y019611D02*
X024639Y019611D01*
X024541Y019709D02*
X016131Y019709D01*
X016457Y019315D02*
X024564Y019315D01*
X027011Y018451D02*
X014811Y018451D01*
X014511Y018151D01*
X014731Y018035D02*
X027115Y018035D01*
X027017Y018133D02*
X014804Y018133D01*
X014731Y017936D02*
X027214Y017936D01*
X027312Y017838D02*
X014731Y017838D01*
X014731Y017739D02*
X027411Y017739D01*
X027509Y017641D02*
X014731Y017641D01*
X014731Y017542D02*
X027608Y017542D01*
X027706Y017444D02*
X014731Y017444D01*
X014731Y017148D02*
X028597Y017148D01*
X028498Y017050D02*
X014731Y017050D01*
X014731Y016951D02*
X028400Y016951D01*
X028301Y016853D02*
X014731Y016853D01*
X014731Y016754D02*
X028203Y016754D01*
X028104Y016656D02*
X014731Y016656D01*
X014731Y016557D02*
X026788Y016557D01*
X027033Y016557D02*
X027388Y016557D01*
X027252Y016459D02*
X027169Y016459D01*
X026911Y016251D02*
X026511Y016251D01*
X026311Y016051D01*
X024111Y016051D01*
X024211Y015851D02*
X027311Y015851D01*
X027511Y016051D01*
X027511Y016251D01*
X027633Y016557D02*
X028006Y016557D01*
X027907Y016459D02*
X027769Y016459D01*
X027411Y015651D02*
X024311Y015651D01*
X023311Y014651D01*
X023111Y014751D02*
X023111Y007151D01*
X022811Y006851D01*
X013711Y006851D01*
X013011Y006151D01*
X012681Y006116D02*
X010641Y006116D01*
X010686Y006215D02*
X012681Y006215D01*
X012721Y006313D02*
X010784Y006313D01*
X010883Y006412D02*
X012805Y006412D01*
X013059Y006510D02*
X010981Y006510D01*
X011080Y006609D02*
X013157Y006609D01*
X013256Y006707D02*
X011178Y006707D01*
X011277Y006806D02*
X013354Y006806D01*
X016802Y005131D02*
X016820Y005131D01*
X016820Y005033D02*
X016802Y005033D01*
X016802Y004934D02*
X016820Y004934D01*
X016820Y004836D02*
X016802Y004836D01*
X016802Y004737D02*
X016820Y004737D01*
X016820Y004642D02*
X017179Y004642D01*
X017179Y004396D01*
X017165Y004325D01*
X017137Y004258D01*
X017097Y004198D01*
X017045Y004147D01*
X016985Y004106D01*
X016918Y004079D01*
X016847Y004064D01*
X016820Y004064D01*
X016820Y004642D01*
X016820Y004639D02*
X016802Y004639D01*
X016802Y004540D02*
X016820Y004540D01*
X016820Y004442D02*
X016802Y004442D01*
X016802Y004343D02*
X016820Y004343D01*
X016820Y004245D02*
X016802Y004245D01*
X016802Y004146D02*
X016820Y004146D01*
X017045Y004146D02*
X017548Y004146D01*
X017468Y004245D02*
X017128Y004245D01*
X017168Y004343D02*
X017428Y004343D01*
X017422Y004442D02*
X017179Y004442D01*
X017179Y004540D02*
X017422Y004540D01*
X017422Y004639D02*
X017179Y004639D01*
X017179Y004737D02*
X017422Y004737D01*
X017422Y004836D02*
X017179Y004836D01*
X017173Y004934D02*
X017422Y004934D01*
X017458Y005033D02*
X017141Y005033D01*
X017069Y005131D02*
X017521Y005131D01*
X018101Y005131D02*
X018524Y005131D01*
X018458Y005033D02*
X018163Y005033D01*
X018199Y004934D02*
X018422Y004934D01*
X018422Y004836D02*
X018199Y004836D01*
X018199Y004737D02*
X018422Y004737D01*
X018422Y004639D02*
X018199Y004639D01*
X018199Y004540D02*
X018422Y004540D01*
X018422Y004442D02*
X018199Y004442D01*
X018194Y004343D02*
X018428Y004343D01*
X018468Y004245D02*
X018153Y004245D01*
X018073Y004146D02*
X018548Y004146D01*
X018726Y004048D02*
X017896Y004048D01*
X017726Y004048D02*
X015896Y004048D01*
X016073Y004146D02*
X016577Y004146D01*
X016493Y004245D02*
X016153Y004245D01*
X016194Y004343D02*
X016453Y004343D01*
X016442Y004442D02*
X016199Y004442D01*
X016199Y004540D02*
X016442Y004540D01*
X018195Y005525D02*
X037952Y005525D01*
X038069Y005624D02*
X035794Y005624D01*
X035892Y005722D02*
X038257Y005722D01*
X038161Y006018D02*
X038061Y006018D01*
X038061Y006116D02*
X038161Y006116D01*
X037687Y006018D02*
X036188Y006018D01*
X036286Y006116D02*
X037509Y006116D01*
X037426Y006215D02*
X036385Y006215D01*
X036483Y006313D02*
X037382Y006313D01*
X036254Y006904D02*
X023731Y006904D01*
X023731Y006806D02*
X036155Y006806D01*
X036057Y006707D02*
X023731Y006707D01*
X023731Y006609D02*
X035958Y006609D01*
X035860Y006510D02*
X023731Y006510D01*
X023683Y006412D02*
X035761Y006412D01*
X035663Y006313D02*
X023641Y006313D01*
X023611Y006215D02*
X035564Y006215D01*
X036352Y007003D02*
X023731Y007003D01*
X023731Y007101D02*
X036451Y007101D01*
X036549Y007200D02*
X023731Y007200D01*
X023731Y007298D02*
X036648Y007298D01*
X036746Y007397D02*
X023731Y007397D01*
X023731Y007495D02*
X036845Y007495D01*
X036943Y007594D02*
X023731Y007594D01*
X023731Y007692D02*
X037402Y007692D01*
X037486Y007791D02*
X023731Y007791D01*
X023731Y007889D02*
X037641Y007889D01*
X037664Y007003D02*
X037173Y007003D01*
X037131Y010943D02*
X037454Y010943D01*
X037355Y011041D02*
X037131Y011041D01*
X037131Y011140D02*
X037257Y011140D01*
X037241Y011238D02*
X037131Y011238D01*
X037131Y011337D02*
X037241Y011337D01*
X037241Y011435D02*
X037131Y011435D01*
X037131Y011534D02*
X037241Y011534D01*
X037327Y011632D02*
X037131Y011632D01*
X037995Y011731D02*
X038250Y011731D01*
X038241Y011632D02*
X038094Y011632D01*
X038181Y011534D02*
X038241Y011534D01*
X038241Y011435D02*
X038181Y011435D01*
X038181Y011337D02*
X038241Y011337D01*
X038241Y011238D02*
X038181Y011238D01*
X038164Y011140D02*
X038241Y011140D01*
X038241Y011041D02*
X038066Y011041D01*
X037967Y010943D02*
X038278Y010943D01*
X038431Y012814D02*
X038509Y012814D01*
X038484Y012913D02*
X038431Y012913D01*
X037991Y012913D02*
X037909Y012913D01*
X037912Y012814D02*
X037991Y012814D01*
X037761Y012913D02*
X037661Y012913D01*
X037661Y013011D02*
X037761Y013011D01*
X037761Y013110D02*
X037661Y013110D01*
X037661Y013208D02*
X037761Y013208D01*
X037261Y013405D02*
X037131Y013405D01*
X037131Y013504D02*
X037261Y013504D01*
X037326Y013602D02*
X037131Y013602D01*
X037131Y013701D02*
X037424Y013701D01*
X037523Y013799D02*
X037131Y013799D01*
X029211Y017451D02*
X027411Y015651D01*
X026407Y016459D02*
X014731Y016459D01*
X014731Y016360D02*
X026309Y016360D01*
X027811Y017651D02*
X028511Y017651D01*
X028338Y017936D02*
X027836Y017936D01*
X027811Y017651D02*
X027011Y018451D01*
X027231Y018542D02*
X027231Y018542D01*
X027994Y018823D02*
X028172Y018823D01*
X024211Y015851D02*
X023111Y014751D01*
X014291Y014784D02*
X006788Y014784D01*
X006690Y014883D02*
X014291Y014883D01*
X014291Y014981D02*
X006631Y014981D01*
X006631Y015080D02*
X014291Y015080D01*
X014291Y015178D02*
X011505Y015178D01*
X011596Y015277D02*
X014291Y015277D01*
X014291Y015375D02*
X011637Y015375D01*
X011641Y015474D02*
X014291Y015474D01*
X014291Y015572D02*
X011617Y015572D01*
X011557Y015671D02*
X014291Y015671D01*
X014291Y015769D02*
X011404Y015769D01*
X011217Y015769D02*
X011103Y015769D01*
X011005Y015868D02*
X014291Y015868D01*
X014291Y015966D02*
X010906Y015966D01*
X010711Y015851D02*
X007811Y015851D01*
X007711Y015951D01*
X006050Y016360D02*
X002685Y016360D01*
X002783Y016459D02*
X005936Y016459D01*
X005892Y016557D02*
X002839Y016557D01*
X002880Y016656D02*
X005881Y016656D01*
X006887Y014686D02*
X014234Y014686D01*
X014136Y014587D02*
X006985Y014587D01*
X010205Y015178D02*
X011116Y015178D01*
X010973Y015277D02*
X010296Y015277D01*
X010337Y015375D02*
X010875Y015375D01*
X010776Y015474D02*
X010341Y015474D01*
X010317Y015572D02*
X010678Y015572D01*
X010711Y015851D02*
X011111Y015451D01*
X011311Y015451D01*
X002161Y017838D02*
X002061Y017838D01*
X002061Y017936D02*
X002161Y017936D01*
X002161Y018035D02*
X002061Y018035D01*
X002061Y018133D02*
X002161Y018133D01*
X001572Y018133D02*
X000781Y018133D01*
X000781Y018035D02*
X001461Y018035D01*
X001400Y017936D02*
X000781Y017936D01*
X000781Y017838D02*
X001369Y017838D01*
X005581Y021975D02*
X006261Y021975D01*
X006261Y022073D02*
X005581Y022073D01*
X005581Y022172D02*
X006261Y022172D01*
X006276Y022270D02*
X005570Y022270D01*
X005529Y022369D02*
X006317Y022369D01*
X006391Y022467D02*
X005459Y022467D01*
X005437Y022566D02*
X006534Y022566D01*
X007030Y022467D02*
X007362Y022467D01*
X007292Y022369D02*
X007105Y022369D01*
X007145Y022270D02*
X007251Y022270D01*
X007241Y022172D02*
X007161Y022172D01*
X007161Y022073D02*
X007241Y022073D01*
X007241Y021975D02*
X007161Y021975D01*
X017022Y021088D02*
X019399Y021088D01*
X019210Y021187D02*
X018175Y021187D01*
X018204Y021207D02*
X018254Y021257D01*
X018295Y021315D01*
X018328Y021378D01*
X018350Y021445D01*
X018361Y021515D01*
X018361Y021801D01*
X017961Y021801D01*
X017961Y021901D01*
X017861Y021901D01*
X017861Y022598D01*
X017805Y022590D01*
X017738Y022568D01*
X017675Y022536D01*
X017617Y022494D01*
X017567Y022444D01*
X017526Y022386D01*
X017494Y022323D01*
X017472Y022256D01*
X017461Y022186D01*
X017461Y021901D01*
X017861Y021901D01*
X017861Y021801D01*
X017461Y021801D01*
X017461Y021515D01*
X017472Y021445D01*
X017494Y021378D01*
X017526Y021315D01*
X017567Y021257D01*
X017617Y021207D01*
X017675Y021166D01*
X017738Y021134D01*
X017805Y021112D01*
X017861Y021103D01*
X017861Y021801D01*
X017961Y021801D01*
X017961Y021103D01*
X018016Y021112D01*
X018083Y021134D01*
X018146Y021166D01*
X018204Y021207D01*
X018274Y021285D02*
X019112Y021285D01*
X019071Y021384D02*
X018329Y021384D01*
X018355Y021482D02*
X019041Y021482D01*
X019041Y021581D02*
X018361Y021581D01*
X018361Y021679D02*
X019041Y021679D01*
X019041Y021778D02*
X018361Y021778D01*
X018361Y021901D02*
X018361Y022186D01*
X018350Y022256D01*
X018328Y022323D01*
X018295Y022386D01*
X018254Y022444D01*
X018204Y022494D01*
X018146Y022536D01*
X018083Y022568D01*
X018016Y022590D01*
X017961Y022598D01*
X017961Y021901D01*
X018361Y021901D01*
X018361Y021975D02*
X019041Y021975D01*
X019041Y022073D02*
X018361Y022073D01*
X018361Y022172D02*
X019041Y022172D01*
X019051Y022270D02*
X018345Y022270D01*
X018305Y022369D02*
X019092Y022369D01*
X019162Y022467D02*
X018230Y022467D01*
X018087Y022566D02*
X019284Y022566D01*
X019041Y021876D02*
X017961Y021876D01*
X017961Y021778D02*
X017861Y021778D01*
X017861Y021876D02*
X017381Y021876D01*
X017381Y021778D02*
X017461Y021778D01*
X017461Y021679D02*
X017381Y021679D01*
X017381Y021581D02*
X017461Y021581D01*
X017466Y021482D02*
X017381Y021482D01*
X017350Y021384D02*
X017492Y021384D01*
X017547Y021285D02*
X017309Y021285D01*
X017211Y021187D02*
X017646Y021187D01*
X017861Y021187D02*
X017961Y021187D01*
X017961Y021285D02*
X017861Y021285D01*
X017861Y021384D02*
X017961Y021384D01*
X017961Y021482D02*
X017861Y021482D01*
X017861Y021581D02*
X017961Y021581D01*
X017961Y021679D02*
X017861Y021679D01*
X017861Y021975D02*
X017961Y021975D01*
X017961Y022073D02*
X017861Y022073D01*
X017861Y022172D02*
X017961Y022172D01*
X017961Y022270D02*
X017861Y022270D01*
X017861Y022369D02*
X017961Y022369D01*
X017961Y022467D02*
X017861Y022467D01*
X017861Y022566D02*
X017961Y022566D01*
X017734Y022566D02*
X017137Y022566D01*
X017259Y022467D02*
X017591Y022467D01*
X017517Y022369D02*
X017329Y022369D01*
X017370Y022270D02*
X017476Y022270D01*
X017461Y022172D02*
X017381Y022172D01*
X017381Y022073D02*
X017461Y022073D01*
X017461Y021975D02*
X017381Y021975D01*
X031170Y022270D02*
X031180Y022270D01*
X031181Y022172D02*
X031191Y022172D01*
X031181Y022073D02*
X031191Y022073D01*
X031181Y021975D02*
X031191Y021975D01*
X033389Y022861D02*
X034032Y022861D01*
X033859Y022763D02*
X033562Y022763D01*
X033661Y022664D02*
X033760Y022664D01*
X033715Y022566D02*
X033706Y022566D01*
X021524Y005131D02*
X021097Y005131D01*
X021163Y005033D02*
X021458Y005033D01*
X021422Y004934D02*
X021199Y004934D01*
X021199Y004836D02*
X021422Y004836D01*
X021422Y004737D02*
X021199Y004737D01*
X021199Y004639D02*
X021422Y004639D01*
X021422Y004540D02*
X021199Y004540D01*
X021199Y004442D02*
X021422Y004442D01*
X021428Y004343D02*
X021194Y004343D01*
X021153Y004245D02*
X021468Y004245D01*
X021548Y004146D02*
X021073Y004146D01*
X020896Y004048D02*
X021726Y004048D01*
X020726Y004048D02*
X019896Y004048D01*
X019726Y004048D02*
X018896Y004048D01*
X019073Y004146D02*
X019548Y004146D01*
X019468Y004245D02*
X019153Y004245D01*
X019194Y004343D02*
X019428Y004343D01*
X019422Y004442D02*
X019199Y004442D01*
X019199Y004540D02*
X019422Y004540D01*
X019422Y004639D02*
X019199Y004639D01*
X019199Y004737D02*
X019422Y004737D01*
X019422Y004836D02*
X019199Y004836D01*
X019199Y004934D02*
X019422Y004934D01*
X019458Y005033D02*
X019163Y005033D01*
X019097Y005131D02*
X019524Y005131D01*
X020097Y005131D02*
X020524Y005131D01*
X020458Y005033D02*
X020163Y005033D01*
X020199Y004934D02*
X020422Y004934D01*
X020422Y004836D02*
X020199Y004836D01*
X020199Y004737D02*
X020422Y004737D01*
X020422Y004639D02*
X020199Y004639D01*
X020199Y004540D02*
X020422Y004540D01*
X020422Y004442D02*
X020199Y004442D01*
X020194Y004343D02*
X020428Y004343D01*
X020468Y004245D02*
X020153Y004245D01*
X020073Y004146D02*
X020548Y004146D01*
D17*
X023311Y006351D03*
X024611Y006851D03*
X027611Y006851D03*
X030611Y006851D03*
X033611Y006851D03*
X033611Y008851D03*
X035211Y009951D03*
X033611Y010851D03*
X030611Y010851D03*
X027611Y010851D03*
X024611Y010851D03*
X024611Y008851D03*
X027611Y008851D03*
X030611Y008851D03*
X030611Y012851D03*
X028611Y012851D03*
X028611Y014351D03*
X029711Y015651D03*
X029811Y016851D03*
X029411Y016951D03*
X030211Y017451D03*
X029211Y018151D03*
X028511Y017651D03*
X028111Y018251D03*
X027011Y017951D03*
X028411Y019051D03*
X029511Y018951D03*
X030211Y018451D03*
X031411Y018751D03*
X032311Y018951D03*
X032811Y018851D03*
X033611Y020051D03*
X033661Y021451D03*
X030011Y020451D03*
X029761Y020151D03*
X027511Y019951D03*
X026311Y019851D03*
X025011Y018051D03*
X026911Y016251D03*
X027511Y016251D03*
X030611Y014351D03*
X033611Y014351D03*
X033611Y012851D03*
X037211Y009351D03*
X038011Y009451D03*
X033611Y004851D03*
X030611Y004851D03*
X027611Y004851D03*
X024611Y004851D03*
X013011Y006151D03*
X010311Y006151D03*
X009111Y006351D03*
X008111Y006351D03*
X008111Y007351D03*
X009111Y007351D03*
X009111Y008351D03*
X008111Y008351D03*
X007111Y008351D03*
X004811Y007051D03*
X004011Y006851D03*
X003611Y006151D03*
X003611Y005451D03*
X005611Y006751D03*
X006111Y006151D03*
X006211Y005351D03*
X006211Y004751D03*
X002111Y007351D03*
X001111Y007351D03*
X001111Y008351D03*
X002111Y008351D03*
X003111Y008351D03*
X001111Y006351D03*
X010011Y015451D03*
X011311Y015451D03*
X010211Y016651D03*
X012911Y016551D03*
X012211Y018551D03*
X011411Y018951D03*
X014611Y019651D03*
X008211Y019751D03*
X006311Y017651D03*
X006211Y016651D03*
X006911Y015651D03*
X004011Y017851D03*
X022511Y020151D03*
X031511Y017651D03*
X032611Y017251D03*
X037911Y016251D03*
X039011Y019251D03*
D18*
X037311Y009351D02*
X037211Y009351D01*
X037111Y007351D02*
X038011Y007351D01*
X038111Y007451D01*
X037111Y007351D02*
X035611Y005851D01*
X018111Y005851D01*
X017811Y005551D01*
X017811Y004651D01*
M02*
