G75*
G70*
%OFA0B0*%
%FSLAX24Y24*%
%IPPOS*%
%LPD*%
%AMOC8*
5,1,8,0,0,1.08239X$1,22.5*
%
%ADD10C,0.0060*%
%ADD11C,0.0100*%
%ADD12C,0.0080*%
%ADD13C,0.0050*%
%ADD14R,0.0070X0.0005*%
%ADD15R,0.0110X0.0005*%
%ADD16R,0.0140X0.0005*%
%ADD17R,0.0175X0.0005*%
%ADD18R,0.0195X0.0005*%
%ADD19R,0.0225X0.0005*%
%ADD20R,0.0245X0.0005*%
%ADD21R,0.0270X0.0005*%
%ADD22R,0.0290X0.0005*%
%ADD23R,0.0310X0.0005*%
%ADD24R,0.0330X0.0005*%
%ADD25R,0.0350X0.0005*%
%ADD26R,0.0370X0.0005*%
%ADD27R,0.0390X0.0005*%
%ADD28R,0.0405X0.0005*%
%ADD29R,0.0425X0.0005*%
%ADD30R,0.0440X0.0005*%
%ADD31R,0.0455X0.0005*%
%ADD32R,0.0475X0.0005*%
%ADD33R,0.0495X0.0005*%
%ADD34R,0.0505X0.0005*%
%ADD35R,0.0525X0.0005*%
%ADD36R,0.0545X0.0005*%
%ADD37R,0.0555X0.0005*%
%ADD38R,0.0575X0.0005*%
%ADD39R,0.0590X0.0005*%
%ADD40R,0.0605X0.0005*%
%ADD41R,0.0620X0.0005*%
%ADD42R,0.0635X0.0005*%
%ADD43R,0.0650X0.0005*%
%ADD44R,0.0670X0.0005*%
%ADD45R,0.0680X0.0005*%
%ADD46R,0.0700X0.0005*%
%ADD47R,0.0710X0.0005*%
%ADD48R,0.0730X0.0005*%
%ADD49R,0.0740X0.0005*%
%ADD50R,0.0760X0.0005*%
%ADD51R,0.0770X0.0005*%
%ADD52R,0.0780X0.0005*%
%ADD53R,0.0800X0.0005*%
%ADD54R,0.0810X0.0005*%
%ADD55R,0.0825X0.0005*%
%ADD56R,0.0840X0.0005*%
%ADD57R,0.0855X0.0005*%
%ADD58R,0.0870X0.0005*%
%ADD59R,0.0880X0.0005*%
%ADD60R,0.0895X0.0005*%
%ADD61R,0.0910X0.0005*%
%ADD62R,0.0925X0.0005*%
%ADD63R,0.0935X0.0005*%
%ADD64R,0.0950X0.0005*%
%ADD65R,0.0965X0.0005*%
%ADD66R,0.0975X0.0005*%
%ADD67R,0.0990X0.0005*%
%ADD68R,0.1005X0.0005*%
%ADD69R,0.1015X0.0005*%
%ADD70R,0.1030X0.0005*%
%ADD71R,0.1045X0.0005*%
%ADD72R,0.1055X0.0005*%
%ADD73R,0.1065X0.0005*%
%ADD74R,0.1085X0.0005*%
%ADD75R,0.1095X0.0005*%
%ADD76R,0.1105X0.0005*%
%ADD77R,0.1125X0.0005*%
%ADD78R,0.1135X0.0005*%
%ADD79R,0.1145X0.0005*%
%ADD80R,0.1155X0.0005*%
%ADD81R,0.1175X0.0005*%
%ADD82R,0.1185X0.0005*%
%ADD83R,0.1195X0.0005*%
%ADD84R,0.1210X0.0005*%
%ADD85R,0.1220X0.0005*%
%ADD86R,0.1235X0.0005*%
%ADD87R,0.1245X0.0005*%
%ADD88R,0.1260X0.0005*%
%ADD89R,0.1270X0.0005*%
%ADD90R,0.1285X0.0005*%
%ADD91R,0.1295X0.0005*%
%ADD92R,0.1310X0.0005*%
%ADD93R,0.1320X0.0005*%
%ADD94R,0.1330X0.0005*%
%ADD95R,0.1345X0.0005*%
%ADD96R,0.1355X0.0005*%
%ADD97R,0.1370X0.0005*%
%ADD98R,0.1380X0.0005*%
%ADD99R,0.1395X0.0005*%
%ADD100R,0.1405X0.0005*%
%ADD101R,0.1420X0.0005*%
%ADD102R,0.1430X0.0005*%
%ADD103R,0.1440X0.0005*%
%ADD104R,0.1450X0.0005*%
%ADD105R,0.1465X0.0005*%
%ADD106R,0.1475X0.0005*%
%ADD107R,0.1490X0.0005*%
%ADD108R,0.1500X0.0005*%
%ADD109R,0.1510X0.0005*%
%ADD110R,0.1520X0.0005*%
%ADD111R,0.1535X0.0005*%
%ADD112R,0.1550X0.0005*%
%ADD113R,0.1560X0.0005*%
%ADD114R,0.1570X0.0005*%
%ADD115R,0.1580X0.0005*%
%ADD116R,0.1590X0.0005*%
%ADD117R,0.1605X0.0005*%
%ADD118R,0.1620X0.0005*%
%ADD119R,0.1630X0.0005*%
%ADD120R,0.1640X0.0005*%
%ADD121R,0.1650X0.0005*%
%ADD122R,0.1660X0.0005*%
%ADD123R,0.1670X0.0005*%
%ADD124R,0.1680X0.0005*%
%ADD125R,0.1700X0.0005*%
%ADD126R,0.1710X0.0005*%
%ADD127R,0.1720X0.0005*%
%ADD128R,0.1730X0.0005*%
%ADD129R,0.1740X0.0005*%
%ADD130R,0.1750X0.0005*%
%ADD131R,0.1760X0.0005*%
%ADD132R,0.1780X0.0005*%
%ADD133R,0.1790X0.0005*%
%ADD134R,0.1800X0.0005*%
%ADD135R,0.1810X0.0005*%
%ADD136R,0.1820X0.0005*%
%ADD137R,0.1830X0.0005*%
%ADD138R,0.1840X0.0005*%
%ADD139R,0.1850X0.0005*%
%ADD140R,0.1860X0.0005*%
%ADD141R,0.1875X0.0005*%
%ADD142R,0.1885X0.0005*%
%ADD143R,0.1900X0.0005*%
%ADD144R,0.1910X0.0005*%
%ADD145R,0.1920X0.0005*%
%ADD146R,0.1930X0.0005*%
%ADD147R,0.1940X0.0005*%
%ADD148R,0.1950X0.0005*%
%ADD149R,0.1960X0.0005*%
%ADD150R,0.1970X0.0005*%
%ADD151R,0.1985X0.0005*%
%ADD152R,0.1995X0.0005*%
%ADD153R,0.2005X0.0005*%
%ADD154R,0.2015X0.0005*%
%ADD155R,0.2030X0.0005*%
%ADD156R,0.2040X0.0005*%
%ADD157R,0.2050X0.0005*%
%ADD158R,0.2060X0.0005*%
%ADD159R,0.2070X0.0005*%
%ADD160R,0.2080X0.0005*%
%ADD161R,0.2090X0.0005*%
%ADD162R,0.2100X0.0005*%
%ADD163R,0.2110X0.0005*%
%ADD164R,0.2125X0.0005*%
%ADD165R,0.2135X0.0005*%
%ADD166R,0.2145X0.0005*%
%ADD167R,0.2155X0.0005*%
%ADD168R,0.2165X0.0005*%
%ADD169R,0.2175X0.0005*%
%ADD170R,0.2190X0.0005*%
%ADD171R,0.2200X0.0005*%
%ADD172R,0.2210X0.0005*%
%ADD173R,0.2220X0.0005*%
%ADD174R,0.2230X0.0005*%
%ADD175R,0.2240X0.0005*%
%ADD176R,0.2250X0.0005*%
%ADD177R,0.2260X0.0005*%
%ADD178R,0.2270X0.0005*%
%ADD179R,0.2280X0.0005*%
%ADD180R,0.2290X0.0005*%
%ADD181R,0.2300X0.0005*%
%ADD182R,0.2310X0.0005*%
%ADD183R,0.2325X0.0005*%
%ADD184R,0.2335X0.0005*%
%ADD185R,0.2345X0.0005*%
%ADD186R,0.2355X0.0005*%
%ADD187R,0.2365X0.0005*%
%ADD188R,0.2375X0.0005*%
%ADD189R,0.2385X0.0005*%
%ADD190R,0.2395X0.0005*%
%ADD191R,0.2405X0.0005*%
%ADD192R,0.2415X0.0005*%
%ADD193R,0.2425X0.0005*%
%ADD194R,0.2435X0.0005*%
%ADD195R,0.2445X0.0005*%
%ADD196R,0.2455X0.0005*%
%ADD197R,0.2465X0.0005*%
%ADD198R,0.2475X0.0005*%
%ADD199R,0.2485X0.0005*%
%ADD200R,0.2495X0.0005*%
%ADD201R,0.2505X0.0005*%
%ADD202R,0.2515X0.0005*%
%ADD203R,0.2525X0.0005*%
%ADD204R,0.2535X0.0005*%
%ADD205R,0.2545X0.0005*%
%ADD206R,0.2555X0.0005*%
%ADD207R,0.2565X0.0005*%
%ADD208R,0.2575X0.0005*%
%ADD209R,0.2585X0.0005*%
%ADD210R,0.2595X0.0005*%
%ADD211R,0.2605X0.0005*%
%ADD212R,0.2615X0.0005*%
%ADD213R,0.2625X0.0005*%
%ADD214R,0.2635X0.0005*%
%ADD215R,0.2645X0.0005*%
%ADD216R,0.2655X0.0005*%
%ADD217R,0.2665X0.0005*%
%ADD218R,0.2675X0.0005*%
%ADD219R,0.2685X0.0005*%
%ADD220R,0.2695X0.0005*%
%ADD221R,0.2705X0.0005*%
%ADD222R,0.2715X0.0005*%
%ADD223R,0.2725X0.0005*%
%ADD224R,0.2735X0.0005*%
%ADD225R,0.2745X0.0005*%
%ADD226R,0.2755X0.0005*%
%ADD227R,0.2765X0.0005*%
%ADD228R,0.2775X0.0005*%
%ADD229R,0.2785X0.0005*%
%ADD230R,0.2795X0.0005*%
%ADD231R,0.2805X0.0005*%
%ADD232R,0.2810X0.0005*%
%ADD233R,0.2820X0.0005*%
%ADD234R,0.2830X0.0005*%
%ADD235R,0.2840X0.0005*%
%ADD236R,0.2850X0.0005*%
%ADD237R,0.2860X0.0005*%
%ADD238R,0.2870X0.0005*%
%ADD239R,0.2880X0.0005*%
%ADD240R,0.2890X0.0005*%
%ADD241R,0.2900X0.0005*%
%ADD242R,0.2910X0.0005*%
%ADD243R,0.2920X0.0005*%
%ADD244R,0.2930X0.0005*%
%ADD245R,0.2940X0.0005*%
%ADD246R,0.2945X0.0005*%
%ADD247R,0.2955X0.0005*%
%ADD248R,0.2965X0.0005*%
%ADD249R,0.2975X0.0005*%
%ADD250R,0.2985X0.0005*%
%ADD251R,0.2995X0.0005*%
%ADD252R,0.3005X0.0005*%
%ADD253R,0.3015X0.0005*%
%ADD254R,0.3025X0.0005*%
%ADD255R,0.3030X0.0005*%
%ADD256R,0.3040X0.0005*%
%ADD257R,0.3050X0.0005*%
%ADD258R,0.3060X0.0005*%
%ADD259R,0.3070X0.0005*%
%ADD260R,0.3080X0.0005*%
%ADD261R,0.3090X0.0005*%
%ADD262R,0.3100X0.0005*%
%ADD263R,0.3105X0.0005*%
%ADD264R,0.3115X0.0005*%
%ADD265R,0.3125X0.0005*%
%ADD266R,0.3135X0.0005*%
%ADD267R,0.3145X0.0005*%
%ADD268R,0.3150X0.0005*%
%ADD269R,0.3160X0.0005*%
%ADD270R,0.3170X0.0005*%
%ADD271R,0.3180X0.0005*%
%ADD272R,0.3190X0.0005*%
%ADD273R,0.3200X0.0005*%
%ADD274R,0.3210X0.0005*%
%ADD275R,0.3220X0.0005*%
%ADD276R,0.3230X0.0005*%
%ADD277R,0.3235X0.0005*%
%ADD278R,0.3245X0.0005*%
%ADD279R,0.3255X0.0005*%
%ADD280R,0.3265X0.0005*%
%ADD281R,0.3270X0.0005*%
%ADD282R,0.3280X0.0005*%
%ADD283R,0.3290X0.0005*%
%ADD284R,0.3300X0.0005*%
%ADD285R,0.3310X0.0005*%
%ADD286R,0.3320X0.0005*%
%ADD287R,0.3330X0.0005*%
%ADD288R,0.3340X0.0005*%
%ADD289R,0.3345X0.0005*%
%ADD290R,0.3355X0.0005*%
%ADD291R,0.3365X0.0005*%
%ADD292R,0.3370X0.0005*%
%ADD293R,0.3380X0.0005*%
%ADD294R,0.3390X0.0005*%
%ADD295R,0.3400X0.0005*%
%ADD296R,0.3410X0.0005*%
%ADD297R,0.3420X0.0005*%
%ADD298R,0.3425X0.0005*%
%ADD299R,0.3435X0.0005*%
%ADD300R,0.3445X0.0005*%
%ADD301R,0.3450X0.0005*%
%ADD302R,0.3460X0.0005*%
%ADD303R,0.3470X0.0005*%
%ADD304R,0.3480X0.0005*%
%ADD305R,0.3490X0.0005*%
%ADD306R,0.3500X0.0005*%
%ADD307R,0.3510X0.0005*%
%ADD308R,0.3515X0.0005*%
%ADD309R,0.3525X0.0005*%
%ADD310R,0.3530X0.0005*%
%ADD311R,0.3540X0.0005*%
%ADD312R,0.3550X0.0005*%
%ADD313R,0.3560X0.0005*%
%ADD314R,0.3570X0.0005*%
%ADD315R,0.3580X0.0005*%
%ADD316R,0.3590X0.0005*%
%ADD317R,0.3595X0.0005*%
%ADD318R,0.3600X0.0005*%
%ADD319R,0.3610X0.0005*%
%ADD320R,0.3620X0.0005*%
%ADD321R,0.3630X0.0005*%
%ADD322R,0.3640X0.0005*%
%ADD323R,0.3650X0.0005*%
%ADD324R,0.3660X0.0005*%
%ADD325R,0.3670X0.0005*%
%ADD326R,0.3680X0.0005*%
%ADD327R,0.3690X0.0005*%
%ADD328R,0.3700X0.0005*%
%ADD329R,0.3710X0.0005*%
%ADD330R,0.3720X0.0005*%
%ADD331R,0.3730X0.0005*%
%ADD332R,0.3740X0.0005*%
%ADD333R,0.3750X0.0005*%
%ADD334R,0.3760X0.0005*%
%ADD335R,0.3770X0.0005*%
%ADD336R,0.3780X0.0005*%
%ADD337R,0.3790X0.0005*%
%ADD338R,0.3800X0.0005*%
%ADD339R,0.3810X0.0005*%
%ADD340R,0.3820X0.0005*%
%ADD341R,0.3830X0.0005*%
%ADD342R,0.3840X0.0005*%
%ADD343R,0.3850X0.0005*%
%ADD344R,0.3860X0.0005*%
%ADD345R,0.3870X0.0005*%
%ADD346R,0.3880X0.0005*%
%ADD347R,0.3890X0.0005*%
%ADD348R,0.3895X0.0005*%
%ADD349R,0.3900X0.0005*%
%ADD350R,0.3910X0.0005*%
%ADD351R,0.3920X0.0005*%
%ADD352R,0.3930X0.0005*%
%ADD353R,0.3940X0.0005*%
%ADD354R,0.3945X0.0005*%
%ADD355R,0.3955X0.0005*%
%ADD356R,0.3960X0.0005*%
%ADD357R,0.3970X0.0005*%
%ADD358R,0.3980X0.0005*%
%ADD359R,0.3990X0.0005*%
%ADD360R,0.3995X0.0005*%
%ADD361R,0.4000X0.0005*%
%ADD362R,0.4010X0.0005*%
%ADD363R,0.4020X0.0005*%
%ADD364R,0.4030X0.0005*%
%ADD365R,0.4040X0.0005*%
%ADD366R,0.4045X0.0005*%
%ADD367R,0.4050X0.0005*%
%ADD368R,0.4060X0.0005*%
%ADD369R,0.4070X0.0005*%
%ADD370R,0.4080X0.0005*%
%ADD371R,0.4090X0.0005*%
%ADD372R,0.4095X0.0005*%
%ADD373R,0.4100X0.0005*%
%ADD374R,0.4110X0.0005*%
%ADD375R,0.4120X0.0005*%
%ADD376R,0.4130X0.0005*%
%ADD377R,0.4135X0.0005*%
%ADD378R,0.4145X0.0005*%
%ADD379R,0.4150X0.0005*%
%ADD380R,0.4160X0.0005*%
%ADD381R,0.4170X0.0005*%
%ADD382R,0.4175X0.0005*%
%ADD383R,0.4185X0.0005*%
%ADD384R,0.4190X0.0005*%
%ADD385R,0.4200X0.0005*%
%ADD386R,0.4210X0.0005*%
%ADD387R,0.4215X0.0005*%
%ADD388R,0.4225X0.0005*%
%ADD389R,0.4230X0.0005*%
%ADD390R,0.4240X0.0005*%
%ADD391R,0.4250X0.0005*%
%ADD392R,0.4255X0.0005*%
%ADD393R,0.4265X0.0005*%
%ADD394R,0.4270X0.0005*%
%ADD395R,0.4280X0.0005*%
%ADD396R,0.4290X0.0005*%
%ADD397R,0.4295X0.0005*%
%ADD398R,0.4305X0.0005*%
%ADD399R,0.4310X0.0005*%
%ADD400R,0.4320X0.0005*%
%ADD401R,0.4330X0.0005*%
%ADD402R,0.4335X0.0005*%
%ADD403R,0.4345X0.0005*%
%ADD404R,0.4350X0.0005*%
%ADD405R,0.4360X0.0005*%
%ADD406R,0.4365X0.0005*%
%ADD407R,0.4375X0.0005*%
%ADD408R,0.4385X0.0005*%
%ADD409R,0.4390X0.0005*%
%ADD410R,0.4400X0.0005*%
%ADD411R,0.4405X0.0005*%
%ADD412R,0.4415X0.0005*%
%ADD413R,0.4425X0.0005*%
%ADD414R,0.4430X0.0005*%
%ADD415R,0.4435X0.0005*%
%ADD416R,0.4445X0.0005*%
%ADD417R,0.4455X0.0005*%
%ADD418R,0.4460X0.0005*%
%ADD419R,0.4470X0.0005*%
%ADD420R,0.4475X0.0005*%
%ADD421R,0.4485X0.0005*%
%ADD422R,0.4495X0.0005*%
%ADD423R,0.4500X0.0005*%
%ADD424R,0.4505X0.0005*%
%ADD425R,0.4515X0.0005*%
%ADD426R,0.4525X0.0005*%
%ADD427R,0.4530X0.0005*%
%ADD428R,0.4535X0.0005*%
%ADD429R,0.4545X0.0005*%
%ADD430R,0.4555X0.0005*%
%ADD431R,0.4565X0.0005*%
%ADD432R,0.4575X0.0005*%
%ADD433R,0.4585X0.0005*%
%ADD434R,0.4595X0.0005*%
%ADD435R,0.4605X0.0005*%
%ADD436R,0.4615X0.0005*%
%ADD437R,0.4625X0.0005*%
%ADD438R,0.4635X0.0005*%
%ADD439R,0.4645X0.0005*%
%ADD440R,0.4655X0.0005*%
%ADD441R,0.4665X0.0005*%
%ADD442R,0.4675X0.0005*%
%ADD443R,0.4685X0.0005*%
%ADD444R,0.4695X0.0005*%
%ADD445R,0.4705X0.0005*%
%ADD446R,0.4715X0.0005*%
%ADD447R,0.4725X0.0005*%
%ADD448R,0.4735X0.0005*%
%ADD449R,0.4745X0.0005*%
%ADD450R,0.4755X0.0005*%
%ADD451R,0.4765X0.0005*%
%ADD452R,0.4775X0.0005*%
%ADD453R,0.4785X0.0005*%
%ADD454R,0.4795X0.0005*%
%ADD455R,0.4800X0.0005*%
%ADD456R,0.4805X0.0005*%
%ADD457R,0.4815X0.0005*%
%ADD458R,0.4825X0.0005*%
%ADD459R,0.4830X0.0005*%
%ADD460R,0.4835X0.0005*%
%ADD461R,0.4845X0.0005*%
%ADD462R,0.4850X0.0005*%
%ADD463R,0.4855X0.0005*%
%ADD464R,0.4865X0.0005*%
%ADD465R,0.4875X0.0005*%
%ADD466R,0.4880X0.0005*%
%ADD467R,0.4885X0.0005*%
%ADD468R,0.4895X0.0005*%
%ADD469R,0.4900X0.0005*%
%ADD470R,0.4910X0.0005*%
%ADD471R,0.4915X0.0005*%
%ADD472R,0.4925X0.0005*%
%ADD473R,0.4930X0.0005*%
%ADD474R,0.4935X0.0005*%
%ADD475R,0.4945X0.0005*%
%ADD476R,0.4950X0.0005*%
%ADD477R,0.4955X0.0005*%
%ADD478R,0.4965X0.0005*%
%ADD479R,0.4975X0.0005*%
%ADD480R,0.4980X0.0005*%
%ADD481R,0.4985X0.0005*%
%ADD482R,0.4995X0.0005*%
%ADD483R,0.5000X0.0005*%
%ADD484R,0.5005X0.0005*%
%ADD485R,0.5015X0.0005*%
%ADD486R,0.5025X0.0005*%
%ADD487R,0.5030X0.0005*%
%ADD488R,0.5035X0.0005*%
%ADD489R,0.5045X0.0005*%
%ADD490R,0.5050X0.0005*%
%ADD491R,0.5055X0.0005*%
%ADD492R,0.5065X0.0005*%
%ADD493R,0.5070X0.0005*%
%ADD494R,0.5075X0.0005*%
%ADD495R,0.5085X0.0005*%
%ADD496R,0.5090X0.0005*%
%ADD497R,0.5100X0.0005*%
%ADD498R,0.5105X0.0005*%
%ADD499R,0.5110X0.0005*%
%ADD500R,0.5120X0.0005*%
%ADD501R,0.5125X0.0005*%
%ADD502R,0.5135X0.0005*%
%ADD503R,0.5140X0.0005*%
%ADD504R,0.5150X0.0005*%
%ADD505R,0.5155X0.0005*%
%ADD506R,0.5160X0.0005*%
%ADD507R,0.5170X0.0005*%
%ADD508R,0.5175X0.0005*%
%ADD509R,0.5180X0.0005*%
%ADD510R,0.5190X0.0005*%
%ADD511R,0.5195X0.0005*%
%ADD512R,0.5200X0.0005*%
%ADD513R,0.5210X0.0005*%
%ADD514R,0.5215X0.0005*%
%ADD515R,0.5220X0.0005*%
%ADD516R,0.5230X0.0005*%
%ADD517R,0.5235X0.0005*%
%ADD518R,0.5240X0.0005*%
%ADD519R,0.5250X0.0005*%
%ADD520R,0.5255X0.0005*%
%ADD521R,0.5260X0.0005*%
%ADD522R,0.5270X0.0005*%
%ADD523R,0.5275X0.0005*%
%ADD524R,0.5280X0.0005*%
%ADD525R,0.5290X0.0005*%
%ADD526R,0.5300X0.0005*%
%ADD527R,0.5310X0.0005*%
%ADD528R,0.5320X0.0005*%
%ADD529R,0.5330X0.0005*%
%ADD530R,0.5340X0.0005*%
%ADD531R,0.5350X0.0005*%
%ADD532R,0.5360X0.0005*%
%ADD533R,0.5370X0.0005*%
%ADD534R,0.5380X0.0005*%
%ADD535R,0.5390X0.0005*%
%ADD536R,0.5400X0.0005*%
%ADD537R,0.5410X0.0005*%
%ADD538R,0.5420X0.0005*%
%ADD539R,0.5425X0.0005*%
%ADD540R,0.5430X0.0005*%
%ADD541R,0.5440X0.0005*%
%ADD542R,0.5450X0.0005*%
%ADD543R,0.5460X0.0005*%
%ADD544R,0.5470X0.0005*%
%ADD545R,0.5480X0.0005*%
%ADD546R,0.5490X0.0005*%
%ADD547R,0.5495X0.0005*%
%ADD548R,0.5500X0.0005*%
%ADD549R,0.5510X0.0005*%
%ADD550R,0.5520X0.0005*%
%ADD551R,0.5530X0.0005*%
%ADD552R,0.5540X0.0005*%
%ADD553R,0.5545X0.0005*%
%ADD554R,0.5550X0.0005*%
%ADD555R,0.5560X0.0005*%
%ADD556R,0.5565X0.0005*%
%ADD557R,0.5570X0.0005*%
%ADD558R,0.5575X0.0005*%
%ADD559R,0.5580X0.0005*%
%ADD560R,0.5590X0.0005*%
%ADD561R,0.5595X0.0005*%
%ADD562R,0.5600X0.0005*%
%ADD563R,0.5605X0.0005*%
%ADD564R,0.5610X0.0005*%
%ADD565R,0.5620X0.0005*%
%ADD566R,0.5625X0.0005*%
%ADD567R,0.5630X0.0005*%
%ADD568R,0.5635X0.0005*%
%ADD569R,0.5640X0.0005*%
%ADD570R,0.5650X0.0005*%
%ADD571R,0.5655X0.0005*%
%ADD572R,0.5660X0.0005*%
%ADD573R,0.5665X0.0005*%
%ADD574R,0.5675X0.0005*%
%ADD575R,0.5680X0.0005*%
%ADD576R,0.5685X0.0005*%
%ADD577R,0.5690X0.0005*%
%ADD578R,0.5695X0.0005*%
%ADD579R,0.5705X0.0005*%
%ADD580R,0.5710X0.0005*%
%ADD581R,0.5715X0.0005*%
%ADD582R,0.5720X0.0005*%
%ADD583R,0.5725X0.0005*%
%ADD584R,0.5735X0.0005*%
%ADD585R,0.5740X0.0005*%
%ADD586R,0.5745X0.0005*%
%ADD587R,0.5750X0.0005*%
%ADD588R,0.5755X0.0005*%
%ADD589R,0.5765X0.0005*%
%ADD590R,0.5775X0.0005*%
%ADD591R,0.5780X0.0005*%
%ADD592R,0.5785X0.0005*%
%ADD593R,0.5790X0.0005*%
%ADD594R,0.5795X0.0005*%
%ADD595R,0.5805X0.0005*%
%ADD596R,0.5815X0.0005*%
%ADD597R,0.5825X0.0005*%
%ADD598R,0.5835X0.0005*%
%ADD599R,0.5845X0.0005*%
%ADD600R,0.5855X0.0005*%
%ADD601R,0.5865X0.0005*%
%ADD602R,0.5875X0.0005*%
%ADD603R,0.5885X0.0005*%
%ADD604R,0.5895X0.0005*%
%ADD605R,0.5905X0.0005*%
%ADD606R,0.5915X0.0005*%
%ADD607R,0.5925X0.0005*%
%ADD608R,0.5935X0.0005*%
%ADD609R,0.5945X0.0005*%
%ADD610R,0.5955X0.0005*%
%ADD611R,0.5965X0.0005*%
%ADD612R,0.5975X0.0005*%
%ADD613R,0.5980X0.0005*%
%ADD614R,0.5985X0.0005*%
%ADD615R,0.5995X0.0005*%
%ADD616R,0.6005X0.0005*%
%ADD617R,0.6015X0.0005*%
%ADD618R,0.6025X0.0005*%
%ADD619R,0.6035X0.0005*%
%ADD620R,0.6040X0.0005*%
%ADD621R,0.6045X0.0005*%
%ADD622R,0.6050X0.0005*%
%ADD623R,0.6055X0.0005*%
%ADD624R,0.6060X0.0005*%
%ADD625R,0.6065X0.0005*%
%ADD626R,0.6070X0.0005*%
%ADD627R,0.6075X0.0005*%
%ADD628R,0.6080X0.0005*%
%ADD629R,0.4115X0.0005*%
%ADD630R,0.1755X0.0005*%
%ADD631R,0.4125X0.0005*%
%ADD632R,0.1765X0.0005*%
%ADD633R,0.1770X0.0005*%
%ADD634R,0.1775X0.0005*%
%ADD635R,0.4140X0.0005*%
%ADD636R,0.1785X0.0005*%
%ADD637R,0.4155X0.0005*%
%ADD638R,0.1795X0.0005*%
%ADD639R,0.4165X0.0005*%
%ADD640R,0.1805X0.0005*%
%ADD641R,0.1815X0.0005*%
%ADD642R,0.4180X0.0005*%
%ADD643R,0.1825X0.0005*%
%ADD644R,0.1835X0.0005*%
%ADD645R,0.4195X0.0005*%
%ADD646R,0.1845X0.0005*%
%ADD647R,0.4205X0.0005*%
%ADD648R,0.1855X0.0005*%
%ADD649R,0.4220X0.0005*%
%ADD650R,0.1865X0.0005*%
%ADD651R,0.1870X0.0005*%
%ADD652R,0.4235X0.0005*%
%ADD653R,0.1880X0.0005*%
%ADD654R,0.4245X0.0005*%
%ADD655R,0.1890X0.0005*%
%ADD656R,0.1895X0.0005*%
%ADD657R,0.4260X0.0005*%
%ADD658R,0.1905X0.0005*%
%ADD659R,0.1915X0.0005*%
%ADD660R,0.4275X0.0005*%
%ADD661R,0.1925X0.0005*%
%ADD662R,0.4285X0.0005*%
%ADD663R,0.1935X0.0005*%
%ADD664R,0.4300X0.0005*%
%ADD665R,0.1945X0.0005*%
%ADD666R,0.1955X0.0005*%
%ADD667R,0.4315X0.0005*%
%ADD668R,0.1965X0.0005*%
%ADD669R,0.4325X0.0005*%
%ADD670R,0.1975X0.0005*%
%ADD671R,0.1980X0.0005*%
%ADD672R,0.4340X0.0005*%
%ADD673R,0.1990X0.0005*%
%ADD674R,0.0365X0.0005*%
%ADD675R,0.1365X0.0005*%
%ADD676R,0.2350X0.0005*%
%ADD677R,0.0325X0.0005*%
%ADD678R,0.1280X0.0005*%
%ADD679R,0.0860X0.0005*%
%ADD680R,0.0915X0.0005*%
%ADD681R,0.0305X0.0005*%
%ADD682R,0.2255X0.0005*%
%ADD683R,0.0100X0.0005*%
%ADD684R,0.0105X0.0005*%
%ADD685R,0.0890X0.0005*%
%ADD686R,0.0285X0.0005*%
%ADD687R,0.1180X0.0005*%
%ADD688R,0.2225X0.0005*%
%ADD689R,0.0190X0.0005*%
%ADD690R,0.0200X0.0005*%
%ADD691R,0.0265X0.0005*%
%ADD692R,0.1140X0.0005*%
%ADD693R,0.2195X0.0005*%
%ADD694R,0.0260X0.0005*%
%ADD695R,0.0815X0.0005*%
%ADD696R,0.0250X0.0005*%
%ADD697R,0.1110X0.0005*%
%ADD698R,0.2185X0.0005*%
%ADD699R,0.0300X0.0005*%
%ADD700R,0.0385X0.0005*%
%ADD701R,0.0235X0.0005*%
%ADD702R,0.1075X0.0005*%
%ADD703R,0.0715X0.0005*%
%ADD704R,0.0580X0.0005*%
%ADD705R,0.0345X0.0005*%
%ADD706R,0.0795X0.0005*%
%ADD707R,0.0240X0.0005*%
%ADD708R,0.0220X0.0005*%
%ADD709R,0.0705X0.0005*%
%ADD710R,0.0360X0.0005*%
%ADD711R,0.0380X0.0005*%
%ADD712R,0.0785X0.0005*%
%ADD713R,0.0210X0.0005*%
%ADD714R,0.1020X0.0005*%
%ADD715R,0.0335X0.0005*%
%ADD716R,0.0205X0.0005*%
%ADD717R,0.0410X0.0005*%
%ADD718R,0.0215X0.0005*%
%ADD719R,0.0995X0.0005*%
%ADD720R,0.0315X0.0005*%
%ADD721R,0.0695X0.0005*%
%ADD722R,0.0595X0.0005*%
%ADD723R,0.0970X0.0005*%
%ADD724R,0.0685X0.0005*%
%ADD725R,0.0470X0.0005*%
%ADD726R,0.0180X0.0005*%
%ADD727R,0.0295X0.0005*%
%ADD728R,0.0490X0.0005*%
%ADD729R,0.0755X0.0005*%
%ADD730R,0.0170X0.0005*%
%ADD731R,0.0930X0.0005*%
%ADD732R,0.0675X0.0005*%
%ADD733R,0.0610X0.0005*%
%ADD734R,0.0510X0.0005*%
%ADD735R,0.0750X0.0005*%
%ADD736R,0.0160X0.0005*%
%ADD737R,0.0905X0.0005*%
%ADD738R,0.0275X0.0005*%
%ADD739R,0.0500X0.0005*%
%ADD740R,0.0535X0.0005*%
%ADD741R,0.0165X0.0005*%
%ADD742R,0.0150X0.0005*%
%ADD743R,0.0665X0.0005*%
%ADD744R,0.0520X0.0005*%
%ADD745R,0.0155X0.0005*%
%ADD746R,0.0145X0.0005*%
%ADD747R,0.0255X0.0005*%
%ADD748R,0.0655X0.0005*%
%ADD749R,0.0625X0.0005*%
%ADD750R,0.0735X0.0005*%
%ADD751R,0.0135X0.0005*%
%ADD752R,0.0550X0.0005*%
%ADD753R,0.0725X0.0005*%
%ADD754R,0.0395X0.0005*%
%ADD755R,0.0130X0.0005*%
%ADD756R,0.0835X0.0005*%
%ADD757R,0.0645X0.0005*%
%ADD758R,0.0570X0.0005*%
%ADD759R,0.0120X0.0005*%
%ADD760R,0.0640X0.0005*%
%ADD761R,0.0585X0.0005*%
%ADD762R,0.0720X0.0005*%
%ADD763R,0.0125X0.0005*%
%ADD764R,0.0115X0.0005*%
%ADD765R,0.0805X0.0005*%
%ADD766R,0.0600X0.0005*%
%ADD767R,0.0615X0.0005*%
%ADD768R,0.0660X0.0005*%
%ADD769R,0.0775X0.0005*%
%ADD770R,0.0095X0.0005*%
%ADD771R,0.0690X0.0005*%
%ADD772R,0.0090X0.0005*%
%ADD773R,0.0745X0.0005*%
%ADD774R,0.0085X0.0005*%
%ADD775R,0.0400X0.0005*%
%ADD776R,0.0080X0.0005*%
%ADD777R,0.0075X0.0005*%
%ADD778R,0.0280X0.0005*%
%ADD779R,0.0065X0.0005*%
%ADD780R,0.0765X0.0005*%
%ADD781R,0.0060X0.0005*%
%ADD782R,0.0565X0.0005*%
%ADD783R,0.0055X0.0005*%
%ADD784R,0.0560X0.0005*%
%ADD785R,0.0050X0.0005*%
%ADD786R,0.0045X0.0005*%
%ADD787R,0.0040X0.0005*%
%ADD788R,0.0630X0.0005*%
%ADD789R,0.0820X0.0005*%
%ADD790R,0.0035X0.0005*%
%ADD791R,0.0830X0.0005*%
%ADD792R,0.0030X0.0005*%
%ADD793R,0.0320X0.0005*%
%ADD794R,0.0530X0.0005*%
%ADD795R,0.0025X0.0005*%
%ADD796R,0.0415X0.0005*%
%ADD797R,0.0020X0.0005*%
%ADD798R,0.0515X0.0005*%
%ADD799R,0.0015X0.0005*%
%ADD800R,0.0185X0.0005*%
%ADD801R,0.0010X0.0005*%
%ADD802R,0.0230X0.0005*%
%ADD803R,0.0355X0.0005*%
%ADD804R,0.0005X0.0005*%
%ADD805R,0.0420X0.0005*%
%ADD806R,0.0450X0.0005*%
%ADD807R,0.0485X0.0005*%
%ADD808R,0.0540X0.0005*%
%ADD809R,0.0480X0.0005*%
%ADD810R,0.0340X0.0005*%
%ADD811R,0.0465X0.0005*%
%ADD812R,0.0460X0.0005*%
%ADD813R,0.0375X0.0005*%
%ADD814R,0.0445X0.0005*%
%ADD815R,0.0790X0.0005*%
%ADD816R,0.1035X0.0005*%
%ADD817R,0.0435X0.0005*%
%ADD818R,0.1050X0.0005*%
%ADD819R,0.0430X0.0005*%
%ADD820R,0.1080X0.0005*%
%ADD821R,0.1115X0.0005*%
%ADD822R,0.1120X0.0005*%
%ADD823R,0.1130X0.0005*%
%ADD824R,0.0845X0.0005*%
%ADD825R,0.0850X0.0005*%
%ADD826R,0.1160X0.0005*%
%ADD827R,0.1170X0.0005*%
%ADD828R,0.0865X0.0005*%
%ADD829R,0.1190X0.0005*%
%ADD830R,0.0875X0.0005*%
%ADD831R,0.1200X0.0005*%
%ADD832R,0.1205X0.0005*%
%ADD833R,0.0885X0.0005*%
%ADD834R,0.1215X0.0005*%
%ADD835R,0.1230X0.0005*%
%ADD836R,0.0900X0.0005*%
%ADD837R,0.1240X0.0005*%
%ADD838R,0.1250X0.0005*%
%ADD839R,0.0920X0.0005*%
%ADD840R,0.0940X0.0005*%
%ADD841R,0.1290X0.0005*%
%ADD842R,0.0945X0.0005*%
%ADD843R,0.1305X0.0005*%
%ADD844R,0.0955X0.0005*%
%ADD845R,0.0960X0.0005*%
%ADD846R,0.1335X0.0005*%
%ADD847R,0.0980X0.0005*%
%ADD848R,0.1350X0.0005*%
%ADD849R,0.1360X0.0005*%
%ADD850R,0.1000X0.0005*%
%ADD851R,0.1010X0.0005*%
%ADD852R,0.1375X0.0005*%
%ADD853R,0.1385X0.0005*%
%ADD854R,0.1025X0.0005*%
%ADD855R,0.1400X0.0005*%
%ADD856R,0.1040X0.0005*%
%ADD857R,0.1410X0.0005*%
%ADD858R,0.1415X0.0005*%
%ADD859R,0.1060X0.0005*%
%ADD860R,0.1435X0.0005*%
%ADD861R,0.1070X0.0005*%
%ADD862R,0.1445X0.0005*%
%ADD863R,0.1455X0.0005*%
%ADD864R,0.1090X0.0005*%
%ADD865R,0.1460X0.0005*%
%ADD866R,0.1100X0.0005*%
%ADD867R,0.1470X0.0005*%
%ADD868R,0.1480X0.0005*%
%ADD869R,0.1485X0.0005*%
%ADD870R,0.1495X0.0005*%
%ADD871R,0.1505X0.0005*%
%ADD872R,0.1150X0.0005*%
%ADD873R,0.1515X0.0005*%
%ADD874R,0.1530X0.0005*%
%ADD875R,0.1165X0.0005*%
%ADD876R,0.1540X0.0005*%
%ADD877R,0.1545X0.0005*%
%ADD878R,0.1255X0.0005*%
%ADD879R,0.1315X0.0005*%
%ADD880R,0.1555X0.0005*%
%ADD881R,0.0985X0.0005*%
%ADD882R,0.1525X0.0005*%
%ADD883R,0.2420X0.0005*%
%ADD884R,0.2430X0.0005*%
%ADD885R,0.1340X0.0005*%
%ADD886R,0.6855X0.0005*%
%ADD887R,0.6850X0.0005*%
%ADD888R,0.6845X0.0005*%
%ADD889R,0.6840X0.0005*%
%ADD890R,0.6835X0.0005*%
%ADD891R,0.6830X0.0005*%
%ADD892R,0.6825X0.0005*%
%ADD893R,0.6820X0.0005*%
%ADD894R,0.6815X0.0005*%
%ADD895R,0.6810X0.0005*%
%ADD896R,0.6805X0.0005*%
%ADD897R,0.6800X0.0005*%
%ADD898R,0.6795X0.0005*%
%ADD899R,0.6790X0.0005*%
%ADD900R,0.6785X0.0005*%
%ADD901R,0.6780X0.0005*%
%ADD902R,0.6775X0.0005*%
%ADD903R,0.6770X0.0005*%
%ADD904R,0.6765X0.0005*%
%ADD905R,0.6760X0.0005*%
%ADD906R,0.6755X0.0005*%
%ADD907R,0.6750X0.0005*%
%ADD908R,0.6745X0.0005*%
%ADD909R,0.6740X0.0005*%
%ADD910R,0.6735X0.0005*%
%ADD911R,0.6730X0.0005*%
%ADD912R,0.6725X0.0005*%
%ADD913R,0.6720X0.0005*%
%ADD914R,0.6715X0.0005*%
%ADD915R,0.6710X0.0005*%
%ADD916R,0.6705X0.0005*%
%ADD917R,0.6700X0.0005*%
%ADD918R,0.6695X0.0005*%
%ADD919R,0.6690X0.0005*%
%ADD920R,0.6685X0.0005*%
%ADD921R,0.6680X0.0005*%
%ADD922R,0.6675X0.0005*%
%ADD923R,0.6670X0.0005*%
%ADD924R,0.6665X0.0005*%
%ADD925R,0.6660X0.0005*%
%ADD926R,0.6655X0.0005*%
%ADD927R,0.6650X0.0005*%
%ADD928R,0.6645X0.0005*%
%ADD929R,0.6640X0.0005*%
%ADD930R,0.6635X0.0005*%
%ADD931R,0.6630X0.0005*%
%ADD932R,0.6625X0.0005*%
%ADD933R,0.6620X0.0005*%
%ADD934R,0.6615X0.0005*%
%ADD935R,0.6610X0.0005*%
%ADD936R,0.6605X0.0005*%
%ADD937R,0.6600X0.0005*%
%ADD938R,0.6595X0.0005*%
%ADD939R,0.6590X0.0005*%
%ADD940R,0.6585X0.0005*%
%ADD941R,0.6580X0.0005*%
%ADD942R,0.6575X0.0005*%
%ADD943R,0.6570X0.0005*%
%ADD944R,0.6565X0.0005*%
%ADD945R,0.6560X0.0005*%
%ADD946R,0.6555X0.0005*%
%ADD947R,0.6550X0.0005*%
%ADD948R,0.6545X0.0005*%
%ADD949R,0.6540X0.0005*%
%ADD950R,0.6535X0.0005*%
%ADD951R,0.6530X0.0005*%
%ADD952R,0.6525X0.0005*%
%ADD953R,0.6520X0.0005*%
%ADD954R,0.6515X0.0005*%
%ADD955R,0.6510X0.0005*%
%ADD956R,0.6505X0.0005*%
%ADD957R,0.6500X0.0005*%
%ADD958R,0.6495X0.0005*%
%ADD959R,0.6490X0.0005*%
%ADD960R,0.6485X0.0005*%
%ADD961R,0.6480X0.0005*%
%ADD962R,0.6475X0.0005*%
%ADD963R,0.6470X0.0005*%
%ADD964R,0.6465X0.0005*%
%ADD965R,0.6460X0.0005*%
%ADD966R,0.6455X0.0005*%
%ADD967R,0.6450X0.0005*%
%ADD968R,0.6445X0.0005*%
%ADD969R,0.6440X0.0005*%
%ADD970R,0.6435X0.0005*%
%ADD971R,0.6430X0.0005*%
%ADD972R,0.6425X0.0005*%
%ADD973R,0.6420X0.0005*%
%ADD974R,0.6415X0.0005*%
%ADD975R,0.6410X0.0005*%
%ADD976R,0.6405X0.0005*%
%ADD977R,0.6400X0.0005*%
%ADD978R,0.6395X0.0005*%
%ADD979R,0.6390X0.0005*%
%ADD980R,0.6385X0.0005*%
%ADD981R,0.6380X0.0005*%
%ADD982R,0.6375X0.0005*%
%ADD983R,0.6370X0.0005*%
%ADD984R,0.6365X0.0005*%
%ADD985R,0.6360X0.0005*%
%ADD986R,0.6355X0.0005*%
%ADD987R,0.6350X0.0005*%
%ADD988R,0.6345X0.0005*%
%ADD989R,0.6340X0.0005*%
%ADD990R,0.6335X0.0005*%
%ADD991R,0.6330X0.0005*%
%ADD992R,0.6325X0.0005*%
%ADD993R,0.6320X0.0005*%
%ADD994R,0.6315X0.0005*%
%ADD995R,0.6310X0.0005*%
%ADD996R,0.6305X0.0005*%
%ADD997R,0.6300X0.0005*%
%ADD998R,0.6295X0.0005*%
%ADD999R,0.6290X0.0005*%
%ADD1000R,0.6285X0.0005*%
%ADD1001R,0.6280X0.0005*%
%ADD1002R,0.6270X0.0005*%
%ADD1003R,0.6265X0.0005*%
%ADD1004R,0.6260X0.0005*%
%ADD1005R,0.6255X0.0005*%
%ADD1006R,0.6250X0.0005*%
%ADD1007R,0.6245X0.0005*%
%ADD1008R,0.6240X0.0005*%
%ADD1009R,0.6235X0.0005*%
%ADD1010R,0.6230X0.0005*%
%ADD1011R,0.6225X0.0005*%
%ADD1012R,0.6220X0.0005*%
%ADD1013R,0.6215X0.0005*%
%ADD1014R,0.6210X0.0005*%
%ADD1015R,0.6205X0.0005*%
%ADD1016R,0.6200X0.0005*%
%ADD1017R,0.6195X0.0005*%
%ADD1018R,0.6190X0.0005*%
%ADD1019R,0.6185X0.0005*%
%ADD1020R,0.6180X0.0005*%
%ADD1021R,0.6175X0.0005*%
%ADD1022R,0.6170X0.0005*%
%ADD1023R,0.6160X0.0005*%
%ADD1024R,0.6150X0.0005*%
%ADD1025R,0.6145X0.0005*%
%ADD1026R,0.6140X0.0005*%
%ADD1027R,0.6135X0.0005*%
%ADD1028R,0.6130X0.0005*%
%ADD1029R,0.6125X0.0005*%
%ADD1030R,0.6120X0.0005*%
%ADD1031R,0.6115X0.0005*%
%ADD1032R,0.6110X0.0005*%
%ADD1033R,0.6105X0.0005*%
%ADD1034R,0.6100X0.0005*%
%ADD1035R,0.6095X0.0005*%
%ADD1036R,0.6090X0.0005*%
%ADD1037R,0.6030X0.0005*%
%ADD1038R,0.6020X0.0005*%
%ADD1039R,0.6010X0.0005*%
%ADD1040R,0.6000X0.0005*%
%ADD1041R,0.5990X0.0005*%
%ADD1042R,0.5970X0.0005*%
%ADD1043R,0.5960X0.0005*%
%ADD1044R,0.5950X0.0005*%
%ADD1045R,0.5940X0.0005*%
%ADD1046R,0.5930X0.0005*%
%ADD1047R,0.5920X0.0005*%
%ADD1048R,0.5910X0.0005*%
%ADD1049R,0.5900X0.0005*%
%ADD1050R,0.5890X0.0005*%
%ADD1051R,0.5880X0.0005*%
%ADD1052R,0.5870X0.0005*%
%ADD1053R,0.5850X0.0005*%
%ADD1054R,0.5840X0.0005*%
%ADD1055R,0.5830X0.0005*%
%ADD1056R,0.5820X0.0005*%
%ADD1057R,0.5810X0.0005*%
%ADD1058R,0.5800X0.0005*%
%ADD1059R,0.5770X0.0005*%
%ADD1060R,0.5760X0.0005*%
%ADD1061R,0.5730X0.0005*%
%ADD1062R,0.5670X0.0005*%
%ADD1063R,0.5535X0.0005*%
%ADD1064R,0.5515X0.0005*%
%ADD1065R,0.5505X0.0005*%
%ADD1066R,0.5485X0.0005*%
%ADD1067R,0.5475X0.0005*%
%ADD1068R,0.5445X0.0005*%
%ADD1069R,0.5435X0.0005*%
%ADD1070R,0.5405X0.0005*%
%ADD1071R,0.5395X0.0005*%
%ADD1072R,0.5385X0.0005*%
%ADD1073R,0.5365X0.0005*%
%ADD1074R,0.5355X0.0005*%
%ADD1075R,0.5345X0.0005*%
%ADD1076R,0.5315X0.0005*%
%ADD1077R,0.5305X0.0005*%
%ADD1078R,0.5295X0.0005*%
%ADD1079R,0.5245X0.0005*%
%ADD1080R,0.5225X0.0005*%
%ADD1081R,0.5165X0.0005*%
%ADD1082R,0.5145X0.0005*%
%ADD1083R,0.5130X0.0005*%
%ADD1084R,0.4990X0.0005*%
%ADD1085R,0.4970X0.0005*%
%ADD1086R,0.4960X0.0005*%
%ADD1087R,0.4940X0.0005*%
%ADD1088R,0.4920X0.0005*%
%ADD1089R,0.4890X0.0005*%
%ADD1090R,0.4870X0.0005*%
%ADD1091R,0.4860X0.0005*%
%ADD1092R,0.4840X0.0005*%
%ADD1093R,0.4820X0.0005*%
%ADD1094R,0.4730X0.0005*%
%ADD1095R,0.4720X0.0005*%
%ADD1096R,0.4710X0.0005*%
%ADD1097R,0.4700X0.0005*%
%ADD1098R,0.4690X0.0005*%
%ADD1099R,0.4680X0.0005*%
%ADD1100R,0.4670X0.0005*%
%ADD1101R,0.4610X0.0005*%
%ADD1102R,0.4600X0.0005*%
%ADD1103R,0.4590X0.0005*%
%ADD1104R,0.4580X0.0005*%
%ADD1105R,0.4520X0.0005*%
%ADD1106R,0.4510X0.0005*%
%ADD1107R,0.4450X0.0005*%
%ADD1108R,0.4440X0.0005*%
%ADD1109R,0.4105X0.0005*%
%ADD1110R,0.4075X0.0005*%
%ADD1111R,0.4065X0.0005*%
%ADD1112R,0.4035X0.0005*%
%ADD1113R,0.4025X0.0005*%
%ADD1114R,0.3965X0.0005*%
%ADD1115R,0.3950X0.0005*%
%ADD1116R,0.3935X0.0005*%
%ADD1117R,0.3905X0.0005*%
%ADD1118R,0.3815X0.0005*%
%ADD1119R,0.3785X0.0005*%
%ADD1120R,0.3755X0.0005*%
%ADD1121R,0.3725X0.0005*%
%ADD1122R,0.3695X0.0005*%
%ADD1123R,0.3645X0.0005*%
%ADD1124R,0.3615X0.0005*%
%ADD1125R,0.3565X0.0005*%
%ADD1126R,0.3545X0.0005*%
%ADD1127R,0.3495X0.0005*%
%ADD1128R,0.3335X0.0005*%
%ADD1129R,0.3260X0.0005*%
%ADD1130R,0.3225X0.0005*%
%ADD1131R,0.3205X0.0005*%
%ADD1132R,0.3185X0.0005*%
%ADD1133R,0.3130X0.0005*%
%ADD1134R,0.3110X0.0005*%
%ADD1135R,0.2875X0.0005*%
%ADD1136R,0.2835X0.0005*%
%ADD1137R,0.2790X0.0005*%
%ADD1138R,0.2740X0.0005*%
%ADD1139R,0.2720X0.0005*%
%ADD1140R,0.2670X0.0005*%
%ADD1141R,0.2650X0.0005*%
%ADD1142R,0.2620X0.0005*%
%ADD1143R,0.2550X0.0005*%
%ADD1144R,0.2520X0.0005*%
%ADD1145R,0.2500X0.0005*%
%ADD1146R,0.2470X0.0005*%
%ADD1147R,0.2390X0.0005*%
%ADD1148R,0.2360X0.0005*%
%ADD1149R,0.2340X0.0005*%
%ADD1150R,0.2305X0.0005*%
%ADD1151R,0.2275X0.0005*%
%ADD1152R,0.2160X0.0005*%
%ADD1153R,0.2130X0.0005*%
%ADD1154R,0.2095X0.0005*%
%ADD1155R,0.2000X0.0005*%
%ADD1156R,0.1585X0.0005*%
D10*
X027305Y004106D02*
X027532Y004106D01*
X027532Y004446D01*
X027674Y004446D02*
X027901Y004446D01*
X027901Y004106D01*
X027674Y004106D01*
X027787Y004276D02*
X027901Y004276D01*
X028042Y004446D02*
X028269Y004446D01*
X028156Y004446D02*
X028156Y004106D01*
X028410Y004106D02*
X028410Y004332D01*
X028524Y004446D01*
X028637Y004332D01*
X028637Y004106D01*
X028637Y004276D02*
X028410Y004276D01*
X028779Y004276D02*
X028835Y004219D01*
X029006Y004219D01*
X029006Y004106D02*
X029006Y004446D01*
X028835Y004446D01*
X028779Y004389D01*
X028779Y004276D01*
X029392Y004276D02*
X029618Y004276D01*
X029760Y004219D02*
X029817Y004276D01*
X029930Y004276D01*
X029987Y004332D01*
X029987Y004389D01*
X029930Y004446D01*
X029817Y004446D01*
X029760Y004389D01*
X029618Y004446D02*
X029618Y004106D01*
X029760Y004162D02*
X029817Y004106D01*
X029930Y004106D01*
X029987Y004162D01*
X030128Y004106D02*
X030355Y004106D01*
X030355Y004446D01*
X030128Y004446D01*
X030242Y004276D02*
X030355Y004276D01*
X030497Y004389D02*
X030497Y004446D01*
X030497Y004389D02*
X030610Y004276D01*
X030610Y004106D01*
X030610Y004276D02*
X030723Y004389D01*
X030723Y004446D01*
X030856Y004446D02*
X030969Y004446D01*
X030912Y004446D02*
X030912Y004106D01*
X030856Y004106D02*
X030969Y004106D01*
X031110Y004106D02*
X031224Y004219D01*
X031167Y004219D02*
X031337Y004219D01*
X031337Y004106D02*
X031337Y004446D01*
X031167Y004446D01*
X031110Y004389D01*
X031110Y004276D01*
X031167Y004219D01*
X031479Y004276D02*
X031535Y004219D01*
X031706Y004219D01*
X031706Y004106D02*
X031706Y004446D01*
X031535Y004446D01*
X031479Y004389D01*
X031479Y004276D01*
X029760Y004219D02*
X029760Y004162D01*
X029392Y004106D02*
X029392Y004446D01*
X037236Y006337D02*
X037236Y006564D01*
X037236Y007337D02*
X037236Y007564D01*
X037349Y007451D02*
X037122Y007451D01*
X036742Y011156D02*
X036629Y011269D01*
X036629Y011496D01*
X036487Y011439D02*
X036431Y011496D01*
X036317Y011496D01*
X036260Y011439D01*
X036119Y011439D02*
X036119Y011212D01*
X036062Y011156D01*
X035949Y011156D01*
X035892Y011212D01*
X035892Y011439D02*
X035949Y011496D01*
X036062Y011496D01*
X036119Y011439D01*
X036260Y011212D02*
X036317Y011156D01*
X036431Y011156D01*
X036487Y011212D01*
X036487Y011439D01*
X036856Y011496D02*
X036856Y011269D01*
X036742Y011156D01*
X036629Y012156D02*
X036629Y012496D01*
X036742Y012382D01*
X036856Y012496D01*
X036856Y012156D01*
X036487Y012212D02*
X036487Y012439D01*
X036431Y012496D01*
X036317Y012496D01*
X036260Y012439D01*
X036260Y012212D01*
X036317Y012156D01*
X036431Y012156D01*
X036487Y012212D01*
X036119Y012212D02*
X036062Y012156D01*
X035949Y012156D01*
X035892Y012212D01*
X035892Y012269D01*
X035949Y012326D01*
X036062Y012326D01*
X036119Y012382D01*
X036119Y012439D01*
X036062Y012496D01*
X035949Y012496D01*
X035892Y012439D01*
X035751Y012496D02*
X035637Y012496D01*
X035694Y012496D02*
X035694Y012156D01*
X035751Y012156D02*
X035637Y012156D01*
X035156Y012212D02*
X035099Y012156D01*
X034985Y012156D01*
X034929Y012212D01*
X034929Y012269D01*
X034985Y012326D01*
X035099Y012326D01*
X035156Y012382D01*
X035156Y012439D01*
X035099Y012496D01*
X034985Y012496D01*
X034929Y012439D01*
X034787Y012439D02*
X034787Y012212D01*
X034731Y012156D01*
X034617Y012156D01*
X034560Y012212D01*
X034419Y012156D02*
X034419Y012496D01*
X034560Y012439D02*
X034617Y012496D01*
X034731Y012496D01*
X034787Y012439D01*
X034419Y012269D02*
X034192Y012496D01*
X034362Y012326D02*
X034192Y012156D01*
X034117Y011496D02*
X034173Y011439D01*
X034173Y011212D01*
X034117Y011156D01*
X034003Y011156D01*
X033947Y011212D01*
X033947Y011439D01*
X034003Y011496D01*
X034117Y011496D01*
X034315Y011439D02*
X034372Y011496D01*
X034485Y011496D01*
X034542Y011439D01*
X034542Y011382D01*
X034485Y011326D01*
X034372Y011326D01*
X034315Y011269D01*
X034315Y011212D01*
X034372Y011156D01*
X034485Y011156D01*
X034542Y011212D01*
X034674Y011156D02*
X034787Y011156D01*
X034731Y011156D02*
X034731Y011496D01*
X034787Y011496D02*
X034674Y011496D01*
X034929Y011496D02*
X034929Y011156D01*
X035156Y011156D02*
X035156Y011496D01*
X035042Y011382D01*
X034929Y011496D01*
X034929Y013156D02*
X035042Y013269D01*
X034985Y013269D02*
X035156Y013269D01*
X035156Y013156D02*
X035156Y013496D01*
X034985Y013496D01*
X034929Y013439D01*
X034929Y013326D01*
X034985Y013269D01*
X034787Y013212D02*
X034731Y013156D01*
X034617Y013156D01*
X034560Y013212D01*
X034560Y013269D01*
X034617Y013326D01*
X034731Y013326D01*
X034787Y013382D01*
X034787Y013439D01*
X034731Y013496D01*
X034617Y013496D01*
X034560Y013439D01*
X034419Y013496D02*
X034192Y013496D01*
X034306Y013496D02*
X034306Y013156D01*
X035892Y013212D02*
X035892Y013439D01*
X035949Y013496D01*
X036119Y013496D01*
X036119Y013156D01*
X035949Y013156D01*
X035892Y013212D01*
X036260Y013156D02*
X036260Y013496D01*
X036487Y013496D02*
X036260Y013156D01*
X036487Y013156D02*
X036487Y013496D01*
X036629Y013439D02*
X036685Y013496D01*
X036799Y013496D01*
X036856Y013439D01*
X036856Y013212D01*
X036799Y013156D01*
X036685Y013156D01*
X036629Y013212D01*
X036629Y013326D01*
X036742Y013326D01*
X030749Y020656D02*
X030635Y020656D01*
X030579Y020712D01*
X030579Y020939D01*
X030635Y020996D01*
X030749Y020996D01*
X030806Y020939D01*
X030806Y020882D01*
X030749Y020826D01*
X030579Y020826D01*
X030749Y020656D02*
X030806Y020712D01*
X029806Y020826D02*
X029579Y020826D01*
X028806Y020826D02*
X028579Y020826D01*
X028692Y020939D02*
X028692Y020712D01*
X027206Y020712D02*
X027206Y020656D01*
X027206Y020712D02*
X026979Y020939D01*
X026979Y020996D01*
X027206Y020996D01*
X026206Y020826D02*
X026206Y020712D01*
X026149Y020656D01*
X026035Y020656D01*
X025979Y020712D01*
X025979Y020769D01*
X026035Y020826D01*
X026206Y020826D01*
X026092Y020939D01*
X025979Y020996D01*
X025206Y020826D02*
X024979Y020826D01*
X024206Y020826D02*
X023979Y020826D01*
X024092Y020939D02*
X024092Y020712D01*
X022606Y020712D02*
X022549Y020656D01*
X022435Y020656D01*
X022379Y020712D01*
X022379Y020769D01*
X022435Y020826D01*
X022492Y020826D01*
X022435Y020826D02*
X022379Y020882D01*
X022379Y020939D01*
X022435Y020996D01*
X022549Y020996D01*
X022606Y020939D01*
X021606Y020939D02*
X021549Y020996D01*
X021435Y020996D01*
X021379Y020939D01*
X021379Y020882D01*
X021606Y020656D01*
X021379Y020656D01*
X020606Y020826D02*
X020379Y020826D01*
X019606Y020826D02*
X019379Y020826D01*
X019492Y020939D02*
X019492Y020712D01*
X018006Y020826D02*
X017779Y020826D01*
X017006Y020996D02*
X017006Y020656D01*
X016835Y020656D01*
X016779Y020712D01*
X016779Y020939D01*
X016835Y020996D01*
X017006Y020996D01*
X016006Y020939D02*
X016006Y020712D01*
X015949Y020656D01*
X015835Y020656D01*
X015779Y020712D01*
X015779Y020939D02*
X015835Y020996D01*
X015949Y020996D01*
X016006Y020939D01*
X015006Y020826D02*
X014779Y020826D01*
X014892Y020939D02*
X014892Y020712D01*
X013406Y020826D02*
X013179Y020826D01*
X012406Y020996D02*
X012406Y020656D01*
X012235Y020656D01*
X012179Y020712D01*
X012179Y020939D01*
X012235Y020996D01*
X012406Y020996D01*
X011406Y020939D02*
X011406Y020712D01*
X011349Y020656D01*
X011235Y020656D01*
X011179Y020712D01*
X011179Y020939D02*
X011235Y020996D01*
X011349Y020996D01*
X011406Y020939D01*
X010406Y020826D02*
X010179Y020826D01*
X010292Y020939D02*
X010292Y020712D01*
X008806Y020826D02*
X008579Y020826D01*
X008692Y020939D02*
X008692Y020712D01*
X007806Y020656D02*
X007806Y020996D01*
X007635Y020996D01*
X007579Y020939D01*
X007579Y020712D01*
X007635Y020656D01*
X007806Y020656D01*
X006806Y020826D02*
X006579Y020826D01*
X005206Y020826D02*
X004979Y020826D01*
X005092Y020939D02*
X005092Y020712D01*
X004206Y020656D02*
X004035Y020656D01*
X003979Y020712D01*
X003979Y020939D01*
X004035Y020996D01*
X004206Y020996D01*
X004206Y020656D01*
X003206Y020826D02*
X002979Y020826D01*
X003256Y018832D02*
X003256Y018606D01*
X003256Y018719D02*
X002916Y018719D01*
X003086Y017832D02*
X003086Y017606D01*
X003086Y016832D02*
X003086Y016606D01*
X003199Y016719D02*
X002972Y016719D01*
X032066Y020901D02*
X032066Y021071D01*
X032122Y021128D01*
X032349Y021128D01*
X032406Y021071D01*
X032406Y020901D01*
X032066Y020901D01*
X032066Y021382D02*
X032406Y021382D01*
X032406Y021269D02*
X032406Y021496D01*
X032406Y021637D02*
X032406Y021807D01*
X032349Y021864D01*
X032236Y021864D01*
X032179Y021807D01*
X032179Y021637D01*
X032066Y021637D02*
X032406Y021637D01*
X032179Y021751D02*
X032066Y021864D01*
X033066Y021874D02*
X033066Y021760D01*
X033066Y021817D02*
X033406Y021817D01*
X033406Y021760D02*
X033406Y021874D01*
X033406Y021619D02*
X033066Y021392D01*
X033066Y021250D02*
X033179Y021137D01*
X033179Y021194D02*
X033179Y021023D01*
X033066Y021023D02*
X033406Y021023D01*
X033406Y021194D01*
X033349Y021250D01*
X033236Y021250D01*
X033179Y021194D01*
X033406Y021392D02*
X033066Y021619D01*
X034066Y021694D02*
X034066Y021807D01*
X034122Y021864D01*
X034349Y021864D01*
X034406Y021807D01*
X034406Y021694D01*
X034349Y021637D01*
X034122Y021637D01*
X034066Y021694D01*
X034066Y021496D02*
X034406Y021269D01*
X034406Y021128D02*
X034406Y020901D01*
X034406Y021014D02*
X034066Y021014D01*
X034066Y021269D02*
X034406Y021496D01*
X035066Y021439D02*
X035122Y021496D01*
X035066Y021439D02*
X035066Y021326D01*
X035122Y021269D01*
X035349Y021269D01*
X035406Y021326D01*
X035406Y021439D01*
X035349Y021496D01*
X035349Y021637D02*
X035122Y021637D01*
X035066Y021694D01*
X035066Y021807D01*
X035122Y021864D01*
X035349Y021864D02*
X035406Y021807D01*
X035406Y021694D01*
X035349Y021637D01*
X035406Y021128D02*
X035179Y021128D01*
X035066Y021014D01*
X035179Y020901D01*
X035406Y020901D01*
X036066Y020957D02*
X036066Y021071D01*
X036122Y021128D01*
X036066Y020957D02*
X036122Y020901D01*
X036349Y020901D01*
X036406Y020957D01*
X036406Y021071D01*
X036349Y021128D01*
X036406Y021269D02*
X036406Y021496D01*
X036406Y021382D02*
X036066Y021382D01*
X036122Y021637D02*
X036066Y021694D01*
X036066Y021807D01*
X036122Y021864D01*
X036179Y021864D01*
X036236Y021807D01*
X036236Y021694D01*
X036292Y021637D01*
X036349Y021637D01*
X036406Y021694D01*
X036406Y021807D01*
X036349Y021864D01*
X037066Y021807D02*
X037066Y021637D01*
X037406Y021637D01*
X037406Y021807D01*
X037349Y021864D01*
X037122Y021864D01*
X037066Y021807D01*
X037066Y021496D02*
X037406Y021496D01*
X037406Y021269D02*
X037066Y021269D01*
X037122Y021128D02*
X037066Y021071D01*
X037066Y020957D01*
X037122Y020901D01*
X037349Y020901D01*
X037406Y020957D01*
X037406Y021071D01*
X037349Y021128D01*
X037236Y021128D02*
X037236Y021014D01*
X037236Y021128D02*
X037122Y021128D01*
X037406Y021269D02*
X037066Y021496D01*
D11*
X037711Y020951D02*
X037711Y022601D01*
X037461Y022851D01*
X031961Y022851D01*
X031711Y022601D01*
X031711Y020951D01*
X031911Y020751D01*
X037511Y020751D01*
X037711Y020951D01*
X031211Y020501D02*
X030261Y020501D01*
X029761Y020501D02*
X028211Y020501D01*
X028211Y023001D01*
X031211Y023001D01*
X031211Y020501D01*
X027611Y020501D02*
X023611Y020501D01*
X023611Y023001D01*
X027611Y023001D01*
X027611Y020501D01*
X023011Y020501D02*
X023011Y023001D01*
X019011Y023001D01*
X019011Y020501D01*
X023011Y020501D01*
X018411Y020501D02*
X018411Y023001D01*
X014411Y023001D01*
X014411Y020501D01*
X018411Y020501D01*
X013811Y020501D02*
X013811Y023001D01*
X009811Y023001D01*
X009811Y020501D01*
X013811Y020501D01*
X009211Y020501D02*
X009211Y023001D01*
X006211Y023001D01*
X006211Y020501D01*
X009211Y020501D01*
X005611Y020501D02*
X005611Y023001D01*
X002611Y023001D01*
X002611Y020501D01*
X005611Y020501D01*
X003461Y019251D02*
X003461Y016251D01*
X000961Y016251D01*
X000961Y019251D01*
X003461Y019251D01*
X033711Y013851D02*
X033711Y010851D01*
X037211Y010851D01*
X039211Y010851D01*
X039211Y011651D01*
X039411Y011651D01*
X039411Y012951D01*
X039211Y012951D01*
X039211Y013851D01*
X037211Y013851D01*
X037211Y010851D01*
X039211Y011651D02*
X039211Y012951D01*
X037211Y013851D02*
X033711Y013851D01*
X036761Y007951D02*
X039261Y007951D01*
X039261Y005951D01*
X036761Y005951D01*
X036761Y007951D01*
D12*
X037918Y013966D02*
X037918Y014386D01*
X037708Y014386D01*
X037638Y014316D01*
X037638Y014176D01*
X037708Y014106D01*
X037918Y014106D01*
X038098Y014106D02*
X038098Y014036D01*
X038168Y013966D01*
X038308Y013966D01*
X038378Y014036D01*
X038308Y014176D02*
X038378Y014246D01*
X038378Y014316D01*
X038308Y014386D01*
X038168Y014386D01*
X038098Y014316D01*
X038168Y014176D02*
X038098Y014106D01*
X038168Y014176D02*
X038308Y014176D01*
X038558Y014316D02*
X038628Y014386D01*
X038769Y014386D01*
X038839Y014316D01*
X038839Y014036D01*
X038769Y013966D01*
X038628Y013966D01*
X038558Y014036D01*
X039005Y013966D02*
X039146Y013966D01*
X039076Y013966D02*
X039076Y014386D01*
X039146Y014386D02*
X039005Y014386D01*
X035396Y020116D02*
X035396Y020536D01*
X035115Y020536D01*
X034935Y020536D02*
X034655Y020536D01*
X034795Y020536D02*
X034795Y020116D01*
X034475Y020116D02*
X034265Y020116D01*
X034195Y020186D01*
X034195Y020466D01*
X034265Y020536D01*
X034475Y020536D01*
X034475Y020116D01*
X034014Y020116D02*
X033874Y020116D01*
X033944Y020116D02*
X033944Y020536D01*
X034014Y020536D02*
X033874Y020536D01*
X035255Y020326D02*
X035396Y020326D01*
D13*
X030239Y022631D02*
X030104Y022631D01*
X030059Y022676D01*
X030059Y022856D01*
X030104Y022901D01*
X030239Y022901D01*
X030239Y022631D01*
X029945Y022676D02*
X029900Y022631D01*
X029809Y022631D01*
X029764Y022676D01*
X029764Y022766D01*
X029854Y022766D01*
X029764Y022856D02*
X029809Y022901D01*
X029900Y022901D01*
X029945Y022856D01*
X029945Y022676D01*
X029650Y022901D02*
X029470Y022901D01*
X029560Y022901D02*
X029560Y022631D01*
X029355Y022631D02*
X029355Y022901D01*
X029355Y022631D02*
X029175Y022631D01*
X026429Y022631D02*
X026429Y022811D01*
X026338Y022901D01*
X026248Y022811D01*
X026248Y022631D01*
X026134Y022631D02*
X026134Y022901D01*
X025954Y022631D01*
X025954Y022901D01*
X025839Y022901D02*
X025839Y022631D01*
X025659Y022631D01*
X025545Y022676D02*
X025500Y022631D01*
X025409Y022631D01*
X025364Y022676D01*
X025364Y022766D01*
X025454Y022766D01*
X025364Y022856D02*
X025409Y022901D01*
X025500Y022901D01*
X025545Y022856D01*
X025545Y022676D01*
X025250Y022766D02*
X025070Y022766D01*
X024955Y022811D02*
X024865Y022901D01*
X024865Y022631D01*
X024955Y022631D02*
X024775Y022631D01*
X026248Y022766D02*
X026429Y022766D01*
X021829Y022766D02*
X021648Y022766D01*
X021648Y022811D02*
X021648Y022631D01*
X021534Y022631D02*
X021534Y022901D01*
X021354Y022631D01*
X021354Y022901D01*
X021239Y022901D02*
X021239Y022631D01*
X021059Y022631D01*
X020945Y022676D02*
X020900Y022631D01*
X020809Y022631D01*
X020764Y022676D01*
X020764Y022766D01*
X020854Y022766D01*
X020764Y022856D02*
X020809Y022901D01*
X020900Y022901D01*
X020945Y022856D01*
X020945Y022676D01*
X020650Y022766D02*
X020470Y022766D01*
X020355Y022856D02*
X020310Y022901D01*
X020220Y022901D01*
X020175Y022856D01*
X020175Y022811D01*
X020355Y022631D01*
X020175Y022631D01*
X021648Y022811D02*
X021738Y022901D01*
X021829Y022811D01*
X021829Y022631D01*
X016696Y022631D02*
X016606Y022631D01*
X016651Y022631D02*
X016651Y022901D01*
X016696Y022901D02*
X016606Y022901D01*
X016500Y022856D02*
X016455Y022901D01*
X016365Y022901D01*
X016320Y022856D01*
X016320Y022811D01*
X016500Y022631D01*
X016320Y022631D01*
X016205Y022676D02*
X016160Y022631D01*
X016070Y022631D01*
X016025Y022676D01*
X016025Y022856D02*
X016070Y022901D01*
X016160Y022901D01*
X016205Y022856D01*
X016205Y022676D01*
X012096Y022631D02*
X012006Y022631D01*
X012051Y022631D02*
X012051Y022901D01*
X012096Y022901D02*
X012006Y022901D01*
X011900Y022856D02*
X011855Y022901D01*
X011765Y022901D01*
X011720Y022856D01*
X011720Y022811D01*
X011900Y022631D01*
X011720Y022631D01*
X011605Y022676D02*
X011560Y022631D01*
X011470Y022631D01*
X011425Y022676D01*
X011425Y022856D02*
X011470Y022901D01*
X011560Y022901D01*
X011605Y022856D01*
X011605Y022676D01*
X008239Y022901D02*
X008059Y022901D01*
X008149Y022901D02*
X008149Y022631D01*
X007945Y022631D02*
X007945Y022901D01*
X007764Y022901D01*
X007650Y022901D02*
X007560Y022811D01*
X007470Y022901D01*
X007470Y022631D01*
X007355Y022631D02*
X007355Y022901D01*
X007220Y022901D01*
X007175Y022856D01*
X007175Y022766D01*
X007220Y022721D01*
X007355Y022721D01*
X007650Y022631D02*
X007650Y022901D01*
X007854Y022766D02*
X007945Y022766D01*
X007945Y022631D02*
X007764Y022631D01*
X004639Y022901D02*
X004459Y022901D01*
X004549Y022901D02*
X004549Y022631D01*
X004345Y022631D02*
X004164Y022631D01*
X004050Y022631D02*
X004050Y022901D01*
X003960Y022811D01*
X003870Y022901D01*
X003870Y022631D01*
X003755Y022631D02*
X003755Y022901D01*
X003620Y022901D01*
X003575Y022856D01*
X003575Y022766D01*
X003620Y022721D01*
X003755Y022721D01*
X004164Y022901D02*
X004345Y022901D01*
X004345Y022631D01*
X004345Y022766D02*
X004254Y022766D01*
X001311Y018586D02*
X001041Y018406D01*
X001041Y018586D02*
X001311Y018406D01*
X001311Y018291D02*
X001311Y018111D01*
X001311Y018201D02*
X001041Y018201D01*
X001176Y017997D02*
X001176Y017817D01*
X001311Y017702D02*
X001311Y017522D01*
X001311Y017612D02*
X001041Y017612D01*
X001041Y017408D02*
X001311Y017227D01*
X001311Y017113D02*
X001311Y016933D01*
X001041Y016933D01*
X001041Y017113D01*
X001041Y017227D02*
X001311Y017408D01*
X001176Y017023D02*
X001176Y016933D01*
X038911Y007375D02*
X039181Y007375D01*
X039181Y007285D02*
X039181Y007465D01*
X039181Y007170D02*
X039181Y006990D01*
X039181Y007080D02*
X038911Y007080D01*
X038911Y006875D02*
X039091Y006875D01*
X039181Y006785D01*
X039091Y006695D01*
X038911Y006695D01*
X038956Y006581D02*
X038911Y006536D01*
X038911Y006401D01*
X039181Y006401D01*
X039181Y006536D01*
X039136Y006581D01*
X039091Y006581D01*
X039046Y006536D01*
X039046Y006401D01*
X039046Y006536D02*
X039001Y006581D01*
X038956Y006581D01*
X039046Y006695D02*
X039046Y006875D01*
D14*
X024408Y013481D03*
X023518Y013476D03*
X023538Y014641D03*
X023153Y014631D03*
X020368Y014296D03*
X020383Y013886D03*
X016913Y014586D03*
X022488Y009506D03*
D15*
X022488Y009511D03*
X023498Y013441D03*
X023523Y014676D03*
X020368Y014331D03*
X020383Y013851D03*
X016898Y014601D03*
D16*
X016888Y014611D03*
X020368Y014356D03*
X020383Y013826D03*
X024438Y013426D03*
X022488Y009516D03*
D17*
X022486Y009521D03*
X020381Y013796D03*
X020366Y014381D03*
X018301Y014581D03*
X015216Y014571D03*
X015251Y013601D03*
X024486Y014091D03*
D18*
X024741Y013526D03*
X023481Y014741D03*
X020366Y014401D03*
X020381Y013781D03*
X016326Y013546D03*
X015461Y013486D03*
X015461Y013481D03*
X015461Y013476D03*
X015461Y013471D03*
X015461Y013466D03*
X015461Y013461D03*
X015461Y013456D03*
X015461Y013451D03*
X015461Y013446D03*
X015461Y013441D03*
X015461Y013436D03*
X015466Y013391D03*
X015466Y013386D03*
X015466Y013381D03*
X015456Y013511D03*
X015456Y013516D03*
X015456Y013521D03*
X015456Y013526D03*
X015456Y013531D03*
X015456Y013536D03*
X015456Y013541D03*
X015456Y013546D03*
X015456Y013551D03*
X015456Y013556D03*
X015456Y013561D03*
X015456Y013566D03*
X015456Y013571D03*
X015456Y013576D03*
X015456Y013581D03*
X015456Y013586D03*
X015456Y013591D03*
X015456Y013596D03*
X015221Y013576D03*
X015201Y014586D03*
X015196Y014591D03*
X014821Y014806D03*
X022486Y009526D03*
D19*
X022486Y009531D03*
X024476Y013381D03*
X023151Y014616D03*
X023471Y014756D03*
X022401Y014196D03*
X022401Y014191D03*
X022401Y014186D03*
X022401Y014181D03*
X022401Y014176D03*
X022401Y014171D03*
X022401Y014166D03*
X022401Y014161D03*
X022401Y014156D03*
X022401Y014151D03*
X022401Y014146D03*
X022401Y014141D03*
X022406Y013976D03*
X020366Y014421D03*
X018521Y014306D03*
X018521Y014301D03*
X018521Y014296D03*
X018521Y014291D03*
X018521Y014286D03*
X018521Y014281D03*
X018521Y014276D03*
X018521Y014271D03*
X018251Y014616D03*
X017556Y014346D03*
X017556Y014341D03*
X017551Y014316D03*
X017551Y014311D03*
X017551Y014306D03*
X017551Y014301D03*
X017551Y014296D03*
X017551Y014291D03*
X017551Y014286D03*
X017551Y014281D03*
X017551Y014276D03*
X017551Y014271D03*
X017546Y014266D03*
X017546Y014261D03*
X017546Y014256D03*
X017546Y014251D03*
X017546Y014246D03*
X017546Y014241D03*
X017546Y014236D03*
X017546Y014231D03*
X017546Y014226D03*
X017546Y014221D03*
X017546Y014216D03*
X017546Y014211D03*
X017546Y014206D03*
X017546Y014201D03*
X017546Y014196D03*
X017546Y014191D03*
X017546Y014186D03*
X017546Y014181D03*
X017546Y014176D03*
X017546Y014171D03*
X017546Y014166D03*
X017546Y014161D03*
X017546Y014156D03*
X017546Y014151D03*
X017546Y014146D03*
X017546Y014141D03*
X017546Y014136D03*
X017546Y014131D03*
X017546Y014126D03*
X017546Y014121D03*
X017546Y014116D03*
X017546Y014111D03*
X017546Y014106D03*
X017546Y014101D03*
X017546Y014096D03*
X017546Y014091D03*
X017546Y014086D03*
X017546Y014081D03*
X017546Y014076D03*
X017546Y014071D03*
X017546Y014066D03*
X017546Y014061D03*
X017546Y014056D03*
X017546Y014051D03*
X017546Y014046D03*
X017546Y014041D03*
X017546Y014036D03*
X017546Y014031D03*
X017546Y014026D03*
X017546Y014021D03*
X017546Y014016D03*
X017546Y014011D03*
X017546Y014006D03*
X017546Y014001D03*
X017546Y013996D03*
X017546Y013991D03*
X017546Y013986D03*
X017546Y013981D03*
X017546Y013976D03*
X017546Y013971D03*
X017546Y013966D03*
X017546Y013961D03*
X017546Y013956D03*
X017546Y013951D03*
X017546Y013946D03*
X017546Y013941D03*
X017546Y013936D03*
X017546Y013931D03*
X017546Y013926D03*
X017546Y013921D03*
X017546Y013916D03*
X017546Y013911D03*
X017546Y013906D03*
X017546Y013901D03*
X017546Y013896D03*
X017546Y013891D03*
X017546Y013886D03*
X017546Y013881D03*
X017546Y013876D03*
X017546Y013871D03*
X017546Y013866D03*
X017546Y013861D03*
X017546Y013856D03*
X017546Y013851D03*
X017546Y013846D03*
X017546Y013841D03*
X017546Y013836D03*
X017546Y013831D03*
X017546Y013826D03*
X017546Y013821D03*
X017546Y013816D03*
X017546Y013811D03*
X017546Y013806D03*
X017546Y013801D03*
X017546Y013796D03*
X017546Y013791D03*
X017546Y013786D03*
X017546Y013781D03*
X017546Y013776D03*
X017546Y013771D03*
X017546Y013766D03*
X017546Y013761D03*
X017546Y013756D03*
X017546Y013751D03*
X017546Y013746D03*
X017546Y013741D03*
X017546Y013736D03*
X017546Y013731D03*
X017546Y013726D03*
X017546Y013721D03*
X017546Y013716D03*
X017546Y013711D03*
X017546Y013706D03*
X017546Y013701D03*
X017546Y013696D03*
X017546Y013691D03*
X017546Y013686D03*
X017546Y013681D03*
X017546Y013676D03*
X017546Y013671D03*
X017546Y013666D03*
X017546Y013661D03*
X017546Y013656D03*
X017546Y013651D03*
X017546Y013646D03*
X017546Y013641D03*
X017546Y013636D03*
X017546Y013631D03*
X017546Y013626D03*
X017546Y013621D03*
X017546Y013616D03*
X017546Y013611D03*
X017546Y013606D03*
X017546Y013601D03*
X017546Y013596D03*
X017546Y013591D03*
X017546Y013586D03*
X017546Y013581D03*
X017546Y013576D03*
X017546Y013571D03*
X017546Y013566D03*
X017546Y013561D03*
X017546Y013556D03*
X017546Y013551D03*
X017546Y013546D03*
X017546Y013541D03*
X017546Y013536D03*
X017546Y013531D03*
X017546Y013526D03*
X017546Y013521D03*
X017546Y013516D03*
X017546Y013511D03*
X017546Y013506D03*
X017546Y013501D03*
X017546Y013496D03*
X017546Y013491D03*
X017546Y013486D03*
X017546Y013481D03*
X017546Y013476D03*
X017546Y013471D03*
X017546Y013466D03*
X017546Y013461D03*
X017546Y013456D03*
X017546Y013451D03*
X017546Y013446D03*
X017546Y013441D03*
X017546Y013436D03*
X017546Y013431D03*
X017546Y013426D03*
X017546Y013421D03*
X017546Y013416D03*
X017546Y013411D03*
X017546Y013406D03*
X017546Y013401D03*
X017546Y013396D03*
X017546Y013391D03*
X017546Y013386D03*
X017546Y013381D03*
X016981Y013781D03*
X016981Y013786D03*
X016981Y013791D03*
X016981Y013796D03*
X016981Y013801D03*
X016981Y013806D03*
X016981Y013811D03*
X016976Y013826D03*
X016976Y013831D03*
X016976Y013836D03*
X016971Y013851D03*
X016971Y013856D03*
X016966Y013871D03*
X016351Y013531D03*
X016111Y013781D03*
X016111Y013786D03*
X016111Y013791D03*
X016111Y013796D03*
X016111Y013801D03*
X016111Y013806D03*
X016111Y013811D03*
X016111Y013816D03*
X016111Y014261D03*
X016111Y014266D03*
X016111Y014271D03*
X016111Y014276D03*
X016111Y014281D03*
X016111Y014286D03*
X016111Y014291D03*
X016111Y014296D03*
X016111Y014301D03*
X016111Y014306D03*
X016116Y014361D03*
X016116Y014366D03*
X016126Y014421D03*
X016126Y014426D03*
X016131Y014441D03*
X016131Y014446D03*
X016136Y014461D03*
X016136Y014466D03*
X016141Y014471D03*
X016141Y014476D03*
X016141Y014481D03*
X016146Y014486D03*
X016146Y014491D03*
X016536Y014806D03*
X015436Y014276D03*
X015436Y014271D03*
X015436Y014266D03*
X015436Y014261D03*
X015436Y014256D03*
X015436Y014251D03*
X015436Y014246D03*
X015166Y014611D03*
X014326Y014101D03*
X014326Y014096D03*
X014326Y014091D03*
X014326Y014086D03*
X014326Y014081D03*
X014326Y014076D03*
X014331Y013996D03*
X014331Y013991D03*
X014331Y013986D03*
X014341Y013921D03*
X015436Y013886D03*
X015436Y013881D03*
X015436Y013876D03*
X015436Y013871D03*
X015436Y013866D03*
X015436Y013861D03*
X015436Y013856D03*
X018521Y013381D03*
D20*
X016961Y013636D03*
X016956Y013631D03*
X016956Y013626D03*
X016951Y013616D03*
X016931Y013946D03*
X016926Y013956D03*
X016921Y013961D03*
X016916Y013966D03*
X016656Y013361D03*
X016371Y013521D03*
X016121Y013726D03*
X016121Y013731D03*
X015426Y013786D03*
X015426Y013791D03*
X015426Y013796D03*
X015171Y013541D03*
X014426Y013691D03*
X014421Y013701D03*
X014416Y013706D03*
X014416Y013711D03*
X014411Y013716D03*
X014406Y013726D03*
X014401Y013736D03*
X014361Y014336D03*
X014366Y014351D03*
X014371Y014361D03*
X014371Y014366D03*
X014371Y014371D03*
X014376Y014376D03*
X014376Y014381D03*
X014381Y014391D03*
X015426Y014346D03*
X015426Y014341D03*
X015426Y014336D03*
X016176Y014551D03*
X016181Y014556D03*
X017581Y014446D03*
X017586Y014461D03*
X017591Y014471D03*
X017591Y014476D03*
X017596Y014481D03*
X018511Y014381D03*
X018511Y014376D03*
X018511Y014371D03*
X020381Y013741D03*
X021066Y013436D03*
X021066Y013431D03*
X021071Y013426D03*
X022406Y013886D03*
X022406Y013891D03*
X022406Y013896D03*
X022406Y013901D03*
X022401Y014241D03*
X022401Y014246D03*
X022401Y014251D03*
X021681Y014626D03*
X023461Y014766D03*
X024741Y013536D03*
X022486Y009536D03*
D21*
X022483Y009541D03*
X021093Y013411D03*
X020383Y013721D03*
X018498Y014431D03*
X018498Y014436D03*
X017633Y014546D03*
X017628Y014541D03*
X016878Y014006D03*
X016873Y014011D03*
X016923Y013571D03*
X016918Y013566D03*
X016383Y013516D03*
X016133Y013676D03*
X016133Y013681D03*
X015413Y013731D03*
X015413Y013736D03*
X015413Y014401D03*
X015128Y014631D03*
X014443Y014506D03*
X014438Y014501D03*
X014433Y014491D03*
X014428Y014486D03*
X014473Y013626D03*
X014478Y013621D03*
X014483Y013616D03*
X016208Y014591D03*
X016213Y014596D03*
X016218Y014601D03*
X022398Y014321D03*
X022398Y014316D03*
X022398Y014311D03*
X023448Y014776D03*
X024738Y013541D03*
D22*
X024738Y013546D03*
X022398Y014351D03*
X022398Y014356D03*
X021678Y014616D03*
X021058Y013481D03*
X020383Y013701D03*
X020383Y013706D03*
X018488Y014461D03*
X018488Y014466D03*
X017663Y014581D03*
X017658Y014576D03*
X016823Y014646D03*
X016238Y014616D03*
X016848Y014031D03*
X016853Y014026D03*
X016898Y013546D03*
X016403Y013511D03*
X016143Y013651D03*
X015403Y014436D03*
X015113Y014636D03*
X014508Y013591D03*
X014513Y013586D03*
X022483Y009546D03*
D23*
X022483Y009551D03*
X023158Y013551D03*
X022398Y014381D03*
X022398Y014386D03*
X021053Y013501D03*
X020383Y013686D03*
X020383Y013691D03*
X018478Y014491D03*
X017678Y014596D03*
X016823Y014046D03*
X016878Y013531D03*
X016153Y013626D03*
X016153Y013631D03*
X015398Y013681D03*
X014538Y013566D03*
X015393Y014466D03*
X014503Y014576D03*
D24*
X014528Y014596D03*
X015383Y014491D03*
X016268Y014636D03*
X016163Y013611D03*
X016863Y013521D03*
X017698Y014611D03*
X017938Y014786D03*
X018468Y014511D03*
X020383Y013676D03*
X020383Y013671D03*
X021048Y013526D03*
X021048Y013521D03*
X015388Y013656D03*
X022483Y009556D03*
D25*
X022483Y009561D03*
X023158Y013561D03*
X024733Y013566D03*
X021043Y013546D03*
X020383Y013656D03*
X020368Y014521D03*
X018458Y014531D03*
X017718Y014621D03*
X016783Y014066D03*
X016173Y013591D03*
X015378Y013636D03*
X015373Y014511D03*
D26*
X015363Y014531D03*
X014568Y014621D03*
X014603Y013531D03*
X018448Y014546D03*
X020368Y014536D03*
X020383Y013641D03*
X021038Y013571D03*
X021038Y013566D03*
X022403Y013691D03*
X023158Y013566D03*
X022393Y014461D03*
X024583Y014051D03*
X024738Y014611D03*
X022483Y009566D03*
D27*
X022483Y009571D03*
X023968Y013391D03*
X023968Y013396D03*
X023968Y013401D03*
X023968Y013406D03*
X023968Y013411D03*
X023968Y013416D03*
X023968Y013421D03*
X024728Y013581D03*
X024738Y014606D03*
X023158Y013571D03*
X021573Y013541D03*
X020383Y013626D03*
X020368Y014551D03*
X021003Y014546D03*
X021008Y014556D03*
X021013Y014561D03*
X021018Y014571D03*
X021023Y014576D03*
X021023Y014581D03*
X021028Y014586D03*
X021033Y014591D03*
X021033Y014596D03*
X021038Y014601D03*
X021043Y014606D03*
X021043Y014611D03*
X021048Y014616D03*
X021053Y014621D03*
X021058Y014631D03*
X021063Y014636D03*
X022393Y014481D03*
X018438Y014561D03*
X017938Y014776D03*
X016748Y014081D03*
X016193Y013566D03*
X015353Y014551D03*
X016543Y014791D03*
D28*
X016731Y014086D03*
X014826Y014781D03*
X020366Y014561D03*
X020966Y014481D03*
X020971Y014486D03*
X020971Y014491D03*
X020976Y014496D03*
X021091Y014671D03*
X021106Y014691D03*
X021681Y014581D03*
X022396Y014496D03*
X023976Y014321D03*
X023976Y014316D03*
X023976Y014311D03*
X023976Y014306D03*
X023976Y014301D03*
X023976Y014296D03*
X023976Y014291D03*
X023976Y014286D03*
X023976Y014281D03*
X023976Y014276D03*
X023976Y014271D03*
X023976Y014266D03*
X023976Y014261D03*
X023976Y014256D03*
X023976Y014251D03*
X023976Y014246D03*
X023976Y014241D03*
X023976Y014236D03*
X023976Y014231D03*
X023976Y014226D03*
X023976Y014221D03*
X023976Y014216D03*
X023976Y014211D03*
X023976Y014206D03*
X023976Y014201D03*
X023976Y014196D03*
X023976Y014191D03*
X023976Y014186D03*
X023976Y014181D03*
X023976Y014176D03*
X023976Y014171D03*
X023976Y014166D03*
X023976Y014161D03*
X023976Y014156D03*
X023976Y014151D03*
X023976Y014146D03*
X023976Y014141D03*
X023976Y014136D03*
X023976Y014131D03*
X023976Y014126D03*
X023976Y014121D03*
X023976Y014116D03*
X023976Y014111D03*
X023976Y014106D03*
X023976Y014101D03*
X023976Y014096D03*
X023976Y014091D03*
X023976Y014086D03*
X023976Y014081D03*
X023976Y014076D03*
X023976Y014071D03*
X023976Y014066D03*
X023976Y014061D03*
X023976Y014056D03*
X023976Y014051D03*
X023976Y014046D03*
X023976Y014041D03*
X023976Y014036D03*
X023976Y014031D03*
X023976Y014026D03*
X023976Y014021D03*
X023976Y014016D03*
X023976Y014011D03*
X023976Y014006D03*
X023976Y014001D03*
X023976Y013996D03*
X023976Y013991D03*
X023976Y013986D03*
X023976Y013981D03*
X023976Y013976D03*
X023976Y013971D03*
X023976Y013966D03*
X023976Y013961D03*
X023976Y013956D03*
X023976Y013951D03*
X023976Y013946D03*
X023976Y013941D03*
X023976Y013936D03*
X023976Y013931D03*
X023976Y013926D03*
X023976Y013921D03*
X023976Y013916D03*
X023976Y013911D03*
X023976Y013906D03*
X023976Y013901D03*
X023976Y013896D03*
X023976Y013891D03*
X023976Y013886D03*
X023976Y013881D03*
X023976Y013876D03*
X023976Y013871D03*
X023976Y013866D03*
X023976Y013861D03*
X023976Y013856D03*
X023976Y013851D03*
X023976Y013846D03*
X023976Y013841D03*
X023976Y013836D03*
X023976Y013831D03*
X023976Y013826D03*
X023976Y013821D03*
X023976Y013816D03*
X023976Y013811D03*
X023976Y013806D03*
X023976Y013801D03*
X023976Y013796D03*
X023976Y013791D03*
X023976Y013786D03*
X023976Y013781D03*
X023976Y013776D03*
X023976Y013771D03*
X023976Y013766D03*
X023976Y013761D03*
X023976Y013756D03*
X023976Y013751D03*
X023976Y013746D03*
X023976Y013741D03*
X023976Y013736D03*
X023976Y013731D03*
X023976Y013726D03*
X023976Y013721D03*
X023976Y013716D03*
X023976Y013711D03*
X023976Y013706D03*
X023976Y013701D03*
X023976Y013696D03*
X023976Y013691D03*
X023976Y013686D03*
X023976Y013681D03*
X023976Y013676D03*
X023976Y013671D03*
X023976Y013666D03*
X023976Y013661D03*
X023976Y013656D03*
X023976Y013651D03*
X023976Y013646D03*
X023976Y013641D03*
X023976Y013636D03*
X023976Y013631D03*
X023976Y013626D03*
X023976Y013621D03*
X023976Y013616D03*
X023976Y013611D03*
X023976Y013606D03*
X023976Y013601D03*
X023976Y013596D03*
X023976Y013591D03*
X023976Y013586D03*
X023976Y013581D03*
X023976Y013576D03*
X023976Y013571D03*
X023976Y013566D03*
X023976Y013561D03*
X023976Y013556D03*
X023976Y013551D03*
X022406Y013656D03*
X022481Y009576D03*
D29*
X022481Y009581D03*
X022406Y013636D03*
X023986Y014441D03*
X023986Y014446D03*
X023986Y014451D03*
X023151Y014566D03*
X022396Y014516D03*
X021681Y014576D03*
X021141Y014726D03*
X021136Y014721D03*
X020941Y014431D03*
X020936Y014421D03*
X024726Y013596D03*
X016546Y014786D03*
D30*
X017938Y014766D03*
X016653Y013391D03*
X014863Y013386D03*
X014623Y014641D03*
X014828Y014776D03*
X020368Y014591D03*
X020918Y014386D03*
X020918Y014381D03*
X020923Y014391D03*
X021158Y014741D03*
X022393Y014531D03*
X022393Y014526D03*
X023998Y014521D03*
X023998Y014516D03*
X023998Y014511D03*
X024618Y014021D03*
X024723Y013606D03*
X023158Y013586D03*
X022403Y013626D03*
X020383Y013586D03*
X022483Y009586D03*
D31*
X022481Y009591D03*
X016651Y013396D03*
X020366Y014601D03*
X020901Y014346D03*
X020906Y014351D03*
X020906Y014356D03*
X021176Y014756D03*
X021681Y014561D03*
X022406Y013616D03*
X023161Y013591D03*
X024006Y014551D03*
X024006Y014556D03*
X024006Y014561D03*
X024746Y014591D03*
D32*
X024016Y014596D03*
X024636Y014001D03*
X024721Y013626D03*
X023151Y014546D03*
X022406Y013596D03*
X020886Y014306D03*
X020886Y014311D03*
X021196Y014771D03*
X020381Y013561D03*
X016651Y013401D03*
X022481Y009596D03*
D33*
X022481Y009601D03*
X022406Y013586D03*
X022391Y014571D03*
X023151Y014536D03*
X024026Y014626D03*
X024026Y014631D03*
X024646Y013986D03*
X024716Y013641D03*
X020871Y014271D03*
X020381Y013546D03*
D34*
X020381Y013536D03*
X020866Y014256D03*
X021686Y014536D03*
X023151Y014531D03*
X024036Y014646D03*
X024036Y014651D03*
X024651Y013976D03*
X024716Y013651D03*
X023161Y013611D03*
X022406Y013576D03*
X021566Y013561D03*
X022481Y009606D03*
D35*
X022481Y009611D03*
X023161Y013621D03*
X023151Y014521D03*
X022391Y014591D03*
X020851Y014221D03*
X020851Y014216D03*
X020366Y014656D03*
X020381Y013521D03*
X024046Y014671D03*
X024661Y013956D03*
X024711Y013671D03*
X016551Y014771D03*
X016261Y014241D03*
D36*
X020366Y014671D03*
X020841Y014191D03*
X020841Y014186D03*
X020381Y013506D03*
X021686Y014511D03*
X022391Y014606D03*
X023151Y014511D03*
X024056Y014696D03*
X024756Y014561D03*
X024671Y013931D03*
X024711Y013691D03*
X023161Y013631D03*
X022406Y013551D03*
X022481Y009616D03*
D37*
X022481Y009621D03*
X022406Y013546D03*
X023161Y013636D03*
X023151Y014506D03*
X022391Y014611D03*
X021686Y014506D03*
X020836Y014176D03*
X020836Y014171D03*
X020381Y013496D03*
X017941Y014736D03*
X016631Y014106D03*
X014861Y013411D03*
X022486Y017726D03*
X024061Y014701D03*
X024761Y014556D03*
X024676Y013916D03*
X024676Y013911D03*
X024706Y013711D03*
X024706Y013706D03*
D38*
X024701Y013741D03*
X024701Y013746D03*
X024701Y013751D03*
X024701Y013756D03*
X024686Y013861D03*
X024686Y013866D03*
X024686Y013871D03*
X024071Y014721D03*
X023151Y014496D03*
X022391Y014626D03*
X021686Y014491D03*
X021686Y014486D03*
X020826Y014146D03*
X020826Y014141D03*
X020381Y013481D03*
X023161Y013646D03*
X022481Y009626D03*
X014861Y013416D03*
X014831Y014746D03*
D39*
X014828Y014741D03*
X019478Y013381D03*
X020823Y014051D03*
X020818Y014121D03*
X020368Y014706D03*
X022403Y013526D03*
X024078Y014731D03*
X024693Y013811D03*
X022478Y009631D03*
D40*
X022481Y009636D03*
X020381Y013456D03*
X019481Y013396D03*
X020816Y014071D03*
X020816Y014076D03*
X020811Y014081D03*
X020811Y014096D03*
X020811Y014101D03*
X022391Y014641D03*
X023151Y014476D03*
X023161Y013661D03*
X024086Y014741D03*
X016556Y014756D03*
X014861Y013426D03*
D41*
X019483Y013411D03*
X020368Y014726D03*
X020368Y014731D03*
X021688Y014451D03*
X021688Y014446D03*
X022403Y013511D03*
X023153Y014466D03*
X024093Y014751D03*
X022478Y009641D03*
D42*
X022481Y009646D03*
X020381Y013431D03*
X020381Y013436D03*
X019486Y013426D03*
X020371Y014741D03*
X022391Y014656D03*
X023151Y014456D03*
X023161Y013686D03*
X023161Y013681D03*
X016316Y014221D03*
D43*
X016323Y014216D03*
X016643Y013456D03*
X019488Y013441D03*
X021688Y014416D03*
X022403Y013496D03*
X023153Y014446D03*
X024108Y014766D03*
X020368Y014756D03*
X020368Y014751D03*
X022478Y009651D03*
D44*
X022478Y009656D03*
X019493Y013461D03*
X019493Y013466D03*
X017943Y014696D03*
X016333Y014211D03*
X014858Y013446D03*
X021693Y014391D03*
X022388Y014671D03*
X023153Y014426D03*
X024118Y014776D03*
X025553Y013731D03*
X025553Y013726D03*
X025553Y013721D03*
X025553Y013716D03*
X025548Y013711D03*
X025548Y013706D03*
X025548Y013701D03*
X025548Y013696D03*
X025508Y013556D03*
X025503Y013546D03*
X025503Y013541D03*
X025498Y013531D03*
X022403Y013486D03*
X022488Y017721D03*
D45*
X020368Y014776D03*
X021693Y014376D03*
X021693Y014371D03*
X022388Y014676D03*
X023153Y014421D03*
X023153Y014416D03*
X022403Y013481D03*
X019493Y013471D03*
X017943Y014691D03*
X016643Y013466D03*
X022478Y009661D03*
X025483Y013501D03*
X025488Y013511D03*
X025558Y013756D03*
X025558Y013761D03*
X025558Y013766D03*
X025558Y013771D03*
D46*
X025563Y013826D03*
X025463Y013466D03*
X023153Y014401D03*
X022388Y014686D03*
X021693Y014346D03*
X021693Y014341D03*
X021693Y014336D03*
X019498Y013496D03*
X019498Y013491D03*
X016643Y013476D03*
X014858Y013456D03*
X014828Y014706D03*
X016563Y014736D03*
X022478Y009666D03*
D47*
X022478Y009671D03*
X022403Y013471D03*
X023158Y013751D03*
X023153Y014386D03*
X023153Y014391D03*
X022388Y014691D03*
X019498Y013506D03*
X019498Y013501D03*
X016643Y013481D03*
X025453Y013451D03*
X025563Y013851D03*
X025563Y013856D03*
D48*
X025558Y013896D03*
X023158Y013771D03*
X023153Y014366D03*
X021698Y014271D03*
X021698Y014266D03*
X021698Y014261D03*
X021698Y014256D03*
X021698Y014251D03*
X019503Y013526D03*
X019418Y014776D03*
X019418Y014781D03*
X014828Y014696D03*
X014858Y013466D03*
X022478Y009676D03*
D49*
X022478Y009681D03*
X025423Y013411D03*
X025428Y013416D03*
X025558Y013911D03*
X025558Y013916D03*
X023158Y013791D03*
X023158Y013786D03*
X023158Y013781D03*
X023153Y014351D03*
X023153Y014356D03*
X022388Y014701D03*
X021703Y014221D03*
X021703Y014216D03*
X016638Y013496D03*
X016368Y014191D03*
X014828Y014691D03*
X014858Y013471D03*
D50*
X016638Y013506D03*
X019508Y013556D03*
X019428Y014736D03*
X019428Y014741D03*
X022403Y013451D03*
X023158Y013811D03*
X023158Y013816D03*
X023158Y013821D03*
X023153Y014321D03*
X023153Y014326D03*
X025553Y013951D03*
X025553Y013946D03*
X025408Y013396D03*
X022478Y009686D03*
D51*
X022478Y009691D03*
X025403Y013391D03*
X025548Y013966D03*
X023158Y013831D03*
X023158Y013826D03*
X023153Y014306D03*
X023153Y014311D03*
X019508Y013566D03*
X019433Y014726D03*
X017948Y014646D03*
X014828Y014681D03*
D52*
X014828Y014676D03*
X016388Y014176D03*
X017948Y014641D03*
X019433Y014716D03*
X019513Y013576D03*
X022388Y014716D03*
X023153Y014296D03*
X023153Y014291D03*
X023153Y014286D03*
X023153Y013856D03*
X025398Y013386D03*
X025548Y013976D03*
X022488Y017716D03*
X022478Y009696D03*
D53*
X022478Y009701D03*
X025378Y013371D03*
X025543Y014001D03*
X023153Y013916D03*
X023153Y013911D03*
X023153Y013906D03*
X023148Y014226D03*
X023148Y014231D03*
X023148Y014236D03*
X019443Y014686D03*
X019443Y014691D03*
X016573Y014706D03*
X016398Y014166D03*
X014828Y014666D03*
X014853Y013496D03*
D54*
X014853Y013501D03*
X014828Y014661D03*
X016573Y014701D03*
X019443Y014681D03*
X019518Y013611D03*
X019518Y013606D03*
X023148Y013956D03*
X023148Y013961D03*
X023148Y013966D03*
X023148Y013971D03*
X023148Y013976D03*
X023148Y013981D03*
X023148Y013986D03*
X023148Y014181D03*
X023148Y014186D03*
X023148Y014191D03*
X023148Y014196D03*
X023148Y014201D03*
X023148Y014206D03*
X025538Y014016D03*
X025538Y014011D03*
X022478Y009706D03*
D55*
X022476Y009711D03*
X025366Y013361D03*
X025531Y014031D03*
X025521Y014666D03*
X025521Y014671D03*
X025521Y014676D03*
X025521Y014701D03*
X022386Y014731D03*
X019451Y014661D03*
X019451Y014656D03*
X019521Y013626D03*
X019521Y013621D03*
X016576Y014696D03*
X016411Y014156D03*
D56*
X016563Y014681D03*
X014828Y014646D03*
X014853Y013516D03*
X019523Y013641D03*
X025353Y013356D03*
X025528Y014046D03*
X025518Y014636D03*
X025518Y014641D03*
X025518Y014646D03*
X022478Y009716D03*
D57*
X022476Y009721D03*
X022401Y013421D03*
X024201Y013366D03*
X025521Y014061D03*
X025516Y014606D03*
X025516Y014611D03*
X025516Y014616D03*
X025501Y014721D03*
X022386Y014741D03*
X019461Y014621D03*
X019526Y013656D03*
D58*
X019468Y014601D03*
X016433Y014131D03*
X022398Y013416D03*
X024208Y013361D03*
X025513Y014076D03*
X025508Y014566D03*
X025508Y014571D03*
X025508Y014576D03*
X025493Y014731D03*
X022478Y009726D03*
D59*
X022478Y009731D03*
X025333Y013346D03*
X025508Y014551D03*
X025508Y014556D03*
X025508Y014561D03*
X025488Y014736D03*
X019468Y014591D03*
X019533Y013686D03*
X019533Y013681D03*
X016438Y014126D03*
D60*
X016446Y014116D03*
X019476Y014571D03*
X019536Y013701D03*
X025481Y014741D03*
X022476Y009736D03*
D61*
X022478Y009741D03*
X025313Y013341D03*
X025498Y014106D03*
X025468Y014751D03*
X022383Y014756D03*
X019483Y014551D03*
X019483Y014546D03*
D62*
X019486Y014531D03*
X025461Y014756D03*
X025491Y014116D03*
X022476Y009746D03*
D63*
X022476Y009751D03*
X024241Y013346D03*
X025486Y014121D03*
X025456Y014761D03*
X019491Y014521D03*
X019546Y013746D03*
X019546Y013741D03*
D64*
X019548Y013761D03*
X019498Y014496D03*
X019498Y014501D03*
X022383Y014766D03*
X022398Y013396D03*
X025478Y014131D03*
X022478Y009756D03*
D65*
X022476Y009761D03*
X019556Y013781D03*
X019506Y014476D03*
X025441Y014771D03*
X025471Y014141D03*
D66*
X025466Y014146D03*
X025436Y014776D03*
X024261Y013341D03*
X022386Y014771D03*
X019556Y013791D03*
X022476Y009766D03*
D67*
X022478Y009771D03*
X019558Y013806D03*
X019513Y014446D03*
X022383Y014776D03*
X025423Y014781D03*
D68*
X025456Y014161D03*
X019566Y013826D03*
X019521Y014426D03*
X022476Y009776D03*
D69*
X022476Y009781D03*
X019566Y013836D03*
X019526Y014406D03*
X019526Y014411D03*
X025451Y014166D03*
D70*
X019573Y013856D03*
X019533Y014386D03*
X019533Y014391D03*
X022478Y009786D03*
D71*
X022476Y009791D03*
X022396Y013376D03*
X019576Y013871D03*
X019576Y013876D03*
X019541Y014366D03*
X025396Y014796D03*
D72*
X021361Y013601D03*
X019546Y014351D03*
X022476Y009796D03*
D73*
X022476Y009801D03*
X021361Y013606D03*
X019581Y013896D03*
X019551Y014336D03*
D74*
X019561Y014311D03*
X019561Y014306D03*
X019586Y013921D03*
X019586Y013916D03*
X021366Y013616D03*
X025416Y014196D03*
X022476Y009806D03*
D75*
X022476Y009811D03*
X021366Y013621D03*
X019591Y013931D03*
X019591Y013936D03*
X019561Y014301D03*
X025371Y014806D03*
D76*
X021366Y013626D03*
X019566Y014286D03*
X022476Y009816D03*
D77*
X022476Y009821D03*
X019601Y013971D03*
X019581Y014246D03*
X019576Y014256D03*
D78*
X019586Y014236D03*
X019586Y014231D03*
X019601Y013981D03*
X021371Y013646D03*
X025351Y014811D03*
X022486Y017691D03*
X022476Y009826D03*
D79*
X022476Y009831D03*
X021371Y013651D03*
X019606Y013991D03*
X019606Y013996D03*
X019591Y014221D03*
D80*
X019596Y014206D03*
X019611Y014011D03*
X021371Y013656D03*
X022381Y014801D03*
X022476Y009836D03*
D81*
X022476Y009841D03*
X019616Y014031D03*
X019616Y014036D03*
X019606Y014176D03*
D82*
X019611Y014161D03*
X019621Y014051D03*
X019621Y014046D03*
X025366Y014226D03*
X022476Y009846D03*
D83*
X022476Y009851D03*
X019626Y014061D03*
X019626Y014066D03*
X019616Y014146D03*
X022381Y014806D03*
D84*
X019628Y014116D03*
X019623Y014121D03*
X019623Y014126D03*
X019628Y014081D03*
X019628Y014076D03*
X025353Y014231D03*
X022473Y009856D03*
D85*
X022473Y009861D03*
X021373Y013701D03*
X019633Y014091D03*
X019633Y014096D03*
X019633Y014101D03*
X023883Y014791D03*
D86*
X022391Y013351D03*
X021376Y013711D03*
X022476Y009866D03*
D87*
X022476Y009871D03*
D88*
X022473Y009876D03*
X021373Y013731D03*
X022378Y014811D03*
X023883Y014796D03*
D89*
X021373Y013741D03*
X021373Y013736D03*
X022473Y009881D03*
D90*
X022476Y009886D03*
X021371Y013751D03*
D91*
X021371Y013761D03*
X022476Y009891D03*
D92*
X022473Y009896D03*
X021368Y013776D03*
X023883Y014801D03*
D93*
X021368Y013786D03*
X021368Y013781D03*
X022473Y009901D03*
D94*
X022473Y009906D03*
X021368Y013791D03*
D95*
X021366Y013806D03*
X022476Y009911D03*
D96*
X022476Y009916D03*
X021366Y013816D03*
D97*
X022473Y009921D03*
D98*
X022473Y009926D03*
X021358Y013841D03*
X021358Y013846D03*
D99*
X021356Y013856D03*
X022476Y009931D03*
D100*
X022476Y009936D03*
X022486Y017666D03*
D101*
X021348Y013891D03*
X021348Y013886D03*
X022473Y009941D03*
D102*
X022473Y009946D03*
X021348Y013896D03*
D103*
X021343Y013911D03*
X025238Y014261D03*
X022473Y009951D03*
D104*
X022473Y009956D03*
X021343Y013921D03*
X022488Y017661D03*
D105*
X021336Y013941D03*
X021336Y013936D03*
X022476Y009961D03*
D106*
X022476Y009966D03*
D107*
X022473Y009971D03*
X021328Y013971D03*
X025203Y014526D03*
D108*
X025198Y014511D03*
X025198Y014506D03*
X021323Y013986D03*
X021323Y013981D03*
X022488Y017656D03*
X022473Y009976D03*
D109*
X022473Y009981D03*
X021318Y013996D03*
X021318Y014001D03*
X025198Y014496D03*
D110*
X025193Y014481D03*
X025193Y014476D03*
X021313Y014016D03*
X021313Y014011D03*
X022473Y009986D03*
D111*
X022476Y009991D03*
X021311Y014026D03*
X021311Y014031D03*
X025186Y014421D03*
X025186Y014426D03*
X025186Y014431D03*
X025186Y014436D03*
X025186Y014441D03*
D112*
X025183Y014391D03*
X025183Y014386D03*
X025183Y014381D03*
X025183Y014376D03*
X025183Y014371D03*
X022473Y009996D03*
D113*
X022473Y010001D03*
D114*
X022473Y010006D03*
D115*
X022473Y010011D03*
D116*
X022473Y010016D03*
D117*
X022476Y010021D03*
D118*
X022473Y010026D03*
D119*
X022473Y010031D03*
X022488Y017641D03*
D120*
X022473Y010036D03*
D121*
X022473Y010041D03*
D122*
X022473Y010046D03*
D123*
X022473Y010051D03*
X022488Y017636D03*
D124*
X022473Y010056D03*
D125*
X022473Y010061D03*
D126*
X022473Y010066D03*
X022488Y017631D03*
D127*
X022473Y010071D03*
D128*
X022473Y010076D03*
D129*
X022473Y010081D03*
D130*
X022473Y010086D03*
X024648Y012796D03*
D131*
X024653Y012811D03*
X024653Y012816D03*
X022473Y010091D03*
D132*
X022473Y010096D03*
X024663Y012851D03*
X024663Y012856D03*
D133*
X024668Y012871D03*
X024668Y012876D03*
X022473Y010101D03*
D134*
X022473Y010106D03*
X024673Y012891D03*
X024673Y012896D03*
D135*
X024678Y012911D03*
X024678Y012916D03*
X022473Y010111D03*
D136*
X022473Y010116D03*
X024683Y012931D03*
X024683Y012936D03*
D137*
X024688Y012951D03*
X024688Y012956D03*
X022473Y010121D03*
D138*
X022473Y010126D03*
X024693Y012971D03*
X024693Y012976D03*
D139*
X024698Y012991D03*
X024698Y012996D03*
X022473Y010131D03*
D140*
X022473Y010136D03*
X024703Y013016D03*
X024703Y013021D03*
D141*
X024711Y013046D03*
X024711Y013051D03*
X022471Y010141D03*
D142*
X022471Y010146D03*
X024716Y013066D03*
X024716Y013071D03*
X024716Y013076D03*
D143*
X024723Y013101D03*
X024723Y013106D03*
X024723Y013111D03*
X022473Y010151D03*
D144*
X022473Y010156D03*
X024728Y013126D03*
X024728Y013131D03*
D145*
X024733Y013151D03*
X024733Y013156D03*
X022473Y010161D03*
D146*
X022473Y010166D03*
X024738Y013171D03*
X024738Y013176D03*
X024738Y013181D03*
X022488Y017601D03*
D147*
X024743Y013201D03*
X024743Y013196D03*
X022473Y010171D03*
D148*
X022473Y010176D03*
X024748Y013221D03*
X024748Y013226D03*
D149*
X024753Y013246D03*
X024753Y013251D03*
X022473Y010181D03*
D150*
X022473Y010186D03*
X024758Y013271D03*
X024758Y013276D03*
X022488Y017596D03*
D151*
X024766Y013316D03*
X024766Y013311D03*
X024766Y013306D03*
X022471Y010191D03*
D152*
X022471Y010196D03*
X024771Y013336D03*
D153*
X022471Y010201D03*
D154*
X022471Y010206D03*
D155*
X022473Y010211D03*
X022488Y017586D03*
D156*
X022473Y010216D03*
D157*
X022473Y010221D03*
D158*
X022473Y010226D03*
D159*
X022473Y010231D03*
X022488Y017581D03*
D160*
X022473Y010236D03*
D161*
X022473Y010241D03*
D162*
X022473Y010246D03*
D163*
X022473Y010251D03*
D164*
X022471Y010256D03*
D165*
X022471Y010261D03*
D166*
X022471Y010266D03*
D167*
X022471Y010271D03*
D168*
X022471Y010276D03*
D169*
X022471Y010281D03*
D170*
X022473Y010286D03*
X022488Y017561D03*
D171*
X022473Y010291D03*
D172*
X022473Y010296D03*
D173*
X022473Y010301D03*
X022488Y017556D03*
D174*
X022473Y010306D03*
D175*
X022473Y010311D03*
D176*
X022473Y010316D03*
X022488Y017551D03*
D177*
X022473Y010321D03*
D178*
X022473Y010326D03*
D179*
X022473Y010331D03*
D180*
X022473Y010336D03*
X020343Y013346D03*
D181*
X022473Y010341D03*
D182*
X022473Y010346D03*
D183*
X022471Y010351D03*
D184*
X022471Y010356D03*
D185*
X022471Y010361D03*
D186*
X022471Y010366D03*
D187*
X022471Y010371D03*
D188*
X022471Y010376D03*
D189*
X022471Y010381D03*
D190*
X022471Y010386D03*
D191*
X022471Y010391D03*
D192*
X022471Y010396D03*
D193*
X022471Y010401D03*
D194*
X022471Y010406D03*
D195*
X022471Y010411D03*
X020281Y014796D03*
X022486Y017516D03*
D196*
X022471Y010416D03*
D197*
X022471Y010421D03*
X020291Y014801D03*
D198*
X022471Y010426D03*
D199*
X022471Y010431D03*
X020301Y014806D03*
D200*
X022471Y010436D03*
D201*
X022471Y010441D03*
D202*
X022471Y010446D03*
X020316Y014811D03*
D203*
X022471Y010451D03*
D204*
X022471Y010456D03*
D205*
X022471Y010461D03*
D206*
X022471Y010466D03*
D207*
X022471Y010471D03*
D208*
X022471Y010476D03*
X022486Y017491D03*
D209*
X022471Y010481D03*
D210*
X022471Y010486D03*
X022486Y017486D03*
D211*
X022471Y010491D03*
D212*
X022471Y010496D03*
D213*
X022471Y010501D03*
D214*
X022471Y010506D03*
D215*
X022471Y010511D03*
D216*
X022471Y010516D03*
D217*
X022471Y010521D03*
D218*
X022471Y010526D03*
D219*
X022471Y010531D03*
D220*
X022471Y010536D03*
X022486Y017466D03*
D221*
X022471Y010541D03*
D222*
X022471Y010546D03*
D223*
X022471Y010551D03*
D224*
X022471Y010556D03*
D225*
X022471Y010561D03*
D226*
X022471Y010566D03*
D227*
X022471Y010571D03*
X022486Y017451D03*
D228*
X022471Y010576D03*
D229*
X022471Y010581D03*
D230*
X022471Y010586D03*
D231*
X022471Y010591D03*
D232*
X022473Y010596D03*
X022488Y017441D03*
D233*
X022473Y010601D03*
D234*
X022473Y010606D03*
D235*
X022473Y010611D03*
D236*
X022473Y010616D03*
D237*
X022473Y010621D03*
X022488Y017431D03*
D238*
X022473Y010626D03*
D239*
X022473Y010631D03*
D240*
X022473Y010636D03*
D241*
X022473Y010641D03*
X022488Y017421D03*
D242*
X022473Y010646D03*
D243*
X022473Y010651D03*
X022488Y017416D03*
D244*
X022473Y010656D03*
D245*
X022473Y010661D03*
X022488Y017411D03*
D246*
X022471Y010666D03*
D247*
X022471Y010671D03*
D248*
X022471Y010676D03*
X022486Y017406D03*
D249*
X022471Y010681D03*
D250*
X022471Y010686D03*
X022486Y017401D03*
D251*
X022471Y010691D03*
D252*
X022471Y010696D03*
X022486Y017396D03*
D253*
X022471Y010701D03*
D254*
X022471Y010706D03*
X022486Y017391D03*
D255*
X022473Y010711D03*
D256*
X022473Y010716D03*
D257*
X022473Y010721D03*
X022488Y017386D03*
D258*
X022473Y010726D03*
D259*
X022473Y010731D03*
X022488Y017381D03*
D260*
X022473Y010736D03*
D261*
X022473Y010741D03*
X022488Y017376D03*
D262*
X022473Y010746D03*
D263*
X022471Y010751D03*
D264*
X022471Y010756D03*
D265*
X022471Y010761D03*
D266*
X022471Y010766D03*
D267*
X022471Y010771D03*
D268*
X022473Y010776D03*
X022488Y017361D03*
D269*
X022473Y010781D03*
D270*
X022473Y010786D03*
X022488Y017356D03*
D271*
X022473Y010791D03*
D272*
X022473Y010796D03*
D273*
X022473Y010801D03*
D274*
X022473Y010806D03*
D275*
X022473Y010811D03*
D276*
X022473Y010816D03*
D277*
X022471Y010821D03*
D278*
X022471Y010826D03*
X022486Y017336D03*
D279*
X022471Y010831D03*
D280*
X022471Y010836D03*
D281*
X022473Y010841D03*
D282*
X022473Y010846D03*
X022488Y017326D03*
D283*
X022473Y010851D03*
D284*
X022473Y010856D03*
X022488Y017321D03*
D285*
X022473Y010861D03*
D286*
X022473Y010866D03*
X022488Y017316D03*
D287*
X022473Y010871D03*
D288*
X022473Y010876D03*
D289*
X022471Y010881D03*
D290*
X022471Y010886D03*
X022486Y017306D03*
D291*
X022471Y010891D03*
D292*
X022473Y010896D03*
X022488Y017301D03*
D293*
X022473Y010901D03*
D294*
X022473Y010906D03*
X022488Y017296D03*
D295*
X022473Y010911D03*
D296*
X022473Y010916D03*
X022488Y017291D03*
D297*
X022473Y010921D03*
D298*
X022471Y010926D03*
X022486Y017286D03*
D299*
X022471Y010931D03*
D300*
X022471Y010936D03*
X022486Y017281D03*
D301*
X022473Y010941D03*
D302*
X022473Y010946D03*
X022488Y017276D03*
D303*
X022473Y010951D03*
D304*
X022473Y010956D03*
X022488Y017271D03*
D305*
X022473Y010961D03*
D306*
X022473Y010966D03*
D307*
X022473Y010971D03*
D308*
X022471Y010976D03*
X022486Y017261D03*
D309*
X022471Y010981D03*
D310*
X022473Y010986D03*
X022488Y017256D03*
D311*
X022473Y010991D03*
D312*
X022473Y010996D03*
D313*
X022473Y011001D03*
D314*
X022473Y011006D03*
D315*
X022473Y011011D03*
X022488Y017241D03*
D316*
X022473Y011016D03*
D317*
X022471Y011021D03*
X022486Y017236D03*
D318*
X022473Y011026D03*
D319*
X022473Y011031D03*
D320*
X022473Y011036D03*
D321*
X022473Y011041D03*
X022488Y017226D03*
D322*
X022473Y011046D03*
D323*
X022473Y011051D03*
D324*
X022473Y011056D03*
X022473Y011061D03*
X022488Y017216D03*
D325*
X022473Y011066D03*
D326*
X022473Y011071D03*
X022488Y017211D03*
D327*
X022473Y011076D03*
D328*
X022473Y011081D03*
D329*
X022473Y011086D03*
X022488Y017201D03*
D330*
X022473Y011091D03*
D331*
X022473Y011096D03*
X022473Y011101D03*
D332*
X022473Y011106D03*
X022488Y017191D03*
D333*
X022473Y011111D03*
D334*
X022473Y011116D03*
D335*
X022473Y011121D03*
X022488Y017181D03*
D336*
X022473Y011126D03*
D337*
X022473Y011131D03*
X022473Y011136D03*
D338*
X022473Y011141D03*
X022488Y017171D03*
D339*
X022473Y011146D03*
D340*
X022473Y011151D03*
D341*
X022473Y011156D03*
X022488Y017161D03*
D342*
X022473Y011166D03*
X022473Y011161D03*
D343*
X022473Y011171D03*
X022488Y017156D03*
D344*
X022488Y017151D03*
X022473Y011176D03*
D345*
X022473Y011181D03*
D346*
X022473Y011186D03*
X022488Y017146D03*
D347*
X022473Y011191D03*
D348*
X022476Y011196D03*
X022486Y017141D03*
D349*
X022473Y011201D03*
D350*
X022473Y011206D03*
D351*
X022473Y011211D03*
X022488Y017131D03*
D352*
X022473Y011216D03*
D353*
X022473Y011221D03*
D354*
X022476Y011226D03*
D355*
X022476Y011231D03*
D356*
X022473Y011236D03*
D357*
X022473Y011241D03*
D358*
X022473Y011246D03*
X022488Y017111D03*
D359*
X022473Y011251D03*
D360*
X022476Y011256D03*
X022486Y017106D03*
D361*
X022473Y011261D03*
D362*
X022473Y011266D03*
X022488Y017101D03*
D363*
X022473Y011271D03*
D364*
X022473Y011276D03*
D365*
X022473Y011281D03*
D366*
X022476Y011286D03*
D367*
X022473Y011291D03*
X022488Y017086D03*
D368*
X022473Y011296D03*
D369*
X022473Y011301D03*
D370*
X022473Y011306D03*
D371*
X022473Y011311D03*
X022488Y017071D03*
D372*
X022476Y011316D03*
D373*
X022473Y011321D03*
D374*
X022473Y011326D03*
D375*
X022473Y011331D03*
X021493Y012806D03*
X021493Y012811D03*
X022488Y017061D03*
D376*
X022488Y017056D03*
X021488Y012831D03*
X021488Y012826D03*
X022473Y011336D03*
D377*
X022476Y011341D03*
X021486Y012836D03*
X021486Y012841D03*
D378*
X021481Y012856D03*
X021481Y012861D03*
X022476Y011346D03*
X022486Y017051D03*
D379*
X021478Y012871D03*
X021478Y012866D03*
X022473Y011351D03*
D380*
X022473Y011356D03*
X021473Y012886D03*
X021473Y012891D03*
X022488Y017046D03*
D381*
X022488Y017041D03*
X021468Y012911D03*
X021468Y012906D03*
X022473Y011361D03*
D382*
X022476Y011366D03*
X021466Y012916D03*
X021466Y012921D03*
D383*
X021461Y012936D03*
X021461Y012941D03*
X022476Y011371D03*
X022486Y017036D03*
D384*
X021458Y012956D03*
X021458Y012951D03*
X021458Y012946D03*
X022473Y011376D03*
D385*
X022473Y011381D03*
X021453Y012966D03*
X021453Y012971D03*
X021453Y012976D03*
X022488Y017031D03*
D386*
X022488Y017026D03*
X021448Y012996D03*
X021448Y012991D03*
X022473Y011386D03*
D387*
X022476Y011391D03*
X021446Y013001D03*
X021446Y013006D03*
D388*
X021441Y013026D03*
X021441Y013031D03*
X022476Y011396D03*
X022486Y017021D03*
D389*
X021438Y013041D03*
X021438Y013036D03*
X022473Y011401D03*
D390*
X022473Y011406D03*
X021433Y013056D03*
X021433Y013061D03*
D391*
X021428Y013081D03*
X021428Y013086D03*
X022473Y011411D03*
X022488Y017011D03*
D392*
X021426Y013096D03*
X021426Y013091D03*
X022476Y011416D03*
D393*
X022476Y011421D03*
X021421Y013111D03*
X021421Y013116D03*
X021421Y013121D03*
X022486Y017006D03*
D394*
X021418Y013131D03*
X021418Y013126D03*
X022473Y011426D03*
D395*
X022473Y011431D03*
X021413Y013151D03*
X021413Y013156D03*
D396*
X021408Y013171D03*
X021408Y013176D03*
X021408Y013181D03*
X022473Y011436D03*
X022488Y016996D03*
D397*
X021406Y013196D03*
X021406Y013191D03*
X021406Y013186D03*
X022476Y011441D03*
D398*
X022476Y011446D03*
X021401Y013211D03*
X021401Y013216D03*
D399*
X021398Y013221D03*
X021398Y013226D03*
X021398Y013231D03*
X022473Y011451D03*
D400*
X022473Y011456D03*
X021393Y013246D03*
X021393Y013251D03*
X021393Y013256D03*
D401*
X021388Y013276D03*
X021388Y013281D03*
X022473Y011461D03*
D402*
X022476Y011466D03*
X021386Y013286D03*
X021386Y013291D03*
X021386Y013296D03*
D403*
X021381Y013316D03*
X021381Y013321D03*
X022476Y011471D03*
D404*
X022473Y011476D03*
X021378Y013326D03*
X021378Y013331D03*
X021378Y013336D03*
X022488Y016971D03*
D405*
X022473Y011481D03*
D406*
X022476Y011486D03*
X022486Y016966D03*
D407*
X022486Y016961D03*
X022476Y011491D03*
D408*
X022476Y011496D03*
D409*
X022473Y011501D03*
X022488Y016956D03*
D410*
X022488Y016951D03*
X022473Y011506D03*
D411*
X022476Y011511D03*
D412*
X022476Y011516D03*
X022486Y016946D03*
D413*
X022486Y016941D03*
X022476Y011521D03*
D414*
X022473Y011526D03*
D415*
X022476Y011531D03*
D416*
X022476Y011536D03*
D417*
X022476Y011541D03*
D418*
X022473Y011546D03*
X022488Y016926D03*
D419*
X022473Y011551D03*
D420*
X022476Y011556D03*
X022486Y016921D03*
D421*
X022486Y016916D03*
X022476Y011561D03*
D422*
X022476Y011566D03*
X022486Y016911D03*
D423*
X022473Y011571D03*
D424*
X022476Y011576D03*
D425*
X022476Y011581D03*
D426*
X022476Y011586D03*
D427*
X022473Y011591D03*
X022488Y016896D03*
D428*
X022476Y011596D03*
D429*
X022476Y011601D03*
X022486Y016891D03*
D430*
X022486Y016886D03*
X022476Y011606D03*
D431*
X022476Y011611D03*
X022476Y011616D03*
X022486Y016881D03*
D432*
X022476Y011621D03*
D433*
X022476Y011626D03*
D434*
X022476Y011631D03*
X022476Y011636D03*
D435*
X022476Y011641D03*
D436*
X022476Y011646D03*
D437*
X022476Y011651D03*
X022476Y011656D03*
X022486Y016856D03*
D438*
X022486Y016851D03*
X022476Y011661D03*
D439*
X022476Y011666D03*
X022486Y016846D03*
D440*
X022486Y016841D03*
X022476Y011676D03*
X022476Y011671D03*
D441*
X022476Y011681D03*
D442*
X022476Y011686D03*
D443*
X022476Y011691D03*
X022476Y011696D03*
D444*
X022476Y011701D03*
D445*
X022476Y011706D03*
D446*
X022476Y011711D03*
X022476Y011716D03*
D447*
X022476Y011721D03*
D448*
X022476Y011726D03*
D449*
X022476Y011731D03*
X022476Y011736D03*
X022486Y016801D03*
D450*
X022486Y016796D03*
X022476Y011741D03*
D451*
X022476Y011746D03*
X022486Y016791D03*
D452*
X022486Y016786D03*
X022476Y011756D03*
X022476Y011751D03*
D453*
X022476Y011761D03*
X022486Y016781D03*
D454*
X022486Y016776D03*
X022476Y011766D03*
D455*
X022478Y011771D03*
D456*
X022476Y011776D03*
X022486Y016771D03*
D457*
X022476Y011781D03*
D458*
X022476Y011786D03*
X022486Y016761D03*
D459*
X022478Y011791D03*
D460*
X022476Y011796D03*
D461*
X022476Y011801D03*
D462*
X022478Y011806D03*
X022488Y016751D03*
D463*
X022476Y011811D03*
D464*
X022476Y011816D03*
D465*
X022476Y011821D03*
D466*
X022478Y011826D03*
X022488Y016736D03*
D467*
X022476Y011831D03*
D468*
X022476Y011836D03*
D469*
X022478Y011841D03*
X022488Y016726D03*
D470*
X022488Y016721D03*
X022478Y011846D03*
D471*
X022476Y011851D03*
D472*
X022476Y011856D03*
D473*
X022478Y011861D03*
X022488Y016711D03*
D474*
X022476Y011866D03*
D475*
X022476Y011871D03*
D476*
X022478Y011876D03*
X022488Y016701D03*
D477*
X022476Y011881D03*
D478*
X022476Y011886D03*
D479*
X022476Y011891D03*
D480*
X022478Y011896D03*
X022488Y016686D03*
D481*
X022476Y011901D03*
D482*
X022476Y011906D03*
D483*
X022478Y011911D03*
X022488Y016676D03*
D484*
X022486Y016671D03*
X022476Y011916D03*
D485*
X022476Y011921D03*
X022486Y016666D03*
D486*
X022486Y016661D03*
X022476Y011926D03*
D487*
X022478Y011931D03*
D488*
X022476Y011936D03*
X022486Y016656D03*
D489*
X022486Y016651D03*
X022476Y011941D03*
D490*
X022478Y011946D03*
D491*
X022476Y011951D03*
X022486Y016646D03*
D492*
X022486Y016641D03*
X022476Y011956D03*
D493*
X022478Y011961D03*
D494*
X022476Y011966D03*
X022486Y016636D03*
D495*
X022486Y016631D03*
X022476Y011971D03*
D496*
X022478Y011976D03*
X022488Y016626D03*
D497*
X022488Y016621D03*
X022478Y011981D03*
D498*
X022476Y011986D03*
D499*
X022478Y011991D03*
X022488Y016616D03*
D500*
X022488Y016611D03*
X022478Y011996D03*
D501*
X022476Y012001D03*
D502*
X022476Y012006D03*
D503*
X022478Y012011D03*
X022488Y016601D03*
D504*
X022478Y012016D03*
D505*
X022476Y012021D03*
X022486Y016591D03*
D506*
X022478Y012026D03*
D507*
X022478Y012031D03*
D508*
X022476Y012036D03*
X022486Y016581D03*
D509*
X022488Y016576D03*
X022478Y012041D03*
D510*
X022478Y012046D03*
X022488Y016571D03*
D511*
X022476Y012051D03*
D512*
X022478Y012056D03*
X022488Y016566D03*
D513*
X022488Y016561D03*
X022478Y012061D03*
D514*
X022476Y012066D03*
D515*
X022478Y012071D03*
X022488Y016556D03*
D516*
X022478Y012076D03*
D517*
X022476Y012081D03*
X022486Y016546D03*
D518*
X022478Y012086D03*
D519*
X022478Y012091D03*
D520*
X022476Y012096D03*
X022486Y016536D03*
D521*
X022488Y016531D03*
X022478Y012101D03*
D522*
X022478Y012106D03*
X022488Y016526D03*
D523*
X022476Y012111D03*
D524*
X022478Y012116D03*
X022488Y016521D03*
D525*
X022488Y016516D03*
X022478Y012126D03*
X022478Y012121D03*
D526*
X022478Y012131D03*
D527*
X022478Y012136D03*
X022478Y012141D03*
D528*
X022478Y012146D03*
X022488Y016496D03*
D529*
X022488Y016491D03*
X022478Y012156D03*
X022478Y012151D03*
D530*
X022478Y012161D03*
X022488Y016486D03*
D531*
X022478Y012171D03*
X022478Y012166D03*
D532*
X022478Y012176D03*
D533*
X022478Y012181D03*
X022478Y012186D03*
X022488Y016466D03*
D534*
X022488Y016461D03*
X022478Y012191D03*
D535*
X022478Y012196D03*
X022478Y012201D03*
D536*
X022478Y012206D03*
D537*
X022478Y012211D03*
X022478Y012216D03*
X022488Y016441D03*
D538*
X022488Y016436D03*
X022478Y012221D03*
D539*
X022481Y012226D03*
D540*
X022478Y012231D03*
X022488Y016431D03*
D541*
X022478Y012241D03*
X022478Y012236D03*
D542*
X022478Y012246D03*
X022488Y016416D03*
D543*
X022488Y016411D03*
X022478Y012256D03*
X022478Y012251D03*
D544*
X022478Y012261D03*
X022488Y016406D03*
D545*
X022478Y012271D03*
X022478Y012266D03*
D546*
X022478Y012276D03*
X022488Y016391D03*
D547*
X022481Y012281D03*
D548*
X022478Y012286D03*
X022488Y016386D03*
D549*
X022478Y012296D03*
X022478Y012291D03*
D550*
X022478Y012301D03*
X022488Y016371D03*
D551*
X022488Y016366D03*
X022478Y012311D03*
X022478Y012306D03*
D552*
X022478Y012316D03*
D553*
X022481Y012321D03*
X022486Y016356D03*
D554*
X022488Y016351D03*
X022478Y012326D03*
D555*
X022478Y012331D03*
X022488Y016346D03*
D556*
X022486Y016341D03*
X022481Y012336D03*
D557*
X022478Y012341D03*
D558*
X022481Y012346D03*
X022486Y016336D03*
D559*
X022488Y016331D03*
X022478Y012351D03*
D560*
X022478Y012356D03*
X022488Y016326D03*
D561*
X022486Y016321D03*
X022481Y012361D03*
D562*
X022478Y012366D03*
D563*
X022481Y012371D03*
X022486Y016316D03*
D564*
X022488Y016311D03*
X022478Y012376D03*
D565*
X022478Y012381D03*
X022488Y016306D03*
D566*
X022486Y016301D03*
X022481Y012386D03*
D567*
X022478Y012391D03*
D568*
X022481Y012396D03*
X022486Y016296D03*
D569*
X022488Y016291D03*
X022478Y012401D03*
D570*
X022478Y012406D03*
X022488Y016286D03*
D571*
X022486Y016281D03*
X022481Y012411D03*
D572*
X022478Y012416D03*
X022488Y016276D03*
D573*
X022481Y012421D03*
D574*
X022481Y012426D03*
X022486Y016266D03*
D575*
X022488Y016261D03*
X022478Y012431D03*
D576*
X022481Y012436D03*
D577*
X022478Y012441D03*
X022488Y016256D03*
D578*
X022486Y016251D03*
X022481Y012446D03*
D579*
X022481Y012451D03*
X022486Y016246D03*
D580*
X022488Y016241D03*
X022478Y012456D03*
D581*
X022481Y012461D03*
X022486Y016236D03*
D582*
X022478Y012466D03*
D583*
X022481Y012471D03*
X022486Y016231D03*
D584*
X022481Y012476D03*
D585*
X022478Y012481D03*
X022488Y016221D03*
D586*
X022486Y016216D03*
X022481Y012486D03*
D587*
X022478Y012491D03*
X022488Y016211D03*
D588*
X022481Y012496D03*
D589*
X022481Y012501D03*
X022481Y012506D03*
X022486Y016201D03*
D590*
X022481Y012511D03*
D591*
X022478Y012516D03*
X022488Y016191D03*
D592*
X022486Y016186D03*
X022481Y012521D03*
D593*
X022478Y012526D03*
X022488Y016181D03*
D594*
X022481Y012531D03*
D595*
X022481Y012536D03*
X022481Y012541D03*
X022486Y016171D03*
D596*
X022481Y012551D03*
X022481Y012546D03*
D597*
X022481Y012556D03*
X022486Y016156D03*
D598*
X022481Y012566D03*
X022481Y012561D03*
D599*
X022481Y012571D03*
X022481Y012576D03*
X022486Y016141D03*
D600*
X022486Y016131D03*
X022481Y012586D03*
X022481Y012581D03*
D601*
X022481Y012591D03*
X022486Y016126D03*
D602*
X022486Y016116D03*
X022481Y012601D03*
X022481Y012596D03*
D603*
X022481Y012606D03*
X022481Y012611D03*
D604*
X022481Y012616D03*
X022481Y012621D03*
X022486Y016101D03*
D605*
X022481Y012631D03*
X022481Y012626D03*
D606*
X022481Y012636D03*
X022486Y016086D03*
D607*
X022486Y016076D03*
X022481Y012646D03*
X022481Y012641D03*
D608*
X022481Y012651D03*
X022481Y012656D03*
D609*
X022481Y012661D03*
X022481Y012666D03*
X022486Y016061D03*
D610*
X022486Y016051D03*
X022481Y012676D03*
X022481Y012671D03*
D611*
X022481Y012681D03*
X022481Y012686D03*
D612*
X022481Y012691D03*
X022486Y016036D03*
D613*
X022488Y016031D03*
X022483Y012696D03*
D614*
X022481Y012701D03*
X022486Y016026D03*
D615*
X022481Y012711D03*
X022481Y012706D03*
D616*
X022481Y012716D03*
X022481Y012721D03*
X022486Y016011D03*
D617*
X022486Y016001D03*
X022481Y012731D03*
X022481Y012726D03*
D618*
X022481Y012736D03*
X022481Y012741D03*
X022486Y015991D03*
D619*
X022481Y012746D03*
D620*
X022483Y012751D03*
X022488Y015981D03*
D621*
X022486Y015976D03*
X022481Y012756D03*
D622*
X022483Y012761D03*
X022488Y015971D03*
D623*
X022486Y015966D03*
X022481Y012766D03*
D624*
X022483Y012771D03*
X022488Y015961D03*
D625*
X022486Y015956D03*
X022481Y012776D03*
D626*
X022483Y012781D03*
X022488Y015951D03*
D627*
X022486Y015946D03*
X022481Y012786D03*
D628*
X022483Y012791D03*
X022488Y015941D03*
D629*
X021496Y012796D03*
X021496Y012801D03*
D630*
X024651Y012801D03*
X024651Y012806D03*
X022486Y017626D03*
D631*
X021491Y012821D03*
X021491Y012816D03*
D632*
X024656Y012821D03*
X024656Y012826D03*
D633*
X024658Y012831D03*
X024658Y012836D03*
D634*
X024661Y012841D03*
X024661Y012846D03*
D635*
X021483Y012846D03*
X021483Y012851D03*
D636*
X024666Y012861D03*
X024666Y012866D03*
X022486Y017621D03*
D637*
X021476Y012881D03*
X021476Y012876D03*
D638*
X024671Y012881D03*
X024671Y012886D03*
D639*
X021471Y012896D03*
X021471Y012901D03*
D640*
X024676Y012901D03*
X024676Y012906D03*
D641*
X024681Y012921D03*
X024681Y012926D03*
D642*
X021463Y012926D03*
X021463Y012931D03*
D643*
X024686Y012941D03*
X024686Y012946D03*
X022486Y017616D03*
D644*
X024691Y012966D03*
X024691Y012961D03*
D645*
X021456Y012961D03*
D646*
X024696Y012981D03*
X024696Y012986D03*
D647*
X021451Y012986D03*
X021451Y012981D03*
D648*
X024701Y013001D03*
X024701Y013006D03*
X024701Y013011D03*
D649*
X021443Y013011D03*
X021443Y013016D03*
X021443Y013021D03*
D650*
X024706Y013026D03*
X024706Y013031D03*
X022486Y017611D03*
D651*
X024708Y013041D03*
X024708Y013036D03*
D652*
X021436Y013046D03*
X021436Y013051D03*
X022486Y017016D03*
D653*
X024713Y013061D03*
X024713Y013056D03*
D654*
X021431Y013066D03*
X021431Y013071D03*
X021431Y013076D03*
D655*
X024718Y013081D03*
X024718Y013086D03*
D656*
X024721Y013091D03*
X024721Y013096D03*
X022486Y017606D03*
D657*
X021423Y013106D03*
X021423Y013101D03*
D658*
X024726Y013116D03*
X024726Y013121D03*
D659*
X024731Y013136D03*
X024731Y013141D03*
X024731Y013146D03*
D660*
X021416Y013146D03*
X021416Y013141D03*
X021416Y013136D03*
X022486Y017001D03*
D661*
X024736Y013166D03*
X024736Y013161D03*
D662*
X021411Y013161D03*
X021411Y013166D03*
D663*
X024741Y013186D03*
X024741Y013191D03*
D664*
X021403Y013201D03*
X021403Y013206D03*
X022488Y016991D03*
D665*
X024746Y013216D03*
X024746Y013211D03*
X024746Y013206D03*
D666*
X024751Y013231D03*
X024751Y013236D03*
X024751Y013241D03*
D667*
X021396Y013241D03*
X021396Y013236D03*
X022486Y016986D03*
D668*
X024756Y013266D03*
X024756Y013261D03*
X024756Y013256D03*
D669*
X021391Y013261D03*
X021391Y013266D03*
X021391Y013271D03*
X022486Y016981D03*
D670*
X024761Y013291D03*
X024761Y013286D03*
X024761Y013281D03*
D671*
X024763Y013296D03*
X024763Y013301D03*
D672*
X021383Y013301D03*
X021383Y013306D03*
X021383Y013311D03*
X022488Y016976D03*
D673*
X024768Y013331D03*
X024768Y013326D03*
X024768Y013321D03*
D674*
X024731Y013571D03*
X023371Y013341D03*
X022406Y013696D03*
X022396Y014451D03*
X022396Y014456D03*
X021681Y014596D03*
X020366Y014531D03*
X020381Y013646D03*
X021041Y013561D03*
X021166Y013371D03*
X017726Y014626D03*
X016836Y013511D03*
X016181Y013581D03*
X015371Y013621D03*
X015366Y014526D03*
X016296Y014646D03*
D675*
X021361Y013831D03*
X021361Y013826D03*
X022386Y013341D03*
X025276Y014256D03*
D676*
X020373Y013341D03*
D677*
X020366Y014501D03*
X018471Y014506D03*
X016806Y014056D03*
X016161Y013616D03*
X016656Y013371D03*
X015391Y013661D03*
X015391Y013666D03*
X014561Y013551D03*
X014521Y014591D03*
X015386Y014486D03*
X022396Y014411D03*
X022396Y014406D03*
X022396Y014401D03*
X023151Y014596D03*
X022406Y013751D03*
X022406Y013746D03*
X022406Y013741D03*
X023391Y013346D03*
X024736Y013556D03*
D678*
X022388Y013346D03*
X021373Y013746D03*
D679*
X019528Y013661D03*
X019463Y014616D03*
X016428Y014136D03*
X025343Y013351D03*
X025518Y014066D03*
X025513Y014596D03*
X025513Y014601D03*
D680*
X024231Y013351D03*
X019541Y013721D03*
X019486Y014541D03*
D681*
X020366Y014486D03*
X021126Y013391D03*
X022406Y013766D03*
X022406Y013771D03*
X022406Y013776D03*
X022396Y014376D03*
X023401Y013351D03*
X024736Y013551D03*
X024551Y014071D03*
X024731Y014621D03*
X018481Y014486D03*
X018481Y014481D03*
X016831Y014041D03*
X016151Y013636D03*
X015401Y013686D03*
X015401Y013691D03*
X015396Y014456D03*
X015396Y014461D03*
X016251Y014626D03*
X014501Y014571D03*
X014496Y014566D03*
D682*
X020326Y013351D03*
D683*
X020383Y013861D03*
X020368Y014321D03*
X023528Y014666D03*
X024448Y014096D03*
X024748Y013516D03*
X024423Y013451D03*
X023503Y013446D03*
X016658Y013351D03*
D684*
X014861Y013351D03*
X020381Y013856D03*
X020366Y014326D03*
X023526Y014671D03*
X024426Y013446D03*
D685*
X024218Y013356D03*
X025503Y014091D03*
X022398Y013411D03*
X022383Y014751D03*
X019473Y014581D03*
X019473Y014576D03*
X019538Y013696D03*
D686*
X020366Y014471D03*
X021056Y013476D03*
X021106Y013401D03*
X022406Y013801D03*
X022406Y013806D03*
X022406Y013811D03*
X023156Y013546D03*
X023411Y013356D03*
X022396Y014346D03*
X023441Y014781D03*
X018491Y014456D03*
X017651Y014571D03*
X016861Y014021D03*
X016906Y013551D03*
X016656Y013366D03*
X016141Y013656D03*
X016141Y013661D03*
X015406Y013706D03*
X015406Y013711D03*
X015406Y014426D03*
X015406Y014431D03*
X016231Y014611D03*
X014471Y014541D03*
X014466Y014536D03*
X014461Y014531D03*
D687*
X019608Y014171D03*
X019608Y014166D03*
X019618Y014041D03*
X021373Y013671D03*
X022393Y013356D03*
D688*
X020306Y013356D03*
D689*
X020383Y013786D03*
X020368Y014396D03*
X018288Y014591D03*
X018283Y014596D03*
X016868Y014626D03*
X016318Y013551D03*
X016658Y013356D03*
X015463Y013396D03*
X015463Y013401D03*
X015463Y013406D03*
X015463Y013411D03*
X015463Y013416D03*
X015463Y013421D03*
X015463Y013426D03*
X015463Y013431D03*
X015458Y013491D03*
X015458Y013496D03*
X015458Y013501D03*
X015458Y013506D03*
X015233Y013586D03*
X015228Y013581D03*
X023458Y013391D03*
X024463Y013396D03*
D690*
X023453Y013386D03*
X020383Y013776D03*
X018273Y014601D03*
X016098Y013536D03*
X016093Y013496D03*
X016093Y013491D03*
X016093Y013486D03*
X016093Y013481D03*
X016093Y013476D03*
X016088Y013451D03*
X016088Y013446D03*
X016088Y013441D03*
X016088Y013436D03*
X016088Y013431D03*
X016088Y013426D03*
X016083Y013416D03*
X016083Y013411D03*
X016083Y013406D03*
X016083Y013401D03*
X016083Y013396D03*
X015453Y013601D03*
X015453Y013606D03*
X014863Y013356D03*
X015188Y014596D03*
D691*
X015416Y014396D03*
X015416Y014391D03*
X015416Y014386D03*
X015416Y013746D03*
X015416Y013741D03*
X016131Y013691D03*
X016131Y013686D03*
X016926Y013576D03*
X016931Y013581D03*
X016891Y013996D03*
X016886Y014001D03*
X017621Y014531D03*
X017626Y014536D03*
X017936Y014796D03*
X018216Y014631D03*
X018501Y014426D03*
X018501Y014421D03*
X020366Y014456D03*
X021681Y014621D03*
X022401Y014306D03*
X022406Y013856D03*
X022406Y013851D03*
X022406Y013846D03*
X022406Y013841D03*
X022406Y013836D03*
X023421Y013361D03*
X021061Y013456D03*
X021061Y013461D03*
X014471Y013631D03*
X014466Y013636D03*
X014461Y013641D03*
X014421Y014471D03*
X014426Y014476D03*
X014426Y014481D03*
D692*
X019588Y014226D03*
X019603Y013986D03*
X022393Y013361D03*
D693*
X020291Y013361D03*
D694*
X020383Y013726D03*
X020383Y013731D03*
X020368Y014451D03*
X021063Y013451D03*
X022403Y013861D03*
X023158Y013541D03*
X022398Y014286D03*
X022398Y014291D03*
X022398Y014296D03*
X022398Y014301D03*
X023453Y014771D03*
X018503Y014416D03*
X018503Y014411D03*
X017618Y014526D03*
X017613Y014516D03*
X016838Y014641D03*
X016203Y014586D03*
X016198Y014581D03*
X015418Y014381D03*
X015418Y014376D03*
X015418Y013756D03*
X015418Y013751D03*
X015158Y013536D03*
X014863Y013361D03*
X014458Y013646D03*
X014453Y013651D03*
X014448Y013656D03*
X014403Y014441D03*
X014408Y014451D03*
X014413Y014456D03*
X014413Y014461D03*
X014418Y014466D03*
X016128Y013696D03*
X016933Y013586D03*
X016938Y013591D03*
X016898Y013986D03*
X016893Y013991D03*
D695*
X016406Y014161D03*
X019446Y014671D03*
X019446Y014676D03*
X019521Y013616D03*
X022401Y013431D03*
X023146Y013991D03*
X023146Y013996D03*
X023146Y014001D03*
X023146Y014006D03*
X023146Y014011D03*
X023146Y014016D03*
X023146Y014021D03*
X023146Y014026D03*
X023146Y014031D03*
X023146Y014036D03*
X023146Y014041D03*
X023146Y014046D03*
X023146Y014051D03*
X023146Y014056D03*
X023146Y014061D03*
X023146Y014066D03*
X023146Y014071D03*
X023146Y014076D03*
X023146Y014081D03*
X023146Y014086D03*
X023146Y014091D03*
X023146Y014096D03*
X023146Y014101D03*
X023146Y014106D03*
X023146Y014111D03*
X023146Y014116D03*
X023146Y014121D03*
X023146Y014126D03*
X023146Y014131D03*
X023146Y014136D03*
X023146Y014141D03*
X023146Y014146D03*
X023146Y014151D03*
X023146Y014156D03*
X023146Y014161D03*
X023146Y014166D03*
X023146Y014171D03*
X023146Y014176D03*
X025371Y013366D03*
X025536Y014021D03*
X025526Y014691D03*
X025526Y014696D03*
D696*
X024523Y014081D03*
X024488Y013371D03*
X023428Y013366D03*
X022403Y013876D03*
X022403Y013881D03*
X022398Y014256D03*
X022398Y014261D03*
X022398Y014266D03*
X022398Y014271D03*
X022398Y014276D03*
X021583Y013526D03*
X021078Y013421D03*
X021063Y013441D03*
X020383Y013736D03*
X020368Y014441D03*
X018508Y014391D03*
X018508Y014386D03*
X018228Y014626D03*
X017603Y014496D03*
X017598Y014491D03*
X017598Y014486D03*
X016913Y013971D03*
X016908Y013976D03*
X016953Y013621D03*
X016948Y013611D03*
X016943Y013601D03*
X016123Y013711D03*
X016123Y013716D03*
X016123Y013721D03*
X015423Y013771D03*
X015423Y013776D03*
X015423Y013781D03*
X015423Y014351D03*
X015423Y014356D03*
X015423Y014361D03*
X015138Y014626D03*
X014823Y014801D03*
X014393Y014421D03*
X014388Y014411D03*
X014388Y014406D03*
X014383Y014401D03*
X014383Y014396D03*
X014378Y014386D03*
X014423Y013696D03*
X014428Y013686D03*
X014433Y013681D03*
X014438Y013671D03*
X016183Y014561D03*
X016188Y014566D03*
D697*
X019568Y014281D03*
X019568Y014276D03*
X019593Y013951D03*
X019593Y013946D03*
X022393Y013366D03*
D698*
X020281Y013366D03*
D699*
X020383Y013696D03*
X021053Y013496D03*
X022403Y013781D03*
X022398Y014366D03*
X022398Y014371D03*
X023148Y014601D03*
X018483Y014476D03*
X018193Y014636D03*
X017938Y014791D03*
X017673Y014591D03*
X016838Y014036D03*
X016893Y013541D03*
X016888Y013536D03*
X016148Y013641D03*
X015403Y013696D03*
X014863Y013366D03*
X014533Y013571D03*
X015398Y014451D03*
X014823Y014796D03*
X014488Y014561D03*
X014483Y014556D03*
X016243Y014621D03*
D700*
X015356Y014546D03*
X014616Y013526D03*
X020366Y014546D03*
X021681Y014591D03*
X022396Y014476D03*
X022406Y013676D03*
X022406Y013671D03*
X023966Y013386D03*
X023966Y013381D03*
X023966Y013376D03*
X023966Y013371D03*
X024731Y013576D03*
X024591Y014046D03*
X021036Y013586D03*
X021036Y013581D03*
D701*
X020366Y014431D03*
X018516Y014351D03*
X018516Y014346D03*
X018516Y014341D03*
X017576Y014426D03*
X017576Y014431D03*
X017571Y014416D03*
X017571Y014411D03*
X017571Y014406D03*
X017566Y014401D03*
X017566Y014396D03*
X017566Y014391D03*
X017561Y014371D03*
X016941Y013931D03*
X016946Y013921D03*
X016951Y013911D03*
X016956Y013901D03*
X016981Y013726D03*
X016981Y013721D03*
X016981Y013716D03*
X016976Y013696D03*
X016976Y013691D03*
X016976Y013686D03*
X016976Y013681D03*
X016971Y013671D03*
X016971Y013666D03*
X016361Y013526D03*
X016116Y013746D03*
X016116Y013751D03*
X016116Y013756D03*
X015431Y013816D03*
X015431Y013821D03*
X015431Y013826D03*
X015431Y013831D03*
X015431Y014301D03*
X015431Y014306D03*
X015431Y014311D03*
X015431Y014316D03*
X016156Y014516D03*
X016161Y014521D03*
X016161Y014526D03*
X016166Y014531D03*
X014351Y014301D03*
X014351Y014296D03*
X014346Y014281D03*
X014346Y014276D03*
X014346Y014271D03*
X014341Y014261D03*
X014341Y014256D03*
X014341Y014251D03*
X014341Y014246D03*
X014336Y014236D03*
X014336Y014231D03*
X014336Y014226D03*
X014336Y014221D03*
X014336Y014216D03*
X014331Y014186D03*
X014351Y013876D03*
X014356Y013856D03*
X014361Y013841D03*
X014361Y013836D03*
X014366Y013826D03*
X014366Y013821D03*
X014366Y013816D03*
X014371Y013811D03*
X014371Y013806D03*
X014376Y013796D03*
X014376Y013791D03*
X014381Y013786D03*
X014381Y013781D03*
X014386Y013771D03*
X014391Y013756D03*
X014396Y013746D03*
X022406Y013916D03*
X022406Y013921D03*
X022406Y013926D03*
X022406Y013931D03*
X022406Y013936D03*
X022406Y013941D03*
X022401Y014206D03*
X022401Y014211D03*
X022401Y014216D03*
X022401Y014221D03*
X022401Y014226D03*
X022401Y014231D03*
X023466Y014761D03*
X023436Y013371D03*
D702*
X022396Y013371D03*
X019586Y013911D03*
X019556Y014321D03*
X025381Y014801D03*
D703*
X025561Y013871D03*
X025561Y013866D03*
X025561Y013861D03*
X025451Y013446D03*
X025446Y013441D03*
X023161Y013756D03*
X021696Y014306D03*
X021696Y014311D03*
X021696Y014316D03*
X020381Y013371D03*
X019501Y013511D03*
X017946Y014676D03*
X016566Y014731D03*
X014831Y014701D03*
X014856Y013461D03*
D704*
X019478Y013376D03*
X019478Y013371D03*
X020823Y014136D03*
X020368Y014696D03*
X020368Y014701D03*
X021558Y013576D03*
X022403Y013531D03*
X024698Y013761D03*
X024698Y013766D03*
X024698Y013771D03*
X024688Y013846D03*
X024688Y013851D03*
X024688Y013856D03*
X024763Y014546D03*
D705*
X022396Y014436D03*
X022396Y014431D03*
X021681Y014601D03*
X020366Y014516D03*
X020381Y013661D03*
X021046Y013541D03*
X021046Y013536D03*
X021156Y013376D03*
X021576Y013536D03*
X022406Y013716D03*
X022406Y013721D03*
X018461Y014526D03*
X016801Y014651D03*
X016541Y014796D03*
X016281Y014641D03*
X015376Y014506D03*
X014826Y014791D03*
X014551Y014611D03*
X014581Y013541D03*
X014866Y013371D03*
X015381Y013641D03*
X016171Y013596D03*
X016851Y013516D03*
D706*
X019516Y013591D03*
X019516Y013596D03*
X019441Y014696D03*
X023151Y014266D03*
X023151Y014261D03*
X023151Y014256D03*
X023151Y014251D03*
X023151Y014246D03*
X023151Y014241D03*
X023151Y013901D03*
X023151Y013896D03*
X025386Y013376D03*
D707*
X024483Y013376D03*
X022403Y013906D03*
X022403Y013911D03*
X022398Y014236D03*
X020368Y014436D03*
X020383Y013746D03*
X018513Y014356D03*
X018513Y014361D03*
X018513Y014366D03*
X018238Y014621D03*
X017588Y014466D03*
X017583Y014456D03*
X017583Y014451D03*
X017578Y014441D03*
X017578Y014436D03*
X017573Y014421D03*
X016848Y014636D03*
X016173Y014546D03*
X016168Y014541D03*
X016168Y014536D03*
X015428Y014331D03*
X015428Y014326D03*
X015428Y014321D03*
X015148Y014621D03*
X014368Y014356D03*
X014363Y014346D03*
X014363Y014341D03*
X014358Y014331D03*
X014358Y014326D03*
X014358Y014321D03*
X014353Y014316D03*
X014353Y014311D03*
X014353Y014306D03*
X014348Y014291D03*
X014348Y014286D03*
X014373Y013801D03*
X014383Y013776D03*
X014388Y013766D03*
X014388Y013761D03*
X014393Y013751D03*
X014398Y013741D03*
X014403Y013731D03*
X014408Y013721D03*
X015178Y013546D03*
X015428Y013801D03*
X015428Y013806D03*
X015428Y013811D03*
X016118Y013741D03*
X016118Y013736D03*
X016928Y013951D03*
X016933Y013941D03*
X016938Y013936D03*
X016943Y013926D03*
X016973Y013676D03*
X016968Y013661D03*
X016968Y013656D03*
X016963Y013651D03*
X016963Y013646D03*
X016963Y013641D03*
D708*
X016108Y013821D03*
X016108Y013826D03*
X016108Y013831D03*
X016108Y013836D03*
X016108Y013841D03*
X016108Y013846D03*
X016108Y013851D03*
X016108Y013856D03*
X016108Y013861D03*
X016108Y013866D03*
X016108Y013871D03*
X016108Y013876D03*
X016108Y013881D03*
X016108Y013886D03*
X016108Y013891D03*
X016108Y013896D03*
X016108Y013901D03*
X016108Y013906D03*
X016108Y013911D03*
X016108Y013916D03*
X016108Y013921D03*
X016108Y013926D03*
X016108Y013931D03*
X016108Y013936D03*
X016108Y013941D03*
X016108Y013946D03*
X016108Y013951D03*
X016108Y013956D03*
X016108Y013961D03*
X016108Y013966D03*
X016108Y013971D03*
X016108Y013976D03*
X016108Y013981D03*
X016108Y013986D03*
X016108Y013991D03*
X016108Y013996D03*
X016108Y014001D03*
X016108Y014006D03*
X016108Y014011D03*
X016108Y014016D03*
X016108Y014021D03*
X016108Y014026D03*
X016108Y014031D03*
X016108Y014036D03*
X016108Y014041D03*
X016108Y014046D03*
X016108Y014051D03*
X016108Y014056D03*
X016108Y014061D03*
X016108Y014066D03*
X016108Y014071D03*
X016108Y014076D03*
X016108Y014081D03*
X016108Y014086D03*
X016108Y014091D03*
X016108Y014096D03*
X016108Y014101D03*
X016108Y014106D03*
X016113Y014311D03*
X016113Y014316D03*
X016113Y014321D03*
X016113Y014326D03*
X016113Y014331D03*
X016113Y014336D03*
X016113Y014341D03*
X016113Y014346D03*
X016113Y014351D03*
X016113Y014356D03*
X016118Y014371D03*
X016118Y014376D03*
X016118Y014381D03*
X016118Y014386D03*
X016118Y014391D03*
X016118Y014396D03*
X016123Y014401D03*
X016123Y014406D03*
X016123Y014411D03*
X016123Y014416D03*
X016128Y014431D03*
X016128Y014436D03*
X016133Y014451D03*
X016133Y014456D03*
X015438Y014556D03*
X015438Y014561D03*
X015438Y014566D03*
X015438Y014571D03*
X015438Y014576D03*
X015438Y014581D03*
X015438Y014586D03*
X015438Y014591D03*
X015438Y014596D03*
X015438Y014601D03*
X015438Y014606D03*
X015438Y014611D03*
X015438Y014616D03*
X015438Y014621D03*
X015438Y014626D03*
X015438Y014631D03*
X015438Y014636D03*
X015438Y014641D03*
X015438Y014646D03*
X015438Y014651D03*
X015438Y014656D03*
X015438Y014661D03*
X015438Y014666D03*
X015438Y014671D03*
X015438Y014676D03*
X015438Y014681D03*
X015438Y014686D03*
X015438Y014691D03*
X015438Y014696D03*
X015438Y014701D03*
X015438Y014706D03*
X015438Y014711D03*
X015438Y014716D03*
X015438Y014721D03*
X015438Y014726D03*
X015438Y014731D03*
X015438Y014736D03*
X015438Y014741D03*
X015438Y014746D03*
X015438Y014751D03*
X015438Y014756D03*
X015438Y014761D03*
X015438Y014766D03*
X015438Y014771D03*
X015438Y014776D03*
X015438Y014781D03*
X015438Y014786D03*
X015438Y014791D03*
X015438Y014796D03*
X015438Y014801D03*
X015438Y014806D03*
X015438Y014811D03*
X015438Y014816D03*
X015438Y014821D03*
X015438Y014826D03*
X015438Y014831D03*
X015438Y014836D03*
X015438Y014841D03*
X015438Y014846D03*
X015438Y014851D03*
X015438Y014856D03*
X015438Y014861D03*
X015438Y014866D03*
X015438Y014871D03*
X015438Y014876D03*
X015438Y014881D03*
X015438Y014886D03*
X015438Y014891D03*
X015438Y014896D03*
X015438Y014901D03*
X015438Y014906D03*
X015438Y014911D03*
X015438Y014916D03*
X015438Y014921D03*
X015438Y014926D03*
X015438Y014931D03*
X015438Y014936D03*
X015438Y014941D03*
X015438Y014946D03*
X015438Y014951D03*
X015438Y014956D03*
X015438Y014961D03*
X015438Y014966D03*
X015438Y014971D03*
X015438Y014976D03*
X015438Y014981D03*
X015438Y014986D03*
X015438Y014991D03*
X015438Y014996D03*
X015438Y015001D03*
X015438Y015006D03*
X015438Y015011D03*
X015438Y015016D03*
X015438Y015021D03*
X015438Y015026D03*
X015438Y015031D03*
X015438Y015036D03*
X015438Y015041D03*
X015438Y015046D03*
X015438Y015051D03*
X015438Y015056D03*
X015438Y015061D03*
X015438Y015066D03*
X015438Y015071D03*
X015438Y015076D03*
X015438Y015081D03*
X015438Y015086D03*
X015438Y015091D03*
X015438Y015096D03*
X015438Y015101D03*
X015438Y015106D03*
X015438Y015111D03*
X015438Y015116D03*
X015438Y015121D03*
X015438Y015126D03*
X015438Y015131D03*
X015438Y015136D03*
X015438Y015141D03*
X015438Y015146D03*
X015438Y015151D03*
X015438Y015156D03*
X015438Y015161D03*
X015438Y015166D03*
X015438Y015171D03*
X015438Y015176D03*
X015438Y015181D03*
X015438Y015186D03*
X015438Y015191D03*
X015438Y015196D03*
X015438Y015201D03*
X015438Y015206D03*
X015438Y015211D03*
X015438Y015216D03*
X015438Y015221D03*
X015438Y015226D03*
X015438Y015231D03*
X015438Y015236D03*
X015438Y015241D03*
X015438Y015246D03*
X015438Y015251D03*
X015438Y015256D03*
X015438Y015261D03*
X015438Y015266D03*
X015438Y015271D03*
X015438Y015276D03*
X015438Y015281D03*
X015438Y015286D03*
X015438Y015291D03*
X015438Y015296D03*
X015438Y015301D03*
X015438Y015306D03*
X015438Y015311D03*
X015438Y015316D03*
X015438Y015321D03*
X015438Y015326D03*
X015438Y015331D03*
X015438Y015336D03*
X015438Y015341D03*
X015438Y015346D03*
X015438Y015351D03*
X015438Y015356D03*
X015438Y015361D03*
X015438Y015366D03*
X015438Y015371D03*
X015438Y015376D03*
X015438Y015381D03*
X015438Y015386D03*
X015438Y015391D03*
X015438Y015396D03*
X015438Y015401D03*
X015438Y015406D03*
X015438Y015411D03*
X015438Y015416D03*
X015438Y015421D03*
X015438Y015426D03*
X015438Y015431D03*
X015438Y015436D03*
X015438Y014241D03*
X015438Y014236D03*
X015438Y014231D03*
X015438Y014226D03*
X015438Y014221D03*
X015438Y014216D03*
X015438Y014211D03*
X015438Y014206D03*
X015438Y014201D03*
X015438Y014196D03*
X015438Y014191D03*
X015438Y014186D03*
X015438Y014181D03*
X015438Y014176D03*
X015438Y014171D03*
X015438Y014166D03*
X015438Y014161D03*
X015438Y014156D03*
X015438Y014151D03*
X015438Y014146D03*
X015438Y014141D03*
X015438Y014136D03*
X015438Y014131D03*
X015438Y014126D03*
X015438Y014121D03*
X015438Y014116D03*
X015438Y014111D03*
X015438Y014106D03*
X015438Y014101D03*
X015438Y014096D03*
X015438Y014091D03*
X015438Y014086D03*
X015438Y014081D03*
X015438Y014076D03*
X015438Y014071D03*
X015438Y014066D03*
X015438Y014061D03*
X015438Y014056D03*
X015438Y014051D03*
X015438Y014046D03*
X015438Y014041D03*
X015438Y014036D03*
X015438Y014031D03*
X015438Y014026D03*
X015438Y014021D03*
X015438Y014016D03*
X015438Y014011D03*
X015438Y014006D03*
X015438Y014001D03*
X015438Y013996D03*
X015438Y013991D03*
X015438Y013986D03*
X015438Y013981D03*
X015438Y013976D03*
X015438Y013971D03*
X015438Y013966D03*
X015438Y013961D03*
X015438Y013956D03*
X015438Y013951D03*
X015438Y013946D03*
X015438Y013941D03*
X015438Y013936D03*
X015438Y013931D03*
X015438Y013926D03*
X015438Y013921D03*
X015438Y013916D03*
X015438Y013911D03*
X015438Y013906D03*
X015438Y013901D03*
X015438Y013896D03*
X015438Y013891D03*
X015193Y013556D03*
X018523Y013556D03*
X018523Y013561D03*
X018523Y013566D03*
X018523Y013571D03*
X018523Y013576D03*
X018523Y013581D03*
X018523Y013586D03*
X018523Y013591D03*
X018523Y013596D03*
X018523Y013601D03*
X018523Y013606D03*
X018523Y013611D03*
X018523Y013616D03*
X018523Y013621D03*
X018523Y013626D03*
X018523Y013631D03*
X018523Y013636D03*
X018523Y013641D03*
X018523Y013646D03*
X018523Y013651D03*
X018523Y013656D03*
X018523Y013661D03*
X018523Y013666D03*
X018523Y013671D03*
X018523Y013676D03*
X018523Y013681D03*
X018523Y013686D03*
X018523Y013691D03*
X018523Y013696D03*
X018523Y013701D03*
X018523Y013706D03*
X018523Y013711D03*
X018523Y013716D03*
X018523Y013721D03*
X018523Y013726D03*
X018523Y013731D03*
X018523Y013736D03*
X018523Y013741D03*
X018523Y013746D03*
X018523Y013751D03*
X018523Y013756D03*
X018523Y013761D03*
X018523Y013766D03*
X018523Y013771D03*
X018523Y013776D03*
X018523Y013781D03*
X018523Y013786D03*
X018523Y013791D03*
X018523Y013796D03*
X018523Y013801D03*
X018523Y013806D03*
X018523Y013811D03*
X018523Y013816D03*
X018523Y013821D03*
X018523Y013826D03*
X018523Y013831D03*
X018523Y013836D03*
X018523Y013841D03*
X018523Y013846D03*
X018523Y013851D03*
X018523Y013856D03*
X018523Y013861D03*
X018523Y013866D03*
X018523Y013871D03*
X018523Y013876D03*
X018523Y013881D03*
X018523Y013886D03*
X018523Y013891D03*
X018523Y013896D03*
X018523Y013901D03*
X018523Y013906D03*
X018523Y013911D03*
X018523Y013916D03*
X018523Y013921D03*
X018523Y013926D03*
X018523Y013931D03*
X018523Y013936D03*
X018523Y013941D03*
X018523Y013946D03*
X018523Y013951D03*
X018523Y013956D03*
X018523Y013961D03*
X018523Y013966D03*
X018523Y013971D03*
X018523Y013976D03*
X018523Y013981D03*
X018523Y013986D03*
X018523Y013991D03*
X018523Y013996D03*
X018523Y014001D03*
X018523Y014006D03*
X018523Y014011D03*
X018523Y014016D03*
X018523Y014021D03*
X018523Y014026D03*
X018523Y014031D03*
X018523Y014036D03*
X018523Y014041D03*
X018523Y014046D03*
X018523Y014051D03*
X018523Y014056D03*
X018523Y014061D03*
X018523Y014066D03*
X018523Y014071D03*
X018523Y014076D03*
X018523Y014081D03*
X018523Y014086D03*
X018523Y014091D03*
X018523Y014096D03*
X018523Y014101D03*
X018523Y014106D03*
X018523Y014111D03*
X018523Y014116D03*
X018523Y014121D03*
X018523Y014126D03*
X018523Y014131D03*
X018523Y014136D03*
X018523Y014141D03*
X018523Y014146D03*
X018523Y014151D03*
X018523Y014156D03*
X018523Y014161D03*
X018523Y014166D03*
X018523Y014171D03*
X018523Y014176D03*
X018523Y014181D03*
X018523Y014186D03*
X018523Y014191D03*
X018523Y014196D03*
X018523Y014201D03*
X018523Y014206D03*
X018523Y014211D03*
X018523Y014216D03*
X018523Y014221D03*
X018523Y014226D03*
X018523Y014231D03*
X018523Y014236D03*
X018523Y014241D03*
X018523Y014246D03*
X018523Y014251D03*
X018523Y014256D03*
X018523Y014261D03*
X018523Y014266D03*
X018523Y014566D03*
X018523Y014571D03*
X018523Y014576D03*
X018523Y014581D03*
X018523Y014586D03*
X018523Y014591D03*
X018523Y014596D03*
X018523Y014601D03*
X018523Y014606D03*
X018523Y014611D03*
X018523Y014616D03*
X018523Y014621D03*
X018523Y014626D03*
X018523Y014631D03*
X018523Y014636D03*
X018523Y014641D03*
X018523Y014646D03*
X018523Y014651D03*
X018523Y014656D03*
X018523Y014661D03*
X018523Y014666D03*
X018523Y014671D03*
X018523Y014676D03*
X018523Y014681D03*
X018523Y014686D03*
X018523Y014691D03*
X018523Y014696D03*
X018523Y014701D03*
X018523Y014706D03*
X018523Y014711D03*
X018523Y014716D03*
X018523Y014721D03*
X018523Y014726D03*
X018523Y014731D03*
X018523Y014736D03*
X018523Y014741D03*
X018523Y014746D03*
X018523Y014751D03*
X018523Y014756D03*
X018523Y014761D03*
X018523Y014766D03*
X018523Y014771D03*
X018523Y014776D03*
X018523Y014781D03*
X018523Y014786D03*
X018523Y014791D03*
X018523Y014796D03*
X018523Y014801D03*
X018523Y014806D03*
X018523Y014811D03*
X018523Y014816D03*
X018523Y014821D03*
X018523Y014826D03*
X018523Y014831D03*
X018523Y014836D03*
X018523Y014841D03*
X018523Y014846D03*
X018523Y014851D03*
X018523Y014856D03*
X018523Y014861D03*
X018523Y014866D03*
X018523Y014871D03*
X018523Y014876D03*
X018523Y014881D03*
X018523Y014886D03*
X018523Y014891D03*
X018523Y014896D03*
X018523Y014901D03*
X018523Y014906D03*
X018523Y014911D03*
X018523Y014916D03*
X018523Y014921D03*
X018523Y014926D03*
X018523Y014931D03*
X018523Y014936D03*
X018523Y014941D03*
X018523Y014946D03*
X018523Y014951D03*
X018523Y014956D03*
X018523Y014961D03*
X018523Y014966D03*
X018523Y014971D03*
X018523Y014976D03*
X018523Y014981D03*
X018523Y014986D03*
X018523Y014991D03*
X018523Y014996D03*
X018523Y015001D03*
X018523Y015006D03*
X018523Y015011D03*
X018523Y015016D03*
X018523Y015021D03*
X018523Y015026D03*
X018523Y015031D03*
X018523Y015036D03*
X018523Y015041D03*
X018523Y015046D03*
X018523Y015051D03*
X018523Y015056D03*
X018523Y015061D03*
X018523Y015066D03*
X018523Y015071D03*
X018523Y015076D03*
X018523Y015081D03*
X018523Y015086D03*
X018523Y015091D03*
X018523Y015096D03*
X018523Y015101D03*
X018523Y015106D03*
X018523Y015111D03*
X018523Y015116D03*
X018523Y015121D03*
X018523Y015126D03*
X018523Y015131D03*
X018523Y015136D03*
X018523Y015141D03*
X018523Y015146D03*
X018523Y015151D03*
X018523Y015156D03*
X018523Y015161D03*
X018523Y015166D03*
X018523Y015171D03*
X018523Y015176D03*
X018523Y015181D03*
X018523Y015186D03*
X018523Y015191D03*
X018523Y015196D03*
X018523Y015201D03*
X018523Y015206D03*
X018523Y015211D03*
X018523Y015216D03*
X018523Y015221D03*
X018523Y015226D03*
X018523Y015231D03*
X018523Y015236D03*
X018523Y015241D03*
X018523Y015246D03*
X018523Y015251D03*
X018523Y015256D03*
X018523Y015261D03*
X018523Y015266D03*
X018523Y015271D03*
X018523Y015276D03*
X018523Y015281D03*
X018523Y015286D03*
X018523Y015291D03*
X018523Y015296D03*
X018523Y015301D03*
X018523Y015306D03*
X018523Y015311D03*
X018523Y015316D03*
X018523Y015321D03*
X018523Y015326D03*
X018523Y015331D03*
X018523Y015336D03*
X018523Y015341D03*
X018523Y015346D03*
X018523Y015351D03*
X018523Y015356D03*
X018523Y015361D03*
X018523Y015366D03*
X018523Y015371D03*
X018523Y015376D03*
X018523Y015381D03*
X018523Y015386D03*
X018523Y015391D03*
X018523Y015396D03*
X018523Y015401D03*
X018523Y015406D03*
X018523Y015411D03*
X018523Y015416D03*
X018523Y015421D03*
X018523Y015426D03*
X018523Y015431D03*
X018523Y015436D03*
X020383Y013761D03*
X018523Y013551D03*
X018523Y013546D03*
X018523Y013541D03*
X018523Y013536D03*
X018523Y013531D03*
X018523Y013526D03*
X018523Y013521D03*
X018523Y013516D03*
X018523Y013511D03*
X018523Y013506D03*
X018523Y013501D03*
X018523Y013496D03*
X018523Y013491D03*
X018523Y013486D03*
X018523Y013481D03*
X018523Y013476D03*
X018523Y013471D03*
X018523Y013466D03*
X018523Y013461D03*
X018523Y013456D03*
X018523Y013451D03*
X018523Y013446D03*
X018523Y013441D03*
X018523Y013436D03*
X018523Y013431D03*
X018523Y013426D03*
X018523Y013421D03*
X018523Y013416D03*
X018523Y013411D03*
X018523Y013406D03*
X018523Y013401D03*
X018523Y013396D03*
X018523Y013391D03*
X018523Y013386D03*
X022403Y013981D03*
X022403Y013986D03*
X022403Y013991D03*
X022403Y013996D03*
X022403Y014001D03*
X022403Y014006D03*
X022403Y014011D03*
X022403Y014016D03*
X022403Y014021D03*
X022403Y014026D03*
X022403Y014031D03*
X022403Y014036D03*
X022403Y014041D03*
X022403Y014046D03*
X022403Y014051D03*
X022403Y014056D03*
X022403Y014061D03*
X022403Y014066D03*
X022403Y014071D03*
X022403Y014076D03*
X022403Y014081D03*
X022403Y014086D03*
X022403Y014091D03*
X022403Y014096D03*
X022403Y014101D03*
X022403Y014106D03*
X022403Y014111D03*
X022403Y014116D03*
X022403Y014121D03*
X022403Y014126D03*
X022403Y014131D03*
X022403Y014136D03*
X023443Y013376D03*
X024508Y014086D03*
X024743Y013531D03*
D709*
X025456Y013456D03*
X025461Y013461D03*
X025561Y013831D03*
X025561Y013836D03*
X025561Y013841D03*
X025561Y013846D03*
X023161Y013746D03*
X023161Y013741D03*
X023151Y014396D03*
X021696Y014331D03*
X021696Y014326D03*
X021696Y014321D03*
X020381Y013381D03*
X020381Y013376D03*
X017946Y014681D03*
X016351Y014201D03*
D710*
X016773Y014071D03*
X016178Y013586D03*
X016653Y013376D03*
X015373Y013626D03*
X015368Y014521D03*
X014558Y014616D03*
X017938Y014781D03*
X018453Y014541D03*
X020383Y013651D03*
X022403Y013701D03*
X023148Y014586D03*
X024578Y014056D03*
D711*
X023148Y014581D03*
X022393Y014471D03*
X022403Y013681D03*
X020383Y013636D03*
X020383Y013631D03*
X018443Y014556D03*
X017738Y014631D03*
X016188Y014256D03*
X015358Y014541D03*
X014578Y014626D03*
X015363Y013611D03*
X014863Y013376D03*
X016188Y013571D03*
X016653Y013381D03*
D712*
X014856Y013491D03*
X016571Y014711D03*
X019436Y014711D03*
X019516Y013581D03*
X022401Y013441D03*
X023156Y013861D03*
X023156Y013866D03*
X023156Y013871D03*
X023151Y014271D03*
X023151Y014276D03*
X023151Y014281D03*
X025546Y013986D03*
X025546Y013981D03*
X025391Y013381D03*
D713*
X023448Y013381D03*
X020383Y013771D03*
X020368Y014411D03*
X016858Y014631D03*
X015208Y013566D03*
D714*
X019568Y013841D03*
X019568Y013846D03*
X019528Y014401D03*
X022383Y014781D03*
X022398Y013381D03*
D715*
X023156Y013556D03*
X022406Y013731D03*
X022406Y013736D03*
X022396Y014416D03*
X022396Y014421D03*
X021681Y014606D03*
X020366Y014506D03*
X021046Y013531D03*
X021146Y013381D03*
X018466Y014516D03*
X017706Y014616D03*
X016796Y014061D03*
X016166Y013606D03*
X015386Y013651D03*
X014571Y013546D03*
X014536Y014601D03*
X015381Y014496D03*
X024736Y014616D03*
D716*
X023476Y014746D03*
X021681Y014631D03*
X020366Y014406D03*
X018266Y014606D03*
X016331Y013541D03*
X016101Y013541D03*
X016101Y013546D03*
X016101Y013551D03*
X016101Y013556D03*
X016096Y013531D03*
X016096Y013526D03*
X016096Y013521D03*
X016096Y013516D03*
X016096Y013511D03*
X016096Y013506D03*
X016096Y013501D03*
X016091Y013471D03*
X016091Y013466D03*
X016091Y013461D03*
X016091Y013456D03*
X016086Y013421D03*
X016081Y013391D03*
X016081Y013386D03*
X016081Y013381D03*
X015216Y013571D03*
X015181Y014601D03*
X024466Y013391D03*
D717*
X024603Y014036D03*
X024743Y014601D03*
X023978Y014366D03*
X023978Y014361D03*
X023978Y014356D03*
X023978Y014351D03*
X023978Y014346D03*
X023978Y014341D03*
X023978Y014336D03*
X023978Y014331D03*
X023978Y014326D03*
X023148Y014571D03*
X022393Y014501D03*
X021113Y014696D03*
X021103Y014686D03*
X020963Y014476D03*
X020963Y014471D03*
X020958Y014466D03*
X020953Y014456D03*
X020368Y014566D03*
X020383Y013611D03*
X017938Y014771D03*
X016653Y013386D03*
X014863Y013381D03*
X023158Y013576D03*
D718*
X024471Y013386D03*
X023476Y014751D03*
X020366Y014416D03*
X020381Y013766D03*
X018261Y014611D03*
X017936Y014801D03*
X016341Y013536D03*
X015201Y013561D03*
X015176Y014606D03*
D719*
X019516Y014441D03*
X019516Y014436D03*
X019561Y013816D03*
X019561Y013811D03*
X022396Y013386D03*
X025461Y014156D03*
D720*
X022396Y014391D03*
X022396Y014396D03*
X022406Y013761D03*
X022406Y013756D03*
X021681Y014611D03*
X020366Y014496D03*
X020366Y014491D03*
X021051Y013511D03*
X021051Y013506D03*
X021136Y013386D03*
X018476Y014496D03*
X017686Y014601D03*
X016261Y014631D03*
X015391Y014471D03*
X015096Y014641D03*
X014511Y014581D03*
X014546Y013561D03*
X015396Y013676D03*
D721*
X019496Y013486D03*
X020381Y013386D03*
X021696Y014351D03*
X023151Y014406D03*
X023161Y013736D03*
X023161Y013731D03*
X022401Y013476D03*
X025466Y013471D03*
X025471Y013476D03*
X025561Y013801D03*
X025561Y013806D03*
X025561Y013811D03*
X025561Y013816D03*
X025561Y013821D03*
D722*
X024081Y014736D03*
X023151Y014486D03*
X022391Y014636D03*
X021686Y014476D03*
X021686Y014471D03*
X020816Y014116D03*
X020816Y014111D03*
X020821Y014061D03*
X020821Y014056D03*
X020381Y013466D03*
X020381Y013461D03*
X019481Y013391D03*
X019481Y013386D03*
X023161Y013656D03*
X014861Y013421D03*
D723*
X019553Y013786D03*
X019508Y014466D03*
X019508Y014471D03*
X022398Y013391D03*
D724*
X023161Y013721D03*
X023161Y013726D03*
X024126Y014781D03*
X025556Y013776D03*
X025486Y013506D03*
X025481Y013496D03*
X025476Y013486D03*
X020381Y013396D03*
X020381Y013391D03*
X019496Y013476D03*
X019496Y013481D03*
X020371Y014781D03*
D725*
X020368Y014616D03*
X020368Y014611D03*
X020893Y014326D03*
X020893Y014321D03*
X020888Y014316D03*
X021188Y014766D03*
X022393Y014556D03*
X022393Y014551D03*
X022403Y013601D03*
X023158Y013596D03*
X024013Y014586D03*
X024013Y014591D03*
X024748Y014586D03*
X014863Y013391D03*
D726*
X015238Y013591D03*
X015243Y013596D03*
X015213Y014576D03*
X018293Y014586D03*
X020368Y014386D03*
X020383Y013791D03*
X023463Y013396D03*
X024458Y013401D03*
X023488Y014731D03*
X022488Y017736D03*
D727*
X020366Y014481D03*
X020366Y014476D03*
X021056Y013491D03*
X021056Y013486D03*
X021116Y013396D03*
X021581Y013531D03*
X022406Y013786D03*
X022406Y013791D03*
X022406Y013796D03*
X022396Y014361D03*
X018486Y014471D03*
X017666Y014586D03*
X016146Y013646D03*
X015406Y013701D03*
X015136Y013526D03*
X014526Y013576D03*
X014521Y013581D03*
X015401Y014441D03*
X015401Y014446D03*
X014481Y014551D03*
X014476Y014546D03*
D728*
X014828Y014766D03*
X016668Y014101D03*
X014863Y013396D03*
X020368Y014626D03*
X020368Y014631D03*
X020873Y014281D03*
X020873Y014276D03*
X021683Y014546D03*
X023158Y013606D03*
X024023Y014621D03*
X024718Y013636D03*
D729*
X025416Y013401D03*
X025556Y013936D03*
X025556Y013941D03*
X023151Y014331D03*
X019506Y013551D03*
X017946Y014656D03*
X019426Y014746D03*
X014856Y013476D03*
D730*
X015253Y013606D03*
X015228Y014561D03*
X015223Y014566D03*
X016873Y014621D03*
X018308Y014576D03*
X020383Y013801D03*
X023468Y013401D03*
X024453Y013406D03*
X024723Y014636D03*
X023493Y014726D03*
D731*
X022383Y014761D03*
X022398Y013401D03*
X019543Y013736D03*
X019488Y014526D03*
X022488Y017706D03*
D732*
X020371Y014771D03*
X021691Y014386D03*
X021691Y014381D03*
X023161Y013716D03*
X023161Y013711D03*
X025491Y013516D03*
X025496Y013521D03*
X025496Y013526D03*
X025501Y013536D03*
X025556Y013736D03*
X025556Y013741D03*
X025556Y013746D03*
X025556Y013751D03*
X020381Y013406D03*
X020381Y013401D03*
X016561Y014741D03*
X014831Y014716D03*
D733*
X014828Y014736D03*
X016303Y014226D03*
X019483Y013406D03*
X019483Y013401D03*
X020808Y014086D03*
X020808Y014091D03*
X020368Y014721D03*
X021688Y014461D03*
X022403Y013516D03*
X023158Y013666D03*
X024088Y014746D03*
D734*
X024038Y014656D03*
X024653Y013971D03*
X024713Y013656D03*
X022393Y014581D03*
X021683Y014531D03*
X020863Y014251D03*
X020863Y014246D03*
X020858Y014241D03*
X020368Y014641D03*
X020368Y014646D03*
X020383Y013531D03*
X014863Y013401D03*
X014828Y014761D03*
D735*
X014828Y014686D03*
X016373Y014186D03*
X016568Y014721D03*
X016638Y013501D03*
X019508Y013546D03*
X019423Y014751D03*
X019423Y014756D03*
X022388Y014706D03*
X023153Y014346D03*
X023153Y014341D03*
X023153Y014336D03*
X023158Y013806D03*
X023158Y013801D03*
X023158Y013796D03*
X025418Y013406D03*
D736*
X023473Y013406D03*
X021588Y013521D03*
X020383Y013811D03*
X020368Y014371D03*
X018318Y014566D03*
D737*
X019481Y014556D03*
X019541Y013716D03*
X019541Y013711D03*
X022401Y013406D03*
X025501Y014101D03*
X025476Y014746D03*
D738*
X024731Y014626D03*
X023151Y014606D03*
X022406Y013831D03*
X022406Y013826D03*
X022406Y013821D03*
X022406Y013816D03*
X021101Y013406D03*
X021061Y013466D03*
X020386Y013716D03*
X020366Y014461D03*
X018496Y014441D03*
X017641Y014556D03*
X017636Y014551D03*
X016866Y014016D03*
X016916Y013561D03*
X016136Y013671D03*
X015411Y013726D03*
X014486Y013611D03*
X015411Y014406D03*
X015411Y014411D03*
X014451Y014516D03*
X014446Y014511D03*
X014436Y014496D03*
D739*
X016548Y014776D03*
X017938Y014751D03*
X016648Y013406D03*
X020383Y013541D03*
X020868Y014261D03*
X020868Y014266D03*
X020368Y014636D03*
X021208Y014781D03*
X021683Y014541D03*
X022393Y014576D03*
X022403Y013581D03*
X024028Y014636D03*
X024033Y014641D03*
X024753Y014576D03*
X024648Y013981D03*
X024718Y013646D03*
D740*
X024711Y013681D03*
X024666Y013941D03*
X024666Y013946D03*
X024756Y014566D03*
X021561Y013566D03*
X020846Y014201D03*
X020846Y014206D03*
X020381Y013511D03*
X017941Y014741D03*
X016651Y013416D03*
X014861Y013406D03*
D741*
X015231Y014556D03*
X017936Y014806D03*
X018311Y014571D03*
X020366Y014376D03*
X020381Y013806D03*
X021681Y014636D03*
X023496Y014721D03*
X024451Y013411D03*
D742*
X023478Y013411D03*
X023158Y013526D03*
X023503Y014711D03*
D743*
X023151Y014431D03*
X023161Y013706D03*
X021691Y014396D03*
X021691Y014401D03*
X020371Y014766D03*
X020381Y013411D03*
X019491Y013456D03*
X016646Y013461D03*
X025506Y013551D03*
X025511Y013561D03*
X025511Y013566D03*
X025516Y013571D03*
X025516Y013576D03*
X025521Y013586D03*
X025521Y013591D03*
X025531Y013621D03*
X025541Y013661D03*
X025546Y013676D03*
X025546Y013681D03*
X025546Y013686D03*
X025546Y013691D03*
D744*
X024713Y013666D03*
X024713Y013661D03*
X024658Y013961D03*
X024753Y014571D03*
X024043Y014666D03*
X022403Y013566D03*
X021683Y014526D03*
X020853Y014226D03*
X020368Y014651D03*
X017938Y014746D03*
X016648Y013411D03*
D745*
X016881Y014616D03*
X020366Y014366D03*
X020381Y013816D03*
X023501Y014716D03*
X024746Y013521D03*
X024446Y013416D03*
D746*
X024441Y013421D03*
X023481Y013416D03*
X023151Y014626D03*
X023506Y014706D03*
X020366Y014361D03*
X020381Y013821D03*
D747*
X020366Y014446D03*
X021066Y013446D03*
X021086Y013416D03*
X022406Y013866D03*
X022406Y013871D03*
X022401Y014281D03*
X023151Y014611D03*
X018506Y014406D03*
X018506Y014401D03*
X018506Y014396D03*
X017616Y014521D03*
X017611Y014511D03*
X017606Y014506D03*
X017606Y014501D03*
X016906Y013981D03*
X016946Y013606D03*
X016941Y013596D03*
X016126Y013701D03*
X016126Y013706D03*
X015421Y013761D03*
X015421Y013766D03*
X015421Y014366D03*
X015421Y014371D03*
X016191Y014571D03*
X016196Y014576D03*
X014406Y014446D03*
X014401Y014436D03*
X014401Y014431D03*
X014396Y014426D03*
X014391Y014416D03*
X014436Y013676D03*
X014441Y013666D03*
X014446Y013661D03*
D748*
X016561Y014746D03*
X017946Y014701D03*
X019491Y013451D03*
X019491Y013446D03*
X020381Y013421D03*
X020381Y013416D03*
X021691Y014406D03*
X021691Y014411D03*
X022391Y014666D03*
X023151Y014441D03*
X023161Y013701D03*
X023161Y013696D03*
D749*
X023161Y013676D03*
X021556Y013586D03*
X020381Y013441D03*
X019486Y013421D03*
X019486Y013416D03*
X016646Y013446D03*
X014861Y013431D03*
X022391Y014651D03*
D750*
X023151Y014361D03*
X023161Y013776D03*
X022401Y013461D03*
X021701Y014226D03*
X021701Y014231D03*
X021701Y014236D03*
X021701Y014241D03*
X021701Y014246D03*
X019506Y013531D03*
X017946Y014666D03*
X016566Y014726D03*
X019421Y014766D03*
X019421Y014771D03*
X025431Y013421D03*
X025561Y013901D03*
X025561Y013906D03*
D751*
X023486Y013421D03*
X023511Y014701D03*
X020366Y014351D03*
X020381Y013831D03*
D752*
X020383Y013501D03*
X020838Y014181D03*
X020368Y014676D03*
X016648Y013421D03*
X014828Y014751D03*
X024673Y013926D03*
X024673Y013921D03*
X024708Y013701D03*
X024708Y013696D03*
D753*
X025436Y013426D03*
X025441Y013431D03*
X025561Y013881D03*
X025561Y013886D03*
X025561Y013891D03*
X023161Y013766D03*
X023151Y014371D03*
X021701Y014276D03*
X019501Y013521D03*
X019501Y013516D03*
X017946Y014671D03*
X016641Y013491D03*
D754*
X016196Y013561D03*
X014591Y014631D03*
X020366Y014556D03*
X020986Y014516D03*
X020991Y014526D03*
X020996Y014531D03*
X020996Y014536D03*
X021001Y014541D03*
X021006Y014551D03*
X021016Y014566D03*
X021056Y014626D03*
X021066Y014641D03*
X021071Y014646D03*
X021076Y014651D03*
X021086Y014666D03*
X021681Y014586D03*
X022396Y014486D03*
X023151Y014576D03*
X022406Y013666D03*
X023971Y013461D03*
X023971Y013456D03*
X023971Y013451D03*
X023971Y013446D03*
X023971Y013441D03*
X023971Y013436D03*
X023971Y013431D03*
X023971Y013426D03*
D755*
X023488Y013426D03*
X024433Y013431D03*
X023513Y014696D03*
X020368Y014346D03*
X020383Y013836D03*
D756*
X019526Y013636D03*
X019456Y014646D03*
X016566Y014686D03*
X016416Y014151D03*
X022386Y014736D03*
X022401Y013426D03*
X025521Y014651D03*
X025521Y014656D03*
X025511Y014711D03*
D757*
X023161Y013691D03*
X021691Y014421D03*
X022391Y014661D03*
X020381Y013426D03*
X014861Y013436D03*
D758*
X016648Y013426D03*
X017943Y014731D03*
X020368Y014691D03*
X020828Y014151D03*
X022403Y013536D03*
X024068Y014716D03*
X024763Y014551D03*
X024683Y013886D03*
X024683Y013881D03*
X024683Y013876D03*
X024703Y013736D03*
X024703Y013731D03*
X024703Y013726D03*
D759*
X023493Y013431D03*
X023518Y014686D03*
X016893Y014606D03*
D760*
X017943Y014706D03*
X016643Y013451D03*
X014828Y014726D03*
X019488Y013436D03*
X019488Y013431D03*
X021688Y014426D03*
X021688Y014431D03*
X022403Y013501D03*
X023153Y014451D03*
X024103Y014761D03*
X020368Y014746D03*
D761*
X020821Y014131D03*
X020821Y014126D03*
X021686Y014481D03*
X022391Y014631D03*
X023151Y014491D03*
X024076Y014726D03*
X024691Y013841D03*
X024691Y013836D03*
X024691Y013831D03*
X024691Y013826D03*
X024691Y013821D03*
X024691Y013816D03*
X024696Y013806D03*
X024696Y013801D03*
X024696Y013796D03*
X024696Y013791D03*
X024696Y013786D03*
X024696Y013781D03*
X024696Y013776D03*
X023161Y013651D03*
X020381Y013476D03*
X020381Y013471D03*
X017941Y014726D03*
X016556Y014761D03*
X016291Y014231D03*
X016646Y013431D03*
D762*
X016638Y013486D03*
X016358Y014196D03*
X021698Y014281D03*
X021698Y014286D03*
X021698Y014291D03*
X021698Y014296D03*
X021698Y014301D03*
X022388Y014696D03*
X023153Y014381D03*
X023153Y014376D03*
X023158Y013761D03*
X022403Y013466D03*
X025443Y013436D03*
X025558Y013876D03*
D763*
X024431Y013436D03*
X023516Y014691D03*
X021681Y014641D03*
X020366Y014341D03*
X020381Y013841D03*
D764*
X020381Y013846D03*
X020366Y014336D03*
X023521Y014681D03*
X024721Y014641D03*
X024431Y013441D03*
X023496Y013436D03*
D765*
X023151Y013921D03*
X023151Y013926D03*
X023151Y013931D03*
X023151Y013936D03*
X023151Y013941D03*
X023151Y013946D03*
X023151Y013951D03*
X023151Y014211D03*
X023151Y014216D03*
X023151Y014221D03*
X022386Y014726D03*
X022401Y013436D03*
X019516Y013601D03*
X025541Y014006D03*
D766*
X023153Y014481D03*
X021688Y014466D03*
X020813Y014106D03*
X020818Y014066D03*
X020368Y014711D03*
X020368Y014716D03*
X021558Y013581D03*
X022403Y013521D03*
X017943Y014721D03*
X016648Y013436D03*
D767*
X016646Y013441D03*
X017941Y014716D03*
X020381Y013451D03*
X020381Y013446D03*
X021686Y014456D03*
X022391Y014646D03*
X023151Y014471D03*
X023161Y013671D03*
D768*
X022403Y013491D03*
X023153Y014436D03*
X024113Y014771D03*
X025543Y013671D03*
X025543Y013666D03*
X025538Y013656D03*
X025538Y013651D03*
X025538Y013646D03*
X025538Y013641D03*
X025533Y013636D03*
X025533Y013631D03*
X025533Y013626D03*
X025528Y013616D03*
X025528Y013611D03*
X025528Y013606D03*
X025523Y013601D03*
X025523Y013596D03*
X025518Y013581D03*
X020368Y014761D03*
X014828Y014721D03*
X014858Y013441D03*
D769*
X014856Y013486D03*
X019511Y013571D03*
X019431Y014721D03*
X022401Y013446D03*
X023156Y013836D03*
X023156Y013841D03*
X023156Y013846D03*
X023156Y013851D03*
X023151Y014301D03*
X025551Y013971D03*
D770*
X024421Y013456D03*
X023506Y013451D03*
X023531Y014661D03*
X020381Y013866D03*
X016906Y014596D03*
X016536Y014811D03*
D771*
X016343Y014206D03*
X016643Y013471D03*
X014858Y013451D03*
X014828Y014711D03*
X017943Y014686D03*
X021693Y014366D03*
X021693Y014361D03*
X021693Y014356D03*
X022388Y014681D03*
X023153Y014411D03*
X025558Y013796D03*
X025558Y013791D03*
X025558Y013786D03*
X025558Y013781D03*
X025478Y013491D03*
X025473Y013481D03*
D772*
X024418Y013461D03*
X023508Y013456D03*
X023533Y014656D03*
X020368Y014316D03*
D773*
X019421Y014761D03*
X017946Y014661D03*
X019506Y013541D03*
X019506Y013536D03*
X022401Y013456D03*
X025556Y013921D03*
X025556Y013926D03*
X025556Y013931D03*
D774*
X024416Y013466D03*
X023511Y013461D03*
X020381Y013871D03*
X020381Y013876D03*
X020366Y014311D03*
X014821Y014811D03*
D775*
X016318Y014651D03*
X020383Y013621D03*
X020383Y013616D03*
X020978Y014501D03*
X020978Y014506D03*
X020983Y014511D03*
X020988Y014521D03*
X021078Y014656D03*
X021083Y014661D03*
X021093Y014676D03*
X021098Y014681D03*
X022393Y014491D03*
X022403Y013661D03*
X023973Y013546D03*
X023973Y013541D03*
X023973Y013536D03*
X023973Y013531D03*
X023973Y013526D03*
X023973Y013521D03*
X023973Y013516D03*
X023973Y013511D03*
X023973Y013506D03*
X023973Y013501D03*
X023973Y013496D03*
X023973Y013491D03*
X023973Y013486D03*
X023973Y013481D03*
X023973Y013476D03*
X023973Y013471D03*
X023973Y013466D03*
X024728Y013586D03*
X024598Y014041D03*
D776*
X024413Y013471D03*
X023513Y013466D03*
X023533Y014651D03*
X020368Y014306D03*
X016908Y014591D03*
D777*
X017936Y014811D03*
X020366Y014301D03*
X020381Y013881D03*
X023516Y013471D03*
X024411Y013476D03*
X023536Y014646D03*
D778*
X022398Y014341D03*
X022398Y014336D03*
X022398Y014331D03*
X022398Y014326D03*
X021058Y013471D03*
X020383Y013711D03*
X020368Y014466D03*
X018493Y014451D03*
X018493Y014446D03*
X017648Y014566D03*
X017643Y014561D03*
X016538Y014801D03*
X016223Y014606D03*
X015408Y014421D03*
X015408Y014416D03*
X014458Y014526D03*
X014453Y014521D03*
X014493Y013606D03*
X014498Y013601D03*
X014503Y013596D03*
X015148Y013531D03*
X015408Y013716D03*
X015408Y013721D03*
X016138Y013666D03*
X016908Y013556D03*
X024538Y014076D03*
D779*
X024406Y013486D03*
X023521Y013481D03*
X023541Y014636D03*
X020366Y014291D03*
X020381Y013891D03*
D780*
X019511Y013561D03*
X017946Y014651D03*
X016571Y014716D03*
X016381Y014181D03*
X014856Y013481D03*
X019431Y014731D03*
X022386Y014711D03*
X023151Y014316D03*
X025551Y013961D03*
X025551Y013956D03*
D781*
X023523Y013486D03*
X023543Y014631D03*
D782*
X023151Y014501D03*
X022391Y014616D03*
X022391Y014621D03*
X021686Y014496D03*
X020831Y014161D03*
X020831Y014156D03*
X020381Y013486D03*
X022406Y013541D03*
X023161Y013641D03*
X024066Y014711D03*
X024681Y013896D03*
X024681Y013891D03*
X024706Y013721D03*
D783*
X024406Y013491D03*
X023526Y013491D03*
X023161Y013521D03*
X023546Y014626D03*
X020366Y014286D03*
X020366Y014281D03*
X020381Y013901D03*
X020381Y013896D03*
X016916Y014581D03*
D784*
X016553Y014766D03*
X016278Y014236D03*
X020368Y014681D03*
X020368Y014686D03*
X020833Y014166D03*
X020383Y013491D03*
X021558Y013571D03*
X021683Y014501D03*
X024063Y014706D03*
X024678Y013906D03*
X024678Y013901D03*
X024703Y013716D03*
D785*
X024403Y013496D03*
X023528Y013496D03*
X023548Y014616D03*
X023548Y014621D03*
X020383Y013906D03*
D786*
X020366Y014276D03*
X023551Y014611D03*
X023531Y013501D03*
X024401Y013501D03*
X016921Y014576D03*
D787*
X020368Y014271D03*
X020383Y013911D03*
X023533Y013506D03*
X024398Y013506D03*
X023553Y014606D03*
D788*
X023153Y014461D03*
X024098Y014756D03*
X022403Y013506D03*
X021688Y014436D03*
X021688Y014441D03*
X020368Y014736D03*
X017943Y014711D03*
X016558Y014751D03*
X014828Y014731D03*
D789*
X014828Y014656D03*
X014853Y013506D03*
X019448Y014666D03*
X025523Y014681D03*
X025523Y014686D03*
X025533Y014026D03*
D790*
X024396Y013511D03*
X023536Y013511D03*
X023556Y014596D03*
X023556Y014601D03*
X020366Y014266D03*
X020381Y013916D03*
X016926Y014571D03*
D791*
X016573Y014691D03*
X014828Y014651D03*
X014853Y013511D03*
X019523Y013631D03*
X019453Y014651D03*
X025518Y014706D03*
X025523Y014661D03*
X025528Y014041D03*
X025528Y014036D03*
D792*
X024393Y013516D03*
X023538Y013516D03*
X023538Y013521D03*
X023558Y014591D03*
X020368Y014261D03*
X020383Y013921D03*
D793*
X020383Y013681D03*
X021048Y013516D03*
X018473Y014501D03*
X017693Y014606D03*
X016813Y014051D03*
X016873Y013526D03*
X016158Y013621D03*
X015393Y013671D03*
X015118Y013521D03*
X014553Y013556D03*
X015388Y014476D03*
X015388Y014481D03*
X014518Y014586D03*
X024558Y014066D03*
D794*
X024663Y013951D03*
X024713Y013676D03*
X024048Y014676D03*
X024048Y014681D03*
X022393Y014596D03*
X021683Y014521D03*
X020848Y014211D03*
X020368Y014661D03*
X020383Y013516D03*
X022403Y013561D03*
X014828Y014756D03*
D795*
X016926Y014566D03*
X020366Y014256D03*
X020381Y013926D03*
X023541Y013526D03*
X024391Y013521D03*
X023561Y014581D03*
X023561Y014586D03*
D796*
X023981Y014406D03*
X023981Y014401D03*
X023981Y014396D03*
X023981Y014391D03*
X023981Y014386D03*
X023981Y014381D03*
X023981Y014376D03*
X023981Y014371D03*
X024726Y013591D03*
X022406Y013646D03*
X022406Y013651D03*
X022396Y014506D03*
X021126Y014711D03*
X021121Y014706D03*
X021116Y014701D03*
X020956Y014461D03*
X020951Y014451D03*
X020366Y014571D03*
X020381Y013606D03*
X014636Y013521D03*
X014606Y014636D03*
D797*
X020368Y014251D03*
X020383Y013931D03*
X023543Y013531D03*
X024393Y013526D03*
X023563Y014576D03*
D798*
X023151Y014526D03*
X022391Y014586D03*
X022406Y013571D03*
X023161Y013616D03*
X024041Y014661D03*
X024656Y013966D03*
X020856Y014231D03*
X020856Y014236D03*
X020381Y013526D03*
D799*
X020381Y013936D03*
X020366Y014246D03*
X023566Y014566D03*
X023566Y014571D03*
X023546Y013541D03*
X023546Y013536D03*
X024391Y013531D03*
X016931Y014561D03*
D800*
X016311Y013556D03*
X015206Y014581D03*
X020366Y014391D03*
X023151Y014621D03*
X023486Y014736D03*
X023156Y013531D03*
D801*
X023548Y013546D03*
X024388Y013536D03*
X023568Y014561D03*
X020383Y013941D03*
D802*
X020383Y013756D03*
X020383Y013751D03*
X020368Y014426D03*
X018518Y014336D03*
X018518Y014331D03*
X018518Y014326D03*
X018518Y014321D03*
X018518Y014316D03*
X018518Y014311D03*
X017563Y014376D03*
X017563Y014381D03*
X017563Y014386D03*
X017558Y014366D03*
X017558Y014361D03*
X017558Y014356D03*
X017558Y014351D03*
X017553Y014336D03*
X017553Y014331D03*
X017553Y014326D03*
X017553Y014321D03*
X016948Y013916D03*
X016953Y013906D03*
X016958Y013896D03*
X016958Y013891D03*
X016963Y013886D03*
X016963Y013881D03*
X016963Y013876D03*
X016968Y013866D03*
X016968Y013861D03*
X016973Y013846D03*
X016973Y013841D03*
X016978Y013821D03*
X016978Y013816D03*
X016983Y013776D03*
X016983Y013771D03*
X016983Y013766D03*
X016983Y013761D03*
X016983Y013756D03*
X016983Y013751D03*
X016983Y013746D03*
X016983Y013741D03*
X016983Y013736D03*
X016983Y013731D03*
X016978Y013711D03*
X016978Y013706D03*
X016978Y013701D03*
X016113Y013761D03*
X016113Y013766D03*
X016113Y013771D03*
X016113Y013776D03*
X015433Y013836D03*
X015433Y013841D03*
X015433Y013846D03*
X015433Y013851D03*
X015188Y013551D03*
X014363Y013831D03*
X014358Y013846D03*
X014358Y013851D03*
X014353Y013861D03*
X014353Y013866D03*
X014353Y013871D03*
X014348Y013881D03*
X014348Y013886D03*
X014348Y013891D03*
X014348Y013896D03*
X014343Y013901D03*
X014343Y013906D03*
X014343Y013911D03*
X014343Y013916D03*
X014338Y013926D03*
X014338Y013931D03*
X014338Y013936D03*
X014338Y013941D03*
X014338Y013946D03*
X014338Y013951D03*
X014333Y013956D03*
X014333Y013961D03*
X014333Y013966D03*
X014333Y013971D03*
X014333Y013976D03*
X014333Y013981D03*
X014328Y014001D03*
X014328Y014006D03*
X014328Y014011D03*
X014328Y014016D03*
X014328Y014021D03*
X014328Y014026D03*
X014328Y014031D03*
X014328Y014036D03*
X014328Y014041D03*
X014328Y014046D03*
X014328Y014051D03*
X014328Y014056D03*
X014328Y014061D03*
X014328Y014066D03*
X014328Y014071D03*
X014328Y014106D03*
X014328Y014111D03*
X014328Y014116D03*
X014328Y014121D03*
X014328Y014126D03*
X014328Y014131D03*
X014328Y014136D03*
X014328Y014141D03*
X014328Y014146D03*
X014328Y014151D03*
X014328Y014156D03*
X014328Y014161D03*
X014328Y014166D03*
X014328Y014171D03*
X014328Y014176D03*
X014328Y014181D03*
X014333Y014191D03*
X014333Y014196D03*
X014333Y014201D03*
X014333Y014206D03*
X014333Y014211D03*
X014338Y014241D03*
X014343Y014266D03*
X015158Y014616D03*
X015433Y014296D03*
X015433Y014291D03*
X015433Y014286D03*
X015433Y014281D03*
X016148Y014496D03*
X016148Y014501D03*
X016153Y014506D03*
X016153Y014511D03*
X022398Y014201D03*
X022403Y013971D03*
X022403Y013966D03*
X022403Y013961D03*
X022403Y013956D03*
X022403Y013951D03*
X022403Y013946D03*
X023158Y013536D03*
X024728Y014631D03*
D803*
X022396Y014446D03*
X022396Y014441D03*
X022406Y013711D03*
X022406Y013706D03*
X021041Y013556D03*
X021041Y013551D03*
X020366Y014526D03*
X018456Y014536D03*
X015371Y014516D03*
X015376Y013631D03*
X014591Y013536D03*
D804*
X016936Y014556D03*
X020366Y014241D03*
X023571Y014551D03*
X023571Y014556D03*
X023551Y013556D03*
X023551Y013551D03*
X024386Y013546D03*
X024386Y013541D03*
D805*
X024608Y014031D03*
X023983Y014411D03*
X023983Y014416D03*
X023983Y014421D03*
X023983Y014426D03*
X023983Y014431D03*
X023983Y014436D03*
X023158Y013581D03*
X022403Y013641D03*
X021573Y013546D03*
X020938Y014426D03*
X020943Y014436D03*
X020948Y014441D03*
X020948Y014446D03*
X021128Y014716D03*
X020368Y014576D03*
X020383Y013601D03*
X022393Y014511D03*
X017763Y014636D03*
D806*
X020368Y014596D03*
X020908Y014361D03*
X021168Y014751D03*
X022393Y014541D03*
X022393Y014536D03*
X023148Y014556D03*
X024003Y014546D03*
X024003Y014541D03*
X024623Y014016D03*
X024723Y013611D03*
X021568Y013551D03*
X020383Y013576D03*
D807*
X020381Y013551D03*
X020876Y014286D03*
X020881Y014296D03*
X021201Y014776D03*
X022391Y014566D03*
X023151Y014541D03*
X024021Y014611D03*
X024021Y014616D03*
X024751Y014581D03*
X024641Y013991D03*
X022406Y013591D03*
X021566Y013556D03*
X016241Y014246D03*
D808*
X020368Y014666D03*
X020843Y014196D03*
X021683Y014516D03*
X022393Y014601D03*
X023153Y014516D03*
X024053Y014686D03*
X024053Y014691D03*
X024668Y013936D03*
X024708Y013686D03*
X023158Y013626D03*
X022403Y013556D03*
D809*
X023158Y013601D03*
X022393Y014561D03*
X021683Y014551D03*
X020883Y014301D03*
X020878Y014291D03*
X020368Y014621D03*
X020383Y013556D03*
X017938Y014756D03*
X024018Y014606D03*
X024018Y014601D03*
X024638Y013996D03*
X024718Y013631D03*
D810*
X024733Y013561D03*
X024568Y014061D03*
X023148Y014591D03*
X022398Y014426D03*
X022403Y013726D03*
X020383Y013666D03*
X020368Y014511D03*
X018463Y014521D03*
X016168Y013601D03*
X015383Y013646D03*
X015378Y014501D03*
X014543Y014606D03*
D811*
X016546Y014781D03*
X016691Y014096D03*
X020381Y013566D03*
X020896Y014331D03*
X021181Y014761D03*
X021681Y014556D03*
X023151Y014551D03*
X024011Y014571D03*
X024011Y014576D03*
X024011Y014581D03*
X024631Y014006D03*
X024721Y013621D03*
X022406Y013606D03*
D812*
X022403Y013611D03*
X022393Y014546D03*
X024008Y014566D03*
X024628Y014011D03*
X024723Y013616D03*
X020898Y014336D03*
X020898Y014341D03*
X020368Y014606D03*
X020383Y013571D03*
X017938Y014761D03*
X014828Y014771D03*
D813*
X014826Y014786D03*
X015361Y014536D03*
X016761Y014076D03*
X016186Y013576D03*
X015366Y013616D03*
X018446Y014551D03*
X020366Y014541D03*
X021036Y013576D03*
X022406Y013686D03*
X022396Y014466D03*
D814*
X021681Y014566D03*
X021161Y014746D03*
X020916Y014376D03*
X020911Y014371D03*
X020911Y014366D03*
X020381Y013581D03*
X022406Y013621D03*
X024001Y014526D03*
X024001Y014531D03*
X024001Y014536D03*
X016221Y014251D03*
D815*
X016393Y014171D03*
X014828Y014671D03*
X019438Y014701D03*
X019438Y014706D03*
X019513Y013586D03*
X022388Y014721D03*
X023153Y013891D03*
X023153Y013886D03*
X023153Y013881D03*
X023153Y013876D03*
X025543Y013991D03*
X025543Y013996D03*
D816*
X025441Y014176D03*
X021356Y013591D03*
X019571Y013861D03*
X019536Y014381D03*
D817*
X020366Y014586D03*
X020926Y014401D03*
X020926Y014396D03*
X021146Y014731D03*
X021151Y014736D03*
X021681Y014571D03*
X023151Y014561D03*
X023991Y014491D03*
X023991Y014486D03*
X023991Y014481D03*
X023996Y014496D03*
X023996Y014501D03*
X023996Y014506D03*
X024746Y014596D03*
X024726Y013601D03*
X022406Y013631D03*
X020381Y013591D03*
D818*
X019578Y013881D03*
X019543Y014356D03*
X019543Y014361D03*
X021358Y013596D03*
X022383Y014786D03*
X025433Y014181D03*
D819*
X024613Y014026D03*
X023988Y014456D03*
X023988Y014461D03*
X023988Y014466D03*
X023988Y014471D03*
X023988Y014476D03*
X022393Y014521D03*
X020933Y014416D03*
X020933Y014411D03*
X020928Y014406D03*
X020368Y014581D03*
X020383Y013596D03*
X016713Y014091D03*
X022488Y017731D03*
D820*
X022383Y014791D03*
X021363Y013611D03*
X019558Y014316D03*
D821*
X019571Y014271D03*
X019596Y013956D03*
X021366Y013631D03*
X022381Y014796D03*
X025401Y014206D03*
D822*
X021368Y013636D03*
X019598Y013961D03*
X019598Y013966D03*
X019573Y014261D03*
X019573Y014266D03*
D823*
X019578Y014251D03*
X019583Y014241D03*
X019603Y013976D03*
X021368Y013641D03*
X025393Y014211D03*
D824*
X025526Y014051D03*
X025516Y014626D03*
X025516Y014631D03*
X025506Y014716D03*
X019456Y014641D03*
X019456Y014636D03*
X019526Y013646D03*
X016561Y014676D03*
X016556Y014671D03*
X016551Y014661D03*
X016421Y014146D03*
D825*
X016423Y014141D03*
X016548Y014656D03*
X016553Y014666D03*
X019458Y014631D03*
X019458Y014626D03*
X019528Y013651D03*
X025523Y014056D03*
X025518Y014621D03*
X022488Y017711D03*
D826*
X019598Y014201D03*
X019598Y014196D03*
X019613Y014016D03*
X021373Y013661D03*
D827*
X021373Y013666D03*
X019613Y014026D03*
X019603Y014181D03*
X019603Y014186D03*
D828*
X019466Y014606D03*
X019466Y014611D03*
X019531Y013671D03*
X019531Y013666D03*
X025516Y014071D03*
X025511Y014581D03*
X025511Y014586D03*
X025511Y014591D03*
X025496Y014726D03*
D829*
X021373Y013681D03*
X021373Y013676D03*
X019623Y014056D03*
X019613Y014151D03*
X019613Y014156D03*
D830*
X019471Y014596D03*
X019531Y013676D03*
X022386Y014746D03*
X025511Y014081D03*
D831*
X023883Y014786D03*
X021373Y013686D03*
X019618Y014136D03*
X019618Y014141D03*
X022488Y017686D03*
D832*
X019621Y014131D03*
X019626Y014071D03*
X021376Y013691D03*
D833*
X019536Y013691D03*
X019471Y014586D03*
X016441Y014121D03*
X025506Y014086D03*
X025506Y014546D03*
D834*
X021376Y013696D03*
X019631Y014086D03*
X019631Y014106D03*
X019631Y014111D03*
D835*
X021373Y013706D03*
X025343Y014236D03*
D836*
X025503Y014096D03*
X019538Y013706D03*
X019478Y014561D03*
X019478Y014566D03*
X016448Y014111D03*
D837*
X021373Y013716D03*
D838*
X021373Y013721D03*
X021373Y013726D03*
X022488Y017681D03*
D839*
X019488Y014536D03*
X019543Y013731D03*
X019543Y013726D03*
X025493Y014111D03*
D840*
X025483Y014126D03*
X019548Y013751D03*
X019493Y014511D03*
X019493Y014516D03*
D841*
X021373Y013756D03*
X025313Y014246D03*
D842*
X025451Y014766D03*
X019496Y014506D03*
X019551Y013756D03*
D843*
X021371Y013766D03*
X021371Y013771D03*
X022486Y017676D03*
D844*
X019501Y014491D03*
X019551Y013766D03*
X025476Y014136D03*
D845*
X019553Y013776D03*
X019553Y013771D03*
X019503Y014481D03*
X019503Y014486D03*
D846*
X021366Y013801D03*
X021366Y013796D03*
D847*
X019558Y013796D03*
X019558Y013801D03*
X019508Y014461D03*
X025463Y014151D03*
D848*
X021363Y013811D03*
D849*
X021363Y013821D03*
X022488Y017671D03*
D850*
X019518Y014431D03*
X019563Y013821D03*
D851*
X019563Y013831D03*
X019523Y014416D03*
X019523Y014421D03*
X022488Y017701D03*
X025413Y014786D03*
D852*
X021361Y013836D03*
D853*
X021356Y013851D03*
D854*
X019571Y013851D03*
X019531Y014396D03*
X025406Y014791D03*
X025446Y014171D03*
D855*
X021353Y013866D03*
X021353Y013861D03*
D856*
X019573Y013866D03*
X019538Y014371D03*
X019538Y014376D03*
D857*
X021353Y013876D03*
X021353Y013871D03*
X023883Y014811D03*
D858*
X021351Y013881D03*
D859*
X019578Y013886D03*
X019578Y013891D03*
X019548Y014341D03*
X019548Y014346D03*
X025428Y014186D03*
D860*
X021346Y013906D03*
X021346Y013901D03*
D861*
X019583Y013901D03*
X019583Y013906D03*
X019553Y014326D03*
X019553Y014331D03*
X022488Y017696D03*
X025423Y014191D03*
D862*
X021341Y013916D03*
D863*
X021341Y013926D03*
D864*
X019588Y013926D03*
D865*
X021338Y013931D03*
D866*
X019593Y013941D03*
X019563Y014291D03*
X019563Y014296D03*
X025408Y014201D03*
D867*
X021333Y013946D03*
D868*
X021333Y013951D03*
X021333Y013956D03*
X025208Y014541D03*
D869*
X025206Y014536D03*
X025206Y014531D03*
X021331Y013966D03*
X021331Y013961D03*
D870*
X021326Y013976D03*
X025201Y014516D03*
X025201Y014521D03*
D871*
X025196Y014501D03*
X021321Y013991D03*
D872*
X019608Y014001D03*
X019608Y014006D03*
X019593Y014211D03*
X019593Y014216D03*
X025383Y014216D03*
D873*
X025196Y014486D03*
X025196Y014491D03*
X021316Y014006D03*
D874*
X021313Y014021D03*
X025188Y014446D03*
X025188Y014451D03*
X025188Y014456D03*
D875*
X025376Y014221D03*
X019611Y014021D03*
X019601Y014191D03*
D876*
X021308Y014036D03*
X022488Y017651D03*
D877*
X025186Y014416D03*
X025186Y014411D03*
X025186Y014406D03*
X025186Y014401D03*
X025186Y014396D03*
X021306Y014046D03*
X021306Y014041D03*
D878*
X025331Y014241D03*
D879*
X025301Y014251D03*
D880*
X025181Y014266D03*
X025181Y014271D03*
X025181Y014276D03*
X025181Y014281D03*
X025181Y014286D03*
X025181Y014291D03*
X025181Y014296D03*
X025181Y014301D03*
X025181Y014306D03*
X025181Y014311D03*
X025181Y014316D03*
X025181Y014321D03*
X025181Y014326D03*
X025181Y014331D03*
X025181Y014336D03*
X025181Y014341D03*
X025181Y014346D03*
X025181Y014351D03*
X025181Y014356D03*
X025181Y014361D03*
X025181Y014366D03*
D881*
X019511Y014451D03*
X019511Y014456D03*
D882*
X025191Y014461D03*
X025191Y014466D03*
X025191Y014471D03*
D883*
X020263Y014786D03*
X022488Y017521D03*
D884*
X020268Y014791D03*
D885*
X023883Y014806D03*
D886*
X022486Y014816D03*
X022486Y014821D03*
X022486Y014826D03*
D887*
X022488Y014831D03*
X022488Y014836D03*
X022488Y014841D03*
D888*
X022486Y014846D03*
X022486Y014851D03*
X022486Y014856D03*
D889*
X022488Y014861D03*
X022488Y014866D03*
X022488Y014871D03*
D890*
X022486Y014876D03*
X022486Y014881D03*
D891*
X022488Y014886D03*
X022488Y014891D03*
X022488Y014896D03*
D892*
X022486Y014901D03*
X022486Y014906D03*
X022486Y014911D03*
D893*
X022488Y014916D03*
X022488Y014921D03*
X022488Y014926D03*
D894*
X022486Y014931D03*
X022486Y014936D03*
D895*
X022488Y014941D03*
X022488Y014946D03*
D896*
X022486Y014951D03*
X022486Y014956D03*
X022486Y014961D03*
D897*
X022488Y014966D03*
X022488Y014971D03*
D898*
X022486Y014976D03*
X022486Y014981D03*
X022486Y014986D03*
D899*
X022488Y014991D03*
X022488Y014996D03*
X022488Y015001D03*
D900*
X022486Y015006D03*
X022486Y015011D03*
D901*
X022488Y015016D03*
X022488Y015021D03*
D902*
X022486Y015026D03*
X022486Y015031D03*
D903*
X022488Y015036D03*
X022488Y015041D03*
D904*
X022486Y015046D03*
X022486Y015051D03*
D905*
X022488Y015056D03*
X022488Y015061D03*
X022488Y015066D03*
D906*
X022486Y015071D03*
X022486Y015076D03*
D907*
X022488Y015081D03*
X022488Y015086D03*
D908*
X022486Y015091D03*
X022486Y015096D03*
D909*
X022488Y015101D03*
X022488Y015106D03*
D910*
X022486Y015111D03*
X022486Y015116D03*
D911*
X022488Y015121D03*
X022488Y015126D03*
D912*
X022486Y015131D03*
X022486Y015136D03*
D913*
X022488Y015141D03*
X022488Y015146D03*
D914*
X022486Y015151D03*
D915*
X022488Y015156D03*
X022488Y015161D03*
D916*
X022486Y015166D03*
X022486Y015171D03*
D917*
X022488Y015176D03*
X022488Y015181D03*
D918*
X022486Y015186D03*
X022486Y015191D03*
D919*
X022488Y015196D03*
X022488Y015201D03*
D920*
X022486Y015206D03*
X022486Y015211D03*
D921*
X022488Y015216D03*
D922*
X022486Y015221D03*
X022486Y015226D03*
D923*
X022488Y015231D03*
X022488Y015236D03*
D924*
X022486Y015241D03*
X022486Y015246D03*
D925*
X022488Y015251D03*
D926*
X022486Y015256D03*
X022486Y015261D03*
D927*
X022488Y015266D03*
D928*
X022486Y015271D03*
X022486Y015276D03*
D929*
X022488Y015281D03*
X022488Y015286D03*
D930*
X022486Y015291D03*
X022486Y015296D03*
D931*
X022488Y015301D03*
D932*
X022486Y015306D03*
X022486Y015311D03*
D933*
X022488Y015316D03*
D934*
X022486Y015321D03*
X022486Y015326D03*
D935*
X022488Y015331D03*
D936*
X022486Y015336D03*
X022486Y015341D03*
D937*
X022488Y015346D03*
X022488Y015351D03*
D938*
X022486Y015356D03*
D939*
X022488Y015361D03*
D940*
X022486Y015366D03*
X022486Y015371D03*
D941*
X022488Y015376D03*
D942*
X022486Y015381D03*
X022486Y015386D03*
D943*
X022488Y015391D03*
D944*
X022486Y015396D03*
X022486Y015401D03*
D945*
X022488Y015406D03*
D946*
X022486Y015411D03*
D947*
X022488Y015416D03*
X022488Y015421D03*
D948*
X022486Y015426D03*
X022486Y015431D03*
D949*
X022488Y015436D03*
D950*
X022486Y015441D03*
D951*
X022488Y015446D03*
D952*
X022486Y015451D03*
X022486Y015456D03*
D953*
X022488Y015461D03*
D954*
X022486Y015466D03*
X022486Y015471D03*
D955*
X022488Y015476D03*
D956*
X022486Y015481D03*
D957*
X022488Y015486D03*
X022488Y015491D03*
D958*
X022486Y015496D03*
D959*
X022488Y015501D03*
X022488Y015506D03*
D960*
X022486Y015511D03*
D961*
X022488Y015516D03*
D962*
X022486Y015521D03*
D963*
X022488Y015526D03*
D964*
X022486Y015531D03*
X022486Y015536D03*
D965*
X022488Y015541D03*
D966*
X022486Y015546D03*
D967*
X022488Y015551D03*
X022488Y015556D03*
D968*
X022486Y015561D03*
D969*
X022488Y015566D03*
D970*
X022486Y015571D03*
D971*
X022488Y015576D03*
X022488Y015581D03*
D972*
X022486Y015586D03*
D973*
X022488Y015591D03*
D974*
X022486Y015596D03*
D975*
X022488Y015601D03*
D976*
X022486Y015606D03*
D977*
X022488Y015611D03*
X022488Y015616D03*
D978*
X022486Y015621D03*
D979*
X022488Y015626D03*
D980*
X022486Y015631D03*
D981*
X022488Y015636D03*
D982*
X022486Y015641D03*
D983*
X022488Y015646D03*
X022488Y015651D03*
D984*
X022486Y015656D03*
D985*
X022488Y015661D03*
D986*
X022486Y015666D03*
D987*
X022488Y015671D03*
D988*
X022486Y015676D03*
D989*
X022488Y015681D03*
X022488Y015686D03*
D990*
X022486Y015691D03*
D991*
X022488Y015696D03*
D992*
X022486Y015701D03*
D993*
X022488Y015706D03*
D994*
X022486Y015711D03*
D995*
X022488Y015716D03*
D996*
X022486Y015721D03*
D997*
X022488Y015726D03*
D998*
X022486Y015731D03*
D999*
X022488Y015736D03*
D1000*
X022486Y015741D03*
D1001*
X022488Y015746D03*
X022488Y015751D03*
D1002*
X022488Y015756D03*
X022488Y015761D03*
D1003*
X022486Y015766D03*
D1004*
X022488Y015771D03*
D1005*
X022486Y015776D03*
D1006*
X022488Y015781D03*
D1007*
X022486Y015786D03*
D1008*
X022488Y015791D03*
D1009*
X022486Y015796D03*
D1010*
X022488Y015801D03*
D1011*
X022486Y015806D03*
D1012*
X022488Y015811D03*
D1013*
X022486Y015816D03*
D1014*
X022488Y015821D03*
D1015*
X022486Y015826D03*
D1016*
X022488Y015831D03*
D1017*
X022486Y015836D03*
D1018*
X022488Y015841D03*
D1019*
X022486Y015846D03*
D1020*
X022488Y015851D03*
D1021*
X022486Y015856D03*
D1022*
X022488Y015861D03*
D1023*
X022488Y015866D03*
X022488Y015871D03*
D1024*
X022488Y015876D03*
D1025*
X022486Y015881D03*
D1026*
X022488Y015886D03*
D1027*
X022486Y015891D03*
D1028*
X022488Y015896D03*
D1029*
X022486Y015901D03*
D1030*
X022488Y015906D03*
D1031*
X022486Y015911D03*
D1032*
X022488Y015916D03*
D1033*
X022486Y015921D03*
D1034*
X022488Y015926D03*
D1035*
X022486Y015931D03*
D1036*
X022488Y015936D03*
D1037*
X022488Y015986D03*
D1038*
X022488Y015996D03*
D1039*
X022488Y016006D03*
D1040*
X022488Y016016D03*
D1041*
X022488Y016021D03*
D1042*
X022488Y016041D03*
D1043*
X022488Y016046D03*
D1044*
X022488Y016056D03*
D1045*
X022488Y016066D03*
D1046*
X022488Y016071D03*
D1047*
X022488Y016081D03*
D1048*
X022488Y016091D03*
D1049*
X022488Y016096D03*
D1050*
X022488Y016106D03*
D1051*
X022488Y016111D03*
D1052*
X022488Y016121D03*
D1053*
X022488Y016136D03*
D1054*
X022488Y016146D03*
D1055*
X022488Y016151D03*
D1056*
X022488Y016161D03*
D1057*
X022488Y016166D03*
D1058*
X022488Y016176D03*
D1059*
X022488Y016196D03*
D1060*
X022488Y016206D03*
D1061*
X022488Y016226D03*
D1062*
X022488Y016271D03*
D1063*
X022486Y016361D03*
D1064*
X022486Y016376D03*
D1065*
X022486Y016381D03*
D1066*
X022486Y016396D03*
D1067*
X022486Y016401D03*
D1068*
X022486Y016421D03*
D1069*
X022486Y016426D03*
D1070*
X022486Y016446D03*
D1071*
X022486Y016451D03*
D1072*
X022486Y016456D03*
D1073*
X022486Y016471D03*
D1074*
X022486Y016476D03*
D1075*
X022486Y016481D03*
D1076*
X022486Y016501D03*
D1077*
X022486Y016506D03*
D1078*
X022486Y016511D03*
D1079*
X022486Y016541D03*
D1080*
X022486Y016551D03*
D1081*
X022486Y016586D03*
D1082*
X022486Y016596D03*
D1083*
X022488Y016606D03*
D1084*
X022488Y016681D03*
D1085*
X022488Y016691D03*
D1086*
X022488Y016696D03*
D1087*
X022488Y016706D03*
D1088*
X022488Y016716D03*
D1089*
X022488Y016731D03*
D1090*
X022488Y016741D03*
D1091*
X022488Y016746D03*
D1092*
X022488Y016756D03*
D1093*
X022488Y016766D03*
D1094*
X022488Y016806D03*
D1095*
X022488Y016811D03*
D1096*
X022488Y016816D03*
D1097*
X022488Y016821D03*
D1098*
X022488Y016826D03*
D1099*
X022488Y016831D03*
D1100*
X022488Y016836D03*
D1101*
X022488Y016861D03*
D1102*
X022488Y016866D03*
D1103*
X022488Y016871D03*
D1104*
X022488Y016876D03*
D1105*
X022488Y016901D03*
D1106*
X022488Y016906D03*
D1107*
X022488Y016931D03*
D1108*
X022488Y016936D03*
D1109*
X022486Y017066D03*
D1110*
X022486Y017076D03*
D1111*
X022486Y017081D03*
D1112*
X022486Y017091D03*
D1113*
X022486Y017096D03*
D1114*
X022486Y017116D03*
D1115*
X022488Y017121D03*
D1116*
X022486Y017126D03*
D1117*
X022486Y017136D03*
D1118*
X022486Y017166D03*
D1119*
X022486Y017176D03*
D1120*
X022486Y017186D03*
D1121*
X022486Y017196D03*
D1122*
X022486Y017206D03*
D1123*
X022486Y017221D03*
D1124*
X022486Y017231D03*
D1125*
X022486Y017246D03*
D1126*
X022486Y017251D03*
D1127*
X022486Y017266D03*
D1128*
X022486Y017311D03*
D1129*
X022488Y017331D03*
D1130*
X022486Y017341D03*
D1131*
X022486Y017346D03*
D1132*
X022486Y017351D03*
D1133*
X022488Y017366D03*
D1134*
X022488Y017371D03*
D1135*
X022486Y017426D03*
D1136*
X022486Y017436D03*
D1137*
X022488Y017446D03*
D1138*
X022488Y017456D03*
D1139*
X022488Y017461D03*
D1140*
X022488Y017471D03*
D1141*
X022488Y017476D03*
D1142*
X022488Y017481D03*
D1143*
X022488Y017496D03*
D1144*
X022488Y017501D03*
D1145*
X022488Y017506D03*
D1146*
X022488Y017511D03*
D1147*
X022488Y017526D03*
D1148*
X022488Y017531D03*
D1149*
X022488Y017536D03*
D1150*
X022486Y017541D03*
D1151*
X022486Y017546D03*
D1152*
X022488Y017566D03*
D1153*
X022488Y017571D03*
D1154*
X022486Y017576D03*
D1155*
X022488Y017591D03*
D1156*
X022486Y017646D03*
M02*
