G75*
G70*
%OFA0B0*%
%FSLAX24Y24*%
%IPPOS*%
%LPD*%
%AMOC8*
5,1,8,0,0,1.08239X$1,22.5*
%
%ADD10R,0.0500X0.0220*%
%ADD11R,0.0220X0.0500*%
%ADD12R,0.0472X0.0315*%
%ADD13R,0.0315X0.0472*%
%ADD14C,0.0600*%
%ADD15R,0.0315X0.0315*%
%ADD16R,0.0748X0.0433*%
%ADD17C,0.0740*%
%ADD18R,0.0600X0.0600*%
%ADD19OC8,0.0600*%
%ADD20R,0.0260X0.0800*%
%ADD21R,0.0689X0.0236*%
%ADD22R,0.0591X0.0512*%
%ADD23R,0.0551X0.0315*%
%ADD24R,0.0610X0.0394*%
%ADD25R,0.0669X0.0315*%
%ADD26R,0.0394X0.0748*%
%ADD27R,0.0630X0.0630*%
%ADD28R,0.0600X0.0300*%
%ADD29R,0.0866X0.0236*%
%ADD30R,0.0906X0.0630*%
%ADD31R,0.0900X0.2000*%
%ADD32C,0.0436*%
%ADD33R,0.0236X0.0866*%
%ADD34R,0.0512X0.0630*%
%ADD35R,0.0787X0.0630*%
%ADD36R,0.0512X0.0591*%
%ADD37C,0.0100*%
%ADD38C,0.0320*%
%ADD39C,0.0240*%
%ADD40C,0.0120*%
%ADD41C,0.0160*%
%ADD42C,0.0860*%
%ADD43C,0.0500*%
D10*
X027521Y016848D03*
X027521Y017163D03*
X027521Y017478D03*
X027521Y017793D03*
X027521Y018108D03*
X027521Y018423D03*
X027521Y018738D03*
X027521Y019053D03*
X030901Y019053D03*
X030901Y018738D03*
X030901Y018423D03*
X030901Y018108D03*
X030901Y017793D03*
X030901Y017478D03*
X030901Y017163D03*
X030901Y016848D03*
D11*
X030313Y016261D03*
X029998Y016261D03*
X029683Y016261D03*
X029368Y016261D03*
X029053Y016261D03*
X028738Y016261D03*
X028423Y016261D03*
X028108Y016261D03*
X028108Y019641D03*
X028423Y019641D03*
X028738Y019641D03*
X029053Y019641D03*
X029368Y019641D03*
X029683Y019641D03*
X029998Y019641D03*
X030313Y019641D03*
D12*
X025811Y019905D03*
X025011Y019905D03*
X024211Y019905D03*
X024211Y019196D03*
X025011Y019196D03*
X025811Y019196D03*
X022911Y016305D03*
X022911Y015596D03*
X036011Y013405D03*
X036011Y012696D03*
X036011Y011905D03*
X036011Y011196D03*
X014711Y005105D03*
X013911Y005105D03*
X013911Y004396D03*
X014711Y004396D03*
D13*
X011665Y016051D03*
X010956Y016051D03*
X010956Y017151D03*
X011665Y017151D03*
X011665Y018351D03*
X010956Y018351D03*
X010956Y019451D03*
X011665Y019451D03*
X022656Y018451D03*
X023365Y018451D03*
X023365Y017651D03*
X022656Y017651D03*
X032256Y019451D03*
X032965Y019451D03*
X032965Y021251D03*
X032256Y021251D03*
X035056Y009451D03*
X035765Y009451D03*
X035765Y008651D03*
X035056Y008651D03*
D14*
X037811Y007451D02*
X038411Y007451D01*
X038411Y006451D02*
X037811Y006451D01*
X030711Y021551D02*
X030711Y022151D01*
X029711Y022151D02*
X029711Y021551D01*
X028711Y021551D02*
X028711Y022151D01*
X027111Y022151D02*
X027111Y021551D01*
X026111Y021551D02*
X026111Y022151D01*
X025111Y022151D02*
X025111Y021551D01*
X024111Y021551D02*
X024111Y022151D01*
X022511Y022151D02*
X022511Y021551D01*
X021511Y021551D02*
X021511Y022151D01*
X020511Y022151D02*
X020511Y021551D01*
X019511Y021551D02*
X019511Y022151D01*
X017911Y022151D02*
X017911Y021551D01*
X016911Y021551D02*
X016911Y022151D01*
X015911Y022151D02*
X015911Y021551D01*
X014911Y021551D02*
X014911Y022151D01*
X013311Y022151D02*
X013311Y021551D01*
X012311Y021551D02*
X012311Y022151D01*
X011311Y022151D02*
X011311Y021551D01*
X010311Y021551D02*
X010311Y022151D01*
X008711Y022151D02*
X008711Y021551D01*
X007711Y021551D02*
X007711Y022151D01*
X006711Y022151D02*
X006711Y021551D01*
X005111Y021551D02*
X005111Y022151D01*
X004111Y022151D02*
X004111Y021551D01*
X003111Y021551D02*
X003111Y022151D01*
X002411Y018751D02*
X001811Y018751D01*
X001811Y017751D02*
X002411Y017751D01*
X002411Y016751D02*
X001811Y016751D01*
D15*
X032315Y017951D03*
X032906Y017951D03*
X035015Y005251D03*
X035606Y005251D03*
D16*
X025739Y017598D03*
X025739Y018503D03*
X024282Y018503D03*
X024282Y017598D03*
D17*
X032211Y022351D03*
X033211Y022351D03*
X034211Y022351D03*
X035211Y022351D03*
X036211Y022351D03*
X037211Y022351D03*
D18*
X038711Y011351D03*
D19*
X037711Y011351D03*
X037711Y012351D03*
X038711Y012351D03*
X038711Y013351D03*
X037711Y013351D03*
D20*
X014161Y015741D03*
X013661Y015741D03*
X013161Y015741D03*
X012661Y015741D03*
X012661Y018161D03*
X013161Y018161D03*
X013661Y018161D03*
X014161Y018161D03*
D21*
X038426Y018362D03*
X038426Y017929D03*
X038426Y017496D03*
X038426Y017063D03*
X038426Y018796D03*
X038426Y019229D03*
X038426Y019662D03*
X038426Y020095D03*
D22*
X038386Y021079D03*
X038386Y016591D03*
X034911Y015725D03*
X034911Y014977D03*
X025511Y015577D03*
X024611Y015577D03*
X023711Y015577D03*
X023711Y016325D03*
X024611Y016325D03*
X025511Y016325D03*
X014011Y019177D03*
X014011Y019925D03*
X012811Y019925D03*
X012811Y019177D03*
X013011Y005225D03*
X012111Y005225D03*
X011211Y005225D03*
X010311Y005225D03*
X010311Y004477D03*
X011211Y004477D03*
X012111Y004477D03*
X013011Y004477D03*
D23*
X035118Y021158D03*
D24*
X034213Y021000D03*
D25*
X035433Y016473D03*
D26*
X034764Y016670D03*
D27*
X028829Y015126D03*
X034222Y009733D03*
X028829Y004339D03*
X023435Y009733D03*
D28*
X024996Y012267D03*
X024996Y012767D03*
X024996Y013267D03*
X024996Y013767D03*
X026496Y013767D03*
X026496Y013267D03*
X026496Y012767D03*
X026496Y012267D03*
D29*
X036587Y010201D03*
X036587Y009701D03*
X036587Y009201D03*
X036587Y008701D03*
X038634Y008701D03*
X038634Y009201D03*
X038634Y009701D03*
X038634Y010201D03*
D30*
X038751Y015251D03*
X036270Y015251D03*
D31*
X008751Y004861D03*
X007011Y004861D03*
X005271Y004861D03*
D32*
X003811Y004869D02*
X003811Y004433D01*
X002811Y004433D02*
X002811Y004869D01*
X015811Y004869D02*
X015811Y004433D01*
X016811Y004433D02*
X016811Y004869D01*
X017811Y004869D02*
X017811Y004433D01*
X018811Y004433D02*
X018811Y004869D01*
X019811Y004869D02*
X019811Y004433D01*
X020811Y004433D02*
X020811Y004869D01*
X021811Y004869D02*
X021811Y004433D01*
D33*
X008261Y016727D03*
X007761Y016727D03*
X007261Y016727D03*
X006761Y016727D03*
X006761Y018774D03*
X007261Y018774D03*
X007761Y018774D03*
X008261Y018774D03*
D34*
X005413Y018480D03*
X004409Y018480D03*
X004409Y015880D03*
X005413Y015880D03*
D35*
X004911Y017021D03*
X004911Y019621D03*
D36*
X009437Y019451D03*
X010185Y019451D03*
X010185Y018351D03*
X009437Y018351D03*
X009437Y017151D03*
X010185Y017151D03*
X010185Y016051D03*
X009437Y016051D03*
X032237Y016651D03*
X032985Y016651D03*
X032985Y020351D03*
X032237Y020351D03*
X034937Y007851D03*
X035685Y007851D03*
X035685Y006951D03*
X034937Y006951D03*
X034937Y006051D03*
X035685Y006051D03*
D37*
X003167Y004117D02*
X003008Y004051D01*
X004671Y004051D01*
X004671Y004811D01*
X005221Y004811D01*
X005221Y004911D01*
X005221Y006011D01*
X004801Y006011D01*
X004763Y006000D01*
X004728Y005981D01*
X004701Y005953D01*
X004681Y005919D01*
X003441Y005919D01*
X003441Y005821D02*
X004671Y005821D01*
X004671Y005880D02*
X004671Y004911D01*
X005221Y004911D01*
X005321Y004911D01*
X005871Y004911D01*
X005871Y005880D01*
X005860Y005919D01*
X006361Y005919D01*
X006361Y005943D02*
X006361Y004051D01*
X005871Y004051D01*
X005871Y004811D01*
X005321Y004811D01*
X005321Y004911D01*
X005321Y006011D01*
X005740Y006011D01*
X005778Y006000D01*
X005813Y005981D01*
X005841Y005953D01*
X005860Y005919D01*
X005871Y005821D02*
X006361Y005821D01*
X006361Y005722D02*
X005871Y005722D01*
X005871Y005624D02*
X006361Y005624D01*
X006361Y005525D02*
X005871Y005525D01*
X005871Y005427D02*
X006361Y005427D01*
X006361Y005328D02*
X005871Y005328D01*
X005871Y005230D02*
X006361Y005230D01*
X006361Y005131D02*
X005871Y005131D01*
X005871Y005033D02*
X006361Y005033D01*
X006361Y004934D02*
X005871Y004934D01*
X005871Y004737D02*
X006361Y004737D01*
X006361Y004639D02*
X005871Y004639D01*
X005871Y004540D02*
X006361Y004540D01*
X006361Y004442D02*
X005871Y004442D01*
X005871Y004343D02*
X006361Y004343D01*
X006361Y004245D02*
X005871Y004245D01*
X005871Y004146D02*
X006361Y004146D01*
X006361Y004836D02*
X005321Y004836D01*
X005321Y004934D02*
X005221Y004934D01*
X005221Y004836D02*
X004179Y004836D01*
X004179Y004905D02*
X004165Y004976D01*
X004137Y005043D01*
X004097Y005103D01*
X004045Y005155D01*
X003985Y005195D01*
X003918Y005223D01*
X003847Y005237D01*
X003820Y005237D01*
X003820Y004660D01*
X004179Y004660D01*
X004179Y004905D01*
X004173Y004934D02*
X004671Y004934D01*
X004671Y005033D02*
X004141Y005033D01*
X004069Y005131D02*
X004671Y005131D01*
X004671Y005230D02*
X003883Y005230D01*
X003820Y005230D02*
X003802Y005230D01*
X003802Y005237D02*
X003774Y005237D01*
X003703Y005223D01*
X003636Y005195D01*
X003576Y005155D01*
X003525Y005103D01*
X003484Y005043D01*
X003457Y004976D01*
X003442Y004905D01*
X003442Y004660D01*
X003802Y004660D01*
X003802Y005237D01*
X003738Y005230D02*
X003441Y005230D01*
X003441Y005328D02*
X004671Y005328D01*
X004671Y005427D02*
X003441Y005427D01*
X003441Y005525D02*
X004671Y005525D01*
X004671Y005624D02*
X003441Y005624D01*
X003441Y005722D02*
X004671Y005722D01*
X004671Y005880D02*
X004681Y005919D01*
X005221Y005919D02*
X005321Y005919D01*
X005321Y005821D02*
X005221Y005821D01*
X005221Y005722D02*
X005321Y005722D01*
X005321Y005624D02*
X005221Y005624D01*
X005221Y005525D02*
X005321Y005525D01*
X005321Y005427D02*
X005221Y005427D01*
X005221Y005328D02*
X005321Y005328D01*
X005321Y005230D02*
X005221Y005230D01*
X005221Y005131D02*
X005321Y005131D01*
X005321Y005033D02*
X005221Y005033D01*
X004671Y004737D02*
X004179Y004737D01*
X004179Y004642D02*
X003820Y004642D01*
X003820Y004660D01*
X003802Y004660D01*
X003802Y004642D01*
X003820Y004642D01*
X003820Y004064D01*
X003847Y004064D01*
X003918Y004079D01*
X003985Y004106D01*
X004045Y004147D01*
X004097Y004198D01*
X004137Y004258D01*
X004165Y004325D01*
X004179Y004396D01*
X004179Y004642D01*
X004179Y004639D02*
X004671Y004639D01*
X004671Y004540D02*
X004179Y004540D01*
X004179Y004442D02*
X004671Y004442D01*
X004671Y004343D02*
X004168Y004343D01*
X004128Y004245D02*
X004671Y004245D01*
X004671Y004146D02*
X004045Y004146D01*
X003820Y004146D02*
X003802Y004146D01*
X003802Y004064D02*
X003802Y004642D01*
X003442Y004642D01*
X003442Y004396D01*
X003457Y004325D01*
X003484Y004258D01*
X003525Y004198D01*
X003576Y004147D01*
X003636Y004106D01*
X003703Y004079D01*
X003774Y004064D01*
X003802Y004064D01*
X003802Y004245D02*
X003820Y004245D01*
X003820Y004343D02*
X003802Y004343D01*
X003802Y004442D02*
X003820Y004442D01*
X003820Y004540D02*
X003802Y004540D01*
X003802Y004639D02*
X003820Y004639D01*
X003820Y004737D02*
X003802Y004737D01*
X003802Y004836D02*
X003820Y004836D01*
X003820Y004934D02*
X003802Y004934D01*
X003802Y005033D02*
X003820Y005033D01*
X003820Y005131D02*
X003802Y005131D01*
X003552Y005131D02*
X003441Y005131D01*
X003441Y005033D02*
X003480Y005033D01*
X003448Y004934D02*
X003441Y004934D01*
X003441Y004836D02*
X003442Y004836D01*
X003441Y004737D02*
X003442Y004737D01*
X003441Y004639D02*
X003442Y004639D01*
X003441Y004540D02*
X003442Y004540D01*
X003441Y004525D02*
X003441Y006051D01*
X003448Y006182D01*
X003506Y006437D01*
X003620Y006673D01*
X003783Y006878D01*
X003988Y007041D01*
X004224Y007155D01*
X004480Y007213D01*
X004611Y007221D01*
X004961Y007221D01*
X005120Y007212D01*
X005430Y007141D01*
X005716Y007003D01*
X005965Y006805D01*
X006163Y006556D01*
X006301Y006270D01*
X006372Y005960D01*
X006372Y005955D01*
X006361Y005943D01*
X006358Y006018D02*
X003441Y006018D01*
X003444Y006116D02*
X006336Y006116D01*
X006313Y006215D02*
X003455Y006215D01*
X003478Y006313D02*
X006280Y006313D01*
X006233Y006412D02*
X003500Y006412D01*
X003541Y006510D02*
X006185Y006510D01*
X006121Y006609D02*
X003589Y006609D01*
X003647Y006707D02*
X006043Y006707D01*
X005964Y006806D02*
X003726Y006806D01*
X003816Y006904D02*
X005840Y006904D01*
X005717Y007003D02*
X003940Y007003D01*
X004112Y007101D02*
X005512Y007101D01*
X005172Y007200D02*
X004420Y007200D01*
X003019Y007889D02*
X000811Y007889D01*
X000811Y007791D02*
X002895Y007791D01*
X002881Y007780D02*
X002540Y007352D01*
X002540Y007352D01*
X002302Y006858D01*
X002181Y006324D01*
X002181Y005639D01*
X002103Y005704D01*
X001782Y005821D01*
X001440Y005821D01*
X001118Y005704D01*
X000856Y005484D01*
X000856Y005484D01*
X000856Y005484D01*
X000811Y005405D01*
X000811Y008951D01*
X009711Y008951D01*
X009711Y004051D01*
X009351Y004051D01*
X009351Y004811D01*
X008801Y004811D01*
X008801Y004911D01*
X009351Y004911D01*
X009351Y005880D01*
X009340Y005919D01*
X009711Y005919D01*
X009711Y005821D02*
X009351Y005821D01*
X009340Y005919D02*
X009321Y005953D01*
X009293Y005981D01*
X009258Y006000D01*
X009220Y006011D01*
X008801Y006011D01*
X008801Y004911D01*
X008701Y004911D01*
X008701Y006011D01*
X008281Y006011D01*
X008243Y006000D01*
X008208Y005981D01*
X008181Y005953D01*
X008161Y005919D01*
X007661Y005919D01*
X007661Y005943D02*
X007641Y005963D01*
X007641Y006103D01*
X007506Y006691D01*
X007506Y006691D01*
X007244Y007235D01*
X007244Y007235D01*
X006868Y007708D01*
X006868Y007708D01*
X006868Y007708D01*
X006395Y008084D01*
X005851Y008346D01*
X005263Y008481D01*
X004337Y008481D01*
X003803Y008359D01*
X003310Y008121D01*
X003310Y008121D01*
X002881Y007780D01*
X002881Y007780D01*
X002812Y007692D02*
X000811Y007692D01*
X000811Y007594D02*
X002733Y007594D01*
X002654Y007495D02*
X000811Y007495D01*
X000811Y007397D02*
X002576Y007397D01*
X002514Y007298D02*
X000811Y007298D01*
X000811Y007200D02*
X002467Y007200D01*
X002419Y007101D02*
X000811Y007101D01*
X000811Y007003D02*
X002372Y007003D01*
X002325Y006904D02*
X000811Y006904D01*
X000811Y006806D02*
X002290Y006806D01*
X002302Y006858D02*
X002302Y006858D01*
X002268Y006707D02*
X000811Y006707D01*
X000811Y006609D02*
X002245Y006609D01*
X002223Y006510D02*
X000811Y006510D01*
X000811Y006412D02*
X002200Y006412D01*
X002181Y006313D02*
X000811Y006313D01*
X000811Y006215D02*
X002181Y006215D01*
X002181Y006116D02*
X000811Y006116D01*
X000811Y006018D02*
X002181Y006018D01*
X002181Y005919D02*
X000811Y005919D01*
X000811Y005821D02*
X002181Y005821D01*
X002181Y005722D02*
X002052Y005722D01*
X002103Y005704D02*
X002103Y005704D01*
X001169Y005722D02*
X000811Y005722D01*
X000811Y005624D02*
X001023Y005624D01*
X000905Y005525D02*
X000811Y005525D01*
X000811Y005427D02*
X000823Y005427D01*
X003167Y004117D02*
X003345Y004294D01*
X003441Y004525D01*
X003442Y004442D02*
X003406Y004442D01*
X003365Y004343D02*
X003453Y004343D01*
X003493Y004245D02*
X003296Y004245D01*
X003197Y004146D02*
X003577Y004146D01*
X007570Y006412D02*
X009711Y006412D01*
X009711Y006510D02*
X007548Y006510D01*
X007525Y006609D02*
X009711Y006609D01*
X009711Y006707D02*
X007499Y006707D01*
X007451Y006806D02*
X009711Y006806D01*
X009711Y006904D02*
X007404Y006904D01*
X007356Y007003D02*
X009711Y007003D01*
X009711Y007101D02*
X007309Y007101D01*
X007261Y007200D02*
X009711Y007200D01*
X009711Y007298D02*
X007194Y007298D01*
X007116Y007397D02*
X009711Y007397D01*
X009711Y007495D02*
X007037Y007495D01*
X006959Y007594D02*
X009711Y007594D01*
X009711Y007692D02*
X006880Y007692D01*
X006764Y007791D02*
X009711Y007791D01*
X009711Y007889D02*
X006640Y007889D01*
X006517Y007988D02*
X009711Y007988D01*
X009711Y008086D02*
X006391Y008086D01*
X006395Y008084D02*
X006395Y008084D01*
X006187Y008185D02*
X009711Y008185D01*
X009711Y008283D02*
X005982Y008283D01*
X005851Y008346D02*
X005851Y008346D01*
X005696Y008382D02*
X009711Y008382D01*
X009711Y008480D02*
X005265Y008480D01*
X004335Y008480D02*
X000811Y008480D01*
X000811Y008382D02*
X003903Y008382D01*
X003646Y008283D02*
X000811Y008283D01*
X000811Y008185D02*
X003441Y008185D01*
X003266Y008086D02*
X000811Y008086D01*
X000811Y007988D02*
X003142Y007988D01*
X000811Y008579D02*
X009711Y008579D01*
X009711Y008677D02*
X000811Y008677D01*
X000811Y008776D02*
X009711Y008776D01*
X009711Y008874D02*
X000811Y008874D01*
X007593Y006313D02*
X009711Y006313D01*
X009711Y006215D02*
X007615Y006215D01*
X007637Y006116D02*
X009711Y006116D01*
X009711Y006018D02*
X007641Y006018D01*
X007661Y005943D02*
X007661Y004051D01*
X008151Y004051D01*
X008151Y004811D01*
X008701Y004811D01*
X008701Y004911D01*
X008151Y004911D01*
X008151Y005880D01*
X008161Y005919D01*
X008151Y005821D02*
X007661Y005821D01*
X007661Y005722D02*
X008151Y005722D01*
X008151Y005624D02*
X007661Y005624D01*
X007661Y005525D02*
X008151Y005525D01*
X008151Y005427D02*
X007661Y005427D01*
X007661Y005328D02*
X008151Y005328D01*
X008151Y005230D02*
X007661Y005230D01*
X007661Y005131D02*
X008151Y005131D01*
X008151Y005033D02*
X007661Y005033D01*
X007661Y004934D02*
X008151Y004934D01*
X008151Y004737D02*
X007661Y004737D01*
X007661Y004639D02*
X008151Y004639D01*
X008151Y004540D02*
X007661Y004540D01*
X007661Y004442D02*
X008151Y004442D01*
X008151Y004343D02*
X007661Y004343D01*
X007661Y004245D02*
X008151Y004245D01*
X008151Y004146D02*
X007661Y004146D01*
X007661Y004836D02*
X008701Y004836D01*
X008751Y004861D02*
X008761Y004851D01*
X010811Y004851D01*
X011185Y005225D01*
X011211Y005225D01*
X012111Y005225D02*
X012859Y004477D01*
X013011Y004477D01*
X013311Y004051D02*
X012511Y004051D01*
X012111Y004451D01*
X012111Y004477D01*
X011211Y004477D01*
X010311Y004477D01*
X009711Y004442D02*
X009351Y004442D01*
X009351Y004540D02*
X009711Y004540D01*
X009711Y004639D02*
X009351Y004639D01*
X009351Y004737D02*
X009711Y004737D01*
X009711Y004836D02*
X008801Y004836D01*
X008801Y004934D02*
X008701Y004934D01*
X008701Y005033D02*
X008801Y005033D01*
X008801Y005131D02*
X008701Y005131D01*
X008701Y005230D02*
X008801Y005230D01*
X008801Y005328D02*
X008701Y005328D01*
X008701Y005427D02*
X008801Y005427D01*
X008801Y005525D02*
X008701Y005525D01*
X008701Y005624D02*
X008801Y005624D01*
X008801Y005722D02*
X008701Y005722D01*
X008701Y005821D02*
X008801Y005821D01*
X008801Y005919D02*
X008701Y005919D01*
X009351Y005722D02*
X009711Y005722D01*
X009711Y005624D02*
X009351Y005624D01*
X009351Y005525D02*
X009711Y005525D01*
X009711Y005427D02*
X009351Y005427D01*
X009351Y005328D02*
X009711Y005328D01*
X009711Y005230D02*
X009351Y005230D01*
X009351Y005131D02*
X009711Y005131D01*
X009711Y005033D02*
X009351Y005033D01*
X009351Y004934D02*
X009711Y004934D01*
X010311Y005225D02*
X010311Y006151D01*
X010311Y013251D01*
X009911Y013651D01*
X001711Y013651D01*
X001111Y014251D01*
X001111Y018251D01*
X001611Y018751D01*
X002111Y018751D01*
X004011Y018082D02*
X004011Y017851D01*
X004011Y018082D02*
X004409Y018480D01*
X004409Y019120D01*
X004911Y019621D01*
X007540Y019621D01*
X007811Y019351D01*
X007811Y018824D01*
X007761Y018774D01*
X008211Y018824D02*
X008261Y018774D01*
X008211Y018824D02*
X008211Y019751D01*
X008611Y019651D02*
X008911Y019951D01*
X010811Y019951D01*
X010956Y020096D01*
X011011Y020151D01*
X010956Y020151D01*
X010956Y020205D01*
X010311Y020851D01*
X010311Y021851D01*
X011311Y021851D02*
X011311Y021051D01*
X011611Y020751D01*
X012511Y020751D01*
X012811Y020451D01*
X012811Y019925D01*
X013385Y019925D01*
X013511Y020051D01*
X013511Y020251D01*
X013711Y020451D01*
X015411Y020451D01*
X015911Y020951D01*
X015911Y021851D01*
X016911Y021851D02*
X016911Y022551D01*
X016611Y022851D01*
X012611Y022851D01*
X012311Y022551D01*
X012311Y021851D01*
X011711Y020151D02*
X011011Y020151D01*
X010956Y020096D02*
X010956Y019451D01*
X011665Y019451D02*
X011665Y018351D01*
X011665Y018696D01*
X011411Y018951D01*
X012211Y018551D02*
X012211Y018251D01*
X012211Y018051D01*
X012011Y017851D01*
X010411Y017851D01*
X010211Y018051D01*
X010211Y018325D01*
X010185Y018351D01*
X010211Y018225D01*
X010911Y018396D02*
X010911Y018651D01*
X010711Y018851D01*
X010411Y018851D01*
X009211Y018851D01*
X009011Y018651D01*
X009011Y018051D01*
X008711Y017751D01*
X007511Y017751D01*
X007261Y017501D01*
X007261Y016727D01*
X007711Y016677D02*
X007761Y016727D01*
X007711Y016677D02*
X007711Y016151D01*
X007611Y016051D01*
X006311Y016051D01*
X005340Y017021D01*
X004911Y017021D01*
X004311Y017451D02*
X004311Y015978D01*
X004409Y015880D01*
X004379Y015851D01*
X002411Y015851D01*
X002111Y016151D01*
X002111Y016751D01*
X004311Y017451D02*
X004911Y018051D01*
X004911Y018851D01*
X005111Y019051D01*
X005811Y019051D01*
X006087Y018774D01*
X006761Y018774D01*
X006761Y019301D01*
X006911Y019451D01*
X007311Y019451D01*
X007511Y019251D01*
X007511Y018251D01*
X007611Y018151D01*
X008511Y018151D01*
X008611Y018251D01*
X008611Y019651D01*
X009011Y019451D02*
X008811Y019251D01*
X008811Y018151D01*
X008611Y017951D01*
X007111Y017951D01*
X007011Y018051D01*
X007261Y018301D01*
X007261Y018774D01*
X007011Y018051D02*
X006311Y018051D01*
X006311Y017651D01*
X006311Y018051D02*
X005881Y018480D01*
X005413Y018480D01*
X006761Y016727D02*
X006684Y016651D01*
X006211Y016651D01*
X005413Y015880D02*
X005413Y015849D01*
X005611Y015651D01*
X006911Y015651D01*
X007711Y015651D01*
X008261Y016201D01*
X008411Y016051D01*
X009437Y016051D01*
X009437Y017151D01*
X010185Y017151D02*
X010211Y017125D01*
X010211Y016651D01*
X010185Y017151D02*
X010185Y017377D01*
X010185Y017151D02*
X010956Y017151D01*
X011665Y017151D02*
X011765Y017151D01*
X012111Y016805D01*
X012111Y014251D01*
X011111Y013251D01*
X011111Y006951D01*
X011411Y006651D01*
X018011Y006651D01*
X018811Y005851D01*
X018811Y004651D01*
X017811Y004651D02*
X017511Y004951D01*
X017511Y005151D01*
X017211Y005451D01*
X016611Y005451D01*
X016311Y005751D01*
X015411Y005751D01*
X014765Y005105D01*
X014711Y005105D01*
X013911Y005105D01*
X013711Y004751D02*
X015011Y004751D01*
X015111Y004851D01*
X015111Y005151D01*
X015511Y005551D01*
X016211Y005551D01*
X016511Y005251D01*
X017111Y005251D01*
X017311Y005051D01*
X017311Y004351D01*
X017611Y004051D01*
X021611Y004051D01*
X021811Y004251D01*
X021811Y004651D01*
X020811Y004651D02*
X020811Y005151D01*
X021111Y005451D01*
X022911Y005451D01*
X023311Y005851D01*
X023311Y006351D01*
X023711Y006313D02*
X033911Y006313D01*
X033911Y006215D02*
X023711Y006215D01*
X023711Y006116D02*
X033911Y006116D01*
X033911Y006018D02*
X023711Y006018D01*
X023711Y005919D02*
X033911Y005919D01*
X033911Y005821D02*
X023711Y005821D01*
X023711Y005722D02*
X033911Y005722D01*
X033911Y005624D02*
X023711Y005624D01*
X023711Y005525D02*
X033911Y005525D01*
X033911Y005427D02*
X023711Y005427D01*
X023711Y005328D02*
X033911Y005328D01*
X033911Y005230D02*
X023711Y005230D01*
X023711Y005131D02*
X033911Y005131D01*
X033911Y005033D02*
X023711Y005033D01*
X023711Y004934D02*
X033911Y004934D01*
X033911Y004836D02*
X023711Y004836D01*
X023711Y004737D02*
X028385Y004737D01*
X028364Y004716D02*
X028364Y004651D01*
X023711Y004651D01*
X023711Y009268D01*
X023812Y009268D01*
X023900Y009355D01*
X023900Y010110D01*
X023812Y010197D01*
X023711Y010197D01*
X023711Y014668D01*
X023911Y014468D01*
X024028Y014351D01*
X025528Y014351D01*
X025811Y014068D01*
X025811Y013368D01*
X026011Y013168D01*
X026046Y013132D01*
X026046Y013055D01*
X026084Y013017D01*
X026046Y012979D01*
X026046Y012951D01*
X026028Y012951D01*
X025911Y012833D01*
X025811Y012733D01*
X025711Y012833D01*
X025593Y012951D01*
X025446Y012951D01*
X025446Y012979D01*
X025409Y013017D01*
X025446Y013055D01*
X025446Y013479D01*
X025409Y013517D01*
X025416Y013525D01*
X025436Y013559D01*
X025446Y013597D01*
X025446Y013742D01*
X025021Y013742D01*
X025021Y013792D01*
X024971Y013792D01*
X024971Y013742D01*
X024546Y013742D01*
X024546Y013597D01*
X024557Y013559D01*
X024576Y013525D01*
X024584Y013517D01*
X024546Y013479D01*
X024546Y013055D01*
X024584Y013017D01*
X024546Y012979D01*
X024546Y012555D01*
X024584Y012517D01*
X024546Y012479D01*
X024546Y012055D01*
X024634Y011967D01*
X025359Y011967D01*
X025446Y012055D01*
X025446Y012479D01*
X025409Y012517D01*
X025435Y012543D01*
X025511Y012468D01*
X025511Y011768D01*
X025928Y011351D01*
X027293Y011351D01*
X027411Y011468D01*
X027711Y011768D01*
X027711Y014233D01*
X027593Y014351D01*
X027211Y014733D01*
X027093Y014851D01*
X026593Y014851D01*
X028364Y014851D01*
X028364Y014749D01*
X028452Y014661D01*
X029206Y014661D01*
X029294Y014749D01*
X029294Y014851D01*
X033828Y014851D01*
X033911Y014768D01*
X033911Y010197D01*
X033845Y010197D01*
X033757Y010110D01*
X033757Y009355D01*
X033845Y009268D01*
X023813Y009268D01*
X023900Y009367D02*
X033757Y009367D01*
X033757Y009465D02*
X023900Y009465D01*
X023900Y009564D02*
X033757Y009564D01*
X033757Y009662D02*
X023900Y009662D01*
X023900Y009761D02*
X033757Y009761D01*
X033757Y009859D02*
X023900Y009859D01*
X023900Y009958D02*
X033757Y009958D01*
X033757Y010056D02*
X023900Y010056D01*
X023855Y010155D02*
X033802Y010155D01*
X033911Y010253D02*
X023711Y010253D01*
X023711Y010352D02*
X033911Y010352D01*
X033911Y010450D02*
X023711Y010450D01*
X023711Y010549D02*
X033911Y010549D01*
X033911Y010647D02*
X023711Y010647D01*
X023711Y010746D02*
X033911Y010746D01*
X033911Y010844D02*
X023711Y010844D01*
X023711Y010943D02*
X033911Y010943D01*
X033911Y011041D02*
X023711Y011041D01*
X023711Y011140D02*
X033911Y011140D01*
X033911Y011238D02*
X023711Y011238D01*
X023711Y011337D02*
X033911Y011337D01*
X033911Y011435D02*
X027378Y011435D01*
X027476Y011534D02*
X033911Y011534D01*
X033911Y011632D02*
X027575Y011632D01*
X027673Y011731D02*
X033911Y011731D01*
X033911Y011829D02*
X027711Y011829D01*
X027711Y011928D02*
X033911Y011928D01*
X033911Y012026D02*
X027711Y012026D01*
X027711Y012125D02*
X033911Y012125D01*
X033911Y012223D02*
X027711Y012223D01*
X027711Y012322D02*
X033911Y012322D01*
X033911Y012420D02*
X027711Y012420D01*
X027711Y012519D02*
X033911Y012519D01*
X033911Y012617D02*
X027711Y012617D01*
X027711Y012716D02*
X033911Y012716D01*
X033911Y012814D02*
X027711Y012814D01*
X027711Y012913D02*
X033911Y012913D01*
X033911Y013011D02*
X027711Y013011D01*
X027711Y013110D02*
X033911Y013110D01*
X033911Y013208D02*
X027711Y013208D01*
X027711Y013307D02*
X033911Y013307D01*
X033911Y013405D02*
X027711Y013405D01*
X027711Y013504D02*
X033911Y013504D01*
X033911Y013602D02*
X027711Y013602D01*
X027711Y013701D02*
X033911Y013701D01*
X033911Y013799D02*
X027711Y013799D01*
X027711Y013898D02*
X033911Y013898D01*
X033911Y013996D02*
X027711Y013996D01*
X027711Y014095D02*
X033911Y014095D01*
X033911Y014193D02*
X027711Y014193D01*
X027652Y014292D02*
X033911Y014292D01*
X033911Y014390D02*
X027554Y014390D01*
X027593Y014351D02*
X027593Y014351D01*
X027455Y014489D02*
X033911Y014489D01*
X033911Y014587D02*
X027357Y014587D01*
X027258Y014686D02*
X028427Y014686D01*
X028364Y014784D02*
X027160Y014784D01*
X027211Y014733D02*
X027211Y014733D01*
X027011Y014651D02*
X027511Y014151D01*
X027511Y011851D01*
X027211Y011551D01*
X026011Y011551D01*
X025711Y011851D01*
X025711Y012551D01*
X025511Y012751D01*
X025013Y012751D01*
X024996Y012767D01*
X024546Y012814D02*
X023711Y012814D01*
X023711Y012716D02*
X024546Y012716D01*
X024546Y012617D02*
X023711Y012617D01*
X023711Y012519D02*
X024583Y012519D01*
X024546Y012420D02*
X023711Y012420D01*
X023711Y012322D02*
X024546Y012322D01*
X024546Y012223D02*
X023711Y012223D01*
X023711Y012125D02*
X024546Y012125D01*
X024575Y012026D02*
X023711Y012026D01*
X023711Y011928D02*
X025511Y011928D01*
X025511Y012026D02*
X025418Y012026D01*
X025446Y012125D02*
X025511Y012125D01*
X025511Y012223D02*
X025446Y012223D01*
X025446Y012322D02*
X025511Y012322D01*
X025511Y012420D02*
X025446Y012420D01*
X025460Y012519D02*
X025410Y012519D01*
X025730Y012814D02*
X025891Y012814D01*
X025990Y012913D02*
X025631Y012913D01*
X025415Y013011D02*
X026078Y013011D01*
X026046Y013110D02*
X025446Y013110D01*
X025446Y013208D02*
X025970Y013208D01*
X025872Y013307D02*
X025446Y013307D01*
X025446Y013405D02*
X025811Y013405D01*
X025811Y013504D02*
X025422Y013504D01*
X025446Y013602D02*
X025811Y013602D01*
X025811Y013701D02*
X025446Y013701D01*
X025446Y013792D02*
X025021Y013792D01*
X025021Y014067D01*
X025316Y014067D01*
X025354Y014057D01*
X025389Y014037D01*
X025416Y014009D01*
X025436Y013975D01*
X025446Y013937D01*
X025446Y013792D01*
X025446Y013799D02*
X025811Y013799D01*
X025811Y013898D02*
X025446Y013898D01*
X025424Y013996D02*
X025811Y013996D01*
X025784Y014095D02*
X023711Y014095D01*
X023711Y014193D02*
X025685Y014193D01*
X025587Y014292D02*
X023711Y014292D01*
X023711Y014390D02*
X023988Y014390D01*
X023890Y014489D02*
X023711Y014489D01*
X023711Y014587D02*
X023791Y014587D01*
X024111Y014551D02*
X023711Y014951D01*
X023711Y015577D01*
X023863Y016325D02*
X024611Y015577D01*
X024685Y015577D01*
X025411Y014851D01*
X025711Y014851D01*
X026311Y014251D01*
X026811Y014251D01*
X027111Y013951D01*
X027111Y012551D01*
X026811Y012251D01*
X026513Y012251D01*
X026496Y012267D01*
X026111Y012751D02*
X025911Y012551D01*
X025911Y011951D01*
X026111Y011751D01*
X027111Y011751D01*
X027311Y011951D01*
X027311Y014051D01*
X026911Y014451D01*
X026411Y014451D01*
X025511Y015351D01*
X025511Y015577D01*
X025111Y015951D02*
X025911Y015951D01*
X025961Y015901D01*
X026111Y016051D01*
X026111Y016751D01*
X025911Y016951D01*
X025111Y016951D01*
X024911Y017151D01*
X022511Y017151D01*
X022311Y017351D01*
X022311Y018751D01*
X022511Y018951D01*
X022811Y018951D01*
X023011Y019151D01*
X023211Y019151D01*
X023411Y019351D01*
X023411Y019951D01*
X023711Y020251D01*
X026411Y020251D01*
X026611Y020051D01*
X026611Y019351D01*
X027211Y018751D01*
X027508Y018751D01*
X027521Y018738D01*
X027521Y019053D02*
X027213Y019053D01*
X027211Y019051D01*
X026811Y019451D01*
X026811Y020151D01*
X026511Y020451D01*
X023611Y020451D01*
X023211Y020051D01*
X023211Y019451D01*
X023111Y019351D01*
X022911Y019351D01*
X022711Y019151D01*
X022411Y019151D01*
X022111Y018851D01*
X022111Y017251D01*
X022411Y016951D01*
X024811Y016951D01*
X025437Y016325D01*
X025511Y016325D01*
X025111Y015951D02*
X024737Y016325D01*
X024611Y016325D01*
X023863Y016325D02*
X023711Y016325D01*
X023691Y016305D01*
X022911Y016305D01*
X022911Y016551D01*
X022711Y016751D01*
X022311Y016751D01*
X021911Y017151D01*
X021911Y018951D01*
X022311Y019351D01*
X022611Y019351D01*
X022811Y019551D01*
X022911Y019551D01*
X023011Y019651D01*
X023011Y020151D01*
X024111Y021251D01*
X024111Y021851D01*
X025111Y021851D02*
X025111Y022351D01*
X024611Y022851D01*
X028911Y022851D01*
X029711Y022051D01*
X029711Y021851D01*
X031111Y021051D02*
X027611Y021051D01*
X027011Y020451D01*
X027011Y019551D01*
X027111Y019451D01*
X027711Y019451D01*
X028111Y019051D01*
X028111Y018751D01*
X028311Y018551D01*
X028711Y018551D01*
X028811Y018651D01*
X028811Y019568D01*
X028738Y019641D01*
X028711Y019613D01*
X028423Y019641D02*
X028423Y020038D01*
X028311Y020151D01*
X028011Y020151D01*
X027811Y019951D01*
X027811Y019751D01*
X027711Y019651D01*
X027311Y019651D01*
X027211Y019751D01*
X027211Y020351D01*
X027711Y020851D01*
X031211Y020851D01*
X031611Y021251D01*
X031611Y022651D01*
X031911Y022951D01*
X032511Y022951D01*
X033111Y022351D01*
X033211Y022351D01*
X033511Y022951D02*
X032811Y022951D01*
X032611Y023151D01*
X031811Y023151D01*
X031411Y022751D01*
X031411Y021351D01*
X031111Y021051D01*
X031511Y020651D02*
X032111Y021251D01*
X032256Y021251D01*
X032311Y020851D02*
X033611Y020851D01*
X033661Y020901D01*
X033661Y021451D01*
X032965Y021596D02*
X032211Y022351D01*
X032965Y021596D02*
X032965Y021251D01*
X032311Y020851D02*
X032211Y020751D01*
X032211Y020377D01*
X032237Y020351D01*
X032211Y020325D01*
X032211Y020051D01*
X032411Y019851D01*
X032611Y019851D01*
X032965Y019496D01*
X032965Y019451D01*
X032965Y019296D01*
X033511Y018751D01*
X038381Y018751D01*
X038426Y018796D01*
X038426Y019229D02*
X038989Y019229D01*
X039011Y019251D01*
X038426Y019662D02*
X038415Y019651D01*
X037811Y019651D01*
X037111Y020351D01*
X033311Y020351D01*
X033611Y020051D01*
X033311Y020351D02*
X032985Y020351D01*
X032256Y019451D02*
X032256Y019105D01*
X032311Y019051D01*
X032311Y018951D01*
X032811Y018851D02*
X033299Y018362D01*
X038426Y018362D01*
X038437Y018351D01*
X038911Y018351D01*
X039111Y018151D01*
X039111Y015951D01*
X039411Y015651D01*
X039411Y014851D01*
X039111Y014551D01*
X039111Y013951D01*
X039311Y013751D01*
X039311Y012851D01*
X038811Y012351D01*
X038711Y012351D01*
X038211Y011851D02*
X038711Y011351D01*
X038211Y011851D02*
X038211Y014751D01*
X037211Y015751D01*
X035811Y015751D01*
X035611Y015551D01*
X035611Y015051D01*
X035411Y014851D01*
X035037Y014851D01*
X034911Y014977D01*
X034885Y014951D01*
X034611Y014951D01*
X033611Y015951D01*
X032011Y015951D01*
X031701Y016261D01*
X030313Y016261D01*
X029998Y016261D02*
X029998Y015963D01*
X030111Y015851D01*
X031811Y015851D01*
X031911Y015751D01*
X033511Y015751D01*
X034411Y014851D01*
X034411Y014651D01*
X034711Y014351D01*
X034711Y013251D01*
X034911Y013051D01*
X037011Y013051D01*
X037711Y012351D01*
X037711Y013351D02*
X037011Y014051D01*
X036611Y014051D01*
X036011Y013451D01*
X036011Y013405D01*
X035956Y012751D02*
X036011Y012696D01*
X036011Y011905D01*
X036056Y011905D01*
X036611Y011351D01*
X037711Y011351D01*
X037211Y010651D02*
X037011Y010651D01*
X036465Y011196D01*
X036011Y011196D01*
X036111Y010851D02*
X035611Y010851D01*
X035411Y011051D01*
X035411Y011751D01*
X035565Y011905D01*
X036011Y011905D01*
X035956Y012751D02*
X034811Y012751D01*
X034511Y013051D01*
X034511Y014251D01*
X034211Y014551D01*
X034211Y014751D01*
X033411Y015551D01*
X031811Y015551D01*
X031711Y015651D01*
X030211Y015651D01*
X029911Y015351D01*
X029511Y015351D01*
X029211Y015651D01*
X028511Y015651D01*
X028311Y015451D01*
X028311Y015351D01*
X028111Y015151D01*
X026711Y015151D01*
X026411Y015451D01*
X026411Y016351D01*
X026611Y016551D01*
X027811Y016551D01*
X028111Y016851D01*
X028111Y017251D01*
X027911Y017451D01*
X027548Y017451D01*
X027521Y017478D01*
X027521Y017793D02*
X027168Y017793D01*
X027011Y017951D01*
X027211Y018151D02*
X027478Y018151D01*
X027521Y018108D01*
X027853Y018108D01*
X028111Y017851D01*
X028311Y018051D01*
X028611Y018051D01*
X028811Y017851D01*
X029511Y017851D01*
X029911Y017451D01*
X029911Y017351D01*
X030111Y017151D01*
X030123Y017163D01*
X030901Y017163D01*
X030901Y016848D02*
X031098Y016651D01*
X032237Y016651D01*
X032237Y016677D01*
X032611Y017051D01*
X032611Y017251D01*
X032906Y016729D02*
X032985Y016651D01*
X032906Y016729D02*
X032906Y017951D01*
X033011Y018351D02*
X033411Y017951D01*
X033411Y016451D01*
X034511Y015351D01*
X035311Y015351D01*
X035411Y015451D01*
X035411Y015651D01*
X035711Y015951D01*
X037311Y015951D01*
X038011Y015251D01*
X038751Y015251D01*
X038711Y015210D01*
X038711Y013351D01*
X037711Y013351D02*
X037711Y013405D01*
X036611Y014051D02*
X036311Y014351D01*
X036311Y015210D01*
X036270Y015251D01*
X037111Y016151D02*
X035111Y016151D01*
X034911Y015951D01*
X034911Y015725D01*
X034911Y014977D02*
X035037Y014951D01*
X033894Y014784D02*
X029294Y014784D01*
X029230Y014686D02*
X033911Y014686D01*
X037111Y016151D02*
X037611Y016651D01*
X037611Y017251D01*
X037856Y017496D01*
X038426Y017496D01*
X038426Y017929D02*
X038447Y017951D01*
X038811Y017951D01*
X038911Y017851D01*
X038911Y016751D01*
X038751Y016591D01*
X038386Y016591D01*
X038251Y016591D01*
X037911Y016251D01*
X033011Y018351D02*
X032311Y018351D01*
X031511Y019151D01*
X031511Y019751D01*
X031511Y020651D01*
X031511Y019751D02*
X031111Y019351D01*
X030611Y019351D01*
X030311Y019051D01*
X030011Y019051D01*
X029411Y018451D01*
X029311Y018451D01*
X029111Y018651D01*
X029111Y019583D01*
X029053Y019641D01*
X029368Y019641D02*
X029368Y019993D01*
X029011Y020351D01*
X027811Y020351D01*
X027511Y020051D01*
X027511Y019951D01*
X028108Y019641D02*
X028111Y019638D01*
X028111Y019351D01*
X028411Y019051D01*
X027938Y018423D02*
X027521Y018423D01*
X027211Y018151D02*
X027111Y018251D01*
X026611Y018251D01*
X026311Y018551D01*
X026311Y018951D01*
X026065Y019196D01*
X026056Y019196D01*
X026311Y019451D01*
X026311Y019851D01*
X025856Y019905D02*
X025811Y019905D01*
X025011Y019905D01*
X024211Y019905D01*
X023865Y019905D01*
X023711Y019751D01*
X023711Y019151D01*
X023411Y018851D01*
X023056Y018851D01*
X022656Y018451D01*
X022656Y018405D01*
X023011Y018051D01*
X023811Y018051D01*
X024261Y018501D01*
X024711Y018051D01*
X025011Y018051D01*
X025311Y018051D01*
X025711Y017651D01*
X025711Y017551D01*
X025739Y018503D02*
X025458Y018503D01*
X025111Y018851D01*
X023765Y018851D01*
X023365Y018451D01*
X022656Y018451D02*
X022656Y017651D01*
X023365Y017651D02*
X023418Y017598D01*
X024282Y017598D01*
X024211Y019196D02*
X025011Y019196D01*
X025811Y019196D01*
X026056Y019196D01*
X027938Y018423D02*
X028111Y018251D01*
X028111Y017851D02*
X028111Y017651D01*
X027911Y017451D01*
X028511Y017651D02*
X029053Y017108D01*
X029053Y016261D01*
X028738Y016261D02*
X028711Y016233D01*
X028711Y015951D01*
X028811Y015851D01*
X029311Y015851D01*
X029511Y015651D01*
X029711Y015651D01*
X029683Y016261D02*
X029683Y016723D01*
X029811Y016851D01*
X029411Y016951D02*
X029411Y016303D01*
X029368Y016261D01*
X028423Y016261D02*
X028423Y015863D01*
X028111Y015551D01*
X028111Y015451D01*
X028011Y015351D01*
X026811Y015351D01*
X026611Y015551D01*
X026611Y015951D01*
X026911Y016251D01*
X027511Y016251D02*
X028098Y016251D01*
X028108Y016261D01*
X026111Y015751D02*
X026111Y015051D01*
X026511Y014651D01*
X027011Y014651D01*
X026593Y014851D02*
X026593Y014851D01*
X026011Y014151D02*
X026011Y013451D01*
X026211Y013251D01*
X026480Y013251D01*
X026496Y013267D01*
X026496Y012767D02*
X026480Y012751D01*
X026111Y012751D01*
X024578Y013011D02*
X023711Y013011D01*
X023711Y012913D02*
X024546Y012913D01*
X024546Y013110D02*
X023711Y013110D01*
X023711Y013208D02*
X024546Y013208D01*
X024546Y013307D02*
X023711Y013307D01*
X023711Y013405D02*
X024546Y013405D01*
X024571Y013504D02*
X023711Y013504D01*
X023711Y013602D02*
X024546Y013602D01*
X024546Y013701D02*
X023711Y013701D01*
X023711Y013799D02*
X024546Y013799D01*
X024546Y013792D02*
X024971Y013792D01*
X024971Y014067D01*
X024677Y014067D01*
X024639Y014057D01*
X024604Y014037D01*
X024576Y014009D01*
X024557Y013975D01*
X024546Y013937D01*
X024546Y013792D01*
X024511Y013751D02*
X024980Y013751D01*
X024996Y013767D01*
X024971Y013799D02*
X025021Y013799D01*
X025021Y013898D02*
X024971Y013898D01*
X024971Y013996D02*
X025021Y013996D01*
X024569Y013996D02*
X023711Y013996D01*
X023711Y013898D02*
X024546Y013898D01*
X024511Y013751D02*
X024311Y013951D01*
X023611Y013951D01*
X023411Y014151D01*
X023411Y014651D01*
X022911Y015151D01*
X022911Y015596D01*
X024111Y014551D02*
X025611Y014551D01*
X026011Y014151D01*
X026111Y015751D02*
X025961Y015901D01*
X029211Y018151D02*
X029411Y018151D01*
X030111Y018851D01*
X030411Y018851D01*
X030613Y019053D01*
X030901Y019053D01*
X030901Y018738D02*
X031398Y018738D01*
X031411Y018751D01*
X030901Y018423D02*
X030238Y018423D01*
X030211Y018451D01*
X030153Y017793D02*
X029911Y017551D01*
X029911Y017451D01*
X030211Y017451D02*
X030238Y017478D01*
X030901Y017478D01*
X030901Y017793D02*
X030153Y017793D01*
X030858Y018151D02*
X030901Y018108D01*
X031453Y018108D01*
X031611Y017951D01*
X032315Y017951D01*
X031611Y017951D02*
X031511Y017851D01*
X031511Y017651D01*
X029683Y019123D02*
X029511Y018951D01*
X029683Y019123D02*
X029683Y019641D01*
X029998Y019641D02*
X030011Y019653D01*
X030011Y019951D01*
X029811Y020151D01*
X029761Y020151D01*
X030011Y020451D02*
X030111Y020451D01*
X030313Y020248D01*
X030313Y019641D01*
X033511Y022951D02*
X034111Y022351D01*
X034211Y022351D01*
X037211Y022351D02*
X037211Y022255D01*
X038386Y021079D01*
X024611Y022851D02*
X021011Y022851D01*
X020511Y022351D01*
X020511Y021851D01*
X022511Y021851D02*
X022511Y020151D01*
X016911Y020251D02*
X016585Y019925D01*
X014011Y019925D01*
X014337Y019925D01*
X014611Y019651D01*
X014011Y019177D02*
X012811Y019177D01*
X012685Y019177D01*
X011711Y020151D01*
X010185Y019451D02*
X010211Y019251D01*
X010211Y019051D01*
X010411Y018851D01*
X010911Y018396D02*
X010956Y018351D01*
X012211Y018251D02*
X012311Y018151D01*
X012651Y018151D01*
X012661Y018161D01*
X013111Y018111D02*
X013161Y018161D01*
X013161Y018827D01*
X012811Y019177D01*
X013111Y018111D02*
X013111Y017551D01*
X012911Y017351D01*
X012311Y017351D01*
X012011Y017651D01*
X010011Y017651D01*
X009437Y018225D01*
X009437Y018351D01*
X009437Y019451D02*
X009011Y019451D01*
X007711Y021851D02*
X007711Y022551D01*
X007411Y022851D01*
X004411Y022851D01*
X004111Y022551D01*
X004111Y021851D01*
X008261Y016727D02*
X008261Y016201D01*
X010011Y015451D02*
X010185Y015625D01*
X010185Y016051D01*
X010956Y016051D01*
X011311Y015451D02*
X011665Y015805D01*
X011665Y016051D01*
X012661Y016301D02*
X012661Y015741D01*
X012661Y016301D02*
X012911Y016551D01*
X016911Y020251D02*
X016911Y021851D01*
X023711Y011829D02*
X025511Y011829D01*
X025548Y011731D02*
X023711Y011731D01*
X023711Y011632D02*
X025646Y011632D01*
X025745Y011534D02*
X023711Y011534D01*
X023711Y011435D02*
X025843Y011435D01*
X023711Y009170D02*
X033911Y009170D01*
X033911Y009268D02*
X033911Y004651D01*
X029294Y004651D01*
X029294Y004716D01*
X029206Y004804D01*
X028452Y004804D01*
X028364Y004716D01*
X029272Y004737D02*
X033911Y004737D01*
X035606Y005251D02*
X035811Y005251D01*
X036211Y005651D01*
X036211Y006351D01*
X035685Y006877D01*
X035685Y006951D01*
X035311Y007325D01*
X035311Y008396D01*
X035056Y008651D01*
X035056Y008742D01*
X035765Y009451D01*
X035965Y009451D01*
X036215Y009201D01*
X036587Y009201D01*
X036637Y008751D02*
X036587Y008701D01*
X036637Y008751D02*
X037111Y008751D01*
X037511Y009151D01*
X037511Y010351D01*
X037211Y010651D01*
X036587Y010374D02*
X036587Y010201D01*
X036537Y010251D01*
X035011Y010251D01*
X034711Y009951D01*
X034711Y009351D01*
X034511Y009151D01*
X034511Y006651D01*
X034661Y006501D01*
X035511Y006501D01*
X035685Y006327D01*
X035685Y006051D01*
X035685Y006951D02*
X035665Y006970D01*
X034937Y006951D02*
X034937Y007851D01*
X034911Y007851D01*
X034911Y008151D01*
X034711Y008351D01*
X034711Y009105D01*
X035056Y009451D01*
X035056Y009796D01*
X035211Y009951D01*
X036261Y009701D02*
X036587Y009701D01*
X036587Y010201D01*
X036587Y010374D02*
X036111Y010851D01*
X033911Y009268D02*
X033845Y009268D01*
X033911Y009071D02*
X023711Y009071D01*
X023711Y008973D02*
X033911Y008973D01*
X033911Y008874D02*
X023711Y008874D01*
X023711Y008776D02*
X033911Y008776D01*
X033911Y008677D02*
X023711Y008677D01*
X023711Y008579D02*
X033911Y008579D01*
X033911Y008480D02*
X023711Y008480D01*
X023711Y008382D02*
X033911Y008382D01*
X033911Y008283D02*
X023711Y008283D01*
X023711Y008185D02*
X033911Y008185D01*
X033911Y008086D02*
X023711Y008086D01*
X023711Y007988D02*
X033911Y007988D01*
X033911Y007889D02*
X023711Y007889D01*
X023711Y007791D02*
X033911Y007791D01*
X033911Y007692D02*
X023711Y007692D01*
X023711Y007594D02*
X033911Y007594D01*
X033911Y007495D02*
X023711Y007495D01*
X023711Y007397D02*
X033911Y007397D01*
X033911Y007298D02*
X023711Y007298D01*
X023711Y007200D02*
X033911Y007200D01*
X033911Y007101D02*
X023711Y007101D01*
X023711Y007003D02*
X033911Y007003D01*
X033911Y006904D02*
X023711Y006904D01*
X023711Y006806D02*
X033911Y006806D01*
X033911Y006707D02*
X023711Y006707D01*
X023711Y006609D02*
X033911Y006609D01*
X033911Y006510D02*
X023711Y006510D01*
X023711Y006412D02*
X033911Y006412D01*
X035665Y007870D02*
X035685Y007851D01*
X035765Y007931D01*
X035765Y008651D01*
X035056Y008651D02*
X034956Y008742D01*
X035056Y008651D02*
X034956Y008505D01*
X016811Y004651D02*
X016411Y004651D01*
X016311Y004751D01*
X016311Y005051D01*
X016011Y005351D01*
X015611Y005351D01*
X015311Y005051D01*
X015311Y004551D01*
X015156Y004396D01*
X014711Y004396D01*
X013911Y004396D01*
X013711Y004751D02*
X013511Y004551D01*
X013511Y004251D01*
X013311Y004051D01*
X013011Y005225D02*
X013011Y006151D01*
X009711Y004343D02*
X009351Y004343D01*
X009351Y004245D02*
X009711Y004245D01*
X009711Y004146D02*
X009351Y004146D01*
D38*
X010311Y006151D03*
X009111Y006351D03*
X008111Y006351D03*
X008111Y007351D03*
X009111Y007351D03*
X009111Y008351D03*
X008111Y008351D03*
X007111Y008351D03*
X004811Y007051D03*
X004011Y006851D03*
X003611Y006151D03*
X003611Y005451D03*
X005611Y006751D03*
X006111Y006151D03*
X006211Y005351D03*
X006211Y004751D03*
X002111Y007351D03*
X001111Y007351D03*
X001111Y008351D03*
X002111Y008351D03*
X003111Y008351D03*
X001111Y006351D03*
X013011Y006151D03*
X023311Y006351D03*
X024611Y006851D03*
X027611Y006851D03*
X030611Y006851D03*
X033611Y006851D03*
X033611Y008851D03*
X035211Y009951D03*
X033611Y010851D03*
X030611Y010851D03*
X027611Y010851D03*
X024611Y010851D03*
X024611Y008851D03*
X027611Y008851D03*
X030611Y008851D03*
X030611Y012851D03*
X028611Y012851D03*
X028611Y014351D03*
X029711Y015651D03*
X029811Y016851D03*
X029411Y016951D03*
X030211Y017451D03*
X029211Y018151D03*
X028511Y017651D03*
X028111Y018251D03*
X027011Y017951D03*
X028411Y019051D03*
X029511Y018951D03*
X030211Y018451D03*
X031411Y018751D03*
X032311Y018951D03*
X032811Y018851D03*
X033611Y020051D03*
X033661Y021451D03*
X030011Y020451D03*
X029761Y020151D03*
X027511Y019951D03*
X026311Y019851D03*
X025011Y018051D03*
X026911Y016251D03*
X027511Y016251D03*
X030611Y014351D03*
X033611Y014351D03*
X033611Y012851D03*
X037211Y009351D03*
X038011Y009451D03*
X033611Y004851D03*
X030611Y004851D03*
X027611Y004851D03*
X024611Y004851D03*
X011311Y015451D03*
X010011Y015451D03*
X010211Y016651D03*
X012911Y016551D03*
X012211Y018551D03*
X011411Y018951D03*
X014611Y019651D03*
X008211Y019751D03*
X006311Y017651D03*
X006211Y016651D03*
X006911Y015651D03*
X004011Y017851D03*
X022511Y020151D03*
X031511Y017651D03*
X032611Y017251D03*
X037911Y016251D03*
X039011Y019251D03*
D39*
X038634Y009701D02*
X038634Y009201D01*
X038261Y009201D01*
X038011Y009451D01*
X037211Y009351D02*
X037061Y009201D01*
X036587Y009201D01*
X035685Y007851D02*
X037711Y007851D01*
X038111Y007451D01*
X038111Y007751D01*
X038611Y008251D01*
X038611Y008677D01*
X038634Y008701D01*
D40*
X038961Y008701D01*
X039311Y009051D01*
X039311Y009851D01*
X038911Y010251D01*
X038684Y010251D01*
X038634Y010201D01*
X034937Y006051D02*
X035015Y005972D01*
X035015Y005251D01*
D41*
X027521Y016848D02*
X027518Y016851D01*
X027111Y016851D01*
X026761Y017201D01*
X025261Y017201D01*
X024863Y017598D01*
X024282Y017598D01*
X025739Y018503D02*
X025908Y018503D01*
X027261Y017151D01*
X027508Y017151D01*
X027521Y017163D01*
D42*
X004961Y007851D02*
X004611Y007851D01*
X004525Y007849D01*
X004440Y007843D01*
X004355Y007833D01*
X004270Y007818D01*
X004187Y007800D01*
X004104Y007778D01*
X004022Y007752D01*
X003942Y007722D01*
X003863Y007688D01*
X003786Y007651D01*
X003711Y007610D01*
X003638Y007565D01*
X003567Y007517D01*
X003498Y007466D01*
X003432Y007411D01*
X003369Y007354D01*
X003308Y007293D01*
X003251Y007230D01*
X003196Y007164D01*
X003145Y007095D01*
X003097Y007024D01*
X003052Y006951D01*
X003011Y006876D01*
X002974Y006799D01*
X002940Y006720D01*
X002910Y006640D01*
X002884Y006558D01*
X002862Y006475D01*
X002844Y006392D01*
X002829Y006307D01*
X002819Y006222D01*
X002813Y006137D01*
X002811Y006051D01*
X002811Y004651D01*
X004961Y007851D02*
X005062Y007849D01*
X005162Y007841D01*
X005262Y007829D01*
X005361Y007812D01*
X005459Y007790D01*
X005556Y007763D01*
X005652Y007731D01*
X005746Y007695D01*
X005837Y007654D01*
X005927Y007609D01*
X006015Y007559D01*
X006100Y007506D01*
X006182Y007448D01*
X006262Y007386D01*
X006338Y007320D01*
X006411Y007251D01*
X006480Y007178D01*
X006546Y007102D01*
X006608Y007022D01*
X006666Y006940D01*
X006719Y006855D01*
X006769Y006767D01*
X006814Y006677D01*
X006855Y006586D01*
X006891Y006492D01*
X006923Y006396D01*
X006950Y006299D01*
X006972Y006201D01*
X006989Y006102D01*
X007001Y006002D01*
X007009Y005902D01*
X007011Y005801D01*
D43*
X007011Y004861D01*
M02*
