%
M48
M72
T01C0.0200
T02C0.0236
T03C0.0400
T04C0.1300
%
T01
X25011Y18051
X27011Y17951
X28111Y18251
X37211Y9351
X38011Y9451
X24611Y10851
X27611Y10851
X28611Y12851
X30611Y12851
X33611Y12851
X33611Y10851
X30611Y10851
X24611Y8851
X27611Y8851
X30611Y8851
X33611Y8851
X33611Y6851
X30611Y6851
X30611Y4851
X33611Y4851
X27611Y6851
X27611Y4851
X24611Y4851
X24611Y6851
X28611Y14351
X30611Y14351
X33611Y14351
X1111Y8351
X2111Y8351
X3111Y8351
X1111Y7351
X2111Y7351
X1111Y6351
X3611Y6151
X3611Y5451
X4011Y6851
X4811Y7051
X5611Y6751
X6111Y6151
X6211Y5351
X6211Y4751
X9111Y6351
X8111Y6351
X8111Y7351
X9111Y7351
X9111Y8351
X8111Y8351
X7111Y8351
X37911Y16251
X32311Y18951
X31511Y17651
X6911Y15651
X11411Y18951
X12911Y16551
X26311Y19851
X33661Y21451
X32611Y17251
X32811Y18851
X39011Y19251
X12211Y18551
X28411Y19051
X29811Y16851
X33611Y20051
X13011Y6151
X27511Y16251
X26911Y16251
X10311Y6151
X35211Y9951
X31411Y18751
X29711Y15651
X23311Y6351
X29511Y18951
X14611Y19651
X27511Y19951
X30211Y18451
X30211Y17451
X22511Y20151
X29761Y20151
X30011Y20451
X29411Y16951
X8211Y19751
X10211Y16651
X11311Y15451
X6311Y17651
X10011Y15451
X4011Y17851
X29211Y18151
X6211Y16651
X28511Y17651
T02
X15811Y4651
X16811Y4651
X17811Y4651
X18811Y4651
X19811Y4651
X20811Y4651
X21811Y4651
X3811Y4651
X2811Y4651
T03
X38111Y6451
X38111Y7451
X32211Y22351
X33211Y22351
X34211Y22351
X35211Y22351
X36211Y22351
X37211Y22351
X38711Y11351
X37711Y11351
X38711Y12351
X37711Y12351
X38711Y13351
X37711Y13351
X8711Y21851
X7711Y21851
X6711Y21851
X5111Y21851
X4111Y21851
X3111Y21851
X17911Y21851
X16911Y21851
X15911Y21851
X14911Y21851
X13311Y21851
X12311Y21851
X11311Y21851
X10311Y21851
X27111Y21851
X26111Y21851
X25111Y21851
X24111Y21851
X30711Y21851
X29711Y21851
X28711Y21851
X22511Y21851
X21511Y21851
X20511Y21851
X19511Y21851
X2111Y18751
X2111Y17751
X2111Y16751
T04
X1611Y22351
X38611Y22351
X38611Y4851
X1611Y4851
M30
