G75*
G70*
%OFA0B0*%
%FSLAX24Y24*%
%IPPOS*%
%LPD*%
%AMOC8*
5,1,8,0,0,1.08239X$1,22.5*
%
%ADD10R,0.0315X0.0472*%
%ADD11R,0.0472X0.0315*%
%ADD12R,0.0236X0.0866*%
%ADD13R,0.0256X0.0591*%
%ADD14R,0.0591X0.0512*%
%ADD15C,0.0740*%
%ADD16C,0.0160*%
%ADD17C,0.0413*%
D10*
X001357Y007841D03*
X002066Y007841D03*
D11*
X004542Y002471D03*
X004542Y001763D03*
D12*
X003467Y004975D03*
X002967Y004975D03*
X002467Y004975D03*
X001967Y004975D03*
X001967Y007023D03*
X002467Y007023D03*
X002967Y007023D03*
X003467Y007023D03*
D13*
X003467Y004078D03*
X002967Y004078D03*
X002467Y004078D03*
X001967Y004078D03*
X001967Y001920D03*
X002467Y001920D03*
X002967Y001920D03*
X003467Y001920D03*
D14*
X004686Y004830D03*
X004686Y005578D03*
X004690Y006641D03*
X004690Y007389D03*
D15*
X004402Y009566D03*
X003902Y010566D03*
X003402Y009566D03*
X002902Y010566D03*
X002402Y009566D03*
X001902Y010566D03*
D16*
X001467Y001643D02*
X002074Y001036D01*
X003217Y001036D01*
X003467Y001286D01*
X003467Y001538D01*
X003495Y001538D01*
X003495Y001526D01*
X003731Y001763D01*
X004542Y001763D01*
X004542Y002471D02*
X004471Y002471D01*
X003893Y003050D01*
X004566Y003723D01*
X004570Y003719D01*
X005574Y003719D01*
X004641Y004774D02*
X004117Y005298D01*
X004117Y005723D01*
X003885Y005956D01*
X002806Y005956D01*
X002542Y005692D01*
X002542Y004904D01*
X002471Y004975D01*
X002467Y004975D01*
X001967Y004975D02*
X001467Y004975D01*
X001479Y007837D01*
X001479Y009479D01*
X002080Y010080D01*
X002680Y010080D01*
X003194Y009566D01*
X003402Y009566D01*
X004117Y008841D02*
X003723Y008448D01*
X002936Y008448D01*
X002463Y007975D01*
X002463Y007940D01*
X002467Y007723D01*
X002467Y007023D01*
X001967Y007749D02*
X002076Y007822D01*
X002024Y007914D01*
X002066Y007841D01*
X001967Y008066D01*
X001975Y008816D01*
X001967Y007749D02*
X001967Y007023D01*
X001967Y006999D01*
X001479Y007837D02*
X001357Y007841D01*
X001467Y004975D02*
X001467Y001643D01*
X001967Y001749D02*
X001967Y001920D01*
X001971Y001924D01*
X001975Y001924D01*
X001975Y002952D01*
X003794Y002952D01*
X003893Y003050D01*
X003467Y001920D02*
X003467Y001538D01*
X002967Y004078D02*
X002967Y004975D01*
X003924Y007302D02*
X004007Y007389D01*
X004690Y007389D01*
X004690Y006641D02*
X005066Y006641D01*
X005298Y006873D01*
X005298Y008054D01*
X004904Y008841D02*
X005298Y009235D01*
X005298Y010023D01*
X004904Y010416D01*
X004052Y010416D01*
X003902Y010566D01*
X004117Y008841D02*
X004904Y008841D01*
X004690Y006641D02*
X004686Y005578D01*
X004686Y004830D02*
X004641Y004774D01*
X004566Y003723D02*
X004566Y003711D01*
X004479Y003625D01*
X001967Y004078D02*
X001967Y001932D01*
X001975Y001924D01*
D17*
X003924Y007302D03*
X005298Y008054D03*
X005574Y003719D03*
X001975Y008816D03*
M02*
