G75*
G70*
%OFA0B0*%
%FSLAX24Y24*%
%IPPOS*%
%LPD*%
%AMOC8*
5,1,8,0,0,1.08239X$1,22.5*
%
%ADD10C,0.0740*%
%ADD11C,0.0413*%
%ADD12C,0.0160*%
D10*
X002402Y009566D03*
X001902Y010566D03*
X002902Y010566D03*
X003402Y009566D03*
X003902Y010566D03*
X004402Y009566D03*
D11*
X005298Y008054D03*
X003924Y007302D03*
X005574Y003719D03*
X001975Y008816D03*
D12*
X000386Y000621D02*
X000431Y000513D01*
X000513Y000431D01*
X000621Y000386D01*
X000680Y000380D01*
X005574Y000380D01*
X005632Y000386D01*
X005741Y000431D01*
X005824Y000514D01*
X005868Y000622D01*
X005874Y000681D01*
X005874Y000681D01*
X005874Y000764D01*
X005874Y000764D01*
X005877Y012620D01*
X005865Y012590D01*
X005628Y012354D01*
X005320Y012226D01*
X005877Y012226D01*
X005877Y012068D02*
X000380Y012068D01*
X000380Y012226D02*
X000985Y012226D01*
X001320Y012226D01*
X004985Y012226D01*
X005320Y012226D01*
X004985Y012226D02*
X004677Y012354D01*
X004440Y012590D01*
X004312Y012899D01*
X004312Y013233D01*
X004440Y013542D01*
X004677Y013778D01*
X004985Y013906D01*
X005320Y013906D01*
X005628Y013778D01*
X005865Y013542D01*
X005877Y013511D01*
X005877Y014190D01*
X005877Y014190D01*
X005878Y014273D01*
X005878Y014273D01*
X005872Y014332D01*
X005827Y014440D01*
X005744Y014524D01*
X005636Y014569D01*
X005577Y014574D01*
X000680Y014574D01*
X000621Y014569D01*
X000513Y014524D01*
X000431Y014441D01*
X000386Y014333D01*
X000380Y014274D01*
X000380Y013396D01*
X000440Y013542D01*
X000677Y013778D01*
X000985Y013906D01*
X001320Y013906D01*
X001628Y013778D01*
X001865Y013542D01*
X001992Y013233D01*
X001992Y012899D01*
X001865Y012590D01*
X001628Y012354D01*
X001320Y012226D01*
X001659Y012385D02*
X004646Y012385D01*
X004487Y012543D02*
X001818Y012543D01*
X001911Y012702D02*
X004394Y012702D01*
X004328Y012860D02*
X001976Y012860D01*
X001992Y013019D02*
X004312Y013019D01*
X004312Y013177D02*
X001992Y013177D01*
X001950Y013336D02*
X004355Y013336D01*
X004421Y013494D02*
X001884Y013494D01*
X001754Y013653D02*
X004551Y013653D01*
X004756Y013811D02*
X001548Y013811D01*
X000985Y012226D02*
X000677Y012354D01*
X000440Y012590D01*
X000380Y012736D01*
X000380Y000680D01*
X000386Y000621D01*
X000382Y000656D02*
X005871Y000656D01*
X005874Y000814D02*
X000380Y000814D01*
X000380Y000973D02*
X005874Y000973D01*
X005874Y001131D02*
X000380Y001131D01*
X000380Y001290D02*
X005874Y001290D01*
X005874Y001448D02*
X000380Y001448D01*
X000380Y001607D02*
X005874Y001607D01*
X005874Y001765D02*
X000380Y001765D01*
X000380Y001924D02*
X005874Y001924D01*
X005874Y002082D02*
X000380Y002082D01*
X000380Y002241D02*
X005874Y002241D01*
X005874Y002399D02*
X000380Y002399D01*
X000380Y002558D02*
X005874Y002558D01*
X005874Y002716D02*
X000380Y002716D01*
X000380Y002875D02*
X005874Y002875D01*
X005874Y003033D02*
X000380Y003033D01*
X000380Y003192D02*
X005875Y003192D01*
X005875Y003350D02*
X000380Y003350D01*
X000380Y003509D02*
X005875Y003509D01*
X005875Y003667D02*
X000380Y003667D01*
X000380Y003826D02*
X005875Y003826D01*
X005875Y003984D02*
X000380Y003984D01*
X000380Y004143D02*
X005875Y004143D01*
X005875Y004301D02*
X000380Y004301D01*
X000380Y004460D02*
X005875Y004460D01*
X005875Y004618D02*
X000380Y004618D01*
X000380Y004777D02*
X005875Y004777D01*
X005875Y004935D02*
X000380Y004935D01*
X000380Y005094D02*
X005875Y005094D01*
X005875Y005252D02*
X000380Y005252D01*
X000380Y005411D02*
X005875Y005411D01*
X005875Y005569D02*
X000380Y005569D01*
X000380Y005728D02*
X005875Y005728D01*
X005875Y005886D02*
X000380Y005886D01*
X000380Y006045D02*
X005875Y006045D01*
X005875Y006203D02*
X000380Y006203D01*
X000380Y006362D02*
X005875Y006362D01*
X005875Y006520D02*
X000380Y006520D01*
X000380Y006679D02*
X005875Y006679D01*
X005875Y006837D02*
X000380Y006837D01*
X000380Y006996D02*
X005876Y006996D01*
X005876Y007154D02*
X000380Y007154D01*
X000380Y007313D02*
X005876Y007313D01*
X005876Y007471D02*
X000380Y007471D01*
X000380Y007630D02*
X005876Y007630D01*
X005876Y007788D02*
X005607Y007788D01*
X005643Y007824D02*
X005528Y007709D01*
X005379Y007647D01*
X005217Y007647D01*
X005068Y007709D01*
X005003Y007774D01*
X002880Y007774D01*
X002777Y007817D01*
X002384Y008210D01*
X002305Y008289D01*
X002262Y008392D01*
X002262Y009007D01*
X002080Y009083D01*
X001919Y009243D01*
X001832Y009452D01*
X001832Y009679D01*
X001919Y009889D01*
X002074Y010043D01*
X002031Y010029D01*
X001946Y010016D01*
X001922Y010016D01*
X001922Y010546D01*
X001882Y010546D01*
X001352Y010546D01*
X001352Y010523D01*
X001366Y010437D01*
X001393Y010355D01*
X001432Y010278D01*
X001483Y010208D01*
X001544Y010146D01*
X001614Y010095D01*
X001691Y010056D01*
X001774Y010029D01*
X001859Y010016D01*
X001882Y010016D01*
X001882Y010546D01*
X001882Y010586D01*
X001352Y010586D01*
X001352Y010609D01*
X001366Y010695D01*
X001393Y010777D01*
X001432Y010854D01*
X001483Y010924D01*
X001544Y010985D01*
X001614Y011036D01*
X001691Y011076D01*
X001774Y011102D01*
X001859Y011116D01*
X001882Y011116D01*
X001882Y010586D01*
X001922Y010586D01*
X001922Y011116D01*
X001946Y011116D01*
X002031Y011102D01*
X002114Y011076D01*
X002191Y011036D01*
X002261Y010985D01*
X002322Y010924D01*
X002373Y010854D01*
X002402Y010796D01*
X002432Y010854D01*
X002483Y010924D01*
X002544Y010985D01*
X002614Y011036D01*
X002691Y011076D01*
X002774Y011102D01*
X002859Y011116D01*
X002882Y011116D01*
X002882Y010586D01*
X002922Y010586D01*
X002922Y011116D01*
X002946Y011116D01*
X003031Y011102D01*
X003114Y011076D01*
X003191Y011036D01*
X003261Y010985D01*
X003322Y010924D01*
X003373Y010854D01*
X003391Y010819D01*
X003419Y010889D01*
X003580Y011049D01*
X003789Y011136D01*
X004016Y011136D01*
X004225Y011049D01*
X004386Y010889D01*
X004472Y010679D01*
X004472Y010452D01*
X004386Y010243D01*
X004231Y010088D01*
X004274Y010102D01*
X004359Y010116D01*
X004382Y010116D01*
X004382Y009586D01*
X004422Y009586D01*
X004422Y010116D01*
X004446Y010116D01*
X004531Y010102D01*
X004614Y010076D01*
X004691Y010036D01*
X004761Y009985D01*
X004822Y009924D01*
X004873Y009854D01*
X004912Y009777D01*
X004939Y009695D01*
X004952Y009609D01*
X004952Y009586D01*
X004422Y009586D01*
X004422Y009546D01*
X004422Y009016D01*
X004446Y009016D01*
X004531Y009029D01*
X004614Y009056D01*
X004691Y009095D01*
X004761Y009146D01*
X004822Y009208D01*
X004873Y009278D01*
X004912Y009355D01*
X004939Y009437D01*
X004952Y009523D01*
X004952Y009546D01*
X004422Y009546D01*
X004382Y009546D01*
X004382Y009016D01*
X004359Y009016D01*
X004274Y009029D01*
X004191Y009056D01*
X004114Y009095D01*
X004044Y009146D01*
X003983Y009208D01*
X003932Y009278D01*
X003914Y009312D01*
X003886Y009243D01*
X003725Y009083D01*
X003516Y008996D01*
X003289Y008996D01*
X003080Y009083D01*
X002919Y009243D01*
X002902Y009283D01*
X002886Y009243D01*
X002822Y009179D01*
X002822Y008564D01*
X003052Y008334D01*
X005003Y008334D01*
X005068Y008399D01*
X005217Y008461D01*
X005379Y008461D01*
X005528Y008399D01*
X005643Y008284D01*
X005705Y008135D01*
X005705Y007973D01*
X005643Y007824D01*
X005694Y007947D02*
X005876Y007947D01*
X005876Y008105D02*
X005705Y008105D01*
X005652Y008264D02*
X005876Y008264D01*
X005876Y008422D02*
X005472Y008422D01*
X005298Y008054D02*
X002936Y008054D01*
X002542Y008448D01*
X002542Y009416D01*
X002408Y009550D01*
X002402Y009556D01*
X002402Y009566D01*
X002408Y009550D02*
X002463Y009550D01*
X002262Y008898D02*
X000380Y008898D01*
X000380Y009056D02*
X002144Y009056D01*
X002262Y008739D02*
X000380Y008739D01*
X000380Y008581D02*
X002262Y008581D01*
X002262Y008422D02*
X000380Y008422D01*
X000380Y008264D02*
X002330Y008264D01*
X002489Y008105D02*
X000380Y008105D01*
X000380Y007947D02*
X002647Y007947D01*
X002846Y007788D02*
X000380Y007788D01*
X000380Y009215D02*
X001948Y009215D01*
X001865Y009373D02*
X000380Y009373D01*
X000380Y009532D02*
X001832Y009532D01*
X001837Y009690D02*
X000380Y009690D01*
X000380Y009849D02*
X001903Y009849D01*
X001882Y010166D02*
X001922Y010166D01*
X001922Y010324D02*
X001882Y010324D01*
X001882Y010483D02*
X001922Y010483D01*
X001922Y010641D02*
X001882Y010641D01*
X001882Y010800D02*
X001922Y010800D01*
X001922Y010958D02*
X001882Y010958D01*
X001517Y010958D02*
X000380Y010958D01*
X000380Y010800D02*
X001404Y010800D01*
X001357Y010641D02*
X000380Y010641D01*
X000380Y010483D02*
X001359Y010483D01*
X001408Y010324D02*
X000380Y010324D01*
X000380Y010166D02*
X001525Y010166D01*
X002038Y010007D02*
X000380Y010007D01*
X000380Y011117D02*
X003742Y011117D01*
X003489Y010958D02*
X003288Y010958D01*
X002922Y010958D02*
X002882Y010958D01*
X002882Y010800D02*
X002922Y010800D01*
X002922Y010641D02*
X002882Y010641D01*
X002517Y010958D02*
X002288Y010958D01*
X002401Y010800D02*
X002404Y010800D01*
X002857Y009215D02*
X002948Y009215D01*
X002822Y009056D02*
X003144Y009056D01*
X002964Y008422D02*
X005124Y008422D01*
X004827Y009215D02*
X005876Y009215D01*
X005876Y009373D02*
X004918Y009373D01*
X004952Y009532D02*
X005876Y009532D01*
X005876Y009690D02*
X004940Y009690D01*
X004876Y009849D02*
X005876Y009849D01*
X005876Y010007D02*
X004731Y010007D01*
X004472Y010483D02*
X005876Y010483D01*
X005877Y010641D02*
X004472Y010641D01*
X004423Y010800D02*
X005877Y010800D01*
X005877Y010958D02*
X004316Y010958D01*
X004062Y011117D02*
X005877Y011117D01*
X005877Y011275D02*
X000380Y011275D01*
X000380Y011434D02*
X005877Y011434D01*
X005877Y011592D02*
X000380Y011592D01*
X000380Y011751D02*
X005877Y011751D01*
X005877Y011909D02*
X000380Y011909D01*
X000380Y012385D02*
X000646Y012385D01*
X000487Y012543D02*
X000380Y012543D01*
X000380Y012702D02*
X000394Y012702D01*
X000380Y013494D02*
X000421Y013494D01*
X000380Y013653D02*
X000551Y013653D01*
X000380Y013811D02*
X000756Y013811D01*
X000380Y013970D02*
X005877Y013970D01*
X005877Y014128D02*
X000380Y014128D01*
X000381Y014287D02*
X005876Y014287D01*
X005822Y014445D02*
X000434Y014445D01*
X002822Y008898D02*
X005876Y008898D01*
X005876Y009056D02*
X004613Y009056D01*
X004422Y009056D02*
X004382Y009056D01*
X004382Y009215D02*
X004422Y009215D01*
X004422Y009373D02*
X004382Y009373D01*
X004382Y009532D02*
X004422Y009532D01*
X004422Y009690D02*
X004382Y009690D01*
X004382Y009849D02*
X004422Y009849D01*
X004422Y010007D02*
X004382Y010007D01*
X004308Y010166D02*
X005876Y010166D01*
X005876Y010324D02*
X004419Y010324D01*
X003978Y009215D02*
X003857Y009215D01*
X003661Y009056D02*
X004192Y009056D01*
X002822Y008739D02*
X005876Y008739D01*
X005876Y008581D02*
X002822Y008581D01*
X005548Y013811D02*
X005877Y013811D01*
X005877Y013653D02*
X005754Y013653D01*
X005818Y012543D02*
X005877Y012543D01*
X005877Y012385D02*
X005659Y012385D01*
X005807Y000497D02*
X000447Y000497D01*
M02*
