G75*
G70*
%OFA0B0*%
%FSLAX24Y24*%
%IPPOS*%
%LPD*%
%AMOC8*
5,1,8,0,0,1.08239X$1,22.5*
%
%ADD10C,0.0000*%
%ADD11C,0.0060*%
%ADD12C,0.0050*%
%ADD13C,0.0080*%
D10*
X000180Y000680D02*
X000180Y014274D01*
X000182Y014318D01*
X000188Y014361D01*
X000197Y014403D01*
X000210Y014445D01*
X000227Y014485D01*
X000247Y014524D01*
X000270Y014561D01*
X000297Y014595D01*
X000326Y014628D01*
X000359Y014657D01*
X000393Y014684D01*
X000430Y014707D01*
X000469Y014727D01*
X000509Y014744D01*
X000551Y014757D01*
X000593Y014766D01*
X000636Y014772D01*
X000680Y014774D01*
X005578Y014774D01*
X005578Y014775D02*
X005621Y014773D01*
X005665Y014767D01*
X005707Y014758D01*
X005749Y014745D01*
X005789Y014728D01*
X005828Y014707D01*
X005865Y014684D01*
X005900Y014657D01*
X005932Y014628D01*
X005961Y014595D01*
X005988Y014561D01*
X006011Y014524D01*
X006031Y014485D01*
X006048Y014445D01*
X006061Y014403D01*
X006071Y014360D01*
X006076Y014317D01*
X006078Y014273D01*
X006074Y000682D01*
X006072Y000638D01*
X006067Y000595D01*
X006057Y000552D01*
X006044Y000510D01*
X006028Y000470D01*
X006008Y000431D01*
X005984Y000394D01*
X005958Y000359D01*
X005928Y000327D01*
X005896Y000297D01*
X005861Y000271D01*
X005824Y000247D01*
X005786Y000227D01*
X005745Y000210D01*
X005704Y000197D01*
X005661Y000188D01*
X005618Y000182D01*
X005574Y000180D01*
X000680Y000180D01*
X000636Y000182D01*
X000593Y000188D01*
X000551Y000197D01*
X000509Y000210D01*
X000469Y000227D01*
X000430Y000247D01*
X000393Y000270D01*
X000359Y000297D01*
X000326Y000326D01*
X000297Y000359D01*
X000270Y000393D01*
X000247Y000430D01*
X000227Y000469D01*
X000210Y000509D01*
X000197Y000551D01*
X000188Y000593D01*
X000182Y000636D01*
X000180Y000680D01*
X000512Y013066D02*
X000514Y013116D01*
X000520Y013166D01*
X000530Y013215D01*
X000543Y013264D01*
X000561Y013311D01*
X000582Y013357D01*
X000606Y013400D01*
X000634Y013442D01*
X000665Y013482D01*
X000699Y013519D01*
X000736Y013553D01*
X000776Y013584D01*
X000818Y013612D01*
X000861Y013636D01*
X000907Y013657D01*
X000954Y013675D01*
X001003Y013688D01*
X001052Y013698D01*
X001102Y013704D01*
X001152Y013706D01*
X001202Y013704D01*
X001252Y013698D01*
X001301Y013688D01*
X001350Y013675D01*
X001397Y013657D01*
X001443Y013636D01*
X001486Y013612D01*
X001528Y013584D01*
X001568Y013553D01*
X001605Y013519D01*
X001639Y013482D01*
X001670Y013442D01*
X001698Y013400D01*
X001722Y013357D01*
X001743Y013311D01*
X001761Y013264D01*
X001774Y013215D01*
X001784Y013166D01*
X001790Y013116D01*
X001792Y013066D01*
X001790Y013016D01*
X001784Y012966D01*
X001774Y012917D01*
X001761Y012868D01*
X001743Y012821D01*
X001722Y012775D01*
X001698Y012732D01*
X001670Y012690D01*
X001639Y012650D01*
X001605Y012613D01*
X001568Y012579D01*
X001528Y012548D01*
X001486Y012520D01*
X001443Y012496D01*
X001397Y012475D01*
X001350Y012457D01*
X001301Y012444D01*
X001252Y012434D01*
X001202Y012428D01*
X001152Y012426D01*
X001102Y012428D01*
X001052Y012434D01*
X001003Y012444D01*
X000954Y012457D01*
X000907Y012475D01*
X000861Y012496D01*
X000818Y012520D01*
X000776Y012548D01*
X000736Y012579D01*
X000699Y012613D01*
X000665Y012650D01*
X000634Y012690D01*
X000606Y012732D01*
X000582Y012775D01*
X000561Y012821D01*
X000543Y012868D01*
X000530Y012917D01*
X000520Y012966D01*
X000514Y013016D01*
X000512Y013066D01*
X004512Y013066D02*
X004514Y013116D01*
X004520Y013166D01*
X004530Y013215D01*
X004543Y013264D01*
X004561Y013311D01*
X004582Y013357D01*
X004606Y013400D01*
X004634Y013442D01*
X004665Y013482D01*
X004699Y013519D01*
X004736Y013553D01*
X004776Y013584D01*
X004818Y013612D01*
X004861Y013636D01*
X004907Y013657D01*
X004954Y013675D01*
X005003Y013688D01*
X005052Y013698D01*
X005102Y013704D01*
X005152Y013706D01*
X005202Y013704D01*
X005252Y013698D01*
X005301Y013688D01*
X005350Y013675D01*
X005397Y013657D01*
X005443Y013636D01*
X005486Y013612D01*
X005528Y013584D01*
X005568Y013553D01*
X005605Y013519D01*
X005639Y013482D01*
X005670Y013442D01*
X005698Y013400D01*
X005722Y013357D01*
X005743Y013311D01*
X005761Y013264D01*
X005774Y013215D01*
X005784Y013166D01*
X005790Y013116D01*
X005792Y013066D01*
X005790Y013016D01*
X005784Y012966D01*
X005774Y012917D01*
X005761Y012868D01*
X005743Y012821D01*
X005722Y012775D01*
X005698Y012732D01*
X005670Y012690D01*
X005639Y012650D01*
X005605Y012613D01*
X005568Y012579D01*
X005528Y012548D01*
X005486Y012520D01*
X005443Y012496D01*
X005397Y012475D01*
X005350Y012457D01*
X005301Y012444D01*
X005252Y012434D01*
X005202Y012428D01*
X005152Y012426D01*
X005102Y012428D01*
X005052Y012434D01*
X005003Y012444D01*
X004954Y012457D01*
X004907Y012475D01*
X004861Y012496D01*
X004818Y012520D01*
X004776Y012548D01*
X004736Y012579D01*
X004699Y012613D01*
X004665Y012650D01*
X004634Y012690D01*
X004606Y012732D01*
X004582Y012775D01*
X004561Y012821D01*
X004543Y012868D01*
X004530Y012917D01*
X004520Y012966D01*
X004514Y013016D01*
X004512Y013066D01*
D11*
X004087Y007024D02*
X004087Y006797D01*
X003747Y006797D01*
X003747Y007024D01*
X003747Y006655D02*
X004087Y006429D01*
X004087Y006287D02*
X003860Y006287D01*
X003747Y006174D01*
X003860Y006060D01*
X004087Y006060D01*
X004030Y005919D02*
X004087Y005862D01*
X004087Y005749D01*
X004030Y005692D01*
X003803Y005692D01*
X003747Y005749D01*
X003747Y005862D01*
X003803Y005919D01*
X003917Y006060D02*
X003917Y006287D01*
X003747Y006429D02*
X004087Y006655D01*
X003917Y006797D02*
X003917Y006910D01*
X004087Y005560D02*
X004087Y005446D01*
X004087Y005503D02*
X003747Y005503D01*
X003747Y005446D02*
X003747Y005560D01*
X003803Y005305D02*
X003917Y005305D01*
X003974Y005248D01*
X003974Y005078D01*
X004087Y005078D02*
X003747Y005078D01*
X003747Y005248D01*
X003803Y005305D01*
X004087Y004215D02*
X004087Y003988D01*
X004087Y004102D02*
X003747Y004102D01*
X003860Y003988D01*
X003803Y003847D02*
X004030Y003620D01*
X004087Y003677D01*
X004087Y003790D01*
X004030Y003847D01*
X003803Y003847D01*
X003747Y003790D01*
X003747Y003677D01*
X003803Y003620D01*
X004030Y003620D01*
X004030Y003479D02*
X003974Y003479D01*
X003917Y003422D01*
X003917Y003365D01*
X003917Y003422D02*
X003860Y003479D01*
X003803Y003479D01*
X003747Y003422D01*
X003747Y003308D01*
X003803Y003252D01*
X003917Y003110D02*
X003917Y002883D01*
X003917Y002742D02*
X003974Y002685D01*
X003974Y002515D01*
X003917Y002742D02*
X003803Y002742D01*
X003747Y002685D01*
X003747Y002515D01*
X004087Y002515D01*
X004087Y002374D02*
X003747Y002374D01*
X003747Y002147D02*
X004087Y002374D01*
X004087Y002147D02*
X003747Y002147D01*
X003747Y002005D02*
X004087Y002005D01*
X003747Y001779D01*
X004087Y001779D01*
X004306Y001999D02*
X004306Y002235D01*
X004030Y003252D02*
X004087Y003308D01*
X004087Y003422D01*
X004030Y003479D01*
X004778Y002235D02*
X004778Y001999D01*
X001830Y007605D02*
X001593Y007605D01*
X001593Y008078D02*
X001830Y008078D01*
D12*
X003164Y002999D02*
X003166Y003026D01*
X003172Y003053D01*
X003181Y003079D01*
X003194Y003103D01*
X003210Y003126D01*
X003229Y003145D01*
X003251Y003162D01*
X003275Y003176D01*
X003300Y003186D01*
X003327Y003193D01*
X003354Y003196D01*
X003382Y003195D01*
X003409Y003190D01*
X003435Y003182D01*
X003459Y003170D01*
X003482Y003154D01*
X003503Y003136D01*
X003520Y003115D01*
X003535Y003091D01*
X003546Y003066D01*
X003554Y003040D01*
X003558Y003013D01*
X003558Y002985D01*
X003554Y002958D01*
X003546Y002932D01*
X003535Y002907D01*
X003520Y002883D01*
X003503Y002862D01*
X003482Y002844D01*
X003460Y002828D01*
X003435Y002816D01*
X003409Y002808D01*
X003382Y002803D01*
X003354Y002802D01*
X003327Y002805D01*
X003300Y002812D01*
X003275Y002822D01*
X003251Y002836D01*
X003229Y002853D01*
X003210Y002872D01*
X003194Y002895D01*
X003181Y002919D01*
X003172Y002945D01*
X003166Y002972D01*
X003164Y002999D01*
D13*
X005852Y008966D02*
X000452Y008966D01*
X000452Y015116D01*
X005852Y015116D01*
X005852Y008966D01*
M02*
