G75*
G70*
%OFA0B0*%
%FSLAX24Y24*%
%IPPOS*%
%LPD*%
%AMOC8*
5,1,8,0,0,1.08239X$1,22.5*
%
%ADD10C,0.0230*%
%ADD11C,0.0150*%
D10*
X002101Y000732D02*
X003372Y000732D01*
X003372Y001580D02*
X002101Y001580D01*
X002101Y002114D02*
X002948Y002114D01*
X003372Y002537D01*
X002948Y002961D01*
X002101Y002961D01*
X002101Y003495D02*
X002101Y004130D01*
X002313Y004342D01*
X002525Y004342D01*
X002736Y004130D01*
X002736Y003495D01*
X002736Y002961D02*
X002736Y002114D01*
X002736Y001580D02*
X002736Y000732D01*
X003801Y000732D02*
X004648Y000732D01*
X005072Y001156D01*
X004648Y001580D01*
X003801Y001580D01*
X003801Y002114D02*
X005072Y002114D01*
X005072Y002749D01*
X004860Y002961D01*
X004436Y002961D01*
X004225Y002749D01*
X004225Y002114D01*
X004436Y001580D02*
X004436Y000732D01*
X004436Y003495D02*
X004436Y003918D01*
X003801Y003495D02*
X003801Y004342D01*
X003801Y004876D02*
X005072Y005723D01*
X005072Y004876D02*
X003801Y005723D01*
X003160Y004342D02*
X003372Y004130D01*
X003372Y003495D01*
X002101Y003495D01*
X002736Y004130D02*
X002948Y004342D01*
X003160Y004342D01*
X003801Y003495D02*
X005072Y003495D01*
X005072Y004342D01*
D11*
X001637Y000700D02*
X000786Y000700D01*
X001070Y000700D02*
X001070Y001125D01*
X001212Y001267D01*
X001495Y001267D01*
X001637Y001125D01*
X001637Y000700D01*
X001637Y001621D02*
X000786Y001621D01*
X000786Y002188D02*
X001212Y002188D01*
X001354Y002046D01*
X001354Y001762D01*
X001212Y001621D01*
X001354Y002541D02*
X001354Y002683D01*
X000786Y002683D01*
X000786Y002541D02*
X000786Y002825D01*
X000786Y003155D02*
X000786Y003439D01*
X000786Y003297D02*
X001637Y003297D01*
X001637Y003155D01*
X001637Y002683D02*
X001779Y002683D01*
X001354Y003769D02*
X001354Y003911D01*
X000786Y003911D01*
X000786Y003769D02*
X000786Y004053D01*
X000786Y004383D02*
X000786Y004808D01*
X000928Y004950D01*
X001212Y004950D01*
X001354Y004808D01*
X001354Y004383D01*
X000503Y004383D01*
X000786Y006225D02*
X001070Y006508D01*
X000786Y006792D01*
X001637Y006792D01*
X001637Y006225D02*
X000786Y006225D01*
X000928Y007145D02*
X001070Y007287D01*
X001070Y007713D01*
X001212Y007713D02*
X000786Y007713D01*
X000786Y007287D01*
X000928Y007145D01*
X001354Y007571D02*
X001212Y007713D01*
X001354Y007571D02*
X001354Y007287D01*
X001354Y008066D02*
X000786Y008066D01*
X000786Y008833D02*
X001354Y008833D01*
X001070Y008833D02*
X001354Y009117D01*
X001354Y009259D01*
X001212Y009601D02*
X001354Y009743D01*
X001354Y010026D01*
X001212Y010168D01*
X001070Y010168D01*
X001070Y009601D01*
X000928Y009601D02*
X001212Y009601D01*
X000928Y009601D02*
X000786Y009743D01*
X000786Y010026D01*
X000786Y010522D02*
X001354Y010522D01*
X001354Y010947D01*
X001212Y011089D01*
X000786Y011089D01*
X001354Y008492D02*
X001354Y008350D01*
X001070Y008066D01*
X001637Y003911D02*
X001779Y003911D01*
M02*
