G75*
G70*
%OFA0B0*%
%FSLAX24Y24*%
%IPPOS*%
%LPD*%
%AMOC8*
5,1,8,0,0,1.08239X$1,22.5*
%
%ADD10C,0.0900*%
%ADD11C,0.0512*%
%ADD12OC8,0.0560*%
%ADD13C,0.0640*%
%ADD14C,0.1340*%
D10*
X004668Y005654D03*
X004668Y006638D03*
X004668Y008607D03*
X004668Y009591D03*
X004668Y011154D03*
X004668Y012138D03*
X004668Y014107D03*
X004668Y015091D03*
X002699Y013123D03*
X002699Y007623D03*
D11*
X002699Y009591D03*
X001715Y009591D03*
X001715Y011154D03*
X002699Y011154D03*
X004668Y013123D03*
X002699Y015091D03*
X001715Y015091D03*
X004668Y007623D03*
X002699Y005654D03*
X001715Y005654D03*
D12*
X010799Y019173D03*
X011799Y019173D03*
D13*
X008299Y018623D02*
X008299Y018023D01*
X007299Y018023D02*
X007299Y018623D01*
X006999Y002223D02*
X006999Y001623D01*
X005999Y001623D02*
X005999Y002223D01*
X004999Y002223D02*
X004999Y001623D01*
X003999Y001623D02*
X003999Y002223D01*
X008399Y002223D02*
X008399Y001623D01*
X009399Y001623D02*
X009399Y002223D01*
X010399Y002223D02*
X010399Y001623D01*
X011399Y001623D02*
X011399Y002223D01*
D14*
X002199Y001423D03*
X019699Y001423D03*
X019699Y018923D03*
X002199Y018923D03*
M02*
