%
M48
M72
T01C0.0200
T02C0.0320
T03C0.0400
T04C0.0472
T05C0.0512
T06C0.1300
%
T01
X10599Y7223
X11899Y5423
X18999Y5623
X14999Y7723
X14399Y8923
X12799Y9023
X16999Y11823
X14699Y12223
X14499Y13123
X15899Y16623
X16699Y18423
X12499Y12323
X7499Y5123
X6399Y7323
X9799Y6923
X1799Y16323
X10199Y11023
X8299Y11523
X5399Y13523
X5999Y13523
X18399Y4723
X9099Y6923
T02
X10799Y19173
X11799Y19173
T03
X11399Y1923
X10399Y1923
X9399Y1923
X8399Y1923
X6999Y1923
X5999Y1923
X4999Y1923
X3999Y1923
X8299Y18323
X7299Y18323
T04
X2699Y9591
X1715Y9591
X1715Y5654
X2699Y5654
X4668Y7623
X2699Y15091
X1715Y15091
X1715Y11154
X2699Y11154
X4668Y13123
T05
X2699Y7623
X4668Y8607
X4668Y9591
X4668Y6638
X4668Y5654
X2699Y13123
X4668Y14107
X4668Y15091
X4668Y12138
X4668Y11154
T06
X2199Y1423
X19699Y1423
X19699Y18923
X2199Y18923
M30
