G75*
G70*
%OFA0B0*%
%FSLAX24Y24*%
%IPPOS*%
%LPD*%
%AMOC8*
5,1,8,0,0,1.08239X$1,22.5*
%
%ADD10C,0.0000*%
%ADD11C,0.0110*%
%ADD12C,0.0060*%
%ADD13C,0.0080*%
%ADD14C,0.0090*%
%ADD15C,0.0070*%
%ADD16C,0.0050*%
%ADD17C,0.0040*%
%ADD18R,0.0042X0.0003*%
%ADD19R,0.0066X0.0003*%
%ADD20R,0.0084X0.0003*%
%ADD21R,0.0105X0.0003*%
%ADD22R,0.0117X0.0003*%
%ADD23R,0.0135X0.0003*%
%ADD24R,0.0147X0.0003*%
%ADD25R,0.0162X0.0003*%
%ADD26R,0.0174X0.0003*%
%ADD27R,0.0186X0.0003*%
%ADD28R,0.0198X0.0003*%
%ADD29R,0.0210X0.0003*%
%ADD30R,0.0222X0.0003*%
%ADD31R,0.0234X0.0003*%
%ADD32R,0.0243X0.0003*%
%ADD33R,0.0255X0.0003*%
%ADD34R,0.0264X0.0003*%
%ADD35R,0.0273X0.0003*%
%ADD36R,0.0285X0.0003*%
%ADD37R,0.0297X0.0003*%
%ADD38R,0.0303X0.0003*%
%ADD39R,0.0315X0.0003*%
%ADD40R,0.0327X0.0003*%
%ADD41R,0.0333X0.0003*%
%ADD42R,0.0345X0.0003*%
%ADD43R,0.0354X0.0003*%
%ADD44R,0.0363X0.0003*%
%ADD45R,0.0372X0.0003*%
%ADD46R,0.0381X0.0003*%
%ADD47R,0.0390X0.0003*%
%ADD48R,0.0402X0.0003*%
%ADD49R,0.0408X0.0003*%
%ADD50R,0.0420X0.0003*%
%ADD51R,0.0426X0.0003*%
%ADD52R,0.0438X0.0003*%
%ADD53R,0.0444X0.0003*%
%ADD54R,0.0456X0.0003*%
%ADD55R,0.0462X0.0003*%
%ADD56R,0.0468X0.0003*%
%ADD57R,0.0480X0.0003*%
%ADD58R,0.0486X0.0003*%
%ADD59R,0.0495X0.0003*%
%ADD60R,0.0504X0.0003*%
%ADD61R,0.0513X0.0003*%
%ADD62R,0.0522X0.0003*%
%ADD63R,0.0528X0.0003*%
%ADD64R,0.0537X0.0003*%
%ADD65R,0.0546X0.0003*%
%ADD66R,0.0555X0.0003*%
%ADD67R,0.0561X0.0003*%
%ADD68R,0.0570X0.0003*%
%ADD69R,0.0579X0.0003*%
%ADD70R,0.0585X0.0003*%
%ADD71R,0.0594X0.0003*%
%ADD72R,0.0603X0.0003*%
%ADD73R,0.0609X0.0003*%
%ADD74R,0.0618X0.0003*%
%ADD75R,0.0627X0.0003*%
%ADD76R,0.0633X0.0003*%
%ADD77R,0.0639X0.0003*%
%ADD78R,0.0651X0.0003*%
%ADD79R,0.0657X0.0003*%
%ADD80R,0.0663X0.0003*%
%ADD81R,0.0675X0.0003*%
%ADD82R,0.0681X0.0003*%
%ADD83R,0.0687X0.0003*%
%ADD84R,0.0693X0.0003*%
%ADD85R,0.0705X0.0003*%
%ADD86R,0.0711X0.0003*%
%ADD87R,0.0717X0.0003*%
%ADD88R,0.0726X0.0003*%
%ADD89R,0.0732X0.0003*%
%ADD90R,0.0741X0.0003*%
%ADD91R,0.0747X0.0003*%
%ADD92R,0.0756X0.0003*%
%ADD93R,0.0762X0.0003*%
%ADD94R,0.0771X0.0003*%
%ADD95R,0.0777X0.0003*%
%ADD96R,0.0786X0.0003*%
%ADD97R,0.0792X0.0003*%
%ADD98R,0.0798X0.0003*%
%ADD99R,0.0807X0.0003*%
%ADD100R,0.0813X0.0003*%
%ADD101R,0.0822X0.0003*%
%ADD102R,0.0828X0.0003*%
%ADD103R,0.0837X0.0003*%
%ADD104R,0.0843X0.0003*%
%ADD105R,0.0852X0.0003*%
%ADD106R,0.0858X0.0003*%
%ADD107R,0.0864X0.0003*%
%ADD108R,0.0870X0.0003*%
%ADD109R,0.0879X0.0003*%
%ADD110R,0.0885X0.0003*%
%ADD111R,0.0894X0.0003*%
%ADD112R,0.0900X0.0003*%
%ADD113R,0.0906X0.0003*%
%ADD114R,0.0912X0.0003*%
%ADD115R,0.0921X0.0003*%
%ADD116R,0.0930X0.0003*%
%ADD117R,0.0936X0.0003*%
%ADD118R,0.0942X0.0003*%
%ADD119R,0.0948X0.0003*%
%ADD120R,0.0954X0.0003*%
%ADD121R,0.0963X0.0003*%
%ADD122R,0.0972X0.0003*%
%ADD123R,0.0978X0.0003*%
%ADD124R,0.0984X0.0003*%
%ADD125R,0.0990X0.0003*%
%ADD126R,0.0996X0.0003*%
%ADD127R,0.1002X0.0003*%
%ADD128R,0.1008X0.0003*%
%ADD129R,0.1020X0.0003*%
%ADD130R,0.1026X0.0003*%
%ADD131R,0.1032X0.0003*%
%ADD132R,0.1038X0.0003*%
%ADD133R,0.1044X0.0003*%
%ADD134R,0.1050X0.0003*%
%ADD135R,0.1056X0.0003*%
%ADD136R,0.1068X0.0003*%
%ADD137R,0.1074X0.0003*%
%ADD138R,0.1080X0.0003*%
%ADD139R,0.1086X0.0003*%
%ADD140R,0.1092X0.0003*%
%ADD141R,0.1098X0.0003*%
%ADD142R,0.1104X0.0003*%
%ADD143R,0.1110X0.0003*%
%ADD144R,0.1116X0.0003*%
%ADD145R,0.1125X0.0003*%
%ADD146R,0.1131X0.0003*%
%ADD147R,0.1140X0.0003*%
%ADD148R,0.1146X0.0003*%
%ADD149R,0.1152X0.0003*%
%ADD150R,0.1158X0.0003*%
%ADD151R,0.1164X0.0003*%
%ADD152R,0.1170X0.0003*%
%ADD153R,0.1176X0.0003*%
%ADD154R,0.1182X0.0003*%
%ADD155R,0.1191X0.0003*%
%ADD156R,0.1197X0.0003*%
%ADD157R,0.1203X0.0003*%
%ADD158R,0.1209X0.0003*%
%ADD159R,0.1218X0.0003*%
%ADD160R,0.1224X0.0003*%
%ADD161R,0.1230X0.0003*%
%ADD162R,0.1236X0.0003*%
%ADD163R,0.1242X0.0003*%
%ADD164R,0.1248X0.0003*%
%ADD165R,0.1254X0.0003*%
%ADD166R,0.1260X0.0003*%
%ADD167R,0.1266X0.0003*%
%ADD168R,0.1275X0.0003*%
%ADD169R,0.1281X0.0003*%
%ADD170R,0.1287X0.0003*%
%ADD171R,0.1293X0.0003*%
%ADD172R,0.1299X0.0003*%
%ADD173R,0.1305X0.0003*%
%ADD174R,0.1314X0.0003*%
%ADD175R,0.1320X0.0003*%
%ADD176R,0.1326X0.0003*%
%ADD177R,0.1332X0.0003*%
%ADD178R,0.1338X0.0003*%
%ADD179R,0.1344X0.0003*%
%ADD180R,0.1350X0.0003*%
%ADD181R,0.1356X0.0003*%
%ADD182R,0.1362X0.0003*%
%ADD183R,0.1368X0.0003*%
%ADD184R,0.1374X0.0003*%
%ADD185R,0.1380X0.0003*%
%ADD186R,0.1386X0.0003*%
%ADD187R,0.1395X0.0003*%
%ADD188R,0.1401X0.0003*%
%ADD189R,0.1407X0.0003*%
%ADD190R,0.1413X0.0003*%
%ADD191R,0.1419X0.0003*%
%ADD192R,0.1425X0.0003*%
%ADD193R,0.1431X0.0003*%
%ADD194R,0.1437X0.0003*%
%ADD195R,0.1443X0.0003*%
%ADD196R,0.1449X0.0003*%
%ADD197R,0.1455X0.0003*%
%ADD198R,0.1461X0.0003*%
%ADD199R,0.1467X0.0003*%
%ADD200R,0.1473X0.0003*%
%ADD201R,0.1479X0.0003*%
%ADD202R,0.1485X0.0003*%
%ADD203R,0.1491X0.0003*%
%ADD204R,0.1497X0.0003*%
%ADD205R,0.1503X0.0003*%
%ADD206R,0.1509X0.0003*%
%ADD207R,0.1515X0.0003*%
%ADD208R,0.1521X0.0003*%
%ADD209R,0.1527X0.0003*%
%ADD210R,0.1533X0.0003*%
%ADD211R,0.1539X0.0003*%
%ADD212R,0.1545X0.0003*%
%ADD213R,0.1551X0.0003*%
%ADD214R,0.1557X0.0003*%
%ADD215R,0.1563X0.0003*%
%ADD216R,0.1569X0.0003*%
%ADD217R,0.1575X0.0003*%
%ADD218R,0.1581X0.0003*%
%ADD219R,0.1587X0.0003*%
%ADD220R,0.1593X0.0003*%
%ADD221R,0.1599X0.0003*%
%ADD222R,0.1605X0.0003*%
%ADD223R,0.1611X0.0003*%
%ADD224R,0.1617X0.0003*%
%ADD225R,0.1623X0.0003*%
%ADD226R,0.1629X0.0003*%
%ADD227R,0.1635X0.0003*%
%ADD228R,0.1641X0.0003*%
%ADD229R,0.1647X0.0003*%
%ADD230R,0.1653X0.0003*%
%ADD231R,0.1659X0.0003*%
%ADD232R,0.1665X0.0003*%
%ADD233R,0.1671X0.0003*%
%ADD234R,0.1677X0.0003*%
%ADD235R,0.1683X0.0003*%
%ADD236R,0.1686X0.0003*%
%ADD237R,0.1692X0.0003*%
%ADD238R,0.1698X0.0003*%
%ADD239R,0.1704X0.0003*%
%ADD240R,0.1710X0.0003*%
%ADD241R,0.1716X0.0003*%
%ADD242R,0.1722X0.0003*%
%ADD243R,0.1728X0.0003*%
%ADD244R,0.1734X0.0003*%
%ADD245R,0.1740X0.0003*%
%ADD246R,0.1746X0.0003*%
%ADD247R,0.1752X0.0003*%
%ADD248R,0.1758X0.0003*%
%ADD249R,0.1764X0.0003*%
%ADD250R,0.1767X0.0003*%
%ADD251R,0.1773X0.0003*%
%ADD252R,0.1779X0.0003*%
%ADD253R,0.1785X0.0003*%
%ADD254R,0.1791X0.0003*%
%ADD255R,0.1797X0.0003*%
%ADD256R,0.1803X0.0003*%
%ADD257R,0.1809X0.0003*%
%ADD258R,0.1815X0.0003*%
%ADD259R,0.1818X0.0003*%
%ADD260R,0.1824X0.0003*%
%ADD261R,0.1830X0.0003*%
%ADD262R,0.1836X0.0003*%
%ADD263R,0.1842X0.0003*%
%ADD264R,0.1848X0.0003*%
%ADD265R,0.1854X0.0003*%
%ADD266R,0.1860X0.0003*%
%ADD267R,0.1863X0.0003*%
%ADD268R,0.1869X0.0003*%
%ADD269R,0.1875X0.0003*%
%ADD270R,0.1881X0.0003*%
%ADD271R,0.1887X0.0003*%
%ADD272R,0.1890X0.0003*%
%ADD273R,0.1896X0.0003*%
%ADD274R,0.1902X0.0003*%
%ADD275R,0.1908X0.0003*%
%ADD276R,0.1914X0.0003*%
%ADD277R,0.1920X0.0003*%
%ADD278R,0.1926X0.0003*%
%ADD279R,0.1932X0.0003*%
%ADD280R,0.1938X0.0003*%
%ADD281R,0.1941X0.0003*%
%ADD282R,0.1947X0.0003*%
%ADD283R,0.1953X0.0003*%
%ADD284R,0.1959X0.0003*%
%ADD285R,0.1962X0.0003*%
%ADD286R,0.1968X0.0003*%
%ADD287R,0.1974X0.0003*%
%ADD288R,0.1980X0.0003*%
%ADD289R,0.1986X0.0003*%
%ADD290R,0.1992X0.0003*%
%ADD291R,0.1998X0.0003*%
%ADD292R,0.2004X0.0003*%
%ADD293R,0.2007X0.0003*%
%ADD294R,0.2013X0.0003*%
%ADD295R,0.2019X0.0003*%
%ADD296R,0.2022X0.0003*%
%ADD297R,0.2028X0.0003*%
%ADD298R,0.2034X0.0003*%
%ADD299R,0.2040X0.0003*%
%ADD300R,0.2046X0.0003*%
%ADD301R,0.2052X0.0003*%
%ADD302R,0.2055X0.0003*%
%ADD303R,0.2061X0.0003*%
%ADD304R,0.2067X0.0003*%
%ADD305R,0.2070X0.0003*%
%ADD306R,0.2076X0.0003*%
%ADD307R,0.2082X0.0003*%
%ADD308R,0.2088X0.0003*%
%ADD309R,0.2094X0.0003*%
%ADD310R,0.2100X0.0003*%
%ADD311R,0.2106X0.0003*%
%ADD312R,0.2109X0.0003*%
%ADD313R,0.2115X0.0003*%
%ADD314R,0.2118X0.0003*%
%ADD315R,0.2124X0.0003*%
%ADD316R,0.2130X0.0003*%
%ADD317R,0.2136X0.0003*%
%ADD318R,0.2142X0.0003*%
%ADD319R,0.2148X0.0003*%
%ADD320R,0.2154X0.0003*%
%ADD321R,0.2157X0.0003*%
%ADD322R,0.2160X0.0003*%
%ADD323R,0.2166X0.0003*%
%ADD324R,0.2172X0.0003*%
%ADD325R,0.2178X0.0003*%
%ADD326R,0.2184X0.0003*%
%ADD327R,0.2190X0.0003*%
%ADD328R,0.2196X0.0003*%
%ADD329R,0.2196X0.0003*%
%ADD330R,0.2202X0.0003*%
%ADD331R,0.2208X0.0003*%
%ADD332R,0.2214X0.0003*%
%ADD333R,0.2220X0.0003*%
%ADD334R,0.2226X0.0003*%
%ADD335R,0.2232X0.0003*%
%ADD336R,0.2238X0.0003*%
%ADD337R,0.2244X0.0003*%
%ADD338R,0.2250X0.0003*%
%ADD339R,0.2256X0.0003*%
%ADD340R,0.2262X0.0003*%
%ADD341R,0.2268X0.0003*%
%ADD342R,0.2274X0.0003*%
%ADD343R,0.2274X0.0003*%
%ADD344R,0.2280X0.0003*%
%ADD345R,0.2286X0.0003*%
%ADD346R,0.2292X0.0003*%
%ADD347R,0.2298X0.0003*%
%ADD348R,0.2304X0.0003*%
%ADD349R,0.2304X0.0003*%
%ADD350R,0.2310X0.0003*%
%ADD351R,0.2316X0.0003*%
%ADD352R,0.2322X0.0003*%
%ADD353R,0.2328X0.0003*%
%ADD354R,0.2334X0.0003*%
%ADD355R,0.2337X0.0003*%
%ADD356R,0.2340X0.0003*%
%ADD357R,0.2346X0.0003*%
%ADD358R,0.2352X0.0003*%
%ADD359R,0.2358X0.0003*%
%ADD360R,0.2364X0.0003*%
%ADD361R,0.2367X0.0003*%
%ADD362R,0.2373X0.0003*%
%ADD363R,0.2376X0.0003*%
%ADD364R,0.2382X0.0003*%
%ADD365R,0.2388X0.0003*%
%ADD366R,0.2394X0.0003*%
%ADD367R,0.2397X0.0003*%
%ADD368R,0.2400X0.0003*%
%ADD369R,0.2406X0.0003*%
%ADD370R,0.2412X0.0003*%
%ADD371R,0.2418X0.0003*%
%ADD372R,0.2424X0.0003*%
%ADD373R,0.2427X0.0003*%
%ADD374R,0.2430X0.0003*%
%ADD375R,0.2436X0.0003*%
%ADD376R,0.2442X0.0003*%
%ADD377R,0.2448X0.0003*%
%ADD378R,0.2454X0.0003*%
%ADD379R,0.2457X0.0003*%
%ADD380R,0.2460X0.0003*%
%ADD381R,0.2466X0.0003*%
%ADD382R,0.2472X0.0003*%
%ADD383R,0.2478X0.0003*%
%ADD384R,0.2481X0.0003*%
%ADD385R,0.2487X0.0003*%
%ADD386R,0.2490X0.0003*%
%ADD387R,0.2496X0.0003*%
%ADD388R,0.2502X0.0003*%
%ADD389R,0.2505X0.0003*%
%ADD390R,0.2511X0.0003*%
%ADD391R,0.2514X0.0003*%
%ADD392R,0.2520X0.0003*%
%ADD393R,0.2526X0.0003*%
%ADD394R,0.2529X0.0003*%
%ADD395R,0.2535X0.0003*%
%ADD396R,0.2538X0.0003*%
%ADD397R,0.2544X0.0003*%
%ADD398R,0.2550X0.0003*%
%ADD399R,0.2553X0.0003*%
%ADD400R,0.2559X0.0003*%
%ADD401R,0.2562X0.0003*%
%ADD402R,0.2568X0.0003*%
%ADD403R,0.2574X0.0003*%
%ADD404R,0.2577X0.0003*%
%ADD405R,0.2583X0.0003*%
%ADD406R,0.2586X0.0003*%
%ADD407R,0.2592X0.0003*%
%ADD408R,0.2598X0.0003*%
%ADD409R,0.2601X0.0003*%
%ADD410R,0.2607X0.0003*%
%ADD411R,0.2610X0.0003*%
%ADD412R,0.2616X0.0003*%
%ADD413R,0.2619X0.0003*%
%ADD414R,0.2625X0.0003*%
%ADD415R,0.2631X0.0003*%
%ADD416R,0.2634X0.0003*%
%ADD417R,0.2640X0.0003*%
%ADD418R,0.2643X0.0003*%
%ADD419R,0.2649X0.0003*%
%ADD420R,0.2655X0.0003*%
%ADD421R,0.2658X0.0003*%
%ADD422R,0.2661X0.0003*%
%ADD423R,0.2667X0.0003*%
%ADD424R,0.2673X0.0003*%
%ADD425R,0.2676X0.0003*%
%ADD426R,0.2682X0.0003*%
%ADD427R,0.2685X0.0003*%
%ADD428R,0.2691X0.0003*%
%ADD429R,0.2697X0.0003*%
%ADD430R,0.2700X0.0003*%
%ADD431R,0.2703X0.0003*%
%ADD432R,0.2709X0.0003*%
%ADD433R,0.2715X0.0003*%
%ADD434R,0.2718X0.0003*%
%ADD435R,0.2721X0.0003*%
%ADD436R,0.2727X0.0003*%
%ADD437R,0.2733X0.0003*%
%ADD438R,0.2739X0.0003*%
%ADD439R,0.2739X0.0003*%
%ADD440R,0.2745X0.0003*%
%ADD441R,0.2751X0.0003*%
%ADD442R,0.2757X0.0003*%
%ADD443R,0.2757X0.0003*%
%ADD444R,0.2763X0.0003*%
%ADD445R,0.2769X0.0003*%
%ADD446R,0.2775X0.0003*%
%ADD447R,0.2781X0.0003*%
%ADD448R,0.2787X0.0003*%
%ADD449R,0.2793X0.0003*%
%ADD450R,0.2799X0.0003*%
%ADD451R,0.2805X0.0003*%
%ADD452R,0.2811X0.0003*%
%ADD453R,0.2817X0.0003*%
%ADD454R,0.2823X0.0003*%
%ADD455R,0.2829X0.0003*%
%ADD456R,0.2829X0.0003*%
%ADD457R,0.2835X0.0003*%
%ADD458R,0.2841X0.0003*%
%ADD459R,0.2847X0.0003*%
%ADD460R,0.2847X0.0003*%
%ADD461R,0.2853X0.0003*%
%ADD462R,0.2859X0.0003*%
%ADD463R,0.2865X0.0003*%
%ADD464R,0.2871X0.0003*%
%ADD465R,0.2877X0.0003*%
%ADD466R,0.2880X0.0003*%
%ADD467R,0.2883X0.0003*%
%ADD468R,0.2889X0.0003*%
%ADD469R,0.2895X0.0003*%
%ADD470R,0.2898X0.0003*%
%ADD471R,0.2901X0.0003*%
%ADD472R,0.2907X0.0003*%
%ADD473R,0.2910X0.0003*%
%ADD474R,0.2913X0.0003*%
%ADD475R,0.2919X0.0003*%
%ADD476R,0.2925X0.0003*%
%ADD477R,0.2928X0.0003*%
%ADD478R,0.2931X0.0003*%
%ADD479R,0.2937X0.0003*%
%ADD480R,0.2940X0.0003*%
%ADD481R,0.2946X0.0003*%
%ADD482R,0.2949X0.0003*%
%ADD483R,0.2955X0.0003*%
%ADD484R,0.2958X0.0003*%
%ADD485R,0.2961X0.0003*%
%ADD486R,0.2967X0.0003*%
%ADD487R,0.2970X0.0003*%
%ADD488R,0.2973X0.0003*%
%ADD489R,0.2979X0.0003*%
%ADD490R,0.2985X0.0003*%
%ADD491R,0.2988X0.0003*%
%ADD492R,0.2991X0.0003*%
%ADD493R,0.2997X0.0003*%
%ADD494R,0.3000X0.0003*%
%ADD495R,0.3003X0.0003*%
%ADD496R,0.3009X0.0003*%
%ADD497R,0.3015X0.0003*%
%ADD498R,0.3018X0.0003*%
%ADD499R,0.3021X0.0003*%
%ADD500R,0.3027X0.0003*%
%ADD501R,0.3030X0.0003*%
%ADD502R,0.3033X0.0003*%
%ADD503R,0.3039X0.0003*%
%ADD504R,0.3042X0.0003*%
%ADD505R,0.3045X0.0003*%
%ADD506R,0.3051X0.0003*%
%ADD507R,0.3054X0.0003*%
%ADD508R,0.3060X0.0003*%
%ADD509R,0.3063X0.0003*%
%ADD510R,0.3066X0.0003*%
%ADD511R,0.3072X0.0003*%
%ADD512R,0.3075X0.0003*%
%ADD513R,0.3081X0.0003*%
%ADD514R,0.3084X0.0003*%
%ADD515R,0.3090X0.0003*%
%ADD516R,0.3093X0.0003*%
%ADD517R,0.3096X0.0003*%
%ADD518R,0.3102X0.0003*%
%ADD519R,0.3105X0.0003*%
%ADD520R,0.3108X0.0003*%
%ADD521R,0.3114X0.0003*%
%ADD522R,0.3117X0.0003*%
%ADD523R,0.3120X0.0003*%
%ADD524R,0.3126X0.0003*%
%ADD525R,0.3129X0.0003*%
%ADD526R,0.3132X0.0003*%
%ADD527R,0.3138X0.0003*%
%ADD528R,0.3141X0.0003*%
%ADD529R,0.3144X0.0003*%
%ADD530R,0.3150X0.0003*%
%ADD531R,0.3153X0.0003*%
%ADD532R,0.3156X0.0003*%
%ADD533R,0.3162X0.0003*%
%ADD534R,0.3165X0.0003*%
%ADD535R,0.3168X0.0003*%
%ADD536R,0.3174X0.0003*%
%ADD537R,0.3180X0.0003*%
%ADD538R,0.3186X0.0003*%
%ADD539R,0.3186X0.0003*%
%ADD540R,0.3192X0.0003*%
%ADD541R,0.3198X0.0003*%
%ADD542R,0.3204X0.0003*%
%ADD543R,0.3210X0.0003*%
%ADD544R,0.3216X0.0003*%
%ADD545R,0.3222X0.0003*%
%ADD546R,0.3222X0.0003*%
%ADD547R,0.3228X0.0003*%
%ADD548R,0.3234X0.0003*%
%ADD549R,0.3240X0.0003*%
%ADD550R,0.3246X0.0003*%
%ADD551R,0.3246X0.0003*%
%ADD552R,0.3252X0.0003*%
%ADD553R,0.3255X0.0003*%
%ADD554R,0.3258X0.0003*%
%ADD555R,0.3264X0.0003*%
%ADD556R,0.3264X0.0003*%
%ADD557R,0.3270X0.0003*%
%ADD558R,0.3276X0.0003*%
%ADD559R,0.3282X0.0003*%
%ADD560R,0.3288X0.0003*%
%ADD561R,0.3294X0.0003*%
%ADD562R,0.3297X0.0003*%
%ADD563R,0.3300X0.0003*%
%ADD564R,0.3306X0.0003*%
%ADD565R,0.3312X0.0003*%
%ADD566R,0.3318X0.0003*%
%ADD567R,0.3318X0.0003*%
%ADD568R,0.3324X0.0003*%
%ADD569R,0.3327X0.0003*%
%ADD570R,0.3330X0.0003*%
%ADD571R,0.3336X0.0003*%
%ADD572R,0.3339X0.0003*%
%ADD573R,0.3342X0.0003*%
%ADD574R,0.3345X0.0003*%
%ADD575R,0.3348X0.0003*%
%ADD576R,0.3354X0.0003*%
%ADD577R,0.3357X0.0003*%
%ADD578R,0.3360X0.0003*%
%ADD579R,0.3363X0.0003*%
%ADD580R,0.3366X0.0003*%
%ADD581R,0.3372X0.0003*%
%ADD582R,0.3375X0.0003*%
%ADD583R,0.3378X0.0003*%
%ADD584R,0.3381X0.0003*%
%ADD585R,0.3384X0.0003*%
%ADD586R,0.3390X0.0003*%
%ADD587R,0.3393X0.0003*%
%ADD588R,0.3396X0.0003*%
%ADD589R,0.3399X0.0003*%
%ADD590R,0.3405X0.0003*%
%ADD591R,0.3408X0.0003*%
%ADD592R,0.3411X0.0003*%
%ADD593R,0.3414X0.0003*%
%ADD594R,0.3417X0.0003*%
%ADD595R,0.3423X0.0003*%
%ADD596R,0.3426X0.0003*%
%ADD597R,0.3429X0.0003*%
%ADD598R,0.3432X0.0003*%
%ADD599R,0.3435X0.0003*%
%ADD600R,0.3441X0.0003*%
%ADD601R,0.3444X0.0003*%
%ADD602R,0.3447X0.0003*%
%ADD603R,0.3450X0.0003*%
%ADD604R,0.3453X0.0003*%
%ADD605R,0.3459X0.0003*%
%ADD606R,0.3465X0.0003*%
%ADD607R,0.3468X0.0003*%
%ADD608R,0.3471X0.0003*%
%ADD609R,0.3474X0.0003*%
%ADD610R,0.3477X0.0003*%
%ADD611R,0.3483X0.0003*%
%ADD612R,0.3483X0.0003*%
%ADD613R,0.3489X0.0003*%
%ADD614R,0.3495X0.0003*%
%ADD615R,0.3501X0.0003*%
%ADD616R,0.3501X0.0003*%
%ADD617R,0.3507X0.0003*%
%ADD618R,0.3513X0.0003*%
%ADD619R,0.3513X0.0003*%
%ADD620R,0.3519X0.0003*%
%ADD621R,0.3525X0.0003*%
%ADD622R,0.3531X0.0003*%
%ADD623R,0.3531X0.0003*%
%ADD624R,0.3537X0.0003*%
%ADD625R,0.3543X0.0003*%
%ADD626R,0.3549X0.0003*%
%ADD627R,0.3555X0.0003*%
%ADD628R,0.3561X0.0003*%
%ADD629R,0.3567X0.0003*%
%ADD630R,0.3567X0.0003*%
%ADD631R,0.3573X0.0003*%
%ADD632R,0.3579X0.0003*%
%ADD633R,0.3579X0.0003*%
%ADD634R,0.3585X0.0003*%
%ADD635R,0.3588X0.0003*%
%ADD636R,0.3591X0.0003*%
%ADD637R,0.3597X0.0003*%
%ADD638R,0.3597X0.0003*%
%ADD639R,0.3603X0.0003*%
%ADD640R,0.3609X0.0003*%
%ADD641R,0.3615X0.0003*%
%ADD642R,0.3615X0.0003*%
%ADD643R,0.3621X0.0003*%
%ADD644R,0.3624X0.0003*%
%ADD645R,0.3627X0.0003*%
%ADD646R,0.3630X0.0003*%
%ADD647R,0.3633X0.0003*%
%ADD648R,0.3636X0.0003*%
%ADD649R,0.3639X0.0003*%
%ADD650R,0.3642X0.0003*%
%ADD651R,0.3645X0.0003*%
%ADD652R,0.3648X0.0003*%
%ADD653R,0.1050X0.0003*%
%ADD654R,0.2469X0.0003*%
%ADD655R,0.1053X0.0003*%
%ADD656R,0.1056X0.0003*%
%ADD657R,0.2472X0.0003*%
%ADD658R,0.2475X0.0003*%
%ADD659R,0.1059X0.0003*%
%ADD660R,0.2478X0.0003*%
%ADD661R,0.1062X0.0003*%
%ADD662R,0.1062X0.0003*%
%ADD663R,0.2481X0.0003*%
%ADD664R,0.1065X0.0003*%
%ADD665R,0.2481X0.0003*%
%ADD666R,0.2484X0.0003*%
%ADD667R,0.1068X0.0003*%
%ADD668R,0.2487X0.0003*%
%ADD669R,0.1071X0.0003*%
%ADD670R,0.2487X0.0003*%
%ADD671R,0.1071X0.0003*%
%ADD672R,0.1074X0.0003*%
%ADD673R,0.2493X0.0003*%
%ADD674R,0.1077X0.0003*%
%ADD675R,0.1077X0.0003*%
%ADD676R,0.2496X0.0003*%
%ADD677R,0.2499X0.0003*%
%ADD678R,0.1083X0.0003*%
%ADD679R,0.2502X0.0003*%
%ADD680R,0.1086X0.0003*%
%ADD681R,0.1089X0.0003*%
%ADD682R,0.2508X0.0003*%
%ADD683R,0.1092X0.0003*%
%ADD684R,0.2511X0.0003*%
%ADD685R,0.1095X0.0003*%
%ADD686R,0.2511X0.0003*%
%ADD687R,0.2514X0.0003*%
%ADD688R,0.1098X0.0003*%
%ADD689R,0.1101X0.0003*%
%ADD690R,0.2517X0.0003*%
%ADD691R,0.1101X0.0003*%
%ADD692R,0.1104X0.0003*%
%ADD693R,0.1107X0.0003*%
%ADD694R,0.2523X0.0003*%
%ADD695R,0.1107X0.0003*%
%ADD696R,0.2523X0.0003*%
%ADD697R,0.2526X0.0003*%
%ADD698R,0.1113X0.0003*%
%ADD699R,0.1113X0.0003*%
%ADD700R,0.2532X0.0003*%
%ADD701R,0.1116X0.0003*%
%ADD702R,0.2532X0.0003*%
%ADD703R,0.1119X0.0003*%
%ADD704R,0.1122X0.0003*%
%ADD705R,0.2538X0.0003*%
%ADD706R,0.1122X0.0003*%
%ADD707R,0.2538X0.0003*%
%ADD708R,0.2541X0.0003*%
%ADD709R,0.1128X0.0003*%
%ADD710R,0.2544X0.0003*%
%ADD711R,0.1128X0.0003*%
%ADD712R,0.2544X0.0003*%
%ADD713R,0.1131X0.0003*%
%ADD714R,0.2547X0.0003*%
%ADD715R,0.1134X0.0003*%
%ADD716R,0.2550X0.0003*%
%ADD717R,0.1134X0.0003*%
%ADD718R,0.1137X0.0003*%
%ADD719R,0.2556X0.0003*%
%ADD720R,0.1140X0.0003*%
%ADD721R,0.2559X0.0003*%
%ADD722R,0.1143X0.0003*%
%ADD723R,0.1149X0.0003*%
%ADD724R,0.2565X0.0003*%
%ADD725R,0.1149X0.0003*%
%ADD726R,0.2565X0.0003*%
%ADD727R,0.1152X0.0003*%
%ADD728R,0.2568X0.0003*%
%ADD729R,0.1155X0.0003*%
%ADD730R,0.2571X0.0003*%
%ADD731R,0.1155X0.0003*%
%ADD732R,0.2571X0.0003*%
%ADD733R,0.1158X0.0003*%
%ADD734R,0.2574X0.0003*%
%ADD735R,0.1161X0.0003*%
%ADD736R,0.2577X0.0003*%
%ADD737R,0.1161X0.0003*%
%ADD738R,0.2577X0.0003*%
%ADD739R,0.1164X0.0003*%
%ADD740R,0.2580X0.0003*%
%ADD741R,0.1167X0.0003*%
%ADD742R,0.1167X0.0003*%
%ADD743R,0.2583X0.0003*%
%ADD744R,0.1173X0.0003*%
%ADD745R,0.1173X0.0003*%
%ADD746R,0.2589X0.0003*%
%ADD747R,0.2589X0.0003*%
%ADD748R,0.1179X0.0003*%
%ADD749R,0.1179X0.0003*%
%ADD750R,0.2595X0.0003*%
%ADD751R,0.2595X0.0003*%
%ADD752R,0.1182X0.0003*%
%ADD753R,0.2598X0.0003*%
%ADD754R,0.1185X0.0003*%
%ADD755R,0.1185X0.0003*%
%ADD756R,0.2601X0.0003*%
%ADD757R,0.2601X0.0003*%
%ADD758R,0.1188X0.0003*%
%ADD759R,0.2604X0.0003*%
%ADD760R,0.1191X0.0003*%
%ADD761R,0.1191X0.0003*%
%ADD762R,0.2604X0.0003*%
%ADD763R,0.2607X0.0003*%
%ADD764R,0.1194X0.0003*%
%ADD765R,0.1197X0.0003*%
%ADD766R,0.2610X0.0003*%
%ADD767R,0.0546X0.0003*%
%ADD768R,0.0219X0.0003*%
%ADD769R,0.0819X0.0003*%
%ADD770R,0.1410X0.0003*%
%ADD771R,0.0561X0.0003*%
%ADD772R,0.0195X0.0003*%
%ADD773R,0.0768X0.0003*%
%ADD774R,0.1374X0.0003*%
%ADD775R,0.0516X0.0003*%
%ADD776R,0.0549X0.0003*%
%ADD777R,0.0183X0.0003*%
%ADD778R,0.0741X0.0003*%
%ADD779R,0.1353X0.0003*%
%ADD780R,0.0534X0.0003*%
%ADD781R,0.0171X0.0003*%
%ADD782R,0.0708X0.0003*%
%ADD783R,0.1335X0.0003*%
%ADD784R,0.0522X0.0003*%
%ADD785R,0.0159X0.0003*%
%ADD786R,0.0684X0.0003*%
%ADD787R,0.1317X0.0003*%
%ADD788R,0.0489X0.0003*%
%ADD789R,0.0150X0.0003*%
%ADD790R,0.0666X0.0003*%
%ADD791R,0.1311X0.0003*%
%ADD792R,0.0231X0.0003*%
%ADD793R,0.0141X0.0003*%
%ADD794R,0.0645X0.0003*%
%ADD795R,0.0219X0.0003*%
%ADD796R,0.0429X0.0003*%
%ADD797R,0.0348X0.0003*%
%ADD798R,0.0477X0.0003*%
%ADD799R,0.0144X0.0003*%
%ADD800R,0.0132X0.0003*%
%ADD801R,0.0627X0.0003*%
%ADD802R,0.0207X0.0003*%
%ADD803R,0.0423X0.0003*%
%ADD804R,0.0471X0.0003*%
%ADD805R,0.0126X0.0003*%
%ADD806R,0.0612X0.0003*%
%ADD807R,0.0201X0.0003*%
%ADD808R,0.0468X0.0003*%
%ADD809R,0.0129X0.0003*%
%ADD810R,0.0231X0.0003*%
%ADD811R,0.0120X0.0003*%
%ADD812R,0.0597X0.0003*%
%ADD813R,0.0189X0.0003*%
%ADD814R,0.0417X0.0003*%
%ADD815R,0.0357X0.0003*%
%ADD816R,0.0123X0.0003*%
%ADD817R,0.0114X0.0003*%
%ADD818R,0.0582X0.0003*%
%ADD819R,0.0411X0.0003*%
%ADD820R,0.0357X0.0003*%
%ADD821R,0.0456X0.0003*%
%ADD822R,0.0108X0.0003*%
%ADD823R,0.0177X0.0003*%
%ADD824R,0.0363X0.0003*%
%ADD825R,0.0453X0.0003*%
%ADD826R,0.0108X0.0003*%
%ADD827R,0.0102X0.0003*%
%ADD828R,0.0558X0.0003*%
%ADD829R,0.0171X0.0003*%
%ADD830R,0.0405X0.0003*%
%ADD831R,0.0366X0.0003*%
%ADD832R,0.0450X0.0003*%
%ADD833R,0.0096X0.0003*%
%ADD834R,0.0543X0.0003*%
%ADD835R,0.0165X0.0003*%
%ADD836R,0.0444X0.0003*%
%ADD837R,0.0099X0.0003*%
%ADD838R,0.0234X0.0003*%
%ADD839R,0.0090X0.0003*%
%ADD840R,0.0534X0.0003*%
%ADD841R,0.0162X0.0003*%
%ADD842R,0.0399X0.0003*%
%ADD843R,0.0372X0.0003*%
%ADD844R,0.0093X0.0003*%
%ADD845R,0.0087X0.0003*%
%ADD846R,0.0153X0.0003*%
%ADD847R,0.0393X0.0003*%
%ADD848R,0.0375X0.0003*%
%ADD849R,0.0441X0.0003*%
%ADD850R,0.0081X0.0003*%
%ADD851R,0.0435X0.0003*%
%ADD852R,0.0237X0.0003*%
%ADD853R,0.0078X0.0003*%
%ADD854R,0.0501X0.0003*%
%ADD855R,0.0147X0.0003*%
%ADD856R,0.0387X0.0003*%
%ADD857R,0.0381X0.0003*%
%ADD858R,0.0078X0.0003*%
%ADD859R,0.0072X0.0003*%
%ADD860R,0.0384X0.0003*%
%ADD861R,0.0432X0.0003*%
%ADD862R,0.0075X0.0003*%
%ADD863R,0.0237X0.0003*%
%ADD864R,0.0069X0.0003*%
%ADD865R,0.0483X0.0003*%
%ADD866R,0.0381X0.0003*%
%ADD867R,0.0384X0.0003*%
%ADD868R,0.0069X0.0003*%
%ADD869R,0.0066X0.0003*%
%ADD870R,0.0471X0.0003*%
%ADD871R,0.0063X0.0003*%
%ADD872R,0.0060X0.0003*%
%ADD873R,0.0465X0.0003*%
%ADD874R,0.0369X0.0003*%
%ADD875R,0.0057X0.0003*%
%ADD876R,0.0456X0.0003*%
%ADD877R,0.0156X0.0003*%
%ADD878R,0.0054X0.0003*%
%ADD879R,0.0447X0.0003*%
%ADD880R,0.0159X0.0003*%
%ADD881R,0.0399X0.0003*%
%ADD882R,0.0423X0.0003*%
%ADD883R,0.0054X0.0003*%
%ADD884R,0.0051X0.0003*%
%ADD885R,0.0441X0.0003*%
%ADD886R,0.0159X0.0003*%
%ADD887R,0.0402X0.0003*%
%ADD888R,0.0051X0.0003*%
%ADD889R,0.0240X0.0003*%
%ADD890R,0.0048X0.0003*%
%ADD891R,0.0432X0.0003*%
%ADD892R,0.0417X0.0003*%
%ADD893R,0.0045X0.0003*%
%ADD894R,0.0168X0.0003*%
%ADD895R,0.0351X0.0003*%
%ADD896R,0.0408X0.0003*%
%ADD897R,0.0042X0.0003*%
%ADD898R,0.0417X0.0003*%
%ADD899R,0.0414X0.0003*%
%ADD900R,0.0039X0.0003*%
%ADD901R,0.0411X0.0003*%
%ADD902R,0.0039X0.0003*%
%ADD903R,0.0240X0.0003*%
%ADD904R,0.0036X0.0003*%
%ADD905R,0.0177X0.0003*%
%ADD906R,0.0339X0.0003*%
%ADD907R,0.0033X0.0003*%
%ADD908R,0.0033X0.0003*%
%ADD909R,0.0396X0.0003*%
%ADD910R,0.0336X0.0003*%
%ADD911R,0.0030X0.0003*%
%ADD912R,0.0180X0.0003*%
%ADD913R,0.0027X0.0003*%
%ADD914R,0.0027X0.0003*%
%ADD915R,0.0384X0.0003*%
%ADD916R,0.0186X0.0003*%
%ADD917R,0.0330X0.0003*%
%ADD918R,0.0411X0.0003*%
%ADD919R,0.0024X0.0003*%
%ADD920R,0.0024X0.0003*%
%ADD921R,0.0378X0.0003*%
%ADD922R,0.0189X0.0003*%
%ADD923R,0.0408X0.0003*%
%ADD924R,0.0021X0.0003*%
%ADD925R,0.0021X0.0003*%
%ADD926R,0.0189X0.0003*%
%ADD927R,0.0321X0.0003*%
%ADD928R,0.0429X0.0003*%
%ADD929R,0.0018X0.0003*%
%ADD930R,0.0018X0.0003*%
%ADD931R,0.0366X0.0003*%
%ADD932R,0.0192X0.0003*%
%ADD933R,0.0318X0.0003*%
%ADD934R,0.0015X0.0003*%
%ADD935R,0.0360X0.0003*%
%ADD936R,0.0096X0.0003*%
%ADD937R,0.0315X0.0003*%
%ADD938R,0.0012X0.0003*%
%ADD939R,0.0090X0.0003*%
%ADD940R,0.0309X0.0003*%
%ADD941R,0.0009X0.0003*%
%ADD942R,0.0111X0.0003*%
%ADD943R,0.0306X0.0003*%
%ADD944R,0.0405X0.0003*%
%ADD945R,0.0006X0.0003*%
%ADD946R,0.0009X0.0003*%
%ADD947R,0.0138X0.0003*%
%ADD948R,0.0342X0.0003*%
%ADD949R,0.0207X0.0003*%
%ADD950R,0.0207X0.0003*%
%ADD951R,0.0303X0.0003*%
%ADD952R,0.0447X0.0003*%
%ADD953R,0.0162X0.0003*%
%ADD954R,0.0003X0.0003*%
%ADD955R,0.0009X0.0003*%
%ADD956R,0.0339X0.0003*%
%ADD957R,0.0234X0.0003*%
%ADD958R,0.0300X0.0003*%
%ADD959R,0.0447X0.0003*%
%ADD960R,0.0006X0.0003*%
%ADD961R,0.0252X0.0003*%
%ADD962R,0.0210X0.0003*%
%ADD963R,0.0399X0.0003*%
%ADD964R,0.0183X0.0003*%
%ADD965R,0.0243X0.0003*%
%ADD966R,0.0003X0.0003*%
%ADD967R,0.0270X0.0003*%
%ADD968R,0.0213X0.0003*%
%ADD969R,0.0291X0.0003*%
%ADD970R,0.0324X0.0003*%
%ADD971R,0.0291X0.0003*%
%ADD972R,0.0288X0.0003*%
%ADD973R,0.0399X0.0003*%
%ADD974R,0.0204X0.0003*%
%ADD975R,0.0243X0.0003*%
%ADD976R,0.0318X0.0003*%
%ADD977R,0.0219X0.0003*%
%ADD978R,0.0285X0.0003*%
%ADD979R,0.0459X0.0003*%
%ADD980R,0.0312X0.0003*%
%ADD981R,0.0321X0.0003*%
%ADD982R,0.0222X0.0003*%
%ADD983R,0.0279X0.0003*%
%ADD984R,0.0276X0.0003*%
%ADD985R,0.0231X0.0003*%
%ADD986R,0.0246X0.0003*%
%ADD987R,0.0225X0.0003*%
%ADD988R,0.0468X0.0003*%
%ADD989R,0.0396X0.0003*%
%ADD990R,0.0267X0.0003*%
%ADD991R,0.0297X0.0003*%
%ADD992R,0.0375X0.0003*%
%ADD993R,0.0474X0.0003*%
%ADD994R,0.0249X0.0003*%
%ADD995R,0.0621X0.0003*%
%ADD996R,0.0261X0.0003*%
%ADD997R,0.0282X0.0003*%
%ADD998R,0.0630X0.0003*%
%ADD999R,0.0258X0.0003*%
%ADD1000R,0.0633X0.0003*%
%ADD1001R,0.0483X0.0003*%
%ADD1002R,0.0264X0.0003*%
%ADD1003R,0.0294X0.0003*%
%ADD1004R,0.0639X0.0003*%
%ADD1005R,0.0486X0.0003*%
%ADD1006R,0.0396X0.0003*%
%ADD1007R,0.0270X0.0003*%
%ADD1008R,0.0276X0.0003*%
%ADD1009R,0.0648X0.0003*%
%ADD1010R,0.0246X0.0003*%
%ADD1011R,0.0486X0.0003*%
%ADD1012R,0.0276X0.0003*%
%ADD1013R,0.0309X0.0003*%
%ADD1014R,0.0651X0.0003*%
%ADD1015R,0.0657X0.0003*%
%ADD1016R,0.0495X0.0003*%
%ADD1017R,0.0324X0.0003*%
%ADD1018R,0.0663X0.0003*%
%ADD1019R,0.0669X0.0003*%
%ADD1020R,0.0228X0.0003*%
%ADD1021R,0.0498X0.0003*%
%ADD1022R,0.0396X0.0003*%
%ADD1023R,0.0294X0.0003*%
%ADD1024R,0.0333X0.0003*%
%ADD1025R,0.0255X0.0003*%
%ADD1026R,0.0672X0.0003*%
%ADD1027R,0.0228X0.0003*%
%ADD1028R,0.0501X0.0003*%
%ADD1029R,0.0339X0.0003*%
%ADD1030R,0.0678X0.0003*%
%ADD1031R,0.0507X0.0003*%
%ADD1032R,0.0351X0.0003*%
%ADD1033R,0.0687X0.0003*%
%ADD1034R,0.0216X0.0003*%
%ADD1035R,0.0510X0.0003*%
%ADD1036R,0.0693X0.0003*%
%ADD1037R,0.0312X0.0003*%
%ADD1038R,0.0696X0.0003*%
%ADD1039R,0.0516X0.0003*%
%ADD1040R,0.0312X0.0003*%
%ADD1041R,0.0702X0.0003*%
%ADD1042R,0.0204X0.0003*%
%ADD1043R,0.0519X0.0003*%
%ADD1044R,0.0369X0.0003*%
%ADD1045R,0.0318X0.0003*%
%ADD1046R,0.0714X0.0003*%
%ADD1047R,0.0525X0.0003*%
%ADD1048R,0.0324X0.0003*%
%ADD1049R,0.0381X0.0003*%
%ADD1050R,0.0225X0.0003*%
%ADD1051R,0.0720X0.0003*%
%ADD1052R,0.0186X0.0003*%
%ADD1053R,0.0528X0.0003*%
%ADD1054R,0.0723X0.0003*%
%ADD1055R,0.0531X0.0003*%
%ADD1056R,0.0729X0.0003*%
%ADD1057R,0.0216X0.0003*%
%ADD1058R,0.0732X0.0003*%
%ADD1059R,0.0537X0.0003*%
%ADD1060R,0.0738X0.0003*%
%ADD1061R,0.0540X0.0003*%
%ADD1062R,0.0213X0.0003*%
%ADD1063R,0.0741X0.0003*%
%ADD1064R,0.0168X0.0003*%
%ADD1065R,0.0543X0.0003*%
%ADD1066R,0.0336X0.0003*%
%ADD1067R,0.0744X0.0003*%
%ADD1068R,0.0543X0.0003*%
%ADD1069R,0.0750X0.0003*%
%ADD1070R,0.0549X0.0003*%
%ADD1071R,0.0342X0.0003*%
%ADD1072R,0.0204X0.0003*%
%ADD1073R,0.0552X0.0003*%
%ADD1074R,0.0201X0.0003*%
%ADD1075R,0.0762X0.0003*%
%ADD1076R,0.0150X0.0003*%
%ADD1077R,0.0558X0.0003*%
%ADD1078R,0.0768X0.0003*%
%ADD1079R,0.0426X0.0003*%
%ADD1080R,0.0771X0.0003*%
%ADD1081R,0.0138X0.0003*%
%ADD1082R,0.0564X0.0003*%
%ADD1083R,0.0429X0.0003*%
%ADD1084R,0.0774X0.0003*%
%ADD1085R,0.0567X0.0003*%
%ADD1086R,0.0348X0.0003*%
%ADD1087R,0.0777X0.0003*%
%ADD1088R,0.0132X0.0003*%
%ADD1089R,0.0570X0.0003*%
%ADD1090R,0.0783X0.0003*%
%ADD1091R,0.0129X0.0003*%
%ADD1092R,0.0573X0.0003*%
%ADD1093R,0.0126X0.0003*%
%ADD1094R,0.0576X0.0003*%
%ADD1095R,0.0441X0.0003*%
%ADD1096R,0.0786X0.0003*%
%ADD1097R,0.0120X0.0003*%
%ADD1098R,0.0414X0.0003*%
%ADD1099R,0.0444X0.0003*%
%ADD1100R,0.0579X0.0003*%
%ADD1101R,0.0414X0.0003*%
%ADD1102R,0.0351X0.0003*%
%ADD1103R,0.0444X0.0003*%
%ADD1104R,0.0792X0.0003*%
%ADD1105R,0.0114X0.0003*%
%ADD1106R,0.0582X0.0003*%
%ADD1107R,0.0801X0.0003*%
%ADD1108R,0.0588X0.0003*%
%ADD1109R,0.0807X0.0003*%
%ADD1110R,0.0099X0.0003*%
%ADD1111R,0.0594X0.0003*%
%ADD1112R,0.0354X0.0003*%
%ADD1113R,0.0456X0.0003*%
%ADD1114R,0.0171X0.0003*%
%ADD1115R,0.0810X0.0003*%
%ADD1116R,0.0096X0.0003*%
%ADD1117R,0.0813X0.0003*%
%ADD1118R,0.0597X0.0003*%
%ADD1119R,0.0816X0.0003*%
%ADD1120R,0.0600X0.0003*%
%ADD1121R,0.0603X0.0003*%
%ADD1122R,0.0081X0.0003*%
%ADD1123R,0.0606X0.0003*%
%ADD1124R,0.0351X0.0003*%
%ADD1125R,0.0465X0.0003*%
%ADD1126R,0.0825X0.0003*%
%ADD1127R,0.0078X0.0003*%
%ADD1128R,0.0609X0.0003*%
%ADD1129R,0.0159X0.0003*%
%ADD1130R,0.0075X0.0003*%
%ADD1131R,0.0348X0.0003*%
%ADD1132R,0.0831X0.0003*%
%ADD1133R,0.0066X0.0003*%
%ADD1134R,0.0615X0.0003*%
%ADD1135R,0.0837X0.0003*%
%ADD1136R,0.0063X0.0003*%
%ADD1137R,0.0618X0.0003*%
%ADD1138R,0.0429X0.0003*%
%ADD1139R,0.0345X0.0003*%
%ADD1140R,0.0471X0.0003*%
%ADD1141R,0.0156X0.0003*%
%ADD1142R,0.0840X0.0003*%
%ADD1143R,0.0060X0.0003*%
%ADD1144R,0.0621X0.0003*%
%ADD1145R,0.0840X0.0003*%
%ADD1146R,0.0624X0.0003*%
%ADD1147R,0.0846X0.0003*%
%ADD1148R,0.0051X0.0003*%
%ADD1149R,0.0474X0.0003*%
%ADD1150R,0.0849X0.0003*%
%ADD1151R,0.0435X0.0003*%
%ADD1152R,0.0474X0.0003*%
%ADD1153R,0.0852X0.0003*%
%ADD1154R,0.0042X0.0003*%
%ADD1155R,0.0636X0.0003*%
%ADD1156R,0.0636X0.0003*%
%ADD1157R,0.0477X0.0003*%
%ADD1158R,0.0861X0.0003*%
%ADD1159R,0.0642X0.0003*%
%ADD1160R,0.0144X0.0003*%
%ADD1161R,0.0333X0.0003*%
%ADD1162R,0.0480X0.0003*%
%ADD1163R,0.0144X0.0003*%
%ADD1164R,0.0864X0.0003*%
%ADD1165R,0.0024X0.0003*%
%ADD1166R,0.0645X0.0003*%
%ADD1167R,0.0333X0.0003*%
%ADD1168R,0.0141X0.0003*%
%ADD1169R,0.0867X0.0003*%
%ADD1170R,0.0021X0.0003*%
%ADD1171R,0.0483X0.0003*%
%ADD1172R,0.0873X0.0003*%
%ADD1173R,0.0654X0.0003*%
%ADD1174R,0.0876X0.0003*%
%ADD1175R,0.0453X0.0003*%
%ADD1176R,0.0141X0.0003*%
%ADD1177R,0.0879X0.0003*%
%ADD1178R,0.0657X0.0003*%
%ADD1179R,0.0879X0.0003*%
%ADD1180R,0.0006X0.0003*%
%ADD1181R,0.0660X0.0003*%
%ADD1182R,0.0882X0.0003*%
%ADD1183R,0.0888X0.0003*%
%ADD1184R,0.0459X0.0003*%
%ADD1185R,0.0669X0.0003*%
%ADD1186R,0.0459X0.0003*%
%ADD1187R,0.0312X0.0003*%
%ADD1188R,0.0486X0.0003*%
%ADD1189R,0.0891X0.0003*%
%ADD1190R,0.0891X0.0003*%
%ADD1191R,0.0672X0.0003*%
%ADD1192R,0.0306X0.0003*%
%ADD1193R,0.0303X0.0003*%
%ADD1194R,0.0897X0.0003*%
%ADD1195R,0.0900X0.0003*%
%ADD1196R,0.0684X0.0003*%
%ADD1197R,0.0474X0.0003*%
%ADD1198R,0.0903X0.0003*%
%ADD1199R,0.0288X0.0003*%
%ADD1200R,0.0906X0.0003*%
%ADD1201R,0.0690X0.0003*%
%ADD1202R,0.0909X0.0003*%
%ADD1203R,0.0489X0.0003*%
%ADD1204R,0.0912X0.0003*%
%ADD1205R,0.0693X0.0003*%
%ADD1206R,0.0912X0.0003*%
%ADD1207R,0.0696X0.0003*%
%ADD1208R,0.0489X0.0003*%
%ADD1209R,0.0264X0.0003*%
%ADD1210R,0.0918X0.0003*%
%ADD1211R,0.0699X0.0003*%
%ADD1212R,0.0492X0.0003*%
%ADD1213R,0.0258X0.0003*%
%ADD1214R,0.0921X0.0003*%
%ADD1215R,0.0702X0.0003*%
%ADD1216R,0.0498X0.0003*%
%ADD1217R,0.0246X0.0003*%
%ADD1218R,0.0924X0.0003*%
%ADD1219R,0.0705X0.0003*%
%ADD1220R,0.0927X0.0003*%
%ADD1221R,0.0513X0.0003*%
%ADD1222R,0.0717X0.0003*%
%ADD1223R,0.0519X0.0003*%
%ADD1224R,0.0522X0.0003*%
%ADD1225R,0.0168X0.0003*%
%ADD1226R,0.0531X0.0003*%
%ADD1227R,0.0366X0.0003*%
%ADD1228R,0.0729X0.0003*%
%ADD1229R,0.0534X0.0003*%
%ADD1230R,0.0552X0.0003*%
%ADD1231R,0.0354X0.0003*%
%ADD1232R,0.0564X0.0003*%
%ADD1233R,0.0723X0.0003*%
%ADD1234R,0.0573X0.0003*%
%ADD1235R,0.0720X0.0003*%
%ADD1236R,0.0717X0.0003*%
%ADD1237R,0.0588X0.0003*%
%ADD1238R,0.0714X0.0003*%
%ADD1239R,0.0603X0.0003*%
%ADD1240R,0.0135X0.0003*%
%ADD1241R,0.0711X0.0003*%
%ADD1242R,0.0621X0.0003*%
%ADD1243R,0.0327X0.0003*%
%ADD1244R,0.0702X0.0003*%
%ADD1245R,0.0699X0.0003*%
%ADD1246R,0.0696X0.0003*%
%ADD1247R,0.0321X0.0003*%
%ADD1248R,0.0678X0.0003*%
%ADD1249R,0.0690X0.0003*%
%ADD1250R,0.0711X0.0003*%
%ADD1251R,0.0684X0.0003*%
%ADD1252R,0.0681X0.0003*%
%ADD1253R,0.0738X0.0003*%
%ADD1254R,0.0309X0.0003*%
%ADD1255R,0.0681X0.0003*%
%ADD1256R,0.0753X0.0003*%
%ADD1257R,0.0147X0.0003*%
%ADD1258R,0.0774X0.0003*%
%ADD1259R,0.0789X0.0003*%
%ADD1260R,0.0819X0.0003*%
%ADD1261R,0.0477X0.0003*%
%ADD1262R,0.0438X0.0003*%
%ADD1263R,0.0300X0.0003*%
%ADD1264R,0.0018X0.0003*%
%ADD1265R,0.0933X0.0003*%
%ADD1266R,0.0021X0.0003*%
%ADD1267R,0.0294X0.0003*%
%ADD1268R,0.0153X0.0003*%
%ADD1269R,0.0933X0.0003*%
%ADD1270R,0.0291X0.0003*%
%ADD1271R,0.0033X0.0003*%
%ADD1272R,0.0663X0.0003*%
%ADD1273R,0.0156X0.0003*%
%ADD1274R,0.0039X0.0003*%
%ADD1275R,0.0048X0.0003*%
%ADD1276R,0.0462X0.0003*%
%ADD1277R,0.0651X0.0003*%
%ADD1278R,0.0282X0.0003*%
%ADD1279R,0.0648X0.0003*%
%ADD1280R,0.0246X0.0003*%
%ADD1281R,0.0453X0.0003*%
%ADD1282R,0.0450X0.0003*%
%ADD1283R,0.0420X0.0003*%
%ADD1284R,0.0069X0.0003*%
%ADD1285R,0.0639X0.0003*%
%ADD1286R,0.0273X0.0003*%
%ADD1287R,0.0174X0.0003*%
%ADD1288R,0.0087X0.0003*%
%ADD1289R,0.0630X0.0003*%
%ADD1290R,0.0624X0.0003*%
%ADD1291R,0.0099X0.0003*%
%ADD1292R,0.0930X0.0003*%
%ADD1293R,0.0249X0.0003*%
%ADD1294R,0.0426X0.0003*%
%ADD1295R,0.0186X0.0003*%
%ADD1296R,0.0108X0.0003*%
%ADD1297R,0.0111X0.0003*%
%ADD1298R,0.0423X0.0003*%
%ADD1299R,0.0927X0.0003*%
%ADD1300R,0.0252X0.0003*%
%ADD1301R,0.0414X0.0003*%
%ADD1302R,0.0195X0.0003*%
%ADD1303R,0.0393X0.0003*%
%ADD1304R,0.0258X0.0003*%
%ADD1305R,0.0126X0.0003*%
%ADD1306R,0.0609X0.0003*%
%ADD1307R,0.0129X0.0003*%
%ADD1308R,0.0606X0.0003*%
%ADD1309R,0.0252X0.0003*%
%ADD1310R,0.0921X0.0003*%
%ADD1311R,0.0378X0.0003*%
%ADD1312R,0.0144X0.0003*%
%ADD1313R,0.0393X0.0003*%
%ADD1314R,0.0378X0.0003*%
%ADD1315R,0.0372X0.0003*%
%ADD1316R,0.0591X0.0003*%
%ADD1317R,0.0915X0.0003*%
%ADD1318R,0.0258X0.0003*%
%ADD1319R,0.0378X0.0003*%
%ADD1320R,0.0222X0.0003*%
%ADD1321R,0.0165X0.0003*%
%ADD1322R,0.0588X0.0003*%
%ADD1323R,0.0915X0.0003*%
%ADD1324R,0.0912X0.0003*%
%ADD1325R,0.0363X0.0003*%
%ADD1326R,0.0261X0.0003*%
%ADD1327R,0.0909X0.0003*%
%ADD1328R,0.0261X0.0003*%
%ADD1329R,0.0357X0.0003*%
%ADD1330R,0.0243X0.0003*%
%ADD1331R,0.0183X0.0003*%
%ADD1332R,0.0576X0.0003*%
%ADD1333R,0.0909X0.0003*%
%ADD1334R,0.0189X0.0003*%
%ADD1335R,0.0201X0.0003*%
%ADD1336R,0.0567X0.0003*%
%ADD1337R,0.0264X0.0003*%
%ADD1338R,0.0327X0.0003*%
%ADD1339R,0.0564X0.0003*%
%ADD1340R,0.0267X0.0003*%
%ADD1341R,0.0558X0.0003*%
%ADD1342R,0.0267X0.0003*%
%ADD1343R,0.0297X0.0003*%
%ADD1344R,0.0552X0.0003*%
%ADD1345R,0.0237X0.0003*%
%ADD1346R,0.0531X0.0003*%
%ADD1347R,0.0342X0.0003*%
%ADD1348R,0.0273X0.0003*%
%ADD1349R,0.0261X0.0003*%
%ADD1350R,0.0288X0.0003*%
%ADD1351R,0.0540X0.0003*%
%ADD1352R,0.0279X0.0003*%
%ADD1353R,0.0249X0.0003*%
%ADD1354R,0.0537X0.0003*%
%ADD1355R,0.0012X0.0003*%
%ADD1356R,0.0519X0.0003*%
%ADD1357R,0.0282X0.0003*%
%ADD1358R,0.0282X0.0003*%
%ADD1359R,0.0015X0.0003*%
%ADD1360R,0.0216X0.0003*%
%ADD1361R,0.0309X0.0003*%
%ADD1362R,0.0234X0.0003*%
%ADD1363R,0.0513X0.0003*%
%ADD1364R,0.0222X0.0003*%
%ADD1365R,0.0027X0.0003*%
%ADD1366R,0.0153X0.0003*%
%ADD1367R,0.0507X0.0003*%
%ADD1368R,0.0297X0.0003*%
%ADD1369R,0.0087X0.0003*%
%ADD1370R,0.0036X0.0003*%
%ADD1371R,0.0504X0.0003*%
%ADD1372R,0.0102X0.0003*%
%ADD1373R,0.0039X0.0003*%
%ADD1374R,0.0507X0.0003*%
%ADD1375R,0.0504X0.0003*%
%ADD1376R,0.0057X0.0003*%
%ADD1377R,0.0387X0.0003*%
%ADD1378R,0.0402X0.0003*%
%ADD1379R,0.0408X0.0003*%
%ADD1380R,0.0492X0.0003*%
%ADD1381R,0.0324X0.0003*%
%ADD1382R,0.0072X0.0003*%
%ADD1383R,0.0336X0.0003*%
%ADD1384R,0.0432X0.0003*%
%ADD1385R,0.0501X0.0003*%
%ADD1386R,0.0339X0.0003*%
%ADD1387R,0.0360X0.0003*%
%ADD1388R,0.0471X0.0003*%
%ADD1389R,0.0093X0.0003*%
%ADD1390R,0.0528X0.0003*%
%ADD1391R,0.0111X0.0003*%
%ADD1392R,0.0123X0.0003*%
%ADD1393R,0.0561X0.0003*%
%ADD1394R,0.0384X0.0003*%
%ADD1395R,0.0141X0.0003*%
%ADD1396R,0.0279X0.0003*%
%ADD1397R,0.0579X0.0003*%
%ADD1398R,0.0606X0.0003*%
%ADD1399R,0.1452X0.0003*%
%ADD1400R,0.1458X0.0003*%
%ADD1401R,0.0756X0.0003*%
%ADD1402R,0.1467X0.0003*%
%ADD1403R,0.1479X0.0003*%
%ADD1404R,0.0804X0.0003*%
%ADD1405R,0.0681X0.0003*%
%ADD1406R,0.0846X0.0003*%
%ADD1407R,0.0756X0.0003*%
%ADD1408R,0.1509X0.0003*%
%ADD1409R,0.4113X0.0003*%
%ADD1410R,0.4110X0.0003*%
%ADD1411R,0.4110X0.0003*%
%ADD1412R,0.4107X0.0003*%
%ADD1413R,0.4104X0.0003*%
%ADD1414R,0.4104X0.0003*%
%ADD1415R,0.4101X0.0003*%
%ADD1416R,0.4098X0.0003*%
%ADD1417R,0.4098X0.0003*%
%ADD1418R,0.4095X0.0003*%
%ADD1419R,0.4095X0.0003*%
%ADD1420R,0.4092X0.0003*%
%ADD1421R,0.4089X0.0003*%
%ADD1422R,0.4089X0.0003*%
%ADD1423R,0.4086X0.0003*%
%ADD1424R,0.4083X0.0003*%
%ADD1425R,0.4083X0.0003*%
%ADD1426R,0.4080X0.0003*%
%ADD1427R,0.4077X0.0003*%
%ADD1428R,0.4077X0.0003*%
%ADD1429R,0.4074X0.0003*%
%ADD1430R,0.4071X0.0003*%
%ADD1431R,0.4071X0.0003*%
%ADD1432R,0.4068X0.0003*%
%ADD1433R,0.4065X0.0003*%
%ADD1434R,0.4062X0.0003*%
%ADD1435R,0.4062X0.0003*%
%ADD1436R,0.4059X0.0003*%
%ADD1437R,0.4056X0.0003*%
%ADD1438R,0.4056X0.0003*%
%ADD1439R,0.4053X0.0003*%
%ADD1440R,0.4050X0.0003*%
%ADD1441R,0.4050X0.0003*%
%ADD1442R,0.4047X0.0003*%
%ADD1443R,0.4044X0.0003*%
%ADD1444R,0.4041X0.0003*%
%ADD1445R,0.4041X0.0003*%
%ADD1446R,0.4038X0.0003*%
%ADD1447R,0.4035X0.0003*%
%ADD1448R,0.4035X0.0003*%
%ADD1449R,0.4032X0.0003*%
%ADD1450R,0.4029X0.0003*%
%ADD1451R,0.4026X0.0003*%
%ADD1452R,0.4026X0.0003*%
%ADD1453R,0.4023X0.0003*%
%ADD1454R,0.4020X0.0003*%
%ADD1455R,0.4017X0.0003*%
%ADD1456R,0.4017X0.0003*%
%ADD1457R,0.4014X0.0003*%
%ADD1458R,0.4011X0.0003*%
%ADD1459R,0.4011X0.0003*%
%ADD1460R,0.4008X0.0003*%
%ADD1461R,0.4005X0.0003*%
%ADD1462R,0.4002X0.0003*%
%ADD1463R,0.4002X0.0003*%
%ADD1464R,0.3999X0.0003*%
%ADD1465R,0.3996X0.0003*%
%ADD1466R,0.3993X0.0003*%
%ADD1467R,0.3993X0.0003*%
%ADD1468R,0.3990X0.0003*%
%ADD1469R,0.3987X0.0003*%
%ADD1470R,0.3984X0.0003*%
%ADD1471R,0.3984X0.0003*%
%ADD1472R,0.3981X0.0003*%
%ADD1473R,0.3978X0.0003*%
%ADD1474R,0.3975X0.0003*%
%ADD1475R,0.3975X0.0003*%
%ADD1476R,0.3972X0.0003*%
%ADD1477R,0.3969X0.0003*%
%ADD1478R,0.3966X0.0003*%
%ADD1479R,0.3963X0.0003*%
%ADD1480R,0.3963X0.0003*%
%ADD1481R,0.3960X0.0003*%
%ADD1482R,0.3957X0.0003*%
%ADD1483R,0.3954X0.0003*%
%ADD1484R,0.3951X0.0003*%
%ADD1485R,0.3948X0.0003*%
%ADD1486R,0.3945X0.0003*%
%ADD1487R,0.3945X0.0003*%
%ADD1488R,0.3942X0.0003*%
%ADD1489R,0.3939X0.0003*%
%ADD1490R,0.3936X0.0003*%
%ADD1491R,0.3933X0.0003*%
%ADD1492R,0.3930X0.0003*%
%ADD1493R,0.3927X0.0003*%
%ADD1494R,0.3924X0.0003*%
%ADD1495R,0.3921X0.0003*%
%ADD1496R,0.3918X0.0003*%
%ADD1497R,0.3915X0.0003*%
%ADD1498R,0.3912X0.0003*%
%ADD1499R,0.3909X0.0003*%
%ADD1500R,0.3906X0.0003*%
%ADD1501R,0.3903X0.0003*%
%ADD1502R,0.3900X0.0003*%
%ADD1503R,0.3900X0.0003*%
%ADD1504R,0.3897X0.0003*%
%ADD1505R,0.3894X0.0003*%
%ADD1506R,0.3891X0.0003*%
%ADD1507R,0.3888X0.0003*%
%ADD1508R,0.3885X0.0003*%
%ADD1509R,0.3882X0.0003*%
%ADD1510R,0.3879X0.0003*%
%ADD1511R,0.3879X0.0003*%
%ADD1512R,0.3876X0.0003*%
%ADD1513R,0.3873X0.0003*%
%ADD1514R,0.3870X0.0003*%
%ADD1515R,0.3867X0.0003*%
%ADD1516R,0.3864X0.0003*%
%ADD1517R,0.3861X0.0003*%
%ADD1518R,0.3858X0.0003*%
%ADD1519R,0.3855X0.0003*%
%ADD1520R,0.3852X0.0003*%
%ADD1521R,0.3849X0.0003*%
%ADD1522R,0.3846X0.0003*%
%ADD1523R,0.3843X0.0003*%
%ADD1524R,0.3840X0.0003*%
%ADD1525R,0.3840X0.0003*%
%ADD1526R,0.3837X0.0003*%
%ADD1527R,0.3834X0.0003*%
%ADD1528R,0.3831X0.0003*%
%ADD1529R,0.3828X0.0003*%
%ADD1530R,0.3825X0.0003*%
%ADD1531R,0.3822X0.0003*%
%ADD1532R,0.3819X0.0003*%
%ADD1533R,0.3816X0.0003*%
%ADD1534R,0.3813X0.0003*%
%ADD1535R,0.3810X0.0003*%
%ADD1536R,0.3807X0.0003*%
%ADD1537R,0.3804X0.0003*%
%ADD1538R,0.3804X0.0003*%
%ADD1539R,0.3801X0.0003*%
%ADD1540R,0.3798X0.0003*%
%ADD1541R,0.3795X0.0003*%
%ADD1542R,0.3792X0.0003*%
%ADD1543R,0.3789X0.0003*%
%ADD1544R,0.3786X0.0003*%
%ADD1545R,0.3783X0.0003*%
%ADD1546R,0.3780X0.0003*%
%ADD1547R,0.3777X0.0003*%
%ADD1548R,0.3774X0.0003*%
%ADD1549R,0.3771X0.0003*%
%ADD1550R,0.3768X0.0003*%
%ADD1551R,0.3762X0.0003*%
%ADD1552R,0.3762X0.0003*%
%ADD1553R,0.3759X0.0003*%
%ADD1554R,0.3756X0.0003*%
%ADD1555R,0.3753X0.0003*%
%ADD1556R,0.3750X0.0003*%
%ADD1557R,0.3747X0.0003*%
%ADD1558R,0.3744X0.0003*%
%ADD1559R,0.3741X0.0003*%
%ADD1560R,0.3738X0.0003*%
%ADD1561R,0.3735X0.0003*%
%ADD1562R,0.3732X0.0003*%
%ADD1563R,0.3729X0.0003*%
%ADD1564R,0.3726X0.0003*%
%ADD1565R,0.3723X0.0003*%
%ADD1566R,0.3720X0.0003*%
%ADD1567R,0.3717X0.0003*%
%ADD1568R,0.3714X0.0003*%
%ADD1569R,0.3711X0.0003*%
%ADD1570R,0.3708X0.0003*%
%ADD1571R,0.3705X0.0003*%
%ADD1572R,0.3702X0.0003*%
%ADD1573R,0.3696X0.0003*%
%ADD1574R,0.3690X0.0003*%
%ADD1575R,0.3687X0.0003*%
%ADD1576R,0.3684X0.0003*%
%ADD1577R,0.3681X0.0003*%
%ADD1578R,0.3678X0.0003*%
%ADD1579R,0.3675X0.0003*%
%ADD1580R,0.3672X0.0003*%
%ADD1581R,0.3669X0.0003*%
%ADD1582R,0.3666X0.0003*%
%ADD1583R,0.3663X0.0003*%
%ADD1584R,0.3660X0.0003*%
%ADD1585R,0.3657X0.0003*%
%ADD1586R,0.3654X0.0003*%
%ADD1587R,0.3648X0.0003*%
%ADD1588R,0.3645X0.0003*%
%ADD1589R,0.3642X0.0003*%
%ADD1590R,0.3639X0.0003*%
%ADD1591R,0.3636X0.0003*%
%ADD1592R,0.3630X0.0003*%
%ADD1593R,0.3618X0.0003*%
%ADD1594R,0.3612X0.0003*%
%ADD1595R,0.3609X0.0003*%
%ADD1596R,0.3606X0.0003*%
%ADD1597R,0.3603X0.0003*%
%ADD1598R,0.3600X0.0003*%
%ADD1599R,0.3594X0.0003*%
%ADD1600R,0.3591X0.0003*%
%ADD1601R,0.3588X0.0003*%
%ADD1602R,0.3585X0.0003*%
%ADD1603R,0.3582X0.0003*%
%ADD1604R,0.3576X0.0003*%
%ADD1605R,0.3570X0.0003*%
%ADD1606R,0.3564X0.0003*%
%ADD1607R,0.3558X0.0003*%
%ADD1608R,0.3552X0.0003*%
%ADD1609R,0.3549X0.0003*%
%ADD1610R,0.3546X0.0003*%
%ADD1611R,0.3540X0.0003*%
%ADD1612R,0.3534X0.0003*%
%ADD1613R,0.3528X0.0003*%
%ADD1614R,0.3522X0.0003*%
%ADD1615R,0.3519X0.0003*%
%ADD1616R,0.3510X0.0003*%
%ADD1617R,0.3504X0.0003*%
%ADD1618R,0.3498X0.0003*%
%ADD1619R,0.3492X0.0003*%
%ADD1620R,0.3486X0.0003*%
%ADD1621R,0.3480X0.0003*%
%ADD1622R,0.3474X0.0003*%
%ADD1623R,0.3471X0.0003*%
%ADD1624R,0.3468X0.0003*%
%ADD1625R,0.3462X0.0003*%
%ADD1626R,0.3459X0.0003*%
%ADD1627R,0.3456X0.0003*%
%ADD1628R,0.3450X0.0003*%
%ADD1629R,0.3447X0.0003*%
%ADD1630R,0.3444X0.0003*%
%ADD1631R,0.3438X0.0003*%
%ADD1632R,0.3429X0.0003*%
%ADD1633R,0.3426X0.0003*%
%ADD1634R,0.3414X0.0003*%
%ADD1635R,0.3408X0.0003*%
%ADD1636R,0.3402X0.0003*%
%ADD1637R,0.3396X0.0003*%
%ADD1638R,0.3393X0.0003*%
%ADD1639R,0.3390X0.0003*%
%ADD1640R,0.3384X0.0003*%
%ADD1641R,0.3381X0.0003*%
%ADD1642R,0.3375X0.0003*%
%ADD1643R,0.3372X0.0003*%
%ADD1644R,0.3366X0.0003*%
%ADD1645R,0.3357X0.0003*%
%ADD1646R,0.3354X0.0003*%
%ADD1647R,0.3348X0.0003*%
%ADD1648R,0.3345X0.0003*%
%ADD1649R,0.3339X0.0003*%
%ADD1650R,0.3336X0.0003*%
%ADD1651R,0.3321X0.0003*%
%ADD1652R,0.3318X0.0003*%
%ADD1653R,0.3312X0.0003*%
%ADD1654R,0.3309X0.0003*%
%ADD1655R,0.3303X0.0003*%
%ADD1656R,0.3294X0.0003*%
%ADD1657R,0.3291X0.0003*%
%ADD1658R,0.3285X0.0003*%
%ADD1659R,0.3282X0.0003*%
%ADD1660R,0.3276X0.0003*%
%ADD1661R,0.3267X0.0003*%
%ADD1662R,0.3261X0.0003*%
%ADD1663R,0.3258X0.0003*%
%ADD1664R,0.3252X0.0003*%
%ADD1665R,0.3246X0.0003*%
%ADD1666R,0.3243X0.0003*%
%ADD1667R,0.3237X0.0003*%
%ADD1668R,0.3231X0.0003*%
%ADD1669R,0.3228X0.0003*%
%ADD1670R,0.3222X0.0003*%
%ADD1671R,0.3219X0.0003*%
%ADD1672R,0.3213X0.0003*%
%ADD1673R,0.3207X0.0003*%
%ADD1674R,0.3204X0.0003*%
%ADD1675R,0.3198X0.0003*%
%ADD1676R,0.3192X0.0003*%
%ADD1677R,0.3189X0.0003*%
%ADD1678R,0.3183X0.0003*%
%ADD1679R,0.3177X0.0003*%
%ADD1680R,0.3174X0.0003*%
%ADD1681R,0.3168X0.0003*%
%ADD1682R,0.3162X0.0003*%
%ADD1683R,0.3156X0.0003*%
%ADD1684R,0.3153X0.0003*%
%ADD1685R,0.3147X0.0003*%
%ADD1686R,0.3141X0.0003*%
%ADD1687R,0.3135X0.0003*%
%ADD1688R,0.3132X0.0003*%
%ADD1689R,0.3126X0.0003*%
%ADD1690R,0.3114X0.0003*%
%ADD1691R,0.3108X0.0003*%
%ADD1692R,0.3105X0.0003*%
%ADD1693R,0.3099X0.0003*%
%ADD1694R,0.3093X0.0003*%
%ADD1695R,0.3087X0.0003*%
%ADD1696R,0.3084X0.0003*%
%ADD1697R,0.3078X0.0003*%
%ADD1698R,0.3072X0.0003*%
%ADD1699R,0.3066X0.0003*%
%ADD1700R,0.3054X0.0003*%
%ADD1701R,0.3051X0.0003*%
%ADD1702R,0.3045X0.0003*%
%ADD1703R,0.3039X0.0003*%
%ADD1704R,0.3033X0.0003*%
%ADD1705R,0.3027X0.0003*%
%ADD1706R,0.3021X0.0003*%
%ADD1707R,0.3015X0.0003*%
%ADD1708R,0.3009X0.0003*%
%ADD1709R,0.3003X0.0003*%
%ADD1710R,0.3000X0.0003*%
%ADD1711R,0.2994X0.0003*%
%ADD1712R,0.2988X0.0003*%
%ADD1713R,0.2982X0.0003*%
%ADD1714R,0.2976X0.0003*%
%ADD1715R,0.2964X0.0003*%
%ADD1716R,0.2958X0.0003*%
%ADD1717R,0.2952X0.0003*%
%ADD1718R,0.2946X0.0003*%
%ADD1719R,0.2934X0.0003*%
%ADD1720R,0.2928X0.0003*%
%ADD1721R,0.2922X0.0003*%
%ADD1722R,0.2916X0.0003*%
%ADD1723R,0.2904X0.0003*%
%ADD1724R,0.2892X0.0003*%
%ADD1725R,0.2883X0.0003*%
%ADD1726R,0.2877X0.0003*%
%ADD1727R,0.2871X0.0003*%
%ADD1728R,0.2865X0.0003*%
%ADD1729R,0.2859X0.0003*%
%ADD1730R,0.2853X0.0003*%
%ADD1731R,0.2847X0.0003*%
%ADD1732R,0.2838X0.0003*%
%ADD1733R,0.2832X0.0003*%
%ADD1734R,0.2826X0.0003*%
%ADD1735R,0.2820X0.0003*%
%ADD1736R,0.2814X0.0003*%
%ADD1737R,0.2808X0.0003*%
%ADD1738R,0.2802X0.0003*%
%ADD1739R,0.2793X0.0003*%
%ADD1740R,0.2787X0.0003*%
%ADD1741R,0.2781X0.0003*%
%ADD1742R,0.2766X0.0003*%
%ADD1743R,0.2760X0.0003*%
%ADD1744R,0.2754X0.0003*%
%ADD1745R,0.2748X0.0003*%
%ADD1746R,0.2739X0.0003*%
%ADD1747R,0.2733X0.0003*%
%ADD1748R,0.2727X0.0003*%
%ADD1749R,0.2718X0.0003*%
%ADD1750R,0.2712X0.0003*%
%ADD1751R,0.2706X0.0003*%
%ADD1752R,0.2697X0.0003*%
%ADD1753R,0.2691X0.0003*%
%ADD1754R,0.2676X0.0003*%
%ADD1755R,0.2670X0.0003*%
%ADD1756R,0.2664X0.0003*%
%ADD1757R,0.2649X0.0003*%
%ADD1758R,0.2634X0.0003*%
%ADD1759R,0.2625X0.0003*%
%ADD1760R,0.2619X0.0003*%
%ADD1761R,0.2589X0.0003*%
%ADD1762R,0.2559X0.0003*%
%ADD1763R,0.2526X0.0003*%
%ADD1764R,0.2502X0.0003*%
%ADD1765R,0.2496X0.0003*%
%ADD1766R,0.2472X0.0003*%
%ADD1767R,0.2463X0.0003*%
%ADD1768R,0.2454X0.0003*%
%ADD1769R,0.2445X0.0003*%
%ADD1770R,0.2439X0.0003*%
%ADD1771R,0.2430X0.0003*%
%ADD1772R,0.2421X0.0003*%
%ADD1773R,0.2415X0.0003*%
%ADD1774R,0.2406X0.0003*%
%ADD1775R,0.2397X0.0003*%
%ADD1776R,0.2388X0.0003*%
%ADD1777R,0.2379X0.0003*%
%ADD1778R,0.2370X0.0003*%
%ADD1779R,0.2361X0.0003*%
%ADD1780R,0.2352X0.0003*%
%ADD1781R,0.2343X0.0003*%
%ADD1782R,0.2337X0.0003*%
%ADD1783R,0.2328X0.0003*%
%ADD1784R,0.2316X0.0003*%
%ADD1785R,0.2298X0.0003*%
%ADD1786R,0.2289X0.0003*%
%ADD1787R,0.2271X0.0003*%
%ADD1788R,0.2262X0.0003*%
%ADD1789R,0.2253X0.0003*%
%ADD1790R,0.2244X0.0003*%
%ADD1791R,0.2235X0.0003*%
%ADD1792R,0.2226X0.0003*%
%ADD1793R,0.2217X0.0003*%
%ADD1794R,0.2208X0.0003*%
%ADD1795R,0.2196X0.0003*%
%ADD1796R,0.2187X0.0003*%
%ADD1797R,0.2178X0.0003*%
%ADD1798R,0.2169X0.0003*%
%ADD1799R,0.2157X0.0003*%
%ADD1800R,0.2148X0.0003*%
%ADD1801R,0.2139X0.0003*%
%ADD1802R,0.2127X0.0003*%
%ADD1803R,0.2118X0.0003*%
%ADD1804R,0.2109X0.0003*%
%ADD1805R,0.2097X0.0003*%
%ADD1806R,0.2088X0.0003*%
%ADD1807R,0.2076X0.0003*%
%ADD1808R,0.2067X0.0003*%
%ADD1809R,0.2055X0.0003*%
%ADD1810R,0.2046X0.0003*%
%ADD1811R,0.2034X0.0003*%
%ADD1812R,0.2022X0.0003*%
%ADD1813R,0.2013X0.0003*%
%ADD1814R,0.2001X0.0003*%
%ADD1815R,0.1992X0.0003*%
%ADD1816R,0.1968X0.0003*%
%ADD1817R,0.1956X0.0003*%
%ADD1818R,0.1947X0.0003*%
%ADD1819R,0.1935X0.0003*%
%ADD1820R,0.1923X0.0003*%
%ADD1821R,0.1911X0.0003*%
%ADD1822R,0.1902X0.0003*%
%ADD1823R,0.1890X0.0003*%
%ADD1824R,0.1878X0.0003*%
%ADD1825R,0.1866X0.0003*%
%ADD1826R,0.1854X0.0003*%
%ADD1827R,0.1842X0.0003*%
%ADD1828R,0.1830X0.0003*%
%ADD1829R,0.1791X0.0003*%
%ADD1830R,0.1779X0.0003*%
%ADD1831R,0.1764X0.0003*%
%ADD1832R,0.1752X0.0003*%
%ADD1833R,0.1725X0.0003*%
%ADD1834R,0.1716X0.0003*%
%ADD1835R,0.1701X0.0003*%
%ADD1836R,0.1686X0.0003*%
%ADD1837R,0.1674X0.0003*%
%ADD1838R,0.1659X0.0003*%
%ADD1839R,0.1644X0.0003*%
%ADD1840R,0.1632X0.0003*%
%ADD1841R,0.1617X0.0003*%
%ADD1842R,0.1602X0.0003*%
%ADD1843R,0.1590X0.0003*%
%ADD1844R,0.1572X0.0003*%
%ADD1845R,0.1530X0.0003*%
%ADD1846R,0.1512X0.0003*%
%ADD1847R,0.1500X0.0003*%
%ADD1848R,0.1482X0.0003*%
%ADD1849R,0.1452X0.0003*%
%ADD1850R,0.1434X0.0003*%
%ADD1851R,0.1416X0.0003*%
%ADD1852R,0.1404X0.0003*%
%ADD1853R,0.1383X0.0003*%
%ADD1854R,0.1365X0.0003*%
%ADD1855R,0.1332X0.0003*%
%ADD1856R,0.1314X0.0003*%
%ADD1857R,0.1296X0.0003*%
%ADD1858R,0.1278X0.0003*%
%ADD1859R,0.1257X0.0003*%
%ADD1860R,0.1242X0.0003*%
%ADD1861R,0.1218X0.0003*%
%ADD1862R,0.1200X0.0003*%
%ADD1863R,0.1182X0.0003*%
%ADD1864R,0.1119X0.0003*%
%ADD1865R,0.1053X0.0003*%
%ADD1866R,0.1026X0.0003*%
%ADD1867R,0.1002X0.0003*%
%ADD1868R,0.0978X0.0003*%
%ADD1869R,0.0951X0.0003*%
%ADD1870R,0.0924X0.0003*%
%ADD1871R,0.0870X0.0003*%
%ADD1872R,0.0843X0.0003*%
%ADD1873R,0.0642X0.0003*%
%ADD1874R,0.0510X0.0003*%
%ADD1875R,0.0108X0.0003*%
%ADD1876C,0.0100*%
%ADD1877R,0.0098X0.0098*%
D10*
X001199Y001130D02*
X001199Y019216D01*
X001201Y019266D01*
X001206Y019317D01*
X001215Y019366D01*
X001228Y019415D01*
X001244Y019463D01*
X001263Y019510D01*
X001285Y019555D01*
X001311Y019598D01*
X001340Y019640D01*
X001372Y019679D01*
X001406Y019716D01*
X001443Y019750D01*
X001482Y019782D01*
X001524Y019811D01*
X001567Y019837D01*
X001612Y019859D01*
X001659Y019878D01*
X001707Y019894D01*
X001756Y019907D01*
X001805Y019916D01*
X001856Y019921D01*
X001906Y019923D01*
X019992Y019923D01*
X020042Y019921D01*
X020093Y019916D01*
X020142Y019907D01*
X020191Y019894D01*
X020239Y019878D01*
X020286Y019859D01*
X020331Y019837D01*
X020374Y019811D01*
X020416Y019782D01*
X020455Y019750D01*
X020492Y019716D01*
X020526Y019679D01*
X020558Y019640D01*
X020587Y019598D01*
X020613Y019555D01*
X020635Y019510D01*
X020654Y019463D01*
X020670Y019415D01*
X020683Y019366D01*
X020692Y019317D01*
X020697Y019266D01*
X020699Y019216D01*
X020699Y001130D01*
X020697Y001080D01*
X020692Y001029D01*
X020683Y000980D01*
X020670Y000931D01*
X020654Y000883D01*
X020635Y000836D01*
X020613Y000791D01*
X020587Y000748D01*
X020558Y000706D01*
X020526Y000667D01*
X020492Y000630D01*
X020455Y000596D01*
X020416Y000564D01*
X020374Y000535D01*
X020331Y000509D01*
X020286Y000487D01*
X020239Y000468D01*
X020191Y000452D01*
X020142Y000439D01*
X020093Y000430D01*
X020042Y000425D01*
X019992Y000423D01*
X001906Y000423D01*
X001856Y000425D01*
X001805Y000430D01*
X001756Y000439D01*
X001707Y000452D01*
X001659Y000468D01*
X001612Y000487D01*
X001567Y000509D01*
X001524Y000535D01*
X001482Y000564D01*
X001443Y000596D01*
X001406Y000630D01*
X001372Y000667D01*
X001340Y000706D01*
X001311Y000748D01*
X001285Y000791D01*
X001263Y000836D01*
X001244Y000883D01*
X001228Y000931D01*
X001215Y000980D01*
X001206Y001029D01*
X001201Y001080D01*
X001199Y001130D01*
X001549Y001423D02*
X001551Y001473D01*
X001557Y001523D01*
X001567Y001573D01*
X001580Y001621D01*
X001597Y001669D01*
X001618Y001715D01*
X001642Y001759D01*
X001670Y001801D01*
X001701Y001841D01*
X001735Y001878D01*
X001772Y001913D01*
X001811Y001944D01*
X001852Y001973D01*
X001896Y001998D01*
X001942Y002020D01*
X001989Y002038D01*
X002037Y002052D01*
X002086Y002063D01*
X002136Y002070D01*
X002186Y002073D01*
X002237Y002072D01*
X002287Y002067D01*
X002337Y002058D01*
X002385Y002046D01*
X002433Y002029D01*
X002479Y002009D01*
X002524Y001986D01*
X002567Y001959D01*
X002607Y001929D01*
X002645Y001896D01*
X002680Y001860D01*
X002713Y001821D01*
X002742Y001780D01*
X002768Y001737D01*
X002791Y001692D01*
X002810Y001645D01*
X002825Y001597D01*
X002837Y001548D01*
X002845Y001498D01*
X002849Y001448D01*
X002849Y001398D01*
X002845Y001348D01*
X002837Y001298D01*
X002825Y001249D01*
X002810Y001201D01*
X002791Y001154D01*
X002768Y001109D01*
X002742Y001066D01*
X002713Y001025D01*
X002680Y000986D01*
X002645Y000950D01*
X002607Y000917D01*
X002567Y000887D01*
X002524Y000860D01*
X002479Y000837D01*
X002433Y000817D01*
X002385Y000800D01*
X002337Y000788D01*
X002287Y000779D01*
X002237Y000774D01*
X002186Y000773D01*
X002136Y000776D01*
X002086Y000783D01*
X002037Y000794D01*
X001989Y000808D01*
X001942Y000826D01*
X001896Y000848D01*
X001852Y000873D01*
X001811Y000902D01*
X001772Y000933D01*
X001735Y000968D01*
X001701Y001005D01*
X001670Y001045D01*
X001642Y001087D01*
X001618Y001131D01*
X001597Y001177D01*
X001580Y001225D01*
X001567Y001273D01*
X001557Y001323D01*
X001551Y001373D01*
X001549Y001423D01*
X001479Y005654D02*
X001481Y005684D01*
X001487Y005714D01*
X001496Y005743D01*
X001509Y005770D01*
X001526Y005795D01*
X001545Y005818D01*
X001568Y005839D01*
X001593Y005856D01*
X001619Y005870D01*
X001648Y005880D01*
X001677Y005887D01*
X001707Y005890D01*
X001738Y005889D01*
X001768Y005884D01*
X001797Y005875D01*
X001824Y005863D01*
X001850Y005848D01*
X001874Y005829D01*
X001895Y005807D01*
X001913Y005783D01*
X001928Y005756D01*
X001939Y005728D01*
X001947Y005699D01*
X001951Y005669D01*
X001951Y005639D01*
X001947Y005609D01*
X001939Y005580D01*
X001928Y005552D01*
X001913Y005525D01*
X001895Y005501D01*
X001874Y005479D01*
X001850Y005460D01*
X001824Y005445D01*
X001797Y005433D01*
X001768Y005424D01*
X001738Y005419D01*
X001707Y005418D01*
X001677Y005421D01*
X001648Y005428D01*
X001619Y005438D01*
X001593Y005452D01*
X001568Y005469D01*
X001545Y005490D01*
X001526Y005513D01*
X001509Y005538D01*
X001496Y005565D01*
X001487Y005594D01*
X001481Y005624D01*
X001479Y005654D01*
X002463Y005654D02*
X002465Y005684D01*
X002471Y005714D01*
X002480Y005743D01*
X002493Y005770D01*
X002510Y005795D01*
X002529Y005818D01*
X002552Y005839D01*
X002577Y005856D01*
X002603Y005870D01*
X002632Y005880D01*
X002661Y005887D01*
X002691Y005890D01*
X002722Y005889D01*
X002752Y005884D01*
X002781Y005875D01*
X002808Y005863D01*
X002834Y005848D01*
X002858Y005829D01*
X002879Y005807D01*
X002897Y005783D01*
X002912Y005756D01*
X002923Y005728D01*
X002931Y005699D01*
X002935Y005669D01*
X002935Y005639D01*
X002931Y005609D01*
X002923Y005580D01*
X002912Y005552D01*
X002897Y005525D01*
X002879Y005501D01*
X002858Y005479D01*
X002834Y005460D01*
X002808Y005445D01*
X002781Y005433D01*
X002752Y005424D01*
X002722Y005419D01*
X002691Y005418D01*
X002661Y005421D01*
X002632Y005428D01*
X002603Y005438D01*
X002577Y005452D01*
X002552Y005469D01*
X002529Y005490D01*
X002510Y005513D01*
X002493Y005538D01*
X002480Y005565D01*
X002471Y005594D01*
X002465Y005624D01*
X002463Y005654D01*
X004432Y007623D02*
X004434Y007653D01*
X004440Y007683D01*
X004449Y007712D01*
X004462Y007739D01*
X004479Y007764D01*
X004498Y007787D01*
X004521Y007808D01*
X004546Y007825D01*
X004572Y007839D01*
X004601Y007849D01*
X004630Y007856D01*
X004660Y007859D01*
X004691Y007858D01*
X004721Y007853D01*
X004750Y007844D01*
X004777Y007832D01*
X004803Y007817D01*
X004827Y007798D01*
X004848Y007776D01*
X004866Y007752D01*
X004881Y007725D01*
X004892Y007697D01*
X004900Y007668D01*
X004904Y007638D01*
X004904Y007608D01*
X004900Y007578D01*
X004892Y007549D01*
X004881Y007521D01*
X004866Y007494D01*
X004848Y007470D01*
X004827Y007448D01*
X004803Y007429D01*
X004777Y007414D01*
X004750Y007402D01*
X004721Y007393D01*
X004691Y007388D01*
X004660Y007387D01*
X004630Y007390D01*
X004601Y007397D01*
X004572Y007407D01*
X004546Y007421D01*
X004521Y007438D01*
X004498Y007459D01*
X004479Y007482D01*
X004462Y007507D01*
X004449Y007534D01*
X004440Y007563D01*
X004434Y007593D01*
X004432Y007623D01*
X002463Y009591D02*
X002465Y009621D01*
X002471Y009651D01*
X002480Y009680D01*
X002493Y009707D01*
X002510Y009732D01*
X002529Y009755D01*
X002552Y009776D01*
X002577Y009793D01*
X002603Y009807D01*
X002632Y009817D01*
X002661Y009824D01*
X002691Y009827D01*
X002722Y009826D01*
X002752Y009821D01*
X002781Y009812D01*
X002808Y009800D01*
X002834Y009785D01*
X002858Y009766D01*
X002879Y009744D01*
X002897Y009720D01*
X002912Y009693D01*
X002923Y009665D01*
X002931Y009636D01*
X002935Y009606D01*
X002935Y009576D01*
X002931Y009546D01*
X002923Y009517D01*
X002912Y009489D01*
X002897Y009462D01*
X002879Y009438D01*
X002858Y009416D01*
X002834Y009397D01*
X002808Y009382D01*
X002781Y009370D01*
X002752Y009361D01*
X002722Y009356D01*
X002691Y009355D01*
X002661Y009358D01*
X002632Y009365D01*
X002603Y009375D01*
X002577Y009389D01*
X002552Y009406D01*
X002529Y009427D01*
X002510Y009450D01*
X002493Y009475D01*
X002480Y009502D01*
X002471Y009531D01*
X002465Y009561D01*
X002463Y009591D01*
X001479Y009591D02*
X001481Y009621D01*
X001487Y009651D01*
X001496Y009680D01*
X001509Y009707D01*
X001526Y009732D01*
X001545Y009755D01*
X001568Y009776D01*
X001593Y009793D01*
X001619Y009807D01*
X001648Y009817D01*
X001677Y009824D01*
X001707Y009827D01*
X001738Y009826D01*
X001768Y009821D01*
X001797Y009812D01*
X001824Y009800D01*
X001850Y009785D01*
X001874Y009766D01*
X001895Y009744D01*
X001913Y009720D01*
X001928Y009693D01*
X001939Y009665D01*
X001947Y009636D01*
X001951Y009606D01*
X001951Y009576D01*
X001947Y009546D01*
X001939Y009517D01*
X001928Y009489D01*
X001913Y009462D01*
X001895Y009438D01*
X001874Y009416D01*
X001850Y009397D01*
X001824Y009382D01*
X001797Y009370D01*
X001768Y009361D01*
X001738Y009356D01*
X001707Y009355D01*
X001677Y009358D01*
X001648Y009365D01*
X001619Y009375D01*
X001593Y009389D01*
X001568Y009406D01*
X001545Y009427D01*
X001526Y009450D01*
X001509Y009475D01*
X001496Y009502D01*
X001487Y009531D01*
X001481Y009561D01*
X001479Y009591D01*
X001479Y011154D02*
X001481Y011184D01*
X001487Y011214D01*
X001496Y011243D01*
X001509Y011270D01*
X001526Y011295D01*
X001545Y011318D01*
X001568Y011339D01*
X001593Y011356D01*
X001619Y011370D01*
X001648Y011380D01*
X001677Y011387D01*
X001707Y011390D01*
X001738Y011389D01*
X001768Y011384D01*
X001797Y011375D01*
X001824Y011363D01*
X001850Y011348D01*
X001874Y011329D01*
X001895Y011307D01*
X001913Y011283D01*
X001928Y011256D01*
X001939Y011228D01*
X001947Y011199D01*
X001951Y011169D01*
X001951Y011139D01*
X001947Y011109D01*
X001939Y011080D01*
X001928Y011052D01*
X001913Y011025D01*
X001895Y011001D01*
X001874Y010979D01*
X001850Y010960D01*
X001824Y010945D01*
X001797Y010933D01*
X001768Y010924D01*
X001738Y010919D01*
X001707Y010918D01*
X001677Y010921D01*
X001648Y010928D01*
X001619Y010938D01*
X001593Y010952D01*
X001568Y010969D01*
X001545Y010990D01*
X001526Y011013D01*
X001509Y011038D01*
X001496Y011065D01*
X001487Y011094D01*
X001481Y011124D01*
X001479Y011154D01*
X002463Y011154D02*
X002465Y011184D01*
X002471Y011214D01*
X002480Y011243D01*
X002493Y011270D01*
X002510Y011295D01*
X002529Y011318D01*
X002552Y011339D01*
X002577Y011356D01*
X002603Y011370D01*
X002632Y011380D01*
X002661Y011387D01*
X002691Y011390D01*
X002722Y011389D01*
X002752Y011384D01*
X002781Y011375D01*
X002808Y011363D01*
X002834Y011348D01*
X002858Y011329D01*
X002879Y011307D01*
X002897Y011283D01*
X002912Y011256D01*
X002923Y011228D01*
X002931Y011199D01*
X002935Y011169D01*
X002935Y011139D01*
X002931Y011109D01*
X002923Y011080D01*
X002912Y011052D01*
X002897Y011025D01*
X002879Y011001D01*
X002858Y010979D01*
X002834Y010960D01*
X002808Y010945D01*
X002781Y010933D01*
X002752Y010924D01*
X002722Y010919D01*
X002691Y010918D01*
X002661Y010921D01*
X002632Y010928D01*
X002603Y010938D01*
X002577Y010952D01*
X002552Y010969D01*
X002529Y010990D01*
X002510Y011013D01*
X002493Y011038D01*
X002480Y011065D01*
X002471Y011094D01*
X002465Y011124D01*
X002463Y011154D01*
X004432Y013123D02*
X004434Y013153D01*
X004440Y013183D01*
X004449Y013212D01*
X004462Y013239D01*
X004479Y013264D01*
X004498Y013287D01*
X004521Y013308D01*
X004546Y013325D01*
X004572Y013339D01*
X004601Y013349D01*
X004630Y013356D01*
X004660Y013359D01*
X004691Y013358D01*
X004721Y013353D01*
X004750Y013344D01*
X004777Y013332D01*
X004803Y013317D01*
X004827Y013298D01*
X004848Y013276D01*
X004866Y013252D01*
X004881Y013225D01*
X004892Y013197D01*
X004900Y013168D01*
X004904Y013138D01*
X004904Y013108D01*
X004900Y013078D01*
X004892Y013049D01*
X004881Y013021D01*
X004866Y012994D01*
X004848Y012970D01*
X004827Y012948D01*
X004803Y012929D01*
X004777Y012914D01*
X004750Y012902D01*
X004721Y012893D01*
X004691Y012888D01*
X004660Y012887D01*
X004630Y012890D01*
X004601Y012897D01*
X004572Y012907D01*
X004546Y012921D01*
X004521Y012938D01*
X004498Y012959D01*
X004479Y012982D01*
X004462Y013007D01*
X004449Y013034D01*
X004440Y013063D01*
X004434Y013093D01*
X004432Y013123D01*
X002463Y015091D02*
X002465Y015121D01*
X002471Y015151D01*
X002480Y015180D01*
X002493Y015207D01*
X002510Y015232D01*
X002529Y015255D01*
X002552Y015276D01*
X002577Y015293D01*
X002603Y015307D01*
X002632Y015317D01*
X002661Y015324D01*
X002691Y015327D01*
X002722Y015326D01*
X002752Y015321D01*
X002781Y015312D01*
X002808Y015300D01*
X002834Y015285D01*
X002858Y015266D01*
X002879Y015244D01*
X002897Y015220D01*
X002912Y015193D01*
X002923Y015165D01*
X002931Y015136D01*
X002935Y015106D01*
X002935Y015076D01*
X002931Y015046D01*
X002923Y015017D01*
X002912Y014989D01*
X002897Y014962D01*
X002879Y014938D01*
X002858Y014916D01*
X002834Y014897D01*
X002808Y014882D01*
X002781Y014870D01*
X002752Y014861D01*
X002722Y014856D01*
X002691Y014855D01*
X002661Y014858D01*
X002632Y014865D01*
X002603Y014875D01*
X002577Y014889D01*
X002552Y014906D01*
X002529Y014927D01*
X002510Y014950D01*
X002493Y014975D01*
X002480Y015002D01*
X002471Y015031D01*
X002465Y015061D01*
X002463Y015091D01*
X001479Y015091D02*
X001481Y015121D01*
X001487Y015151D01*
X001496Y015180D01*
X001509Y015207D01*
X001526Y015232D01*
X001545Y015255D01*
X001568Y015276D01*
X001593Y015293D01*
X001619Y015307D01*
X001648Y015317D01*
X001677Y015324D01*
X001707Y015327D01*
X001738Y015326D01*
X001768Y015321D01*
X001797Y015312D01*
X001824Y015300D01*
X001850Y015285D01*
X001874Y015266D01*
X001895Y015244D01*
X001913Y015220D01*
X001928Y015193D01*
X001939Y015165D01*
X001947Y015136D01*
X001951Y015106D01*
X001951Y015076D01*
X001947Y015046D01*
X001939Y015017D01*
X001928Y014989D01*
X001913Y014962D01*
X001895Y014938D01*
X001874Y014916D01*
X001850Y014897D01*
X001824Y014882D01*
X001797Y014870D01*
X001768Y014861D01*
X001738Y014856D01*
X001707Y014855D01*
X001677Y014858D01*
X001648Y014865D01*
X001619Y014875D01*
X001593Y014889D01*
X001568Y014906D01*
X001545Y014927D01*
X001526Y014950D01*
X001509Y014975D01*
X001496Y015002D01*
X001487Y015031D01*
X001481Y015061D01*
X001479Y015091D01*
X001549Y018923D02*
X001551Y018973D01*
X001557Y019023D01*
X001567Y019073D01*
X001580Y019121D01*
X001597Y019169D01*
X001618Y019215D01*
X001642Y019259D01*
X001670Y019301D01*
X001701Y019341D01*
X001735Y019378D01*
X001772Y019413D01*
X001811Y019444D01*
X001852Y019473D01*
X001896Y019498D01*
X001942Y019520D01*
X001989Y019538D01*
X002037Y019552D01*
X002086Y019563D01*
X002136Y019570D01*
X002186Y019573D01*
X002237Y019572D01*
X002287Y019567D01*
X002337Y019558D01*
X002385Y019546D01*
X002433Y019529D01*
X002479Y019509D01*
X002524Y019486D01*
X002567Y019459D01*
X002607Y019429D01*
X002645Y019396D01*
X002680Y019360D01*
X002713Y019321D01*
X002742Y019280D01*
X002768Y019237D01*
X002791Y019192D01*
X002810Y019145D01*
X002825Y019097D01*
X002837Y019048D01*
X002845Y018998D01*
X002849Y018948D01*
X002849Y018898D01*
X002845Y018848D01*
X002837Y018798D01*
X002825Y018749D01*
X002810Y018701D01*
X002791Y018654D01*
X002768Y018609D01*
X002742Y018566D01*
X002713Y018525D01*
X002680Y018486D01*
X002645Y018450D01*
X002607Y018417D01*
X002567Y018387D01*
X002524Y018360D01*
X002479Y018337D01*
X002433Y018317D01*
X002385Y018300D01*
X002337Y018288D01*
X002287Y018279D01*
X002237Y018274D01*
X002186Y018273D01*
X002136Y018276D01*
X002086Y018283D01*
X002037Y018294D01*
X001989Y018308D01*
X001942Y018326D01*
X001896Y018348D01*
X001852Y018373D01*
X001811Y018402D01*
X001772Y018433D01*
X001735Y018468D01*
X001701Y018505D01*
X001670Y018545D01*
X001642Y018587D01*
X001618Y018631D01*
X001597Y018677D01*
X001580Y018725D01*
X001567Y018773D01*
X001557Y018823D01*
X001551Y018873D01*
X001549Y018923D01*
X019049Y018923D02*
X019051Y018973D01*
X019057Y019023D01*
X019067Y019073D01*
X019080Y019121D01*
X019097Y019169D01*
X019118Y019215D01*
X019142Y019259D01*
X019170Y019301D01*
X019201Y019341D01*
X019235Y019378D01*
X019272Y019413D01*
X019311Y019444D01*
X019352Y019473D01*
X019396Y019498D01*
X019442Y019520D01*
X019489Y019538D01*
X019537Y019552D01*
X019586Y019563D01*
X019636Y019570D01*
X019686Y019573D01*
X019737Y019572D01*
X019787Y019567D01*
X019837Y019558D01*
X019885Y019546D01*
X019933Y019529D01*
X019979Y019509D01*
X020024Y019486D01*
X020067Y019459D01*
X020107Y019429D01*
X020145Y019396D01*
X020180Y019360D01*
X020213Y019321D01*
X020242Y019280D01*
X020268Y019237D01*
X020291Y019192D01*
X020310Y019145D01*
X020325Y019097D01*
X020337Y019048D01*
X020345Y018998D01*
X020349Y018948D01*
X020349Y018898D01*
X020345Y018848D01*
X020337Y018798D01*
X020325Y018749D01*
X020310Y018701D01*
X020291Y018654D01*
X020268Y018609D01*
X020242Y018566D01*
X020213Y018525D01*
X020180Y018486D01*
X020145Y018450D01*
X020107Y018417D01*
X020067Y018387D01*
X020024Y018360D01*
X019979Y018337D01*
X019933Y018317D01*
X019885Y018300D01*
X019837Y018288D01*
X019787Y018279D01*
X019737Y018274D01*
X019686Y018273D01*
X019636Y018276D01*
X019586Y018283D01*
X019537Y018294D01*
X019489Y018308D01*
X019442Y018326D01*
X019396Y018348D01*
X019352Y018373D01*
X019311Y018402D01*
X019272Y018433D01*
X019235Y018468D01*
X019201Y018505D01*
X019170Y018545D01*
X019142Y018587D01*
X019118Y018631D01*
X019097Y018677D01*
X019080Y018725D01*
X019067Y018773D01*
X019057Y018823D01*
X019051Y018873D01*
X019049Y018923D01*
X019049Y001423D02*
X019051Y001473D01*
X019057Y001523D01*
X019067Y001573D01*
X019080Y001621D01*
X019097Y001669D01*
X019118Y001715D01*
X019142Y001759D01*
X019170Y001801D01*
X019201Y001841D01*
X019235Y001878D01*
X019272Y001913D01*
X019311Y001944D01*
X019352Y001973D01*
X019396Y001998D01*
X019442Y002020D01*
X019489Y002038D01*
X019537Y002052D01*
X019586Y002063D01*
X019636Y002070D01*
X019686Y002073D01*
X019737Y002072D01*
X019787Y002067D01*
X019837Y002058D01*
X019885Y002046D01*
X019933Y002029D01*
X019979Y002009D01*
X020024Y001986D01*
X020067Y001959D01*
X020107Y001929D01*
X020145Y001896D01*
X020180Y001860D01*
X020213Y001821D01*
X020242Y001780D01*
X020268Y001737D01*
X020291Y001692D01*
X020310Y001645D01*
X020325Y001597D01*
X020337Y001548D01*
X020345Y001498D01*
X020349Y001448D01*
X020349Y001398D01*
X020345Y001348D01*
X020337Y001298D01*
X020325Y001249D01*
X020310Y001201D01*
X020291Y001154D01*
X020268Y001109D01*
X020242Y001066D01*
X020213Y001025D01*
X020180Y000986D01*
X020145Y000950D01*
X020107Y000917D01*
X020067Y000887D01*
X020024Y000860D01*
X019979Y000837D01*
X019933Y000817D01*
X019885Y000800D01*
X019837Y000788D01*
X019787Y000779D01*
X019737Y000774D01*
X019686Y000773D01*
X019636Y000776D01*
X019586Y000783D01*
X019537Y000794D01*
X019489Y000808D01*
X019442Y000826D01*
X019396Y000848D01*
X019352Y000873D01*
X019311Y000902D01*
X019272Y000933D01*
X019235Y000968D01*
X019201Y001005D01*
X019170Y001045D01*
X019142Y001087D01*
X019118Y001131D01*
X019097Y001177D01*
X019080Y001225D01*
X019067Y001273D01*
X019057Y001323D01*
X019051Y001373D01*
X019049Y001423D01*
D11*
X018275Y015278D02*
X018079Y015475D01*
X018177Y015475D02*
X018275Y015573D01*
X018275Y015770D01*
X018177Y015868D01*
X017882Y015868D01*
X017882Y015278D01*
X017882Y015475D02*
X018177Y015475D01*
X017631Y015376D02*
X017532Y015278D01*
X017336Y015278D01*
X017237Y015376D01*
X017237Y015770D01*
X017336Y015868D01*
X017532Y015868D01*
X017631Y015770D01*
X017631Y015376D01*
X016986Y015868D02*
X016593Y015868D01*
X016789Y015868D02*
X016789Y015278D01*
X016342Y015376D02*
X016243Y015278D01*
X016046Y015278D01*
X015948Y015376D01*
X015948Y015770D01*
X016046Y015868D01*
X016243Y015868D01*
X016342Y015770D01*
X015697Y015868D02*
X015304Y015868D01*
X015304Y015278D01*
X015697Y015278D01*
X015500Y015573D02*
X015304Y015573D01*
X015053Y015868D02*
X014659Y015868D01*
X014856Y015868D02*
X014856Y015278D01*
X014408Y015278D02*
X014014Y015278D01*
X014014Y015868D01*
X014408Y015868D01*
X014211Y015573D02*
X014014Y015573D01*
X013764Y015376D02*
X013764Y015770D01*
X013665Y015868D01*
X013370Y015868D01*
X013370Y015278D01*
X013665Y015278D01*
X013764Y015376D01*
X012474Y015278D02*
X012474Y015868D01*
X012081Y015868D02*
X012474Y015278D01*
X012081Y015278D02*
X012081Y015868D01*
X011830Y015770D02*
X011731Y015868D01*
X011535Y015868D01*
X011436Y015770D01*
X011436Y015376D01*
X011535Y015278D01*
X011731Y015278D01*
X011830Y015376D01*
X011830Y015770D01*
X011203Y015868D02*
X011007Y015868D01*
X011105Y015868D02*
X011105Y015278D01*
X011007Y015278D02*
X011203Y015278D01*
X010559Y015278D02*
X010559Y015868D01*
X010362Y015868D02*
X010756Y015868D01*
X010111Y015671D02*
X010111Y015278D01*
X009717Y015278D02*
X009717Y015671D01*
X009914Y015868D01*
X010111Y015671D01*
X010111Y015573D02*
X009717Y015573D01*
X009485Y015868D02*
X009288Y015868D01*
X009386Y015868D02*
X009386Y015278D01*
X009288Y015278D02*
X009485Y015278D01*
X009037Y015376D02*
X008938Y015278D01*
X008643Y015278D01*
X008643Y015868D01*
X008938Y015868D01*
X009037Y015770D01*
X009037Y015376D01*
X008392Y015278D02*
X008392Y015671D01*
X008195Y015868D01*
X007999Y015671D01*
X007999Y015278D01*
X007748Y015278D02*
X007551Y015475D01*
X007649Y015475D02*
X007748Y015573D01*
X007748Y015770D01*
X007649Y015868D01*
X007354Y015868D01*
X007354Y015278D01*
X007354Y015475D02*
X007649Y015475D01*
X007999Y015573D02*
X008392Y015573D01*
D12*
X008929Y014873D02*
X009089Y014873D01*
X009143Y014820D01*
X009143Y014606D01*
X009089Y014553D01*
X008929Y014553D01*
X008929Y014873D01*
X009279Y014766D02*
X009279Y014553D01*
X009279Y014713D02*
X009492Y014713D01*
X009492Y014766D02*
X009386Y014873D01*
X009279Y014766D01*
X009492Y014766D02*
X009492Y014553D01*
X009629Y014553D02*
X009629Y014873D01*
X009842Y014553D01*
X009842Y014873D01*
X009979Y014873D02*
X010086Y014873D01*
X010032Y014873D02*
X010032Y014553D01*
X009979Y014553D02*
X010086Y014553D01*
X010212Y014553D02*
X010212Y014873D01*
X010426Y014873D01*
X010562Y014873D02*
X010562Y014553D01*
X010775Y014553D01*
X010426Y014553D02*
X010212Y014553D01*
X010212Y014713D02*
X010319Y014713D01*
X011262Y014766D02*
X011315Y014713D01*
X011422Y014713D01*
X011475Y014659D01*
X011475Y014606D01*
X011422Y014553D01*
X011315Y014553D01*
X011262Y014606D01*
X011262Y014766D02*
X011262Y014820D01*
X011315Y014873D01*
X011422Y014873D01*
X011475Y014820D01*
X011612Y014766D02*
X011612Y014553D01*
X011612Y014713D02*
X011825Y014713D01*
X011825Y014766D02*
X011825Y014553D01*
X011962Y014606D02*
X012015Y014553D01*
X012122Y014553D01*
X012175Y014606D01*
X012175Y014873D01*
X012311Y014873D02*
X012311Y014553D01*
X012525Y014553D01*
X013011Y014553D02*
X013225Y014873D01*
X013711Y014766D02*
X013711Y014553D01*
X013711Y014713D02*
X013925Y014713D01*
X013925Y014766D02*
X013925Y014553D01*
X014061Y014553D02*
X014274Y014553D01*
X014411Y014553D02*
X014411Y014873D01*
X014624Y014873D01*
X014761Y014873D02*
X014974Y014553D01*
X014761Y014553D02*
X014974Y014873D01*
X014624Y014553D02*
X014411Y014553D01*
X014411Y014713D02*
X014518Y014713D01*
X014061Y014873D02*
X014061Y014553D01*
X013925Y014766D02*
X013818Y014873D01*
X013711Y014766D01*
X015460Y014873D02*
X015460Y014553D01*
X015567Y014659D01*
X015674Y014553D01*
X015674Y014873D01*
X015810Y014766D02*
X015917Y014873D01*
X016024Y014766D01*
X016024Y014553D01*
X016160Y014553D02*
X016160Y014873D01*
X016214Y014713D02*
X016374Y014553D01*
X016510Y014553D02*
X016510Y014873D01*
X016724Y014873D01*
X016860Y014873D02*
X017074Y014873D01*
X017210Y014873D02*
X017317Y014873D01*
X017263Y014873D02*
X017263Y014553D01*
X017210Y014553D02*
X017317Y014553D01*
X017443Y014553D02*
X017657Y014553D01*
X017793Y014553D02*
X017793Y014873D01*
X017657Y014873D02*
X017443Y014873D01*
X017443Y014553D01*
X017443Y014713D02*
X017550Y014713D01*
X017793Y014553D02*
X018007Y014553D01*
X018143Y014553D02*
X018143Y014873D01*
X018303Y014873D01*
X018357Y014820D01*
X018357Y014606D01*
X018303Y014553D01*
X018143Y014553D01*
X016967Y014713D02*
X016860Y014713D01*
X016860Y014553D02*
X016860Y014873D01*
X016617Y014713D02*
X016510Y014713D01*
X016510Y014553D02*
X016724Y014553D01*
X016374Y014873D02*
X016160Y014659D01*
X016024Y014713D02*
X015810Y014713D01*
X015810Y014766D02*
X015810Y014553D01*
X013880Y012431D02*
X013319Y012431D01*
X013319Y011215D02*
X013880Y011215D01*
X011769Y010703D02*
X011429Y010703D01*
X011429Y010816D02*
X011429Y010589D01*
X011485Y010448D02*
X011429Y010391D01*
X011429Y010278D01*
X011485Y010221D01*
X011712Y010221D01*
X011769Y010278D01*
X011769Y010391D01*
X011712Y010448D01*
X011485Y010448D01*
X011485Y010080D02*
X011599Y010080D01*
X011656Y010023D01*
X011656Y009853D01*
X011769Y009853D02*
X011429Y009853D01*
X011429Y010023D01*
X011485Y010080D01*
X013419Y008731D02*
X013980Y008731D01*
X013980Y007515D02*
X013419Y007515D01*
X011769Y006603D02*
X011429Y006603D01*
X011429Y006716D02*
X011429Y006489D01*
X011485Y006348D02*
X011429Y006291D01*
X011429Y006178D01*
X011485Y006121D01*
X011712Y006121D01*
X011769Y006178D01*
X011769Y006291D01*
X011712Y006348D01*
X011485Y006348D01*
X011485Y005980D02*
X011599Y005980D01*
X011656Y005923D01*
X011656Y005753D01*
X011769Y005753D02*
X011429Y005753D01*
X011429Y005923D01*
X011485Y005980D01*
X011962Y014606D02*
X011962Y014873D01*
X011825Y014766D02*
X011718Y014873D01*
X011612Y014766D01*
X011499Y018873D02*
X011499Y019173D01*
X011499Y019473D01*
X011499Y019173D02*
X011099Y019473D01*
X011099Y018873D01*
X011499Y019173D01*
D13*
X006295Y019183D02*
X006155Y019183D01*
X006225Y019183D02*
X006225Y018763D01*
X006155Y018763D02*
X006295Y018763D01*
X005988Y018763D02*
X005848Y018763D01*
X005918Y018763D02*
X005918Y019183D01*
X005848Y019183D02*
X005988Y019183D01*
X005681Y019183D02*
X005541Y019183D01*
X005611Y019183D02*
X005611Y018763D01*
X005541Y018763D02*
X005681Y018763D01*
X004900Y018763D02*
X004620Y019183D01*
X004440Y019183D02*
X004160Y019183D01*
X004160Y018763D01*
X004440Y018763D01*
X004620Y018763D02*
X004900Y019183D01*
X004300Y018973D02*
X004160Y018973D01*
X003980Y018973D02*
X003980Y019113D01*
X003910Y019183D01*
X003699Y019183D01*
X003699Y018763D01*
X003699Y018903D02*
X003910Y018903D01*
X003980Y018973D01*
X003519Y018973D02*
X003239Y018973D01*
X003239Y019043D02*
X003239Y018763D01*
X003519Y018763D02*
X003519Y019043D01*
X003379Y019183D01*
X003239Y019043D01*
X004077Y015485D02*
X001321Y015485D01*
X001321Y010761D01*
X004077Y010761D01*
X004077Y009985D02*
X001321Y009985D01*
X001321Y005261D01*
X004077Y005261D01*
X005258Y005261D02*
X005652Y005261D01*
X005652Y009985D01*
X005258Y009985D01*
X005258Y010761D02*
X005652Y010761D01*
X005652Y015485D01*
X005258Y015485D01*
D14*
X005157Y017968D02*
X004987Y017968D01*
X004901Y018053D01*
X004901Y018478D01*
X004689Y018393D02*
X004604Y018478D01*
X004349Y018478D01*
X004349Y017968D01*
X004604Y017968D01*
X004689Y018053D01*
X004689Y018393D01*
X005242Y018478D02*
X005242Y018053D01*
X005157Y017968D01*
X005454Y017968D02*
X005794Y017968D01*
X006006Y017968D02*
X006347Y017968D01*
X006177Y018223D02*
X006006Y018223D01*
X006006Y018478D02*
X006006Y017968D01*
X006006Y018478D02*
X006347Y018478D01*
X005454Y018478D02*
X005454Y017968D01*
X004137Y018053D02*
X004052Y017968D01*
X003882Y017968D01*
X003797Y018053D01*
X003797Y018393D01*
X003882Y018478D01*
X004052Y018478D01*
X004137Y018393D01*
X004137Y018053D01*
X003584Y017968D02*
X003584Y018478D01*
X003414Y018308D01*
X003244Y018478D01*
X003244Y017968D01*
D15*
X003361Y017638D02*
X003488Y017638D01*
X003424Y017638D02*
X003424Y017321D01*
X003361Y017258D01*
X003297Y017258D01*
X003234Y017321D01*
X003648Y017258D02*
X003648Y017511D01*
X003775Y017638D01*
X003902Y017511D01*
X003902Y017258D01*
X004063Y017258D02*
X004063Y017638D01*
X004316Y017258D01*
X004316Y017638D01*
X003902Y017448D02*
X003648Y017448D01*
X004891Y017575D02*
X004955Y017638D01*
X005082Y017638D01*
X005145Y017575D01*
X005145Y017511D01*
X004891Y017258D01*
X005145Y017258D01*
X005306Y017321D02*
X005559Y017575D01*
X005559Y017321D01*
X005496Y017258D01*
X005369Y017258D01*
X005306Y017321D01*
X005306Y017575D01*
X005369Y017638D01*
X005496Y017638D01*
X005559Y017575D01*
X005720Y017511D02*
X005847Y017638D01*
X005847Y017258D01*
X005720Y017258D02*
X005974Y017258D01*
X006135Y017258D02*
X006388Y017511D01*
X006388Y017575D01*
X006325Y017638D01*
X006198Y017638D01*
X006135Y017575D01*
X006135Y017258D02*
X006388Y017258D01*
D16*
X008199Y017173D02*
X008299Y017173D01*
X008299Y017323D01*
X009024Y019148D02*
X009204Y019148D01*
X009114Y019148D02*
X009114Y019418D01*
X009024Y019328D01*
X008699Y019473D02*
X008549Y019473D01*
X007799Y019473D02*
X007549Y019473D01*
X007049Y019473D02*
X006799Y019473D01*
X009319Y019373D02*
X009364Y019418D01*
X009454Y019418D01*
X009499Y019373D01*
X009499Y019328D01*
X009319Y019148D01*
X009499Y019148D01*
X009613Y019238D02*
X009703Y019148D01*
X009794Y019238D01*
X009794Y019418D01*
X009613Y019418D02*
X009613Y019238D01*
X008174Y013612D02*
X008174Y013432D01*
X007994Y013612D01*
X007949Y013612D01*
X007904Y013567D01*
X007904Y013477D01*
X007949Y013432D01*
X007904Y013317D02*
X008174Y013317D01*
X008174Y013137D02*
X007904Y013137D01*
X007994Y013227D01*
X007904Y013317D01*
X007949Y013023D02*
X007994Y013023D01*
X008039Y012978D01*
X008039Y012887D01*
X007994Y012842D01*
X007949Y012842D01*
X007904Y012887D01*
X007904Y012978D01*
X007949Y013023D01*
X008039Y012978D02*
X008084Y013023D01*
X008129Y013023D01*
X008174Y012978D01*
X008174Y012887D01*
X008129Y012842D01*
X008084Y012842D01*
X008039Y012887D01*
X007949Y012728D02*
X008129Y012728D01*
X008174Y012683D01*
X008174Y012593D01*
X008129Y012548D01*
X007949Y012728D01*
X007904Y012683D01*
X007904Y012593D01*
X007949Y012548D01*
X008129Y012548D01*
X008094Y008612D02*
X008049Y008612D01*
X008004Y008567D01*
X008004Y008477D01*
X008049Y008432D01*
X008004Y008317D02*
X008274Y008317D01*
X008274Y008432D02*
X008094Y008612D01*
X008274Y008612D02*
X008274Y008432D01*
X008094Y008227D02*
X008004Y008317D01*
X008094Y008227D02*
X008004Y008137D01*
X008274Y008137D01*
X008229Y008023D02*
X008274Y007978D01*
X008274Y007887D01*
X008229Y007842D01*
X008184Y007842D01*
X008139Y007887D01*
X008139Y007978D01*
X008184Y008023D01*
X008229Y008023D01*
X008139Y007978D02*
X008094Y008023D01*
X008049Y008023D01*
X008004Y007978D01*
X008004Y007887D01*
X008049Y007842D01*
X008094Y007842D01*
X008139Y007887D01*
X008049Y007728D02*
X008229Y007728D01*
X008274Y007683D01*
X008274Y007593D01*
X008229Y007548D01*
X008049Y007728D01*
X008004Y007683D01*
X008004Y007593D01*
X008049Y007548D01*
X008229Y007548D01*
X006948Y005118D02*
X006994Y005073D01*
X006994Y004983D01*
X006948Y004938D01*
X006813Y004938D01*
X006813Y004848D02*
X006813Y005118D01*
X006948Y005118D01*
X006903Y004938D02*
X006994Y004848D01*
X006699Y004848D02*
X006699Y005118D01*
X006519Y005118D02*
X006519Y004848D01*
X006609Y004938D01*
X006699Y004848D01*
X006404Y004983D02*
X006359Y004938D01*
X006224Y004938D01*
X006224Y004848D02*
X006224Y005118D01*
X006359Y005118D01*
X006404Y005073D01*
X006404Y004983D01*
X007824Y003518D02*
X007914Y003518D01*
X007869Y003518D02*
X007869Y003248D01*
X007824Y003248D02*
X007914Y003248D01*
X008020Y003248D02*
X008201Y003428D01*
X008201Y003473D01*
X008156Y003518D01*
X008066Y003518D01*
X008020Y003473D01*
X008020Y003248D02*
X008201Y003248D01*
X008315Y003293D02*
X008360Y003248D01*
X008450Y003248D01*
X008495Y003293D01*
X008315Y003293D02*
X008315Y003473D01*
X008360Y003518D01*
X008450Y003518D01*
X008495Y003473D01*
X006999Y000923D02*
X006999Y000773D01*
X006899Y000773D01*
X004095Y003293D02*
X004050Y003248D01*
X003960Y003248D01*
X003915Y003293D01*
X003915Y003473D01*
X003960Y003518D01*
X004050Y003518D01*
X004095Y003473D01*
X003801Y003473D02*
X003756Y003518D01*
X003666Y003518D01*
X003620Y003473D01*
X003514Y003518D02*
X003424Y003518D01*
X003469Y003518D02*
X003469Y003248D01*
X003424Y003248D02*
X003514Y003248D01*
X003620Y003248D02*
X003801Y003428D01*
X003801Y003473D01*
X003801Y003248D02*
X003620Y003248D01*
X011299Y000773D02*
X011399Y000773D01*
X011399Y000923D01*
X013649Y007748D02*
X013694Y007748D01*
X013739Y007793D01*
X013739Y007928D01*
X013829Y007928D02*
X013649Y007928D01*
X013604Y007883D01*
X013604Y007793D01*
X013649Y007748D01*
X013829Y007748D02*
X013874Y007793D01*
X013874Y007883D01*
X013829Y007928D01*
X013829Y008042D02*
X013784Y008042D01*
X013739Y008087D01*
X013739Y008178D01*
X013784Y008223D01*
X013829Y008223D01*
X013874Y008178D01*
X013874Y008087D01*
X013829Y008042D01*
X013739Y008087D02*
X013694Y008042D01*
X013649Y008042D01*
X013604Y008087D01*
X013604Y008178D01*
X013649Y008223D01*
X013694Y008223D01*
X013739Y008178D01*
X013829Y008337D02*
X013874Y008337D01*
X013829Y008337D02*
X013649Y008517D01*
X013604Y008517D01*
X013604Y008337D01*
X015459Y011148D02*
X015459Y011418D01*
X015324Y011283D01*
X015504Y011283D01*
X015619Y011283D02*
X015799Y011283D01*
X015754Y011418D02*
X015619Y011283D01*
X015754Y011148D02*
X015754Y011418D01*
X015913Y011418D02*
X016094Y011418D01*
X016094Y011373D01*
X015913Y011193D01*
X015913Y011148D01*
X016208Y011148D02*
X016208Y011193D01*
X016388Y011373D01*
X016388Y011418D01*
X016208Y011418D01*
X016288Y011648D02*
X016288Y011918D01*
X016198Y011828D01*
X016108Y011918D01*
X016108Y011648D01*
X015994Y011648D02*
X015994Y011828D01*
X015903Y011918D01*
X015813Y011828D01*
X015813Y011648D01*
X015813Y011783D02*
X015994Y011783D01*
X015699Y011783D02*
X015699Y011873D01*
X015654Y011918D01*
X015519Y011918D01*
X015519Y011648D01*
X015519Y011738D02*
X015654Y011738D01*
X015699Y011783D01*
X015404Y011873D02*
X015359Y011918D01*
X015269Y011918D01*
X015224Y011873D01*
X015224Y011693D01*
X015269Y011648D01*
X015359Y011648D01*
X015404Y011693D01*
X015404Y011873D01*
X016403Y011918D02*
X016403Y011648D01*
X016403Y011738D02*
X016538Y011738D01*
X016583Y011783D01*
X016583Y011873D01*
X016538Y011918D01*
X016403Y011918D01*
X013774Y011878D02*
X013774Y011787D01*
X013729Y011742D01*
X013684Y011742D01*
X013639Y011787D01*
X013639Y011878D01*
X013684Y011923D01*
X013729Y011923D01*
X013774Y011878D01*
X013639Y011878D02*
X013594Y011923D01*
X013549Y011923D01*
X013504Y011878D01*
X013504Y011787D01*
X013549Y011742D01*
X013594Y011742D01*
X013639Y011787D01*
X013639Y011628D02*
X013639Y011493D01*
X013594Y011448D01*
X013549Y011448D01*
X013504Y011493D01*
X013504Y011583D01*
X013549Y011628D01*
X013729Y011628D01*
X013774Y011583D01*
X013774Y011493D01*
X013729Y011448D01*
X013729Y012037D02*
X013774Y012037D01*
X013729Y012037D02*
X013549Y012217D01*
X013504Y012217D01*
X013504Y012037D01*
X016269Y016574D02*
X016224Y016620D01*
X016224Y016710D01*
X016269Y016755D01*
X016449Y016755D01*
X016494Y016710D01*
X016494Y016620D01*
X016449Y016574D01*
X016269Y016574D01*
X016224Y016869D02*
X016224Y017004D01*
X016269Y017049D01*
X016359Y017049D01*
X016404Y017004D01*
X016404Y016869D01*
X016494Y016869D02*
X016224Y016869D01*
X016074Y017083D02*
X015804Y017083D01*
X015939Y016948D01*
X015939Y017128D01*
X015939Y017242D02*
X015939Y017423D01*
X016074Y017378D02*
X015804Y017378D01*
X015939Y017242D01*
X016224Y017254D02*
X016314Y017344D01*
X016494Y017344D01*
X016494Y017458D02*
X016224Y017458D01*
X016314Y017549D01*
X016224Y017639D01*
X016494Y017639D01*
X016494Y017753D02*
X016224Y017753D01*
X016224Y017888D01*
X016269Y017933D01*
X016359Y017933D01*
X016404Y017888D01*
X016404Y017753D01*
X016074Y017832D02*
X016029Y017832D01*
X015849Y018012D01*
X015804Y018012D01*
X015804Y017832D01*
X015804Y017717D02*
X015849Y017717D01*
X016029Y017537D01*
X016074Y017537D01*
X016224Y017254D02*
X016314Y017164D01*
X016494Y017164D01*
X016359Y017164D02*
X016359Y017344D01*
X015804Y017537D02*
X015804Y017717D01*
X018704Y005265D02*
X018884Y005265D01*
X018974Y005174D01*
X018884Y005084D01*
X018704Y005084D01*
X018749Y004970D02*
X018794Y004970D01*
X018839Y004925D01*
X018884Y004970D01*
X018929Y004970D01*
X018974Y004925D01*
X018974Y004835D01*
X018929Y004790D01*
X018929Y004687D02*
X018974Y004687D01*
X018974Y004642D01*
X018929Y004642D01*
X018929Y004687D01*
X018929Y004528D02*
X018974Y004483D01*
X018974Y004393D01*
X018929Y004348D01*
X018839Y004438D02*
X018839Y004483D01*
X018884Y004528D01*
X018929Y004528D01*
X018839Y004483D02*
X018794Y004528D01*
X018749Y004528D01*
X018704Y004483D01*
X018704Y004393D01*
X018749Y004348D01*
X018749Y004790D02*
X018704Y004835D01*
X018704Y004925D01*
X018749Y004970D01*
X018839Y004925D02*
X018839Y004880D01*
D17*
X014149Y009943D02*
X014149Y010143D01*
X014215Y010143D02*
X014082Y010143D01*
X013994Y010110D02*
X013961Y010143D01*
X013894Y010143D01*
X013861Y010110D01*
X013861Y010076D01*
X013894Y010043D01*
X013961Y010043D01*
X013994Y010009D01*
X013994Y009976D01*
X013961Y009943D01*
X013894Y009943D01*
X013861Y009976D01*
X013773Y009943D02*
X013640Y009943D01*
X013640Y010143D01*
X013773Y010143D01*
X013707Y010043D02*
X013640Y010043D01*
X013553Y010143D02*
X013419Y010143D01*
X013486Y010143D02*
X013486Y009943D01*
D18*
X013953Y004007D03*
X014583Y000926D03*
D19*
X014583Y000929D03*
D20*
X014583Y000932D03*
X013413Y003278D03*
X015846Y003518D03*
X015855Y003836D03*
D21*
X015856Y003851D03*
X015847Y003500D03*
X013384Y003677D03*
X014584Y000935D03*
D22*
X014584Y000938D03*
X013231Y003338D03*
X013987Y004067D03*
X015856Y003863D03*
X015847Y003491D03*
D23*
X015856Y003875D03*
X014635Y003740D03*
X014635Y003737D03*
X014635Y003731D03*
X014635Y003728D03*
X014635Y003725D03*
X014635Y003722D03*
X014635Y003716D03*
X014635Y003713D03*
X014635Y003710D03*
X014635Y003707D03*
X014632Y003608D03*
X014185Y003992D03*
X013993Y004076D03*
X013390Y003251D03*
X014584Y000941D03*
D24*
X014584Y000944D03*
X015436Y003284D03*
X014632Y003554D03*
X013231Y003344D03*
D25*
X014007Y004088D03*
X014637Y003815D03*
X014637Y003812D03*
X015846Y003455D03*
X014586Y000947D03*
D26*
X014586Y000950D03*
X015441Y003311D03*
X015846Y003443D03*
X015846Y003446D03*
X013233Y003350D03*
D27*
X014181Y003353D03*
X015846Y003437D03*
X014586Y000953D03*
D28*
X014586Y000956D03*
X015447Y003335D03*
X015447Y003338D03*
X015846Y003425D03*
X015846Y003428D03*
D29*
X014181Y003359D03*
X014586Y000959D03*
D30*
X014586Y000962D03*
X014181Y003362D03*
X014634Y003437D03*
X015846Y003407D03*
X013326Y003653D03*
D31*
X013695Y003275D03*
X013695Y003272D03*
X013695Y003266D03*
X013695Y003263D03*
X013695Y003260D03*
X013695Y003257D03*
X014181Y003365D03*
X014640Y003911D03*
X015441Y004001D03*
X015450Y003986D03*
X015453Y003983D03*
X015456Y003980D03*
X015456Y003977D03*
X015465Y003965D03*
X015471Y003956D03*
X015855Y003953D03*
X015846Y003398D03*
X014586Y000965D03*
X013233Y003986D03*
D32*
X014638Y003920D03*
X015067Y003971D03*
X015412Y004037D03*
X015421Y004025D03*
X015493Y003917D03*
X015496Y003911D03*
X014632Y003416D03*
X014587Y000968D03*
D33*
X014587Y000971D03*
X013240Y003380D03*
X013684Y003887D03*
X013684Y003890D03*
X013684Y003893D03*
X014185Y003962D03*
X014638Y003932D03*
X015067Y003968D03*
X015391Y004058D03*
X015394Y004055D03*
X015511Y003881D03*
X015514Y003875D03*
D34*
X015525Y003854D03*
X015846Y003374D03*
X014181Y003374D03*
X014586Y000974D03*
D35*
X014587Y000977D03*
X014632Y003392D03*
X014179Y003377D03*
X013672Y003953D03*
X013672Y003956D03*
X013228Y003977D03*
X015532Y003836D03*
X015532Y003833D03*
X015856Y003983D03*
D36*
X015544Y003806D03*
X015358Y004085D03*
X014632Y003380D03*
X014185Y003950D03*
X013666Y003980D03*
X013294Y003623D03*
X013243Y003398D03*
X014587Y000980D03*
D37*
X014587Y000983D03*
X015847Y003350D03*
X015553Y003785D03*
X014641Y003965D03*
X013246Y003407D03*
D38*
X013246Y003413D03*
X013654Y004010D03*
X013654Y004013D03*
X014632Y003368D03*
X015556Y003776D03*
X014587Y000986D03*
D39*
X014587Y000989D03*
D40*
X014587Y000992D03*
X014632Y003353D03*
X014179Y003401D03*
X014641Y003986D03*
X015571Y003737D03*
X015856Y004025D03*
X015847Y003326D03*
X013642Y004040D03*
X013273Y003581D03*
X013249Y003437D03*
D41*
X013252Y003446D03*
X013219Y003956D03*
X013639Y004043D03*
X014632Y003350D03*
X015064Y003926D03*
X015574Y003728D03*
X015574Y003725D03*
X015847Y003320D03*
X014587Y000995D03*
X014584Y005858D03*
D42*
X014641Y003998D03*
X015064Y003917D03*
X015580Y003710D03*
X015580Y003707D03*
X015847Y003311D03*
X014179Y003410D03*
X014185Y003920D03*
X013633Y004055D03*
X013264Y003545D03*
X013264Y003542D03*
X013255Y003476D03*
X013255Y003473D03*
X013255Y003470D03*
X013255Y003467D03*
X014587Y000998D03*
D43*
X014589Y001001D03*
X016389Y003251D03*
X015582Y003653D03*
X014634Y003338D03*
X013629Y004061D03*
D44*
X014179Y003419D03*
X014587Y001004D03*
D45*
X014589Y001007D03*
X014184Y003902D03*
X013620Y004073D03*
X015855Y004061D03*
X015855Y004058D03*
D46*
X015853Y004067D03*
X015847Y003281D03*
X014185Y003896D03*
X014587Y001010D03*
D47*
X014589Y001013D03*
X014634Y003320D03*
X015063Y003872D03*
X015855Y004073D03*
X015855Y004076D03*
X016383Y003287D03*
X014184Y003890D03*
X013611Y004082D03*
D48*
X013605Y004088D03*
X014184Y003878D03*
X015060Y003857D03*
X016380Y003302D03*
X014589Y001016D03*
X012777Y003341D03*
X012774Y003347D03*
X012774Y003350D03*
X012771Y003356D03*
X012747Y003440D03*
X012747Y003443D03*
X012747Y003446D03*
X012744Y003452D03*
X012744Y003455D03*
X012744Y003458D03*
X012744Y003461D03*
D49*
X012741Y003479D03*
X014589Y001019D03*
D50*
X014589Y001022D03*
X012798Y003302D03*
X012738Y003518D03*
X014184Y003863D03*
X015060Y003830D03*
X015060Y003827D03*
X016377Y003320D03*
X016377Y003317D03*
D51*
X016377Y003323D03*
X016377Y003326D03*
X014634Y003305D03*
X014184Y003857D03*
X012804Y003293D03*
X014589Y001025D03*
D52*
X014589Y001028D03*
X016374Y003338D03*
X016425Y004088D03*
X016425Y004091D03*
X015057Y003785D03*
X015057Y003782D03*
X015057Y003776D03*
X015057Y003773D03*
X014184Y003842D03*
X014181Y003485D03*
X012741Y003560D03*
D53*
X012819Y003272D03*
X014184Y003833D03*
X014184Y003836D03*
X015054Y003755D03*
X015054Y003752D03*
X014589Y001031D03*
D54*
X014589Y001034D03*
X016419Y004064D03*
D55*
X016416Y004058D03*
X016371Y003362D03*
X014181Y003518D03*
X014181Y003521D03*
X014184Y003806D03*
X012747Y003602D03*
X012834Y003257D03*
X014589Y001037D03*
D56*
X014589Y001040D03*
X014184Y003536D03*
X014184Y003797D03*
X014184Y003800D03*
X012747Y003608D03*
X016416Y004052D03*
D57*
X016410Y004037D03*
X014187Y003761D03*
X014187Y003758D03*
X014184Y003572D03*
X014184Y003566D03*
X012849Y003245D03*
X012750Y003623D03*
X014589Y001043D03*
D58*
X014589Y001046D03*
X014187Y003596D03*
X014187Y003602D03*
X014187Y003605D03*
X014187Y003608D03*
X014187Y003611D03*
X014187Y003731D03*
X014187Y003737D03*
X014187Y003740D03*
X014187Y003743D03*
X014187Y003746D03*
D59*
X012856Y003239D03*
X014590Y001049D03*
X016405Y004019D03*
D60*
X016362Y003407D03*
X014589Y001052D03*
X012864Y003236D03*
X012759Y003650D03*
D61*
X012775Y004055D03*
X013555Y003242D03*
X014635Y003275D03*
X016360Y003416D03*
X014590Y001055D03*
D62*
X014589Y001058D03*
X014637Y003272D03*
X016395Y003983D03*
X012780Y004061D03*
X012771Y003968D03*
X012771Y003965D03*
X012771Y003962D03*
D63*
X012771Y003956D03*
X012771Y003953D03*
X012876Y003230D03*
X014589Y001061D03*
X016356Y003431D03*
X016395Y003977D03*
D64*
X014590Y001064D03*
D65*
X014589Y001067D03*
X012777Y003686D03*
D66*
X012781Y003692D03*
X012799Y004076D03*
X014590Y001070D03*
X016384Y003941D03*
D67*
X016348Y003470D03*
X016348Y003467D03*
X014590Y001073D03*
D68*
X014589Y001076D03*
X014637Y003260D03*
X014646Y004082D03*
X016377Y003923D03*
X016377Y003920D03*
X012789Y003701D03*
D69*
X014590Y001079D03*
D70*
X014590Y001082D03*
X013519Y003227D03*
X012796Y003710D03*
X012814Y004088D03*
X014644Y004085D03*
X016342Y003497D03*
D71*
X014589Y001085D03*
X012822Y004091D03*
D72*
X014590Y001088D03*
D73*
X014590Y001091D03*
X012805Y003722D03*
X016360Y003866D03*
D74*
X016356Y003854D03*
X014589Y001094D03*
D75*
X014590Y001097D03*
X016330Y003545D03*
X016330Y003548D03*
D76*
X014590Y001100D03*
D77*
X014590Y001103D03*
X016327Y003560D03*
D78*
X014590Y001106D03*
D79*
X014590Y001109D03*
D80*
X014590Y001112D03*
D81*
X014590Y001115D03*
X016315Y003605D03*
X016327Y003770D03*
X016330Y003776D03*
D82*
X016315Y003611D03*
X015253Y003410D03*
X014590Y001118D03*
D83*
X014590Y001121D03*
D84*
X014590Y001124D03*
D85*
X014590Y001127D03*
X016306Y003641D03*
X016312Y003728D03*
D86*
X016303Y003653D03*
X016303Y003650D03*
X014590Y001130D03*
D87*
X014590Y001133D03*
X016300Y003662D03*
D88*
X016299Y003668D03*
X016299Y003671D03*
X016299Y003692D03*
X016302Y003695D03*
X016302Y003698D03*
X014592Y001136D03*
X012864Y003761D03*
D89*
X014592Y001139D03*
D90*
X014590Y001142D03*
D91*
X014590Y001145D03*
D92*
X014592Y001148D03*
X015252Y003461D03*
D93*
X015252Y003467D03*
X014592Y001151D03*
D94*
X014590Y001154D03*
D95*
X014590Y001157D03*
D96*
X014592Y001160D03*
D97*
X014592Y001163D03*
X015255Y003491D03*
D98*
X015255Y003497D03*
X014592Y001166D03*
D99*
X014590Y001169D03*
D100*
X014590Y001172D03*
D101*
X014592Y001175D03*
D102*
X014592Y001178D03*
X015261Y003527D03*
X015261Y003530D03*
D103*
X014590Y001181D03*
D104*
X014590Y001184D03*
D105*
X014592Y001187D03*
X015267Y003557D03*
D106*
X015267Y003560D03*
X014592Y001190D03*
D107*
X014592Y001193D03*
D108*
X014592Y001196D03*
X015270Y003575D03*
D109*
X014590Y001199D03*
D110*
X014590Y001202D03*
D111*
X014592Y001205D03*
X015279Y003605D03*
X012954Y003938D03*
D112*
X012957Y003926D03*
X014583Y005816D03*
X015282Y003611D03*
X014592Y001208D03*
D113*
X014592Y001211D03*
X012957Y003920D03*
D114*
X014592Y001214D03*
D115*
X014590Y001217D03*
D116*
X014592Y001220D03*
X012966Y003845D03*
X012966Y003848D03*
X012966Y003851D03*
X012966Y003857D03*
D117*
X014592Y001223D03*
D118*
X014592Y001226D03*
D119*
X014592Y001229D03*
D120*
X014592Y001232D03*
D121*
X014590Y001235D03*
D122*
X014592Y001238D03*
D123*
X014592Y001241D03*
D124*
X014592Y001244D03*
D125*
X014592Y001247D03*
D126*
X014592Y001250D03*
D127*
X014592Y001253D03*
D128*
X014592Y001256D03*
D129*
X014592Y001259D03*
D130*
X014592Y001262D03*
D131*
X014592Y001265D03*
D132*
X014592Y001268D03*
D133*
X014592Y001271D03*
D134*
X014592Y001274D03*
D135*
X014592Y001277D03*
X013284Y002912D03*
D136*
X014592Y001280D03*
D137*
X014592Y001283D03*
D138*
X014592Y001286D03*
X013272Y002957D03*
X013272Y002960D03*
D139*
X013269Y002969D03*
X014592Y001289D03*
D140*
X014592Y001292D03*
X013266Y002981D03*
D141*
X014592Y001295D03*
D142*
X014592Y001298D03*
D143*
X014592Y001301D03*
X013257Y003017D03*
X013257Y003020D03*
D144*
X014592Y001304D03*
D145*
X014593Y001307D03*
X013249Y003050D03*
X013249Y003053D03*
D146*
X014593Y001310D03*
D147*
X014592Y001313D03*
X013242Y003083D03*
X013242Y003086D03*
D148*
X013239Y003098D03*
X013239Y003101D03*
X014592Y001316D03*
D149*
X014592Y001319D03*
D150*
X014592Y001322D03*
D151*
X014592Y001325D03*
D152*
X014592Y001328D03*
X013227Y003155D03*
X013227Y003158D03*
D153*
X013224Y003170D03*
X013224Y003173D03*
X014592Y001331D03*
D154*
X014592Y001334D03*
D155*
X014593Y001337D03*
D156*
X014593Y001340D03*
D157*
X014593Y001343D03*
D158*
X014593Y001346D03*
D159*
X014592Y001349D03*
D160*
X014592Y001352D03*
D161*
X014592Y001355D03*
D162*
X014592Y001358D03*
D163*
X014592Y001361D03*
D164*
X014592Y001364D03*
D165*
X014592Y001367D03*
D166*
X014592Y001370D03*
D167*
X014592Y001373D03*
D168*
X014593Y001376D03*
D169*
X014593Y001379D03*
D170*
X014593Y001382D03*
D171*
X014593Y001385D03*
D172*
X014593Y001388D03*
D173*
X014593Y001391D03*
D174*
X014592Y001394D03*
D175*
X014592Y001397D03*
D176*
X014592Y001400D03*
D177*
X014592Y001403D03*
D178*
X014592Y001406D03*
D179*
X014592Y001409D03*
D180*
X014592Y001412D03*
X014583Y005753D03*
D181*
X014592Y001415D03*
D182*
X014592Y001418D03*
D183*
X014592Y001421D03*
D184*
X014592Y001424D03*
D185*
X014592Y001427D03*
D186*
X014592Y001430D03*
D187*
X014593Y001433D03*
D188*
X014593Y001436D03*
D189*
X014593Y001439D03*
D190*
X014593Y001442D03*
D191*
X014593Y001445D03*
D192*
X014593Y001448D03*
D193*
X014593Y001451D03*
D194*
X014593Y001454D03*
D195*
X014593Y001457D03*
D196*
X014593Y001460D03*
D197*
X014593Y001463D03*
D198*
X014593Y001466D03*
D199*
X014593Y001469D03*
D200*
X014593Y001472D03*
D201*
X014593Y001475D03*
D202*
X014593Y001478D03*
D203*
X014593Y001481D03*
X015895Y004106D03*
D204*
X014593Y001484D03*
D205*
X014593Y001487D03*
D206*
X014593Y001490D03*
D207*
X014593Y001493D03*
D208*
X014593Y001496D03*
D209*
X014593Y001499D03*
D210*
X014593Y001502D03*
D211*
X014593Y001505D03*
D212*
X014593Y001508D03*
X014584Y005717D03*
D213*
X014593Y001511D03*
D214*
X014593Y001514D03*
X014584Y005714D03*
D215*
X014593Y001517D03*
D216*
X014593Y001520D03*
D217*
X014593Y001523D03*
D218*
X014593Y001526D03*
D219*
X014593Y001529D03*
D220*
X014593Y001532D03*
D221*
X014593Y001535D03*
D222*
X014593Y001538D03*
D223*
X014593Y001541D03*
D224*
X014593Y001544D03*
D225*
X014593Y001547D03*
D226*
X014593Y001550D03*
D227*
X014593Y001553D03*
D228*
X014593Y001556D03*
D229*
X014593Y001559D03*
D230*
X014593Y001562D03*
D231*
X014593Y001565D03*
D232*
X014593Y001568D03*
D233*
X014593Y001571D03*
D234*
X014593Y001574D03*
D235*
X014593Y001577D03*
D236*
X014592Y001580D03*
D237*
X014592Y001583D03*
D238*
X014592Y001586D03*
D239*
X014592Y001589D03*
D240*
X014592Y001592D03*
D241*
X014592Y001595D03*
D242*
X014592Y001598D03*
D243*
X014592Y001601D03*
D244*
X014592Y001604D03*
D245*
X014592Y001607D03*
X014583Y005675D03*
D246*
X014592Y001610D03*
D247*
X014592Y001613D03*
D248*
X014592Y001616D03*
D249*
X014592Y001619D03*
D250*
X014593Y001622D03*
D251*
X014593Y001625D03*
D252*
X014593Y001628D03*
D253*
X014593Y001631D03*
D254*
X014593Y001634D03*
D255*
X014593Y001637D03*
D256*
X014593Y001640D03*
X014584Y005660D03*
D257*
X014593Y001643D03*
D258*
X014593Y001646D03*
X014584Y005657D03*
D259*
X014592Y001649D03*
D260*
X014592Y001652D03*
D261*
X014592Y001655D03*
D262*
X014592Y001658D03*
D263*
X014592Y001661D03*
D264*
X014592Y001664D03*
D265*
X014592Y001667D03*
D266*
X014592Y001670D03*
D267*
X014593Y001673D03*
D268*
X014593Y001676D03*
D269*
X014593Y001679D03*
D270*
X014593Y001682D03*
D271*
X014593Y001685D03*
D272*
X014592Y001688D03*
D273*
X014592Y001691D03*
D274*
X014592Y001694D03*
D275*
X014592Y001697D03*
D276*
X014592Y001700D03*
D277*
X014592Y001703D03*
D278*
X014592Y001706D03*
D279*
X014592Y001709D03*
D280*
X014592Y001712D03*
D281*
X014593Y001715D03*
D282*
X014593Y001718D03*
D283*
X014593Y001721D03*
D284*
X014593Y001724D03*
D285*
X014592Y001727D03*
D286*
X014592Y001730D03*
D287*
X014592Y001733D03*
D288*
X014592Y001736D03*
X014583Y005615D03*
D289*
X014592Y001739D03*
D290*
X014592Y001742D03*
D291*
X014592Y001745D03*
D292*
X014592Y001748D03*
D293*
X014593Y001751D03*
D294*
X014593Y001754D03*
D295*
X014593Y001757D03*
D296*
X014592Y001760D03*
D297*
X014592Y001763D03*
D298*
X014592Y001766D03*
D299*
X014592Y001769D03*
D300*
X014592Y001772D03*
D301*
X014592Y001775D03*
D302*
X014593Y001778D03*
D303*
X014593Y001781D03*
D304*
X014593Y001784D03*
D305*
X014592Y001787D03*
D306*
X014592Y001790D03*
D307*
X014592Y001793D03*
D308*
X014592Y001796D03*
D309*
X014592Y001799D03*
D310*
X014592Y001802D03*
D311*
X014592Y001805D03*
D312*
X014593Y001808D03*
D313*
X014593Y001811D03*
D314*
X014592Y001814D03*
D315*
X014592Y001817D03*
D316*
X014592Y001820D03*
D317*
X014592Y001823D03*
D318*
X014592Y001826D03*
D319*
X014592Y001829D03*
D320*
X014592Y001832D03*
D321*
X014593Y001835D03*
D322*
X014592Y001838D03*
D323*
X014592Y001841D03*
D324*
X014592Y001844D03*
D325*
X014592Y001847D03*
D326*
X014592Y001850D03*
D327*
X014592Y001853D03*
D328*
X014592Y001856D03*
D329*
X014592Y001859D03*
D330*
X014592Y001862D03*
D331*
X014592Y001865D03*
D332*
X014592Y001868D03*
D333*
X014592Y001871D03*
D334*
X014592Y001874D03*
D335*
X014592Y001877D03*
D336*
X014592Y001880D03*
X014592Y001883D03*
D337*
X014592Y001886D03*
D338*
X014592Y001889D03*
D339*
X014592Y001892D03*
D340*
X014592Y001895D03*
D341*
X014592Y001898D03*
D342*
X014592Y001901D03*
D343*
X014592Y001904D03*
D344*
X014592Y001907D03*
X014583Y005525D03*
D345*
X014592Y001910D03*
D346*
X014592Y001913D03*
D347*
X014592Y001916D03*
D348*
X014592Y001919D03*
D349*
X014592Y001922D03*
D350*
X014592Y001925D03*
X014583Y005516D03*
D351*
X014592Y001928D03*
D352*
X014592Y001931D03*
D353*
X014592Y001934D03*
D354*
X014592Y001937D03*
D355*
X014590Y001940D03*
D356*
X014592Y001943D03*
D357*
X014592Y001946D03*
D358*
X014592Y001949D03*
D359*
X014592Y001952D03*
D360*
X014592Y001955D03*
D361*
X014590Y001958D03*
D362*
X014590Y001961D03*
D363*
X014592Y001964D03*
D364*
X014592Y001967D03*
D365*
X014592Y001970D03*
D366*
X014592Y001973D03*
D367*
X014590Y001976D03*
D368*
X014592Y001979D03*
D369*
X014592Y001982D03*
D370*
X014592Y001985D03*
D371*
X014592Y001988D03*
D372*
X014592Y001991D03*
D373*
X014590Y001994D03*
D374*
X014592Y001997D03*
D375*
X014592Y002000D03*
D376*
X014592Y002003D03*
D377*
X014592Y002006D03*
D378*
X014592Y002009D03*
D379*
X014590Y002012D03*
D380*
X014592Y002015D03*
D381*
X014592Y002018D03*
D382*
X014592Y002021D03*
X015180Y002906D03*
D383*
X014592Y002024D03*
D384*
X014590Y002027D03*
D385*
X014590Y002030D03*
D386*
X014592Y002033D03*
X015189Y002942D03*
X015189Y002945D03*
D387*
X015192Y002957D03*
X014592Y002036D03*
D388*
X014592Y002039D03*
X015195Y002969D03*
D389*
X015196Y002972D03*
X015196Y002975D03*
X014590Y002042D03*
D390*
X014590Y002045D03*
D391*
X014592Y002048D03*
D392*
X014592Y002051D03*
X015204Y003002D03*
X015204Y003005D03*
X015204Y003008D03*
X014583Y005441D03*
D393*
X014592Y002054D03*
D394*
X014590Y002057D03*
X015208Y003023D03*
X015208Y003026D03*
D395*
X015211Y003038D03*
X015211Y003041D03*
X014590Y002060D03*
X014584Y005435D03*
D396*
X014592Y002063D03*
D397*
X014592Y002066D03*
D398*
X014592Y002069D03*
X015219Y003074D03*
X014583Y005429D03*
D399*
X015220Y003080D03*
X015220Y003077D03*
X014590Y002072D03*
D400*
X014590Y002075D03*
X015223Y003092D03*
X015223Y003095D03*
D401*
X015225Y003098D03*
X015225Y003101D03*
X014592Y002078D03*
D402*
X014592Y002081D03*
D403*
X014592Y002084D03*
D404*
X014590Y002087D03*
D405*
X014590Y002090D03*
X015235Y003152D03*
D406*
X015237Y003155D03*
X015237Y003158D03*
X015237Y003161D03*
X014592Y002093D03*
D407*
X014592Y002096D03*
X015240Y003170D03*
X015240Y003173D03*
X015240Y003176D03*
D408*
X014592Y002099D03*
D409*
X014590Y002102D03*
D410*
X014590Y002105D03*
D411*
X014592Y002108D03*
X015249Y003218D03*
X015249Y003221D03*
X014583Y005405D03*
D412*
X014592Y002111D03*
D413*
X014590Y002114D03*
D414*
X014590Y002117D03*
D415*
X014590Y002120D03*
D416*
X014592Y002123D03*
D417*
X014592Y002126D03*
X014583Y005393D03*
D418*
X014590Y002129D03*
D419*
X014590Y002132D03*
D420*
X014590Y002135D03*
X014584Y005387D03*
D421*
X014592Y002138D03*
D422*
X014590Y002141D03*
D423*
X014590Y002144D03*
D424*
X014590Y002147D03*
D425*
X014592Y002150D03*
D426*
X014592Y002153D03*
D427*
X014590Y002156D03*
X014584Y005375D03*
D428*
X014590Y002159D03*
D429*
X014590Y002162D03*
D430*
X014592Y002165D03*
D431*
X014590Y002168D03*
D432*
X014590Y002171D03*
D433*
X014590Y002174D03*
D434*
X014592Y002177D03*
D435*
X014590Y002180D03*
D436*
X014590Y002183D03*
D437*
X014590Y002186D03*
D438*
X014590Y002189D03*
D439*
X014590Y002192D03*
D440*
X014590Y002195D03*
D441*
X014590Y002198D03*
D442*
X014590Y002201D03*
D443*
X014590Y002204D03*
D444*
X014590Y002207D03*
D445*
X014590Y002210D03*
D446*
X014590Y002213D03*
X014590Y002216D03*
X014584Y005336D03*
D447*
X014590Y002219D03*
D448*
X014590Y002222D03*
D449*
X014590Y002225D03*
X014590Y002228D03*
D450*
X014590Y002231D03*
D451*
X014590Y002234D03*
D452*
X014590Y002237D03*
X014590Y002240D03*
D453*
X014590Y002243D03*
D454*
X014590Y002246D03*
D455*
X014590Y002249D03*
D456*
X014590Y002252D03*
D457*
X014590Y002255D03*
D458*
X014590Y002258D03*
D459*
X014590Y002261D03*
D460*
X014590Y002264D03*
D461*
X014590Y002267D03*
D462*
X014590Y002270D03*
D463*
X014590Y002273D03*
X014590Y002276D03*
D464*
X014590Y002279D03*
D465*
X014590Y002282D03*
D466*
X014589Y002285D03*
D467*
X014590Y002288D03*
D468*
X014590Y002291D03*
D469*
X014590Y002294D03*
X014584Y005279D03*
D470*
X014589Y002297D03*
D471*
X014590Y002300D03*
D472*
X014590Y002303D03*
D473*
X014589Y002306D03*
X014583Y005273D03*
D474*
X014590Y002309D03*
D475*
X014590Y002312D03*
D476*
X014590Y002315D03*
D477*
X014589Y002318D03*
D478*
X014590Y002321D03*
D479*
X014590Y002324D03*
D480*
X014589Y002327D03*
X014583Y005258D03*
D481*
X014589Y002330D03*
D482*
X014590Y002333D03*
D483*
X014590Y002336D03*
D484*
X014589Y002339D03*
D485*
X014590Y002342D03*
D486*
X014590Y002345D03*
D487*
X014589Y002348D03*
X014583Y005243D03*
D488*
X014590Y002351D03*
D489*
X014590Y002354D03*
D490*
X014590Y002357D03*
D491*
X014589Y002360D03*
D492*
X014590Y002363D03*
D493*
X014590Y002366D03*
D494*
X014589Y002369D03*
D495*
X014590Y002372D03*
D496*
X014590Y002375D03*
D497*
X014590Y002378D03*
D498*
X014589Y002381D03*
D499*
X014590Y002384D03*
D500*
X014590Y002387D03*
D501*
X014589Y002390D03*
D502*
X014590Y002393D03*
D503*
X014590Y002396D03*
D504*
X014589Y002399D03*
D505*
X014590Y002402D03*
D506*
X014590Y002405D03*
D507*
X014589Y002408D03*
D508*
X014589Y002411D03*
X014583Y005195D03*
D509*
X014590Y002414D03*
D510*
X014589Y002417D03*
D511*
X014589Y002420D03*
D512*
X014590Y002423D03*
D513*
X014590Y002426D03*
D514*
X014589Y002429D03*
D515*
X014589Y002432D03*
D516*
X014590Y002435D03*
D517*
X014589Y002438D03*
D518*
X014589Y002441D03*
D519*
X014590Y002444D03*
D520*
X014589Y002447D03*
D521*
X014589Y002450D03*
D522*
X014590Y002453D03*
D523*
X014589Y002456D03*
X014583Y005162D03*
D524*
X014589Y002459D03*
D525*
X014590Y002462D03*
D526*
X014589Y002465D03*
D527*
X014589Y002468D03*
D528*
X014590Y002471D03*
D529*
X014589Y002474D03*
D530*
X014589Y002477D03*
D531*
X014590Y002480D03*
D532*
X014589Y002483D03*
D533*
X014589Y002486D03*
D534*
X014590Y002489D03*
D535*
X014589Y002492D03*
D536*
X014589Y002495D03*
X014589Y002498D03*
D537*
X014589Y002501D03*
D538*
X014589Y002504D03*
D539*
X014589Y002507D03*
D540*
X014589Y002510D03*
D541*
X014589Y002513D03*
X014589Y002516D03*
D542*
X014589Y002519D03*
D543*
X014589Y002522D03*
X014589Y002525D03*
D544*
X014589Y002528D03*
D545*
X014589Y002531D03*
D546*
X014589Y002534D03*
D547*
X014589Y002537D03*
D548*
X014589Y002540D03*
X014589Y002543D03*
D549*
X014589Y002546D03*
D550*
X014589Y002549D03*
D551*
X014589Y002552D03*
D552*
X014589Y002555D03*
D553*
X014587Y002558D03*
D554*
X014589Y002561D03*
D555*
X014589Y002564D03*
D556*
X014589Y002567D03*
D557*
X014589Y002570D03*
X014583Y005072D03*
D558*
X014589Y002576D03*
X014589Y002573D03*
D559*
X014589Y002579D03*
D560*
X014589Y002582D03*
X014589Y002585D03*
D561*
X014589Y002588D03*
D562*
X014587Y002591D03*
D563*
X014589Y002594D03*
X014583Y005054D03*
D564*
X014589Y002600D03*
X014589Y002597D03*
D565*
X014589Y002603D03*
D566*
X014589Y002606D03*
D567*
X014589Y002609D03*
D568*
X014589Y002612D03*
D569*
X014587Y002615D03*
X014584Y005036D03*
D570*
X014583Y005033D03*
X014589Y002618D03*
D571*
X014589Y002621D03*
D572*
X014587Y002624D03*
D573*
X014589Y002627D03*
D574*
X014587Y002630D03*
D575*
X014589Y002633D03*
D576*
X014589Y002636D03*
D577*
X014587Y002639D03*
D578*
X014589Y002642D03*
D579*
X014587Y002645D03*
X014584Y005012D03*
D580*
X014589Y002648D03*
D581*
X014589Y002651D03*
D582*
X014587Y002654D03*
D583*
X014589Y002657D03*
D584*
X014587Y002660D03*
D585*
X014589Y002663D03*
D586*
X014589Y002666D03*
D587*
X014587Y002669D03*
D588*
X014589Y002672D03*
D589*
X014587Y002675D03*
D590*
X014587Y002678D03*
X014584Y004982D03*
D591*
X014589Y002681D03*
D592*
X014587Y002684D03*
D593*
X014589Y002687D03*
D594*
X014587Y002690D03*
X014584Y004973D03*
D595*
X014584Y004970D03*
X014587Y002693D03*
D596*
X014589Y002696D03*
D597*
X014587Y002699D03*
D598*
X014589Y002702D03*
D599*
X014587Y002705D03*
X014584Y004961D03*
D600*
X014587Y002708D03*
D601*
X014589Y002711D03*
D602*
X014587Y002714D03*
D603*
X014589Y002717D03*
D604*
X014587Y002720D03*
D605*
X014587Y002723D03*
X014587Y002726D03*
D606*
X014587Y002729D03*
D607*
X014589Y002732D03*
D608*
X014587Y002735D03*
D609*
X014589Y002738D03*
D610*
X014587Y002741D03*
D611*
X014587Y002744D03*
D612*
X014587Y002747D03*
X014584Y004925D03*
D613*
X014587Y002753D03*
X014587Y002750D03*
D614*
X014587Y002756D03*
X014584Y004916D03*
D615*
X014587Y002759D03*
D616*
X014587Y002762D03*
D617*
X014587Y002765D03*
X014587Y002768D03*
X014584Y004907D03*
D618*
X014584Y004901D03*
X014587Y002771D03*
D619*
X014587Y002774D03*
D620*
X014587Y002777D03*
D621*
X014587Y002780D03*
X014587Y002783D03*
X014584Y004892D03*
D622*
X014587Y002786D03*
D623*
X014587Y002789D03*
D624*
X014587Y002792D03*
X014587Y002795D03*
X014584Y004883D03*
D625*
X014587Y002801D03*
X014587Y002798D03*
D626*
X014587Y002804D03*
D627*
X014587Y002807D03*
X014587Y002810D03*
X014584Y004868D03*
D628*
X014587Y002816D03*
X014587Y002813D03*
D629*
X014587Y002819D03*
X014584Y004859D03*
D630*
X014587Y002822D03*
D631*
X014587Y002825D03*
X014587Y002828D03*
X014584Y004853D03*
D632*
X014587Y002831D03*
D633*
X014587Y002834D03*
D634*
X014587Y002837D03*
D635*
X014586Y002840D03*
D636*
X014587Y002843D03*
D637*
X014587Y002846D03*
D638*
X014587Y002849D03*
D639*
X014587Y002852D03*
X014587Y002855D03*
D640*
X014587Y002858D03*
X014587Y002861D03*
D641*
X014587Y002864D03*
D642*
X014587Y002867D03*
X014584Y004817D03*
D643*
X014587Y002870D03*
D644*
X014586Y002873D03*
X014583Y004811D03*
D645*
X014584Y004808D03*
X014587Y002876D03*
D646*
X014586Y002879D03*
D647*
X014587Y002882D03*
X014584Y004802D03*
D648*
X014586Y002885D03*
D649*
X014587Y002888D03*
D650*
X014586Y002891D03*
D651*
X014587Y002894D03*
D652*
X014586Y002897D03*
D653*
X013287Y002900D03*
D654*
X015178Y002900D03*
X015178Y002903D03*
D655*
X013285Y002903D03*
X013285Y002906D03*
D656*
X013284Y002909D03*
D657*
X015180Y002909D03*
D658*
X015181Y002912D03*
X015181Y002915D03*
D659*
X013282Y002915D03*
X013282Y002918D03*
D660*
X015183Y002918D03*
X015183Y002921D03*
X014583Y005456D03*
D661*
X013281Y002921D03*
D662*
X013281Y002924D03*
D663*
X015184Y002924D03*
D664*
X013279Y002927D03*
X013279Y002930D03*
D665*
X015184Y002927D03*
D666*
X015186Y002930D03*
X015186Y002933D03*
D667*
X013278Y002933D03*
X013278Y002936D03*
D668*
X015187Y002936D03*
X014584Y005453D03*
D669*
X013276Y002939D03*
D670*
X015187Y002939D03*
D671*
X013276Y002942D03*
X014584Y005795D03*
D672*
X013275Y002948D03*
X013275Y002945D03*
D673*
X015190Y002948D03*
X015190Y002951D03*
D674*
X013273Y002951D03*
D675*
X013273Y002954D03*
D676*
X015192Y002954D03*
D677*
X015193Y002960D03*
X015193Y002963D03*
D678*
X013270Y002963D03*
X013270Y002966D03*
D679*
X015195Y002966D03*
D680*
X013269Y002972D03*
D681*
X013267Y002975D03*
X013267Y002978D03*
D682*
X015198Y002978D03*
X015198Y002981D03*
D683*
X013266Y002984D03*
D684*
X015199Y002984D03*
X014584Y005444D03*
D685*
X014584Y005792D03*
X013264Y002990D03*
X013264Y002987D03*
D686*
X015199Y002987D03*
D687*
X015201Y002990D03*
X015201Y002993D03*
X015201Y002996D03*
D688*
X013263Y002996D03*
X013263Y002993D03*
D689*
X013261Y002999D03*
D690*
X015202Y002999D03*
D691*
X013261Y003002D03*
D692*
X013260Y003005D03*
X013260Y003008D03*
D693*
X013258Y003011D03*
D694*
X015205Y003011D03*
D695*
X013258Y003014D03*
D696*
X015205Y003014D03*
D697*
X015207Y003017D03*
X015207Y003020D03*
D698*
X013255Y003023D03*
X013255Y003026D03*
D699*
X013255Y003029D03*
D700*
X015210Y003029D03*
D701*
X013254Y003032D03*
X013254Y003035D03*
D702*
X015210Y003035D03*
X015210Y003032D03*
D703*
X013252Y003038D03*
X013252Y003041D03*
D704*
X013251Y003044D03*
D705*
X015213Y003044D03*
D706*
X013251Y003047D03*
D707*
X015213Y003047D03*
D708*
X015214Y003050D03*
X015214Y003053D03*
X014584Y005432D03*
D709*
X013248Y003056D03*
D710*
X015216Y003056D03*
D711*
X013248Y003059D03*
D712*
X015216Y003059D03*
D713*
X013246Y003062D03*
X013246Y003065D03*
X013246Y003068D03*
D714*
X015217Y003068D03*
X015217Y003065D03*
X015217Y003062D03*
D715*
X013245Y003071D03*
D716*
X015219Y003071D03*
D717*
X013245Y003074D03*
D718*
X013243Y003077D03*
X013243Y003080D03*
X014584Y005786D03*
D719*
X015222Y003086D03*
X015222Y003083D03*
D720*
X013242Y003089D03*
D721*
X015223Y003089D03*
D722*
X013240Y003092D03*
X013240Y003095D03*
D723*
X013237Y003104D03*
D724*
X015226Y003104D03*
D725*
X013237Y003107D03*
X013237Y003110D03*
D726*
X015226Y003110D03*
X015226Y003107D03*
X014584Y005423D03*
D727*
X013236Y003116D03*
X013236Y003113D03*
D728*
X015228Y003113D03*
X015228Y003116D03*
D729*
X013234Y003119D03*
D730*
X015229Y003119D03*
D731*
X013234Y003122D03*
D732*
X015229Y003122D03*
D733*
X013233Y003125D03*
X013233Y003128D03*
X013233Y003131D03*
X014583Y005783D03*
D734*
X014583Y005420D03*
X015231Y003131D03*
X015231Y003128D03*
X015231Y003125D03*
D735*
X013231Y003134D03*
D736*
X015232Y003134D03*
D737*
X013231Y003137D03*
D738*
X015232Y003137D03*
X015232Y003140D03*
D739*
X013230Y003140D03*
X013230Y003143D03*
D740*
X015234Y003143D03*
X015234Y003146D03*
X014583Y005417D03*
D741*
X013228Y003152D03*
X013228Y003146D03*
D742*
X013228Y003149D03*
D743*
X015235Y003149D03*
D744*
X013225Y003161D03*
X013225Y003167D03*
D745*
X013225Y003164D03*
D746*
X015238Y003164D03*
D747*
X015238Y003167D03*
D748*
X013222Y003176D03*
X013222Y003182D03*
D749*
X013222Y003179D03*
D750*
X015241Y003179D03*
D751*
X015241Y003182D03*
X015241Y003185D03*
X014584Y005411D03*
D752*
X013221Y003188D03*
X013221Y003185D03*
D753*
X015243Y003188D03*
X015243Y003191D03*
D754*
X013219Y003191D03*
X013219Y003197D03*
D755*
X013219Y003194D03*
D756*
X015244Y003194D03*
D757*
X015244Y003197D03*
X015244Y003200D03*
D758*
X013218Y003200D03*
X013218Y003203D03*
D759*
X015246Y003203D03*
X015246Y003206D03*
X014583Y005408D03*
D760*
X013216Y003212D03*
X013216Y003206D03*
D761*
X013216Y003209D03*
D762*
X015246Y003209D03*
D763*
X015247Y003212D03*
X015247Y003215D03*
D764*
X013215Y003215D03*
X013215Y003218D03*
X013215Y003221D03*
D765*
X013213Y003224D03*
D766*
X015249Y003224D03*
D767*
X014646Y004076D03*
X016386Y003953D03*
X016386Y003950D03*
X012888Y003227D03*
X012795Y004073D03*
D768*
X013237Y003365D03*
X014053Y003227D03*
X014632Y003440D03*
X014638Y003893D03*
X014638Y003896D03*
X015067Y003980D03*
X015847Y003410D03*
D769*
X015259Y003518D03*
X015259Y003521D03*
X014644Y003227D03*
D770*
X015852Y003227D03*
D771*
X016381Y003935D03*
X013531Y003230D03*
X012784Y003695D03*
D772*
X013234Y003356D03*
X014041Y003230D03*
X014632Y003467D03*
X014632Y003470D03*
X014632Y003473D03*
X014638Y003863D03*
X014638Y003866D03*
X014185Y003980D03*
X015856Y003923D03*
D773*
X014643Y003230D03*
D774*
X015870Y003230D03*
D775*
X016398Y003992D03*
X012870Y003233D03*
X012765Y003662D03*
X012768Y003980D03*
X012768Y003983D03*
D776*
X013537Y003233D03*
D777*
X013345Y003665D03*
X014035Y003233D03*
X015400Y003257D03*
D778*
X014641Y003233D03*
D779*
X015880Y003233D03*
D780*
X016353Y003440D03*
X014646Y004073D03*
X013545Y003236D03*
D781*
X014029Y003236D03*
X014011Y004091D03*
X015856Y003905D03*
D782*
X016311Y003725D03*
X016311Y003722D03*
X016305Y003647D03*
X015252Y003425D03*
X014640Y003236D03*
D783*
X015892Y003236D03*
D784*
X013551Y003239D03*
D785*
X014023Y003239D03*
X014632Y003524D03*
D786*
X014640Y003239D03*
D787*
X015901Y003239D03*
D788*
X016363Y003392D03*
X016408Y004025D03*
X016408Y004028D03*
X014635Y003281D03*
X014188Y003617D03*
X014188Y003620D03*
X014188Y003623D03*
X014188Y003626D03*
X014188Y003632D03*
X014188Y003635D03*
X014188Y003638D03*
X014188Y003641D03*
X014188Y003647D03*
X014188Y003650D03*
X014188Y003653D03*
X014188Y003656D03*
X014188Y003662D03*
X014188Y003665D03*
X014188Y003668D03*
X014188Y003671D03*
X014188Y003677D03*
X014188Y003680D03*
X014188Y003683D03*
X014188Y003686D03*
X014188Y003692D03*
X014188Y003695D03*
X014188Y003698D03*
X014188Y003701D03*
X014188Y003707D03*
X014188Y003710D03*
X014188Y003713D03*
X014188Y003716D03*
X014188Y003722D03*
X014188Y003725D03*
X014188Y003728D03*
X012853Y003242D03*
X012760Y004037D03*
X012760Y004040D03*
D789*
X013362Y003671D03*
X013383Y003245D03*
X014019Y003242D03*
X014634Y003548D03*
X014634Y003551D03*
X014637Y003776D03*
X014637Y003782D03*
X014637Y003785D03*
X014637Y003788D03*
X015126Y003338D03*
X015429Y003275D03*
X015438Y003287D03*
X015855Y003887D03*
D790*
X016335Y003791D03*
X016335Y003788D03*
X016320Y003593D03*
X016320Y003590D03*
X014640Y003242D03*
D791*
X015907Y003242D03*
D792*
X015454Y003371D03*
X015856Y003950D03*
X013696Y003251D03*
X013696Y003248D03*
X013696Y003245D03*
X013321Y003650D03*
D793*
X014014Y003245D03*
X015856Y003881D03*
D794*
X016342Y003815D03*
X014638Y003245D03*
X012847Y004103D03*
D795*
X015376Y003245D03*
X015856Y003941D03*
D796*
X015847Y003245D03*
X015058Y003806D03*
X015058Y003812D03*
X012808Y003287D03*
X012805Y003290D03*
D797*
X013257Y003482D03*
X013257Y003485D03*
X014634Y003341D03*
X015141Y003368D03*
X015855Y004040D03*
X015855Y004043D03*
X016389Y003248D03*
X016389Y003245D03*
D798*
X016366Y003377D03*
X016366Y003380D03*
X016411Y004040D03*
X012844Y003248D03*
D799*
X013386Y003248D03*
X015846Y003470D03*
D800*
X014634Y003611D03*
X014634Y003617D03*
X014634Y003620D03*
X014634Y003623D03*
X014634Y003626D03*
X014634Y003632D03*
X014634Y003635D03*
X014634Y003638D03*
X014634Y003641D03*
X014634Y003647D03*
X014634Y003650D03*
X014634Y003653D03*
X014634Y003656D03*
X014634Y003662D03*
X014634Y003665D03*
X014634Y003668D03*
X014634Y003671D03*
X014634Y003677D03*
X014634Y003680D03*
X014634Y003683D03*
X014634Y003686D03*
X014634Y003692D03*
X014634Y003695D03*
X014634Y003698D03*
X014634Y003701D03*
X014010Y003248D03*
X013230Y003341D03*
D801*
X012838Y004100D03*
X014638Y003248D03*
X016351Y003842D03*
D802*
X015856Y003932D03*
X015448Y003347D03*
X015382Y003248D03*
X014632Y003452D03*
X014632Y003455D03*
X014638Y003881D03*
X015067Y003983D03*
D803*
X015058Y003821D03*
X015058Y003818D03*
X015058Y003815D03*
X014179Y003470D03*
X014179Y003467D03*
X012802Y003296D03*
X012739Y003521D03*
X012739Y003527D03*
X012739Y003530D03*
X015847Y003251D03*
X015847Y003248D03*
D804*
X016366Y003371D03*
X012841Y003251D03*
D805*
X014007Y003251D03*
D806*
X014637Y003251D03*
X014646Y004091D03*
X016359Y003863D03*
X016335Y003530D03*
X016335Y003527D03*
D807*
X015448Y003341D03*
X015388Y003251D03*
X014632Y003461D03*
X014638Y003872D03*
X014638Y003875D03*
X015067Y003986D03*
X014182Y003356D03*
D808*
X014184Y003794D03*
X012837Y003254D03*
D809*
X013393Y003254D03*
D810*
X013696Y003254D03*
X015454Y003374D03*
D811*
X014004Y003254D03*
D812*
X014638Y003254D03*
X016339Y003509D03*
X016366Y003884D03*
D813*
X015394Y003254D03*
D814*
X015847Y003254D03*
X016378Y003314D03*
X014179Y003464D03*
X012739Y003509D03*
D815*
X013627Y004064D03*
X014641Y004004D03*
X015586Y003689D03*
X015583Y003659D03*
X015847Y003299D03*
X016387Y003254D03*
D816*
X015856Y003866D03*
X015067Y004001D03*
X013396Y003257D03*
D817*
X013398Y003260D03*
X014001Y003257D03*
X015855Y003860D03*
D818*
X016371Y003902D03*
X016371Y003905D03*
X014637Y003257D03*
D819*
X013600Y004091D03*
X012742Y003488D03*
X012787Y003320D03*
X015847Y003260D03*
X015847Y003257D03*
X016378Y003308D03*
X016378Y003311D03*
X015853Y004091D03*
D820*
X015586Y003692D03*
X015583Y003656D03*
X015847Y003302D03*
X016387Y003257D03*
X015064Y003905D03*
X015064Y003908D03*
X014179Y003416D03*
D821*
X014181Y003512D03*
X014181Y003515D03*
X012831Y003260D03*
X016371Y003356D03*
D822*
X013998Y003260D03*
X013983Y004061D03*
D823*
X014632Y003500D03*
X014632Y003497D03*
X015127Y003341D03*
X015406Y003260D03*
X015442Y003317D03*
X015856Y003908D03*
X015856Y003911D03*
D824*
X015589Y003683D03*
X015589Y003680D03*
X015589Y003671D03*
X015586Y003668D03*
X015586Y003665D03*
X015847Y003296D03*
X016387Y003260D03*
X014641Y004007D03*
X013624Y004067D03*
D825*
X012742Y003587D03*
X012826Y003263D03*
X016372Y003353D03*
D826*
X015846Y003497D03*
X013401Y003263D03*
D827*
X013404Y003266D03*
X013995Y003263D03*
X013980Y004058D03*
X015846Y003503D03*
D828*
X014637Y003263D03*
D829*
X014632Y003503D03*
X014632Y003506D03*
X014638Y003830D03*
X014182Y003350D03*
X015412Y003263D03*
X015442Y003308D03*
D830*
X015847Y003266D03*
X015847Y003263D03*
X015853Y004085D03*
X015061Y003851D03*
X014179Y003452D03*
X012781Y003332D03*
X012778Y003335D03*
X012778Y003338D03*
X012742Y003467D03*
X012742Y003470D03*
X012742Y003473D03*
D831*
X013623Y004070D03*
X014181Y003422D03*
X015591Y003677D03*
X015855Y004055D03*
X016386Y003266D03*
X016386Y003263D03*
D832*
X016371Y003350D03*
X016422Y004073D03*
X016422Y004076D03*
X014643Y004046D03*
X014184Y003830D03*
X014184Y003827D03*
X014181Y003506D03*
X014181Y003503D03*
X014181Y003500D03*
X012825Y003266D03*
D833*
X013992Y003266D03*
D834*
X014635Y003266D03*
X012775Y003683D03*
X012790Y004070D03*
D835*
X013237Y003998D03*
X014185Y003986D03*
X014632Y003521D03*
X014632Y003518D03*
X014632Y003515D03*
X014632Y003512D03*
X015415Y003266D03*
X015439Y003302D03*
X015844Y003452D03*
D836*
X012822Y003269D03*
D837*
X013405Y003269D03*
X015067Y004004D03*
D838*
X015438Y004004D03*
X015450Y003989D03*
X015468Y003959D03*
X013695Y003269D03*
D839*
X013989Y003269D03*
X013974Y004049D03*
D840*
X014637Y003269D03*
D841*
X014637Y003809D03*
X015420Y003269D03*
D842*
X015847Y003269D03*
X012763Y003374D03*
X012748Y003434D03*
D843*
X014634Y003329D03*
X016386Y003269D03*
D844*
X015847Y003512D03*
X015856Y003842D03*
X013408Y003272D03*
X013228Y003335D03*
D845*
X013411Y003275D03*
X013987Y003272D03*
X013972Y004046D03*
X015847Y003515D03*
D846*
X015856Y003890D03*
X015436Y003290D03*
X015424Y003272D03*
X014632Y003542D03*
X014632Y003545D03*
D847*
X014179Y003443D03*
X014179Y003440D03*
X014641Y004022D03*
X015061Y003866D03*
X015847Y003275D03*
X015847Y003272D03*
X016381Y003290D03*
X016381Y003293D03*
D848*
X016384Y003275D03*
X016384Y003272D03*
X015847Y003287D03*
X014641Y004013D03*
X014179Y003428D03*
D849*
X015055Y003758D03*
X015055Y003761D03*
X015055Y003767D03*
X015055Y003770D03*
X016372Y003341D03*
X016423Y004082D03*
X016423Y004085D03*
X012817Y003275D03*
D850*
X013984Y003275D03*
X013969Y004043D03*
X015856Y003833D03*
D851*
X016375Y003335D03*
X016375Y003332D03*
X015055Y003788D03*
X014185Y003845D03*
X014179Y003482D03*
X012814Y003278D03*
X012811Y003281D03*
X012739Y003551D03*
X012739Y003557D03*
D852*
X013693Y003296D03*
X013693Y003293D03*
X013693Y003290D03*
X013693Y003287D03*
X013693Y003281D03*
X013693Y003278D03*
X014632Y003422D03*
X015478Y003941D03*
X015481Y003938D03*
X015484Y003932D03*
X015472Y003953D03*
X015466Y003962D03*
X015442Y003998D03*
X015436Y004007D03*
X015433Y004010D03*
X015424Y004022D03*
X015856Y003956D03*
D853*
X013968Y004040D03*
X013983Y003278D03*
D854*
X014635Y003278D03*
X016402Y004010D03*
X012763Y004013D03*
X012763Y004016D03*
D855*
X013999Y004082D03*
X014632Y003563D03*
X014632Y003560D03*
X014632Y003557D03*
X015067Y003998D03*
X015436Y003281D03*
X015433Y003278D03*
X015847Y003467D03*
D856*
X015847Y003278D03*
X015061Y003875D03*
X014179Y003437D03*
D857*
X014179Y003431D03*
X014641Y004016D03*
X016384Y003278D03*
D858*
X015855Y003830D03*
X013416Y003281D03*
D859*
X013980Y003281D03*
D860*
X015063Y003878D03*
X015063Y003881D03*
X015855Y004070D03*
X016383Y003281D03*
D861*
X015057Y003794D03*
X014181Y003479D03*
X012810Y003284D03*
D862*
X013417Y003284D03*
D863*
X013693Y003284D03*
X013693Y003299D03*
X014638Y003914D03*
X015067Y003974D03*
X015478Y003944D03*
D864*
X013978Y003284D03*
D865*
X014185Y003584D03*
X014185Y003749D03*
X014635Y003284D03*
D866*
X015847Y003284D03*
D867*
X016383Y003284D03*
D868*
X015847Y003530D03*
X013963Y004031D03*
X013417Y003287D03*
X013243Y004007D03*
D869*
X013962Y004028D03*
X013977Y003287D03*
D870*
X014182Y003542D03*
X014182Y003545D03*
X014185Y003785D03*
X014185Y003788D03*
X014185Y003791D03*
X014635Y003287D03*
X012748Y003611D03*
D871*
X013420Y003290D03*
X013960Y004025D03*
D872*
X013959Y004022D03*
X013407Y003680D03*
X013422Y003293D03*
X013227Y003332D03*
X013974Y003290D03*
X015855Y003815D03*
D873*
X016417Y004055D03*
X016369Y003365D03*
X014635Y003290D03*
X014182Y003527D03*
X014182Y003530D03*
X014182Y003533D03*
X014185Y003803D03*
X012745Y003605D03*
D874*
X014185Y003905D03*
X015847Y003293D03*
X015847Y003290D03*
D875*
X015847Y003542D03*
X013972Y003293D03*
X013423Y003296D03*
D876*
X012744Y003590D03*
X012744Y003593D03*
X014184Y003815D03*
X014184Y003818D03*
X014634Y003293D03*
X016419Y004067D03*
D877*
X015855Y003893D03*
X015846Y003461D03*
X015846Y003458D03*
X015438Y003293D03*
X014181Y003347D03*
D878*
X013971Y003296D03*
X013956Y004016D03*
X015855Y003812D03*
D879*
X014635Y003296D03*
D880*
X015439Y003296D03*
X015856Y003896D03*
D881*
X016381Y003296D03*
X015061Y003860D03*
X015061Y003863D03*
X014179Y003446D03*
X012769Y003362D03*
X012766Y003365D03*
X012766Y003368D03*
D882*
X012799Y003299D03*
X012739Y003524D03*
D883*
X013425Y003299D03*
D884*
X013969Y003299D03*
X015856Y003809D03*
D885*
X015055Y003764D03*
X014635Y003299D03*
X014185Y003839D03*
D886*
X015439Y003299D03*
D887*
X014634Y003314D03*
X016380Y003299D03*
X012747Y003449D03*
D888*
X013426Y003302D03*
D889*
X013692Y003302D03*
X013692Y003305D03*
X013692Y003308D03*
X013692Y003311D03*
X013692Y003317D03*
X013692Y003320D03*
X013692Y003323D03*
X013692Y003326D03*
X013692Y003332D03*
X013692Y003335D03*
X013692Y003338D03*
X013692Y003341D03*
X013692Y003347D03*
X013692Y003350D03*
X013317Y003647D03*
X014640Y003917D03*
X015417Y004031D03*
X015420Y004028D03*
X015429Y004016D03*
X015483Y003935D03*
X015489Y003926D03*
X015489Y003923D03*
X015846Y003395D03*
X015846Y003392D03*
D890*
X013968Y003302D03*
X013428Y003305D03*
D891*
X012741Y003548D03*
X014184Y003848D03*
X014184Y003851D03*
X014634Y003302D03*
X015057Y003791D03*
X015057Y003797D03*
X015057Y003800D03*
X015057Y003803D03*
D892*
X015058Y003833D03*
X014179Y003461D03*
X012796Y003305D03*
X012793Y003308D03*
X012739Y003503D03*
X012739Y003506D03*
X012739Y003512D03*
X012739Y003515D03*
D893*
X013429Y003308D03*
X013966Y003305D03*
X013954Y004010D03*
X015856Y003803D03*
X015847Y003551D03*
D894*
X015855Y003902D03*
X015441Y003305D03*
X014637Y003818D03*
X014637Y003821D03*
X014637Y003827D03*
D895*
X014185Y003917D03*
X013630Y004058D03*
X013258Y003506D03*
X013258Y003503D03*
X013258Y003500D03*
X013258Y003497D03*
X013258Y003491D03*
X013258Y003488D03*
X015583Y003698D03*
X015583Y003701D03*
X015847Y003308D03*
X015847Y003305D03*
D896*
X016380Y003305D03*
X015855Y004088D03*
X015060Y003848D03*
X015060Y003845D03*
X014634Y003311D03*
X014184Y003872D03*
X014184Y003875D03*
X012741Y003485D03*
X012741Y003482D03*
X012741Y003476D03*
X012786Y003323D03*
D897*
X013431Y003311D03*
X013965Y003308D03*
X014184Y004001D03*
X015855Y003800D03*
D898*
X014635Y003308D03*
X014185Y003866D03*
D899*
X012792Y003311D03*
X012789Y003317D03*
D900*
X013963Y003311D03*
X015847Y003557D03*
D901*
X012790Y003314D03*
D902*
X013432Y003314D03*
D903*
X013239Y003374D03*
X013692Y003344D03*
X013692Y003329D03*
X013692Y003314D03*
X014634Y003419D03*
X015486Y003929D03*
X015426Y004019D03*
D904*
X013962Y003314D03*
D905*
X014632Y003494D03*
X014638Y003839D03*
X015442Y003314D03*
D906*
X015847Y003314D03*
X015577Y003719D03*
D907*
X015856Y003791D03*
X015847Y003563D03*
X015847Y003560D03*
X014179Y003335D03*
X013948Y003998D03*
X013432Y003317D03*
D908*
X013960Y003317D03*
D909*
X014634Y003317D03*
X012762Y003380D03*
X012762Y003383D03*
X012759Y003386D03*
X012759Y003392D03*
D910*
X013638Y004046D03*
X015066Y003923D03*
X015576Y003722D03*
X015855Y004031D03*
X015846Y003317D03*
X015141Y003365D03*
D911*
X015846Y003566D03*
X013959Y003320D03*
X013434Y003320D03*
X013947Y003992D03*
X013947Y003995D03*
D912*
X014187Y003983D03*
X014637Y003845D03*
X014637Y003842D03*
X014634Y003491D03*
X015444Y003320D03*
X015846Y003440D03*
D913*
X013435Y003323D03*
D914*
X013957Y003323D03*
X015856Y003788D03*
D915*
X014634Y003323D03*
X014184Y003893D03*
D916*
X014637Y003851D03*
X015444Y003323D03*
D917*
X015846Y003323D03*
X015573Y003731D03*
X015855Y004028D03*
X013272Y003578D03*
X013272Y003575D03*
X013251Y003443D03*
X013251Y003440D03*
D918*
X012784Y003326D03*
X014179Y003455D03*
X014179Y003458D03*
D919*
X013944Y003986D03*
X013437Y003326D03*
D920*
X013956Y003326D03*
X015855Y003785D03*
D921*
X014634Y003326D03*
X013617Y004076D03*
D922*
X014638Y003860D03*
X014638Y003857D03*
X014632Y003476D03*
X015445Y003326D03*
D923*
X012783Y003329D03*
D924*
X013438Y003329D03*
D925*
X013954Y003329D03*
D926*
X014632Y003479D03*
X015067Y003989D03*
X015445Y003329D03*
D927*
X015847Y003329D03*
D928*
X016375Y003329D03*
X015058Y003809D03*
D929*
X015846Y003575D03*
X013941Y003977D03*
X013440Y003332D03*
D930*
X013953Y003332D03*
X013953Y003335D03*
D931*
X014634Y003332D03*
D932*
X015447Y003332D03*
X015846Y003431D03*
X013341Y003662D03*
D933*
X013647Y004028D03*
X013647Y004031D03*
X014640Y003980D03*
X015066Y003935D03*
X015846Y003332D03*
D934*
X015847Y003578D03*
X015856Y003776D03*
X013939Y003971D03*
X013951Y003338D03*
X013441Y003335D03*
D935*
X014184Y003911D03*
X014634Y003335D03*
X015141Y003371D03*
X015585Y003662D03*
X015588Y003686D03*
X015855Y004052D03*
X015063Y003902D03*
D936*
X015123Y003335D03*
X015855Y003845D03*
D937*
X015856Y004016D03*
X015565Y003755D03*
X015565Y003752D03*
X015847Y003335D03*
X014641Y003977D03*
X014185Y003935D03*
X014179Y003395D03*
X013648Y004025D03*
X013279Y003596D03*
X013249Y003425D03*
D938*
X013440Y003338D03*
X013950Y003341D03*
X015846Y003581D03*
X015855Y003773D03*
D939*
X014181Y003338D03*
D940*
X014632Y003365D03*
X014185Y003938D03*
X013282Y003602D03*
X015562Y003761D03*
X015847Y003338D03*
D941*
X015856Y003770D03*
X013936Y003962D03*
X013936Y003965D03*
X013441Y003341D03*
D942*
X014182Y003341D03*
X014185Y003995D03*
D943*
X014640Y003971D03*
X015066Y003941D03*
X015558Y003773D03*
X015558Y003770D03*
X015561Y003767D03*
X015855Y004007D03*
X015855Y004010D03*
X015846Y003341D03*
X013653Y004016D03*
X013248Y003416D03*
D944*
X012775Y003344D03*
X012742Y003464D03*
X014179Y003449D03*
X015061Y003854D03*
D945*
X013935Y003959D03*
X013443Y003344D03*
D946*
X013948Y003344D03*
X015847Y003584D03*
D947*
X014634Y003599D03*
X014181Y003344D03*
D948*
X014634Y003344D03*
X013266Y003554D03*
X013254Y003464D03*
D949*
X015130Y003344D03*
D950*
X015448Y003344D03*
X015847Y003419D03*
X014638Y003884D03*
D951*
X015064Y003944D03*
X015136Y003359D03*
X015847Y003344D03*
X014179Y003389D03*
D952*
X016372Y003344D03*
X016423Y004079D03*
D953*
X013233Y003347D03*
D954*
X013444Y003347D03*
X013444Y003350D03*
X013933Y003953D03*
X013933Y003956D03*
X015856Y003767D03*
D955*
X013948Y003347D03*
D956*
X014185Y003923D03*
X014632Y003347D03*
X015577Y003716D03*
X013267Y003560D03*
X013267Y003557D03*
X013252Y003455D03*
D957*
X013239Y003371D03*
X015132Y003347D03*
X015474Y003950D03*
X015462Y003968D03*
X015462Y003971D03*
X015447Y003992D03*
X015444Y003995D03*
D958*
X015351Y004091D03*
X015066Y003947D03*
X014640Y003968D03*
X014634Y003371D03*
X015555Y003782D03*
X015846Y003347D03*
X013656Y004007D03*
X013224Y003968D03*
X013287Y003611D03*
X013245Y003410D03*
D959*
X012742Y003575D03*
X012742Y003578D03*
X012742Y003581D03*
X016372Y003347D03*
D960*
X013947Y003350D03*
D961*
X014181Y003371D03*
X014634Y003407D03*
X015132Y003350D03*
X015507Y003887D03*
X015507Y003890D03*
X015399Y004052D03*
X015855Y003968D03*
X015846Y003383D03*
X013686Y003872D03*
X013686Y003875D03*
X013686Y003878D03*
X013686Y003881D03*
X013311Y003641D03*
D962*
X013236Y003362D03*
X015450Y003350D03*
X015846Y003416D03*
X015855Y003935D03*
D963*
X015853Y004082D03*
X014185Y003881D03*
X012748Y003437D03*
X012748Y003431D03*
X012748Y003428D03*
X012757Y003395D03*
X012763Y003377D03*
X012772Y003353D03*
D964*
X013234Y003353D03*
X013237Y003995D03*
X014638Y003848D03*
X014632Y003488D03*
X014632Y003485D03*
X014632Y003482D03*
D965*
X015490Y003920D03*
X013690Y003815D03*
X013690Y003812D03*
X013690Y003806D03*
X013690Y003803D03*
X013690Y003800D03*
X013690Y003797D03*
X013690Y003791D03*
X013690Y003788D03*
X013690Y003785D03*
X013690Y003782D03*
X013690Y003776D03*
X013690Y003773D03*
X013690Y003770D03*
X013690Y003767D03*
X013690Y003761D03*
X013690Y003758D03*
X013690Y003755D03*
X013690Y003752D03*
X013690Y003746D03*
X013690Y003743D03*
X013690Y003740D03*
X013690Y003737D03*
X013690Y003731D03*
X013690Y003728D03*
X013690Y003725D03*
X013690Y003722D03*
X013690Y003716D03*
X013690Y003713D03*
X013690Y003710D03*
X013690Y003707D03*
X013690Y003701D03*
X013690Y003698D03*
X013690Y003695D03*
X013690Y003692D03*
X013690Y003686D03*
X013690Y003683D03*
X013690Y003680D03*
X013690Y003677D03*
X013690Y003671D03*
X013690Y003668D03*
X013690Y003665D03*
X013690Y003662D03*
X013690Y003656D03*
X013690Y003653D03*
X013690Y003650D03*
X013690Y003647D03*
X013690Y003641D03*
X013690Y003638D03*
X013690Y003635D03*
X013690Y003632D03*
X013690Y003626D03*
X013690Y003623D03*
X013690Y003620D03*
X013690Y003617D03*
X013690Y003611D03*
X013690Y003608D03*
X013690Y003605D03*
X013690Y003602D03*
X013690Y003596D03*
X013690Y003593D03*
X013690Y003590D03*
X013690Y003587D03*
X013690Y003581D03*
X013690Y003578D03*
X013690Y003575D03*
X013690Y003572D03*
X013690Y003566D03*
X013690Y003563D03*
X013690Y003560D03*
X013690Y003557D03*
X013690Y003551D03*
X013690Y003548D03*
X013690Y003545D03*
X013690Y003542D03*
X013690Y003536D03*
X013690Y003533D03*
X013690Y003530D03*
X013690Y003527D03*
X013690Y003521D03*
X013690Y003518D03*
X013690Y003515D03*
X013690Y003512D03*
X013690Y003506D03*
X013690Y003503D03*
X013690Y003500D03*
X013690Y003497D03*
X013690Y003491D03*
X013690Y003488D03*
X013690Y003485D03*
X013690Y003482D03*
X013690Y003476D03*
X013690Y003473D03*
X013690Y003470D03*
X013690Y003467D03*
X013690Y003461D03*
X013690Y003458D03*
X013690Y003455D03*
X013690Y003452D03*
X013690Y003446D03*
X013690Y003443D03*
X013690Y003440D03*
X013690Y003437D03*
X013690Y003431D03*
X013690Y003428D03*
X013690Y003425D03*
X013690Y003422D03*
X013690Y003416D03*
X013690Y003413D03*
X013690Y003410D03*
X013690Y003407D03*
X013690Y003401D03*
X013690Y003398D03*
X013690Y003395D03*
X013690Y003392D03*
X013690Y003386D03*
X013690Y003383D03*
X013690Y003380D03*
X013690Y003377D03*
X013690Y003371D03*
X013690Y003368D03*
X013690Y003365D03*
X013690Y003362D03*
X013690Y003356D03*
X013690Y003353D03*
D966*
X013945Y003353D03*
X013945Y003356D03*
D967*
X014187Y003956D03*
X014640Y003947D03*
X015375Y004073D03*
X015855Y003980D03*
X015846Y003368D03*
X015135Y003353D03*
X013674Y003947D03*
X013674Y003950D03*
X013302Y003632D03*
D968*
X014632Y003446D03*
X014638Y003887D03*
X014638Y003890D03*
X015451Y003356D03*
X015451Y003353D03*
X015856Y003938D03*
D969*
X015547Y003800D03*
X015355Y004088D03*
X015847Y003353D03*
X014632Y003377D03*
X014185Y003947D03*
X013663Y003992D03*
X013225Y003971D03*
D970*
X013644Y004037D03*
X014184Y003932D03*
X014634Y003356D03*
D971*
X015136Y003356D03*
X014641Y003962D03*
X013291Y003617D03*
D972*
X013245Y003401D03*
X013665Y003983D03*
X013665Y003986D03*
X014181Y003383D03*
X015066Y003953D03*
X015546Y003803D03*
X015549Y003797D03*
X015855Y003995D03*
X015846Y003356D03*
D973*
X012769Y003359D03*
X012751Y003419D03*
D974*
X013236Y003359D03*
X013335Y003659D03*
X015855Y003929D03*
D975*
X013690Y003809D03*
X013690Y003794D03*
X013690Y003779D03*
X013690Y003764D03*
X013690Y003749D03*
X013690Y003734D03*
X013690Y003719D03*
X013690Y003704D03*
X013690Y003689D03*
X013690Y003674D03*
X013690Y003659D03*
X013690Y003644D03*
X013690Y003629D03*
X013690Y003614D03*
X013690Y003599D03*
X013690Y003584D03*
X013690Y003569D03*
X013690Y003554D03*
X013690Y003539D03*
X013690Y003524D03*
X013690Y003509D03*
X013690Y003494D03*
X013690Y003479D03*
X013690Y003464D03*
X013690Y003449D03*
X013690Y003434D03*
X013690Y003419D03*
X013690Y003404D03*
X013690Y003389D03*
X013690Y003374D03*
X013690Y003359D03*
D976*
X014634Y003359D03*
X015567Y003749D03*
X015855Y004019D03*
D977*
X015451Y003359D03*
D978*
X015847Y003359D03*
X015544Y003809D03*
D979*
X014644Y004049D03*
X016369Y003359D03*
D980*
X015855Y004013D03*
X015564Y003758D03*
X015066Y003938D03*
X014634Y003362D03*
X013650Y004022D03*
X013224Y003965D03*
D981*
X013276Y003590D03*
X013276Y003587D03*
X013249Y003431D03*
X015139Y003362D03*
D982*
X015453Y003362D03*
X015453Y003365D03*
D983*
X015847Y003362D03*
X015538Y003821D03*
X015067Y003956D03*
X014632Y003386D03*
X014185Y003953D03*
X013297Y003626D03*
X013243Y003395D03*
D984*
X013671Y003962D03*
X014640Y003950D03*
X015855Y003986D03*
X015846Y003365D03*
D985*
X015067Y003977D03*
X014638Y003908D03*
X014632Y003428D03*
X014632Y003425D03*
X013237Y003368D03*
D986*
X013230Y003983D03*
X014181Y003368D03*
X014640Y003923D03*
X015408Y004040D03*
X015498Y003908D03*
X015498Y003905D03*
X015501Y003902D03*
X015855Y003962D03*
D987*
X015856Y003947D03*
X015454Y003368D03*
X014638Y003902D03*
D988*
X014643Y004052D03*
X016368Y003368D03*
X014583Y005852D03*
D989*
X013608Y004085D03*
X012750Y003425D03*
X012750Y003422D03*
X012753Y003416D03*
X012753Y003413D03*
X012753Y003410D03*
X012753Y003407D03*
X012756Y003401D03*
X012756Y003398D03*
X012765Y003371D03*
D990*
X014632Y003395D03*
X015067Y003962D03*
X015379Y004070D03*
X015526Y003848D03*
X015529Y003845D03*
X015529Y003842D03*
X015847Y003371D03*
D991*
X014632Y003374D03*
X013288Y003614D03*
D992*
X015142Y003374D03*
D993*
X016368Y003374D03*
D994*
X015847Y003386D03*
X015505Y003893D03*
X015403Y004046D03*
X014638Y003926D03*
X014632Y003413D03*
X014632Y003410D03*
X013687Y003845D03*
X013687Y003848D03*
X013687Y003851D03*
X013687Y003857D03*
X013687Y003860D03*
X013687Y003863D03*
X013687Y003866D03*
X013240Y003377D03*
D995*
X015262Y003377D03*
D996*
X015520Y003860D03*
X015520Y003863D03*
X015388Y004061D03*
X015067Y003965D03*
X014632Y003401D03*
X013678Y003920D03*
X013678Y003923D03*
X013678Y003926D03*
X013228Y003980D03*
X013240Y003383D03*
X015847Y003377D03*
D997*
X015540Y003815D03*
X015540Y003818D03*
X015855Y003992D03*
X014640Y003956D03*
X014640Y003953D03*
X014634Y003383D03*
X014181Y003380D03*
D998*
X015261Y003380D03*
X016329Y003551D03*
X016350Y003836D03*
X012816Y003731D03*
D999*
X014640Y003935D03*
X015516Y003872D03*
X015519Y003866D03*
X015855Y003971D03*
X015846Y003380D03*
D1000*
X016348Y003833D03*
X015259Y003383D03*
D1001*
X014644Y004058D03*
X016366Y003383D03*
X012751Y003626D03*
D1002*
X013242Y003386D03*
X013677Y003932D03*
X013677Y003935D03*
X014634Y003398D03*
X015522Y003857D03*
D1003*
X015855Y003998D03*
X015855Y004001D03*
X015066Y003950D03*
X014181Y003386D03*
D1004*
X015259Y003386D03*
D1005*
X016365Y003386D03*
X016410Y004031D03*
X012753Y003632D03*
D1006*
X012759Y003389D03*
X014184Y003884D03*
D1007*
X014640Y003944D03*
X015531Y003839D03*
X013242Y003389D03*
D1008*
X013299Y003629D03*
X014634Y003389D03*
X015537Y003824D03*
D1009*
X015258Y003389D03*
D1010*
X015846Y003389D03*
D1011*
X016365Y003389D03*
X012753Y003629D03*
D1012*
X013242Y003392D03*
X015537Y003827D03*
D1013*
X014179Y003392D03*
D1014*
X015256Y003392D03*
X016324Y003572D03*
X016324Y003575D03*
X016339Y003806D03*
X012826Y003740D03*
D1015*
X012853Y004106D03*
X015256Y003395D03*
X016321Y003581D03*
X016339Y003803D03*
D1016*
X016405Y004016D03*
X016363Y003398D03*
X016363Y003395D03*
X014644Y004061D03*
X012763Y004043D03*
X012763Y004028D03*
X012763Y004025D03*
X012763Y004022D03*
X012757Y003641D03*
D1017*
X014181Y003398D03*
X014640Y003983D03*
X015066Y003932D03*
X015570Y003740D03*
X015855Y004022D03*
D1018*
X015256Y003398D03*
D1019*
X015256Y003401D03*
D1020*
X015846Y003401D03*
X014634Y003431D03*
X014640Y003905D03*
X014187Y003971D03*
D1021*
X012765Y004046D03*
X012759Y003647D03*
X016362Y003401D03*
X016404Y004013D03*
D1022*
X015855Y004079D03*
X012756Y003404D03*
D1023*
X013245Y003404D03*
D1024*
X013252Y003449D03*
X014179Y003404D03*
X014641Y003989D03*
D1025*
X014632Y003404D03*
D1026*
X015255Y003404D03*
X016317Y003599D03*
X016332Y003779D03*
D1027*
X015846Y003404D03*
D1028*
X016360Y003404D03*
D1029*
X015064Y003920D03*
X014641Y003992D03*
X014641Y003995D03*
X014179Y003407D03*
D1030*
X015255Y003407D03*
X016314Y003608D03*
X016326Y003767D03*
X016329Y003773D03*
D1031*
X016360Y003410D03*
X012760Y003653D03*
D1032*
X013261Y003527D03*
X013261Y003521D03*
X013261Y003518D03*
X013261Y003515D03*
X013261Y003512D03*
X014179Y003413D03*
X014641Y004001D03*
X015064Y003911D03*
D1033*
X015253Y003413D03*
X016312Y003617D03*
X016312Y003620D03*
X016321Y003755D03*
D1034*
X015846Y003413D03*
D1035*
X016359Y003413D03*
X016401Y003998D03*
X016401Y004001D03*
X012765Y003995D03*
X012762Y003656D03*
D1036*
X014647Y004103D03*
X015253Y003416D03*
X016318Y003746D03*
D1037*
X013248Y003419D03*
D1038*
X015252Y003419D03*
D1039*
X016359Y003419D03*
D1040*
X013248Y003422D03*
D1041*
X015252Y003422D03*
X016314Y003731D03*
D1042*
X015846Y003422D03*
D1043*
X016357Y003422D03*
X016357Y003425D03*
X012778Y004058D03*
D1044*
X014179Y003425D03*
X014641Y004010D03*
X015064Y003896D03*
D1045*
X013278Y003593D03*
X013248Y003428D03*
D1046*
X015252Y003428D03*
X015252Y003431D03*
X016302Y003656D03*
D1047*
X016357Y003428D03*
X016393Y003980D03*
X014644Y004070D03*
X012769Y003671D03*
D1048*
X013275Y003584D03*
X013251Y003434D03*
D1049*
X014179Y003434D03*
D1050*
X014632Y003434D03*
D1051*
X015252Y003434D03*
X016305Y003704D03*
X014583Y005834D03*
X013746Y004094D03*
D1052*
X015846Y003434D03*
D1053*
X016356Y003434D03*
X012771Y003959D03*
D1054*
X015250Y003437D03*
X016300Y003665D03*
D1055*
X016354Y003437D03*
D1056*
X016297Y003686D03*
X015250Y003440D03*
D1057*
X014634Y003443D03*
X013329Y003656D03*
D1058*
X013746Y004097D03*
X015252Y003443D03*
X016296Y003677D03*
X016296Y003680D03*
X016296Y003683D03*
D1059*
X016354Y003443D03*
X012787Y004067D03*
D1060*
X015252Y003446D03*
D1061*
X016353Y003446D03*
X016389Y003962D03*
X012774Y003680D03*
D1062*
X014632Y003449D03*
D1063*
X015250Y003449D03*
D1064*
X015846Y003449D03*
X014637Y003824D03*
D1065*
X016351Y003449D03*
D1066*
X013269Y003563D03*
X013269Y003566D03*
X013254Y003452D03*
D1067*
X015252Y003452D03*
D1068*
X016351Y003452D03*
X016387Y003956D03*
D1069*
X015252Y003458D03*
X015252Y003455D03*
X014583Y005831D03*
D1070*
X016384Y003947D03*
X016351Y003455D03*
D1071*
X015855Y004037D03*
X015579Y003713D03*
X013635Y004052D03*
X013266Y003551D03*
X013266Y003548D03*
X013254Y003461D03*
X013254Y003458D03*
D1072*
X014187Y003977D03*
X014637Y003878D03*
X014634Y003458D03*
D1073*
X016350Y003458D03*
X016350Y003461D03*
D1074*
X014632Y003464D03*
D1075*
X015252Y003464D03*
D1076*
X015846Y003464D03*
X014637Y003779D03*
D1077*
X014646Y004079D03*
X016350Y003464D03*
D1078*
X015252Y003470D03*
D1079*
X014643Y004037D03*
X014181Y003473D03*
X012738Y003533D03*
X012738Y003536D03*
D1080*
X015253Y003473D03*
D1081*
X015846Y003473D03*
X015846Y003476D03*
X015855Y003878D03*
X014637Y003743D03*
X014634Y003605D03*
X014634Y003602D03*
X014634Y003596D03*
X014634Y003593D03*
X014634Y003590D03*
X013239Y004001D03*
D1082*
X016347Y003473D03*
D1083*
X014179Y003476D03*
X012739Y003542D03*
X012739Y003545D03*
D1084*
X015252Y003476D03*
D1085*
X016345Y003476D03*
X012805Y004082D03*
D1086*
X013257Y003479D03*
X015582Y003704D03*
D1087*
X015253Y003479D03*
D1088*
X015846Y003479D03*
X014634Y003614D03*
X014634Y003629D03*
X014634Y003644D03*
X014634Y003659D03*
X014634Y003674D03*
X014634Y003689D03*
X014634Y003704D03*
X013371Y003674D03*
D1089*
X016347Y003479D03*
D1090*
X015253Y003482D03*
X015253Y003485D03*
X014584Y005828D03*
D1091*
X013990Y004073D03*
X015847Y003482D03*
D1092*
X016345Y003482D03*
X016375Y003917D03*
D1093*
X015846Y003485D03*
D1094*
X016344Y003485D03*
X016344Y003488D03*
X016374Y003911D03*
D1095*
X014179Y003488D03*
X012739Y003563D03*
X012739Y003566D03*
D1096*
X013746Y004103D03*
X015255Y003488D03*
D1097*
X015846Y003488D03*
D1098*
X015060Y003836D03*
X015060Y003842D03*
X014643Y004031D03*
X012741Y003500D03*
X012741Y003497D03*
X012741Y003491D03*
D1099*
X012741Y003572D03*
X014181Y003497D03*
X014181Y003491D03*
X014643Y004043D03*
D1100*
X016372Y003908D03*
X016342Y003491D03*
X012793Y003707D03*
D1101*
X012741Y003494D03*
X015060Y003839D03*
D1102*
X013258Y003494D03*
D1103*
X012741Y003569D03*
X014181Y003494D03*
D1104*
X015255Y003494D03*
D1105*
X015846Y003494D03*
D1106*
X016344Y003494D03*
D1107*
X015256Y003500D03*
X015256Y003503D03*
D1108*
X016341Y003503D03*
X016341Y003500D03*
D1109*
X015256Y003506D03*
D1110*
X015847Y003506D03*
X013978Y004055D03*
D1111*
X014646Y004088D03*
X016368Y003890D03*
X016341Y003506D03*
D1112*
X013260Y003509D03*
D1113*
X014181Y003509D03*
D1114*
X014632Y003509D03*
D1115*
X015258Y003509D03*
D1116*
X015846Y003509D03*
D1117*
X015256Y003512D03*
D1118*
X016339Y003512D03*
X016366Y003887D03*
X012799Y003716D03*
D1119*
X014583Y005825D03*
X015258Y003515D03*
D1120*
X016338Y003515D03*
X016365Y003881D03*
D1121*
X016363Y003878D03*
X016336Y003518D03*
D1122*
X015847Y003521D03*
D1123*
X016338Y003521D03*
X014583Y005843D03*
D1124*
X013261Y003524D03*
D1125*
X014182Y003524D03*
D1126*
X015259Y003524D03*
D1127*
X015846Y003524D03*
D1128*
X016336Y003524D03*
D1129*
X015067Y003995D03*
X014635Y003806D03*
X014632Y003536D03*
X014632Y003533D03*
X014632Y003530D03*
X014632Y003527D03*
D1130*
X015067Y004007D03*
X015856Y003827D03*
X015847Y003527D03*
X013966Y004037D03*
D1131*
X013218Y003950D03*
X013263Y003536D03*
X013263Y003533D03*
X013263Y003530D03*
D1132*
X015262Y003533D03*
D1133*
X015846Y003533D03*
X015855Y003821D03*
D1134*
X016357Y003860D03*
X016333Y003533D03*
X012808Y003725D03*
X012832Y004097D03*
D1135*
X015262Y003536D03*
D1136*
X015847Y003536D03*
X015856Y003818D03*
D1137*
X016356Y003857D03*
X016332Y003536D03*
D1138*
X012739Y003539D03*
D1139*
X013264Y003539D03*
X015064Y003914D03*
D1140*
X014182Y003539D03*
X012748Y003614D03*
D1141*
X014634Y003539D03*
X014637Y003794D03*
D1142*
X015264Y003539D03*
D1143*
X015846Y003539D03*
D1144*
X016333Y003539D03*
D1145*
X015264Y003542D03*
D1146*
X016332Y003542D03*
D1147*
X015264Y003545D03*
X015264Y003548D03*
D1148*
X015847Y003548D03*
X015847Y003545D03*
D1149*
X014184Y003548D03*
X014184Y003551D03*
X014184Y003557D03*
D1150*
X015265Y003551D03*
D1151*
X012739Y003554D03*
D1152*
X014184Y003554D03*
D1153*
X015267Y003554D03*
D1154*
X015846Y003554D03*
D1155*
X016329Y003554D03*
X012819Y003734D03*
D1156*
X016329Y003557D03*
X016347Y003827D03*
X016347Y003830D03*
D1157*
X014185Y003782D03*
X014185Y003776D03*
X014185Y003773D03*
X014185Y003770D03*
X014185Y003767D03*
X014185Y003563D03*
X014185Y003560D03*
D1158*
X015268Y003563D03*
X015268Y003566D03*
D1159*
X016326Y003566D03*
X016326Y003563D03*
X016344Y003818D03*
X016344Y003821D03*
X012822Y003737D03*
D1160*
X014634Y003566D03*
D1161*
X013270Y003569D03*
D1162*
X014184Y003569D03*
X014187Y003764D03*
X016410Y004034D03*
D1163*
X014637Y003764D03*
X014634Y003569D03*
D1164*
X015270Y003569D03*
X012933Y003779D03*
D1165*
X015846Y003569D03*
D1166*
X016324Y003569D03*
D1167*
X014185Y003926D03*
X013270Y003572D03*
D1168*
X014632Y003572D03*
X014632Y003575D03*
X014632Y003578D03*
X014632Y003581D03*
X014632Y003587D03*
X014635Y003746D03*
X014635Y003752D03*
X014635Y003755D03*
X014635Y003758D03*
X014635Y003761D03*
D1169*
X015271Y003572D03*
D1170*
X015847Y003572D03*
X013942Y003980D03*
X013942Y003983D03*
D1171*
X014185Y003755D03*
X014185Y003752D03*
X014185Y003593D03*
X014185Y003590D03*
X014185Y003587D03*
X014185Y003581D03*
X014185Y003578D03*
X014185Y003575D03*
D1172*
X015271Y003578D03*
D1173*
X016323Y003578D03*
D1174*
X015273Y003581D03*
D1175*
X012742Y003584D03*
D1176*
X014632Y003584D03*
X014635Y003749D03*
D1177*
X015274Y003584D03*
D1178*
X016321Y003584D03*
D1179*
X015274Y003587D03*
D1180*
X015846Y003587D03*
D1181*
X016320Y003587D03*
X016338Y003797D03*
X016338Y003800D03*
X012831Y003743D03*
D1182*
X015276Y003590D03*
D1183*
X015276Y003593D03*
X015276Y003596D03*
X012951Y003947D03*
D1184*
X012745Y003596D03*
X014185Y003812D03*
X016417Y004061D03*
D1185*
X016333Y003785D03*
X016318Y003596D03*
X014647Y004100D03*
X012835Y003746D03*
D1186*
X012745Y003599D03*
D1187*
X013281Y003599D03*
D1188*
X014187Y003599D03*
X014187Y003614D03*
X014187Y003734D03*
D1189*
X015277Y003599D03*
X012952Y003944D03*
D1190*
X012952Y003941D03*
X015277Y003602D03*
D1191*
X016317Y003602D03*
X016332Y003782D03*
D1192*
X013284Y003605D03*
D1193*
X013285Y003608D03*
X014185Y003941D03*
D1194*
X015280Y003608D03*
X012955Y003932D03*
X012955Y003935D03*
D1195*
X012957Y003929D03*
X015282Y003614D03*
D1196*
X016314Y003614D03*
D1197*
X016413Y004043D03*
X016413Y004046D03*
X014643Y004055D03*
X012750Y003620D03*
X012750Y003617D03*
D1198*
X012958Y003923D03*
X015283Y003617D03*
D1199*
X013293Y003620D03*
D1200*
X015285Y003620D03*
X015285Y003623D03*
D1201*
X016311Y003623D03*
X016311Y003626D03*
X016320Y003752D03*
X012846Y003752D03*
D1202*
X015286Y003626D03*
D1203*
X014188Y003629D03*
X014188Y003644D03*
X014188Y003659D03*
X014188Y003674D03*
X014188Y003689D03*
X014188Y003704D03*
X014188Y003719D03*
D1204*
X015288Y003629D03*
D1205*
X016309Y003629D03*
D1206*
X015288Y003632D03*
D1207*
X016308Y003632D03*
D1208*
X012754Y003635D03*
D1209*
X013305Y003635D03*
X014640Y003938D03*
X014640Y003941D03*
X015381Y004067D03*
X015525Y003851D03*
X015855Y003977D03*
D1210*
X015288Y003635D03*
X012963Y003890D03*
X012963Y003893D03*
X012963Y003896D03*
D1211*
X016309Y003635D03*
D1212*
X016407Y004022D03*
X012762Y004031D03*
X012756Y003638D03*
D1213*
X013308Y003638D03*
X013683Y003896D03*
X013683Y003902D03*
X013683Y003905D03*
X013683Y003908D03*
X014583Y005861D03*
D1214*
X012964Y003887D03*
X012964Y003881D03*
X012964Y003878D03*
X012964Y003875D03*
X015289Y003641D03*
X015289Y003638D03*
D1215*
X016308Y003638D03*
D1216*
X012759Y003644D03*
X012762Y004019D03*
D1217*
X013314Y003644D03*
X013689Y003824D03*
X013689Y003839D03*
X015414Y004034D03*
D1218*
X015291Y003644D03*
D1219*
X016306Y003644D03*
D1220*
X015292Y003647D03*
X015292Y003650D03*
X012964Y003860D03*
X012964Y003863D03*
X012964Y003866D03*
X012964Y003872D03*
D1221*
X012766Y003989D03*
X012763Y003659D03*
D1222*
X016300Y003659D03*
D1223*
X016396Y003986D03*
X012769Y003977D03*
X012769Y003971D03*
X012766Y003665D03*
D1224*
X012768Y003668D03*
D1225*
X013353Y003668D03*
D1226*
X012772Y003674D03*
X016393Y003974D03*
D1227*
X015591Y003674D03*
X015063Y003899D03*
D1228*
X016297Y003689D03*
X016297Y003674D03*
D1229*
X016392Y003968D03*
X016392Y003971D03*
X012774Y003677D03*
D1230*
X012780Y003689D03*
D1231*
X015585Y003695D03*
X015855Y004046D03*
D1232*
X016380Y003932D03*
X012786Y003698D03*
D1233*
X016303Y003701D03*
D1234*
X012790Y003704D03*
D1235*
X016305Y003707D03*
D1236*
X016306Y003710D03*
X014647Y004106D03*
D1237*
X012798Y003713D03*
D1238*
X016308Y003716D03*
X016308Y003713D03*
D1239*
X012802Y003719D03*
D1240*
X014635Y003719D03*
X014635Y003734D03*
D1241*
X016309Y003719D03*
D1242*
X016354Y003851D03*
X012811Y003728D03*
D1243*
X013222Y003959D03*
X015064Y003929D03*
X015571Y003734D03*
D1244*
X016314Y003734D03*
D1245*
X016315Y003737D03*
X012850Y003755D03*
D1246*
X016317Y003743D03*
X016317Y003740D03*
D1247*
X015568Y003743D03*
X015568Y003746D03*
X013222Y003962D03*
D1248*
X012840Y003749D03*
D1249*
X016320Y003749D03*
D1250*
X012856Y003758D03*
D1251*
X016323Y003758D03*
D1252*
X016324Y003761D03*
X014584Y005837D03*
D1253*
X012870Y003764D03*
D1254*
X015562Y003764D03*
D1255*
X016324Y003764D03*
D1256*
X012877Y003767D03*
D1257*
X014635Y003767D03*
X014635Y003770D03*
X014635Y003773D03*
D1258*
X012888Y003770D03*
D1259*
X012895Y003773D03*
D1260*
X012910Y003776D03*
D1261*
X014185Y003779D03*
D1262*
X015057Y003779D03*
D1263*
X015555Y003779D03*
X015855Y004004D03*
X013659Y004004D03*
D1264*
X015855Y003779D03*
D1265*
X012967Y003782D03*
X012967Y003785D03*
X012967Y003788D03*
X012967Y003791D03*
X012967Y003797D03*
X012967Y003800D03*
X012967Y003803D03*
X012967Y003806D03*
X012967Y003812D03*
X012967Y003815D03*
X012967Y003818D03*
X012967Y003821D03*
X012967Y003827D03*
X012967Y003830D03*
X012967Y003833D03*
X012967Y003836D03*
X012967Y003842D03*
D1266*
X015856Y003782D03*
D1267*
X015552Y003788D03*
X015552Y003791D03*
X013662Y003995D03*
D1268*
X014635Y003791D03*
D1269*
X012967Y003794D03*
X012967Y003809D03*
X012967Y003824D03*
X012967Y003839D03*
D1270*
X013663Y003989D03*
X015550Y003794D03*
D1271*
X015856Y003794D03*
D1272*
X016336Y003794D03*
D1273*
X014637Y003797D03*
X014637Y003800D03*
X014637Y003803D03*
X014004Y004085D03*
D1274*
X015856Y003797D03*
D1275*
X015855Y003806D03*
X013956Y004013D03*
D1276*
X014184Y003809D03*
D1277*
X016339Y003809D03*
D1278*
X015543Y003812D03*
X015363Y004082D03*
X013668Y003977D03*
D1279*
X014646Y004097D03*
X016341Y003812D03*
D1280*
X015504Y003896D03*
X014187Y003965D03*
X013689Y003842D03*
X013689Y003836D03*
X013689Y003833D03*
X013689Y003830D03*
X013689Y003827D03*
X013689Y003821D03*
X013689Y003818D03*
D1281*
X014185Y003821D03*
X016420Y004070D03*
D1282*
X014184Y003824D03*
D1283*
X014643Y004034D03*
X015060Y003824D03*
D1284*
X015856Y003824D03*
D1285*
X016345Y003824D03*
D1286*
X015535Y003830D03*
X015370Y004076D03*
D1287*
X015069Y003992D03*
X014637Y003836D03*
X014637Y003833D03*
D1288*
X015856Y003839D03*
D1289*
X016350Y003839D03*
X014646Y004094D03*
D1290*
X016353Y003848D03*
X016353Y003845D03*
D1291*
X015856Y003848D03*
D1292*
X012966Y003854D03*
D1293*
X013687Y003854D03*
X015400Y004049D03*
X015502Y003899D03*
D1294*
X014184Y003854D03*
D1295*
X014637Y003854D03*
D1296*
X015855Y003854D03*
D1297*
X015856Y003857D03*
D1298*
X014185Y003860D03*
D1299*
X012964Y003869D03*
D1300*
X013686Y003869D03*
X013686Y003884D03*
X014640Y003929D03*
X015510Y003884D03*
D1301*
X014184Y003869D03*
D1302*
X014638Y003869D03*
D1303*
X015061Y003869D03*
D1304*
X015516Y003869D03*
D1305*
X015855Y003869D03*
D1306*
X016360Y003869D03*
D1307*
X015856Y003872D03*
D1308*
X016362Y003872D03*
X016362Y003875D03*
D1309*
X015513Y003878D03*
D1310*
X012964Y003884D03*
D1311*
X015063Y003884D03*
D1312*
X015855Y003884D03*
D1313*
X014185Y003887D03*
D1314*
X015063Y003887D03*
D1315*
X015063Y003890D03*
X015063Y003893D03*
D1316*
X016369Y003893D03*
X016369Y003896D03*
D1317*
X012961Y003899D03*
D1318*
X013683Y003899D03*
D1319*
X014184Y003899D03*
X015855Y004064D03*
D1320*
X015855Y003944D03*
X014640Y003899D03*
D1321*
X015856Y003899D03*
D1322*
X016371Y003899D03*
D1323*
X012961Y003902D03*
X012961Y003905D03*
D1324*
X012960Y003908D03*
X012960Y003911D03*
D1325*
X014185Y003908D03*
D1326*
X013681Y003911D03*
X013681Y003917D03*
D1327*
X012958Y003914D03*
D1328*
X013681Y003914D03*
X015856Y003974D03*
D1329*
X014185Y003914D03*
D1330*
X015493Y003914D03*
X015856Y003959D03*
D1331*
X015856Y003914D03*
D1332*
X016374Y003914D03*
D1333*
X012958Y003917D03*
D1334*
X015856Y003917D03*
X015856Y003920D03*
D1335*
X015856Y003926D03*
X013234Y003992D03*
D1336*
X016378Y003926D03*
D1337*
X013677Y003929D03*
D1338*
X014185Y003929D03*
D1339*
X016380Y003929D03*
D1340*
X013675Y003938D03*
X013675Y003941D03*
D1341*
X014583Y005846D03*
X016383Y003938D03*
D1342*
X013675Y003944D03*
D1343*
X014185Y003944D03*
D1344*
X016383Y003944D03*
D1345*
X015475Y003947D03*
X015430Y004013D03*
X014185Y003968D03*
D1346*
X012772Y003950D03*
D1347*
X013218Y003953D03*
D1348*
X013672Y003959D03*
X015067Y003959D03*
D1349*
X015385Y004064D03*
X014185Y003959D03*
D1350*
X014640Y003959D03*
D1351*
X016389Y003959D03*
D1352*
X013669Y003965D03*
X013669Y003968D03*
X013669Y003971D03*
D1353*
X015406Y004043D03*
X015856Y003965D03*
D1354*
X016390Y003965D03*
D1355*
X013938Y003968D03*
D1356*
X012769Y003974D03*
X016396Y003989D03*
D1357*
X015855Y003989D03*
X013227Y003974D03*
D1358*
X013668Y003974D03*
D1359*
X013939Y003974D03*
D1360*
X014187Y003974D03*
D1361*
X014641Y003974D03*
X013651Y004019D03*
D1362*
X015459Y003974D03*
D1363*
X014644Y004067D03*
X016399Y003995D03*
X012766Y003992D03*
X012766Y003986D03*
D1364*
X013233Y003989D03*
D1365*
X013945Y003989D03*
D1366*
X014185Y003989D03*
D1367*
X012772Y004052D03*
X012766Y004001D03*
X012766Y003998D03*
X016402Y004007D03*
D1368*
X013660Y004001D03*
X013660Y003998D03*
D1369*
X014185Y003998D03*
D1370*
X013950Y004001D03*
D1371*
X012765Y004004D03*
D1372*
X013242Y004004D03*
D1373*
X013951Y004004D03*
D1374*
X016402Y004004D03*
D1375*
X012765Y004007D03*
X012765Y004010D03*
D1376*
X013957Y004019D03*
D1377*
X014641Y004019D03*
D1378*
X014643Y004025D03*
X014583Y005855D03*
D1379*
X014643Y004028D03*
D1380*
X012762Y004034D03*
D1381*
X013644Y004034D03*
D1382*
X013965Y004034D03*
D1383*
X015855Y004034D03*
D1384*
X014643Y004040D03*
D1385*
X014644Y004064D03*
X012769Y004049D03*
D1386*
X013636Y004049D03*
D1387*
X015855Y004049D03*
D1388*
X016414Y004049D03*
D1389*
X013975Y004052D03*
D1390*
X012783Y004064D03*
D1391*
X013984Y004064D03*
D1392*
X013990Y004070D03*
D1393*
X012802Y004079D03*
D1394*
X013614Y004079D03*
D1395*
X013996Y004079D03*
D1396*
X015367Y004079D03*
D1397*
X012811Y004085D03*
D1398*
X012828Y004094D03*
D1399*
X015918Y004094D03*
D1400*
X015915Y004097D03*
D1401*
X013746Y004100D03*
D1402*
X014584Y005732D03*
X015907Y004100D03*
D1403*
X015901Y004103D03*
D1404*
X013746Y004106D03*
D1405*
X012865Y004109D03*
D1406*
X013746Y004109D03*
D1407*
X014649Y004109D03*
D1408*
X015886Y004109D03*
D1409*
X014584Y004112D03*
X014584Y004115D03*
X014584Y004118D03*
D1410*
X014583Y004121D03*
X014583Y004127D03*
D1411*
X014583Y004124D03*
D1412*
X014584Y004130D03*
X014584Y004133D03*
X014584Y004136D03*
D1413*
X014583Y004139D03*
D1414*
X014583Y004142D03*
X014583Y004145D03*
D1415*
X014584Y004148D03*
X014584Y004151D03*
D1416*
X014583Y004154D03*
D1417*
X014583Y004157D03*
X014583Y004160D03*
D1418*
X014584Y004163D03*
X014584Y004166D03*
D1419*
X014584Y004169D03*
D1420*
X014583Y004172D03*
X014583Y004175D03*
X014583Y004178D03*
D1421*
X014584Y004181D03*
D1422*
X014584Y004184D03*
D1423*
X014583Y004187D03*
X014583Y004190D03*
D1424*
X014584Y004193D03*
X014584Y004196D03*
D1425*
X014584Y004199D03*
D1426*
X014583Y004202D03*
X014583Y004205D03*
D1427*
X014584Y004208D03*
X014584Y004211D03*
D1428*
X014584Y004214D03*
D1429*
X014583Y004217D03*
X014583Y004220D03*
X014583Y004223D03*
D1430*
X014584Y004226D03*
D1431*
X014584Y004229D03*
D1432*
X014583Y004232D03*
X014583Y004235D03*
D1433*
X014584Y004238D03*
X014584Y004241D03*
D1434*
X014583Y004244D03*
D1435*
X014583Y004247D03*
D1436*
X014584Y004250D03*
X014584Y004253D03*
D1437*
X014583Y004256D03*
X014583Y004262D03*
D1438*
X014583Y004259D03*
D1439*
X014584Y004265D03*
X014584Y004268D03*
D1440*
X014583Y004271D03*
D1441*
X014583Y004274D03*
D1442*
X014584Y004277D03*
X014584Y004280D03*
D1443*
X014583Y004283D03*
X014583Y004286D03*
D1444*
X014584Y004289D03*
D1445*
X014584Y004292D03*
D1446*
X014583Y004295D03*
X014583Y004298D03*
D1447*
X014584Y004301D03*
D1448*
X014584Y004304D03*
D1449*
X014583Y004307D03*
X014583Y004310D03*
D1450*
X014584Y004313D03*
D1451*
X014583Y004316D03*
D1452*
X014583Y004319D03*
D1453*
X014584Y004322D03*
X014584Y004325D03*
D1454*
X014583Y004328D03*
X014583Y004331D03*
D1455*
X014584Y004334D03*
D1456*
X014584Y004337D03*
D1457*
X014583Y004340D03*
X014583Y004343D03*
D1458*
X014584Y004346D03*
D1459*
X014584Y004349D03*
D1460*
X014583Y004352D03*
D1461*
X014584Y004355D03*
X014584Y004358D03*
D1462*
X014583Y004361D03*
D1463*
X014583Y004364D03*
D1464*
X014584Y004367D03*
X014584Y004370D03*
D1465*
X014583Y004373D03*
D1466*
X014584Y004376D03*
D1467*
X014584Y004379D03*
D1468*
X014583Y004382D03*
D1469*
X014584Y004385D03*
X014584Y004388D03*
D1470*
X014583Y004391D03*
D1471*
X014583Y004394D03*
D1472*
X014584Y004397D03*
X014584Y004400D03*
D1473*
X014583Y004403D03*
D1474*
X014584Y004406D03*
D1475*
X014584Y004409D03*
D1476*
X014583Y004412D03*
D1477*
X014584Y004415D03*
X014584Y004418D03*
D1478*
X014583Y004421D03*
D1479*
X014584Y004424D03*
D1480*
X014584Y004427D03*
D1481*
X014583Y004430D03*
X014583Y004433D03*
D1482*
X014584Y004436D03*
D1483*
X014583Y004439D03*
D1484*
X014584Y004442D03*
X014584Y004445D03*
D1485*
X014583Y004448D03*
D1486*
X014584Y004451D03*
D1487*
X014584Y004454D03*
D1488*
X014583Y004457D03*
D1489*
X014584Y004460D03*
X014584Y004463D03*
D1490*
X014583Y004466D03*
D1491*
X014584Y004469D03*
D1492*
X014583Y004472D03*
X014583Y004475D03*
D1493*
X014584Y004478D03*
X014584Y004481D03*
D1494*
X014583Y004484D03*
D1495*
X014584Y004487D03*
D1496*
X014583Y004490D03*
D1497*
X014584Y004493D03*
X014584Y004496D03*
D1498*
X014583Y004499D03*
D1499*
X014584Y004502D03*
X014584Y004505D03*
D1500*
X014583Y004508D03*
D1501*
X014584Y004511D03*
D1502*
X014583Y004514D03*
D1503*
X014583Y004517D03*
D1504*
X014584Y004520D03*
D1505*
X014583Y004523D03*
X014583Y004526D03*
D1506*
X014584Y004529D03*
D1507*
X014583Y004532D03*
D1508*
X014584Y004535D03*
D1509*
X014583Y004538D03*
D1510*
X014584Y004541D03*
D1511*
X014584Y004544D03*
D1512*
X014583Y004547D03*
D1513*
X014584Y004550D03*
D1514*
X014583Y004553D03*
X014583Y004556D03*
D1515*
X014584Y004559D03*
D1516*
X014583Y004562D03*
D1517*
X014584Y004565D03*
D1518*
X014583Y004568D03*
X014583Y004571D03*
D1519*
X014584Y004574D03*
D1520*
X014583Y004577D03*
D1521*
X014584Y004580D03*
D1522*
X014583Y004583D03*
D1523*
X014584Y004586D03*
D1524*
X014583Y004589D03*
D1525*
X014583Y004592D03*
D1526*
X014584Y004595D03*
D1527*
X014583Y004598D03*
D1528*
X014584Y004601D03*
D1529*
X014583Y004604D03*
D1530*
X014584Y004607D03*
D1531*
X014583Y004610D03*
X014583Y004613D03*
D1532*
X014584Y004616D03*
D1533*
X014583Y004619D03*
D1534*
X014584Y004622D03*
D1535*
X014583Y004625D03*
D1536*
X014584Y004628D03*
D1537*
X014583Y004631D03*
D1538*
X014583Y004634D03*
D1539*
X014584Y004637D03*
D1540*
X014583Y004640D03*
D1541*
X014584Y004643D03*
D1542*
X014583Y004646D03*
D1543*
X014584Y004649D03*
D1544*
X014583Y004652D03*
D1545*
X014584Y004655D03*
D1546*
X014583Y004658D03*
D1547*
X014584Y004661D03*
D1548*
X014583Y004664D03*
D1549*
X014584Y004667D03*
D1550*
X014583Y004670D03*
X014583Y004673D03*
D1551*
X014583Y004676D03*
D1552*
X014583Y004679D03*
D1553*
X014584Y004682D03*
D1554*
X014583Y004685D03*
D1555*
X014584Y004688D03*
D1556*
X014583Y004691D03*
D1557*
X014584Y004694D03*
D1558*
X014583Y004697D03*
D1559*
X014584Y004700D03*
D1560*
X014583Y004703D03*
D1561*
X014584Y004706D03*
D1562*
X014583Y004709D03*
D1563*
X014584Y004712D03*
D1564*
X014583Y004715D03*
D1565*
X014584Y004718D03*
D1566*
X014583Y004721D03*
D1567*
X014584Y004724D03*
D1568*
X014583Y004727D03*
D1569*
X014584Y004730D03*
D1570*
X014583Y004733D03*
D1571*
X014584Y004736D03*
D1572*
X014583Y004739D03*
D1573*
X014583Y004742D03*
X014583Y004745D03*
D1574*
X014583Y004748D03*
D1575*
X014584Y004751D03*
D1576*
X014583Y004754D03*
D1577*
X014584Y004757D03*
D1578*
X014583Y004760D03*
D1579*
X014584Y004763D03*
D1580*
X014583Y004766D03*
D1581*
X014584Y004769D03*
D1582*
X014583Y004772D03*
D1583*
X014584Y004775D03*
D1584*
X014583Y004778D03*
D1585*
X014584Y004781D03*
D1586*
X014583Y004784D03*
D1587*
X014583Y004787D03*
D1588*
X014584Y004790D03*
D1589*
X014583Y004793D03*
D1590*
X014584Y004796D03*
D1591*
X014583Y004799D03*
D1592*
X014583Y004805D03*
D1593*
X014583Y004814D03*
D1594*
X014583Y004820D03*
D1595*
X014584Y004823D03*
D1596*
X014583Y004826D03*
D1597*
X014584Y004829D03*
D1598*
X014583Y004832D03*
D1599*
X014583Y004835D03*
D1600*
X014584Y004838D03*
D1601*
X014583Y004841D03*
D1602*
X014584Y004844D03*
D1603*
X014583Y004847D03*
D1604*
X014583Y004850D03*
D1605*
X014583Y004856D03*
D1606*
X014583Y004862D03*
D1607*
X014583Y004865D03*
D1608*
X014583Y004871D03*
D1609*
X014584Y004874D03*
D1610*
X014583Y004877D03*
D1611*
X014583Y004880D03*
D1612*
X014583Y004886D03*
D1613*
X014583Y004889D03*
D1614*
X014583Y004895D03*
D1615*
X014584Y004898D03*
D1616*
X014583Y004904D03*
D1617*
X014583Y004910D03*
D1618*
X014583Y004913D03*
D1619*
X014583Y004919D03*
D1620*
X014583Y004922D03*
D1621*
X014583Y004928D03*
D1622*
X014583Y004931D03*
D1623*
X014584Y004934D03*
D1624*
X014583Y004937D03*
D1625*
X014583Y004940D03*
D1626*
X014584Y004943D03*
D1627*
X014583Y004946D03*
D1628*
X014583Y004949D03*
D1629*
X014584Y004952D03*
D1630*
X014583Y004955D03*
D1631*
X014583Y004958D03*
D1632*
X014584Y004964D03*
D1633*
X014583Y004967D03*
D1634*
X014583Y004976D03*
D1635*
X014583Y004979D03*
D1636*
X014583Y004985D03*
D1637*
X014583Y004988D03*
D1638*
X014584Y004991D03*
D1639*
X014583Y004994D03*
D1640*
X014583Y004997D03*
D1641*
X014584Y005000D03*
D1642*
X014584Y005003D03*
D1643*
X014583Y005006D03*
D1644*
X014583Y005009D03*
D1645*
X014584Y005015D03*
D1646*
X014583Y005018D03*
D1647*
X014583Y005021D03*
D1648*
X014584Y005024D03*
D1649*
X014584Y005027D03*
D1650*
X014583Y005030D03*
D1651*
X014584Y005039D03*
D1652*
X014583Y005042D03*
D1653*
X014583Y005045D03*
D1654*
X014584Y005048D03*
D1655*
X014584Y005051D03*
D1656*
X014583Y005057D03*
D1657*
X014584Y005060D03*
D1658*
X014584Y005063D03*
D1659*
X014583Y005066D03*
D1660*
X014583Y005069D03*
D1661*
X014584Y005075D03*
D1662*
X014584Y005078D03*
D1663*
X014583Y005081D03*
D1664*
X014583Y005084D03*
D1665*
X014583Y005087D03*
D1666*
X014584Y005090D03*
D1667*
X014584Y005093D03*
D1668*
X014584Y005096D03*
D1669*
X014583Y005099D03*
D1670*
X014583Y005102D03*
D1671*
X014584Y005105D03*
D1672*
X014584Y005108D03*
D1673*
X014584Y005111D03*
D1674*
X014583Y005114D03*
D1675*
X014583Y005117D03*
D1676*
X014583Y005120D03*
D1677*
X014584Y005123D03*
D1678*
X014584Y005126D03*
D1679*
X014584Y005129D03*
D1680*
X014583Y005132D03*
D1681*
X014583Y005135D03*
D1682*
X014583Y005138D03*
D1683*
X014583Y005141D03*
D1684*
X014584Y005144D03*
D1685*
X014584Y005147D03*
D1686*
X014584Y005150D03*
D1687*
X014584Y005153D03*
D1688*
X014583Y005156D03*
D1689*
X014583Y005159D03*
D1690*
X014583Y005165D03*
D1691*
X014583Y005168D03*
D1692*
X014584Y005171D03*
D1693*
X014584Y005174D03*
D1694*
X014584Y005177D03*
D1695*
X014584Y005180D03*
D1696*
X014583Y005183D03*
D1697*
X014583Y005186D03*
D1698*
X014583Y005189D03*
D1699*
X014583Y005192D03*
D1700*
X014583Y005198D03*
D1701*
X014584Y005201D03*
D1702*
X014584Y005204D03*
D1703*
X014584Y005207D03*
D1704*
X014584Y005210D03*
D1705*
X014584Y005213D03*
D1706*
X014584Y005216D03*
D1707*
X014584Y005219D03*
D1708*
X014584Y005222D03*
D1709*
X014584Y005225D03*
D1710*
X014583Y005228D03*
D1711*
X014583Y005231D03*
D1712*
X014583Y005234D03*
D1713*
X014583Y005237D03*
D1714*
X014583Y005240D03*
D1715*
X014583Y005246D03*
D1716*
X014583Y005249D03*
D1717*
X014583Y005252D03*
D1718*
X014583Y005255D03*
D1719*
X014583Y005261D03*
D1720*
X014583Y005264D03*
D1721*
X014583Y005267D03*
D1722*
X014583Y005270D03*
D1723*
X014583Y005276D03*
D1724*
X014583Y005282D03*
D1725*
X014584Y005285D03*
D1726*
X014584Y005288D03*
D1727*
X014584Y005291D03*
D1728*
X014584Y005294D03*
D1729*
X014584Y005297D03*
D1730*
X014584Y005300D03*
D1731*
X014584Y005303D03*
D1732*
X014583Y005306D03*
D1733*
X014583Y005309D03*
D1734*
X014583Y005312D03*
D1735*
X014583Y005315D03*
D1736*
X014583Y005318D03*
D1737*
X014583Y005321D03*
D1738*
X014583Y005324D03*
D1739*
X014584Y005327D03*
D1740*
X014584Y005330D03*
D1741*
X014584Y005333D03*
D1742*
X014583Y005339D03*
D1743*
X014583Y005342D03*
D1744*
X014583Y005345D03*
D1745*
X014583Y005348D03*
D1746*
X014584Y005351D03*
D1747*
X014584Y005354D03*
D1748*
X014584Y005357D03*
D1749*
X014583Y005360D03*
D1750*
X014583Y005363D03*
D1751*
X014583Y005366D03*
D1752*
X014584Y005369D03*
D1753*
X014584Y005372D03*
D1754*
X014583Y005378D03*
D1755*
X014583Y005381D03*
D1756*
X014583Y005384D03*
D1757*
X014584Y005390D03*
D1758*
X014583Y005396D03*
D1759*
X014584Y005399D03*
D1760*
X014584Y005402D03*
D1761*
X014584Y005414D03*
D1762*
X014584Y005426D03*
D1763*
X014583Y005438D03*
D1764*
X014583Y005447D03*
D1765*
X014583Y005450D03*
D1766*
X014583Y005459D03*
D1767*
X014584Y005462D03*
D1768*
X014583Y005465D03*
D1769*
X014584Y005468D03*
D1770*
X014584Y005471D03*
D1771*
X014583Y005474D03*
D1772*
X014584Y005477D03*
D1773*
X014584Y005480D03*
D1774*
X014583Y005483D03*
D1775*
X014584Y005486D03*
D1776*
X014583Y005489D03*
D1777*
X014584Y005492D03*
D1778*
X014583Y005495D03*
D1779*
X014584Y005498D03*
D1780*
X014583Y005501D03*
D1781*
X014584Y005504D03*
D1782*
X014584Y005507D03*
D1783*
X014583Y005510D03*
D1784*
X014583Y005513D03*
D1785*
X014583Y005519D03*
D1786*
X014584Y005522D03*
D1787*
X014584Y005528D03*
D1788*
X014583Y005531D03*
D1789*
X014584Y005534D03*
D1790*
X014583Y005537D03*
D1791*
X014584Y005540D03*
D1792*
X014583Y005543D03*
D1793*
X014584Y005546D03*
D1794*
X014583Y005549D03*
D1795*
X014583Y005552D03*
D1796*
X014584Y005555D03*
D1797*
X014583Y005558D03*
D1798*
X014584Y005561D03*
D1799*
X014584Y005564D03*
D1800*
X014583Y005567D03*
D1801*
X014584Y005570D03*
D1802*
X014584Y005573D03*
D1803*
X014583Y005576D03*
D1804*
X014584Y005579D03*
D1805*
X014584Y005582D03*
D1806*
X014583Y005585D03*
D1807*
X014583Y005588D03*
D1808*
X014584Y005591D03*
D1809*
X014584Y005594D03*
D1810*
X014583Y005597D03*
D1811*
X014583Y005600D03*
D1812*
X014583Y005603D03*
D1813*
X014584Y005606D03*
D1814*
X014584Y005609D03*
D1815*
X014583Y005612D03*
D1816*
X014583Y005618D03*
D1817*
X014583Y005621D03*
D1818*
X014584Y005624D03*
D1819*
X014584Y005627D03*
D1820*
X014584Y005630D03*
D1821*
X014584Y005633D03*
D1822*
X014583Y005636D03*
D1823*
X014583Y005639D03*
D1824*
X014583Y005642D03*
D1825*
X014583Y005645D03*
D1826*
X014583Y005648D03*
D1827*
X014583Y005651D03*
D1828*
X014583Y005654D03*
D1829*
X014584Y005663D03*
D1830*
X014584Y005666D03*
D1831*
X014583Y005669D03*
D1832*
X014583Y005672D03*
D1833*
X014584Y005678D03*
D1834*
X014583Y005681D03*
D1835*
X014584Y005684D03*
D1836*
X014583Y005687D03*
D1837*
X014583Y005690D03*
D1838*
X014584Y005693D03*
D1839*
X014583Y005696D03*
D1840*
X014583Y005699D03*
D1841*
X014584Y005702D03*
D1842*
X014583Y005705D03*
D1843*
X014583Y005708D03*
D1844*
X014583Y005711D03*
D1845*
X014583Y005720D03*
D1846*
X014583Y005723D03*
D1847*
X014583Y005726D03*
D1848*
X014583Y005729D03*
D1849*
X014583Y005735D03*
D1850*
X014583Y005738D03*
D1851*
X014583Y005741D03*
D1852*
X014583Y005744D03*
D1853*
X014584Y005747D03*
D1854*
X014584Y005750D03*
D1855*
X014583Y005756D03*
D1856*
X014583Y005759D03*
D1857*
X014583Y005762D03*
D1858*
X014583Y005765D03*
D1859*
X014584Y005768D03*
D1860*
X014583Y005771D03*
D1861*
X014583Y005774D03*
D1862*
X014583Y005777D03*
D1863*
X014583Y005780D03*
D1864*
X014584Y005789D03*
D1865*
X014584Y005798D03*
D1866*
X014583Y005801D03*
D1867*
X014583Y005804D03*
D1868*
X014583Y005807D03*
D1869*
X014584Y005810D03*
D1870*
X014583Y005813D03*
D1871*
X014583Y005819D03*
D1872*
X014584Y005822D03*
D1873*
X014583Y005840D03*
D1874*
X014583Y005849D03*
D1875*
X014583Y005864D03*
D1876*
X011899Y003073D02*
X010949Y003073D01*
X007899Y003073D01*
X008149Y003073D01*
X008149Y002823D01*
X008649Y002823D01*
X008649Y003073D01*
X009149Y003073D01*
X009149Y002823D01*
X009649Y002823D01*
X009649Y003073D01*
X010149Y003073D01*
X011649Y003073D01*
X011649Y002823D01*
X011149Y002823D01*
X011149Y003073D01*
X010649Y003073D01*
X010649Y002823D01*
X010149Y002823D01*
X010149Y003073D01*
X011649Y003073D02*
X011799Y003073D01*
X011899Y003073D02*
X011899Y001923D01*
X011899Y000773D01*
X011399Y000773D01*
X011399Y001173D01*
X011299Y001173D01*
X011299Y000773D01*
X011399Y000773D02*
X010899Y000773D01*
X007899Y000773D01*
X007899Y001923D01*
X007899Y003073D01*
X007499Y003073D02*
X006549Y003073D01*
X003499Y003073D01*
X003749Y003073D01*
X003749Y002823D01*
X004249Y002823D01*
X004249Y003073D01*
X004749Y003073D01*
X004749Y002823D01*
X005249Y002823D01*
X005249Y003073D01*
X005749Y003073D01*
X007249Y003073D01*
X007249Y002823D01*
X006749Y002823D01*
X006749Y003073D01*
X006249Y003073D01*
X006249Y002823D01*
X005749Y002823D01*
X005749Y003073D01*
X007249Y003073D02*
X007399Y003073D01*
X007499Y003073D02*
X007499Y001923D01*
X007499Y000773D01*
X006999Y000773D01*
X006999Y001173D01*
X006899Y001173D01*
X006899Y000773D01*
X006999Y000773D02*
X006499Y000773D01*
X003499Y000773D01*
X003499Y001923D01*
X003499Y003073D01*
X003999Y001173D02*
X003999Y000773D01*
X004099Y000773D02*
X004099Y001173D01*
X003999Y001173D01*
X004099Y001173D02*
X006899Y001173D01*
X008399Y001173D02*
X008399Y000773D01*
X008499Y000773D02*
X008499Y001173D01*
X008399Y001173D01*
X008499Y001173D02*
X011299Y001173D01*
X008799Y017173D02*
X008299Y017173D01*
X008299Y017573D01*
X008199Y017573D01*
X008199Y017173D01*
X008299Y017173D02*
X007799Y017173D01*
X006799Y017173D01*
X006799Y018323D01*
X006799Y019473D01*
X007049Y019473D01*
X007049Y019223D01*
X007549Y019223D01*
X007549Y019473D01*
X008049Y019473D01*
X008049Y019223D01*
X008549Y019223D01*
X008549Y019473D01*
X008799Y019473D01*
X007799Y019473D01*
X007549Y019473D02*
X007049Y019473D01*
X008799Y019473D02*
X008799Y018323D01*
X008799Y017173D01*
X008199Y017573D02*
X007399Y017573D01*
X007399Y017173D01*
X007299Y017173D02*
X007299Y017573D01*
X007399Y017573D01*
D1877*
X006648Y004523D03*
M02*
