G75*
G70*
%OFA0B0*%
%FSLAX24Y24*%
%IPPOS*%
%LPD*%
%AMOC8*
5,1,8,0,0,1.08239X$1,22.5*
%
%ADD10C,0.0860*%
%ADD11OC8,0.0520*%
%ADD12C,0.0600*%
%ADD13C,0.0320*%
%ADD14C,0.0100*%
D10*
X004668Y005654D03*
X004668Y006638D03*
X004668Y008607D03*
X004668Y009591D03*
X004668Y011154D03*
X004668Y012138D03*
X004668Y014107D03*
X004668Y015091D03*
X002699Y013123D03*
X002699Y007623D03*
D11*
X010799Y019173D03*
X011799Y019173D03*
D12*
X008299Y018623D02*
X008299Y018023D01*
X007299Y018023D02*
X007299Y018623D01*
X006999Y002223D02*
X006999Y001623D01*
X005999Y001623D02*
X005999Y002223D01*
X004999Y002223D02*
X004999Y001623D01*
X003999Y001623D02*
X003999Y002223D01*
X008399Y002223D02*
X008399Y001623D01*
X009399Y001623D02*
X009399Y002223D01*
X010399Y002223D02*
X010399Y001623D01*
X011399Y001623D02*
X011399Y002223D01*
D13*
X011899Y005423D03*
X010599Y007223D03*
X009799Y006923D03*
X009099Y006923D03*
X007499Y005123D03*
X006399Y007323D03*
X010199Y011023D03*
X008299Y011523D03*
X005999Y013523D03*
X005399Y013523D03*
X001799Y016323D03*
X012499Y012323D03*
X014499Y013123D03*
X014699Y012223D03*
X016999Y011823D03*
X014399Y008923D03*
X014999Y007723D03*
X012799Y009023D03*
X018399Y004723D03*
X018999Y005623D03*
X015899Y016623D03*
X016699Y018423D03*
D14*
X001369Y005427D02*
X001369Y001865D01*
X001468Y002036D01*
X001468Y002036D01*
X001468Y002036D01*
X001722Y002249D01*
X001722Y002249D01*
X002033Y002363D01*
X002365Y002363D01*
X002676Y002249D01*
X002676Y002249D01*
X002930Y002036D01*
X002930Y002036D01*
X003096Y001749D01*
X003096Y001749D01*
X003154Y001423D01*
X003154Y001423D01*
X003096Y001096D01*
X003096Y001096D01*
X002930Y000809D01*
X002930Y000809D01*
X002676Y000596D01*
X002676Y000596D01*
X002667Y000593D01*
X019231Y000593D01*
X019222Y000596D01*
X019222Y000596D01*
X018968Y000809D01*
X018968Y000809D01*
X018802Y001096D01*
X018802Y001096D01*
X018745Y001423D01*
X018745Y001423D01*
X018802Y001749D01*
X018802Y001749D01*
X018968Y002036D01*
X018968Y002036D01*
X018968Y002036D01*
X019222Y002249D01*
X019222Y002249D01*
X019533Y002363D01*
X019786Y002363D01*
X019865Y002363D01*
X020176Y002249D01*
X020176Y002249D01*
X020430Y002036D01*
X020430Y002036D01*
X020529Y001865D01*
X020529Y018480D01*
X020430Y018309D01*
X020430Y018309D01*
X020176Y018096D01*
X020176Y018096D01*
X019865Y017983D01*
X019533Y017983D01*
X019222Y018096D01*
X019222Y018096D01*
X018968Y018309D01*
X018968Y018309D01*
X018802Y018596D01*
X018802Y018596D01*
X018745Y018923D01*
X018745Y018923D01*
X018802Y019249D01*
X018802Y019249D01*
X018968Y019536D01*
X018968Y019536D01*
X018968Y019536D01*
X019222Y019749D01*
X019222Y019749D01*
X019231Y019753D01*
X002667Y019753D01*
X002676Y019749D01*
X002676Y019749D01*
X002930Y019536D01*
X002930Y019536D01*
X003096Y019249D01*
X003096Y019249D01*
X003154Y018923D01*
X003154Y018923D01*
X003096Y018596D01*
X003096Y018596D01*
X002930Y018309D01*
X002930Y018309D01*
X002676Y018096D01*
X002676Y018096D01*
X002365Y017983D01*
X002033Y017983D01*
X001722Y018096D01*
X001722Y018096D01*
X001468Y018309D01*
X001468Y018309D01*
X001369Y018480D01*
X001369Y015318D01*
X001370Y015321D01*
X001485Y015436D01*
X001634Y015497D01*
X001796Y015497D01*
X001945Y015436D01*
X002059Y015321D01*
X002121Y015172D01*
X002121Y015010D01*
X002059Y014861D01*
X001945Y014747D01*
X001796Y014685D01*
X001634Y014685D01*
X001485Y014747D01*
X001370Y014861D01*
X001369Y014864D01*
X001369Y011381D01*
X001370Y011384D01*
X001485Y011499D01*
X001634Y011560D01*
X001796Y011560D01*
X001945Y011499D01*
X002059Y011384D01*
X002121Y011235D01*
X002121Y011073D01*
X002059Y010924D01*
X001945Y010810D01*
X001796Y010748D01*
X001634Y010748D01*
X001485Y010810D01*
X001370Y010924D01*
X001369Y010927D01*
X001369Y009818D01*
X001370Y009821D01*
X001485Y009936D01*
X001634Y009997D01*
X001796Y009997D01*
X001945Y009936D01*
X002059Y009821D01*
X002121Y009672D01*
X002121Y009510D01*
X002059Y009361D01*
X001945Y009247D01*
X001796Y009185D01*
X001634Y009185D01*
X001485Y009247D01*
X001370Y009361D01*
X001369Y009364D01*
X001369Y005881D01*
X001370Y005884D01*
X001485Y005999D01*
X001634Y006060D01*
X001796Y006060D01*
X001945Y005999D01*
X002059Y005884D01*
X002121Y005735D01*
X002121Y005573D01*
X002059Y005424D01*
X001945Y005310D01*
X001796Y005248D01*
X001634Y005248D01*
X001485Y005310D01*
X001370Y005424D01*
X001369Y005427D01*
X001369Y005348D02*
X001447Y005348D01*
X001369Y005249D02*
X001631Y005249D01*
X001799Y005249D02*
X002615Y005249D01*
X002618Y005248D02*
X002780Y005248D01*
X002929Y005310D01*
X003043Y005424D01*
X003105Y005573D01*
X003105Y005735D01*
X003043Y005884D01*
X002929Y005999D01*
X002780Y006060D01*
X002618Y006060D01*
X002469Y005999D01*
X002355Y005884D01*
X002293Y005735D01*
X002293Y005573D01*
X002355Y005424D01*
X002469Y005310D01*
X002618Y005248D01*
X002783Y005249D02*
X004252Y005249D01*
X004225Y005276D02*
X004290Y005212D01*
X004364Y005158D01*
X004445Y005117D01*
X004532Y005089D01*
X004618Y005075D01*
X004618Y005604D01*
X004718Y005604D01*
X004718Y005075D01*
X004803Y005089D01*
X004890Y005117D01*
X004972Y005158D01*
X005045Y005212D01*
X005110Y005276D01*
X005164Y005350D01*
X005179Y005381D01*
X005179Y002657D01*
X005093Y002693D01*
X004906Y002693D01*
X004733Y002621D01*
X004601Y002489D01*
X004529Y002316D01*
X004529Y001529D01*
X004601Y001357D01*
X004733Y001224D01*
X004906Y001153D01*
X005093Y001153D01*
X005265Y001224D01*
X005398Y001357D01*
X005469Y001529D01*
X005469Y002082D01*
X005529Y002142D01*
X005529Y001529D01*
X005601Y001357D01*
X005733Y001224D01*
X005906Y001153D01*
X006093Y001153D01*
X006265Y001224D01*
X006398Y001357D01*
X006469Y001529D01*
X006469Y002316D01*
X006398Y002489D01*
X006265Y002621D01*
X006219Y002640D01*
X006219Y013276D01*
X006279Y013336D01*
X006329Y013457D01*
X006329Y013588D01*
X006279Y013710D01*
X006186Y013803D01*
X006065Y013853D01*
X005933Y013853D01*
X005812Y013803D01*
X005719Y013710D01*
X005699Y013661D01*
X005679Y013710D01*
X005586Y013803D01*
X005465Y013853D01*
X005333Y013853D01*
X005212Y013803D01*
X005119Y013710D01*
X005069Y013588D01*
X005069Y013457D01*
X005119Y013336D01*
X005179Y013276D01*
X005179Y012471D01*
X005176Y012478D01*
X005007Y012647D01*
X004794Y012735D01*
X004898Y012778D01*
X005012Y012893D01*
X005074Y013042D01*
X005074Y013204D01*
X005012Y013353D01*
X004898Y013467D01*
X004794Y013510D01*
X005007Y013598D01*
X005176Y013767D01*
X005268Y013988D01*
X005268Y014226D01*
X005176Y014447D01*
X005024Y014599D01*
X005176Y014751D01*
X005268Y014972D01*
X005268Y015211D01*
X005176Y015431D01*
X005007Y015600D01*
X004787Y015691D01*
X004548Y015691D01*
X004328Y015600D01*
X004159Y015431D01*
X004068Y015211D01*
X004068Y014972D01*
X004159Y014751D01*
X004311Y014599D01*
X004159Y014447D01*
X004068Y014226D01*
X004068Y013988D01*
X004159Y013767D01*
X004328Y013598D01*
X004541Y013510D01*
X004437Y013467D01*
X004323Y013353D01*
X004261Y013204D01*
X004261Y013042D01*
X004323Y012893D01*
X004437Y012778D01*
X004541Y012735D01*
X004328Y012647D01*
X004159Y012478D01*
X004068Y012258D01*
X004068Y012019D01*
X004159Y011799D01*
X004328Y011630D01*
X004333Y011628D01*
X004290Y011597D01*
X004225Y011532D01*
X004171Y011458D01*
X004130Y011377D01*
X004102Y011290D01*
X004088Y011204D01*
X004618Y011204D01*
X004618Y011104D01*
X004718Y011104D01*
X004718Y010575D01*
X004803Y010589D01*
X004890Y010617D01*
X004972Y010658D01*
X005045Y010712D01*
X005110Y010776D01*
X005164Y010850D01*
X005179Y010881D01*
X005179Y009924D01*
X005176Y009931D01*
X005007Y010100D01*
X004787Y010191D01*
X004548Y010191D01*
X004328Y010100D01*
X004159Y009931D01*
X004068Y009711D01*
X004068Y009472D01*
X004159Y009251D01*
X004311Y009099D01*
X004159Y008947D01*
X004068Y008726D01*
X004068Y008488D01*
X004159Y008267D01*
X004328Y008098D01*
X004541Y008010D01*
X004437Y007967D01*
X004323Y007853D01*
X004261Y007704D01*
X004261Y007542D01*
X004323Y007393D01*
X004437Y007278D01*
X004541Y007235D01*
X004328Y007147D01*
X004159Y006978D01*
X004068Y006758D01*
X004068Y006519D01*
X004159Y006299D01*
X004328Y006130D01*
X004333Y006128D01*
X004290Y006097D01*
X004225Y006032D01*
X004171Y005958D01*
X004130Y005877D01*
X004102Y005790D01*
X004088Y005704D01*
X004618Y005704D01*
X004618Y005604D01*
X004088Y005604D01*
X004102Y005518D01*
X004130Y005432D01*
X004171Y005350D01*
X004225Y005276D01*
X004173Y005348D02*
X002967Y005348D01*
X003053Y005446D02*
X004125Y005446D01*
X004098Y005545D02*
X003093Y005545D01*
X003105Y005643D02*
X004618Y005643D01*
X004618Y005545D02*
X004718Y005545D01*
X004718Y005446D02*
X004618Y005446D01*
X004618Y005348D02*
X004718Y005348D01*
X004718Y005249D02*
X004618Y005249D01*
X004618Y005151D02*
X004718Y005151D01*
X004957Y005151D02*
X005179Y005151D01*
X005179Y005249D02*
X005083Y005249D01*
X005162Y005348D02*
X005179Y005348D01*
X005179Y005052D02*
X001369Y005052D01*
X001369Y004954D02*
X005179Y004954D01*
X005179Y004855D02*
X001369Y004855D01*
X001369Y004757D02*
X005179Y004757D01*
X005179Y004658D02*
X001369Y004658D01*
X001369Y004560D02*
X005179Y004560D01*
X005179Y004461D02*
X001369Y004461D01*
X001369Y004363D02*
X005179Y004363D01*
X005179Y004264D02*
X001369Y004264D01*
X001369Y004166D02*
X005179Y004166D01*
X005179Y004067D02*
X001369Y004067D01*
X001369Y003969D02*
X005179Y003969D01*
X005179Y003870D02*
X001369Y003870D01*
X001369Y003772D02*
X005179Y003772D01*
X005179Y003673D02*
X001369Y003673D01*
X001369Y003575D02*
X005179Y003575D01*
X005179Y003476D02*
X001369Y003476D01*
X001369Y003378D02*
X005179Y003378D01*
X005179Y003279D02*
X001369Y003279D01*
X001369Y003181D02*
X005179Y003181D01*
X005179Y003082D02*
X001369Y003082D01*
X001369Y002984D02*
X005179Y002984D01*
X005179Y002885D02*
X001369Y002885D01*
X001369Y002787D02*
X005179Y002787D01*
X005179Y002688D02*
X005103Y002688D01*
X004895Y002688D02*
X004103Y002688D01*
X004093Y002693D02*
X003906Y002693D01*
X003733Y002621D01*
X003601Y002489D01*
X003529Y002316D01*
X003529Y001529D01*
X003601Y001357D01*
X003733Y001224D01*
X003906Y001153D01*
X004093Y001153D01*
X004265Y001224D01*
X004398Y001357D01*
X004469Y001529D01*
X004469Y002316D01*
X004398Y002489D01*
X004265Y002621D01*
X004093Y002693D01*
X003895Y002688D02*
X001369Y002688D01*
X001369Y002590D02*
X003701Y002590D01*
X003603Y002491D02*
X001369Y002491D01*
X001369Y002393D02*
X003561Y002393D01*
X003529Y002294D02*
X002553Y002294D01*
X002740Y002196D02*
X003529Y002196D01*
X003529Y002097D02*
X002858Y002097D01*
X002952Y001999D02*
X003529Y001999D01*
X003529Y001900D02*
X003009Y001900D01*
X003066Y001802D02*
X003529Y001802D01*
X003529Y001703D02*
X003104Y001703D01*
X003121Y001605D02*
X003529Y001605D01*
X003539Y001506D02*
X003139Y001506D01*
X003151Y001408D02*
X003579Y001408D01*
X003648Y001309D02*
X003134Y001309D01*
X003116Y001211D02*
X003766Y001211D01*
X004233Y001211D02*
X004766Y001211D01*
X004648Y001309D02*
X004350Y001309D01*
X004419Y001408D02*
X004579Y001408D01*
X004539Y001506D02*
X004460Y001506D01*
X004469Y001605D02*
X004529Y001605D01*
X004529Y001703D02*
X004469Y001703D01*
X004469Y001802D02*
X004529Y001802D01*
X004529Y001900D02*
X004469Y001900D01*
X004469Y001999D02*
X004529Y001999D01*
X004529Y002097D02*
X004469Y002097D01*
X004469Y002196D02*
X004529Y002196D01*
X004529Y002294D02*
X004469Y002294D01*
X004437Y002393D02*
X004561Y002393D01*
X004603Y002491D02*
X004395Y002491D01*
X004297Y002590D02*
X004701Y002590D01*
X004999Y001923D02*
X005399Y002323D01*
X005399Y013523D01*
X005069Y013523D02*
X004826Y013523D01*
X004940Y013425D02*
X005082Y013425D01*
X005129Y013326D02*
X005023Y013326D01*
X005064Y013228D02*
X005179Y013228D01*
X005179Y013129D02*
X005074Y013129D01*
X005069Y013031D02*
X005179Y013031D01*
X005179Y012932D02*
X005028Y012932D01*
X004953Y012834D02*
X005179Y012834D01*
X005179Y012735D02*
X004795Y012735D01*
X005018Y012637D02*
X005179Y012637D01*
X005179Y012538D02*
X005116Y012538D01*
X004540Y012735D02*
X003160Y012735D01*
X003208Y012783D02*
X003039Y012614D01*
X002818Y012523D01*
X002580Y012523D01*
X002359Y012614D01*
X002190Y012783D01*
X002099Y013003D01*
X002099Y013242D01*
X002190Y013463D01*
X002359Y013631D01*
X002580Y013723D01*
X002818Y013723D01*
X003039Y013631D01*
X003208Y013463D01*
X003299Y013242D01*
X003299Y013003D01*
X003208Y012783D01*
X003229Y012834D02*
X004382Y012834D01*
X004307Y012932D02*
X003270Y012932D01*
X003299Y013031D02*
X004266Y013031D01*
X004261Y013129D02*
X003299Y013129D01*
X003299Y013228D02*
X004271Y013228D01*
X004312Y013326D02*
X003264Y013326D01*
X003223Y013425D02*
X004395Y013425D01*
X004509Y013523D02*
X003147Y013523D01*
X003049Y013622D02*
X004304Y013622D01*
X004206Y013720D02*
X002824Y013720D01*
X002574Y013720D02*
X001369Y013720D01*
X001369Y013622D02*
X002350Y013622D01*
X002251Y013523D02*
X001369Y013523D01*
X001369Y013425D02*
X002175Y013425D01*
X002134Y013326D02*
X001369Y013326D01*
X001369Y013228D02*
X002099Y013228D01*
X002099Y013129D02*
X001369Y013129D01*
X001369Y013031D02*
X002099Y013031D01*
X002129Y012932D02*
X001369Y012932D01*
X001369Y012834D02*
X002169Y012834D01*
X002238Y012735D02*
X001369Y012735D01*
X001369Y012637D02*
X002336Y012637D01*
X002542Y012538D02*
X001369Y012538D01*
X001369Y012440D02*
X004143Y012440D01*
X004102Y012341D02*
X001369Y012341D01*
X001369Y012243D02*
X004068Y012243D01*
X004068Y012144D02*
X001369Y012144D01*
X001369Y012046D02*
X004068Y012046D01*
X004097Y011947D02*
X001369Y011947D01*
X001369Y011849D02*
X004138Y011849D01*
X004207Y011750D02*
X001369Y011750D01*
X001369Y011652D02*
X004306Y011652D01*
X004246Y011553D02*
X002797Y011553D01*
X002780Y011560D02*
X002618Y011560D01*
X002469Y011499D01*
X002355Y011384D01*
X002293Y011235D01*
X002293Y011073D01*
X002355Y010924D01*
X002469Y010810D01*
X002618Y010748D01*
X002780Y010748D01*
X002929Y010810D01*
X003043Y010924D01*
X003105Y011073D01*
X003105Y011235D01*
X003043Y011384D01*
X002929Y011499D01*
X002780Y011560D01*
X002601Y011553D02*
X001813Y011553D01*
X001617Y011553D02*
X001369Y011553D01*
X001369Y011455D02*
X001441Y011455D01*
X001989Y011455D02*
X002425Y011455D01*
X002343Y011356D02*
X002071Y011356D01*
X002112Y011258D02*
X002302Y011258D01*
X002293Y011159D02*
X002121Y011159D01*
X002116Y011061D02*
X002298Y011061D01*
X002339Y010962D02*
X002075Y010962D01*
X001999Y010864D02*
X002415Y010864D01*
X002577Y010765D02*
X001837Y010765D01*
X001592Y010765D02*
X001369Y010765D01*
X001369Y010667D02*
X004352Y010667D01*
X004364Y010658D02*
X004445Y010617D01*
X004532Y010589D01*
X004618Y010575D01*
X004618Y011104D01*
X004088Y011104D01*
X004102Y011018D01*
X004130Y010932D01*
X004171Y010850D01*
X004225Y010776D01*
X004290Y010712D01*
X004364Y010658D01*
X004236Y010765D02*
X002822Y010765D01*
X002983Y010864D02*
X004165Y010864D01*
X004120Y010962D02*
X003059Y010962D01*
X003100Y011061D02*
X004095Y011061D01*
X004097Y011258D02*
X003096Y011258D01*
X003105Y011159D02*
X004618Y011159D01*
X004618Y011061D02*
X004718Y011061D01*
X004718Y010962D02*
X004618Y010962D01*
X004618Y010864D02*
X004718Y010864D01*
X004718Y010765D02*
X004618Y010765D01*
X004618Y010667D02*
X004718Y010667D01*
X004983Y010667D02*
X005179Y010667D01*
X005179Y010765D02*
X005099Y010765D01*
X005171Y010864D02*
X005179Y010864D01*
X005179Y010568D02*
X001369Y010568D01*
X001369Y010470D02*
X005179Y010470D01*
X005179Y010371D02*
X001369Y010371D01*
X001369Y010273D02*
X005179Y010273D01*
X005179Y010174D02*
X004828Y010174D01*
X005032Y010076D02*
X005179Y010076D01*
X005179Y009977D02*
X005130Y009977D01*
X004507Y010174D02*
X001369Y010174D01*
X001369Y010076D02*
X004304Y010076D01*
X004205Y009977D02*
X002829Y009977D01*
X002780Y009997D02*
X002618Y009997D01*
X002469Y009936D01*
X002355Y009821D01*
X002293Y009672D01*
X002293Y009510D01*
X002355Y009361D01*
X002469Y009247D01*
X002618Y009185D01*
X002780Y009185D01*
X002929Y009247D01*
X003043Y009361D01*
X003105Y009510D01*
X003105Y009672D01*
X003043Y009821D01*
X002929Y009936D01*
X002780Y009997D01*
X002569Y009977D02*
X001844Y009977D01*
X002002Y009879D02*
X002412Y009879D01*
X002338Y009780D02*
X002076Y009780D01*
X002117Y009682D02*
X002297Y009682D01*
X002293Y009583D02*
X002121Y009583D01*
X002110Y009485D02*
X002303Y009485D01*
X002344Y009386D02*
X002070Y009386D01*
X001986Y009288D02*
X002428Y009288D01*
X002608Y009189D02*
X001806Y009189D01*
X001624Y009189D02*
X001369Y009189D01*
X001369Y009091D02*
X004303Y009091D01*
X004221Y009189D02*
X002790Y009189D01*
X002970Y009288D02*
X004144Y009288D01*
X004103Y009386D02*
X003054Y009386D01*
X003095Y009485D02*
X004068Y009485D01*
X004068Y009583D02*
X003105Y009583D01*
X003101Y009682D02*
X004068Y009682D01*
X004096Y009780D02*
X003060Y009780D01*
X002986Y009879D02*
X004137Y009879D01*
X004204Y008992D02*
X001369Y008992D01*
X001369Y008894D02*
X004137Y008894D01*
X004096Y008795D02*
X001369Y008795D01*
X001369Y008697D02*
X004068Y008697D01*
X004068Y008598D02*
X001369Y008598D01*
X001369Y008500D02*
X004068Y008500D01*
X004103Y008401D02*
X001369Y008401D01*
X001369Y008303D02*
X004144Y008303D01*
X004222Y008204D02*
X002863Y008204D01*
X002818Y008223D02*
X002580Y008223D01*
X002359Y008131D01*
X002190Y007963D01*
X002099Y007742D01*
X002099Y007503D01*
X002190Y007283D01*
X002359Y007114D01*
X002580Y007023D01*
X002818Y007023D01*
X003039Y007114D01*
X003208Y007283D01*
X003299Y007503D01*
X003299Y007742D01*
X003208Y007963D01*
X003039Y008131D01*
X002818Y008223D01*
X003065Y008106D02*
X004320Y008106D01*
X004379Y007909D02*
X003230Y007909D01*
X003271Y007810D02*
X004306Y007810D01*
X004265Y007712D02*
X003299Y007712D01*
X003299Y007613D02*
X004261Y007613D01*
X004273Y007515D02*
X003299Y007515D01*
X003263Y007416D02*
X004313Y007416D01*
X004398Y007318D02*
X003222Y007318D01*
X003144Y007219D02*
X004502Y007219D01*
X004301Y007121D02*
X003046Y007121D01*
X002353Y007121D02*
X001369Y007121D01*
X001369Y007219D02*
X002254Y007219D01*
X002176Y007318D02*
X001369Y007318D01*
X001369Y007416D02*
X002135Y007416D01*
X002099Y007515D02*
X001369Y007515D01*
X001369Y007613D02*
X002099Y007613D01*
X002099Y007712D02*
X001369Y007712D01*
X001369Y007810D02*
X002127Y007810D01*
X002168Y007909D02*
X001369Y007909D01*
X001369Y008007D02*
X002235Y008007D01*
X002334Y008106D02*
X001369Y008106D01*
X001369Y008204D02*
X002535Y008204D01*
X003163Y008007D02*
X004534Y008007D01*
X004203Y007022D02*
X001369Y007022D01*
X001369Y006924D02*
X004136Y006924D01*
X004095Y006825D02*
X001369Y006825D01*
X001369Y006727D02*
X004068Y006727D01*
X004068Y006628D02*
X001369Y006628D01*
X001369Y006530D02*
X004068Y006530D01*
X004104Y006431D02*
X001369Y006431D01*
X001369Y006333D02*
X004145Y006333D01*
X004223Y006234D02*
X001369Y006234D01*
X001369Y006136D02*
X004322Y006136D01*
X004230Y006037D02*
X002836Y006037D01*
X002989Y005939D02*
X004162Y005939D01*
X004118Y005840D02*
X003062Y005840D01*
X003102Y005742D02*
X004094Y005742D01*
X004378Y005151D02*
X001369Y005151D01*
X001983Y005348D02*
X002431Y005348D01*
X002346Y005446D02*
X002068Y005446D01*
X002109Y005545D02*
X002305Y005545D01*
X002293Y005643D02*
X002121Y005643D01*
X002118Y005742D02*
X002296Y005742D01*
X002336Y005840D02*
X002077Y005840D01*
X002005Y005939D02*
X002409Y005939D01*
X002562Y006037D02*
X001852Y006037D01*
X001578Y006037D02*
X001369Y006037D01*
X001369Y005939D02*
X001425Y005939D01*
X001369Y009288D02*
X001444Y009288D01*
X001428Y009879D02*
X001369Y009879D01*
X001369Y009977D02*
X001585Y009977D01*
X001431Y010864D02*
X001369Y010864D01*
X002973Y011455D02*
X004170Y011455D01*
X004123Y011356D02*
X003055Y011356D01*
X002856Y012538D02*
X004219Y012538D01*
X004317Y012637D02*
X003062Y012637D01*
X004138Y013819D02*
X001369Y013819D01*
X001369Y013917D02*
X004097Y013917D01*
X004068Y014016D02*
X001369Y014016D01*
X001369Y014114D02*
X004068Y014114D01*
X004068Y014213D02*
X001369Y014213D01*
X001369Y014311D02*
X004103Y014311D01*
X004144Y014410D02*
X001369Y014410D01*
X001369Y014508D02*
X004220Y014508D01*
X004303Y014607D02*
X001369Y014607D01*
X001369Y014705D02*
X001585Y014705D01*
X001428Y014804D02*
X001369Y014804D01*
X001844Y014705D02*
X002569Y014705D01*
X002618Y014685D02*
X002780Y014685D01*
X002929Y014747D01*
X003043Y014861D01*
X003105Y015010D01*
X003105Y015172D01*
X003043Y015321D01*
X002929Y015436D01*
X002780Y015497D01*
X002618Y015497D01*
X002469Y015436D01*
X002355Y015321D01*
X002293Y015172D01*
X002293Y015010D01*
X002355Y014861D01*
X002469Y014747D01*
X002618Y014685D01*
X002829Y014705D02*
X004205Y014705D01*
X004137Y014804D02*
X002986Y014804D01*
X003060Y014902D02*
X004096Y014902D01*
X004068Y015001D02*
X003101Y015001D01*
X003105Y015099D02*
X004068Y015099D01*
X004068Y015198D02*
X003095Y015198D01*
X003054Y015296D02*
X004103Y015296D01*
X004144Y015395D02*
X002970Y015395D01*
X002790Y015493D02*
X004221Y015493D01*
X004320Y015592D02*
X001369Y015592D01*
X001369Y015690D02*
X004546Y015690D01*
X004789Y015690D02*
X020529Y015690D01*
X020529Y015592D02*
X005016Y015592D01*
X005114Y015493D02*
X020529Y015493D01*
X020529Y015395D02*
X005191Y015395D01*
X005232Y015296D02*
X020529Y015296D01*
X020529Y015198D02*
X005268Y015198D01*
X005268Y015099D02*
X020529Y015099D01*
X020529Y015001D02*
X005268Y015001D01*
X005239Y014902D02*
X020529Y014902D01*
X020529Y014804D02*
X005198Y014804D01*
X005130Y014705D02*
X020529Y014705D01*
X020529Y014607D02*
X005032Y014607D01*
X005115Y014508D02*
X020529Y014508D01*
X020529Y014410D02*
X005192Y014410D01*
X005232Y014311D02*
X020529Y014311D01*
X020529Y014213D02*
X005268Y014213D01*
X005268Y014114D02*
X020529Y014114D01*
X020529Y014016D02*
X005268Y014016D01*
X005238Y013917D02*
X020529Y013917D01*
X020529Y013819D02*
X006147Y013819D01*
X006268Y013720D02*
X020529Y013720D01*
X020529Y013622D02*
X006315Y013622D01*
X006329Y013523D02*
X020529Y013523D01*
X020529Y013425D02*
X006316Y013425D01*
X006269Y013326D02*
X020529Y013326D01*
X020529Y013228D02*
X006219Y013228D01*
X006219Y013129D02*
X020529Y013129D01*
X020529Y013031D02*
X006219Y013031D01*
X006219Y012932D02*
X020529Y012932D01*
X020529Y012834D02*
X006219Y012834D01*
X006219Y012735D02*
X020529Y012735D01*
X020529Y012637D02*
X006219Y012637D01*
X006219Y012538D02*
X020529Y012538D01*
X020529Y012440D02*
X006219Y012440D01*
X006219Y012341D02*
X020529Y012341D01*
X020529Y012243D02*
X006219Y012243D01*
X006219Y012144D02*
X020529Y012144D01*
X020529Y012046D02*
X006219Y012046D01*
X006219Y011947D02*
X020529Y011947D01*
X020529Y011849D02*
X006219Y011849D01*
X006219Y011750D02*
X020529Y011750D01*
X020529Y011652D02*
X006219Y011652D01*
X006219Y011553D02*
X020529Y011553D01*
X020529Y011455D02*
X006219Y011455D01*
X006219Y011356D02*
X020529Y011356D01*
X020529Y011258D02*
X006219Y011258D01*
X006219Y011159D02*
X020529Y011159D01*
X020529Y011061D02*
X006219Y011061D01*
X006219Y010962D02*
X020529Y010962D01*
X020529Y010864D02*
X006219Y010864D01*
X006219Y010765D02*
X020529Y010765D01*
X020529Y010667D02*
X006219Y010667D01*
X006219Y010568D02*
X020529Y010568D01*
X020529Y010470D02*
X006219Y010470D01*
X006219Y010371D02*
X020529Y010371D01*
X020529Y010273D02*
X006219Y010273D01*
X006219Y010174D02*
X020529Y010174D01*
X020529Y010076D02*
X006219Y010076D01*
X006219Y009977D02*
X020529Y009977D01*
X020529Y009879D02*
X006219Y009879D01*
X006219Y009780D02*
X020529Y009780D01*
X020529Y009682D02*
X006219Y009682D01*
X006219Y009583D02*
X020529Y009583D01*
X020529Y009485D02*
X006219Y009485D01*
X006219Y009386D02*
X020529Y009386D01*
X020529Y009288D02*
X006219Y009288D01*
X006219Y009189D02*
X020529Y009189D01*
X020529Y009091D02*
X006219Y009091D01*
X006219Y008992D02*
X020529Y008992D01*
X020529Y008894D02*
X006219Y008894D01*
X006219Y008795D02*
X020529Y008795D01*
X020529Y008697D02*
X006219Y008697D01*
X006219Y008598D02*
X020529Y008598D01*
X020529Y008500D02*
X006219Y008500D01*
X006219Y008401D02*
X020529Y008401D01*
X020529Y008303D02*
X006219Y008303D01*
X006219Y008204D02*
X020529Y008204D01*
X020529Y008106D02*
X006219Y008106D01*
X006219Y008007D02*
X020529Y008007D01*
X020529Y007909D02*
X006219Y007909D01*
X006219Y007810D02*
X020529Y007810D01*
X020529Y007712D02*
X006219Y007712D01*
X006219Y007613D02*
X020529Y007613D01*
X020529Y007515D02*
X010756Y007515D01*
X010786Y007503D02*
X010665Y007553D01*
X010533Y007553D01*
X010412Y007503D01*
X010352Y007443D01*
X010308Y007443D01*
X010208Y007343D01*
X010079Y007214D01*
X010079Y006132D01*
X010208Y006003D01*
X011008Y006003D01*
X011569Y005442D01*
X011569Y005357D01*
X011619Y005236D01*
X011712Y005143D01*
X011833Y005093D01*
X011965Y005093D01*
X012086Y005143D01*
X012179Y005236D01*
X012229Y005357D01*
X012229Y005488D01*
X012179Y005610D01*
X012086Y005703D01*
X011965Y005753D01*
X011880Y005753D01*
X011190Y006443D01*
X010519Y006443D01*
X010519Y006899D01*
X010533Y006893D01*
X010665Y006893D01*
X010786Y006943D01*
X010879Y007036D01*
X010929Y007157D01*
X010929Y007288D01*
X010879Y007410D01*
X010786Y007503D01*
X010872Y007416D02*
X020529Y007416D01*
X020529Y007318D02*
X010917Y007318D01*
X010929Y007219D02*
X020529Y007219D01*
X020529Y007121D02*
X010914Y007121D01*
X010865Y007022D02*
X020529Y007022D01*
X020529Y006924D02*
X010740Y006924D01*
X010519Y006825D02*
X020529Y006825D01*
X020529Y006727D02*
X010519Y006727D01*
X010519Y006628D02*
X020529Y006628D01*
X020529Y006530D02*
X010519Y006530D01*
X010299Y006223D02*
X011099Y006223D01*
X011899Y005423D01*
X012206Y005545D02*
X020529Y005545D01*
X020529Y005643D02*
X012145Y005643D01*
X011991Y005742D02*
X020529Y005742D01*
X020529Y005840D02*
X011793Y005840D01*
X011694Y005939D02*
X020529Y005939D01*
X020529Y006037D02*
X011596Y006037D01*
X011497Y006136D02*
X020529Y006136D01*
X020529Y006234D02*
X011399Y006234D01*
X011300Y006333D02*
X020529Y006333D01*
X020529Y006431D02*
X011202Y006431D01*
X011072Y005939D02*
X008619Y005939D01*
X008619Y006037D02*
X010173Y006037D01*
X010079Y006136D02*
X008623Y006136D01*
X008619Y006132D02*
X009080Y006593D01*
X009165Y006593D01*
X009286Y006643D01*
X009379Y006736D01*
X009429Y006857D01*
X009429Y006988D01*
X009379Y007110D01*
X009286Y007203D01*
X009165Y007253D01*
X009033Y007253D01*
X008912Y007203D01*
X008819Y007110D01*
X008769Y006988D01*
X008769Y006904D01*
X008179Y006314D01*
X008179Y002640D01*
X008133Y002621D01*
X008001Y002489D01*
X007929Y002316D01*
X007929Y001529D01*
X008001Y001357D01*
X008133Y001224D01*
X008306Y001153D01*
X008493Y001153D01*
X008665Y001224D01*
X008798Y001357D01*
X008869Y001529D01*
X008869Y002082D01*
X008929Y002142D01*
X008929Y001529D01*
X009001Y001357D01*
X009133Y001224D01*
X009306Y001153D01*
X009493Y001153D01*
X009665Y001224D01*
X009798Y001357D01*
X009869Y001529D01*
X009869Y002316D01*
X009798Y002489D01*
X009784Y002503D01*
X010014Y002503D01*
X010001Y002489D01*
X009929Y002316D01*
X009929Y001529D01*
X010001Y001357D01*
X010133Y001224D01*
X010306Y001153D01*
X010493Y001153D01*
X010665Y001224D01*
X010798Y001357D01*
X010869Y001529D01*
X010869Y002316D01*
X010798Y002489D01*
X010784Y002503D01*
X011046Y002503D01*
X011014Y002459D01*
X010982Y002395D01*
X010960Y002328D01*
X010949Y002258D01*
X010949Y001973D01*
X011349Y001973D01*
X011349Y001873D01*
X010949Y001873D01*
X010949Y001587D01*
X010960Y001517D01*
X010982Y001450D01*
X011014Y001387D01*
X011056Y001330D01*
X011106Y001280D01*
X011163Y001238D01*
X011226Y001206D01*
X011294Y001184D01*
X011349Y001175D01*
X011349Y001873D01*
X011449Y001873D01*
X011449Y001973D01*
X011849Y001973D01*
X011849Y002258D01*
X011838Y002328D01*
X011816Y002395D01*
X011784Y002459D01*
X011752Y002503D01*
X012090Y002503D01*
X012219Y002632D01*
X014090Y004503D01*
X018152Y004503D01*
X018212Y004443D01*
X018333Y004393D01*
X018465Y004393D01*
X018586Y004443D01*
X018679Y004536D01*
X018729Y004657D01*
X018729Y004788D01*
X018679Y004910D01*
X018586Y005003D01*
X018465Y005053D01*
X018333Y005053D01*
X018212Y005003D01*
X018152Y004943D01*
X013908Y004943D01*
X011908Y002943D01*
X009108Y002943D01*
X008726Y002561D01*
X008665Y002621D01*
X008619Y002640D01*
X008619Y006132D01*
X008722Y006234D02*
X010079Y006234D01*
X010079Y006333D02*
X008820Y006333D01*
X008919Y006431D02*
X010079Y006431D01*
X010079Y006530D02*
X009017Y006530D01*
X009250Y006628D02*
X010079Y006628D01*
X010079Y006727D02*
X009370Y006727D01*
X009416Y006825D02*
X010079Y006825D01*
X010079Y006924D02*
X009429Y006924D01*
X009415Y007022D02*
X010079Y007022D01*
X009999Y007023D02*
X009899Y006923D01*
X009799Y006923D01*
X010079Y007121D02*
X009368Y007121D01*
X009246Y007219D02*
X010084Y007219D01*
X010183Y007318D02*
X006219Y007318D01*
X006219Y007416D02*
X010281Y007416D01*
X010442Y007515D02*
X006219Y007515D01*
X006399Y007323D02*
X006299Y007223D01*
X006219Y007219D02*
X008953Y007219D01*
X008830Y007121D02*
X006219Y007121D01*
X006219Y007022D02*
X008783Y007022D01*
X008769Y006924D02*
X006219Y006924D01*
X006219Y006825D02*
X008690Y006825D01*
X008592Y006727D02*
X006219Y006727D01*
X006219Y006628D02*
X008493Y006628D01*
X008395Y006530D02*
X006219Y006530D01*
X006219Y006431D02*
X008296Y006431D01*
X008198Y006333D02*
X006219Y006333D01*
X006219Y006234D02*
X008179Y006234D01*
X008179Y006136D02*
X006219Y006136D01*
X006219Y006037D02*
X008179Y006037D01*
X008179Y005939D02*
X006219Y005939D01*
X006219Y005840D02*
X008179Y005840D01*
X008179Y005742D02*
X006219Y005742D01*
X006219Y005643D02*
X008179Y005643D01*
X008179Y005545D02*
X006219Y005545D01*
X006219Y005446D02*
X008179Y005446D01*
X008179Y005348D02*
X006219Y005348D01*
X006219Y005249D02*
X008179Y005249D01*
X008179Y005151D02*
X006219Y005151D01*
X006219Y005052D02*
X008179Y005052D01*
X008179Y004954D02*
X006219Y004954D01*
X006219Y004855D02*
X008179Y004855D01*
X008179Y004757D02*
X006219Y004757D01*
X006219Y004658D02*
X008179Y004658D01*
X008179Y004560D02*
X006219Y004560D01*
X006219Y004461D02*
X008179Y004461D01*
X008179Y004363D02*
X006219Y004363D01*
X006219Y004264D02*
X008179Y004264D01*
X008179Y004166D02*
X006219Y004166D01*
X006219Y004067D02*
X008179Y004067D01*
X008179Y003969D02*
X006219Y003969D01*
X006219Y003870D02*
X008179Y003870D01*
X008179Y003772D02*
X006219Y003772D01*
X006219Y003673D02*
X008179Y003673D01*
X008179Y003575D02*
X006219Y003575D01*
X006219Y003476D02*
X008179Y003476D01*
X008179Y003378D02*
X006219Y003378D01*
X006219Y003279D02*
X008179Y003279D01*
X008179Y003181D02*
X006219Y003181D01*
X006219Y003082D02*
X008179Y003082D01*
X008179Y002984D02*
X006219Y002984D01*
X006219Y002885D02*
X008179Y002885D01*
X008179Y002787D02*
X006219Y002787D01*
X006219Y002688D02*
X008179Y002688D01*
X008101Y002590D02*
X007259Y002590D01*
X007235Y002608D02*
X007172Y002640D01*
X007104Y002662D01*
X007049Y002670D01*
X007049Y001973D01*
X006949Y001973D01*
X006949Y002670D01*
X006894Y002662D01*
X006826Y002640D01*
X006763Y002608D01*
X006706Y002566D01*
X006656Y002516D01*
X006614Y002459D01*
X006582Y002395D01*
X006560Y002328D01*
X006549Y002258D01*
X006549Y001973D01*
X006949Y001973D01*
X006949Y001873D01*
X006549Y001873D01*
X006549Y001587D01*
X006560Y001517D01*
X006582Y001450D01*
X006614Y001387D01*
X006656Y001330D01*
X006706Y001280D01*
X006763Y001238D01*
X006826Y001206D01*
X006894Y001184D01*
X006949Y001175D01*
X006949Y001873D01*
X007049Y001873D01*
X007049Y001973D01*
X007449Y001973D01*
X007449Y002258D01*
X007438Y002328D01*
X007416Y002395D01*
X007384Y002459D01*
X007342Y002516D01*
X007292Y002566D01*
X007235Y002608D01*
X007360Y002491D02*
X008003Y002491D01*
X007961Y002393D02*
X007417Y002393D01*
X007443Y002294D02*
X007929Y002294D01*
X007929Y002196D02*
X007449Y002196D01*
X007449Y002097D02*
X007929Y002097D01*
X007929Y001999D02*
X007449Y001999D01*
X007449Y001873D02*
X007049Y001873D01*
X007049Y001175D01*
X007104Y001184D01*
X007172Y001206D01*
X007235Y001238D01*
X007292Y001280D01*
X007342Y001330D01*
X007384Y001387D01*
X007416Y001450D01*
X007438Y001517D01*
X007449Y001587D01*
X007449Y001873D01*
X007449Y001802D02*
X007929Y001802D01*
X007929Y001900D02*
X007049Y001900D01*
X007049Y001802D02*
X006949Y001802D01*
X006949Y001900D02*
X006469Y001900D01*
X006469Y001802D02*
X006549Y001802D01*
X006549Y001703D02*
X006469Y001703D01*
X006469Y001605D02*
X006549Y001605D01*
X006564Y001506D02*
X006460Y001506D01*
X006419Y001408D02*
X006604Y001408D01*
X006676Y001309D02*
X006350Y001309D01*
X006233Y001211D02*
X006816Y001211D01*
X006949Y001211D02*
X007049Y001211D01*
X007049Y001309D02*
X006949Y001309D01*
X006949Y001408D02*
X007049Y001408D01*
X007049Y001506D02*
X006949Y001506D01*
X006949Y001605D02*
X007049Y001605D01*
X007049Y001703D02*
X006949Y001703D01*
X006949Y001999D02*
X007049Y001999D01*
X007049Y002097D02*
X006949Y002097D01*
X006949Y002196D02*
X007049Y002196D01*
X007049Y002294D02*
X006949Y002294D01*
X006949Y002393D02*
X007049Y002393D01*
X007049Y002491D02*
X006949Y002491D01*
X006949Y002590D02*
X007049Y002590D01*
X006739Y002590D02*
X006297Y002590D01*
X006395Y002491D02*
X006638Y002491D01*
X006581Y002393D02*
X006437Y002393D01*
X006469Y002294D02*
X006555Y002294D01*
X006549Y002196D02*
X006469Y002196D01*
X006469Y002097D02*
X006549Y002097D01*
X006549Y001999D02*
X006469Y001999D01*
X005999Y001923D02*
X005999Y013523D01*
X005851Y013819D02*
X005547Y013819D01*
X005668Y013720D02*
X005730Y013720D01*
X005251Y013819D02*
X005198Y013819D01*
X005129Y013720D02*
X005130Y013720D01*
X005083Y013622D02*
X005031Y013622D01*
X002608Y015493D02*
X001806Y015493D01*
X001624Y015493D02*
X001369Y015493D01*
X001369Y015395D02*
X001444Y015395D01*
X001369Y015789D02*
X020529Y015789D01*
X020529Y015887D02*
X001369Y015887D01*
X001369Y015986D02*
X020529Y015986D01*
X020529Y016084D02*
X001369Y016084D01*
X001369Y016183D02*
X020529Y016183D01*
X020529Y016281D02*
X001369Y016281D01*
X001369Y016380D02*
X020529Y016380D01*
X020529Y016478D02*
X001369Y016478D01*
X001369Y016577D02*
X020529Y016577D01*
X020529Y016675D02*
X001369Y016675D01*
X001369Y016774D02*
X020529Y016774D01*
X020529Y016872D02*
X001369Y016872D01*
X001369Y016971D02*
X020529Y016971D01*
X020529Y017069D02*
X001369Y017069D01*
X001369Y017168D02*
X020529Y017168D01*
X020529Y017266D02*
X001369Y017266D01*
X001369Y017365D02*
X020529Y017365D01*
X020529Y017463D02*
X001369Y017463D01*
X001369Y017562D02*
X007184Y017562D01*
X007206Y017553D02*
X007393Y017553D01*
X007565Y017624D01*
X007698Y017757D01*
X007769Y017929D01*
X007769Y018716D01*
X007698Y018889D01*
X007565Y019021D01*
X007393Y019093D01*
X007206Y019093D01*
X007033Y019021D01*
X006901Y018889D01*
X006829Y018716D01*
X006829Y017929D01*
X006901Y017757D01*
X007033Y017624D01*
X007206Y017553D01*
X007414Y017562D02*
X020529Y017562D01*
X020529Y017660D02*
X008566Y017660D01*
X008592Y017680D02*
X008642Y017730D01*
X008684Y017787D01*
X008716Y017850D01*
X008738Y017917D01*
X008749Y017987D01*
X008749Y018273D01*
X008349Y018273D01*
X008349Y018373D01*
X008249Y018373D01*
X008249Y019070D01*
X008194Y019062D01*
X008126Y019040D01*
X008063Y019008D01*
X008006Y018966D01*
X007956Y018916D01*
X007914Y018859D01*
X007882Y018795D01*
X007860Y018728D01*
X007849Y018658D01*
X007849Y018373D01*
X008249Y018373D01*
X008249Y018273D01*
X007849Y018273D01*
X007849Y017987D01*
X007860Y017917D01*
X007882Y017850D01*
X007914Y017787D01*
X007956Y017730D01*
X008006Y017680D01*
X008063Y017638D01*
X008126Y017606D01*
X008194Y017584D01*
X008249Y017575D01*
X008249Y018273D01*
X008349Y018273D01*
X008349Y017575D01*
X008404Y017584D01*
X008472Y017606D01*
X008535Y017638D01*
X008592Y017680D01*
X008664Y017759D02*
X020529Y017759D01*
X020529Y017857D02*
X008718Y017857D01*
X008744Y017956D02*
X020529Y017956D01*
X020529Y018054D02*
X020061Y018054D01*
X020244Y018153D02*
X020529Y018153D01*
X020529Y018251D02*
X020361Y018251D01*
X020430Y018309D02*
X020430Y018309D01*
X020454Y018350D02*
X020529Y018350D01*
X020529Y018448D02*
X020511Y018448D01*
X019337Y018054D02*
X008749Y018054D01*
X008749Y018153D02*
X019154Y018153D01*
X019037Y018251D02*
X008749Y018251D01*
X008749Y018373D02*
X008749Y018658D01*
X008738Y018728D01*
X008716Y018795D01*
X008684Y018859D01*
X008642Y018916D01*
X008592Y018966D01*
X008535Y019008D01*
X008472Y019040D01*
X008404Y019062D01*
X008349Y019070D01*
X008349Y018373D01*
X008749Y018373D01*
X008749Y018448D02*
X018888Y018448D01*
X018944Y018350D02*
X008349Y018350D01*
X008349Y018448D02*
X008249Y018448D01*
X008249Y018350D02*
X007769Y018350D01*
X007769Y018448D02*
X007849Y018448D01*
X007849Y018547D02*
X007769Y018547D01*
X007769Y018645D02*
X007849Y018645D01*
X007865Y018744D02*
X007758Y018744D01*
X007717Y018842D02*
X007906Y018842D01*
X007981Y018941D02*
X007646Y018941D01*
X007522Y019039D02*
X008125Y019039D01*
X008249Y019039D02*
X008349Y019039D01*
X008349Y018941D02*
X008249Y018941D01*
X008249Y018842D02*
X008349Y018842D01*
X008349Y018744D02*
X008249Y018744D01*
X008249Y018645D02*
X008349Y018645D01*
X008349Y018547D02*
X008249Y018547D01*
X008249Y018251D02*
X008349Y018251D01*
X008349Y018153D02*
X008249Y018153D01*
X008249Y018054D02*
X008349Y018054D01*
X008349Y017956D02*
X008249Y017956D01*
X008249Y017857D02*
X008349Y017857D01*
X008349Y017759D02*
X008249Y017759D01*
X008249Y017660D02*
X008349Y017660D01*
X008032Y017660D02*
X007601Y017660D01*
X007698Y017759D02*
X007935Y017759D01*
X007880Y017857D02*
X007739Y017857D01*
X007769Y017956D02*
X007854Y017956D01*
X007849Y018054D02*
X007769Y018054D01*
X007769Y018153D02*
X007849Y018153D01*
X007849Y018251D02*
X007769Y018251D01*
X006997Y017660D02*
X001369Y017660D01*
X001369Y017759D02*
X006900Y017759D01*
X006859Y017857D02*
X001369Y017857D01*
X001369Y017956D02*
X006829Y017956D01*
X006829Y018054D02*
X002561Y018054D01*
X002744Y018153D02*
X006829Y018153D01*
X006829Y018251D02*
X002861Y018251D01*
X002930Y018309D02*
X002930Y018309D01*
X002954Y018350D02*
X006829Y018350D01*
X006829Y018448D02*
X003011Y018448D01*
X003067Y018547D02*
X006829Y018547D01*
X006829Y018645D02*
X003105Y018645D01*
X003122Y018744D02*
X006840Y018744D01*
X006881Y018842D02*
X003139Y018842D01*
X003150Y018941D02*
X006952Y018941D01*
X007077Y019039D02*
X003133Y019039D01*
X003116Y019138D02*
X010389Y019138D01*
X010389Y019143D02*
X010389Y019003D01*
X010629Y018763D01*
X010769Y018763D01*
X010769Y019143D01*
X010389Y019143D01*
X010389Y019203D02*
X010769Y019203D01*
X010769Y019583D01*
X010629Y019583D01*
X010389Y019343D01*
X010389Y019203D01*
X010389Y019236D02*
X003098Y019236D01*
X003047Y019335D02*
X010389Y019335D01*
X010480Y019433D02*
X002990Y019433D01*
X002933Y019532D02*
X010578Y019532D01*
X010769Y019532D02*
X010829Y019532D01*
X010829Y019583D02*
X010969Y019583D01*
X011209Y019343D01*
X011209Y019203D01*
X010829Y019203D01*
X010769Y019203D01*
X010769Y019143D01*
X010829Y019143D01*
X010829Y019203D01*
X010829Y019583D01*
X010829Y019433D02*
X010769Y019433D01*
X010769Y019335D02*
X010829Y019335D01*
X010829Y019236D02*
X010769Y019236D01*
X010769Y019138D02*
X010829Y019138D01*
X010829Y019143D02*
X010829Y018763D01*
X010969Y018763D01*
X011209Y019003D01*
X011209Y019143D01*
X010829Y019143D01*
X010829Y019039D02*
X010769Y019039D01*
X010769Y018941D02*
X010829Y018941D01*
X010829Y018842D02*
X010769Y018842D01*
X010550Y018842D02*
X008692Y018842D01*
X008733Y018744D02*
X011620Y018744D01*
X011621Y018743D02*
X011977Y018743D01*
X012229Y018995D01*
X012229Y019351D01*
X011977Y019603D01*
X011621Y019603D01*
X011369Y019351D01*
X011369Y018995D01*
X011621Y018743D01*
X011521Y018842D02*
X011048Y018842D01*
X011147Y018941D02*
X011423Y018941D01*
X011369Y019039D02*
X011209Y019039D01*
X011209Y019138D02*
X011369Y019138D01*
X011369Y019236D02*
X011209Y019236D01*
X011209Y019335D02*
X011369Y019335D01*
X011451Y019433D02*
X011118Y019433D01*
X011020Y019532D02*
X011550Y019532D01*
X012048Y019532D02*
X018965Y019532D01*
X018908Y019433D02*
X012147Y019433D01*
X012229Y019335D02*
X018852Y019335D01*
X018800Y019236D02*
X012229Y019236D01*
X012229Y019138D02*
X018782Y019138D01*
X018765Y019039D02*
X012229Y019039D01*
X012175Y018941D02*
X018748Y018941D01*
X018759Y018842D02*
X012077Y018842D01*
X011978Y018744D02*
X018776Y018744D01*
X018793Y018645D02*
X008749Y018645D01*
X008749Y018547D02*
X018831Y018547D01*
X019080Y019630D02*
X002818Y019630D01*
X002701Y019729D02*
X019197Y019729D01*
X016699Y018523D02*
X016699Y018423D01*
X015799Y016723D02*
X015899Y016623D01*
X014599Y013123D02*
X014499Y013123D01*
X014699Y012323D02*
X014699Y012223D01*
X012599Y012223D02*
X012499Y012323D01*
X010199Y011123D02*
X010199Y011023D01*
X008299Y011523D02*
X008299Y011623D01*
X010399Y007223D02*
X010299Y007123D01*
X010299Y006223D01*
X011170Y005840D02*
X008619Y005840D01*
X008619Y005742D02*
X011269Y005742D01*
X011367Y005643D02*
X008619Y005643D01*
X008619Y005545D02*
X011466Y005545D01*
X011564Y005446D02*
X008619Y005446D01*
X008619Y005348D02*
X011573Y005348D01*
X011614Y005249D02*
X008619Y005249D01*
X008619Y005151D02*
X011704Y005151D01*
X012094Y005151D02*
X020529Y005151D01*
X020529Y005249D02*
X012184Y005249D01*
X012225Y005348D02*
X020529Y005348D01*
X020529Y005446D02*
X012229Y005446D01*
X013328Y004363D02*
X008619Y004363D01*
X008619Y004461D02*
X013426Y004461D01*
X013525Y004560D02*
X008619Y004560D01*
X008619Y004658D02*
X013623Y004658D01*
X013722Y004757D02*
X008619Y004757D01*
X008619Y004855D02*
X013820Y004855D01*
X013999Y004723D02*
X011999Y002723D01*
X009199Y002723D01*
X008399Y001923D01*
X008399Y006223D01*
X009099Y006923D01*
X010399Y007223D02*
X010599Y007223D01*
X012699Y009023D02*
X012799Y009023D01*
X014399Y008923D02*
X014499Y008923D01*
X014899Y007723D02*
X014999Y007723D01*
X013999Y004723D02*
X018399Y004723D01*
X018163Y004954D02*
X008619Y004954D01*
X008619Y005052D02*
X018332Y005052D01*
X018466Y005052D02*
X020529Y005052D01*
X020529Y004954D02*
X018635Y004954D01*
X018701Y004855D02*
X020529Y004855D01*
X020529Y004757D02*
X018729Y004757D01*
X018729Y004658D02*
X020529Y004658D01*
X020529Y004560D02*
X018689Y004560D01*
X018604Y004461D02*
X020529Y004461D01*
X020529Y004363D02*
X013950Y004363D01*
X014049Y004461D02*
X018194Y004461D01*
X018999Y005523D02*
X018999Y005623D01*
X020529Y004264D02*
X013852Y004264D01*
X013753Y004166D02*
X020529Y004166D01*
X020529Y004067D02*
X013655Y004067D01*
X013556Y003969D02*
X020529Y003969D01*
X020529Y003870D02*
X013458Y003870D01*
X013359Y003772D02*
X020529Y003772D01*
X020529Y003673D02*
X013261Y003673D01*
X013162Y003575D02*
X020529Y003575D01*
X020529Y003476D02*
X013064Y003476D01*
X012965Y003378D02*
X020529Y003378D01*
X020529Y003279D02*
X012867Y003279D01*
X012768Y003181D02*
X020529Y003181D01*
X020529Y003082D02*
X012670Y003082D01*
X012571Y002984D02*
X020529Y002984D01*
X020529Y002885D02*
X012473Y002885D01*
X012374Y002787D02*
X020529Y002787D01*
X020529Y002688D02*
X012276Y002688D01*
X012177Y002590D02*
X020529Y002590D01*
X020529Y002491D02*
X011760Y002491D01*
X011817Y002393D02*
X020529Y002393D01*
X020529Y002294D02*
X020053Y002294D01*
X020240Y002196D02*
X020529Y002196D01*
X020529Y002097D02*
X020358Y002097D01*
X020452Y001999D02*
X020529Y001999D01*
X020529Y001900D02*
X020509Y001900D01*
X019345Y002294D02*
X011843Y002294D01*
X011849Y002196D02*
X019158Y002196D01*
X019041Y002097D02*
X011849Y002097D01*
X011849Y001999D02*
X018946Y001999D01*
X018889Y001900D02*
X011449Y001900D01*
X011449Y001873D02*
X011849Y001873D01*
X011849Y001587D01*
X011838Y001517D01*
X011816Y001450D01*
X011784Y001387D01*
X011742Y001330D01*
X011692Y001280D01*
X011635Y001238D01*
X011572Y001206D01*
X011504Y001184D01*
X011449Y001175D01*
X011449Y001873D01*
X011449Y001802D02*
X011349Y001802D01*
X011349Y001900D02*
X010869Y001900D01*
X010869Y001802D02*
X010949Y001802D01*
X010949Y001703D02*
X010869Y001703D01*
X010869Y001605D02*
X010949Y001605D01*
X010964Y001506D02*
X010860Y001506D01*
X010819Y001408D02*
X011004Y001408D01*
X011076Y001309D02*
X010750Y001309D01*
X010633Y001211D02*
X011216Y001211D01*
X011349Y001211D02*
X011449Y001211D01*
X011449Y001309D02*
X011349Y001309D01*
X011349Y001408D02*
X011449Y001408D01*
X011449Y001506D02*
X011349Y001506D01*
X011349Y001605D02*
X011449Y001605D01*
X011449Y001703D02*
X011349Y001703D01*
X010949Y001999D02*
X010869Y001999D01*
X010869Y002097D02*
X010949Y002097D01*
X010949Y002196D02*
X010869Y002196D01*
X010869Y002294D02*
X010955Y002294D01*
X010981Y002393D02*
X010837Y002393D01*
X010795Y002491D02*
X011038Y002491D01*
X011949Y002984D02*
X008619Y002984D01*
X008619Y003082D02*
X012047Y003082D01*
X012146Y003181D02*
X008619Y003181D01*
X008619Y003279D02*
X012244Y003279D01*
X012343Y003378D02*
X008619Y003378D01*
X008619Y003476D02*
X012441Y003476D01*
X012540Y003575D02*
X008619Y003575D01*
X008619Y003673D02*
X012638Y003673D01*
X012737Y003772D02*
X008619Y003772D01*
X008619Y003870D02*
X012835Y003870D01*
X012934Y003969D02*
X008619Y003969D01*
X008619Y004067D02*
X013032Y004067D01*
X013131Y004166D02*
X008619Y004166D01*
X008619Y004264D02*
X013229Y004264D01*
X011849Y001802D02*
X018832Y001802D01*
X018794Y001703D02*
X011849Y001703D01*
X011849Y001605D02*
X018777Y001605D01*
X018759Y001506D02*
X011834Y001506D01*
X011795Y001408D02*
X018747Y001408D01*
X018765Y001309D02*
X011722Y001309D01*
X011582Y001211D02*
X018782Y001211D01*
X018799Y001112D02*
X003099Y001112D01*
X003048Y001014D02*
X018850Y001014D01*
X018907Y000915D02*
X002991Y000915D01*
X002935Y000817D02*
X018964Y000817D01*
X019076Y000718D02*
X002822Y000718D01*
X002930Y000809D02*
X002930Y000809D01*
X002704Y000620D02*
X019194Y000620D01*
X010166Y001211D02*
X009633Y001211D01*
X009750Y001309D02*
X010048Y001309D01*
X009979Y001408D02*
X009819Y001408D01*
X009860Y001506D02*
X009939Y001506D01*
X009929Y001605D02*
X009869Y001605D01*
X009869Y001703D02*
X009929Y001703D01*
X009929Y001802D02*
X009869Y001802D01*
X009869Y001900D02*
X009929Y001900D01*
X009929Y001999D02*
X009869Y001999D01*
X009869Y002097D02*
X009929Y002097D01*
X009929Y002196D02*
X009869Y002196D01*
X009869Y002294D02*
X009929Y002294D01*
X009961Y002393D02*
X009837Y002393D01*
X009795Y002491D02*
X010003Y002491D01*
X009050Y002885D02*
X008619Y002885D01*
X008619Y002787D02*
X008952Y002787D01*
X008853Y002688D02*
X008619Y002688D01*
X008697Y002590D02*
X008755Y002590D01*
X008885Y002097D02*
X008929Y002097D01*
X008929Y001999D02*
X008869Y001999D01*
X008869Y001900D02*
X008929Y001900D01*
X008929Y001802D02*
X008869Y001802D01*
X008869Y001703D02*
X008929Y001703D01*
X008929Y001605D02*
X008869Y001605D01*
X008860Y001506D02*
X008939Y001506D01*
X008979Y001408D02*
X008819Y001408D01*
X008750Y001309D02*
X009048Y001309D01*
X009166Y001211D02*
X008633Y001211D01*
X008166Y001211D02*
X007182Y001211D01*
X007322Y001309D02*
X008048Y001309D01*
X007979Y001408D02*
X007395Y001408D01*
X007434Y001506D02*
X007939Y001506D01*
X007929Y001605D02*
X007449Y001605D01*
X007449Y001703D02*
X007929Y001703D01*
X005766Y001211D02*
X005233Y001211D01*
X005350Y001309D02*
X005648Y001309D01*
X005579Y001408D02*
X005419Y001408D01*
X005460Y001506D02*
X005539Y001506D01*
X005529Y001605D02*
X005469Y001605D01*
X005469Y001703D02*
X005529Y001703D01*
X005529Y001802D02*
X005469Y001802D01*
X005469Y001900D02*
X005529Y001900D01*
X005529Y001999D02*
X005469Y001999D01*
X005485Y002097D02*
X005529Y002097D01*
X007499Y005023D02*
X007499Y005123D01*
X001845Y002294D02*
X001369Y002294D01*
X001369Y002196D02*
X001658Y002196D01*
X001541Y002097D02*
X001369Y002097D01*
X001369Y001999D02*
X001446Y001999D01*
X001389Y001900D02*
X001369Y001900D01*
X002002Y014804D02*
X002412Y014804D01*
X002338Y014902D02*
X002076Y014902D01*
X002117Y015001D02*
X002297Y015001D01*
X002293Y015099D02*
X002121Y015099D01*
X002110Y015198D02*
X002303Y015198D01*
X002344Y015296D02*
X002070Y015296D01*
X001986Y015395D02*
X002428Y015395D01*
X001799Y016323D02*
X001799Y016423D01*
X001837Y018054D02*
X001369Y018054D01*
X001369Y018153D02*
X001654Y018153D01*
X001537Y018251D02*
X001369Y018251D01*
X001369Y018350D02*
X001444Y018350D01*
X001388Y018448D02*
X001369Y018448D01*
X008473Y019039D02*
X010389Y019039D01*
X010451Y018941D02*
X008617Y018941D01*
X016899Y011723D02*
X016999Y011823D01*
M02*
