G75*
G70*
%OFA0B0*%
%FSLAX24Y24*%
%IPPOS*%
%LPD*%
%AMOC8*
5,1,8,0,0,1.08239X$1,22.5*
%
%ADD10R,0.0591X0.0512*%
%ADD11R,0.0512X0.0591*%
%ADD12R,0.0787X0.0512*%
%ADD13R,0.0787X0.0709*%
%ADD14C,0.0860*%
%ADD15R,0.0866X0.0236*%
%ADD16OC8,0.0520*%
%ADD17R,0.0236X0.0866*%
%ADD18C,0.0600*%
%ADD19R,0.0315X0.0315*%
%ADD20R,0.0472X0.0236*%
%ADD21R,0.0394X0.0394*%
%ADD22C,0.0100*%
%ADD23C,0.0320*%
D10*
X007199Y005649D03*
X007999Y005649D03*
X007999Y006397D03*
X007199Y006397D03*
X008899Y006397D03*
X008899Y005649D03*
X009799Y005649D03*
X009799Y006397D03*
X010349Y007849D03*
X010349Y008597D03*
X009799Y009849D03*
X009799Y010597D03*
X008999Y010597D03*
X008999Y009849D03*
X007599Y010349D03*
X007599Y011097D03*
X006699Y011097D03*
X006699Y010349D03*
X009499Y017449D03*
X009499Y018197D03*
X010399Y018197D03*
X010399Y017449D03*
X011299Y017449D03*
X011299Y018197D03*
X012199Y018197D03*
X012199Y017449D03*
X013099Y017449D03*
X013099Y018197D03*
X013999Y018197D03*
X013999Y017449D03*
X018299Y017497D03*
X018299Y016749D03*
X019099Y016749D03*
X019099Y017497D03*
X017599Y011897D03*
X017599Y011149D03*
X017599Y009997D03*
X017599Y009249D03*
D11*
X018725Y010323D03*
X019473Y010323D03*
X019473Y011223D03*
X018725Y011223D03*
X018725Y012123D03*
X019473Y012123D03*
X019473Y013023D03*
X018725Y013023D03*
X018725Y013923D03*
X019473Y013923D03*
X016273Y009523D03*
X015525Y009523D03*
X015525Y008623D03*
X016273Y008623D03*
X016273Y007723D03*
X015525Y007723D03*
X014073Y009523D03*
X013325Y009523D03*
X011973Y008723D03*
X011225Y008723D03*
X011225Y007723D03*
X011973Y007723D03*
X009773Y011523D03*
X009025Y011523D03*
X011225Y011923D03*
X011973Y011923D03*
X011973Y012723D03*
X011225Y012723D03*
X011225Y013523D03*
X011973Y013523D03*
X013225Y013123D03*
X013973Y013123D03*
X014025Y019023D03*
X014773Y019023D03*
X015425Y019023D03*
X016173Y019023D03*
X016925Y019023D03*
X017673Y019023D03*
X018725Y007323D03*
X019473Y007323D03*
X019473Y006423D03*
X018725Y006423D03*
X019073Y003323D03*
X018325Y003323D03*
X005173Y016323D03*
X004425Y016323D03*
X003173Y016323D03*
X002425Y016323D03*
D12*
X010851Y010823D03*
X010851Y009823D03*
X010851Y006723D03*
X010851Y005723D03*
D13*
X012347Y006223D03*
X012347Y010323D03*
D14*
X004668Y009591D03*
X004668Y008607D03*
X004668Y006638D03*
X004668Y005654D03*
X002699Y007623D03*
X004668Y011154D03*
X004668Y012138D03*
X004668Y014107D03*
X004668Y015091D03*
X002699Y013123D03*
D15*
X007075Y013373D03*
X007075Y013873D03*
X007075Y012873D03*
X007075Y012373D03*
X009123Y012373D03*
X009123Y012873D03*
X009123Y013373D03*
X009123Y013873D03*
X009223Y008873D03*
X009223Y008373D03*
X009223Y007873D03*
X009223Y007373D03*
X007175Y007373D03*
X007175Y007873D03*
X007175Y008373D03*
X007175Y008873D03*
X015175Y016573D03*
X015175Y017073D03*
X015175Y017573D03*
X015175Y018073D03*
X017223Y018073D03*
X017223Y017573D03*
X017223Y017073D03*
X017223Y016573D03*
X017675Y005573D03*
X017675Y005073D03*
X017675Y004573D03*
X017675Y004073D03*
X019723Y004073D03*
X019723Y004573D03*
X019723Y005073D03*
X019723Y005573D03*
D16*
X011799Y019173D03*
X010799Y019173D03*
D17*
X015149Y012646D03*
X015649Y012646D03*
X016149Y012646D03*
X016649Y012646D03*
X016649Y010599D03*
X016149Y010599D03*
X015649Y010599D03*
X015149Y010599D03*
D18*
X008299Y018023D02*
X008299Y018623D01*
X007299Y018623D02*
X007299Y018023D01*
X006999Y002223D02*
X006999Y001623D01*
X005999Y001623D02*
X005999Y002223D01*
X004999Y002223D02*
X004999Y001623D01*
X003999Y001623D02*
X003999Y002223D01*
X008399Y002223D02*
X008399Y001623D01*
X009399Y001623D02*
X009399Y002223D01*
X010399Y002223D02*
X010399Y001623D01*
X011399Y001623D02*
X011399Y002223D01*
D19*
X006894Y004523D03*
X006304Y004523D03*
D20*
X013185Y007749D03*
X013185Y008123D03*
X013185Y008497D03*
X014213Y008497D03*
X014213Y007749D03*
X014113Y011449D03*
X014113Y012197D03*
X013085Y012197D03*
X013085Y011823D03*
X013085Y011449D03*
D21*
X013799Y010523D03*
D22*
X003499Y002823D02*
X003499Y001123D01*
X003799Y000823D01*
X009099Y000823D01*
X009399Y001123D01*
X009399Y001923D01*
X008399Y001923D02*
X008399Y001223D01*
X008199Y001023D01*
X004199Y001023D01*
X003999Y001223D01*
X003999Y001923D01*
X003499Y002823D02*
X003699Y003023D01*
X004599Y003023D01*
X005599Y004023D01*
X005599Y006723D01*
X005899Y007023D01*
X007599Y007023D01*
X007899Y007323D01*
X007899Y007923D01*
X007549Y008273D01*
X007549Y008373D01*
X007175Y008373D01*
X007199Y007923D02*
X007199Y007823D01*
X007175Y007846D01*
X007175Y007873D01*
X007175Y007846D02*
X007099Y007923D01*
X007199Y007823D02*
X006399Y007823D01*
X005799Y007223D01*
X004399Y007223D01*
X003999Y007623D01*
X002699Y007623D01*
X004668Y009591D02*
X006173Y011097D01*
X006699Y011097D01*
X007599Y011097D01*
X008099Y011323D02*
X008099Y010723D01*
X007725Y010349D01*
X007599Y010349D01*
X008399Y011023D02*
X008399Y008323D01*
X008599Y008123D01*
X009699Y008123D01*
X009899Y007923D01*
X009899Y007523D01*
X009799Y007423D01*
X009273Y007423D01*
X009223Y007373D01*
X009099Y007249D01*
X009099Y006923D01*
X009173Y007323D02*
X008699Y007323D01*
X007999Y006623D01*
X007999Y006397D01*
X007199Y006397D01*
X007699Y006823D02*
X008099Y007223D01*
X008099Y008023D01*
X007799Y008323D01*
X007799Y008723D01*
X007699Y008823D01*
X007225Y008823D01*
X007175Y008873D01*
X007999Y009123D02*
X007999Y008423D01*
X008599Y007823D01*
X009173Y007823D01*
X009223Y007873D01*
X009273Y008323D02*
X009223Y008373D01*
X009273Y008323D02*
X009799Y008323D01*
X010073Y008597D01*
X010349Y008597D01*
X010799Y009123D02*
X010799Y007423D01*
X010599Y007223D01*
X010849Y006773D02*
X010851Y006771D01*
X010851Y006723D01*
X010849Y006773D02*
X010799Y006723D01*
X010849Y006773D02*
X011225Y007149D01*
X011225Y007723D01*
X011225Y008723D01*
X011199Y008749D01*
X011199Y009023D01*
X011399Y009223D01*
X012199Y009223D01*
X013199Y010223D01*
X013199Y010723D01*
X013599Y011123D01*
X013599Y011623D01*
X013799Y011823D01*
X014599Y011823D01*
X015149Y011273D01*
X015149Y010599D01*
X015199Y010649D01*
X015199Y011323D01*
X015649Y011773D01*
X015649Y012646D01*
X015649Y015873D01*
X016349Y016573D01*
X015899Y017023D01*
X015225Y017023D01*
X015175Y017073D01*
X015125Y017523D02*
X015175Y017573D01*
X015125Y017523D02*
X013999Y017523D01*
X014025Y017449D01*
X013999Y017449D01*
X013099Y017449D01*
X012199Y017449D01*
X012199Y018197D02*
X011299Y018197D01*
X011299Y017449D02*
X010399Y017449D01*
X009499Y017449D01*
X009499Y018197D02*
X009473Y018223D01*
X009299Y018223D01*
X008499Y017423D01*
X007999Y017423D01*
X007299Y018123D01*
X007299Y018323D01*
X008299Y018323D02*
X008599Y018323D01*
X009099Y018823D01*
X010199Y018823D01*
X010399Y018623D01*
X010799Y019023D01*
X010799Y019173D01*
X010399Y018623D02*
X010399Y018197D01*
X011799Y019023D02*
X012199Y018623D01*
X012199Y018197D01*
X011799Y019023D02*
X011799Y019173D01*
X013099Y018197D02*
X013999Y018197D01*
X013999Y019097D01*
X014025Y019023D01*
X014773Y019023D02*
X015425Y019023D01*
X016173Y019023D02*
X016173Y017549D01*
X016599Y017123D01*
X017173Y017123D01*
X017223Y017073D01*
X017749Y017073D01*
X018099Y016723D01*
X018273Y016723D01*
X018299Y016749D01*
X019099Y016749D01*
X019799Y017223D02*
X019799Y015523D01*
X018699Y014423D01*
X018699Y013949D01*
X018725Y013923D01*
X017999Y013523D02*
X016399Y013523D01*
X016199Y013323D01*
X016199Y012696D01*
X016149Y012646D01*
X016649Y012646D02*
X016673Y012623D01*
X017999Y012623D01*
X018499Y012123D01*
X018725Y012123D01*
X018725Y011223D01*
X018725Y010323D01*
X018299Y009823D02*
X019299Y009823D01*
X019499Y010023D01*
X019499Y010323D01*
X019473Y010323D01*
X019473Y011223D02*
X019473Y012123D01*
X018725Y012871D01*
X018651Y012871D01*
X017999Y013523D01*
X018725Y013023D02*
X018725Y012871D01*
X019473Y013023D02*
X019499Y013023D01*
X019473Y013049D01*
X019473Y013923D01*
X017599Y011897D02*
X017073Y011897D01*
X016999Y011823D01*
X016399Y011223D02*
X016299Y011323D01*
X015799Y011323D01*
X015699Y011223D01*
X015699Y010649D01*
X015649Y010599D01*
X016099Y010549D02*
X016099Y010223D01*
X015525Y009649D01*
X015173Y009649D01*
X014299Y010523D01*
X013799Y010523D01*
X013799Y010823D01*
X014099Y011123D01*
X014099Y011435D01*
X014113Y011449D01*
X014113Y012197D02*
X014139Y012223D01*
X014699Y012223D01*
X015199Y012223D01*
X015199Y012596D01*
X015149Y012646D01*
X014499Y013123D02*
X013973Y013123D01*
X013299Y013197D02*
X013225Y013123D01*
X013299Y013049D01*
X013299Y012823D01*
X013199Y012923D01*
X013199Y013123D01*
X013299Y013223D01*
X013299Y013197D01*
X013299Y012823D02*
X013599Y012523D01*
X013599Y012123D01*
X013299Y011823D01*
X013085Y011823D01*
X012699Y011823D01*
X011599Y010723D01*
X011599Y009723D01*
X011199Y009323D01*
X010999Y009323D01*
X010799Y009123D01*
X010851Y009823D02*
X009825Y009823D01*
X009799Y009849D01*
X008999Y009849D01*
X008999Y010597D02*
X009773Y010597D01*
X010199Y011023D01*
X009773Y011297D02*
X009499Y011023D01*
X008399Y011023D01*
X008099Y011323D02*
X008299Y011523D01*
X009025Y011523D01*
X009773Y011523D02*
X009773Y011297D01*
X009773Y011523D02*
X009773Y011722D01*
X009123Y012373D01*
X009123Y012873D02*
X008449Y012873D01*
X008099Y013223D01*
X008099Y014423D01*
X006199Y016323D01*
X005173Y016323D01*
X004425Y016323D02*
X004425Y015334D01*
X004668Y015091D01*
X004425Y016323D02*
X003173Y016323D01*
X002425Y016323D02*
X001799Y016323D01*
X002699Y013123D02*
X003099Y012723D01*
X004999Y012723D01*
X005149Y012873D01*
X007075Y012873D01*
X007075Y013373D02*
X006549Y013373D01*
X006299Y013123D01*
X005799Y013123D01*
X005399Y013523D01*
X005999Y013523D02*
X006349Y013873D01*
X007075Y013873D01*
X007075Y012373D02*
X007025Y012323D01*
X006699Y012323D01*
X005531Y011154D01*
X004668Y011154D01*
X006699Y010349D02*
X006699Y010323D01*
X007999Y009123D01*
X008999Y010597D02*
X009799Y010597D01*
X010851Y010823D02*
X011225Y011197D01*
X011225Y011923D01*
X011225Y012723D01*
X011973Y012723D02*
X012099Y012723D01*
X012499Y012323D01*
X013085Y012437D02*
X013085Y012197D01*
X013085Y012437D02*
X011999Y013523D01*
X011973Y013523D01*
X011999Y013523D02*
X012099Y013523D01*
X012199Y013423D01*
X011225Y013523D02*
X010199Y013523D01*
X009999Y013323D01*
X009173Y013323D01*
X009123Y013373D01*
X011973Y011923D02*
X012073Y011823D01*
X013085Y011823D01*
X013085Y011449D02*
X013085Y011061D01*
X012347Y010323D01*
X013299Y009523D02*
X012799Y009023D01*
X012525Y008723D02*
X013325Y009523D01*
X013299Y009523D01*
X014073Y009523D02*
X014073Y009097D01*
X013699Y008723D01*
X013699Y008323D01*
X013499Y008123D01*
X013185Y008123D01*
X012799Y008123D01*
X012399Y007723D01*
X011973Y007723D01*
X011799Y007549D01*
X011799Y006223D01*
X011599Y006023D01*
X011599Y005723D01*
X011899Y005423D01*
X012347Y006223D02*
X013185Y007061D01*
X013185Y007749D01*
X013499Y008123D02*
X013699Y007923D01*
X013699Y007523D01*
X014099Y007123D01*
X016099Y007123D01*
X016899Y006323D01*
X019699Y009123D01*
X019999Y009123D01*
X020199Y009323D01*
X020199Y017423D01*
X019599Y018023D01*
X018673Y018023D01*
X017673Y019023D01*
X017699Y019023D01*
X017699Y018723D01*
X017223Y018246D01*
X017223Y018073D01*
X017223Y017573D02*
X017299Y017497D01*
X018299Y017497D01*
X019099Y017497D01*
X019525Y017497D01*
X019799Y017223D01*
X017673Y019023D02*
X017599Y019023D01*
X016925Y019023D02*
X016925Y018649D01*
X016699Y018423D01*
X015175Y018073D02*
X014123Y018073D01*
X013999Y018197D01*
X015175Y016573D02*
X015849Y016573D01*
X015899Y016623D01*
X016349Y016573D02*
X017223Y016573D01*
X016399Y011223D02*
X016399Y010023D01*
X016273Y009897D01*
X016273Y009523D01*
X016547Y009249D01*
X017599Y009249D01*
X017099Y009623D02*
X018099Y009623D01*
X018199Y009523D01*
X018199Y009123D01*
X016899Y007823D01*
X016373Y007823D01*
X016273Y007723D01*
X016273Y007297D01*
X016099Y007123D01*
X016273Y007249D02*
X016273Y007723D01*
X015525Y007723D02*
X014999Y007723D01*
X014213Y007749D02*
X015087Y008623D01*
X015525Y008623D01*
X015525Y009523D01*
X015525Y009649D01*
X016273Y009523D02*
X016347Y009449D01*
X016347Y008697D01*
X016273Y008623D01*
X017099Y009623D02*
X016649Y010073D01*
X016649Y010599D01*
X016699Y010649D01*
X016649Y010599D02*
X016725Y010523D01*
X016999Y010523D01*
X017599Y011123D01*
X017599Y011149D01*
X017599Y009997D02*
X018125Y009997D01*
X018299Y009823D01*
X016149Y010599D02*
X016099Y010549D01*
X014399Y008923D02*
X014213Y008737D01*
X014213Y008497D01*
X013185Y008497D02*
X012673Y008497D01*
X012399Y008223D01*
X011699Y008223D01*
X011599Y008123D01*
X011599Y006423D01*
X011399Y006223D01*
X010399Y006223D01*
X010299Y006323D01*
X010299Y007723D01*
X010399Y007823D01*
X010349Y007849D01*
X009799Y006923D02*
X009799Y006423D01*
X009773Y006397D01*
X008899Y006397D01*
X009799Y006397D01*
X009873Y005723D02*
X009799Y005649D01*
X008899Y005649D01*
X009873Y005723D02*
X010851Y005723D01*
X009223Y007373D02*
X009173Y007323D01*
X007699Y006823D02*
X006199Y006823D01*
X005899Y006523D01*
X005899Y004023D01*
X006399Y003523D01*
X006399Y003023D01*
X011499Y003023D01*
X011899Y002623D01*
X011899Y000823D01*
X010699Y000823D01*
X010399Y001123D01*
X010399Y001923D01*
X011199Y002823D02*
X011399Y002623D01*
X011399Y001923D01*
X011199Y002823D02*
X007199Y002823D01*
X006999Y002623D01*
X006999Y001923D01*
X005999Y001923D02*
X005999Y002623D01*
X006399Y003023D01*
X004999Y002623D02*
X004999Y001923D01*
X004999Y002623D02*
X004599Y003023D01*
X006299Y004523D02*
X006304Y004523D01*
X006299Y004523D02*
X006299Y005323D01*
X006699Y005723D01*
X007099Y005723D01*
X007104Y005727D01*
X007120Y005727D01*
X007199Y005649D01*
X007199Y005723D02*
X007099Y005723D01*
X006894Y005127D02*
X007499Y005123D01*
X007999Y005623D01*
X007999Y005649D01*
X006894Y005127D02*
X006894Y004523D01*
X006399Y007323D02*
X006449Y007373D01*
X007175Y007373D01*
X011973Y008723D02*
X012525Y008723D01*
X016899Y006323D02*
X016899Y004523D01*
X017625Y004523D01*
X017675Y004573D01*
X017675Y005073D02*
X017725Y005123D01*
X018199Y005123D01*
X018199Y004923D01*
X018399Y004723D01*
X018199Y005123D02*
X018725Y005649D01*
X018725Y006423D01*
X019399Y006349D02*
X019399Y006023D01*
X018999Y005623D01*
X018999Y005323D01*
X019249Y005073D01*
X019723Y005073D01*
X019723Y004573D01*
X019723Y004073D02*
X019723Y003972D01*
X019073Y003323D01*
X018325Y003323D02*
X018325Y003423D01*
X017675Y004073D01*
X017675Y005573D02*
X017675Y006273D01*
X018725Y007323D01*
X019473Y007323D02*
X019599Y007323D01*
X019999Y006923D01*
X019999Y005849D01*
X019723Y005573D01*
X019399Y006349D02*
X019473Y006423D01*
D23*
X018999Y005623D03*
X018399Y004723D03*
X014999Y007723D03*
X014399Y008923D03*
X012799Y009023D03*
X010599Y007223D03*
X009799Y006923D03*
X009099Y006923D03*
X007499Y005123D03*
X006399Y007323D03*
X010199Y011023D03*
X008299Y011523D03*
X005999Y013523D03*
X005399Y013523D03*
X001799Y016323D03*
X012499Y012323D03*
X014499Y013123D03*
X014699Y012223D03*
X016999Y011823D03*
X015899Y016623D03*
X016699Y018423D03*
X011899Y005423D03*
M02*
