G75*
G70*
%OFA0B0*%
%FSLAX24Y24*%
%IPPOS*%
%LPD*%
%AMOC8*
5,1,8,0,0,1.08239X$1,22.5*
%
%ADD10R,0.0631X0.0552*%
%ADD11R,0.0552X0.0631*%
%ADD12R,0.0827X0.0552*%
%ADD13R,0.0827X0.0749*%
%ADD14C,0.0900*%
%ADD15C,0.0512*%
%ADD16R,0.0906X0.0276*%
%ADD17OC8,0.0560*%
%ADD18R,0.0276X0.0906*%
%ADD19C,0.0640*%
%ADD20C,0.1340*%
%ADD21R,0.0355X0.0355*%
%ADD22R,0.0512X0.0276*%
%ADD23R,0.0434X0.0434*%
D10*
X007199Y005649D03*
X007999Y005649D03*
X007999Y006397D03*
X007199Y006397D03*
X008899Y006397D03*
X008899Y005649D03*
X009799Y005649D03*
X009799Y006397D03*
X010349Y007849D03*
X010349Y008597D03*
X009799Y009849D03*
X009799Y010597D03*
X008999Y010597D03*
X008999Y009849D03*
X007599Y010349D03*
X007599Y011097D03*
X006699Y011097D03*
X006699Y010349D03*
X009499Y017449D03*
X009499Y018197D03*
X010399Y018197D03*
X010399Y017449D03*
X011299Y017449D03*
X011299Y018197D03*
X012199Y018197D03*
X012199Y017449D03*
X013099Y017449D03*
X013099Y018197D03*
X013999Y018197D03*
X013999Y017449D03*
X018299Y017497D03*
X018299Y016749D03*
X019099Y016749D03*
X019099Y017497D03*
X017599Y011897D03*
X017599Y011149D03*
X017599Y009997D03*
X017599Y009249D03*
D11*
X018725Y010323D03*
X019473Y010323D03*
X019473Y011223D03*
X018725Y011223D03*
X018725Y012123D03*
X019473Y012123D03*
X019473Y013023D03*
X018725Y013023D03*
X018725Y013923D03*
X019473Y013923D03*
X016273Y009523D03*
X015525Y009523D03*
X015525Y008623D03*
X016273Y008623D03*
X016273Y007723D03*
X015525Y007723D03*
X014073Y009523D03*
X013325Y009523D03*
X011973Y008723D03*
X011225Y008723D03*
X011225Y007723D03*
X011973Y007723D03*
X009773Y011523D03*
X009025Y011523D03*
X011225Y011923D03*
X011973Y011923D03*
X011973Y012723D03*
X011225Y012723D03*
X011225Y013523D03*
X011973Y013523D03*
X013225Y013123D03*
X013973Y013123D03*
X014025Y019023D03*
X014773Y019023D03*
X015425Y019023D03*
X016173Y019023D03*
X016925Y019023D03*
X017673Y019023D03*
X018725Y007323D03*
X019473Y007323D03*
X019473Y006423D03*
X018725Y006423D03*
X019073Y003323D03*
X018325Y003323D03*
X005173Y016323D03*
X004425Y016323D03*
X003173Y016323D03*
X002425Y016323D03*
D12*
X010851Y010823D03*
X010851Y009823D03*
X010851Y006723D03*
X010851Y005723D03*
D13*
X012347Y006223D03*
X012347Y010323D03*
D14*
X004668Y009591D03*
X004668Y008607D03*
X004668Y006638D03*
X004668Y005654D03*
X002699Y007623D03*
X004668Y011154D03*
X004668Y012138D03*
X004668Y014107D03*
X004668Y015091D03*
X002699Y013123D03*
D15*
X002699Y015091D03*
X001715Y015091D03*
X004668Y013123D03*
X002699Y011154D03*
X001715Y011154D03*
X001715Y009591D03*
X002699Y009591D03*
X004668Y007623D03*
X002699Y005654D03*
X001715Y005654D03*
D16*
X007175Y007373D03*
X007175Y007873D03*
X007175Y008373D03*
X007175Y008873D03*
X009223Y008873D03*
X009223Y008373D03*
X009223Y007873D03*
X009223Y007373D03*
X009123Y012373D03*
X009123Y012873D03*
X009123Y013373D03*
X009123Y013873D03*
X007075Y013873D03*
X007075Y013373D03*
X007075Y012873D03*
X007075Y012373D03*
X015175Y016573D03*
X015175Y017073D03*
X015175Y017573D03*
X015175Y018073D03*
X017223Y018073D03*
X017223Y017573D03*
X017223Y017073D03*
X017223Y016573D03*
X017675Y005573D03*
X017675Y005073D03*
X017675Y004573D03*
X017675Y004073D03*
X019723Y004073D03*
X019723Y004573D03*
X019723Y005073D03*
X019723Y005573D03*
D17*
X011799Y019173D03*
X010799Y019173D03*
D18*
X015149Y012646D03*
X015649Y012646D03*
X016149Y012646D03*
X016649Y012646D03*
X016649Y010599D03*
X016149Y010599D03*
X015649Y010599D03*
X015149Y010599D03*
D19*
X008299Y018023D02*
X008299Y018623D01*
X007299Y018623D02*
X007299Y018023D01*
X006999Y002223D02*
X006999Y001623D01*
X005999Y001623D02*
X005999Y002223D01*
X004999Y002223D02*
X004999Y001623D01*
X003999Y001623D02*
X003999Y002223D01*
X008399Y002223D02*
X008399Y001623D01*
X009399Y001623D02*
X009399Y002223D01*
X010399Y002223D02*
X010399Y001623D01*
X011399Y001623D02*
X011399Y002223D01*
D20*
X002199Y001423D03*
X019699Y001423D03*
X019699Y018923D03*
X002199Y018923D03*
D21*
X006304Y004523D03*
X006894Y004523D03*
D22*
X013185Y007749D03*
X013185Y008123D03*
X013185Y008497D03*
X014213Y008497D03*
X014213Y007749D03*
X014113Y011449D03*
X014113Y012197D03*
X013085Y012197D03*
X013085Y011823D03*
X013085Y011449D03*
D23*
X013799Y010523D03*
M02*
