%
M48
M72
T01C0.0200
T02C0.0400
T03C0.0472
T04C0.0512
T05C0.1300
%
T01
X6811Y7599
X5611Y7699
X9011Y7399
X2911Y1499
T02
X2111Y6599
X2111Y5599
X2111Y4599
X2111Y3599
X2111Y11099
X2111Y10099
X2111Y9099
X2111Y8099
X5311Y11999
X4311Y11999
X13511Y11999
X12511Y11999
X11511Y11999
X10111Y11999
X9111Y11999
X7711Y11999
X6711Y11999
T03
X4342Y2699
X4342Y1715
X8279Y1715
X8279Y2699
X9842Y2699
X9842Y1715
X13779Y1715
X13779Y2699
T04
X6311Y2699
X5326Y4668
X4342Y4668
X7295Y4668
X8279Y4668
X11811Y2699
X10826Y4668
X9842Y4668
X12795Y4668
X13779Y4668
T05
X15311Y2099
X1611Y2099
X15311Y12599
X1511Y12599
M30
