G75*
G70*
%OFA0B0*%
%FSLAX24Y24*%
%IPPOS*%
%LPD*%
%AMOC8*
5,1,8,0,0,1.08239X$1,22.5*
%
%ADD10C,0.0060*%
%ADD11R,0.0042X0.0003*%
%ADD12R,0.0066X0.0003*%
%ADD13R,0.0084X0.0003*%
%ADD14R,0.0105X0.0003*%
%ADD15R,0.0117X0.0003*%
%ADD16R,0.0135X0.0003*%
%ADD17R,0.0147X0.0003*%
%ADD18R,0.0162X0.0003*%
%ADD19R,0.0174X0.0003*%
%ADD20R,0.0186X0.0003*%
%ADD21R,0.0198X0.0003*%
%ADD22R,0.0210X0.0003*%
%ADD23R,0.0222X0.0003*%
%ADD24R,0.0234X0.0003*%
%ADD25R,0.0243X0.0003*%
%ADD26R,0.0255X0.0003*%
%ADD27R,0.0264X0.0003*%
%ADD28R,0.0273X0.0003*%
%ADD29R,0.0285X0.0003*%
%ADD30R,0.0297X0.0003*%
%ADD31R,0.0303X0.0003*%
%ADD32R,0.0315X0.0003*%
%ADD33R,0.0327X0.0003*%
%ADD34R,0.0333X0.0003*%
%ADD35R,0.0345X0.0003*%
%ADD36R,0.0354X0.0003*%
%ADD37R,0.0363X0.0003*%
%ADD38R,0.0372X0.0003*%
%ADD39R,0.0381X0.0003*%
%ADD40R,0.0390X0.0003*%
%ADD41R,0.0402X0.0003*%
%ADD42R,0.0408X0.0003*%
%ADD43R,0.0420X0.0003*%
%ADD44R,0.0426X0.0003*%
%ADD45R,0.0438X0.0003*%
%ADD46R,0.0444X0.0003*%
%ADD47R,0.0456X0.0003*%
%ADD48R,0.0462X0.0003*%
%ADD49R,0.0468X0.0003*%
%ADD50R,0.0480X0.0003*%
%ADD51R,0.0486X0.0003*%
%ADD52R,0.0495X0.0003*%
%ADD53R,0.0504X0.0003*%
%ADD54R,0.0513X0.0003*%
%ADD55R,0.0522X0.0003*%
%ADD56R,0.0528X0.0003*%
%ADD57R,0.0537X0.0003*%
%ADD58R,0.0546X0.0003*%
%ADD59R,0.0555X0.0003*%
%ADD60R,0.0561X0.0003*%
%ADD61R,0.0570X0.0003*%
%ADD62R,0.0579X0.0003*%
%ADD63R,0.0585X0.0003*%
%ADD64R,0.0594X0.0003*%
%ADD65R,0.0603X0.0003*%
%ADD66R,0.0609X0.0003*%
%ADD67R,0.0618X0.0003*%
%ADD68R,0.0627X0.0003*%
%ADD69R,0.0633X0.0003*%
%ADD70R,0.0639X0.0003*%
%ADD71R,0.0651X0.0003*%
%ADD72R,0.0657X0.0003*%
%ADD73R,0.0663X0.0003*%
%ADD74R,0.0675X0.0003*%
%ADD75R,0.0681X0.0003*%
%ADD76R,0.0687X0.0003*%
%ADD77R,0.0693X0.0003*%
%ADD78R,0.0705X0.0003*%
%ADD79R,0.0711X0.0003*%
%ADD80R,0.0717X0.0003*%
%ADD81R,0.0726X0.0003*%
%ADD82R,0.0732X0.0003*%
%ADD83R,0.0741X0.0003*%
%ADD84R,0.0747X0.0003*%
%ADD85R,0.0756X0.0003*%
%ADD86R,0.0762X0.0003*%
%ADD87R,0.0771X0.0003*%
%ADD88R,0.0777X0.0003*%
%ADD89R,0.0786X0.0003*%
%ADD90R,0.0792X0.0003*%
%ADD91R,0.0798X0.0003*%
%ADD92R,0.0807X0.0003*%
%ADD93R,0.0813X0.0003*%
%ADD94R,0.0822X0.0003*%
%ADD95R,0.0828X0.0003*%
%ADD96R,0.0837X0.0003*%
%ADD97R,0.0843X0.0003*%
%ADD98R,0.0852X0.0003*%
%ADD99R,0.0858X0.0003*%
%ADD100R,0.0864X0.0003*%
%ADD101R,0.0870X0.0003*%
%ADD102R,0.0879X0.0003*%
%ADD103R,0.0885X0.0003*%
%ADD104R,0.0894X0.0003*%
%ADD105R,0.0900X0.0003*%
%ADD106R,0.0906X0.0003*%
%ADD107R,0.0912X0.0003*%
%ADD108R,0.0921X0.0003*%
%ADD109R,0.0930X0.0003*%
%ADD110R,0.0936X0.0003*%
%ADD111R,0.0942X0.0003*%
%ADD112R,0.0948X0.0003*%
%ADD113R,0.0954X0.0003*%
%ADD114R,0.0963X0.0003*%
%ADD115R,0.0972X0.0003*%
%ADD116R,0.0978X0.0003*%
%ADD117R,0.0984X0.0003*%
%ADD118R,0.0990X0.0003*%
%ADD119R,0.0996X0.0003*%
%ADD120R,0.1002X0.0003*%
%ADD121R,0.1008X0.0003*%
%ADD122R,0.1020X0.0003*%
%ADD123R,0.1026X0.0003*%
%ADD124R,0.1032X0.0003*%
%ADD125R,0.1038X0.0003*%
%ADD126R,0.1044X0.0003*%
%ADD127R,0.1050X0.0003*%
%ADD128R,0.1056X0.0003*%
%ADD129R,0.1068X0.0003*%
%ADD130R,0.1074X0.0003*%
%ADD131R,0.1080X0.0003*%
%ADD132R,0.1086X0.0003*%
%ADD133R,0.1092X0.0003*%
%ADD134R,0.1098X0.0003*%
%ADD135R,0.1104X0.0003*%
%ADD136R,0.1110X0.0003*%
%ADD137R,0.1116X0.0003*%
%ADD138R,0.1125X0.0003*%
%ADD139R,0.1131X0.0003*%
%ADD140R,0.1140X0.0003*%
%ADD141R,0.1146X0.0003*%
%ADD142R,0.1152X0.0003*%
%ADD143R,0.1158X0.0003*%
%ADD144R,0.1164X0.0003*%
%ADD145R,0.1170X0.0003*%
%ADD146R,0.1176X0.0003*%
%ADD147R,0.1182X0.0003*%
%ADD148R,0.1191X0.0003*%
%ADD149R,0.1197X0.0003*%
%ADD150R,0.1203X0.0003*%
%ADD151R,0.1209X0.0003*%
%ADD152R,0.1218X0.0003*%
%ADD153R,0.1224X0.0003*%
%ADD154R,0.1230X0.0003*%
%ADD155R,0.1236X0.0003*%
%ADD156R,0.1242X0.0003*%
%ADD157R,0.1248X0.0003*%
%ADD158R,0.1254X0.0003*%
%ADD159R,0.1260X0.0003*%
%ADD160R,0.1266X0.0003*%
%ADD161R,0.1275X0.0003*%
%ADD162R,0.1281X0.0003*%
%ADD163R,0.1287X0.0003*%
%ADD164R,0.1293X0.0003*%
%ADD165R,0.1299X0.0003*%
%ADD166R,0.1305X0.0003*%
%ADD167R,0.1314X0.0003*%
%ADD168R,0.1320X0.0003*%
%ADD169R,0.1326X0.0003*%
%ADD170R,0.1332X0.0003*%
%ADD171R,0.1338X0.0003*%
%ADD172R,0.1344X0.0003*%
%ADD173R,0.1350X0.0003*%
%ADD174R,0.1356X0.0003*%
%ADD175R,0.1362X0.0003*%
%ADD176R,0.1368X0.0003*%
%ADD177R,0.1374X0.0003*%
%ADD178R,0.1380X0.0003*%
%ADD179R,0.1386X0.0003*%
%ADD180R,0.1395X0.0003*%
%ADD181R,0.1401X0.0003*%
%ADD182R,0.1407X0.0003*%
%ADD183R,0.1413X0.0003*%
%ADD184R,0.1419X0.0003*%
%ADD185R,0.1425X0.0003*%
%ADD186R,0.1431X0.0003*%
%ADD187R,0.1437X0.0003*%
%ADD188R,0.1443X0.0003*%
%ADD189R,0.1449X0.0003*%
%ADD190R,0.1455X0.0003*%
%ADD191R,0.1461X0.0003*%
%ADD192R,0.1467X0.0003*%
%ADD193R,0.1473X0.0003*%
%ADD194R,0.1479X0.0003*%
%ADD195R,0.1485X0.0003*%
%ADD196R,0.1491X0.0003*%
%ADD197R,0.1497X0.0003*%
%ADD198R,0.1503X0.0003*%
%ADD199R,0.1509X0.0003*%
%ADD200R,0.1515X0.0003*%
%ADD201R,0.1521X0.0003*%
%ADD202R,0.1527X0.0003*%
%ADD203R,0.1533X0.0003*%
%ADD204R,0.1539X0.0003*%
%ADD205R,0.1545X0.0003*%
%ADD206R,0.1551X0.0003*%
%ADD207R,0.1557X0.0003*%
%ADD208R,0.1563X0.0003*%
%ADD209R,0.1569X0.0003*%
%ADD210R,0.1575X0.0003*%
%ADD211R,0.1581X0.0003*%
%ADD212R,0.1587X0.0003*%
%ADD213R,0.1593X0.0003*%
%ADD214R,0.1599X0.0003*%
%ADD215R,0.1605X0.0003*%
%ADD216R,0.1611X0.0003*%
%ADD217R,0.1617X0.0003*%
%ADD218R,0.1623X0.0003*%
%ADD219R,0.1629X0.0003*%
%ADD220R,0.1635X0.0003*%
%ADD221R,0.1641X0.0003*%
%ADD222R,0.1647X0.0003*%
%ADD223R,0.1653X0.0003*%
%ADD224R,0.1659X0.0003*%
%ADD225R,0.1665X0.0003*%
%ADD226R,0.1671X0.0003*%
%ADD227R,0.1677X0.0003*%
%ADD228R,0.1683X0.0003*%
%ADD229R,0.1686X0.0003*%
%ADD230R,0.1692X0.0003*%
%ADD231R,0.1698X0.0003*%
%ADD232R,0.1704X0.0003*%
%ADD233R,0.1710X0.0003*%
%ADD234R,0.1716X0.0003*%
%ADD235R,0.1722X0.0003*%
%ADD236R,0.1728X0.0003*%
%ADD237R,0.1734X0.0003*%
%ADD238R,0.1740X0.0003*%
%ADD239R,0.1746X0.0003*%
%ADD240R,0.1752X0.0003*%
%ADD241R,0.1758X0.0003*%
%ADD242R,0.1764X0.0003*%
%ADD243R,0.1767X0.0003*%
%ADD244R,0.1773X0.0003*%
%ADD245R,0.1779X0.0003*%
%ADD246R,0.1785X0.0003*%
%ADD247R,0.1791X0.0003*%
%ADD248R,0.1797X0.0003*%
%ADD249R,0.1803X0.0003*%
%ADD250R,0.1809X0.0003*%
%ADD251R,0.1815X0.0003*%
%ADD252R,0.1818X0.0003*%
%ADD253R,0.1824X0.0003*%
%ADD254R,0.1830X0.0003*%
%ADD255R,0.1836X0.0003*%
%ADD256R,0.1842X0.0003*%
%ADD257R,0.1848X0.0003*%
%ADD258R,0.1854X0.0003*%
%ADD259R,0.1860X0.0003*%
%ADD260R,0.1863X0.0003*%
%ADD261R,0.1869X0.0003*%
%ADD262R,0.1875X0.0003*%
%ADD263R,0.1881X0.0003*%
%ADD264R,0.1887X0.0003*%
%ADD265R,0.1890X0.0003*%
%ADD266R,0.1896X0.0003*%
%ADD267R,0.1902X0.0003*%
%ADD268R,0.1908X0.0003*%
%ADD269R,0.1914X0.0003*%
%ADD270R,0.1920X0.0003*%
%ADD271R,0.1926X0.0003*%
%ADD272R,0.1932X0.0003*%
%ADD273R,0.1938X0.0003*%
%ADD274R,0.1941X0.0003*%
%ADD275R,0.1947X0.0003*%
%ADD276R,0.1953X0.0003*%
%ADD277R,0.1959X0.0003*%
%ADD278R,0.1962X0.0003*%
%ADD279R,0.1968X0.0003*%
%ADD280R,0.1974X0.0003*%
%ADD281R,0.1980X0.0003*%
%ADD282R,0.1986X0.0003*%
%ADD283R,0.1992X0.0003*%
%ADD284R,0.1998X0.0003*%
%ADD285R,0.2004X0.0003*%
%ADD286R,0.2007X0.0003*%
%ADD287R,0.2013X0.0003*%
%ADD288R,0.2019X0.0003*%
%ADD289R,0.2022X0.0003*%
%ADD290R,0.2028X0.0003*%
%ADD291R,0.2034X0.0003*%
%ADD292R,0.2040X0.0003*%
%ADD293R,0.2046X0.0003*%
%ADD294R,0.2052X0.0003*%
%ADD295R,0.2055X0.0003*%
%ADD296R,0.2061X0.0003*%
%ADD297R,0.2067X0.0003*%
%ADD298R,0.2070X0.0003*%
%ADD299R,0.2076X0.0003*%
%ADD300R,0.2082X0.0003*%
%ADD301R,0.2088X0.0003*%
%ADD302R,0.2094X0.0003*%
%ADD303R,0.2100X0.0003*%
%ADD304R,0.2106X0.0003*%
%ADD305R,0.2109X0.0003*%
%ADD306R,0.2115X0.0003*%
%ADD307R,0.2118X0.0003*%
%ADD308R,0.2124X0.0003*%
%ADD309R,0.2130X0.0003*%
%ADD310R,0.2136X0.0003*%
%ADD311R,0.2142X0.0003*%
%ADD312R,0.2148X0.0003*%
%ADD313R,0.2154X0.0003*%
%ADD314R,0.2157X0.0003*%
%ADD315R,0.2160X0.0003*%
%ADD316R,0.2166X0.0003*%
%ADD317R,0.2172X0.0003*%
%ADD318R,0.2178X0.0003*%
%ADD319R,0.2184X0.0003*%
%ADD320R,0.2190X0.0003*%
%ADD321R,0.2196X0.0003*%
%ADD322R,0.2196X0.0003*%
%ADD323R,0.2202X0.0003*%
%ADD324R,0.2208X0.0003*%
%ADD325R,0.2214X0.0003*%
%ADD326R,0.2220X0.0003*%
%ADD327R,0.2226X0.0003*%
%ADD328R,0.2232X0.0003*%
%ADD329R,0.2238X0.0003*%
%ADD330R,0.2244X0.0003*%
%ADD331R,0.2250X0.0003*%
%ADD332R,0.2256X0.0003*%
%ADD333R,0.2262X0.0003*%
%ADD334R,0.2268X0.0003*%
%ADD335R,0.2274X0.0003*%
%ADD336R,0.2274X0.0003*%
%ADD337R,0.2280X0.0003*%
%ADD338R,0.2286X0.0003*%
%ADD339R,0.2292X0.0003*%
%ADD340R,0.2298X0.0003*%
%ADD341R,0.2304X0.0003*%
%ADD342R,0.2304X0.0003*%
%ADD343R,0.2310X0.0003*%
%ADD344R,0.2316X0.0003*%
%ADD345R,0.2322X0.0003*%
%ADD346R,0.2328X0.0003*%
%ADD347R,0.2334X0.0003*%
%ADD348R,0.2337X0.0003*%
%ADD349R,0.2340X0.0003*%
%ADD350R,0.2346X0.0003*%
%ADD351R,0.2352X0.0003*%
%ADD352R,0.2358X0.0003*%
%ADD353R,0.2364X0.0003*%
%ADD354R,0.2367X0.0003*%
%ADD355R,0.2373X0.0003*%
%ADD356R,0.2376X0.0003*%
%ADD357R,0.2382X0.0003*%
%ADD358R,0.2388X0.0003*%
%ADD359R,0.2394X0.0003*%
%ADD360R,0.2397X0.0003*%
%ADD361R,0.2400X0.0003*%
%ADD362R,0.2406X0.0003*%
%ADD363R,0.2412X0.0003*%
%ADD364R,0.2418X0.0003*%
%ADD365R,0.2424X0.0003*%
%ADD366R,0.2427X0.0003*%
%ADD367R,0.2430X0.0003*%
%ADD368R,0.2436X0.0003*%
%ADD369R,0.2442X0.0003*%
%ADD370R,0.2448X0.0003*%
%ADD371R,0.2454X0.0003*%
%ADD372R,0.2457X0.0003*%
%ADD373R,0.2460X0.0003*%
%ADD374R,0.2466X0.0003*%
%ADD375R,0.2472X0.0003*%
%ADD376R,0.2478X0.0003*%
%ADD377R,0.2481X0.0003*%
%ADD378R,0.2487X0.0003*%
%ADD379R,0.2490X0.0003*%
%ADD380R,0.2496X0.0003*%
%ADD381R,0.2502X0.0003*%
%ADD382R,0.2505X0.0003*%
%ADD383R,0.2511X0.0003*%
%ADD384R,0.2514X0.0003*%
%ADD385R,0.2520X0.0003*%
%ADD386R,0.2526X0.0003*%
%ADD387R,0.2529X0.0003*%
%ADD388R,0.2535X0.0003*%
%ADD389R,0.2538X0.0003*%
%ADD390R,0.2544X0.0003*%
%ADD391R,0.2550X0.0003*%
%ADD392R,0.2553X0.0003*%
%ADD393R,0.2559X0.0003*%
%ADD394R,0.2562X0.0003*%
%ADD395R,0.2568X0.0003*%
%ADD396R,0.2574X0.0003*%
%ADD397R,0.2577X0.0003*%
%ADD398R,0.2583X0.0003*%
%ADD399R,0.2586X0.0003*%
%ADD400R,0.2592X0.0003*%
%ADD401R,0.2598X0.0003*%
%ADD402R,0.2601X0.0003*%
%ADD403R,0.2607X0.0003*%
%ADD404R,0.2610X0.0003*%
%ADD405R,0.2616X0.0003*%
%ADD406R,0.2619X0.0003*%
%ADD407R,0.2625X0.0003*%
%ADD408R,0.2631X0.0003*%
%ADD409R,0.2634X0.0003*%
%ADD410R,0.2640X0.0003*%
%ADD411R,0.2643X0.0003*%
%ADD412R,0.2649X0.0003*%
%ADD413R,0.2655X0.0003*%
%ADD414R,0.2658X0.0003*%
%ADD415R,0.2661X0.0003*%
%ADD416R,0.2667X0.0003*%
%ADD417R,0.2673X0.0003*%
%ADD418R,0.2676X0.0003*%
%ADD419R,0.2682X0.0003*%
%ADD420R,0.2685X0.0003*%
%ADD421R,0.2691X0.0003*%
%ADD422R,0.2697X0.0003*%
%ADD423R,0.2700X0.0003*%
%ADD424R,0.2703X0.0003*%
%ADD425R,0.2709X0.0003*%
%ADD426R,0.2715X0.0003*%
%ADD427R,0.2718X0.0003*%
%ADD428R,0.2721X0.0003*%
%ADD429R,0.2727X0.0003*%
%ADD430R,0.2733X0.0003*%
%ADD431R,0.2739X0.0003*%
%ADD432R,0.2739X0.0003*%
%ADD433R,0.2745X0.0003*%
%ADD434R,0.2751X0.0003*%
%ADD435R,0.2757X0.0003*%
%ADD436R,0.2757X0.0003*%
%ADD437R,0.2763X0.0003*%
%ADD438R,0.2769X0.0003*%
%ADD439R,0.2775X0.0003*%
%ADD440R,0.2781X0.0003*%
%ADD441R,0.2787X0.0003*%
%ADD442R,0.2793X0.0003*%
%ADD443R,0.2799X0.0003*%
%ADD444R,0.2805X0.0003*%
%ADD445R,0.2811X0.0003*%
%ADD446R,0.2817X0.0003*%
%ADD447R,0.2823X0.0003*%
%ADD448R,0.2829X0.0003*%
%ADD449R,0.2829X0.0003*%
%ADD450R,0.2835X0.0003*%
%ADD451R,0.2841X0.0003*%
%ADD452R,0.2847X0.0003*%
%ADD453R,0.2847X0.0003*%
%ADD454R,0.2853X0.0003*%
%ADD455R,0.2859X0.0003*%
%ADD456R,0.2865X0.0003*%
%ADD457R,0.2871X0.0003*%
%ADD458R,0.2877X0.0003*%
%ADD459R,0.2880X0.0003*%
%ADD460R,0.2883X0.0003*%
%ADD461R,0.2889X0.0003*%
%ADD462R,0.2895X0.0003*%
%ADD463R,0.2898X0.0003*%
%ADD464R,0.2901X0.0003*%
%ADD465R,0.2907X0.0003*%
%ADD466R,0.2910X0.0003*%
%ADD467R,0.2913X0.0003*%
%ADD468R,0.2919X0.0003*%
%ADD469R,0.2925X0.0003*%
%ADD470R,0.2928X0.0003*%
%ADD471R,0.2931X0.0003*%
%ADD472R,0.2937X0.0003*%
%ADD473R,0.2940X0.0003*%
%ADD474R,0.2946X0.0003*%
%ADD475R,0.2949X0.0003*%
%ADD476R,0.2955X0.0003*%
%ADD477R,0.2958X0.0003*%
%ADD478R,0.2961X0.0003*%
%ADD479R,0.2967X0.0003*%
%ADD480R,0.2970X0.0003*%
%ADD481R,0.2973X0.0003*%
%ADD482R,0.2979X0.0003*%
%ADD483R,0.2985X0.0003*%
%ADD484R,0.2988X0.0003*%
%ADD485R,0.2991X0.0003*%
%ADD486R,0.2997X0.0003*%
%ADD487R,0.3000X0.0003*%
%ADD488R,0.3003X0.0003*%
%ADD489R,0.3009X0.0003*%
%ADD490R,0.3015X0.0003*%
%ADD491R,0.3018X0.0003*%
%ADD492R,0.3021X0.0003*%
%ADD493R,0.3027X0.0003*%
%ADD494R,0.3030X0.0003*%
%ADD495R,0.3033X0.0003*%
%ADD496R,0.3039X0.0003*%
%ADD497R,0.3042X0.0003*%
%ADD498R,0.3045X0.0003*%
%ADD499R,0.3051X0.0003*%
%ADD500R,0.3054X0.0003*%
%ADD501R,0.3060X0.0003*%
%ADD502R,0.3063X0.0003*%
%ADD503R,0.3066X0.0003*%
%ADD504R,0.3072X0.0003*%
%ADD505R,0.3075X0.0003*%
%ADD506R,0.3081X0.0003*%
%ADD507R,0.3084X0.0003*%
%ADD508R,0.3090X0.0003*%
%ADD509R,0.3093X0.0003*%
%ADD510R,0.3096X0.0003*%
%ADD511R,0.3102X0.0003*%
%ADD512R,0.3105X0.0003*%
%ADD513R,0.3108X0.0003*%
%ADD514R,0.3114X0.0003*%
%ADD515R,0.3117X0.0003*%
%ADD516R,0.3120X0.0003*%
%ADD517R,0.3126X0.0003*%
%ADD518R,0.3129X0.0003*%
%ADD519R,0.3132X0.0003*%
%ADD520R,0.3138X0.0003*%
%ADD521R,0.3141X0.0003*%
%ADD522R,0.3144X0.0003*%
%ADD523R,0.3150X0.0003*%
%ADD524R,0.3153X0.0003*%
%ADD525R,0.3156X0.0003*%
%ADD526R,0.3162X0.0003*%
%ADD527R,0.3165X0.0003*%
%ADD528R,0.3168X0.0003*%
%ADD529R,0.3174X0.0003*%
%ADD530R,0.3180X0.0003*%
%ADD531R,0.3186X0.0003*%
%ADD532R,0.3186X0.0003*%
%ADD533R,0.3192X0.0003*%
%ADD534R,0.3198X0.0003*%
%ADD535R,0.3204X0.0003*%
%ADD536R,0.3210X0.0003*%
%ADD537R,0.3216X0.0003*%
%ADD538R,0.3222X0.0003*%
%ADD539R,0.3222X0.0003*%
%ADD540R,0.3228X0.0003*%
%ADD541R,0.3234X0.0003*%
%ADD542R,0.3240X0.0003*%
%ADD543R,0.3246X0.0003*%
%ADD544R,0.3246X0.0003*%
%ADD545R,0.3252X0.0003*%
%ADD546R,0.3255X0.0003*%
%ADD547R,0.3258X0.0003*%
%ADD548R,0.3264X0.0003*%
%ADD549R,0.3264X0.0003*%
%ADD550R,0.3270X0.0003*%
%ADD551R,0.3276X0.0003*%
%ADD552R,0.3282X0.0003*%
%ADD553R,0.3288X0.0003*%
%ADD554R,0.3294X0.0003*%
%ADD555R,0.3297X0.0003*%
%ADD556R,0.3300X0.0003*%
%ADD557R,0.3306X0.0003*%
%ADD558R,0.3312X0.0003*%
%ADD559R,0.3318X0.0003*%
%ADD560R,0.3318X0.0003*%
%ADD561R,0.3324X0.0003*%
%ADD562R,0.3327X0.0003*%
%ADD563R,0.3330X0.0003*%
%ADD564R,0.3336X0.0003*%
%ADD565R,0.3339X0.0003*%
%ADD566R,0.3342X0.0003*%
%ADD567R,0.3345X0.0003*%
%ADD568R,0.3348X0.0003*%
%ADD569R,0.3354X0.0003*%
%ADD570R,0.3357X0.0003*%
%ADD571R,0.3360X0.0003*%
%ADD572R,0.3363X0.0003*%
%ADD573R,0.3366X0.0003*%
%ADD574R,0.3372X0.0003*%
%ADD575R,0.3375X0.0003*%
%ADD576R,0.3378X0.0003*%
%ADD577R,0.3381X0.0003*%
%ADD578R,0.3384X0.0003*%
%ADD579R,0.3390X0.0003*%
%ADD580R,0.3393X0.0003*%
%ADD581R,0.3396X0.0003*%
%ADD582R,0.3399X0.0003*%
%ADD583R,0.3405X0.0003*%
%ADD584R,0.3408X0.0003*%
%ADD585R,0.3411X0.0003*%
%ADD586R,0.3414X0.0003*%
%ADD587R,0.3417X0.0003*%
%ADD588R,0.3423X0.0003*%
%ADD589R,0.3426X0.0003*%
%ADD590R,0.3429X0.0003*%
%ADD591R,0.3432X0.0003*%
%ADD592R,0.3435X0.0003*%
%ADD593R,0.3441X0.0003*%
%ADD594R,0.3444X0.0003*%
%ADD595R,0.3447X0.0003*%
%ADD596R,0.3450X0.0003*%
%ADD597R,0.3453X0.0003*%
%ADD598R,0.3459X0.0003*%
%ADD599R,0.3465X0.0003*%
%ADD600R,0.3468X0.0003*%
%ADD601R,0.3471X0.0003*%
%ADD602R,0.3474X0.0003*%
%ADD603R,0.3477X0.0003*%
%ADD604R,0.3483X0.0003*%
%ADD605R,0.3483X0.0003*%
%ADD606R,0.3489X0.0003*%
%ADD607R,0.3495X0.0003*%
%ADD608R,0.3501X0.0003*%
%ADD609R,0.3501X0.0003*%
%ADD610R,0.3507X0.0003*%
%ADD611R,0.3513X0.0003*%
%ADD612R,0.3513X0.0003*%
%ADD613R,0.3519X0.0003*%
%ADD614R,0.3525X0.0003*%
%ADD615R,0.3531X0.0003*%
%ADD616R,0.3531X0.0003*%
%ADD617R,0.3537X0.0003*%
%ADD618R,0.3543X0.0003*%
%ADD619R,0.3549X0.0003*%
%ADD620R,0.3555X0.0003*%
%ADD621R,0.3561X0.0003*%
%ADD622R,0.3567X0.0003*%
%ADD623R,0.3567X0.0003*%
%ADD624R,0.3573X0.0003*%
%ADD625R,0.3579X0.0003*%
%ADD626R,0.3579X0.0003*%
%ADD627R,0.3585X0.0003*%
%ADD628R,0.3588X0.0003*%
%ADD629R,0.3591X0.0003*%
%ADD630R,0.3597X0.0003*%
%ADD631R,0.3597X0.0003*%
%ADD632R,0.3603X0.0003*%
%ADD633R,0.3609X0.0003*%
%ADD634R,0.3615X0.0003*%
%ADD635R,0.3615X0.0003*%
%ADD636R,0.3621X0.0003*%
%ADD637R,0.3624X0.0003*%
%ADD638R,0.3627X0.0003*%
%ADD639R,0.3630X0.0003*%
%ADD640R,0.3633X0.0003*%
%ADD641R,0.3636X0.0003*%
%ADD642R,0.3639X0.0003*%
%ADD643R,0.3642X0.0003*%
%ADD644R,0.3645X0.0003*%
%ADD645R,0.3648X0.0003*%
%ADD646R,0.1050X0.0003*%
%ADD647R,0.2469X0.0003*%
%ADD648R,0.1053X0.0003*%
%ADD649R,0.1056X0.0003*%
%ADD650R,0.2472X0.0003*%
%ADD651R,0.2475X0.0003*%
%ADD652R,0.1059X0.0003*%
%ADD653R,0.2478X0.0003*%
%ADD654R,0.1062X0.0003*%
%ADD655R,0.1062X0.0003*%
%ADD656R,0.2481X0.0003*%
%ADD657R,0.1065X0.0003*%
%ADD658R,0.2481X0.0003*%
%ADD659R,0.2484X0.0003*%
%ADD660R,0.1068X0.0003*%
%ADD661R,0.2487X0.0003*%
%ADD662R,0.1071X0.0003*%
%ADD663R,0.2487X0.0003*%
%ADD664R,0.1071X0.0003*%
%ADD665R,0.1074X0.0003*%
%ADD666R,0.2493X0.0003*%
%ADD667R,0.1077X0.0003*%
%ADD668R,0.1077X0.0003*%
%ADD669R,0.2496X0.0003*%
%ADD670R,0.2499X0.0003*%
%ADD671R,0.1083X0.0003*%
%ADD672R,0.2502X0.0003*%
%ADD673R,0.1086X0.0003*%
%ADD674R,0.1089X0.0003*%
%ADD675R,0.2508X0.0003*%
%ADD676R,0.1092X0.0003*%
%ADD677R,0.2511X0.0003*%
%ADD678R,0.1095X0.0003*%
%ADD679R,0.2511X0.0003*%
%ADD680R,0.2514X0.0003*%
%ADD681R,0.1098X0.0003*%
%ADD682R,0.1101X0.0003*%
%ADD683R,0.2517X0.0003*%
%ADD684R,0.1101X0.0003*%
%ADD685R,0.1104X0.0003*%
%ADD686R,0.1107X0.0003*%
%ADD687R,0.2523X0.0003*%
%ADD688R,0.1107X0.0003*%
%ADD689R,0.2523X0.0003*%
%ADD690R,0.2526X0.0003*%
%ADD691R,0.1113X0.0003*%
%ADD692R,0.1113X0.0003*%
%ADD693R,0.2532X0.0003*%
%ADD694R,0.1116X0.0003*%
%ADD695R,0.2532X0.0003*%
%ADD696R,0.1119X0.0003*%
%ADD697R,0.1122X0.0003*%
%ADD698R,0.2538X0.0003*%
%ADD699R,0.1122X0.0003*%
%ADD700R,0.2538X0.0003*%
%ADD701R,0.2541X0.0003*%
%ADD702R,0.1128X0.0003*%
%ADD703R,0.2544X0.0003*%
%ADD704R,0.1128X0.0003*%
%ADD705R,0.2544X0.0003*%
%ADD706R,0.1131X0.0003*%
%ADD707R,0.2547X0.0003*%
%ADD708R,0.1134X0.0003*%
%ADD709R,0.2550X0.0003*%
%ADD710R,0.1134X0.0003*%
%ADD711R,0.1137X0.0003*%
%ADD712R,0.2556X0.0003*%
%ADD713R,0.1140X0.0003*%
%ADD714R,0.2559X0.0003*%
%ADD715R,0.1143X0.0003*%
%ADD716R,0.1149X0.0003*%
%ADD717R,0.2565X0.0003*%
%ADD718R,0.1149X0.0003*%
%ADD719R,0.2565X0.0003*%
%ADD720R,0.1152X0.0003*%
%ADD721R,0.2568X0.0003*%
%ADD722R,0.1155X0.0003*%
%ADD723R,0.2571X0.0003*%
%ADD724R,0.1155X0.0003*%
%ADD725R,0.2571X0.0003*%
%ADD726R,0.1158X0.0003*%
%ADD727R,0.2574X0.0003*%
%ADD728R,0.1161X0.0003*%
%ADD729R,0.2577X0.0003*%
%ADD730R,0.1161X0.0003*%
%ADD731R,0.2577X0.0003*%
%ADD732R,0.1164X0.0003*%
%ADD733R,0.2580X0.0003*%
%ADD734R,0.1167X0.0003*%
%ADD735R,0.1167X0.0003*%
%ADD736R,0.2583X0.0003*%
%ADD737R,0.1173X0.0003*%
%ADD738R,0.1173X0.0003*%
%ADD739R,0.2589X0.0003*%
%ADD740R,0.2589X0.0003*%
%ADD741R,0.1179X0.0003*%
%ADD742R,0.1179X0.0003*%
%ADD743R,0.2595X0.0003*%
%ADD744R,0.2595X0.0003*%
%ADD745R,0.1182X0.0003*%
%ADD746R,0.2598X0.0003*%
%ADD747R,0.1185X0.0003*%
%ADD748R,0.1185X0.0003*%
%ADD749R,0.2601X0.0003*%
%ADD750R,0.2601X0.0003*%
%ADD751R,0.1188X0.0003*%
%ADD752R,0.2604X0.0003*%
%ADD753R,0.1191X0.0003*%
%ADD754R,0.1191X0.0003*%
%ADD755R,0.2604X0.0003*%
%ADD756R,0.2607X0.0003*%
%ADD757R,0.1194X0.0003*%
%ADD758R,0.1197X0.0003*%
%ADD759R,0.2610X0.0003*%
%ADD760R,0.0546X0.0003*%
%ADD761R,0.0219X0.0003*%
%ADD762R,0.0819X0.0003*%
%ADD763R,0.1410X0.0003*%
%ADD764R,0.0561X0.0003*%
%ADD765R,0.0195X0.0003*%
%ADD766R,0.0768X0.0003*%
%ADD767R,0.1374X0.0003*%
%ADD768R,0.0516X0.0003*%
%ADD769R,0.0549X0.0003*%
%ADD770R,0.0183X0.0003*%
%ADD771R,0.0741X0.0003*%
%ADD772R,0.1353X0.0003*%
%ADD773R,0.0060X0.0003*%
%ADD774R,0.0063X0.0003*%
%ADD775R,0.0534X0.0003*%
%ADD776R,0.0171X0.0003*%
%ADD777R,0.0708X0.0003*%
%ADD778R,0.1335X0.0003*%
%ADD779R,0.0114X0.0003*%
%ADD780R,0.0120X0.0003*%
%ADD781R,0.0522X0.0003*%
%ADD782R,0.0159X0.0003*%
%ADD783R,0.0684X0.0003*%
%ADD784R,0.1317X0.0003*%
%ADD785R,0.0156X0.0003*%
%ADD786R,0.0489X0.0003*%
%ADD787R,0.0150X0.0003*%
%ADD788R,0.0666X0.0003*%
%ADD789R,0.1311X0.0003*%
%ADD790R,0.0171X0.0003*%
%ADD791R,0.0180X0.0003*%
%ADD792R,0.0231X0.0003*%
%ADD793R,0.0141X0.0003*%
%ADD794R,0.0645X0.0003*%
%ADD795R,0.0219X0.0003*%
%ADD796R,0.0429X0.0003*%
%ADD797R,0.0348X0.0003*%
%ADD798R,0.0207X0.0003*%
%ADD799R,0.0477X0.0003*%
%ADD800R,0.0144X0.0003*%
%ADD801R,0.0132X0.0003*%
%ADD802R,0.0627X0.0003*%
%ADD803R,0.0423X0.0003*%
%ADD804R,0.0216X0.0003*%
%ADD805R,0.0228X0.0003*%
%ADD806R,0.0471X0.0003*%
%ADD807R,0.0126X0.0003*%
%ADD808R,0.0612X0.0003*%
%ADD809R,0.0201X0.0003*%
%ADD810R,0.0228X0.0003*%
%ADD811R,0.0123X0.0003*%
%ADD812R,0.0246X0.0003*%
%ADD813R,0.0468X0.0003*%
%ADD814R,0.0129X0.0003*%
%ADD815R,0.0231X0.0003*%
%ADD816R,0.0120X0.0003*%
%ADD817R,0.0597X0.0003*%
%ADD818R,0.0189X0.0003*%
%ADD819R,0.0417X0.0003*%
%ADD820R,0.0357X0.0003*%
%ADD821R,0.0132X0.0003*%
%ADD822R,0.0135X0.0003*%
%ADD823R,0.0246X0.0003*%
%ADD824R,0.0123X0.0003*%
%ADD825R,0.0117X0.0003*%
%ADD826R,0.0582X0.0003*%
%ADD827R,0.0411X0.0003*%
%ADD828R,0.0357X0.0003*%
%ADD829R,0.0264X0.0003*%
%ADD830R,0.0282X0.0003*%
%ADD831R,0.0456X0.0003*%
%ADD832R,0.0108X0.0003*%
%ADD833R,0.0177X0.0003*%
%ADD834R,0.0363X0.0003*%
%ADD835R,0.0273X0.0003*%
%ADD836R,0.0294X0.0003*%
%ADD837R,0.0453X0.0003*%
%ADD838R,0.0108X0.0003*%
%ADD839R,0.0102X0.0003*%
%ADD840R,0.0558X0.0003*%
%ADD841R,0.0405X0.0003*%
%ADD842R,0.0366X0.0003*%
%ADD843R,0.0306X0.0003*%
%ADD844R,0.0450X0.0003*%
%ADD845R,0.0096X0.0003*%
%ADD846R,0.0543X0.0003*%
%ADD847R,0.0165X0.0003*%
%ADD848R,0.0300X0.0003*%
%ADD849R,0.0321X0.0003*%
%ADD850R,0.0444X0.0003*%
%ADD851R,0.0099X0.0003*%
%ADD852R,0.0234X0.0003*%
%ADD853R,0.0090X0.0003*%
%ADD854R,0.0534X0.0003*%
%ADD855R,0.0162X0.0003*%
%ADD856R,0.0399X0.0003*%
%ADD857R,0.0372X0.0003*%
%ADD858R,0.0312X0.0003*%
%ADD859R,0.0114X0.0003*%
%ADD860R,0.0333X0.0003*%
%ADD861R,0.0093X0.0003*%
%ADD862R,0.0087X0.0003*%
%ADD863R,0.0153X0.0003*%
%ADD864R,0.0393X0.0003*%
%ADD865R,0.0375X0.0003*%
%ADD866R,0.0321X0.0003*%
%ADD867R,0.0441X0.0003*%
%ADD868R,0.0081X0.0003*%
%ADD869R,0.0330X0.0003*%
%ADD870R,0.0435X0.0003*%
%ADD871R,0.0237X0.0003*%
%ADD872R,0.0078X0.0003*%
%ADD873R,0.0501X0.0003*%
%ADD874R,0.0147X0.0003*%
%ADD875R,0.0387X0.0003*%
%ADD876R,0.0381X0.0003*%
%ADD877R,0.0342X0.0003*%
%ADD878R,0.0078X0.0003*%
%ADD879R,0.0072X0.0003*%
%ADD880R,0.0384X0.0003*%
%ADD881R,0.0351X0.0003*%
%ADD882R,0.0432X0.0003*%
%ADD883R,0.0075X0.0003*%
%ADD884R,0.0237X0.0003*%
%ADD885R,0.0069X0.0003*%
%ADD886R,0.0483X0.0003*%
%ADD887R,0.0381X0.0003*%
%ADD888R,0.0384X0.0003*%
%ADD889R,0.0360X0.0003*%
%ADD890R,0.0387X0.0003*%
%ADD891R,0.0069X0.0003*%
%ADD892R,0.0066X0.0003*%
%ADD893R,0.0471X0.0003*%
%ADD894R,0.0369X0.0003*%
%ADD895R,0.0396X0.0003*%
%ADD896R,0.0063X0.0003*%
%ADD897R,0.0465X0.0003*%
%ADD898R,0.0057X0.0003*%
%ADD899R,0.0456X0.0003*%
%ADD900R,0.0156X0.0003*%
%ADD901R,0.0414X0.0003*%
%ADD902R,0.0054X0.0003*%
%ADD903R,0.0447X0.0003*%
%ADD904R,0.0159X0.0003*%
%ADD905R,0.0399X0.0003*%
%ADD906R,0.0423X0.0003*%
%ADD907R,0.0054X0.0003*%
%ADD908R,0.0051X0.0003*%
%ADD909R,0.0441X0.0003*%
%ADD910R,0.0159X0.0003*%
%ADD911R,0.0402X0.0003*%
%ADD912R,0.0429X0.0003*%
%ADD913R,0.0051X0.0003*%
%ADD914R,0.0240X0.0003*%
%ADD915R,0.0048X0.0003*%
%ADD916R,0.0432X0.0003*%
%ADD917R,0.0408X0.0003*%
%ADD918R,0.0417X0.0003*%
%ADD919R,0.0045X0.0003*%
%ADD920R,0.0168X0.0003*%
%ADD921R,0.0444X0.0003*%
%ADD922R,0.0042X0.0003*%
%ADD923R,0.0417X0.0003*%
%ADD924R,0.0414X0.0003*%
%ADD925R,0.0039X0.0003*%
%ADD926R,0.0426X0.0003*%
%ADD927R,0.0459X0.0003*%
%ADD928R,0.0411X0.0003*%
%ADD929R,0.0039X0.0003*%
%ADD930R,0.0240X0.0003*%
%ADD931R,0.0036X0.0003*%
%ADD932R,0.0177X0.0003*%
%ADD933R,0.0339X0.0003*%
%ADD934R,0.0432X0.0003*%
%ADD935R,0.0465X0.0003*%
%ADD936R,0.0033X0.0003*%
%ADD937R,0.0033X0.0003*%
%ADD938R,0.0396X0.0003*%
%ADD939R,0.0336X0.0003*%
%ADD940R,0.0030X0.0003*%
%ADD941R,0.0027X0.0003*%
%ADD942R,0.0027X0.0003*%
%ADD943R,0.0384X0.0003*%
%ADD944R,0.0186X0.0003*%
%ADD945R,0.0411X0.0003*%
%ADD946R,0.0024X0.0003*%
%ADD947R,0.0024X0.0003*%
%ADD948R,0.0378X0.0003*%
%ADD949R,0.0189X0.0003*%
%ADD950R,0.0492X0.0003*%
%ADD951R,0.0408X0.0003*%
%ADD952R,0.0021X0.0003*%
%ADD953R,0.0021X0.0003*%
%ADD954R,0.0189X0.0003*%
%ADD955R,0.0321X0.0003*%
%ADD956R,0.0219X0.0003*%
%ADD957R,0.0174X0.0003*%
%ADD958R,0.0498X0.0003*%
%ADD959R,0.0018X0.0003*%
%ADD960R,0.0018X0.0003*%
%ADD961R,0.0366X0.0003*%
%ADD962R,0.0192X0.0003*%
%ADD963R,0.0318X0.0003*%
%ADD964R,0.0207X0.0003*%
%ADD965R,0.0015X0.0003*%
%ADD966R,0.0360X0.0003*%
%ADD967R,0.0096X0.0003*%
%ADD968R,0.0315X0.0003*%
%ADD969R,0.0198X0.0003*%
%ADD970R,0.0249X0.0003*%
%ADD971R,0.0012X0.0003*%
%ADD972R,0.0090X0.0003*%
%ADD973R,0.0309X0.0003*%
%ADD974R,0.0009X0.0003*%
%ADD975R,0.0111X0.0003*%
%ADD976R,0.0405X0.0003*%
%ADD977R,0.0006X0.0003*%
%ADD978R,0.0009X0.0003*%
%ADD979R,0.0138X0.0003*%
%ADD980R,0.0342X0.0003*%
%ADD981R,0.0207X0.0003*%
%ADD982R,0.0207X0.0003*%
%ADD983R,0.0303X0.0003*%
%ADD984R,0.0447X0.0003*%
%ADD985R,0.0180X0.0003*%
%ADD986R,0.0129X0.0003*%
%ADD987R,0.0213X0.0003*%
%ADD988R,0.0162X0.0003*%
%ADD989R,0.0003X0.0003*%
%ADD990R,0.0009X0.0003*%
%ADD991R,0.0339X0.0003*%
%ADD992R,0.0234X0.0003*%
%ADD993R,0.0447X0.0003*%
%ADD994R,0.0123X0.0003*%
%ADD995R,0.0006X0.0003*%
%ADD996R,0.0252X0.0003*%
%ADD997R,0.0210X0.0003*%
%ADD998R,0.0174X0.0003*%
%ADD999R,0.0117X0.0003*%
%ADD1000R,0.0144X0.0003*%
%ADD1001R,0.0399X0.0003*%
%ADD1002R,0.0183X0.0003*%
%ADD1003R,0.0243X0.0003*%
%ADD1004R,0.0003X0.0003*%
%ADD1005R,0.0270X0.0003*%
%ADD1006R,0.0213X0.0003*%
%ADD1007R,0.0291X0.0003*%
%ADD1008R,0.0138X0.0003*%
%ADD1009R,0.0324X0.0003*%
%ADD1010R,0.0291X0.0003*%
%ADD1011R,0.0288X0.0003*%
%ADD1012R,0.0111X0.0003*%
%ADD1013R,0.0399X0.0003*%
%ADD1014R,0.0204X0.0003*%
%ADD1015R,0.0243X0.0003*%
%ADD1016R,0.0318X0.0003*%
%ADD1017R,0.0285X0.0003*%
%ADD1018R,0.0459X0.0003*%
%ADD1019R,0.0165X0.0003*%
%ADD1020R,0.0312X0.0003*%
%ADD1021R,0.0222X0.0003*%
%ADD1022R,0.0279X0.0003*%
%ADD1023R,0.0126X0.0003*%
%ADD1024R,0.0276X0.0003*%
%ADD1025R,0.0231X0.0003*%
%ADD1026R,0.0225X0.0003*%
%ADD1027R,0.0468X0.0003*%
%ADD1028R,0.0159X0.0003*%
%ADD1029R,0.0177X0.0003*%
%ADD1030R,0.0267X0.0003*%
%ADD1031R,0.0114X0.0003*%
%ADD1032R,0.0297X0.0003*%
%ADD1033R,0.0375X0.0003*%
%ADD1034R,0.0474X0.0003*%
%ADD1035R,0.0216X0.0003*%
%ADD1036R,0.0174X0.0003*%
%ADD1037R,0.0249X0.0003*%
%ADD1038R,0.0621X0.0003*%
%ADD1039R,0.0261X0.0003*%
%ADD1040R,0.0282X0.0003*%
%ADD1041R,0.0630X0.0003*%
%ADD1042R,0.0258X0.0003*%
%ADD1043R,0.0633X0.0003*%
%ADD1044R,0.0483X0.0003*%
%ADD1045R,0.0204X0.0003*%
%ADD1046R,0.0639X0.0003*%
%ADD1047R,0.0486X0.0003*%
%ADD1048R,0.0201X0.0003*%
%ADD1049R,0.0396X0.0003*%
%ADD1050R,0.0270X0.0003*%
%ADD1051R,0.0276X0.0003*%
%ADD1052R,0.0648X0.0003*%
%ADD1053R,0.0246X0.0003*%
%ADD1054R,0.0486X0.0003*%
%ADD1055R,0.0150X0.0003*%
%ADD1056R,0.0198X0.0003*%
%ADD1057R,0.0228X0.0003*%
%ADD1058R,0.0276X0.0003*%
%ADD1059R,0.0309X0.0003*%
%ADD1060R,0.0651X0.0003*%
%ADD1061R,0.0147X0.0003*%
%ADD1062R,0.0657X0.0003*%
%ADD1063R,0.0495X0.0003*%
%ADD1064R,0.0324X0.0003*%
%ADD1065R,0.0663X0.0003*%
%ADD1066R,0.0669X0.0003*%
%ADD1067R,0.0498X0.0003*%
%ADD1068R,0.0213X0.0003*%
%ADD1069R,0.0396X0.0003*%
%ADD1070R,0.0294X0.0003*%
%ADD1071R,0.0255X0.0003*%
%ADD1072R,0.0672X0.0003*%
%ADD1073R,0.0228X0.0003*%
%ADD1074R,0.0501X0.0003*%
%ADD1075R,0.0183X0.0003*%
%ADD1076R,0.0339X0.0003*%
%ADD1077R,0.0678X0.0003*%
%ADD1078R,0.0507X0.0003*%
%ADD1079R,0.0351X0.0003*%
%ADD1080R,0.0687X0.0003*%
%ADD1081R,0.0216X0.0003*%
%ADD1082R,0.0510X0.0003*%
%ADD1083R,0.0156X0.0003*%
%ADD1084R,0.0693X0.0003*%
%ADD1085R,0.0312X0.0003*%
%ADD1086R,0.0696X0.0003*%
%ADD1087R,0.0516X0.0003*%
%ADD1088R,0.0144X0.0003*%
%ADD1089R,0.0171X0.0003*%
%ADD1090R,0.0195X0.0003*%
%ADD1091R,0.0153X0.0003*%
%ADD1092R,0.0312X0.0003*%
%ADD1093R,0.0702X0.0003*%
%ADD1094R,0.0519X0.0003*%
%ADD1095R,0.0141X0.0003*%
%ADD1096R,0.0168X0.0003*%
%ADD1097R,0.0369X0.0003*%
%ADD1098R,0.0318X0.0003*%
%ADD1099R,0.0714X0.0003*%
%ADD1100R,0.0525X0.0003*%
%ADD1101R,0.0324X0.0003*%
%ADD1102R,0.0381X0.0003*%
%ADD1103R,0.0225X0.0003*%
%ADD1104R,0.0720X0.0003*%
%ADD1105R,0.0186X0.0003*%
%ADD1106R,0.0528X0.0003*%
%ADD1107R,0.0141X0.0003*%
%ADD1108R,0.0723X0.0003*%
%ADD1109R,0.0531X0.0003*%
%ADD1110R,0.0729X0.0003*%
%ADD1111R,0.0732X0.0003*%
%ADD1112R,0.0537X0.0003*%
%ADD1113R,0.0138X0.0003*%
%ADD1114R,0.0153X0.0003*%
%ADD1115R,0.0738X0.0003*%
%ADD1116R,0.0540X0.0003*%
%ADD1117R,0.0741X0.0003*%
%ADD1118R,0.0168X0.0003*%
%ADD1119R,0.0543X0.0003*%
%ADD1120R,0.0171X0.0003*%
%ADD1121R,0.0336X0.0003*%
%ADD1122R,0.0744X0.0003*%
%ADD1123R,0.0543X0.0003*%
%ADD1124R,0.0750X0.0003*%
%ADD1125R,0.0549X0.0003*%
%ADD1126R,0.0204X0.0003*%
%ADD1127R,0.0552X0.0003*%
%ADD1128R,0.0201X0.0003*%
%ADD1129R,0.0762X0.0003*%
%ADD1130R,0.0558X0.0003*%
%ADD1131R,0.0162X0.0003*%
%ADD1132R,0.0147X0.0003*%
%ADD1133R,0.0768X0.0003*%
%ADD1134R,0.0771X0.0003*%
%ADD1135R,0.0564X0.0003*%
%ADD1136R,0.0429X0.0003*%
%ADD1137R,0.0774X0.0003*%
%ADD1138R,0.0567X0.0003*%
%ADD1139R,0.0348X0.0003*%
%ADD1140R,0.0777X0.0003*%
%ADD1141R,0.0570X0.0003*%
%ADD1142R,0.0138X0.0003*%
%ADD1143R,0.0783X0.0003*%
%ADD1144R,0.0129X0.0003*%
%ADD1145R,0.0573X0.0003*%
%ADD1146R,0.0576X0.0003*%
%ADD1147R,0.0441X0.0003*%
%ADD1148R,0.0786X0.0003*%
%ADD1149R,0.0579X0.0003*%
%ADD1150R,0.0414X0.0003*%
%ADD1151R,0.0351X0.0003*%
%ADD1152R,0.0444X0.0003*%
%ADD1153R,0.0792X0.0003*%
%ADD1154R,0.0582X0.0003*%
%ADD1155R,0.0801X0.0003*%
%ADD1156R,0.0588X0.0003*%
%ADD1157R,0.0807X0.0003*%
%ADD1158R,0.0099X0.0003*%
%ADD1159R,0.0594X0.0003*%
%ADD1160R,0.0354X0.0003*%
%ADD1161R,0.0456X0.0003*%
%ADD1162R,0.0810X0.0003*%
%ADD1163R,0.0096X0.0003*%
%ADD1164R,0.0144X0.0003*%
%ADD1165R,0.0813X0.0003*%
%ADD1166R,0.0597X0.0003*%
%ADD1167R,0.0816X0.0003*%
%ADD1168R,0.0600X0.0003*%
%ADD1169R,0.0603X0.0003*%
%ADD1170R,0.0081X0.0003*%
%ADD1171R,0.0606X0.0003*%
%ADD1172R,0.0351X0.0003*%
%ADD1173R,0.0825X0.0003*%
%ADD1174R,0.0078X0.0003*%
%ADD1175R,0.0609X0.0003*%
%ADD1176R,0.0141X0.0003*%
%ADD1177R,0.0075X0.0003*%
%ADD1178R,0.0348X0.0003*%
%ADD1179R,0.0831X0.0003*%
%ADD1180R,0.0066X0.0003*%
%ADD1181R,0.0615X0.0003*%
%ADD1182R,0.0837X0.0003*%
%ADD1183R,0.0618X0.0003*%
%ADD1184R,0.0429X0.0003*%
%ADD1185R,0.0345X0.0003*%
%ADD1186R,0.0471X0.0003*%
%ADD1187R,0.0156X0.0003*%
%ADD1188R,0.0840X0.0003*%
%ADD1189R,0.0060X0.0003*%
%ADD1190R,0.0621X0.0003*%
%ADD1191R,0.0840X0.0003*%
%ADD1192R,0.0624X0.0003*%
%ADD1193R,0.0846X0.0003*%
%ADD1194R,0.0051X0.0003*%
%ADD1195R,0.0474X0.0003*%
%ADD1196R,0.0849X0.0003*%
%ADD1197R,0.0435X0.0003*%
%ADD1198R,0.0474X0.0003*%
%ADD1199R,0.0852X0.0003*%
%ADD1200R,0.0042X0.0003*%
%ADD1201R,0.0636X0.0003*%
%ADD1202R,0.0636X0.0003*%
%ADD1203R,0.0132X0.0003*%
%ADD1204R,0.0477X0.0003*%
%ADD1205R,0.0861X0.0003*%
%ADD1206R,0.0642X0.0003*%
%ADD1207R,0.0333X0.0003*%
%ADD1208R,0.0480X0.0003*%
%ADD1209R,0.0864X0.0003*%
%ADD1210R,0.0024X0.0003*%
%ADD1211R,0.0645X0.0003*%
%ADD1212R,0.0132X0.0003*%
%ADD1213R,0.0333X0.0003*%
%ADD1214R,0.0867X0.0003*%
%ADD1215R,0.0021X0.0003*%
%ADD1216R,0.0483X0.0003*%
%ADD1217R,0.0873X0.0003*%
%ADD1218R,0.0654X0.0003*%
%ADD1219R,0.0876X0.0003*%
%ADD1220R,0.0453X0.0003*%
%ADD1221R,0.0879X0.0003*%
%ADD1222R,0.0657X0.0003*%
%ADD1223R,0.0879X0.0003*%
%ADD1224R,0.0006X0.0003*%
%ADD1225R,0.0660X0.0003*%
%ADD1226R,0.0882X0.0003*%
%ADD1227R,0.0888X0.0003*%
%ADD1228R,0.0669X0.0003*%
%ADD1229R,0.0459X0.0003*%
%ADD1230R,0.0486X0.0003*%
%ADD1231R,0.0891X0.0003*%
%ADD1232R,0.0891X0.0003*%
%ADD1233R,0.0672X0.0003*%
%ADD1234R,0.0306X0.0003*%
%ADD1235R,0.0303X0.0003*%
%ADD1236R,0.0897X0.0003*%
%ADD1237R,0.0900X0.0003*%
%ADD1238R,0.0684X0.0003*%
%ADD1239R,0.0474X0.0003*%
%ADD1240R,0.0903X0.0003*%
%ADD1241R,0.0288X0.0003*%
%ADD1242R,0.0906X0.0003*%
%ADD1243R,0.0690X0.0003*%
%ADD1244R,0.0909X0.0003*%
%ADD1245R,0.0489X0.0003*%
%ADD1246R,0.0912X0.0003*%
%ADD1247R,0.0693X0.0003*%
%ADD1248R,0.0912X0.0003*%
%ADD1249R,0.0696X0.0003*%
%ADD1250R,0.0489X0.0003*%
%ADD1251R,0.0264X0.0003*%
%ADD1252R,0.0918X0.0003*%
%ADD1253R,0.0699X0.0003*%
%ADD1254R,0.0258X0.0003*%
%ADD1255R,0.0921X0.0003*%
%ADD1256R,0.0702X0.0003*%
%ADD1257R,0.0924X0.0003*%
%ADD1258R,0.0705X0.0003*%
%ADD1259R,0.0927X0.0003*%
%ADD1260R,0.0192X0.0003*%
%ADD1261R,0.0513X0.0003*%
%ADD1262R,0.0717X0.0003*%
%ADD1263R,0.0519X0.0003*%
%ADD1264R,0.0522X0.0003*%
%ADD1265R,0.0531X0.0003*%
%ADD1266R,0.0366X0.0003*%
%ADD1267R,0.0729X0.0003*%
%ADD1268R,0.0243X0.0003*%
%ADD1269R,0.0534X0.0003*%
%ADD1270R,0.0279X0.0003*%
%ADD1271R,0.0552X0.0003*%
%ADD1272R,0.0540X0.0003*%
%ADD1273R,0.0354X0.0003*%
%ADD1274R,0.0564X0.0003*%
%ADD1275R,0.0528X0.0003*%
%ADD1276R,0.0723X0.0003*%
%ADD1277R,0.0573X0.0003*%
%ADD1278R,0.0720X0.0003*%
%ADD1279R,0.0717X0.0003*%
%ADD1280R,0.0507X0.0003*%
%ADD1281R,0.0588X0.0003*%
%ADD1282R,0.0714X0.0003*%
%ADD1283R,0.0501X0.0003*%
%ADD1284R,0.0603X0.0003*%
%ADD1285R,0.0711X0.0003*%
%ADD1286R,0.0621X0.0003*%
%ADD1287R,0.0327X0.0003*%
%ADD1288R,0.0702X0.0003*%
%ADD1289R,0.0450X0.0003*%
%ADD1290R,0.0699X0.0003*%
%ADD1291R,0.0696X0.0003*%
%ADD1292R,0.0423X0.0003*%
%ADD1293R,0.0678X0.0003*%
%ADD1294R,0.0690X0.0003*%
%ADD1295R,0.0711X0.0003*%
%ADD1296R,0.0684X0.0003*%
%ADD1297R,0.0681X0.0003*%
%ADD1298R,0.0738X0.0003*%
%ADD1299R,0.0309X0.0003*%
%ADD1300R,0.0681X0.0003*%
%ADD1301R,0.0336X0.0003*%
%ADD1302R,0.0753X0.0003*%
%ADD1303R,0.0774X0.0003*%
%ADD1304R,0.0789X0.0003*%
%ADD1305R,0.0819X0.0003*%
%ADD1306R,0.0477X0.0003*%
%ADD1307R,0.0438X0.0003*%
%ADD1308R,0.0300X0.0003*%
%ADD1309R,0.0018X0.0003*%
%ADD1310R,0.0933X0.0003*%
%ADD1311R,0.0021X0.0003*%
%ADD1312R,0.0294X0.0003*%
%ADD1313R,0.0933X0.0003*%
%ADD1314R,0.0291X0.0003*%
%ADD1315R,0.0033X0.0003*%
%ADD1316R,0.0663X0.0003*%
%ADD1317R,0.0039X0.0003*%
%ADD1318R,0.0048X0.0003*%
%ADD1319R,0.0462X0.0003*%
%ADD1320R,0.0651X0.0003*%
%ADD1321R,0.0648X0.0003*%
%ADD1322R,0.0246X0.0003*%
%ADD1323R,0.0453X0.0003*%
%ADD1324R,0.0420X0.0003*%
%ADD1325R,0.0069X0.0003*%
%ADD1326R,0.0639X0.0003*%
%ADD1327R,0.0087X0.0003*%
%ADD1328R,0.0630X0.0003*%
%ADD1329R,0.0624X0.0003*%
%ADD1330R,0.0099X0.0003*%
%ADD1331R,0.0930X0.0003*%
%ADD1332R,0.0249X0.0003*%
%ADD1333R,0.0426X0.0003*%
%ADD1334R,0.0186X0.0003*%
%ADD1335R,0.0108X0.0003*%
%ADD1336R,0.0927X0.0003*%
%ADD1337R,0.0252X0.0003*%
%ADD1338R,0.0414X0.0003*%
%ADD1339R,0.0393X0.0003*%
%ADD1340R,0.0258X0.0003*%
%ADD1341R,0.0126X0.0003*%
%ADD1342R,0.0609X0.0003*%
%ADD1343R,0.0129X0.0003*%
%ADD1344R,0.0606X0.0003*%
%ADD1345R,0.0252X0.0003*%
%ADD1346R,0.0921X0.0003*%
%ADD1347R,0.0378X0.0003*%
%ADD1348R,0.0153X0.0003*%
%ADD1349R,0.0393X0.0003*%
%ADD1350R,0.0378X0.0003*%
%ADD1351R,0.0372X0.0003*%
%ADD1352R,0.0591X0.0003*%
%ADD1353R,0.0915X0.0003*%
%ADD1354R,0.0258X0.0003*%
%ADD1355R,0.0378X0.0003*%
%ADD1356R,0.0222X0.0003*%
%ADD1357R,0.0588X0.0003*%
%ADD1358R,0.0183X0.0003*%
%ADD1359R,0.0915X0.0003*%
%ADD1360R,0.0189X0.0003*%
%ADD1361R,0.0912X0.0003*%
%ADD1362R,0.0363X0.0003*%
%ADD1363R,0.0261X0.0003*%
%ADD1364R,0.0909X0.0003*%
%ADD1365R,0.0261X0.0003*%
%ADD1366R,0.0357X0.0003*%
%ADD1367R,0.0576X0.0003*%
%ADD1368R,0.0909X0.0003*%
%ADD1369R,0.0567X0.0003*%
%ADD1370R,0.0264X0.0003*%
%ADD1371R,0.0327X0.0003*%
%ADD1372R,0.0564X0.0003*%
%ADD1373R,0.0198X0.0003*%
%ADD1374R,0.0267X0.0003*%
%ADD1375R,0.0558X0.0003*%
%ADD1376R,0.0267X0.0003*%
%ADD1377R,0.0297X0.0003*%
%ADD1378R,0.0552X0.0003*%
%ADD1379R,0.0237X0.0003*%
%ADD1380R,0.0531X0.0003*%
%ADD1381R,0.0342X0.0003*%
%ADD1382R,0.0273X0.0003*%
%ADD1383R,0.0261X0.0003*%
%ADD1384R,0.0288X0.0003*%
%ADD1385R,0.0102X0.0003*%
%ADD1386R,0.0537X0.0003*%
%ADD1387R,0.0012X0.0003*%
%ADD1388R,0.0519X0.0003*%
%ADD1389R,0.0282X0.0003*%
%ADD1390R,0.0282X0.0003*%
%ADD1391R,0.0015X0.0003*%
%ADD1392R,0.0309X0.0003*%
%ADD1393R,0.0234X0.0003*%
%ADD1394R,0.0042X0.0003*%
%ADD1395R,0.0117X0.0003*%
%ADD1396R,0.0192X0.0003*%
%ADD1397R,0.0513X0.0003*%
%ADD1398R,0.0222X0.0003*%
%ADD1399R,0.0027X0.0003*%
%ADD1400R,0.0084X0.0003*%
%ADD1401R,0.0297X0.0003*%
%ADD1402R,0.0087X0.0003*%
%ADD1403R,0.0036X0.0003*%
%ADD1404R,0.0504X0.0003*%
%ADD1405R,0.0039X0.0003*%
%ADD1406R,0.0507X0.0003*%
%ADD1407R,0.0252X0.0003*%
%ADD1408R,0.0504X0.0003*%
%ADD1409R,0.0057X0.0003*%
%ADD1410R,0.0507X0.0003*%
%ADD1411R,0.0402X0.0003*%
%ADD1412R,0.0408X0.0003*%
%ADD1413R,0.0492X0.0003*%
%ADD1414R,0.0324X0.0003*%
%ADD1415R,0.0072X0.0003*%
%ADD1416R,0.0336X0.0003*%
%ADD1417R,0.0501X0.0003*%
%ADD1418R,0.0432X0.0003*%
%ADD1419R,0.0339X0.0003*%
%ADD1420R,0.0471X0.0003*%
%ADD1421R,0.0093X0.0003*%
%ADD1422R,0.0528X0.0003*%
%ADD1423R,0.0111X0.0003*%
%ADD1424R,0.0366X0.0003*%
%ADD1425R,0.0561X0.0003*%
%ADD1426R,0.0384X0.0003*%
%ADD1427R,0.0279X0.0003*%
%ADD1428R,0.0276X0.0003*%
%ADD1429R,0.0306X0.0003*%
%ADD1430R,0.0579X0.0003*%
%ADD1431R,0.0606X0.0003*%
%ADD1432R,0.1452X0.0003*%
%ADD1433R,0.1458X0.0003*%
%ADD1434R,0.0756X0.0003*%
%ADD1435R,0.1467X0.0003*%
%ADD1436R,0.1479X0.0003*%
%ADD1437R,0.0804X0.0003*%
%ADD1438R,0.0681X0.0003*%
%ADD1439R,0.0846X0.0003*%
%ADD1440R,0.0756X0.0003*%
%ADD1441R,0.1509X0.0003*%
%ADD1442R,0.0045X0.0003*%
%ADD1443R,0.0051X0.0003*%
%ADD1444R,0.4113X0.0003*%
%ADD1445R,0.4110X0.0003*%
%ADD1446R,0.4110X0.0003*%
%ADD1447R,0.4107X0.0003*%
%ADD1448R,0.4104X0.0003*%
%ADD1449R,0.4104X0.0003*%
%ADD1450R,0.4101X0.0003*%
%ADD1451R,0.4098X0.0003*%
%ADD1452R,0.4098X0.0003*%
%ADD1453R,0.4095X0.0003*%
%ADD1454R,0.4095X0.0003*%
%ADD1455R,0.4092X0.0003*%
%ADD1456R,0.4089X0.0003*%
%ADD1457R,0.4089X0.0003*%
%ADD1458R,0.4086X0.0003*%
%ADD1459R,0.4083X0.0003*%
%ADD1460R,0.4083X0.0003*%
%ADD1461R,0.4080X0.0003*%
%ADD1462R,0.4077X0.0003*%
%ADD1463R,0.4077X0.0003*%
%ADD1464R,0.4074X0.0003*%
%ADD1465R,0.4071X0.0003*%
%ADD1466R,0.4071X0.0003*%
%ADD1467R,0.4068X0.0003*%
%ADD1468R,0.4065X0.0003*%
%ADD1469R,0.4062X0.0003*%
%ADD1470R,0.4062X0.0003*%
%ADD1471R,0.4059X0.0003*%
%ADD1472R,0.4056X0.0003*%
%ADD1473R,0.4056X0.0003*%
%ADD1474R,0.4053X0.0003*%
%ADD1475R,0.4050X0.0003*%
%ADD1476R,0.4050X0.0003*%
%ADD1477R,0.4047X0.0003*%
%ADD1478R,0.4044X0.0003*%
%ADD1479R,0.4041X0.0003*%
%ADD1480R,0.4041X0.0003*%
%ADD1481R,0.4038X0.0003*%
%ADD1482R,0.4035X0.0003*%
%ADD1483R,0.4035X0.0003*%
%ADD1484R,0.4032X0.0003*%
%ADD1485R,0.4029X0.0003*%
%ADD1486R,0.4026X0.0003*%
%ADD1487R,0.4026X0.0003*%
%ADD1488R,0.4023X0.0003*%
%ADD1489R,0.4020X0.0003*%
%ADD1490R,0.4017X0.0003*%
%ADD1491R,0.4017X0.0003*%
%ADD1492R,0.4014X0.0003*%
%ADD1493R,0.4011X0.0003*%
%ADD1494R,0.4011X0.0003*%
%ADD1495R,0.4008X0.0003*%
%ADD1496R,0.4005X0.0003*%
%ADD1497R,0.4002X0.0003*%
%ADD1498R,0.4002X0.0003*%
%ADD1499R,0.3999X0.0003*%
%ADD1500R,0.3996X0.0003*%
%ADD1501R,0.3993X0.0003*%
%ADD1502R,0.3993X0.0003*%
%ADD1503R,0.3990X0.0003*%
%ADD1504R,0.3987X0.0003*%
%ADD1505R,0.3984X0.0003*%
%ADD1506R,0.3984X0.0003*%
%ADD1507R,0.3981X0.0003*%
%ADD1508R,0.3978X0.0003*%
%ADD1509R,0.3975X0.0003*%
%ADD1510R,0.3975X0.0003*%
%ADD1511R,0.3972X0.0003*%
%ADD1512R,0.3969X0.0003*%
%ADD1513R,0.3966X0.0003*%
%ADD1514R,0.3963X0.0003*%
%ADD1515R,0.3963X0.0003*%
%ADD1516R,0.3960X0.0003*%
%ADD1517R,0.3957X0.0003*%
%ADD1518R,0.3954X0.0003*%
%ADD1519R,0.3951X0.0003*%
%ADD1520R,0.3948X0.0003*%
%ADD1521R,0.3945X0.0003*%
%ADD1522R,0.3945X0.0003*%
%ADD1523R,0.3942X0.0003*%
%ADD1524R,0.3939X0.0003*%
%ADD1525R,0.3936X0.0003*%
%ADD1526R,0.3933X0.0003*%
%ADD1527R,0.3930X0.0003*%
%ADD1528R,0.3927X0.0003*%
%ADD1529R,0.3924X0.0003*%
%ADD1530R,0.3921X0.0003*%
%ADD1531R,0.3918X0.0003*%
%ADD1532R,0.3915X0.0003*%
%ADD1533R,0.3912X0.0003*%
%ADD1534R,0.3909X0.0003*%
%ADD1535R,0.3906X0.0003*%
%ADD1536R,0.3903X0.0003*%
%ADD1537R,0.3900X0.0003*%
%ADD1538R,0.3900X0.0003*%
%ADD1539R,0.3897X0.0003*%
%ADD1540R,0.3894X0.0003*%
%ADD1541R,0.3891X0.0003*%
%ADD1542R,0.3888X0.0003*%
%ADD1543R,0.3885X0.0003*%
%ADD1544R,0.3882X0.0003*%
%ADD1545R,0.3879X0.0003*%
%ADD1546R,0.3879X0.0003*%
%ADD1547R,0.3876X0.0003*%
%ADD1548R,0.3873X0.0003*%
%ADD1549R,0.3870X0.0003*%
%ADD1550R,0.3867X0.0003*%
%ADD1551R,0.3864X0.0003*%
%ADD1552R,0.3861X0.0003*%
%ADD1553R,0.3858X0.0003*%
%ADD1554R,0.3855X0.0003*%
%ADD1555R,0.3852X0.0003*%
%ADD1556R,0.3849X0.0003*%
%ADD1557R,0.3846X0.0003*%
%ADD1558R,0.3843X0.0003*%
%ADD1559R,0.3840X0.0003*%
%ADD1560R,0.3840X0.0003*%
%ADD1561R,0.3837X0.0003*%
%ADD1562R,0.3834X0.0003*%
%ADD1563R,0.3831X0.0003*%
%ADD1564R,0.3828X0.0003*%
%ADD1565R,0.3825X0.0003*%
%ADD1566R,0.3822X0.0003*%
%ADD1567R,0.3819X0.0003*%
%ADD1568R,0.3816X0.0003*%
%ADD1569R,0.3813X0.0003*%
%ADD1570R,0.3810X0.0003*%
%ADD1571R,0.3807X0.0003*%
%ADD1572R,0.3804X0.0003*%
%ADD1573R,0.3804X0.0003*%
%ADD1574R,0.3801X0.0003*%
%ADD1575R,0.3798X0.0003*%
%ADD1576R,0.3795X0.0003*%
%ADD1577R,0.3792X0.0003*%
%ADD1578R,0.3789X0.0003*%
%ADD1579R,0.3786X0.0003*%
%ADD1580R,0.3783X0.0003*%
%ADD1581R,0.3780X0.0003*%
%ADD1582R,0.3777X0.0003*%
%ADD1583R,0.3774X0.0003*%
%ADD1584R,0.3771X0.0003*%
%ADD1585R,0.3768X0.0003*%
%ADD1586R,0.3762X0.0003*%
%ADD1587R,0.3762X0.0003*%
%ADD1588R,0.3759X0.0003*%
%ADD1589R,0.3756X0.0003*%
%ADD1590R,0.3753X0.0003*%
%ADD1591R,0.3750X0.0003*%
%ADD1592R,0.3747X0.0003*%
%ADD1593R,0.3744X0.0003*%
%ADD1594R,0.3741X0.0003*%
%ADD1595R,0.3738X0.0003*%
%ADD1596R,0.3735X0.0003*%
%ADD1597R,0.3732X0.0003*%
%ADD1598R,0.3729X0.0003*%
%ADD1599R,0.3726X0.0003*%
%ADD1600R,0.3723X0.0003*%
%ADD1601R,0.3720X0.0003*%
%ADD1602R,0.3717X0.0003*%
%ADD1603R,0.3714X0.0003*%
%ADD1604R,0.3711X0.0003*%
%ADD1605R,0.3708X0.0003*%
%ADD1606R,0.3705X0.0003*%
%ADD1607R,0.3702X0.0003*%
%ADD1608R,0.3696X0.0003*%
%ADD1609R,0.3690X0.0003*%
%ADD1610R,0.3687X0.0003*%
%ADD1611R,0.3684X0.0003*%
%ADD1612R,0.3681X0.0003*%
%ADD1613R,0.3678X0.0003*%
%ADD1614R,0.3675X0.0003*%
%ADD1615R,0.3672X0.0003*%
%ADD1616R,0.3669X0.0003*%
%ADD1617R,0.3666X0.0003*%
%ADD1618R,0.3663X0.0003*%
%ADD1619R,0.3660X0.0003*%
%ADD1620R,0.3657X0.0003*%
%ADD1621R,0.3654X0.0003*%
%ADD1622R,0.3648X0.0003*%
%ADD1623R,0.3645X0.0003*%
%ADD1624R,0.3642X0.0003*%
%ADD1625R,0.3639X0.0003*%
%ADD1626R,0.3636X0.0003*%
%ADD1627R,0.3630X0.0003*%
%ADD1628R,0.3618X0.0003*%
%ADD1629R,0.3612X0.0003*%
%ADD1630R,0.3609X0.0003*%
%ADD1631R,0.3606X0.0003*%
%ADD1632R,0.3603X0.0003*%
%ADD1633R,0.3600X0.0003*%
%ADD1634R,0.3594X0.0003*%
%ADD1635R,0.3591X0.0003*%
%ADD1636R,0.3588X0.0003*%
%ADD1637R,0.3585X0.0003*%
%ADD1638R,0.3582X0.0003*%
%ADD1639R,0.3576X0.0003*%
%ADD1640R,0.3570X0.0003*%
%ADD1641R,0.3564X0.0003*%
%ADD1642R,0.3558X0.0003*%
%ADD1643R,0.3552X0.0003*%
%ADD1644R,0.3549X0.0003*%
%ADD1645R,0.3546X0.0003*%
%ADD1646R,0.3540X0.0003*%
%ADD1647R,0.3534X0.0003*%
%ADD1648R,0.3528X0.0003*%
%ADD1649R,0.3522X0.0003*%
%ADD1650R,0.3519X0.0003*%
%ADD1651R,0.3510X0.0003*%
%ADD1652R,0.3504X0.0003*%
%ADD1653R,0.3498X0.0003*%
%ADD1654R,0.3492X0.0003*%
%ADD1655R,0.3486X0.0003*%
%ADD1656R,0.3480X0.0003*%
%ADD1657R,0.3474X0.0003*%
%ADD1658R,0.3471X0.0003*%
%ADD1659R,0.3468X0.0003*%
%ADD1660R,0.3462X0.0003*%
%ADD1661R,0.3459X0.0003*%
%ADD1662R,0.3456X0.0003*%
%ADD1663R,0.3450X0.0003*%
%ADD1664R,0.3447X0.0003*%
%ADD1665R,0.3444X0.0003*%
%ADD1666R,0.3438X0.0003*%
%ADD1667R,0.3429X0.0003*%
%ADD1668R,0.3426X0.0003*%
%ADD1669R,0.3414X0.0003*%
%ADD1670R,0.3408X0.0003*%
%ADD1671R,0.3402X0.0003*%
%ADD1672R,0.3396X0.0003*%
%ADD1673R,0.3393X0.0003*%
%ADD1674R,0.3390X0.0003*%
%ADD1675R,0.3384X0.0003*%
%ADD1676R,0.3381X0.0003*%
%ADD1677R,0.3375X0.0003*%
%ADD1678R,0.3372X0.0003*%
%ADD1679R,0.3366X0.0003*%
%ADD1680R,0.3357X0.0003*%
%ADD1681R,0.3354X0.0003*%
%ADD1682R,0.3348X0.0003*%
%ADD1683R,0.3345X0.0003*%
%ADD1684R,0.3339X0.0003*%
%ADD1685R,0.3336X0.0003*%
%ADD1686R,0.3321X0.0003*%
%ADD1687R,0.3318X0.0003*%
%ADD1688R,0.3312X0.0003*%
%ADD1689R,0.3309X0.0003*%
%ADD1690R,0.3303X0.0003*%
%ADD1691R,0.3294X0.0003*%
%ADD1692R,0.3291X0.0003*%
%ADD1693R,0.3285X0.0003*%
%ADD1694R,0.3282X0.0003*%
%ADD1695R,0.3276X0.0003*%
%ADD1696R,0.3267X0.0003*%
%ADD1697R,0.3261X0.0003*%
%ADD1698R,0.3258X0.0003*%
%ADD1699R,0.3252X0.0003*%
%ADD1700R,0.3246X0.0003*%
%ADD1701R,0.3243X0.0003*%
%ADD1702R,0.3237X0.0003*%
%ADD1703R,0.3231X0.0003*%
%ADD1704R,0.3228X0.0003*%
%ADD1705R,0.3222X0.0003*%
%ADD1706R,0.3219X0.0003*%
%ADD1707R,0.3213X0.0003*%
%ADD1708R,0.3207X0.0003*%
%ADD1709R,0.3204X0.0003*%
%ADD1710R,0.3198X0.0003*%
%ADD1711R,0.3192X0.0003*%
%ADD1712R,0.3189X0.0003*%
%ADD1713R,0.3183X0.0003*%
%ADD1714R,0.3177X0.0003*%
%ADD1715R,0.3174X0.0003*%
%ADD1716R,0.3168X0.0003*%
%ADD1717R,0.3162X0.0003*%
%ADD1718R,0.3156X0.0003*%
%ADD1719R,0.3153X0.0003*%
%ADD1720R,0.3147X0.0003*%
%ADD1721R,0.3141X0.0003*%
%ADD1722R,0.3135X0.0003*%
%ADD1723R,0.3132X0.0003*%
%ADD1724R,0.3126X0.0003*%
%ADD1725R,0.3114X0.0003*%
%ADD1726R,0.3108X0.0003*%
%ADD1727R,0.3105X0.0003*%
%ADD1728R,0.3099X0.0003*%
%ADD1729R,0.3093X0.0003*%
%ADD1730R,0.3087X0.0003*%
%ADD1731R,0.3084X0.0003*%
%ADD1732R,0.3078X0.0003*%
%ADD1733R,0.3072X0.0003*%
%ADD1734R,0.3066X0.0003*%
%ADD1735R,0.3054X0.0003*%
%ADD1736R,0.3051X0.0003*%
%ADD1737R,0.3045X0.0003*%
%ADD1738R,0.3039X0.0003*%
%ADD1739R,0.3033X0.0003*%
%ADD1740R,0.3027X0.0003*%
%ADD1741R,0.3021X0.0003*%
%ADD1742R,0.3015X0.0003*%
%ADD1743R,0.3009X0.0003*%
%ADD1744R,0.3003X0.0003*%
%ADD1745R,0.3000X0.0003*%
%ADD1746R,0.2994X0.0003*%
%ADD1747R,0.2988X0.0003*%
%ADD1748R,0.2982X0.0003*%
%ADD1749R,0.2976X0.0003*%
%ADD1750R,0.2964X0.0003*%
%ADD1751R,0.2958X0.0003*%
%ADD1752R,0.2952X0.0003*%
%ADD1753R,0.2946X0.0003*%
%ADD1754R,0.2934X0.0003*%
%ADD1755R,0.2928X0.0003*%
%ADD1756R,0.2922X0.0003*%
%ADD1757R,0.2916X0.0003*%
%ADD1758R,0.2904X0.0003*%
%ADD1759R,0.2892X0.0003*%
%ADD1760R,0.2883X0.0003*%
%ADD1761R,0.2877X0.0003*%
%ADD1762R,0.2871X0.0003*%
%ADD1763R,0.2865X0.0003*%
%ADD1764R,0.2859X0.0003*%
%ADD1765R,0.2853X0.0003*%
%ADD1766R,0.2847X0.0003*%
%ADD1767R,0.2838X0.0003*%
%ADD1768R,0.2832X0.0003*%
%ADD1769R,0.2826X0.0003*%
%ADD1770R,0.2820X0.0003*%
%ADD1771R,0.2814X0.0003*%
%ADD1772R,0.2808X0.0003*%
%ADD1773R,0.2802X0.0003*%
%ADD1774R,0.2793X0.0003*%
%ADD1775R,0.2787X0.0003*%
%ADD1776R,0.2781X0.0003*%
%ADD1777R,0.2766X0.0003*%
%ADD1778R,0.2760X0.0003*%
%ADD1779R,0.2754X0.0003*%
%ADD1780R,0.2748X0.0003*%
%ADD1781R,0.2739X0.0003*%
%ADD1782R,0.2733X0.0003*%
%ADD1783R,0.2727X0.0003*%
%ADD1784R,0.2718X0.0003*%
%ADD1785R,0.2712X0.0003*%
%ADD1786R,0.2706X0.0003*%
%ADD1787R,0.2697X0.0003*%
%ADD1788R,0.2691X0.0003*%
%ADD1789R,0.2676X0.0003*%
%ADD1790R,0.2670X0.0003*%
%ADD1791R,0.2664X0.0003*%
%ADD1792R,0.2649X0.0003*%
%ADD1793R,0.2634X0.0003*%
%ADD1794R,0.2625X0.0003*%
%ADD1795R,0.2619X0.0003*%
%ADD1796R,0.2589X0.0003*%
%ADD1797R,0.2559X0.0003*%
%ADD1798R,0.2526X0.0003*%
%ADD1799R,0.2502X0.0003*%
%ADD1800R,0.2496X0.0003*%
%ADD1801R,0.2472X0.0003*%
%ADD1802R,0.2463X0.0003*%
%ADD1803R,0.2454X0.0003*%
%ADD1804R,0.2445X0.0003*%
%ADD1805R,0.2439X0.0003*%
%ADD1806R,0.2430X0.0003*%
%ADD1807R,0.2421X0.0003*%
%ADD1808R,0.2415X0.0003*%
%ADD1809R,0.2406X0.0003*%
%ADD1810R,0.2397X0.0003*%
%ADD1811R,0.2388X0.0003*%
%ADD1812R,0.2379X0.0003*%
%ADD1813R,0.2370X0.0003*%
%ADD1814R,0.2361X0.0003*%
%ADD1815R,0.2352X0.0003*%
%ADD1816R,0.2343X0.0003*%
%ADD1817R,0.2337X0.0003*%
%ADD1818R,0.2328X0.0003*%
%ADD1819R,0.2316X0.0003*%
%ADD1820R,0.2298X0.0003*%
%ADD1821R,0.2289X0.0003*%
%ADD1822R,0.2271X0.0003*%
%ADD1823R,0.2262X0.0003*%
%ADD1824R,0.2253X0.0003*%
%ADD1825R,0.2244X0.0003*%
%ADD1826R,0.2235X0.0003*%
%ADD1827R,0.2226X0.0003*%
%ADD1828R,0.2217X0.0003*%
%ADD1829R,0.2208X0.0003*%
%ADD1830R,0.2196X0.0003*%
%ADD1831R,0.2187X0.0003*%
%ADD1832R,0.2178X0.0003*%
%ADD1833R,0.2169X0.0003*%
%ADD1834R,0.2157X0.0003*%
%ADD1835R,0.2148X0.0003*%
%ADD1836R,0.2139X0.0003*%
%ADD1837R,0.2127X0.0003*%
%ADD1838R,0.2118X0.0003*%
%ADD1839R,0.2109X0.0003*%
%ADD1840R,0.2097X0.0003*%
%ADD1841R,0.2088X0.0003*%
%ADD1842R,0.2076X0.0003*%
%ADD1843R,0.2067X0.0003*%
%ADD1844R,0.2055X0.0003*%
%ADD1845R,0.2046X0.0003*%
%ADD1846R,0.2034X0.0003*%
%ADD1847R,0.2022X0.0003*%
%ADD1848R,0.2013X0.0003*%
%ADD1849R,0.2001X0.0003*%
%ADD1850R,0.1992X0.0003*%
%ADD1851R,0.1968X0.0003*%
%ADD1852R,0.1956X0.0003*%
%ADD1853R,0.1947X0.0003*%
%ADD1854R,0.1935X0.0003*%
%ADD1855R,0.1923X0.0003*%
%ADD1856R,0.1911X0.0003*%
%ADD1857R,0.1902X0.0003*%
%ADD1858R,0.1890X0.0003*%
%ADD1859R,0.1878X0.0003*%
%ADD1860R,0.1866X0.0003*%
%ADD1861R,0.1854X0.0003*%
%ADD1862R,0.1842X0.0003*%
%ADD1863R,0.1830X0.0003*%
%ADD1864R,0.1791X0.0003*%
%ADD1865R,0.1779X0.0003*%
%ADD1866R,0.1764X0.0003*%
%ADD1867R,0.1752X0.0003*%
%ADD1868R,0.1725X0.0003*%
%ADD1869R,0.1716X0.0003*%
%ADD1870R,0.1701X0.0003*%
%ADD1871R,0.1686X0.0003*%
%ADD1872R,0.1674X0.0003*%
%ADD1873R,0.1659X0.0003*%
%ADD1874R,0.1644X0.0003*%
%ADD1875R,0.1632X0.0003*%
%ADD1876R,0.1617X0.0003*%
%ADD1877R,0.1602X0.0003*%
%ADD1878R,0.1590X0.0003*%
%ADD1879R,0.1572X0.0003*%
%ADD1880R,0.1530X0.0003*%
%ADD1881R,0.1512X0.0003*%
%ADD1882R,0.1500X0.0003*%
%ADD1883R,0.1482X0.0003*%
%ADD1884R,0.1452X0.0003*%
%ADD1885R,0.1434X0.0003*%
%ADD1886R,0.1416X0.0003*%
%ADD1887R,0.1404X0.0003*%
%ADD1888R,0.1383X0.0003*%
%ADD1889R,0.1365X0.0003*%
%ADD1890R,0.1332X0.0003*%
%ADD1891R,0.1314X0.0003*%
%ADD1892R,0.1296X0.0003*%
%ADD1893R,0.1278X0.0003*%
%ADD1894R,0.1257X0.0003*%
%ADD1895R,0.1242X0.0003*%
%ADD1896R,0.1218X0.0003*%
%ADD1897R,0.1200X0.0003*%
%ADD1898R,0.1182X0.0003*%
%ADD1899R,0.1119X0.0003*%
%ADD1900R,0.1053X0.0003*%
%ADD1901R,0.1026X0.0003*%
%ADD1902R,0.1002X0.0003*%
%ADD1903R,0.0978X0.0003*%
%ADD1904R,0.0951X0.0003*%
%ADD1905R,0.0924X0.0003*%
%ADD1906R,0.0870X0.0003*%
%ADD1907R,0.0843X0.0003*%
%ADD1908R,0.0642X0.0003*%
%ADD1909R,0.0510X0.0003*%
%ADD1910R,0.0108X0.0003*%
D10*
X001067Y003486D02*
X001067Y003713D01*
X000954Y003599D02*
X001181Y003599D01*
X001224Y004461D02*
X000997Y004461D01*
X000941Y004517D01*
X000941Y004631D01*
X000997Y004688D01*
X001224Y004688D02*
X001281Y004631D01*
X001281Y004517D01*
X001224Y004461D01*
X001281Y005461D02*
X000941Y005461D01*
X000941Y005631D01*
X000997Y005688D01*
X001224Y005688D01*
X001281Y005631D01*
X001281Y005461D01*
X001011Y006461D02*
X001011Y006688D01*
X001067Y007986D02*
X001067Y008213D01*
X000954Y008099D02*
X001181Y008099D01*
X001224Y008961D02*
X000997Y008961D01*
X000941Y009017D01*
X000941Y009131D01*
X000997Y009188D01*
X001224Y009188D02*
X001281Y009131D01*
X001281Y009017D01*
X001224Y008961D01*
X001281Y009961D02*
X000941Y009961D01*
X000941Y010131D01*
X000997Y010188D01*
X001224Y010188D01*
X001281Y010131D01*
X001281Y009961D01*
X001011Y010961D02*
X001011Y011188D01*
X004204Y012836D02*
X004431Y013063D01*
X004431Y012949D02*
X004204Y012949D01*
X004204Y013063D02*
X004431Y012836D01*
X004317Y012836D02*
X004317Y013063D01*
X005154Y012899D02*
X005381Y012899D01*
X006604Y012899D02*
X006831Y012899D01*
X006831Y012786D02*
X006604Y013013D01*
X006717Y013013D02*
X006717Y012786D01*
X006604Y012786D02*
X006831Y013013D01*
X007554Y012899D02*
X007781Y012899D01*
X008954Y012899D02*
X009181Y012899D01*
X009181Y012786D02*
X008954Y013013D01*
X009067Y013013D02*
X009067Y012786D01*
X008954Y012786D02*
X009181Y013013D01*
X010054Y012899D02*
X010281Y012899D01*
X011454Y012899D02*
X011681Y012899D01*
X011567Y012786D02*
X011567Y013013D01*
X012354Y013013D02*
X012581Y012786D01*
X012581Y012899D02*
X012354Y012899D01*
X012354Y012786D02*
X012581Y013013D01*
X012467Y013013D02*
X012467Y012786D01*
X013354Y012899D02*
X013581Y012899D01*
D11*
X013257Y008583D03*
X012627Y005502D03*
D12*
X012627Y005505D03*
D13*
X012627Y005508D03*
X013797Y007854D03*
X011364Y008094D03*
X011355Y008412D03*
D14*
X011354Y008427D03*
X011363Y008076D03*
X010115Y008547D03*
X008285Y007959D03*
X008264Y008541D03*
X012626Y005511D03*
X013826Y008253D03*
D15*
X013979Y007914D03*
X013223Y008643D03*
X011354Y008439D03*
X011363Y008067D03*
X012626Y005514D03*
X008414Y007827D03*
X008414Y007833D03*
X008411Y007863D03*
X008411Y007866D03*
X008411Y007869D03*
X008411Y007872D03*
X008411Y007878D03*
X008411Y007881D03*
X008411Y007884D03*
X008411Y007887D03*
X008408Y007908D03*
X008408Y007911D03*
X008408Y007914D03*
X008408Y007917D03*
X008408Y007923D03*
X008408Y007926D03*
X008408Y007929D03*
X008408Y007932D03*
X008408Y007938D03*
X008408Y007941D03*
X008408Y007944D03*
X008408Y007947D03*
X008408Y007953D03*
X008408Y007956D03*
X008267Y007944D03*
X008252Y008553D03*
X008027Y008682D03*
D16*
X008396Y008364D03*
X008396Y008361D03*
X008396Y008358D03*
X008396Y008352D03*
X008396Y008349D03*
X008396Y008346D03*
X008396Y008127D03*
X008396Y008124D03*
X008396Y008121D03*
X008396Y008118D03*
X008396Y008112D03*
X008801Y008088D03*
X008801Y008082D03*
X008801Y008079D03*
X008801Y008076D03*
X008801Y008073D03*
X008801Y008067D03*
X008945Y007917D03*
X009323Y008067D03*
X009323Y008073D03*
X009323Y008076D03*
X009323Y008079D03*
X009323Y008082D03*
X009320Y008094D03*
X009320Y008097D03*
X009317Y008109D03*
X009317Y008112D03*
X009314Y008121D03*
X009662Y008121D03*
X009662Y008118D03*
X009662Y008112D03*
X009662Y008109D03*
X009662Y008106D03*
X009662Y008103D03*
X009662Y008097D03*
X009662Y008094D03*
X009662Y008091D03*
X009662Y008088D03*
X009662Y008082D03*
X009662Y008079D03*
X009662Y008076D03*
X009662Y008073D03*
X009662Y008067D03*
X009662Y008064D03*
X009662Y008061D03*
X009662Y008058D03*
X009662Y008052D03*
X009662Y008049D03*
X009662Y008046D03*
X009662Y008043D03*
X009662Y008037D03*
X009662Y008034D03*
X009662Y008031D03*
X009662Y008028D03*
X009662Y008022D03*
X009662Y008019D03*
X009662Y008016D03*
X009662Y008013D03*
X009662Y008007D03*
X009662Y008004D03*
X009662Y008001D03*
X009662Y007998D03*
X009662Y007992D03*
X009662Y007989D03*
X009662Y007986D03*
X009662Y007983D03*
X009662Y007977D03*
X009662Y007974D03*
X009662Y007971D03*
X009662Y007968D03*
X009662Y007962D03*
X009662Y007959D03*
X009662Y007956D03*
X009662Y007953D03*
X009662Y007947D03*
X009662Y007944D03*
X009662Y007941D03*
X009662Y007938D03*
X009662Y007932D03*
X009662Y007929D03*
X009662Y007926D03*
X009662Y007923D03*
X009662Y007917D03*
X009662Y007914D03*
X009662Y007911D03*
X009662Y007908D03*
X009662Y007902D03*
X009662Y007899D03*
X009662Y007896D03*
X009662Y007893D03*
X009662Y007887D03*
X009662Y007884D03*
X009662Y007881D03*
X009662Y007878D03*
X009662Y007872D03*
X009662Y007869D03*
X009662Y007866D03*
X009662Y007863D03*
X009662Y007857D03*
X009662Y007854D03*
X009662Y007851D03*
X009662Y007848D03*
X009662Y007842D03*
X009662Y007839D03*
X009662Y007836D03*
X009662Y007833D03*
X009662Y007827D03*
X009662Y008124D03*
X009662Y008127D03*
X009662Y008133D03*
X009662Y008136D03*
X009662Y008139D03*
X009662Y008142D03*
X009662Y008148D03*
X009662Y008151D03*
X009662Y008154D03*
X009662Y008157D03*
X009662Y008163D03*
X009662Y008166D03*
X009662Y008169D03*
X009662Y008172D03*
X009662Y008178D03*
X009662Y008181D03*
X009662Y008184D03*
X009662Y008187D03*
X009662Y008193D03*
X009662Y008196D03*
X009662Y008199D03*
X009662Y008202D03*
X009662Y008208D03*
X009662Y008211D03*
X009662Y008214D03*
X009662Y008217D03*
X009662Y008223D03*
X009662Y008226D03*
X009662Y008229D03*
X009662Y008232D03*
X009662Y008238D03*
X009662Y008241D03*
X009662Y008244D03*
X009662Y008247D03*
X009662Y008253D03*
X009662Y008256D03*
X009662Y008259D03*
X009662Y008262D03*
X009662Y008268D03*
X009662Y008271D03*
X009662Y008274D03*
X009662Y008277D03*
X009662Y008283D03*
X009662Y008286D03*
X009662Y008289D03*
X009662Y008292D03*
X009662Y008298D03*
X009662Y008301D03*
X009662Y008304D03*
X009662Y008307D03*
X009662Y008313D03*
X009662Y008316D03*
X009662Y008319D03*
X009662Y008322D03*
X009662Y008328D03*
X009662Y008331D03*
X009662Y008334D03*
X009662Y008337D03*
X009662Y008343D03*
X009662Y008346D03*
X009662Y008349D03*
X009662Y008352D03*
X009662Y008358D03*
X009665Y008361D03*
X009665Y008364D03*
X009665Y008367D03*
X009665Y008373D03*
X009665Y008376D03*
X009665Y008379D03*
X009665Y008382D03*
X009665Y008388D03*
X009668Y008403D03*
X009668Y008406D03*
X010085Y008568D03*
X010247Y008382D03*
X010247Y008379D03*
X010247Y008376D03*
X010247Y008373D03*
X010247Y008367D03*
X010247Y008364D03*
X010247Y008361D03*
X010247Y007827D03*
X011354Y008451D03*
X012575Y008316D03*
X012575Y008313D03*
X012575Y008307D03*
X012575Y008304D03*
X012575Y008301D03*
X012575Y008298D03*
X012575Y008292D03*
X012575Y008289D03*
X012575Y008286D03*
X012575Y008283D03*
X012578Y008184D03*
X013025Y008568D03*
X013217Y008652D03*
X013820Y007827D03*
X012626Y005517D03*
X009056Y008682D03*
X008822Y008493D03*
X008819Y008487D03*
X008819Y008484D03*
X008819Y008481D03*
X008816Y008478D03*
X008813Y008466D03*
X008813Y008463D03*
X008810Y008454D03*
X008810Y008451D03*
X008804Y008418D03*
X008801Y008382D03*
X008801Y008379D03*
X008801Y008376D03*
X008801Y008373D03*
X008801Y008367D03*
X008801Y008364D03*
X008801Y008361D03*
X008801Y008358D03*
X007730Y008259D03*
X007730Y008256D03*
X007730Y008253D03*
X007730Y008247D03*
X007730Y008244D03*
X007733Y008196D03*
X007733Y008193D03*
X007739Y008151D03*
D17*
X007784Y008025D03*
X007751Y008400D03*
X007757Y008415D03*
X009128Y007815D03*
X009311Y007980D03*
X009287Y008175D03*
X009686Y008475D03*
X011774Y007860D03*
X012578Y008130D03*
X013979Y007920D03*
X012626Y005520D03*
D18*
X012624Y005523D03*
X011364Y008031D03*
X010233Y008457D03*
X009714Y008526D03*
X009711Y008523D03*
X009261Y008202D03*
X009288Y007941D03*
X009285Y007938D03*
X008964Y007908D03*
X008814Y008004D03*
X008814Y008007D03*
X008859Y008553D03*
X008865Y008559D03*
X008211Y008577D03*
X007800Y008502D03*
X007794Y008493D03*
X007818Y007974D03*
X007821Y007971D03*
X007824Y007968D03*
X012573Y008388D03*
X012573Y008391D03*
X013203Y008664D03*
D19*
X013977Y007926D03*
X011769Y007887D03*
X011364Y008019D03*
X011364Y008022D03*
X010227Y008478D03*
X009732Y008547D03*
X009729Y008544D03*
X008877Y008568D03*
X008820Y007989D03*
X007839Y007953D03*
X012624Y005526D03*
D20*
X012624Y005529D03*
X013029Y007929D03*
X011364Y008013D03*
X008370Y008478D03*
X007857Y007938D03*
D21*
X007851Y008556D03*
X008364Y008493D03*
X011364Y008004D03*
X011364Y008001D03*
X011763Y007914D03*
X011763Y007911D03*
X012624Y005532D03*
D22*
X012624Y005535D03*
X013029Y007935D03*
X008361Y007980D03*
X008358Y008505D03*
D23*
X007875Y008571D03*
X007896Y007917D03*
X010203Y008526D03*
X011364Y007983D03*
X012576Y008013D03*
X013029Y007938D03*
X013884Y008229D03*
X012624Y005538D03*
D24*
X012624Y005541D03*
X013515Y007833D03*
X013515Y007836D03*
X013515Y007839D03*
X013515Y007842D03*
X013515Y007848D03*
X013515Y007851D03*
X013029Y007941D03*
X012570Y008487D03*
X011769Y008577D03*
X011760Y008562D03*
X011757Y008559D03*
X011754Y008556D03*
X011754Y008553D03*
X011745Y008541D03*
X011739Y008532D03*
X011355Y008529D03*
X011364Y007974D03*
X009897Y008664D03*
X009060Y008673D03*
X008850Y007938D03*
X013977Y008562D03*
D25*
X012572Y008496D03*
X012143Y008547D03*
X011798Y008613D03*
X011789Y008601D03*
X011717Y008493D03*
X011714Y008487D03*
X012578Y007992D03*
X012623Y005544D03*
D26*
X012623Y005547D03*
X013970Y007956D03*
X013526Y008463D03*
X013526Y008466D03*
X013526Y008469D03*
X013025Y008538D03*
X012572Y008508D03*
X012143Y008544D03*
X011819Y008634D03*
X011816Y008631D03*
X011699Y008457D03*
X011696Y008451D03*
D27*
X011685Y008430D03*
X011364Y007950D03*
X013029Y007950D03*
X012624Y005550D03*
X008052Y007830D03*
D28*
X011354Y008559D03*
X011678Y008412D03*
X011678Y008409D03*
X012578Y007968D03*
X013031Y007953D03*
X013538Y008529D03*
X013538Y008532D03*
X013982Y008553D03*
X012623Y005553D03*
D29*
X012623Y005556D03*
X012578Y007956D03*
X013025Y008526D03*
X013544Y008556D03*
X013916Y008199D03*
X013967Y007974D03*
X011852Y008661D03*
X011666Y008382D03*
X009125Y007839D03*
D30*
X011363Y007926D03*
X011657Y008361D03*
X012569Y008541D03*
X013964Y007983D03*
X012623Y005559D03*
D31*
X012623Y005562D03*
X012578Y007944D03*
X013556Y008586D03*
X013556Y008589D03*
X013964Y007989D03*
X011654Y008352D03*
D32*
X012623Y005565D03*
D33*
X012623Y005568D03*
X012578Y007929D03*
X013031Y007977D03*
X012569Y008562D03*
X011639Y008313D03*
X011354Y008601D03*
X011363Y007902D03*
X013568Y008616D03*
X013937Y008157D03*
X013961Y008013D03*
D34*
X013958Y008022D03*
X013991Y008532D03*
X013571Y008619D03*
X012578Y007926D03*
X012146Y008502D03*
X011636Y008304D03*
X011636Y008301D03*
X011363Y007896D03*
X009113Y008262D03*
X012626Y010434D03*
X012623Y005571D03*
D35*
X012623Y005574D03*
X011363Y007887D03*
X011630Y008283D03*
X011630Y008286D03*
X012146Y008493D03*
X012569Y008574D03*
X013025Y008496D03*
X013031Y007986D03*
X013577Y008631D03*
X013946Y008121D03*
X013946Y008118D03*
X013955Y008052D03*
X013955Y008049D03*
X013955Y008046D03*
X013955Y008043D03*
X008051Y007848D03*
X008033Y008646D03*
D36*
X008031Y008643D03*
X010821Y007827D03*
X011628Y008229D03*
X012576Y007914D03*
X013581Y008637D03*
X012621Y005577D03*
D37*
X012623Y005580D03*
X013031Y007995D03*
D38*
X013026Y008478D03*
X013590Y008649D03*
X011355Y008637D03*
X011355Y008634D03*
X012621Y005583D03*
D39*
X012623Y005586D03*
X011363Y007857D03*
X011357Y008643D03*
X013025Y008472D03*
D40*
X013026Y008466D03*
X013599Y008658D03*
X012576Y007896D03*
X012147Y008448D03*
X011355Y008649D03*
X011355Y008652D03*
X010827Y007863D03*
X009120Y007872D03*
X008928Y008328D03*
X012621Y005589D03*
D41*
X012621Y005592D03*
X010830Y007878D03*
X009900Y008616D03*
X008049Y007866D03*
X012150Y008433D03*
X013026Y008454D03*
X013605Y008664D03*
X014466Y008037D03*
X014466Y008034D03*
X014466Y008031D03*
X014466Y008028D03*
X014463Y008022D03*
X014463Y008019D03*
X014463Y008016D03*
X014439Y007932D03*
X014436Y007926D03*
X014436Y007923D03*
X014433Y007917D03*
D42*
X014469Y008055D03*
X012621Y005595D03*
D43*
X012621Y005598D03*
X014412Y007878D03*
X014472Y008094D03*
X013026Y008439D03*
X012150Y008406D03*
X012150Y008403D03*
X010833Y007896D03*
X010833Y007893D03*
X009120Y007884D03*
X008049Y007872D03*
X008031Y008622D03*
D44*
X010833Y007902D03*
X010833Y007899D03*
X012576Y007881D03*
X013026Y008433D03*
X014406Y007869D03*
X012621Y005601D03*
D45*
X012621Y005604D03*
X010836Y007914D03*
X010785Y008664D03*
X010785Y008667D03*
X012153Y008361D03*
X012153Y008358D03*
X012153Y008352D03*
X012153Y008349D03*
X013026Y008418D03*
X013029Y008061D03*
X014469Y008136D03*
X008049Y007878D03*
X008031Y008616D03*
D46*
X008031Y008613D03*
X012156Y008331D03*
X012156Y008328D03*
X013026Y008409D03*
X013026Y008412D03*
X014391Y007848D03*
X012621Y005607D03*
D47*
X012621Y005610D03*
X010791Y008640D03*
D48*
X010794Y008634D03*
X010839Y007938D03*
X009903Y008586D03*
X008031Y008607D03*
X012621Y005613D03*
X014376Y007833D03*
X014463Y008178D03*
X013029Y008097D03*
X013029Y008094D03*
X013026Y008382D03*
D49*
X013026Y008376D03*
X013026Y008373D03*
X013026Y008112D03*
X014463Y008184D03*
X012621Y005616D03*
X009903Y008583D03*
X010794Y008628D03*
X008031Y008604D03*
D50*
X008031Y008598D03*
X008046Y007896D03*
X008973Y008298D03*
X009078Y008622D03*
X010800Y008613D03*
X013023Y008337D03*
X013023Y008334D03*
X013026Y008148D03*
X013026Y008142D03*
X014361Y007821D03*
X014460Y008199D03*
X012621Y005619D03*
D51*
X012621Y005622D03*
X013023Y008172D03*
X013023Y008178D03*
X013023Y008181D03*
X013023Y008184D03*
X013023Y008187D03*
X013023Y008307D03*
X013023Y008313D03*
X013023Y008316D03*
X013023Y008319D03*
X013023Y008322D03*
X009078Y008619D03*
X008046Y007899D03*
D52*
X010805Y008595D03*
X012620Y005625D03*
X014354Y007815D03*
D53*
X014346Y007812D03*
X014451Y008226D03*
X012621Y005628D03*
X010848Y007983D03*
X008046Y007908D03*
X008031Y008586D03*
D54*
X010850Y007992D03*
X012575Y007851D03*
X013655Y007818D03*
X014435Y008631D03*
X012620Y005631D03*
D55*
X012621Y005634D03*
X012573Y007848D03*
X010815Y008559D03*
X008994Y008277D03*
X014430Y008637D03*
X014439Y008544D03*
X014439Y008541D03*
X014439Y008538D03*
D56*
X014439Y008532D03*
X014439Y008529D03*
X014334Y007806D03*
X012621Y005637D03*
X010854Y008007D03*
X010815Y008553D03*
D57*
X012620Y005640D03*
D58*
X012621Y005643D03*
X014433Y008262D03*
D59*
X014429Y008268D03*
X014411Y008652D03*
X012620Y005646D03*
X010826Y008517D03*
D60*
X010862Y008046D03*
X010862Y008043D03*
X012620Y005649D03*
D61*
X012621Y005652D03*
X012573Y007836D03*
X012564Y008658D03*
X010833Y008499D03*
X010833Y008496D03*
X014421Y008277D03*
D62*
X012620Y005655D03*
D63*
X012620Y005658D03*
X013691Y007803D03*
X014414Y008286D03*
X014396Y008664D03*
X012566Y008661D03*
X010868Y008073D03*
D64*
X012621Y005661D03*
X014388Y008667D03*
D65*
X012620Y005664D03*
D66*
X012620Y005667D03*
X014405Y008298D03*
X010850Y008442D03*
D67*
X010854Y008430D03*
X012621Y005670D03*
D68*
X012620Y005673D03*
X010880Y008121D03*
X010880Y008124D03*
D69*
X012620Y005676D03*
D70*
X012620Y005679D03*
X010883Y008136D03*
D71*
X012620Y005682D03*
D72*
X012620Y005685D03*
D73*
X012620Y005688D03*
D74*
X012620Y005691D03*
X010895Y008181D03*
X010883Y008346D03*
X010880Y008352D03*
D75*
X010895Y008187D03*
X011957Y007986D03*
X012620Y005694D03*
D76*
X012620Y005697D03*
D77*
X012620Y005700D03*
D78*
X012620Y005703D03*
X010904Y008217D03*
X010898Y008304D03*
D79*
X010907Y008229D03*
X010907Y008226D03*
X012620Y005706D03*
D80*
X012620Y005709D03*
X010910Y008238D03*
D81*
X010911Y008244D03*
X010911Y008247D03*
X010911Y008268D03*
X010908Y008271D03*
X010908Y008274D03*
X012618Y005712D03*
X014346Y008337D03*
D82*
X012618Y005715D03*
D83*
X012620Y005718D03*
D84*
X012620Y005721D03*
D85*
X012618Y005724D03*
X011958Y008037D03*
D86*
X011958Y008043D03*
X012618Y005727D03*
D87*
X012620Y005730D03*
D88*
X012620Y005733D03*
D89*
X012618Y005736D03*
D90*
X012618Y005739D03*
X011955Y008067D03*
D91*
X011955Y008073D03*
X012618Y005742D03*
D92*
X012620Y005745D03*
D93*
X012620Y005748D03*
D94*
X012618Y005751D03*
D95*
X012618Y005754D03*
X011949Y008103D03*
X011949Y008106D03*
D96*
X012620Y005757D03*
D97*
X012620Y005760D03*
D98*
X012618Y005763D03*
X011943Y008133D03*
D99*
X011943Y008136D03*
X012618Y005766D03*
D100*
X012618Y005769D03*
D101*
X012618Y005772D03*
X011940Y008151D03*
D102*
X012620Y005775D03*
D103*
X012620Y005778D03*
D104*
X012618Y005781D03*
X011931Y008181D03*
X014256Y008514D03*
D105*
X014253Y008502D03*
X012627Y010392D03*
X011928Y008187D03*
X012618Y005784D03*
D106*
X012618Y005787D03*
X014253Y008496D03*
D107*
X012618Y005790D03*
D108*
X012620Y005793D03*
D109*
X012618Y005796D03*
X014244Y008421D03*
X014244Y008424D03*
X014244Y008427D03*
X014244Y008433D03*
D110*
X012618Y005799D03*
D111*
X012618Y005802D03*
D112*
X012618Y005805D03*
D113*
X012618Y005808D03*
D114*
X012620Y005811D03*
D115*
X012618Y005814D03*
D116*
X012618Y005817D03*
D117*
X012618Y005820D03*
D118*
X012618Y005823D03*
D119*
X012618Y005826D03*
D120*
X012618Y005829D03*
D121*
X012618Y005832D03*
D122*
X012618Y005835D03*
D123*
X012618Y005838D03*
D124*
X012618Y005841D03*
D125*
X012618Y005844D03*
D126*
X012618Y005847D03*
D127*
X012618Y005850D03*
D128*
X012618Y005853D03*
X013926Y007488D03*
D129*
X012618Y005856D03*
D130*
X012618Y005859D03*
D131*
X012618Y005862D03*
X013938Y007533D03*
X013938Y007536D03*
D132*
X013941Y007545D03*
X012618Y005865D03*
D133*
X012618Y005868D03*
X013944Y007557D03*
D134*
X012618Y005871D03*
D135*
X012618Y005874D03*
D136*
X012618Y005877D03*
X013953Y007593D03*
X013953Y007596D03*
D137*
X012618Y005880D03*
D138*
X012617Y005883D03*
X013961Y007626D03*
X013961Y007629D03*
D139*
X012617Y005886D03*
D140*
X012618Y005889D03*
X013968Y007659D03*
X013968Y007662D03*
D141*
X013971Y007674D03*
X013971Y007677D03*
X012618Y005892D03*
D142*
X012618Y005895D03*
D143*
X012618Y005898D03*
D144*
X012618Y005901D03*
D145*
X012618Y005904D03*
X013983Y007731D03*
X013983Y007734D03*
D146*
X013986Y007746D03*
X013986Y007749D03*
X012618Y005907D03*
D147*
X012618Y005910D03*
D148*
X012617Y005913D03*
D149*
X012617Y005916D03*
D150*
X012617Y005919D03*
D151*
X012617Y005922D03*
D152*
X012618Y005925D03*
D153*
X012618Y005928D03*
D154*
X012618Y005931D03*
D155*
X012618Y005934D03*
D156*
X012618Y005937D03*
D157*
X012618Y005940D03*
D158*
X012618Y005943D03*
D159*
X012618Y005946D03*
D160*
X012618Y005949D03*
D161*
X012617Y005952D03*
D162*
X012617Y005955D03*
D163*
X012617Y005958D03*
D164*
X012617Y005961D03*
D165*
X012617Y005964D03*
D166*
X012617Y005967D03*
D167*
X012618Y005970D03*
D168*
X012618Y005973D03*
D169*
X012618Y005976D03*
D170*
X012618Y005979D03*
D171*
X012618Y005982D03*
D172*
X012618Y005985D03*
D173*
X012618Y005988D03*
X012627Y010329D03*
D174*
X012618Y005991D03*
D175*
X012618Y005994D03*
D176*
X012618Y005997D03*
D177*
X012618Y006000D03*
D178*
X012618Y006003D03*
D179*
X012618Y006006D03*
D180*
X012617Y006009D03*
D181*
X012617Y006012D03*
D182*
X012617Y006015D03*
D183*
X012617Y006018D03*
D184*
X012617Y006021D03*
D185*
X012617Y006024D03*
D186*
X012617Y006027D03*
D187*
X012617Y006030D03*
D188*
X012617Y006033D03*
D189*
X012617Y006036D03*
D190*
X012617Y006039D03*
D191*
X012617Y006042D03*
D192*
X012617Y006045D03*
D193*
X012617Y006048D03*
D194*
X012617Y006051D03*
D195*
X012617Y006054D03*
D196*
X012617Y006057D03*
X011315Y008682D03*
D197*
X012617Y006060D03*
D198*
X012617Y006063D03*
D199*
X012617Y006066D03*
D200*
X012617Y006069D03*
D201*
X012617Y006072D03*
D202*
X012617Y006075D03*
D203*
X012617Y006078D03*
D204*
X012617Y006081D03*
D205*
X012617Y006084D03*
X012626Y010293D03*
D206*
X012617Y006087D03*
D207*
X012617Y006090D03*
X012626Y010290D03*
D208*
X012617Y006093D03*
D209*
X012617Y006096D03*
D210*
X012617Y006099D03*
D211*
X012617Y006102D03*
D212*
X012617Y006105D03*
D213*
X012617Y006108D03*
D214*
X012617Y006111D03*
D215*
X012617Y006114D03*
D216*
X012617Y006117D03*
D217*
X012617Y006120D03*
D218*
X012617Y006123D03*
D219*
X012617Y006126D03*
D220*
X012617Y006129D03*
D221*
X012617Y006132D03*
D222*
X012617Y006135D03*
D223*
X012617Y006138D03*
D224*
X012617Y006141D03*
D225*
X012617Y006144D03*
D226*
X012617Y006147D03*
D227*
X012617Y006150D03*
D228*
X012617Y006153D03*
D229*
X012618Y006156D03*
D230*
X012618Y006159D03*
D231*
X012618Y006162D03*
D232*
X012618Y006165D03*
D233*
X012618Y006168D03*
D234*
X012618Y006171D03*
D235*
X012618Y006174D03*
D236*
X012618Y006177D03*
D237*
X012618Y006180D03*
D238*
X012618Y006183D03*
X012627Y010251D03*
D239*
X012618Y006186D03*
D240*
X012618Y006189D03*
D241*
X012618Y006192D03*
D242*
X012618Y006195D03*
D243*
X012617Y006198D03*
D244*
X012617Y006201D03*
D245*
X012617Y006204D03*
D246*
X012617Y006207D03*
D247*
X012617Y006210D03*
D248*
X012617Y006213D03*
D249*
X012617Y006216D03*
X012626Y010236D03*
D250*
X012617Y006219D03*
D251*
X012617Y006222D03*
X012626Y010233D03*
D252*
X012618Y006225D03*
D253*
X012618Y006228D03*
D254*
X012618Y006231D03*
D255*
X012618Y006234D03*
D256*
X012618Y006237D03*
D257*
X012618Y006240D03*
D258*
X012618Y006243D03*
D259*
X012618Y006246D03*
D260*
X012617Y006249D03*
D261*
X012617Y006252D03*
D262*
X012617Y006255D03*
D263*
X012617Y006258D03*
D264*
X012617Y006261D03*
D265*
X012618Y006264D03*
D266*
X012618Y006267D03*
D267*
X012618Y006270D03*
D268*
X012618Y006273D03*
D269*
X012618Y006276D03*
D270*
X012618Y006279D03*
D271*
X012618Y006282D03*
D272*
X012618Y006285D03*
D273*
X012618Y006288D03*
D274*
X012617Y006291D03*
D275*
X012617Y006294D03*
D276*
X012617Y006297D03*
D277*
X012617Y006300D03*
D278*
X012618Y006303D03*
D279*
X012618Y006306D03*
D280*
X012618Y006309D03*
D281*
X012618Y006312D03*
X012627Y010191D03*
D282*
X012618Y006315D03*
D283*
X012618Y006318D03*
D284*
X012618Y006321D03*
D285*
X012618Y006324D03*
D286*
X012617Y006327D03*
D287*
X012617Y006330D03*
D288*
X012617Y006333D03*
D289*
X012618Y006336D03*
D290*
X012618Y006339D03*
D291*
X012618Y006342D03*
D292*
X012618Y006345D03*
D293*
X012618Y006348D03*
D294*
X012618Y006351D03*
D295*
X012617Y006354D03*
D296*
X012617Y006357D03*
D297*
X012617Y006360D03*
D298*
X012618Y006363D03*
D299*
X012618Y006366D03*
D300*
X012618Y006369D03*
D301*
X012618Y006372D03*
D302*
X012618Y006375D03*
D303*
X012618Y006378D03*
D304*
X012618Y006381D03*
D305*
X012617Y006384D03*
D306*
X012617Y006387D03*
D307*
X012618Y006390D03*
D308*
X012618Y006393D03*
D309*
X012618Y006396D03*
D310*
X012618Y006399D03*
D311*
X012618Y006402D03*
D312*
X012618Y006405D03*
D313*
X012618Y006408D03*
D314*
X012617Y006411D03*
D315*
X012618Y006414D03*
D316*
X012618Y006417D03*
D317*
X012618Y006420D03*
D318*
X012618Y006423D03*
D319*
X012618Y006426D03*
D320*
X012618Y006429D03*
D321*
X012618Y006432D03*
D322*
X012618Y006435D03*
D323*
X012618Y006438D03*
D324*
X012618Y006441D03*
D325*
X012618Y006444D03*
D326*
X012618Y006447D03*
D327*
X012618Y006450D03*
D328*
X012618Y006453D03*
D329*
X012618Y006456D03*
X012618Y006459D03*
D330*
X012618Y006462D03*
D331*
X012618Y006465D03*
D332*
X012618Y006468D03*
D333*
X012618Y006471D03*
D334*
X012618Y006474D03*
D335*
X012618Y006477D03*
D336*
X012618Y006480D03*
D337*
X012618Y006483D03*
X012627Y010101D03*
D338*
X012618Y006486D03*
D339*
X012618Y006489D03*
D340*
X012618Y006492D03*
D341*
X012618Y006495D03*
D342*
X012618Y006498D03*
D343*
X012618Y006501D03*
X012627Y010092D03*
D344*
X012618Y006504D03*
D345*
X012618Y006507D03*
D346*
X012618Y006510D03*
D347*
X012618Y006513D03*
D348*
X012620Y006516D03*
D349*
X012618Y006519D03*
D350*
X012618Y006522D03*
D351*
X012618Y006525D03*
D352*
X012618Y006528D03*
D353*
X012618Y006531D03*
D354*
X012620Y006534D03*
D355*
X012620Y006537D03*
D356*
X012618Y006540D03*
D357*
X012618Y006543D03*
D358*
X012618Y006546D03*
D359*
X012618Y006549D03*
D360*
X012620Y006552D03*
D361*
X012618Y006555D03*
D362*
X012618Y006558D03*
D363*
X012618Y006561D03*
D364*
X012618Y006564D03*
D365*
X012618Y006567D03*
D366*
X012620Y006570D03*
D367*
X012618Y006573D03*
D368*
X012618Y006576D03*
D369*
X012618Y006579D03*
D370*
X012618Y006582D03*
D371*
X012618Y006585D03*
D372*
X012620Y006588D03*
D373*
X012618Y006591D03*
D374*
X012618Y006594D03*
D375*
X012618Y006597D03*
X012030Y007482D03*
D376*
X012618Y006600D03*
D377*
X012620Y006603D03*
D378*
X012620Y006606D03*
D379*
X012618Y006609D03*
X012021Y007518D03*
X012021Y007521D03*
D380*
X012018Y007533D03*
X012618Y006612D03*
D381*
X012618Y006615D03*
X012015Y007545D03*
D382*
X012014Y007548D03*
X012014Y007551D03*
X012620Y006618D03*
D383*
X012620Y006621D03*
D384*
X012618Y006624D03*
D385*
X012618Y006627D03*
X012006Y007578D03*
X012006Y007581D03*
X012006Y007584D03*
X012627Y010017D03*
D386*
X012618Y006630D03*
D387*
X012620Y006633D03*
X012002Y007599D03*
X012002Y007602D03*
D388*
X011999Y007614D03*
X011999Y007617D03*
X012620Y006636D03*
X012626Y010011D03*
D389*
X012618Y006639D03*
D390*
X012618Y006642D03*
D391*
X012618Y006645D03*
X011991Y007650D03*
X012627Y010005D03*
D392*
X011990Y007656D03*
X011990Y007653D03*
X012620Y006648D03*
D393*
X012620Y006651D03*
X011987Y007668D03*
X011987Y007671D03*
D394*
X011985Y007674D03*
X011985Y007677D03*
X012618Y006654D03*
D395*
X012618Y006657D03*
D396*
X012618Y006660D03*
D397*
X012620Y006663D03*
D398*
X012620Y006666D03*
X011975Y007728D03*
D399*
X011973Y007731D03*
X011973Y007734D03*
X011973Y007737D03*
X012618Y006669D03*
D400*
X012618Y006672D03*
X011970Y007746D03*
X011970Y007749D03*
X011970Y007752D03*
D401*
X012618Y006675D03*
D402*
X012620Y006678D03*
D403*
X012620Y006681D03*
D404*
X012618Y006684D03*
X011961Y007794D03*
X011961Y007797D03*
X012627Y009981D03*
D405*
X012618Y006687D03*
D406*
X012620Y006690D03*
D407*
X012620Y006693D03*
D408*
X012620Y006696D03*
D409*
X012618Y006699D03*
D410*
X012618Y006702D03*
X012627Y009969D03*
D411*
X012620Y006705D03*
D412*
X012620Y006708D03*
D413*
X012620Y006711D03*
X012626Y009963D03*
D414*
X012618Y006714D03*
D415*
X012620Y006717D03*
D416*
X012620Y006720D03*
D417*
X012620Y006723D03*
D418*
X012618Y006726D03*
D419*
X012618Y006729D03*
D420*
X012620Y006732D03*
X012626Y009951D03*
D421*
X012620Y006735D03*
D422*
X012620Y006738D03*
D423*
X012618Y006741D03*
D424*
X012620Y006744D03*
D425*
X012620Y006747D03*
D426*
X012620Y006750D03*
D427*
X012618Y006753D03*
D428*
X012620Y006756D03*
D429*
X012620Y006759D03*
D430*
X012620Y006762D03*
D431*
X012620Y006765D03*
D432*
X012620Y006768D03*
D433*
X012620Y006771D03*
D434*
X012620Y006774D03*
D435*
X012620Y006777D03*
D436*
X012620Y006780D03*
D437*
X012620Y006783D03*
D438*
X012620Y006786D03*
D439*
X012620Y006789D03*
X012620Y006792D03*
X012626Y009912D03*
D440*
X012620Y006795D03*
D441*
X012620Y006798D03*
D442*
X012620Y006801D03*
X012620Y006804D03*
D443*
X012620Y006807D03*
D444*
X012620Y006810D03*
D445*
X012620Y006813D03*
X012620Y006816D03*
D446*
X012620Y006819D03*
D447*
X012620Y006822D03*
D448*
X012620Y006825D03*
D449*
X012620Y006828D03*
D450*
X012620Y006831D03*
D451*
X012620Y006834D03*
D452*
X012620Y006837D03*
D453*
X012620Y006840D03*
D454*
X012620Y006843D03*
D455*
X012620Y006846D03*
D456*
X012620Y006849D03*
X012620Y006852D03*
D457*
X012620Y006855D03*
D458*
X012620Y006858D03*
D459*
X012621Y006861D03*
D460*
X012620Y006864D03*
D461*
X012620Y006867D03*
D462*
X012620Y006870D03*
X012626Y009855D03*
D463*
X012621Y006873D03*
D464*
X012620Y006876D03*
D465*
X012620Y006879D03*
D466*
X012621Y006882D03*
X012627Y009849D03*
D467*
X012620Y006885D03*
D468*
X012620Y006888D03*
D469*
X012620Y006891D03*
D470*
X012621Y006894D03*
D471*
X012620Y006897D03*
D472*
X012620Y006900D03*
D473*
X012621Y006903D03*
X012627Y009834D03*
D474*
X012621Y006906D03*
D475*
X012620Y006909D03*
D476*
X012620Y006912D03*
D477*
X012621Y006915D03*
D478*
X012620Y006918D03*
D479*
X012620Y006921D03*
D480*
X012621Y006924D03*
X012627Y009819D03*
D481*
X012620Y006927D03*
D482*
X012620Y006930D03*
D483*
X012620Y006933D03*
D484*
X012621Y006936D03*
D485*
X012620Y006939D03*
D486*
X012620Y006942D03*
D487*
X012621Y006945D03*
D488*
X012620Y006948D03*
D489*
X012620Y006951D03*
D490*
X012620Y006954D03*
D491*
X012621Y006957D03*
D492*
X012620Y006960D03*
D493*
X012620Y006963D03*
D494*
X012621Y006966D03*
D495*
X012620Y006969D03*
D496*
X012620Y006972D03*
D497*
X012621Y006975D03*
D498*
X012620Y006978D03*
D499*
X012620Y006981D03*
D500*
X012621Y006984D03*
D501*
X012621Y006987D03*
X012627Y009771D03*
D502*
X012620Y006990D03*
D503*
X012621Y006993D03*
D504*
X012621Y006996D03*
D505*
X012620Y006999D03*
D506*
X012620Y007002D03*
D507*
X012621Y007005D03*
D508*
X012621Y007008D03*
D509*
X012620Y007011D03*
D510*
X012621Y007014D03*
D511*
X012621Y007017D03*
D512*
X012620Y007020D03*
D513*
X012621Y007023D03*
D514*
X012621Y007026D03*
D515*
X012620Y007029D03*
D516*
X012621Y007032D03*
X012627Y009738D03*
D517*
X012621Y007035D03*
D518*
X012620Y007038D03*
D519*
X012621Y007041D03*
D520*
X012621Y007044D03*
D521*
X012620Y007047D03*
D522*
X012621Y007050D03*
D523*
X012621Y007053D03*
D524*
X012620Y007056D03*
D525*
X012621Y007059D03*
D526*
X012621Y007062D03*
D527*
X012620Y007065D03*
D528*
X012621Y007068D03*
D529*
X012621Y007071D03*
X012621Y007074D03*
D530*
X012621Y007077D03*
D531*
X012621Y007080D03*
D532*
X012621Y007083D03*
D533*
X012621Y007086D03*
D534*
X012621Y007089D03*
X012621Y007092D03*
D535*
X012621Y007095D03*
D536*
X012621Y007098D03*
X012621Y007101D03*
D537*
X012621Y007104D03*
D538*
X012621Y007107D03*
D539*
X012621Y007110D03*
D540*
X012621Y007113D03*
D541*
X012621Y007116D03*
X012621Y007119D03*
D542*
X012621Y007122D03*
D543*
X012621Y007125D03*
D544*
X012621Y007128D03*
D545*
X012621Y007131D03*
D546*
X012623Y007134D03*
D547*
X012621Y007137D03*
D548*
X012621Y007140D03*
D549*
X012621Y007143D03*
D550*
X012621Y007146D03*
X012627Y009648D03*
D551*
X012621Y007152D03*
X012621Y007149D03*
D552*
X012621Y007155D03*
D553*
X012621Y007158D03*
X012621Y007161D03*
D554*
X012621Y007164D03*
D555*
X012623Y007167D03*
D556*
X012621Y007170D03*
X012627Y009630D03*
D557*
X012621Y007176D03*
X012621Y007173D03*
D558*
X012621Y007179D03*
D559*
X012621Y007182D03*
D560*
X012621Y007185D03*
D561*
X012621Y007188D03*
D562*
X012623Y007191D03*
X012626Y009612D03*
D563*
X012627Y009609D03*
X012621Y007194D03*
D564*
X012621Y007197D03*
D565*
X012623Y007200D03*
D566*
X012621Y007203D03*
D567*
X012623Y007206D03*
D568*
X012621Y007209D03*
D569*
X012621Y007212D03*
D570*
X012623Y007215D03*
D571*
X012621Y007218D03*
D572*
X012623Y007221D03*
X012626Y009588D03*
D573*
X012621Y007224D03*
D574*
X012621Y007227D03*
D575*
X012623Y007230D03*
D576*
X012621Y007233D03*
D577*
X012623Y007236D03*
D578*
X012621Y007239D03*
D579*
X012621Y007242D03*
D580*
X012623Y007245D03*
D581*
X012621Y007248D03*
D582*
X012623Y007251D03*
D583*
X012623Y007254D03*
X012626Y009558D03*
D584*
X012621Y007257D03*
D585*
X012623Y007260D03*
D586*
X012621Y007263D03*
D587*
X012623Y007266D03*
X012626Y009549D03*
D588*
X012626Y009546D03*
X012623Y007269D03*
D589*
X012621Y007272D03*
D590*
X012623Y007275D03*
D591*
X012621Y007278D03*
D592*
X012623Y007281D03*
X012626Y009537D03*
D593*
X012623Y007284D03*
D594*
X012621Y007287D03*
D595*
X012623Y007290D03*
D596*
X012621Y007293D03*
D597*
X012623Y007296D03*
D598*
X012623Y007299D03*
X012623Y007302D03*
D599*
X012623Y007305D03*
D600*
X012621Y007308D03*
D601*
X012623Y007311D03*
D602*
X012621Y007314D03*
D603*
X012623Y007317D03*
D604*
X012623Y007320D03*
D605*
X012623Y007323D03*
X012626Y009501D03*
D606*
X012623Y007329D03*
X012623Y007326D03*
D607*
X012623Y007332D03*
X012626Y009492D03*
D608*
X012623Y007335D03*
D609*
X012623Y007338D03*
D610*
X012623Y007341D03*
X012623Y007344D03*
X012626Y009483D03*
D611*
X012626Y009477D03*
X012623Y007347D03*
D612*
X012623Y007350D03*
D613*
X012623Y007353D03*
D614*
X012623Y007356D03*
X012623Y007359D03*
X012626Y009468D03*
D615*
X012623Y007362D03*
D616*
X012623Y007365D03*
D617*
X012623Y007368D03*
X012623Y007371D03*
X012626Y009459D03*
D618*
X012623Y007377D03*
X012623Y007374D03*
D619*
X012623Y007380D03*
D620*
X012623Y007383D03*
X012623Y007386D03*
X012626Y009444D03*
D621*
X012623Y007392D03*
X012623Y007389D03*
D622*
X012623Y007395D03*
X012626Y009435D03*
D623*
X012623Y007398D03*
D624*
X012623Y007401D03*
X012623Y007404D03*
X012626Y009429D03*
D625*
X012623Y007407D03*
D626*
X012623Y007410D03*
D627*
X012623Y007413D03*
D628*
X012624Y007416D03*
D629*
X012623Y007419D03*
D630*
X012623Y007422D03*
D631*
X012623Y007425D03*
D632*
X012623Y007428D03*
X012623Y007431D03*
D633*
X012623Y007434D03*
X012623Y007437D03*
D634*
X012623Y007440D03*
D635*
X012623Y007443D03*
X012626Y009393D03*
D636*
X012623Y007446D03*
D637*
X012624Y007449D03*
X012627Y009387D03*
D638*
X012626Y009384D03*
X012623Y007452D03*
D639*
X012624Y007455D03*
D640*
X012623Y007458D03*
X012626Y009378D03*
D641*
X012624Y007461D03*
D642*
X012623Y007464D03*
D643*
X012624Y007467D03*
D644*
X012623Y007470D03*
D645*
X012624Y007473D03*
D646*
X013923Y007476D03*
D647*
X012032Y007476D03*
X012032Y007479D03*
D648*
X013925Y007479D03*
X013925Y007482D03*
D649*
X013926Y007485D03*
D650*
X012030Y007485D03*
D651*
X012029Y007488D03*
X012029Y007491D03*
D652*
X013928Y007491D03*
X013928Y007494D03*
D653*
X012027Y007494D03*
X012027Y007497D03*
X012627Y010032D03*
D654*
X013929Y007497D03*
D655*
X013929Y007500D03*
D656*
X012026Y007500D03*
D657*
X013931Y007503D03*
X013931Y007506D03*
D658*
X012026Y007503D03*
D659*
X012024Y007506D03*
X012024Y007509D03*
D660*
X013932Y007509D03*
X013932Y007512D03*
D661*
X012023Y007512D03*
X012626Y010029D03*
D662*
X013934Y007515D03*
D663*
X012023Y007515D03*
D664*
X013934Y007518D03*
X012626Y010371D03*
D665*
X013935Y007524D03*
X013935Y007521D03*
D666*
X012020Y007524D03*
X012020Y007527D03*
D667*
X013937Y007527D03*
D668*
X013937Y007530D03*
D669*
X012018Y007530D03*
D670*
X012017Y007536D03*
X012017Y007539D03*
D671*
X013940Y007539D03*
X013940Y007542D03*
D672*
X012015Y007542D03*
D673*
X013941Y007548D03*
D674*
X013943Y007551D03*
X013943Y007554D03*
D675*
X012012Y007554D03*
X012012Y007557D03*
D676*
X013944Y007560D03*
D677*
X012011Y007560D03*
X012626Y010020D03*
D678*
X012626Y010368D03*
X013946Y007566D03*
X013946Y007563D03*
D679*
X012011Y007563D03*
D680*
X012009Y007566D03*
X012009Y007569D03*
X012009Y007572D03*
D681*
X013947Y007572D03*
X013947Y007569D03*
D682*
X013949Y007575D03*
D683*
X012008Y007575D03*
D684*
X013949Y007578D03*
D685*
X013950Y007581D03*
X013950Y007584D03*
D686*
X013952Y007587D03*
D687*
X012005Y007587D03*
D688*
X013952Y007590D03*
D689*
X012005Y007590D03*
D690*
X012003Y007593D03*
X012003Y007596D03*
D691*
X013955Y007599D03*
X013955Y007602D03*
D692*
X013955Y007605D03*
D693*
X012000Y007605D03*
D694*
X013956Y007608D03*
X013956Y007611D03*
D695*
X012000Y007611D03*
X012000Y007608D03*
D696*
X013958Y007614D03*
X013958Y007617D03*
D697*
X013959Y007620D03*
D698*
X011997Y007620D03*
D699*
X013959Y007623D03*
D700*
X011997Y007623D03*
D701*
X011996Y007626D03*
X011996Y007629D03*
X012626Y010008D03*
D702*
X013962Y007632D03*
D703*
X011994Y007632D03*
D704*
X013962Y007635D03*
D705*
X011994Y007635D03*
D706*
X013964Y007638D03*
X013964Y007641D03*
X013964Y007644D03*
D707*
X011993Y007644D03*
X011993Y007641D03*
X011993Y007638D03*
D708*
X013965Y007647D03*
D709*
X011991Y007647D03*
D710*
X013965Y007650D03*
D711*
X013967Y007653D03*
X013967Y007656D03*
X012626Y010362D03*
D712*
X011988Y007662D03*
X011988Y007659D03*
D713*
X013968Y007665D03*
D714*
X011987Y007665D03*
D715*
X013970Y007668D03*
X013970Y007671D03*
D716*
X013973Y007680D03*
D717*
X011984Y007680D03*
D718*
X013973Y007683D03*
X013973Y007686D03*
D719*
X011984Y007686D03*
X011984Y007683D03*
X012626Y009999D03*
D720*
X013974Y007692D03*
X013974Y007689D03*
D721*
X011982Y007689D03*
X011982Y007692D03*
D722*
X013976Y007695D03*
D723*
X011981Y007695D03*
D724*
X013976Y007698D03*
D725*
X011981Y007698D03*
D726*
X013977Y007701D03*
X013977Y007704D03*
X013977Y007707D03*
X012627Y010359D03*
D727*
X012627Y009996D03*
X011979Y007707D03*
X011979Y007704D03*
X011979Y007701D03*
D728*
X013979Y007710D03*
D729*
X011978Y007710D03*
D730*
X013979Y007713D03*
D731*
X011978Y007713D03*
X011978Y007716D03*
D732*
X013980Y007716D03*
X013980Y007719D03*
D733*
X011976Y007719D03*
X011976Y007722D03*
X012627Y009993D03*
D734*
X013982Y007728D03*
X013982Y007722D03*
D735*
X013982Y007725D03*
D736*
X011975Y007725D03*
D737*
X013985Y007737D03*
X013985Y007743D03*
D738*
X013985Y007740D03*
D739*
X011972Y007740D03*
D740*
X011972Y007743D03*
D741*
X013988Y007752D03*
X013988Y007758D03*
D742*
X013988Y007755D03*
D743*
X011969Y007755D03*
D744*
X011969Y007758D03*
X011969Y007761D03*
X012626Y009987D03*
D745*
X013989Y007764D03*
X013989Y007761D03*
D746*
X011967Y007764D03*
X011967Y007767D03*
D747*
X013991Y007767D03*
X013991Y007773D03*
D748*
X013991Y007770D03*
D749*
X011966Y007770D03*
D750*
X011966Y007773D03*
X011966Y007776D03*
D751*
X013992Y007776D03*
X013992Y007779D03*
D752*
X011964Y007779D03*
X011964Y007782D03*
X012627Y009984D03*
D753*
X013994Y007788D03*
X013994Y007782D03*
D754*
X013994Y007785D03*
D755*
X011964Y007785D03*
D756*
X011963Y007788D03*
X011963Y007791D03*
D757*
X013995Y007791D03*
X013995Y007794D03*
X013995Y007797D03*
D758*
X013997Y007800D03*
D759*
X011961Y007800D03*
D760*
X012564Y008652D03*
X010824Y008529D03*
X010824Y008526D03*
X014322Y007803D03*
X014415Y008649D03*
D761*
X013973Y007941D03*
X013157Y007803D03*
X012578Y008016D03*
X012572Y008469D03*
X012572Y008472D03*
X012143Y008556D03*
X011363Y007986D03*
X009770Y008574D03*
X008912Y008586D03*
X008843Y007947D03*
X008357Y007971D03*
D762*
X011951Y008094D03*
X011951Y008097D03*
X012566Y007803D03*
D763*
X011358Y007803D03*
D764*
X010829Y008511D03*
X013679Y007806D03*
X014426Y008271D03*
D765*
X013976Y007932D03*
X013169Y007806D03*
X012578Y008043D03*
X012578Y008046D03*
X012578Y008049D03*
X012572Y008439D03*
X012572Y008442D03*
X013025Y008556D03*
X011354Y008499D03*
X010217Y008502D03*
X009218Y008232D03*
X008831Y007968D03*
X009128Y007821D03*
X008369Y007998D03*
X007871Y007929D03*
X007847Y008553D03*
D766*
X012567Y007806D03*
D767*
X011340Y007806D03*
D768*
X010812Y008568D03*
X014340Y007809D03*
X014445Y008238D03*
X014442Y008556D03*
X014442Y008559D03*
D769*
X013673Y007809D03*
D770*
X013865Y008241D03*
X013175Y007809D03*
X011810Y007833D03*
X008885Y008574D03*
X008375Y008013D03*
X007835Y008541D03*
D771*
X012569Y007809D03*
D772*
X011330Y007809D03*
D773*
X011355Y008391D03*
X013251Y008598D03*
X013803Y008256D03*
X013983Y007908D03*
X013788Y007869D03*
X013236Y007866D03*
X009129Y007809D03*
D774*
X008051Y007809D03*
X011363Y008112D03*
X011354Y008394D03*
D775*
X010857Y008016D03*
X012564Y008649D03*
X013665Y007812D03*
D776*
X013181Y007812D03*
X013199Y008667D03*
X011354Y008481D03*
X010229Y008472D03*
X009251Y008211D03*
X008819Y007992D03*
X007811Y008517D03*
D777*
X010899Y008301D03*
X010899Y008298D03*
X010905Y008223D03*
X011958Y008001D03*
X012570Y007812D03*
D778*
X011318Y007812D03*
D779*
X011355Y008436D03*
X010107Y008553D03*
X010104Y008556D03*
X009255Y008574D03*
X008925Y007929D03*
X009129Y007812D03*
X008412Y007836D03*
X008412Y007839D03*
X008412Y007842D03*
X008412Y007848D03*
X008412Y007851D03*
X008412Y007854D03*
X008412Y007857D03*
X008409Y007893D03*
X008409Y007896D03*
X008409Y007899D03*
X008409Y007902D03*
X013209Y007833D03*
X013812Y007836D03*
D780*
X011364Y008064D03*
X010098Y008559D03*
X008790Y007896D03*
X008790Y007893D03*
X008790Y007887D03*
X008790Y007884D03*
X008787Y007869D03*
X008787Y007866D03*
X008787Y007863D03*
X008787Y007857D03*
X008787Y007854D03*
X008784Y007848D03*
X008784Y007842D03*
X008784Y007839D03*
X008784Y007836D03*
X008406Y007959D03*
X008406Y007962D03*
X008052Y007812D03*
X008247Y008556D03*
D781*
X013659Y007815D03*
D782*
X013187Y007815D03*
X012578Y008100D03*
X009710Y008520D03*
X008813Y008010D03*
D783*
X012570Y007815D03*
D784*
X011309Y007815D03*
D785*
X009294Y007950D03*
X008229Y007920D03*
X008052Y007815D03*
X007782Y008475D03*
D786*
X010802Y008601D03*
X010802Y008604D03*
X010847Y007968D03*
X012575Y007857D03*
X013022Y008193D03*
X013022Y008196D03*
X013022Y008199D03*
X013022Y008202D03*
X013022Y008208D03*
X013022Y008211D03*
X013022Y008214D03*
X013022Y008217D03*
X013022Y008223D03*
X013022Y008226D03*
X013022Y008229D03*
X013022Y008232D03*
X013022Y008238D03*
X013022Y008241D03*
X013022Y008244D03*
X013022Y008247D03*
X013022Y008253D03*
X013022Y008256D03*
X013022Y008259D03*
X013022Y008262D03*
X013022Y008268D03*
X013022Y008271D03*
X013022Y008274D03*
X013022Y008277D03*
X013022Y008283D03*
X013022Y008286D03*
X013022Y008289D03*
X013022Y008292D03*
X013022Y008298D03*
X013022Y008301D03*
X013022Y008304D03*
X014357Y007818D03*
X014450Y008613D03*
X014450Y008616D03*
D787*
X013848Y008247D03*
X013827Y007821D03*
X013191Y007818D03*
X012576Y008124D03*
X012576Y008127D03*
X012573Y008352D03*
X012573Y008358D03*
X012573Y008361D03*
X012573Y008364D03*
X012084Y007914D03*
X011781Y007851D03*
X011772Y007863D03*
X011355Y008463D03*
X010239Y008433D03*
X010071Y008574D03*
X009696Y008496D03*
X009693Y008493D03*
X009279Y008184D03*
X009282Y008181D03*
X009306Y007971D03*
X009300Y007959D03*
X008808Y008028D03*
X008808Y008031D03*
X008388Y008061D03*
X008388Y008064D03*
X008388Y008067D03*
X008388Y008409D03*
X008388Y008412D03*
X008217Y008574D03*
X008028Y008679D03*
X007770Y008451D03*
X007767Y008442D03*
X007764Y008439D03*
X007764Y008436D03*
X007788Y008016D03*
X007794Y008007D03*
X007797Y008001D03*
X008847Y008538D03*
D788*
X010875Y008367D03*
X010875Y008364D03*
X010890Y008169D03*
X010890Y008166D03*
X012570Y007818D03*
D789*
X011303Y007818D03*
D790*
X011768Y007884D03*
X011798Y007839D03*
X012578Y008079D03*
X012578Y008082D03*
X012572Y008406D03*
X013028Y007926D03*
X009725Y008541D03*
X009278Y007929D03*
X009128Y007818D03*
X008378Y008022D03*
X008378Y008454D03*
X008378Y008457D03*
X007817Y008523D03*
D791*
X007824Y008532D03*
X008028Y008676D03*
X008373Y008469D03*
X008880Y008571D03*
X008823Y007983D03*
X008376Y008016D03*
X008052Y007818D03*
X007854Y007941D03*
X009270Y007923D03*
X009738Y008553D03*
X009897Y008673D03*
X010224Y008484D03*
X011364Y008016D03*
X011766Y007896D03*
X012576Y008067D03*
X012573Y008418D03*
X012573Y008421D03*
X013023Y008559D03*
D792*
X013514Y007827D03*
X013514Y007824D03*
X013514Y007821D03*
X013889Y008226D03*
X011756Y007947D03*
X011354Y008526D03*
X007904Y007914D03*
D793*
X007769Y008052D03*
X007766Y008061D03*
X007754Y008088D03*
X007754Y008091D03*
X007754Y008094D03*
X007751Y008103D03*
X007736Y008328D03*
X007736Y008331D03*
X007736Y008334D03*
X007736Y008337D03*
X007739Y008346D03*
X007739Y008349D03*
X007739Y008352D03*
X008831Y008511D03*
X008831Y008514D03*
X008834Y008517D03*
X008804Y008052D03*
X008804Y008049D03*
X008804Y008046D03*
X008951Y007914D03*
X009299Y008157D03*
X009671Y008421D03*
X009674Y008433D03*
X009674Y008436D03*
X009674Y008439D03*
X010244Y008409D03*
X010244Y008406D03*
X010244Y008403D03*
X011354Y008457D03*
X013196Y007821D03*
D794*
X012572Y007821D03*
X014363Y008679D03*
X010868Y008391D03*
D795*
X011354Y008517D03*
X011834Y007821D03*
X008354Y008514D03*
D796*
X008033Y008619D03*
X009902Y008604D03*
X011363Y007821D03*
X012152Y008382D03*
X012152Y008388D03*
X014402Y007863D03*
X014405Y007866D03*
D797*
X013953Y008058D03*
X013953Y008061D03*
X012576Y007917D03*
X012069Y007944D03*
X011355Y008616D03*
X011355Y008619D03*
X010821Y007824D03*
X010821Y007821D03*
D798*
X011354Y008508D03*
X011762Y007923D03*
X011828Y007824D03*
X012578Y008028D03*
X012578Y008031D03*
X012572Y008457D03*
X012143Y008559D03*
X010211Y008514D03*
X009059Y008676D03*
X008903Y008583D03*
X008837Y007956D03*
X008363Y007983D03*
X008054Y007821D03*
X007883Y007923D03*
D799*
X010844Y007953D03*
X010844Y007956D03*
X010799Y008616D03*
X014366Y007824D03*
D800*
X013824Y007824D03*
X011364Y008046D03*
X010242Y008412D03*
X010242Y008418D03*
X010077Y008571D03*
X009687Y008478D03*
X009684Y008472D03*
X009684Y008469D03*
X009294Y008163D03*
X009300Y008154D03*
X009315Y007992D03*
X009312Y007989D03*
X009312Y007986D03*
X009312Y007983D03*
X008805Y008043D03*
X008835Y008523D03*
X007779Y008031D03*
X007770Y008049D03*
X007767Y008058D03*
X007764Y008064D03*
X007749Y008391D03*
X007749Y008394D03*
X007749Y008397D03*
X007752Y008403D03*
X007752Y008406D03*
X007755Y008412D03*
D801*
X008250Y007932D03*
X008799Y008091D03*
X008799Y008094D03*
X008799Y008097D03*
X008799Y008103D03*
X008799Y008106D03*
X008799Y008109D03*
X008799Y008112D03*
X008799Y008118D03*
X008799Y008121D03*
X008799Y008124D03*
X008799Y008127D03*
X008799Y008133D03*
X008799Y008136D03*
X008799Y008139D03*
X008799Y008142D03*
X008799Y008148D03*
X008799Y008151D03*
X008799Y008154D03*
X008799Y008157D03*
X008799Y008163D03*
X008799Y008166D03*
X008799Y008169D03*
X008799Y008172D03*
X008799Y008178D03*
X008799Y008181D03*
X008799Y008184D03*
X008799Y008187D03*
X008799Y008193D03*
X008799Y008196D03*
X008799Y008199D03*
X008799Y008202D03*
X008799Y008208D03*
X008799Y008211D03*
X008799Y008214D03*
X008799Y008217D03*
X008799Y008223D03*
X008799Y008226D03*
X008799Y008229D03*
X008799Y008232D03*
X008799Y008238D03*
X008799Y008241D03*
X008799Y008244D03*
X008799Y008247D03*
X008799Y008253D03*
X008799Y008256D03*
X008799Y008259D03*
X008799Y008262D03*
X008805Y008421D03*
X008805Y008424D03*
X008805Y008427D03*
X008805Y008433D03*
X008805Y008436D03*
X008808Y008439D03*
X008808Y008442D03*
X008808Y008448D03*
X008811Y008457D03*
X008814Y008469D03*
X008814Y008472D03*
X010248Y008538D03*
X010248Y008541D03*
X010248Y008544D03*
X010248Y008547D03*
X010248Y008553D03*
X010248Y008556D03*
X010248Y008559D03*
X010248Y008562D03*
X010248Y008568D03*
X010248Y008571D03*
X010248Y008574D03*
X010248Y008577D03*
X010248Y008583D03*
X010248Y008586D03*
X010248Y008589D03*
X010248Y008592D03*
X010248Y008598D03*
X010248Y008601D03*
X010248Y008604D03*
X010248Y008607D03*
X010248Y008613D03*
X010248Y008616D03*
X010248Y008619D03*
X010248Y008622D03*
X010248Y008628D03*
X010248Y008631D03*
X010248Y008634D03*
X010248Y008637D03*
X010248Y008643D03*
X010248Y008646D03*
X010248Y008649D03*
X010248Y008652D03*
X010248Y008658D03*
X010248Y008661D03*
X010248Y008664D03*
X010248Y008667D03*
X010248Y008673D03*
X010248Y008676D03*
X010248Y008679D03*
X010248Y008682D03*
X010248Y008688D03*
X010248Y008691D03*
X010248Y008694D03*
X010248Y008697D03*
X010248Y008703D03*
X010248Y008706D03*
X010248Y008709D03*
X010248Y008712D03*
X010248Y008718D03*
X010248Y008721D03*
X010248Y008724D03*
X010248Y008727D03*
X010248Y008733D03*
X010248Y008736D03*
X010248Y008739D03*
X010248Y008742D03*
X010248Y008748D03*
X010248Y008751D03*
X010248Y008754D03*
X010248Y008757D03*
X010248Y008763D03*
X010248Y008766D03*
X010248Y008769D03*
X010248Y008772D03*
X010248Y008778D03*
X010248Y008781D03*
X010248Y008784D03*
X010248Y008787D03*
X010248Y008793D03*
X010248Y008796D03*
X010248Y008799D03*
X010248Y008802D03*
X010248Y008808D03*
X010248Y008811D03*
X010248Y008814D03*
X010248Y008817D03*
X010248Y008823D03*
X010248Y008826D03*
X010248Y008829D03*
X010248Y008832D03*
X010248Y008838D03*
X010248Y008841D03*
X010248Y008844D03*
X010248Y008847D03*
X010248Y008853D03*
X010248Y008856D03*
X010248Y008859D03*
X010248Y008862D03*
X010248Y008868D03*
X010248Y008871D03*
X010248Y008874D03*
X010248Y008877D03*
X010248Y008883D03*
X010248Y008886D03*
X010248Y008889D03*
X010248Y008892D03*
X010248Y008898D03*
X010248Y008901D03*
X010248Y008904D03*
X010248Y008907D03*
X010248Y008913D03*
X010248Y008916D03*
X010248Y008919D03*
X010248Y008922D03*
X010248Y008928D03*
X010248Y008931D03*
X010248Y008934D03*
X010248Y008937D03*
X010248Y008943D03*
X010248Y008946D03*
X010248Y008949D03*
X010248Y008952D03*
X010248Y008958D03*
X010248Y008961D03*
X010248Y008964D03*
X010248Y008967D03*
X010248Y008973D03*
X010248Y008976D03*
X010248Y008979D03*
X010248Y008982D03*
X010248Y008988D03*
X010248Y008991D03*
X010248Y008994D03*
X010248Y008997D03*
X010248Y009003D03*
X010248Y009006D03*
X010248Y009009D03*
X010248Y009012D03*
X010248Y009018D03*
X010248Y009021D03*
X010248Y009024D03*
X010248Y009027D03*
X010248Y009033D03*
X010248Y009036D03*
X010248Y009039D03*
X010248Y009042D03*
X010248Y009048D03*
X010248Y009051D03*
X010248Y009054D03*
X010248Y009057D03*
X010248Y008358D03*
X010248Y008352D03*
X010248Y008349D03*
X010248Y008346D03*
X010248Y008343D03*
X010248Y008337D03*
X010248Y008334D03*
X010248Y008331D03*
X010248Y008328D03*
X010248Y008322D03*
X010248Y008319D03*
X010248Y008316D03*
X010248Y008313D03*
X010248Y008307D03*
X010248Y008304D03*
X010248Y008301D03*
X010248Y008298D03*
X010248Y008292D03*
X010248Y008289D03*
X010248Y008286D03*
X010248Y008283D03*
X010248Y008277D03*
X010248Y008274D03*
X010248Y008271D03*
X010248Y008268D03*
X010248Y008262D03*
X010248Y008259D03*
X010248Y008256D03*
X010248Y008253D03*
X010248Y008247D03*
X010248Y008244D03*
X010248Y008241D03*
X010248Y008238D03*
X010248Y008232D03*
X010248Y008229D03*
X010248Y008226D03*
X010248Y008223D03*
X010248Y008217D03*
X010248Y008214D03*
X010248Y008211D03*
X010248Y008208D03*
X010248Y008202D03*
X010248Y008199D03*
X010248Y008196D03*
X010248Y008193D03*
X010248Y008187D03*
X010248Y008184D03*
X010248Y008181D03*
X010248Y008178D03*
X010248Y008172D03*
X010248Y008169D03*
X010248Y008166D03*
X010248Y008163D03*
X010248Y008157D03*
X010248Y008154D03*
X010248Y008151D03*
X010248Y008148D03*
X010248Y008142D03*
X010248Y008139D03*
X010248Y008136D03*
X010248Y008133D03*
X010248Y008127D03*
X010248Y008124D03*
X010248Y008121D03*
X010248Y008118D03*
X010248Y008112D03*
X010248Y008109D03*
X010248Y008106D03*
X010248Y008103D03*
X010248Y008097D03*
X010248Y008094D03*
X010248Y008091D03*
X010248Y008088D03*
X010248Y008082D03*
X010248Y008079D03*
X010248Y008076D03*
X010248Y008073D03*
X010248Y008067D03*
X010248Y008064D03*
X010248Y008061D03*
X010248Y008058D03*
X010248Y008052D03*
X010248Y008049D03*
X010248Y008046D03*
X010248Y008043D03*
X010248Y008037D03*
X010248Y008034D03*
X010248Y008031D03*
X010248Y008028D03*
X010248Y008022D03*
X010248Y008019D03*
X010248Y008016D03*
X010248Y008013D03*
X010248Y008007D03*
X010248Y008004D03*
X010248Y008001D03*
X010248Y007998D03*
X010248Y007992D03*
X010248Y007989D03*
X010248Y007986D03*
X010248Y007983D03*
X010248Y007977D03*
X010248Y007974D03*
X010248Y007971D03*
X010248Y007968D03*
X010248Y007962D03*
X010248Y007959D03*
X010248Y007956D03*
X010248Y007953D03*
X010248Y007947D03*
X010248Y007944D03*
X010248Y007941D03*
X010248Y007938D03*
X010248Y007932D03*
X010248Y007929D03*
X010248Y007926D03*
X010248Y007923D03*
X010248Y007917D03*
X010248Y007914D03*
X010248Y007911D03*
X010248Y007908D03*
X010248Y007902D03*
X010248Y007899D03*
X010248Y007896D03*
X010248Y007893D03*
X010248Y007887D03*
X010248Y007884D03*
X010248Y007881D03*
X010248Y007878D03*
X010248Y007872D03*
X010248Y007869D03*
X010248Y007866D03*
X010248Y007863D03*
X010248Y007857D03*
X010248Y007854D03*
X010248Y007851D03*
X010248Y007848D03*
X010248Y007842D03*
X010248Y007839D03*
X010248Y007836D03*
X010248Y007833D03*
X012576Y008187D03*
X012576Y008193D03*
X012576Y008196D03*
X012576Y008199D03*
X012576Y008202D03*
X012576Y008208D03*
X012576Y008211D03*
X012576Y008214D03*
X012576Y008217D03*
X012576Y008223D03*
X012576Y008226D03*
X012576Y008229D03*
X012576Y008232D03*
X012576Y008238D03*
X012576Y008241D03*
X012576Y008244D03*
X012576Y008247D03*
X012576Y008253D03*
X012576Y008256D03*
X012576Y008259D03*
X012576Y008262D03*
X012576Y008268D03*
X012576Y008271D03*
X012576Y008274D03*
X012576Y008277D03*
X013200Y007824D03*
X013980Y007917D03*
D802*
X014372Y008676D03*
X012572Y007824D03*
X010859Y008418D03*
D803*
X011363Y007827D03*
X011363Y007824D03*
X012152Y008391D03*
X012152Y008394D03*
X012152Y008397D03*
X013031Y008046D03*
X013031Y008043D03*
X014408Y007872D03*
X014471Y008097D03*
X014471Y008103D03*
X014471Y008106D03*
X009902Y008607D03*
D804*
X010206Y008523D03*
X009198Y008241D03*
X009126Y007824D03*
X008358Y007974D03*
X012576Y008019D03*
X013881Y008232D03*
D805*
X009777Y008577D03*
X008847Y008352D03*
X008847Y007941D03*
X008052Y007824D03*
D806*
X010844Y007947D03*
X014369Y007827D03*
D807*
X013203Y007827D03*
D808*
X012573Y007827D03*
X012564Y008667D03*
X010851Y008439D03*
X010875Y008106D03*
X010875Y008103D03*
D809*
X011762Y007917D03*
X011822Y007827D03*
X012578Y008037D03*
X013028Y007932D03*
X012572Y008448D03*
X012572Y008451D03*
X012143Y008562D03*
X009758Y008568D03*
X008363Y008496D03*
X007877Y007926D03*
D810*
X007881Y008574D03*
X008349Y008523D03*
X009126Y007827D03*
X010200Y008532D03*
X011364Y007977D03*
X012576Y008007D03*
X012570Y008481D03*
X013023Y008547D03*
D811*
X012143Y008577D03*
X011354Y008442D03*
X010094Y008562D03*
X008933Y007923D03*
X008792Y007917D03*
X008792Y007914D03*
X008792Y007911D03*
X008792Y007908D03*
X008792Y007902D03*
X008792Y007899D03*
X008789Y007881D03*
X008789Y007878D03*
X008789Y007872D03*
X008786Y007851D03*
X008783Y007833D03*
X008783Y007827D03*
X008264Y007941D03*
X008243Y008559D03*
X013814Y007833D03*
D812*
X013980Y008559D03*
X013029Y007944D03*
X012570Y008499D03*
X011802Y008616D03*
X011712Y008484D03*
X011712Y008481D03*
X011709Y008478D03*
X011355Y008538D03*
X009897Y008661D03*
X008052Y007827D03*
D813*
X013026Y008370D03*
X014373Y007830D03*
D814*
X013817Y007830D03*
X008255Y007935D03*
D815*
X011756Y007950D03*
X013514Y007830D03*
D816*
X013206Y007830D03*
X008793Y007920D03*
X008790Y007890D03*
X008787Y007860D03*
X008784Y007845D03*
D817*
X010871Y008085D03*
X010844Y008460D03*
X012572Y007830D03*
D818*
X011816Y007830D03*
D819*
X011363Y007830D03*
X010832Y007890D03*
X013031Y008040D03*
X014471Y008085D03*
D820*
X013583Y008640D03*
X012569Y008580D03*
X011624Y008265D03*
X011627Y008235D03*
X011363Y007875D03*
X010823Y007830D03*
D821*
X011364Y008055D03*
X010248Y008055D03*
X010248Y008040D03*
X010248Y008025D03*
X010248Y008010D03*
X010248Y007995D03*
X010248Y007980D03*
X010248Y007965D03*
X010248Y007950D03*
X010248Y007935D03*
X010248Y007920D03*
X010248Y007905D03*
X010248Y007890D03*
X010248Y007875D03*
X010248Y007860D03*
X010248Y007845D03*
X010248Y007830D03*
X010248Y008070D03*
X010248Y008085D03*
X010248Y008100D03*
X010248Y008115D03*
X010248Y008130D03*
X010248Y008145D03*
X010248Y008160D03*
X010248Y008175D03*
X010248Y008190D03*
X010248Y008205D03*
X010248Y008220D03*
X010248Y008235D03*
X010248Y008250D03*
X010248Y008265D03*
X010248Y008280D03*
X010248Y008295D03*
X010248Y008310D03*
X010248Y008325D03*
X010248Y008340D03*
X010248Y008355D03*
X010248Y008550D03*
X010248Y008565D03*
X010248Y008580D03*
X010248Y008595D03*
X010248Y008610D03*
X010248Y008625D03*
X010248Y008640D03*
X010248Y008655D03*
X010248Y008670D03*
X010248Y008685D03*
X010248Y008700D03*
X010248Y008715D03*
X010248Y008730D03*
X010248Y008745D03*
X010248Y008760D03*
X010248Y008775D03*
X010248Y008790D03*
X010248Y008805D03*
X010248Y008820D03*
X010248Y008835D03*
X010248Y008850D03*
X010248Y008865D03*
X010248Y008880D03*
X010248Y008895D03*
X010248Y008910D03*
X010248Y008925D03*
X010248Y008940D03*
X010248Y008955D03*
X010248Y008970D03*
X010248Y008985D03*
X010248Y009000D03*
X010248Y009015D03*
X010248Y009030D03*
X010248Y009045D03*
X010248Y009060D03*
X008811Y008460D03*
X008808Y008445D03*
X008805Y008430D03*
X008799Y008250D03*
X008799Y008235D03*
X008799Y008220D03*
X008799Y008205D03*
X008799Y008190D03*
X008799Y008175D03*
X008799Y008160D03*
X008799Y008145D03*
X008799Y008130D03*
X008799Y008115D03*
X008799Y008100D03*
X012576Y008190D03*
X012576Y008205D03*
X012576Y008220D03*
X012576Y008235D03*
X012576Y008250D03*
X012576Y008265D03*
X012576Y008280D03*
X013839Y008250D03*
D822*
X012575Y008295D03*
X012575Y008310D03*
X010247Y008370D03*
X009665Y008370D03*
X009665Y008385D03*
X009662Y008355D03*
X009662Y008340D03*
X009662Y008325D03*
X009662Y008310D03*
X009662Y008295D03*
X009662Y008280D03*
X009662Y008265D03*
X009662Y008250D03*
X009662Y008235D03*
X009662Y008220D03*
X009662Y008205D03*
X009662Y008190D03*
X009662Y008175D03*
X009662Y008160D03*
X009662Y008145D03*
X009662Y008130D03*
X009662Y008115D03*
X009662Y008100D03*
X009662Y008085D03*
X009662Y008070D03*
X009662Y008055D03*
X009662Y008040D03*
X009662Y008025D03*
X009662Y008010D03*
X009662Y007995D03*
X009662Y007980D03*
X009662Y007965D03*
X009662Y007950D03*
X009662Y007935D03*
X009662Y007920D03*
X009662Y007905D03*
X009662Y007890D03*
X009662Y007875D03*
X009662Y007860D03*
X009662Y007845D03*
X009662Y007830D03*
X009323Y008070D03*
X009323Y008085D03*
X009320Y008100D03*
X008801Y008085D03*
X008801Y008070D03*
X008801Y008355D03*
X008801Y008370D03*
X008804Y008415D03*
X008816Y008475D03*
X008822Y008490D03*
X008396Y008355D03*
X008234Y008565D03*
X008396Y008130D03*
X008396Y008115D03*
X007733Y008190D03*
X007730Y008250D03*
D823*
X009126Y007830D03*
X011796Y008610D03*
X013521Y008415D03*
X013521Y008400D03*
X013896Y008220D03*
D824*
X008792Y007905D03*
X008789Y007875D03*
X008783Y007830D03*
D825*
X008414Y007830D03*
X008411Y007860D03*
X008411Y007875D03*
X008411Y007890D03*
X008408Y007905D03*
X008408Y007920D03*
X008408Y007935D03*
X008408Y007950D03*
D826*
X010839Y008478D03*
X010839Y008481D03*
X012573Y007833D03*
D827*
X013610Y008667D03*
X014468Y008064D03*
X014423Y007896D03*
X011363Y007836D03*
X011363Y007833D03*
X010832Y007884D03*
X010832Y007887D03*
X011357Y008667D03*
D828*
X011624Y008268D03*
X011627Y008232D03*
X011363Y007878D03*
X010823Y007833D03*
X012146Y008481D03*
X012146Y008484D03*
X013031Y007992D03*
X008051Y007851D03*
D829*
X007908Y008583D03*
X008031Y008664D03*
X009126Y007833D03*
X011688Y008433D03*
X012576Y007974D03*
X013533Y008508D03*
X013533Y008511D03*
X013968Y007962D03*
D830*
X013542Y008553D03*
X011847Y008658D03*
X011667Y008388D03*
X008052Y007833D03*
D831*
X009117Y007902D03*
X010839Y007932D03*
X013029Y008088D03*
X013029Y008091D03*
X014379Y007836D03*
D832*
X013212Y007836D03*
X013227Y008637D03*
X008277Y007953D03*
X008262Y008544D03*
D833*
X007823Y008529D03*
X007847Y007947D03*
X008216Y007914D03*
X008378Y008019D03*
X008822Y007986D03*
X010226Y008481D03*
X011354Y008484D03*
X011354Y008487D03*
X011768Y007893D03*
X011804Y007836D03*
X012083Y007917D03*
X012578Y008073D03*
X012578Y008076D03*
D834*
X012569Y008583D03*
X011621Y008259D03*
X011621Y008256D03*
X011621Y008247D03*
X011624Y008244D03*
X011624Y008241D03*
X011363Y007872D03*
X010823Y007836D03*
X009068Y008652D03*
X008051Y007854D03*
X013586Y008643D03*
D835*
X011840Y008652D03*
X011675Y008406D03*
X009125Y007836D03*
D836*
X009135Y008259D03*
X008052Y007836D03*
X011355Y008574D03*
X011355Y008577D03*
X012144Y008526D03*
X013029Y007962D03*
D837*
X014384Y007839D03*
X014468Y008163D03*
X010838Y007929D03*
X009902Y008592D03*
X008048Y007884D03*
D838*
X008280Y007956D03*
X011364Y008073D03*
X013809Y007839D03*
D839*
X013806Y007842D03*
X013215Y007839D03*
X013230Y008634D03*
X011364Y008079D03*
X010119Y008544D03*
X009258Y008571D03*
X008268Y008538D03*
X008286Y007962D03*
D840*
X012573Y007839D03*
D841*
X013031Y008028D03*
X012149Y008427D03*
X011357Y008661D03*
X011363Y007842D03*
X011363Y007839D03*
X009071Y008643D03*
X008033Y008628D03*
X014429Y007908D03*
X014432Y007911D03*
X014432Y007914D03*
X014468Y008043D03*
X014468Y008046D03*
X014468Y008049D03*
D842*
X013587Y008646D03*
X013029Y007998D03*
X011619Y008253D03*
X011355Y008631D03*
X010824Y007842D03*
X010824Y007839D03*
D843*
X011364Y007917D03*
X011649Y008343D03*
X011652Y008346D03*
X011652Y008349D03*
X011355Y008583D03*
X011355Y008586D03*
X012144Y008517D03*
X012570Y008547D03*
X013557Y008592D03*
X013962Y007992D03*
X008052Y007839D03*
D844*
X009075Y008631D03*
X009117Y007899D03*
X010839Y007926D03*
X010788Y008649D03*
X010788Y008652D03*
X012567Y008622D03*
X013026Y008406D03*
X013026Y008403D03*
X013029Y008082D03*
X013029Y008079D03*
X013029Y008076D03*
X014385Y007842D03*
D845*
X013218Y007842D03*
D846*
X012575Y007842D03*
X014435Y008259D03*
X014420Y008646D03*
D847*
X013973Y008574D03*
X013025Y008562D03*
X012578Y008097D03*
X012578Y008094D03*
X012578Y008091D03*
X012578Y008088D03*
X011795Y007842D03*
X011771Y007878D03*
X011366Y008028D03*
X010232Y008463D03*
X009719Y008532D03*
X009716Y008529D03*
X009254Y008208D03*
X008816Y008001D03*
X008381Y008034D03*
X008381Y008442D03*
X007805Y008508D03*
X007796Y008496D03*
D848*
X009063Y008664D03*
X009897Y008649D03*
X009123Y007842D03*
X011364Y007923D03*
X011655Y008358D03*
X011859Y008667D03*
X012144Y008523D03*
X012570Y008544D03*
X012576Y007947D03*
X013554Y008583D03*
X013986Y008544D03*
X013923Y008187D03*
X013965Y007986D03*
D849*
X013961Y008007D03*
X013934Y008163D03*
X013934Y008166D03*
X012071Y007938D03*
X009899Y008643D03*
X008051Y007842D03*
D850*
X014388Y007845D03*
D851*
X013805Y007845D03*
X012143Y008580D03*
D852*
X011772Y008580D03*
X011760Y008565D03*
X011742Y008535D03*
X010197Y008535D03*
X013515Y007845D03*
D853*
X013221Y007845D03*
X013236Y008625D03*
D854*
X012573Y007845D03*
D855*
X012573Y008385D03*
X011790Y007845D03*
X010233Y008460D03*
X009258Y008205D03*
X007791Y008490D03*
D856*
X009122Y007875D03*
X011363Y007845D03*
X014447Y007950D03*
X014462Y008010D03*
D857*
X012576Y007905D03*
X010824Y007845D03*
D858*
X009123Y007845D03*
X013929Y008175D03*
D859*
X011364Y008070D03*
X008412Y007845D03*
X008274Y007950D03*
D860*
X008051Y007845D03*
X009899Y008640D03*
X012569Y008565D03*
X013031Y007980D03*
X013958Y008025D03*
D861*
X013982Y007911D03*
X013802Y007848D03*
X011363Y008088D03*
X011354Y008418D03*
X009263Y008568D03*
D862*
X011363Y008091D03*
X013223Y007848D03*
X013799Y007851D03*
X013238Y008622D03*
D863*
X012578Y008121D03*
X012578Y008118D03*
X011786Y007848D03*
X011774Y007866D03*
X011354Y008466D03*
X010238Y008442D03*
X010238Y008439D03*
X010238Y008436D03*
X009704Y008511D03*
X009698Y008502D03*
X009698Y008499D03*
X009278Y008187D03*
X009302Y007962D03*
X009299Y007956D03*
X008849Y008541D03*
X008852Y008544D03*
X008387Y008421D03*
X008387Y008418D03*
X008387Y008058D03*
X007799Y007998D03*
X007796Y008004D03*
X007769Y008448D03*
X007772Y008454D03*
X007778Y008466D03*
D864*
X009071Y008646D03*
X009902Y008619D03*
X010829Y007869D03*
X010829Y007866D03*
X011363Y007851D03*
X011363Y007848D03*
X012149Y008442D03*
X012569Y008598D03*
X013031Y008019D03*
X013031Y008016D03*
D865*
X013031Y008004D03*
X012569Y008589D03*
X011363Y007863D03*
X010826Y007851D03*
X010826Y007848D03*
X009122Y007866D03*
X008051Y007857D03*
D866*
X009125Y007848D03*
X011642Y008319D03*
X011642Y008322D03*
X013988Y008538D03*
D867*
X014393Y007851D03*
X012155Y008334D03*
X012155Y008337D03*
X012155Y008343D03*
X012155Y008346D03*
X010838Y007917D03*
X010787Y008658D03*
X010787Y008661D03*
X009902Y008598D03*
D868*
X011354Y008409D03*
X013226Y007851D03*
X013241Y008619D03*
D869*
X013938Y008154D03*
X013938Y008151D03*
X013959Y008019D03*
X013959Y008016D03*
X011637Y008307D03*
X011355Y008604D03*
X011364Y007899D03*
X009123Y007851D03*
X008031Y008649D03*
D870*
X009119Y007893D03*
X009902Y008601D03*
X010835Y007911D03*
X010835Y007908D03*
X012155Y008364D03*
X013025Y008421D03*
X013031Y008058D03*
X014396Y007854D03*
X014399Y007857D03*
X014471Y008127D03*
X014471Y008133D03*
D871*
X013517Y007872D03*
X013517Y007869D03*
X013517Y007866D03*
X013517Y007863D03*
X013517Y007857D03*
X013517Y007854D03*
X012578Y007998D03*
X011744Y008538D03*
X011738Y008529D03*
X011732Y008517D03*
X011729Y008514D03*
X011726Y008508D03*
X011768Y008574D03*
X011774Y008583D03*
X011777Y008586D03*
X011786Y008598D03*
X011354Y008532D03*
X007889Y008577D03*
D872*
X013227Y007854D03*
X013242Y008616D03*
D873*
X012575Y007854D03*
X010808Y008586D03*
X014447Y008589D03*
X014447Y008592D03*
D874*
X013211Y008658D03*
X012578Y008139D03*
X012578Y008136D03*
X012578Y008133D03*
X012143Y008574D03*
X011774Y007857D03*
X011777Y007854D03*
X011363Y008043D03*
X010241Y008421D03*
X010241Y008424D03*
X010241Y008427D03*
X009692Y008487D03*
X009689Y008484D03*
X009689Y008481D03*
X009683Y008466D03*
X009293Y008166D03*
X009284Y008178D03*
X009308Y007977D03*
X009308Y007974D03*
X008957Y007911D03*
X008807Y008034D03*
X008807Y008037D03*
X008843Y008532D03*
X008237Y007923D03*
X007787Y008019D03*
X007784Y008022D03*
X007781Y008028D03*
X007778Y008034D03*
X007754Y008409D03*
X007757Y008418D03*
X007757Y008421D03*
X007763Y008433D03*
D875*
X011363Y007854D03*
X012149Y008451D03*
X013031Y008013D03*
D876*
X013031Y008007D03*
X012569Y008592D03*
X010826Y007854D03*
X008924Y008331D03*
D877*
X009123Y007854D03*
X009900Y008637D03*
X011355Y008613D03*
X011631Y008289D03*
X013575Y008628D03*
X013944Y008127D03*
X013944Y008124D03*
X013956Y008037D03*
X013956Y008034D03*
D878*
X013794Y007857D03*
X011355Y008406D03*
D879*
X013230Y007857D03*
X009270Y008562D03*
D880*
X009900Y008622D03*
X009120Y007869D03*
X010827Y007857D03*
X011355Y008646D03*
X012147Y008457D03*
X012147Y008454D03*
D881*
X011627Y008277D03*
X011627Y008274D03*
X011363Y007884D03*
X011363Y007881D03*
X013025Y008493D03*
X013580Y008634D03*
X013952Y008082D03*
X013952Y008079D03*
X013952Y008076D03*
X013952Y008073D03*
X013952Y008067D03*
X013952Y008064D03*
X009122Y007857D03*
D882*
X012153Y008370D03*
X013029Y008055D03*
X014400Y007860D03*
D883*
X013793Y007860D03*
D884*
X013517Y007860D03*
X013517Y007875D03*
X012572Y008490D03*
X012143Y008550D03*
X011732Y008520D03*
X008852Y007935D03*
D885*
X013232Y007860D03*
D886*
X013025Y008160D03*
X013025Y008325D03*
X012575Y007860D03*
D887*
X011363Y007860D03*
D888*
X010827Y007860D03*
D889*
X011355Y008625D03*
X009123Y007860D03*
D890*
X008051Y007860D03*
X012569Y008595D03*
D891*
X013247Y008607D03*
X013967Y008583D03*
X013793Y007863D03*
X011363Y008106D03*
D892*
X013233Y007863D03*
X013248Y008604D03*
X009273Y008559D03*
D893*
X008048Y007893D03*
X012575Y007863D03*
X013028Y008118D03*
X013028Y008121D03*
X013025Y008361D03*
X013025Y008364D03*
X013025Y008367D03*
X014462Y008187D03*
D894*
X013025Y008481D03*
X011363Y007869D03*
X011363Y007866D03*
X009122Y007863D03*
D895*
X008049Y007863D03*
X013602Y008661D03*
X014460Y008001D03*
X014460Y007998D03*
X014457Y007992D03*
X014457Y007989D03*
X014457Y007986D03*
X014457Y007983D03*
X014454Y007977D03*
X014454Y007974D03*
X014445Y007947D03*
D896*
X013790Y007866D03*
X013250Y008601D03*
D897*
X013025Y008379D03*
X013028Y008109D03*
X013028Y008106D03*
X013028Y008103D03*
X012575Y007866D03*
X010841Y007941D03*
X010793Y008631D03*
X014465Y008181D03*
D898*
X013787Y007872D03*
X013238Y007869D03*
X011363Y008118D03*
X009278Y008556D03*
D899*
X010791Y008643D03*
X012576Y007869D03*
X013026Y008391D03*
X013026Y008394D03*
X014466Y008169D03*
X014466Y008166D03*
D900*
X013029Y007923D03*
X011772Y007869D03*
X011364Y008034D03*
X011364Y008037D03*
X011355Y008469D03*
X009705Y008514D03*
X009702Y008508D03*
X009270Y008193D03*
X009297Y007953D03*
X009237Y008583D03*
X008385Y008427D03*
X008385Y008424D03*
X008385Y008052D03*
X008385Y008049D03*
X007809Y007986D03*
X007779Y008469D03*
X007782Y008472D03*
X007785Y008478D03*
D901*
X008049Y007869D03*
X008940Y008322D03*
X009120Y007881D03*
X012150Y008412D03*
X012150Y008418D03*
X012567Y008607D03*
X014469Y008076D03*
X014469Y008073D03*
X014469Y008067D03*
D902*
X013239Y007872D03*
X013254Y008592D03*
X011355Y008388D03*
D903*
X012575Y007872D03*
D904*
X011771Y007872D03*
X011354Y008472D03*
X010064Y008577D03*
X009896Y008676D03*
X009269Y008196D03*
X009266Y008199D03*
X008384Y008046D03*
X008384Y008043D03*
X008384Y008433D03*
X008384Y008436D03*
X007811Y007983D03*
D905*
X010829Y007872D03*
X012149Y008436D03*
X012149Y008439D03*
X013031Y008022D03*
X014441Y007938D03*
X014444Y007941D03*
X014444Y007944D03*
D906*
X014411Y007875D03*
X014471Y008100D03*
D907*
X013785Y007875D03*
D908*
X013241Y007875D03*
X011354Y008385D03*
D909*
X012155Y008340D03*
X012575Y007875D03*
X013025Y008415D03*
D910*
X011771Y007875D03*
X008384Y008430D03*
X007814Y007980D03*
D911*
X008934Y008325D03*
X010830Y007875D03*
X012576Y007890D03*
X014463Y008025D03*
D912*
X012152Y008385D03*
X010835Y007905D03*
X008048Y007875D03*
D913*
X013784Y007878D03*
D914*
X013518Y007878D03*
X013518Y007881D03*
X013518Y007884D03*
X013518Y007887D03*
X013518Y007893D03*
X013518Y007896D03*
X013518Y007899D03*
X013518Y007902D03*
X013518Y007908D03*
X013518Y007911D03*
X013518Y007914D03*
X013518Y007917D03*
X013518Y007923D03*
X013518Y007926D03*
X013893Y008223D03*
X012570Y008493D03*
X011793Y008607D03*
X011790Y008604D03*
X011781Y008592D03*
X011727Y008511D03*
X011721Y008502D03*
X011721Y008499D03*
X011364Y007971D03*
X011364Y007968D03*
X008925Y008589D03*
D915*
X013242Y007878D03*
X013782Y007881D03*
D916*
X014469Y008124D03*
X013026Y008424D03*
X013026Y008427D03*
X012576Y007878D03*
X012153Y008367D03*
X012153Y008373D03*
X012153Y008376D03*
X012153Y008379D03*
X008949Y008316D03*
D917*
X009120Y007878D03*
X009900Y008613D03*
X010830Y007881D03*
X011355Y008664D03*
X012150Y008424D03*
X012150Y008421D03*
X012576Y007887D03*
X013026Y008448D03*
X013026Y008451D03*
X014469Y008061D03*
X014469Y008058D03*
X014469Y008052D03*
X014424Y007899D03*
D918*
X014417Y007884D03*
X014414Y007881D03*
X014471Y008079D03*
X014471Y008082D03*
X014471Y008088D03*
X014471Y008091D03*
X013031Y008037D03*
X012152Y008409D03*
D919*
X011354Y008379D03*
X011363Y008127D03*
X013244Y007881D03*
X013781Y007884D03*
X013256Y008586D03*
D920*
X012573Y008403D03*
X012573Y008397D03*
X012573Y008394D03*
X011769Y007881D03*
X011355Y008478D03*
X010230Y008469D03*
X010230Y008466D03*
X009723Y008538D03*
X009279Y007932D03*
X008868Y008562D03*
X008379Y008451D03*
X008379Y008448D03*
X008379Y008031D03*
X008379Y008028D03*
X008223Y007917D03*
X007836Y007956D03*
X007833Y007959D03*
X007830Y007962D03*
X007806Y008511D03*
X007809Y008514D03*
D921*
X008049Y007881D03*
X008955Y008313D03*
X009117Y007896D03*
X012567Y008619D03*
X013029Y008073D03*
X013029Y008067D03*
X014469Y008148D03*
D922*
X013779Y007887D03*
X013245Y007884D03*
X013026Y008577D03*
X011355Y008376D03*
D923*
X012575Y007884D03*
X013025Y008442D03*
D924*
X014418Y007887D03*
X014421Y007893D03*
D925*
X013247Y007887D03*
X011363Y008133D03*
D926*
X012567Y008613D03*
X013029Y008049D03*
X014472Y008109D03*
X014472Y008112D03*
X009120Y007887D03*
D927*
X008963Y008307D03*
X009077Y008628D03*
X009902Y008589D03*
X010793Y008637D03*
X013025Y008388D03*
X014465Y008172D03*
X008048Y007887D03*
D928*
X014420Y007890D03*
D929*
X013778Y007890D03*
D930*
X013971Y007950D03*
X013518Y007920D03*
X013518Y007905D03*
X013518Y007890D03*
X012576Y007995D03*
X011784Y008595D03*
X011724Y008505D03*
D931*
X013248Y007890D03*
D932*
X012578Y008070D03*
X012572Y008415D03*
X011768Y007890D03*
X009734Y008550D03*
D933*
X011363Y007890D03*
X011633Y008295D03*
D934*
X009117Y007890D03*
D935*
X008048Y007890D03*
X013028Y008100D03*
D936*
X013031Y007911D03*
X013262Y008574D03*
X013778Y007893D03*
X011363Y008136D03*
X011363Y008139D03*
X011354Y008367D03*
X009284Y008547D03*
D937*
X013250Y007893D03*
D938*
X012576Y007893D03*
X014448Y007956D03*
X014448Y007959D03*
X014451Y007962D03*
X014451Y007968D03*
X008031Y008631D03*
D939*
X011355Y008607D03*
X011634Y008298D03*
X012069Y007941D03*
X012144Y008499D03*
X011364Y007893D03*
X013572Y008622D03*
D940*
X013263Y008571D03*
X013263Y008568D03*
X013251Y007896D03*
X013776Y007896D03*
X011364Y008142D03*
D941*
X013775Y007899D03*
D942*
X013253Y007899D03*
X011354Y008364D03*
X009287Y008544D03*
D943*
X008031Y008634D03*
X012576Y007899D03*
X013026Y008469D03*
D944*
X012573Y008427D03*
X011766Y007899D03*
X010221Y008493D03*
X009741Y008556D03*
X009228Y008226D03*
X009261Y007917D03*
X008826Y007974D03*
X008826Y007977D03*
X008373Y008007D03*
X007836Y008544D03*
D945*
X013031Y008034D03*
X013031Y008031D03*
X014426Y007902D03*
D946*
X013773Y007902D03*
X013266Y008562D03*
D947*
X013254Y007902D03*
X011355Y008361D03*
D948*
X012576Y007902D03*
X013593Y008652D03*
X009069Y008649D03*
X008031Y008637D03*
D949*
X008192Y008583D03*
X008372Y008004D03*
X010220Y008496D03*
X011765Y007902D03*
X012578Y008052D03*
X012572Y008433D03*
X012572Y008436D03*
D950*
X010803Y008598D03*
X008031Y008592D03*
X008046Y007902D03*
X014454Y008214D03*
X014448Y008607D03*
D951*
X014427Y007905D03*
D952*
X013772Y007905D03*
D953*
X013256Y007905D03*
D954*
X012578Y008055D03*
X012143Y008565D03*
X011765Y007905D03*
X007862Y007935D03*
D955*
X011363Y007905D03*
D956*
X011759Y007935D03*
X009236Y007905D03*
D957*
X008976Y007905D03*
X008376Y008460D03*
D958*
X008046Y007905D03*
X014451Y008220D03*
X014448Y008595D03*
D959*
X013770Y007908D03*
X013269Y008553D03*
X011364Y008151D03*
D960*
X013257Y007911D03*
X013257Y007908D03*
D961*
X012576Y007908D03*
X008916Y008334D03*
D962*
X008829Y007971D03*
X009258Y007914D03*
X009750Y008562D03*
X010218Y008499D03*
X011364Y008007D03*
X011763Y007908D03*
X013869Y008238D03*
X008370Y008001D03*
X008205Y007911D03*
X007866Y007932D03*
D963*
X008031Y008652D03*
X011364Y007908D03*
X012144Y008511D03*
X012570Y008556D03*
X013563Y008604D03*
X013563Y008607D03*
D964*
X009215Y008589D03*
X009245Y007908D03*
X008360Y008502D03*
X008030Y008673D03*
D965*
X009290Y008538D03*
X011354Y008352D03*
X011363Y008154D03*
X013259Y007914D03*
X013769Y007911D03*
X013271Y008547D03*
D966*
X013026Y008487D03*
X012576Y007911D03*
X012069Y007947D03*
X011625Y008238D03*
X011622Y008262D03*
X011355Y008628D03*
X012147Y008478D03*
X009900Y008631D03*
D967*
X010125Y008538D03*
X011355Y008421D03*
X012087Y007911D03*
D968*
X011645Y008328D03*
X011645Y008331D03*
X011354Y008592D03*
X011363Y007911D03*
X012569Y008553D03*
X013025Y008511D03*
X013031Y007971D03*
X013562Y008601D03*
X013931Y008172D03*
X013961Y008001D03*
X009065Y008661D03*
X008891Y008343D03*
D969*
X009252Y007911D03*
X008367Y007992D03*
D970*
X007916Y007911D03*
X011354Y008541D03*
X011804Y008619D03*
D971*
X011355Y008349D03*
X011364Y008157D03*
X013260Y007917D03*
X013770Y007914D03*
D972*
X013029Y007914D03*
D973*
X012578Y007941D03*
X013025Y008514D03*
X013928Y008178D03*
X011648Y008337D03*
X011363Y007914D03*
D974*
X011354Y008346D03*
X013274Y008538D03*
X013274Y008541D03*
X013769Y007917D03*
D975*
X013028Y007917D03*
X013025Y008571D03*
X008258Y008547D03*
D976*
X012149Y008430D03*
X013031Y008025D03*
X014435Y007920D03*
X014468Y008040D03*
D977*
X013767Y007920D03*
X013275Y008535D03*
D978*
X013262Y007920D03*
X011363Y008160D03*
X009293Y008535D03*
D979*
X009669Y008415D03*
X009666Y008400D03*
X009315Y008115D03*
X009324Y008055D03*
X009324Y008040D03*
X009321Y008025D03*
X008826Y008505D03*
X008394Y008370D03*
X008394Y008100D03*
X007746Y008115D03*
X007743Y008130D03*
X007740Y008145D03*
X007734Y008175D03*
X007731Y008205D03*
X007731Y008220D03*
X007731Y008235D03*
X007731Y008265D03*
X007731Y008280D03*
X007731Y008295D03*
X007734Y008325D03*
X010245Y008385D03*
X010245Y008400D03*
X012576Y008175D03*
X013029Y007920D03*
D980*
X012576Y007920D03*
X013944Y008130D03*
X013956Y008040D03*
D981*
X012080Y007920D03*
X007865Y008565D03*
D982*
X011363Y007995D03*
X011762Y007920D03*
X012572Y008460D03*
D983*
X012146Y008520D03*
X012074Y007935D03*
X011363Y007920D03*
X013031Y007965D03*
D984*
X010838Y007920D03*
X010787Y008655D03*
X009902Y008595D03*
D985*
X010050Y008580D03*
X009267Y007920D03*
X009237Y008220D03*
X007827Y008535D03*
D986*
X008939Y007920D03*
X010091Y008565D03*
D987*
X010208Y008520D03*
X007889Y007920D03*
X012578Y008025D03*
D988*
X013977Y007923D03*
X008862Y008556D03*
X008382Y008439D03*
X008382Y008037D03*
X007797Y008499D03*
D989*
X009296Y008532D03*
X011354Y008343D03*
X013277Y008529D03*
X013277Y008532D03*
X013766Y007926D03*
X013766Y007923D03*
D990*
X013262Y007923D03*
D991*
X013025Y008499D03*
X012578Y007923D03*
X011633Y008292D03*
X013943Y008136D03*
X013943Y008133D03*
X013958Y008031D03*
D992*
X013971Y007947D03*
X012078Y007923D03*
X011736Y008526D03*
X011748Y008544D03*
X011748Y008547D03*
X011763Y008568D03*
X011766Y008571D03*
X009183Y008247D03*
X008346Y008529D03*
D993*
X010838Y007923D03*
X014468Y008151D03*
X014468Y008154D03*
X014468Y008157D03*
D994*
X013220Y008646D03*
X008795Y007932D03*
X008795Y007929D03*
X008795Y007926D03*
X008795Y007923D03*
D995*
X013263Y007926D03*
D996*
X013029Y007947D03*
X012576Y007983D03*
X012078Y007926D03*
X011703Y008463D03*
X011703Y008466D03*
X011811Y008628D03*
X011355Y008544D03*
X011364Y007959D03*
X013524Y008448D03*
X013524Y008451D03*
X013524Y008454D03*
X013524Y008457D03*
X013899Y008217D03*
D997*
X013974Y007938D03*
X011760Y007926D03*
X011364Y007992D03*
X011355Y008511D03*
X010209Y008517D03*
X009765Y008571D03*
X009204Y008238D03*
X008838Y007953D03*
D998*
X009243Y008217D03*
X009246Y008214D03*
X009273Y007926D03*
X009228Y008586D03*
X012141Y008568D03*
X012573Y008412D03*
X012573Y008409D03*
D999*
X008930Y007926D03*
D1000*
X009318Y008004D03*
X009291Y008169D03*
X009678Y008451D03*
X009681Y008463D03*
X008838Y008526D03*
X008391Y008397D03*
X008391Y008394D03*
X008391Y008391D03*
X008223Y008571D03*
X007746Y008388D03*
X007746Y008382D03*
X007743Y008373D03*
X007758Y008079D03*
X007773Y008043D03*
X007776Y008037D03*
X008241Y007926D03*
X008391Y008079D03*
X008391Y008082D03*
X012576Y008142D03*
D1001*
X013025Y008457D03*
X014462Y008013D03*
X014462Y008007D03*
X014462Y008004D03*
X014453Y007971D03*
X014447Y007953D03*
X014438Y007929D03*
X011357Y008658D03*
D1002*
X010223Y008487D03*
X009233Y008223D03*
X008372Y008472D03*
X007832Y008538D03*
X012572Y008424D03*
X012578Y008064D03*
X012578Y008061D03*
X012578Y008058D03*
X013976Y007929D03*
X013973Y008571D03*
D1003*
X013520Y008391D03*
X013520Y008388D03*
X013520Y008382D03*
X013520Y008379D03*
X013520Y008376D03*
X013520Y008373D03*
X013520Y008367D03*
X013520Y008364D03*
X013520Y008361D03*
X013520Y008358D03*
X013520Y008352D03*
X013520Y008349D03*
X013520Y008346D03*
X013520Y008343D03*
X013520Y008337D03*
X013520Y008334D03*
X013520Y008331D03*
X013520Y008328D03*
X013520Y008322D03*
X013520Y008319D03*
X013520Y008316D03*
X013520Y008313D03*
X013520Y008307D03*
X013520Y008304D03*
X013520Y008301D03*
X013520Y008298D03*
X013520Y008292D03*
X013520Y008289D03*
X013520Y008286D03*
X013520Y008283D03*
X013520Y008277D03*
X013520Y008274D03*
X013520Y008271D03*
X013520Y008268D03*
X013520Y008262D03*
X013520Y008259D03*
X013520Y008256D03*
X013520Y008253D03*
X013520Y008247D03*
X013520Y008244D03*
X013520Y008241D03*
X013520Y008238D03*
X013520Y008232D03*
X013520Y008229D03*
X013520Y008226D03*
X013520Y008223D03*
X013520Y008217D03*
X013520Y008214D03*
X013520Y008211D03*
X013520Y008208D03*
X013520Y008202D03*
X013520Y008199D03*
X013520Y008196D03*
X013520Y008193D03*
X013520Y008187D03*
X013520Y008184D03*
X013520Y008181D03*
X013520Y008178D03*
X013520Y008172D03*
X013520Y008169D03*
X013520Y008166D03*
X013520Y008163D03*
X013520Y008157D03*
X013520Y008154D03*
X013520Y008151D03*
X013520Y008148D03*
X013520Y008142D03*
X013520Y008139D03*
X013520Y008136D03*
X013520Y008133D03*
X013520Y008127D03*
X013520Y008124D03*
X013520Y008121D03*
X013520Y008118D03*
X013520Y008112D03*
X013520Y008109D03*
X013520Y008106D03*
X013520Y008103D03*
X013520Y008097D03*
X013520Y008094D03*
X013520Y008091D03*
X013520Y008088D03*
X013520Y008082D03*
X013520Y008079D03*
X013520Y008076D03*
X013520Y008073D03*
X013520Y008067D03*
X013520Y008064D03*
X013520Y008061D03*
X013520Y008058D03*
X013520Y008052D03*
X013520Y008049D03*
X013520Y008046D03*
X013520Y008043D03*
X013520Y008037D03*
X013520Y008034D03*
X013520Y008031D03*
X013520Y008028D03*
X013520Y008022D03*
X013520Y008019D03*
X013520Y008016D03*
X013520Y008013D03*
X013520Y008007D03*
X013520Y008004D03*
X013520Y008001D03*
X013520Y007998D03*
X013520Y007992D03*
X013520Y007989D03*
X013520Y007986D03*
X013520Y007983D03*
X013520Y007977D03*
X013520Y007974D03*
X013520Y007971D03*
X013520Y007968D03*
X013520Y007962D03*
X013520Y007959D03*
X013520Y007956D03*
X013520Y007953D03*
X013520Y007947D03*
X013520Y007944D03*
X013520Y007941D03*
X013520Y007938D03*
X013520Y007932D03*
X013520Y007929D03*
X011720Y008496D03*
X008030Y008667D03*
D1004*
X013265Y007932D03*
X013265Y007929D03*
D1005*
X013023Y008532D03*
X012570Y008523D03*
X012075Y007929D03*
X011364Y007944D03*
X011355Y008556D03*
X011835Y008649D03*
X013536Y008526D03*
X013536Y008523D03*
X013908Y008208D03*
D1006*
X012578Y008022D03*
X012572Y008463D03*
X012572Y008466D03*
X011759Y007932D03*
X011759Y007929D03*
X011354Y008514D03*
X008357Y008508D03*
D1007*
X011363Y007929D03*
X011663Y008376D03*
X011855Y008664D03*
X012578Y007953D03*
X013025Y008523D03*
X013547Y008568D03*
X013985Y008547D03*
D1008*
X009672Y008427D03*
X009672Y008424D03*
X009312Y008127D03*
X009312Y008124D03*
X008802Y008064D03*
X008802Y008061D03*
X008802Y008058D03*
X008247Y007929D03*
X007752Y008097D03*
X007737Y008154D03*
X007737Y008157D03*
X007737Y008163D03*
X007737Y008166D03*
X007737Y008169D03*
X007737Y008343D03*
D1009*
X012576Y007932D03*
X013026Y008508D03*
X013566Y008613D03*
D1010*
X013919Y008193D03*
X012569Y008538D03*
X012074Y007932D03*
X008879Y008346D03*
D1011*
X011355Y008571D03*
X011664Y008379D03*
X011661Y008373D03*
X012144Y008529D03*
X011364Y007932D03*
X013029Y007959D03*
X013545Y008559D03*
X013545Y008562D03*
X013965Y007977D03*
D1012*
X011354Y008433D03*
X008921Y007932D03*
D1013*
X014441Y007935D03*
X014459Y007995D03*
D1014*
X013974Y007935D03*
X013875Y008235D03*
X011355Y008505D03*
D1015*
X013520Y008385D03*
X013520Y008370D03*
X013520Y008355D03*
X013520Y008340D03*
X013520Y008325D03*
X013520Y008310D03*
X013520Y008295D03*
X013520Y008280D03*
X013520Y008265D03*
X013520Y008250D03*
X013520Y008235D03*
X013520Y008220D03*
X013520Y008205D03*
X013520Y008190D03*
X013520Y008175D03*
X013520Y008160D03*
X013520Y008145D03*
X013520Y008130D03*
X013520Y008115D03*
X013520Y008100D03*
X013520Y008085D03*
X013520Y008070D03*
X013520Y008055D03*
X013520Y008040D03*
X013520Y008025D03*
X013520Y008010D03*
X013520Y007995D03*
X013520Y007980D03*
X013520Y007965D03*
X013520Y007950D03*
X013520Y007935D03*
D1016*
X012576Y007935D03*
X011643Y008325D03*
X011355Y008595D03*
D1017*
X011666Y008385D03*
X011363Y007935D03*
D1018*
X010841Y007935D03*
X012566Y008625D03*
D1019*
X011354Y008475D03*
X009284Y007935D03*
X008381Y008445D03*
X007802Y008505D03*
X007826Y007965D03*
D1020*
X011355Y008589D03*
X011646Y008334D03*
X012144Y008514D03*
X012576Y007938D03*
X013560Y008598D03*
X013986Y008541D03*
D1021*
X011757Y007941D03*
X011757Y007938D03*
X008352Y008517D03*
D1022*
X009062Y008667D03*
X011363Y007938D03*
X011672Y008397D03*
X012143Y008532D03*
X012578Y007962D03*
X013025Y008529D03*
X013913Y008202D03*
X013967Y007971D03*
D1023*
X011364Y008061D03*
X009249Y008577D03*
X008259Y007938D03*
D1024*
X011364Y007941D03*
X011355Y008562D03*
X012570Y008526D03*
X013539Y008538D03*
D1025*
X013973Y007944D03*
X012578Y008001D03*
X012578Y008004D03*
X012572Y008484D03*
X012143Y008553D03*
X008348Y008526D03*
D1026*
X008354Y007968D03*
X008846Y007944D03*
X009191Y008244D03*
X010202Y008529D03*
X011354Y008523D03*
X011756Y007944D03*
X012572Y008478D03*
D1027*
X012567Y008628D03*
X010842Y007944D03*
X008967Y008304D03*
X012627Y010428D03*
D1028*
X012143Y008571D03*
X012575Y008382D03*
X012578Y008112D03*
X012578Y008109D03*
X012578Y008106D03*
X012578Y008103D03*
X010235Y008451D03*
X010235Y008454D03*
X009707Y008517D03*
X009293Y007947D03*
X009290Y007944D03*
X008813Y008013D03*
X007817Y007977D03*
X007787Y008481D03*
X007790Y008484D03*
X007790Y008487D03*
D1029*
X007820Y008526D03*
X008375Y008466D03*
X008375Y008463D03*
X007850Y007944D03*
D1030*
X008867Y008349D03*
X011363Y007947D03*
X011681Y008418D03*
X011681Y008421D03*
X011684Y008424D03*
X011831Y008646D03*
X012143Y008538D03*
X012578Y007971D03*
D1031*
X008271Y007947D03*
D1032*
X012578Y007950D03*
X013922Y008190D03*
D1033*
X012068Y007950D03*
D1034*
X010842Y007950D03*
D1035*
X008841Y007950D03*
X013023Y008550D03*
D1036*
X010227Y008475D03*
X008202Y008580D03*
X007842Y007950D03*
D1037*
X011363Y007962D03*
X011705Y008469D03*
X011807Y008622D03*
X012572Y008502D03*
X012578Y007989D03*
X012578Y007986D03*
X013523Y008421D03*
X013523Y008424D03*
X013523Y008427D03*
X013523Y008433D03*
X013523Y008436D03*
X013523Y008439D03*
X013523Y008442D03*
X013970Y007953D03*
D1038*
X011948Y007953D03*
D1039*
X011690Y008436D03*
X011690Y008439D03*
X011822Y008637D03*
X012143Y008541D03*
X012578Y007977D03*
X013532Y008496D03*
X013532Y008499D03*
X013532Y008502D03*
X013982Y008556D03*
X013970Y007959D03*
X011363Y007953D03*
D1040*
X011670Y008391D03*
X011670Y008394D03*
X011355Y008568D03*
X012570Y008532D03*
X012570Y008529D03*
X012576Y007959D03*
X013029Y007956D03*
D1041*
X011949Y007956D03*
X010881Y008127D03*
X010860Y008412D03*
X014394Y008307D03*
D1042*
X012570Y008511D03*
X011694Y008448D03*
X011691Y008442D03*
X011355Y008547D03*
X011364Y007956D03*
D1043*
X010862Y008409D03*
X011951Y007959D03*
D1044*
X012566Y008634D03*
X010844Y007959D03*
X014459Y008202D03*
D1045*
X011364Y007998D03*
X010212Y008511D03*
X008835Y007959D03*
X008364Y007986D03*
X007860Y008562D03*
D1046*
X011951Y007962D03*
D1047*
X010845Y007962D03*
X010800Y008607D03*
X014457Y008208D03*
D1048*
X013976Y008568D03*
X011354Y008502D03*
X010214Y008508D03*
X008834Y007962D03*
X008366Y007989D03*
X007856Y008559D03*
D1049*
X013026Y008460D03*
X014451Y007965D03*
D1050*
X013968Y007965D03*
X012570Y008520D03*
X011679Y008415D03*
D1051*
X011673Y008400D03*
X012576Y007965D03*
X013911Y008205D03*
D1052*
X011952Y007965D03*
D1053*
X011364Y007965D03*
D1054*
X010845Y007965D03*
X014457Y008205D03*
D1055*
X012573Y008355D03*
X011364Y008040D03*
X010239Y008430D03*
X009693Y008490D03*
X009303Y007965D03*
X008808Y008025D03*
X008388Y008415D03*
X008844Y008535D03*
X007791Y008010D03*
X007761Y008430D03*
X007767Y008445D03*
D1056*
X008832Y007965D03*
X009897Y008670D03*
D1057*
X008352Y007965D03*
D1058*
X008031Y008661D03*
X011673Y008403D03*
X013968Y007968D03*
D1059*
X013031Y007968D03*
D1060*
X011954Y007968D03*
X010886Y008148D03*
X010886Y008151D03*
X010871Y008382D03*
X014384Y008316D03*
D1061*
X012575Y008343D03*
X012575Y008346D03*
X012575Y008349D03*
X009290Y008172D03*
X009305Y007968D03*
X008840Y008529D03*
X008390Y008406D03*
X008390Y008403D03*
X008390Y008076D03*
X008390Y008073D03*
X007790Y008013D03*
X007760Y008424D03*
X007760Y008427D03*
D1062*
X010871Y008379D03*
X010889Y008157D03*
X011954Y007971D03*
X014357Y008682D03*
D1063*
X014447Y008619D03*
X014447Y008604D03*
X014447Y008601D03*
X014447Y008598D03*
X014453Y008217D03*
X012566Y008637D03*
X010805Y008592D03*
X010847Y007974D03*
X010847Y007971D03*
X009080Y008616D03*
X008981Y008292D03*
D1064*
X011355Y008598D03*
X011640Y008316D03*
X012144Y008508D03*
X012570Y008559D03*
X013029Y007974D03*
D1065*
X011954Y007974D03*
D1066*
X011954Y007977D03*
D1067*
X010848Y007977D03*
X010806Y008589D03*
X009078Y008613D03*
X008031Y008589D03*
X014445Y008622D03*
X014451Y008223D03*
D1068*
X008360Y007977D03*
D1069*
X011355Y008655D03*
X014454Y007980D03*
D1070*
X013965Y007980D03*
D1071*
X012578Y007980D03*
X009062Y008670D03*
D1072*
X010878Y008355D03*
X010893Y008175D03*
X011955Y007980D03*
D1073*
X011364Y007980D03*
D1074*
X010850Y007980D03*
D1075*
X008825Y007980D03*
X008375Y008010D03*
D1076*
X012146Y008496D03*
X012569Y008568D03*
X012569Y008571D03*
X013031Y007983D03*
D1077*
X011955Y007983D03*
X010896Y008184D03*
X010884Y008343D03*
X010881Y008349D03*
D1078*
X010850Y007986D03*
X014450Y008229D03*
D1079*
X013949Y008103D03*
X013949Y008097D03*
X013949Y008094D03*
X013949Y008091D03*
X013949Y008088D03*
X013031Y007989D03*
X012569Y008577D03*
X012146Y008487D03*
X009899Y008634D03*
X008909Y008337D03*
D1080*
X010889Y008331D03*
X010898Y008196D03*
X010898Y008193D03*
X011957Y007989D03*
D1081*
X011364Y007989D03*
X009897Y008667D03*
X008355Y008511D03*
X007869Y008568D03*
D1082*
X008988Y008283D03*
X009063Y008592D03*
X009066Y008598D03*
X010809Y008577D03*
X010809Y008574D03*
X010851Y007989D03*
X014448Y008232D03*
X014445Y008571D03*
D1083*
X013206Y008661D03*
X012573Y008379D03*
X012573Y008376D03*
X012573Y008373D03*
X010236Y008448D03*
X008853Y008547D03*
X008811Y008016D03*
X007806Y007989D03*
X007803Y007992D03*
X007776Y008463D03*
D1084*
X010892Y008322D03*
X011957Y007992D03*
X012563Y008679D03*
D1085*
X013962Y007995D03*
D1086*
X011958Y007995D03*
D1087*
X010851Y007995D03*
X008991Y008280D03*
D1088*
X008835Y008520D03*
X009297Y008160D03*
X009315Y007995D03*
X008805Y008040D03*
X007767Y008055D03*
X010242Y008415D03*
X011355Y008460D03*
D1089*
X008819Y007995D03*
X007814Y008520D03*
D1090*
X008366Y008490D03*
X008369Y007995D03*
X012572Y008445D03*
D1091*
X009701Y008505D03*
X008387Y008055D03*
X007802Y007995D03*
D1092*
X009897Y008646D03*
X013962Y007998D03*
D1093*
X011958Y007998D03*
X010896Y008307D03*
D1094*
X010853Y008001D03*
X010853Y007998D03*
X014432Y008634D03*
D1095*
X012575Y008337D03*
X012575Y008334D03*
X012575Y008331D03*
X012575Y008328D03*
X012575Y008322D03*
X012578Y008163D03*
X012578Y008157D03*
X012578Y008154D03*
X012578Y008151D03*
X012578Y008148D03*
X009680Y008454D03*
X009680Y008457D03*
X009677Y008448D03*
X009677Y008442D03*
X009302Y008151D03*
X009308Y008139D03*
X009323Y008034D03*
X009323Y008031D03*
X009323Y008028D03*
X009320Y008016D03*
X009320Y008013D03*
X009320Y008007D03*
X009317Y008001D03*
X009317Y007998D03*
X008828Y008508D03*
X008393Y008388D03*
X008393Y008382D03*
X008393Y008379D03*
X008393Y008097D03*
X008393Y008094D03*
X008393Y008091D03*
X008393Y008088D03*
X007772Y008046D03*
X007763Y008067D03*
X007760Y008073D03*
X007760Y008076D03*
X007757Y008082D03*
X007748Y008112D03*
X007745Y008124D03*
X007742Y008361D03*
X007742Y008364D03*
X007742Y008367D03*
X007745Y008376D03*
X007745Y008379D03*
D1096*
X008817Y007998D03*
X009057Y008679D03*
X013857Y008244D03*
D1097*
X013031Y008001D03*
X012569Y008586D03*
X012146Y008472D03*
X009899Y008628D03*
D1098*
X013932Y008169D03*
X013962Y008004D03*
D1099*
X011958Y008004D03*
X011958Y008007D03*
X010908Y008232D03*
D1100*
X010853Y008004D03*
X010817Y008556D03*
X012566Y008646D03*
X014441Y008247D03*
D1101*
X013935Y008160D03*
X013959Y008010D03*
D1102*
X013031Y008010D03*
D1103*
X012578Y008010D03*
X008351Y008520D03*
X008030Y008670D03*
D1104*
X010905Y008280D03*
X011958Y008010D03*
X013464Y008670D03*
X012627Y010410D03*
D1105*
X011364Y008010D03*
D1106*
X010854Y008010D03*
X014439Y008535D03*
D1107*
X012575Y008325D03*
X012578Y008160D03*
X009677Y008445D03*
X009305Y008145D03*
X009320Y008010D03*
X008393Y008385D03*
X007733Y008310D03*
X007757Y008085D03*
X007763Y008070D03*
D1108*
X010910Y008241D03*
X011960Y008013D03*
D1109*
X010856Y008013D03*
X008999Y008271D03*
D1110*
X010913Y008262D03*
X011960Y008016D03*
D1111*
X011958Y008019D03*
X010914Y008253D03*
X010914Y008256D03*
X010914Y008259D03*
X013464Y008673D03*
D1112*
X014423Y008643D03*
X010856Y008019D03*
X009002Y008268D03*
D1113*
X008823Y008496D03*
X008823Y008499D03*
X008826Y008502D03*
X008394Y008376D03*
X008394Y008373D03*
X008394Y008367D03*
X008229Y008568D03*
X008394Y008109D03*
X008394Y008106D03*
X008394Y008103D03*
X007749Y008106D03*
X007749Y008109D03*
X007746Y008118D03*
X007746Y008121D03*
X007743Y008127D03*
X007743Y008133D03*
X007743Y008136D03*
X007740Y008139D03*
X007740Y008142D03*
X007740Y008148D03*
X007734Y008172D03*
X007734Y008178D03*
X007734Y008181D03*
X007734Y008184D03*
X007734Y008187D03*
X007731Y008199D03*
X007731Y008202D03*
X007731Y008208D03*
X007731Y008211D03*
X007731Y008214D03*
X007731Y008217D03*
X007731Y008223D03*
X007731Y008226D03*
X007731Y008229D03*
X007731Y008232D03*
X007731Y008238D03*
X007731Y008241D03*
X007731Y008262D03*
X007731Y008268D03*
X007731Y008271D03*
X007731Y008274D03*
X007731Y008277D03*
X007731Y008283D03*
X007731Y008286D03*
X007731Y008289D03*
X007731Y008292D03*
X007731Y008298D03*
X007731Y008301D03*
X007731Y008304D03*
X007731Y008307D03*
X007734Y008313D03*
X007734Y008316D03*
X007734Y008319D03*
X007734Y008322D03*
X007740Y008358D03*
X009303Y008148D03*
X009306Y008142D03*
X009309Y008136D03*
X009309Y008133D03*
X009315Y008118D03*
X009318Y008106D03*
X009318Y008103D03*
X009321Y008091D03*
X009321Y008088D03*
X009324Y008064D03*
X009324Y008061D03*
X009324Y008058D03*
X009324Y008052D03*
X009324Y008049D03*
X009324Y008046D03*
X009324Y008043D03*
X009324Y008037D03*
X009321Y008022D03*
X009321Y008019D03*
X009666Y008391D03*
X009666Y008394D03*
X009666Y008397D03*
X009669Y008409D03*
X009669Y008412D03*
X009669Y008418D03*
X010245Y008397D03*
X010245Y008394D03*
X010245Y008391D03*
X010245Y008388D03*
X011355Y008454D03*
X011364Y008052D03*
X011364Y008049D03*
X012576Y008166D03*
X012576Y008169D03*
X012576Y008172D03*
X012576Y008178D03*
X012576Y008181D03*
X012573Y008319D03*
X013971Y008577D03*
D1114*
X012575Y008367D03*
X008810Y008022D03*
X008810Y008019D03*
X007775Y008457D03*
D1115*
X011958Y008022D03*
D1116*
X010857Y008022D03*
X010821Y008538D03*
X014436Y008256D03*
D1117*
X011960Y008025D03*
D1118*
X011364Y008025D03*
X012573Y008400D03*
X009720Y008535D03*
D1119*
X010859Y008025D03*
D1120*
X012578Y008085D03*
X008873Y008565D03*
X008378Y008025D03*
D1121*
X009066Y008658D03*
X013941Y008142D03*
X013941Y008139D03*
X013956Y008028D03*
D1122*
X011958Y008028D03*
D1123*
X010859Y008028D03*
X010823Y008532D03*
D1124*
X011958Y008034D03*
X011958Y008031D03*
X012627Y010407D03*
D1125*
X010826Y008523D03*
X010859Y008031D03*
D1126*
X012576Y008034D03*
X012573Y008454D03*
X013023Y008553D03*
X008361Y008499D03*
D1127*
X010860Y008037D03*
X010860Y008034D03*
D1128*
X009212Y008235D03*
X012578Y008040D03*
D1129*
X011958Y008040D03*
D1130*
X012564Y008655D03*
X010860Y008040D03*
D1131*
X008382Y008040D03*
D1132*
X008390Y008070D03*
X008390Y008400D03*
X007775Y008040D03*
D1133*
X011958Y008046D03*
D1134*
X011957Y008049D03*
D1135*
X010863Y008049D03*
D1136*
X009074Y008637D03*
X013031Y008052D03*
X014471Y008118D03*
X014471Y008121D03*
D1137*
X011958Y008052D03*
D1138*
X010865Y008052D03*
X014405Y008658D03*
D1139*
X013953Y008055D03*
X011628Y008280D03*
D1140*
X011957Y008055D03*
D1141*
X010863Y008055D03*
D1142*
X009672Y008430D03*
X009312Y008130D03*
X008802Y008055D03*
X007737Y008160D03*
D1143*
X011957Y008061D03*
X011957Y008058D03*
X012626Y010404D03*
D1144*
X013220Y008649D03*
X011363Y008058D03*
X008240Y008562D03*
D1145*
X010835Y008493D03*
X010865Y008058D03*
D1146*
X010866Y008061D03*
X010866Y008064D03*
X010836Y008487D03*
D1147*
X009074Y008634D03*
X013031Y008064D03*
X014471Y008139D03*
X014471Y008142D03*
D1148*
X013464Y008679D03*
X011955Y008064D03*
D1149*
X010868Y008067D03*
X010838Y008484D03*
X014417Y008283D03*
D1150*
X014469Y008070D03*
X012150Y008415D03*
X009900Y008610D03*
D1151*
X009068Y008655D03*
X013952Y008070D03*
D1152*
X014469Y008145D03*
X013029Y008070D03*
D1153*
X011955Y008070D03*
D1154*
X010866Y008070D03*
D1155*
X011954Y008076D03*
X011954Y008079D03*
D1156*
X010869Y008079D03*
X010869Y008076D03*
D1157*
X011954Y008082D03*
D1158*
X011363Y008082D03*
X013232Y008631D03*
X008273Y008532D03*
D1159*
X010842Y008466D03*
X010869Y008082D03*
X012564Y008664D03*
D1160*
X013950Y008085D03*
D1161*
X013029Y008085D03*
D1162*
X011952Y008085D03*
D1163*
X011364Y008085D03*
D1164*
X012576Y008145D03*
X012573Y008340D03*
X009681Y008460D03*
X009243Y008580D03*
X008391Y008085D03*
X007743Y008370D03*
X007746Y008385D03*
D1165*
X011954Y008088D03*
D1166*
X010871Y008088D03*
X010844Y008463D03*
X014411Y008292D03*
D1167*
X011952Y008091D03*
X012627Y010401D03*
D1168*
X010845Y008457D03*
X010872Y008091D03*
D1169*
X010874Y008094D03*
X010847Y008454D03*
D1170*
X011363Y008097D03*
D1171*
X010872Y008097D03*
X012627Y010419D03*
D1172*
X013949Y008100D03*
D1173*
X011951Y008100D03*
D1174*
X011364Y008100D03*
D1175*
X010874Y008100D03*
D1176*
X013214Y008655D03*
X007739Y008355D03*
X007736Y008340D03*
X007751Y008100D03*
D1177*
X011363Y008103D03*
X011354Y008403D03*
X012143Y008583D03*
X013244Y008613D03*
D1178*
X013992Y008526D03*
X013947Y008112D03*
X013947Y008109D03*
X013947Y008106D03*
D1179*
X011948Y008109D03*
D1180*
X011364Y008109D03*
X011355Y008397D03*
D1181*
X010853Y008436D03*
X010877Y008109D03*
X014378Y008673D03*
X014402Y008301D03*
D1182*
X011948Y008112D03*
D1183*
X010878Y008112D03*
X010854Y008433D03*
D1184*
X014471Y008115D03*
D1185*
X013946Y008115D03*
X012146Y008490D03*
D1186*
X013028Y008115D03*
X014462Y008190D03*
X009077Y008625D03*
D1187*
X008856Y008550D03*
X009273Y008190D03*
X010236Y008445D03*
X012573Y008370D03*
X012576Y008115D03*
D1188*
X011946Y008115D03*
D1189*
X011364Y008115D03*
D1190*
X010877Y008115D03*
D1191*
X011946Y008118D03*
D1192*
X010878Y008118D03*
D1193*
X011946Y008121D03*
X011946Y008124D03*
D1194*
X011363Y008124D03*
X011363Y008121D03*
D1195*
X013026Y008124D03*
X013026Y008127D03*
X013026Y008133D03*
X008031Y008601D03*
D1196*
X011945Y008127D03*
D1197*
X014471Y008130D03*
D1198*
X013026Y008130D03*
D1199*
X011943Y008130D03*
D1200*
X011364Y008130D03*
D1201*
X010881Y008130D03*
X014391Y008310D03*
D1202*
X010881Y008133D03*
X010863Y008403D03*
X010863Y008406D03*
D1203*
X008802Y008406D03*
X008802Y008403D03*
X008802Y008397D03*
X008802Y008394D03*
X008802Y008391D03*
X008802Y008388D03*
X008802Y008409D03*
X008802Y008412D03*
X008397Y008343D03*
X008397Y008337D03*
X008397Y008334D03*
X008397Y008331D03*
X008397Y008328D03*
X008397Y008322D03*
X008397Y008319D03*
X008397Y008316D03*
X008397Y008313D03*
X008397Y008307D03*
X008397Y008304D03*
X008397Y008301D03*
X008397Y008298D03*
X008397Y008292D03*
X008397Y008289D03*
X008397Y008286D03*
X008397Y008283D03*
X008397Y008277D03*
X008397Y008274D03*
X008397Y008271D03*
X008397Y008268D03*
X008397Y008262D03*
X008397Y008259D03*
X008397Y008256D03*
X008397Y008253D03*
X008397Y008247D03*
X008397Y008244D03*
X008397Y008241D03*
X008397Y008238D03*
X008397Y008232D03*
X008397Y008229D03*
X008397Y008226D03*
X008397Y008223D03*
X008397Y008217D03*
X008397Y008214D03*
X008397Y008211D03*
X008397Y008208D03*
X008397Y008202D03*
X008397Y008199D03*
X008397Y008196D03*
X008397Y008193D03*
X008397Y008187D03*
X008397Y008184D03*
X008397Y008181D03*
X008397Y008178D03*
X008397Y008172D03*
X008397Y008169D03*
X008397Y008166D03*
X008397Y008163D03*
X008397Y008157D03*
X008397Y008154D03*
X008397Y008151D03*
X008397Y008148D03*
X008397Y008142D03*
X008397Y008139D03*
X008397Y008136D03*
X008397Y008133D03*
X008397Y008532D03*
X008397Y008538D03*
X008397Y008541D03*
X008397Y008544D03*
X008397Y008547D03*
X008397Y008553D03*
X008397Y008556D03*
X008397Y008559D03*
X008397Y008562D03*
X008397Y008568D03*
X008397Y008571D03*
X008397Y008574D03*
X008397Y008577D03*
X008397Y008583D03*
X008397Y008586D03*
X008397Y008589D03*
X008397Y008592D03*
X008397Y008598D03*
X008397Y008601D03*
X008397Y008604D03*
X008397Y008607D03*
X008397Y008613D03*
X008397Y008616D03*
X008397Y008619D03*
X008397Y008622D03*
X008397Y008628D03*
X008397Y008631D03*
X008397Y008634D03*
X008397Y008637D03*
X008397Y008643D03*
X008397Y008646D03*
X008397Y008649D03*
X008397Y008652D03*
X008397Y008658D03*
X008397Y008661D03*
X008397Y008664D03*
X008397Y008667D03*
X008397Y008673D03*
X008397Y008676D03*
X008397Y008679D03*
X008397Y008682D03*
X008397Y008688D03*
X008397Y008691D03*
X008397Y008694D03*
X008397Y008697D03*
X008397Y008703D03*
X008397Y008706D03*
X008397Y008709D03*
X008397Y008712D03*
X008397Y008718D03*
X008397Y008721D03*
X008397Y008724D03*
X008397Y008727D03*
X008397Y008733D03*
X008397Y008736D03*
X008397Y008739D03*
X008397Y008742D03*
X008397Y008748D03*
X008397Y008751D03*
X008397Y008754D03*
X008397Y008757D03*
X008397Y008763D03*
X008397Y008766D03*
X008397Y008769D03*
X008397Y008772D03*
X008397Y008778D03*
X008397Y008781D03*
X008397Y008784D03*
X008397Y008787D03*
X008397Y008793D03*
X008397Y008796D03*
X008397Y008799D03*
X008397Y008802D03*
X008397Y008808D03*
X008397Y008811D03*
X008397Y008814D03*
X008397Y008817D03*
X008397Y008823D03*
X008397Y008826D03*
X008397Y008829D03*
X008397Y008832D03*
X008397Y008838D03*
X008397Y008841D03*
X008397Y008844D03*
X008397Y008847D03*
X008397Y008853D03*
X008397Y008856D03*
X008397Y008859D03*
X008397Y008862D03*
X008397Y008868D03*
X008397Y008871D03*
X008397Y008874D03*
X008397Y008877D03*
X008397Y008883D03*
X008397Y008886D03*
X008397Y008889D03*
X008397Y008892D03*
X008397Y008898D03*
X008397Y008901D03*
X008397Y008904D03*
X008397Y008907D03*
X008397Y008913D03*
X008397Y008916D03*
X008397Y008919D03*
X008397Y008922D03*
X008397Y008928D03*
X008397Y008931D03*
X008397Y008934D03*
X008397Y008937D03*
X008397Y008943D03*
X008397Y008946D03*
X008397Y008949D03*
X008397Y008952D03*
X008397Y008958D03*
X008397Y008961D03*
X008397Y008964D03*
X008397Y008967D03*
X008397Y008973D03*
X008397Y008976D03*
X008397Y008979D03*
X008397Y008982D03*
X008397Y008988D03*
X008397Y008991D03*
X008397Y008994D03*
X008397Y008997D03*
X008397Y009003D03*
X008397Y009006D03*
X008397Y009009D03*
X008397Y009012D03*
X008397Y009018D03*
X008397Y009021D03*
X008397Y009024D03*
X008397Y009027D03*
X008397Y009033D03*
X008397Y009036D03*
X008397Y009039D03*
X008397Y009042D03*
X008397Y009048D03*
X008397Y009051D03*
X008397Y009054D03*
X008397Y009057D03*
D1204*
X013025Y008358D03*
X013025Y008352D03*
X013025Y008349D03*
X013025Y008346D03*
X013025Y008343D03*
X013025Y008139D03*
X013025Y008136D03*
D1205*
X011942Y008139D03*
X011942Y008142D03*
D1206*
X010884Y008142D03*
X010884Y008139D03*
X010866Y008394D03*
X010866Y008397D03*
X014388Y008313D03*
D1207*
X013940Y008145D03*
D1208*
X013026Y008145D03*
X013023Y008340D03*
X010800Y008610D03*
D1209*
X011940Y008145D03*
X014277Y008355D03*
D1210*
X011364Y008145D03*
D1211*
X010886Y008145D03*
D1212*
X008802Y008385D03*
X008802Y008400D03*
X008397Y008340D03*
X008397Y008325D03*
X008397Y008310D03*
X008397Y008295D03*
X008397Y008280D03*
X008397Y008265D03*
X008397Y008250D03*
X008397Y008235D03*
X008397Y008220D03*
X008397Y008205D03*
X008397Y008190D03*
X008397Y008175D03*
X008397Y008160D03*
X008397Y008145D03*
X008397Y008535D03*
X008397Y008550D03*
X008397Y008565D03*
X008397Y008580D03*
X008397Y008595D03*
X008397Y008610D03*
X008397Y008625D03*
X008397Y008640D03*
X008397Y008655D03*
X008397Y008670D03*
X008397Y008685D03*
X008397Y008700D03*
X008397Y008715D03*
X008397Y008730D03*
X008397Y008745D03*
X008397Y008760D03*
X008397Y008775D03*
X008397Y008790D03*
X008397Y008805D03*
X008397Y008820D03*
X008397Y008835D03*
X008397Y008850D03*
X008397Y008865D03*
X008397Y008880D03*
X008397Y008895D03*
X008397Y008910D03*
X008397Y008925D03*
X008397Y008940D03*
X008397Y008955D03*
X008397Y008970D03*
X008397Y008985D03*
X008397Y009000D03*
X008397Y009015D03*
X008397Y009030D03*
X008397Y009045D03*
X008397Y009060D03*
D1213*
X013025Y008502D03*
X013940Y008148D03*
D1214*
X011939Y008148D03*
D1215*
X011363Y008148D03*
X013268Y008556D03*
X013268Y008559D03*
X009290Y008541D03*
D1216*
X013025Y008331D03*
X013025Y008328D03*
X013025Y008169D03*
X013025Y008166D03*
X013025Y008163D03*
X013025Y008157D03*
X013025Y008154D03*
X013025Y008151D03*
D1217*
X011939Y008154D03*
D1218*
X010887Y008154D03*
D1219*
X011937Y008157D03*
D1220*
X014468Y008160D03*
D1221*
X011936Y008160D03*
D1222*
X010889Y008160D03*
D1223*
X011936Y008163D03*
D1224*
X011364Y008163D03*
D1225*
X010890Y008163D03*
X010872Y008373D03*
X010872Y008376D03*
X014379Y008319D03*
D1226*
X011934Y008166D03*
D1227*
X011934Y008169D03*
X011934Y008172D03*
X014259Y008523D03*
D1228*
X014375Y008322D03*
X012563Y008676D03*
X010877Y008361D03*
X010892Y008172D03*
D1229*
X014465Y008175D03*
D1230*
X013023Y008175D03*
X013023Y008190D03*
X013023Y008310D03*
X008031Y008595D03*
D1231*
X011933Y008175D03*
X014258Y008520D03*
D1232*
X014258Y008517D03*
X011933Y008178D03*
D1233*
X010893Y008178D03*
X010878Y008358D03*
D1234*
X013926Y008181D03*
D1235*
X013925Y008184D03*
X013025Y008517D03*
D1236*
X011930Y008184D03*
X014255Y008508D03*
X014255Y008511D03*
D1237*
X014253Y008505D03*
X011928Y008190D03*
D1238*
X010896Y008190D03*
D1239*
X010797Y008619D03*
X010797Y008622D03*
X012567Y008631D03*
X014460Y008196D03*
X014460Y008193D03*
X008970Y008301D03*
D1240*
X011927Y008193D03*
X014252Y008499D03*
D1241*
X013917Y008196D03*
X009897Y008652D03*
D1242*
X011925Y008199D03*
X011925Y008196D03*
D1243*
X010899Y008199D03*
X010899Y008202D03*
X010890Y008328D03*
X014364Y008328D03*
D1244*
X011924Y008202D03*
D1245*
X013022Y008205D03*
X013022Y008220D03*
X013022Y008235D03*
X013022Y008250D03*
X013022Y008265D03*
X013022Y008280D03*
X013022Y008295D03*
X008978Y008295D03*
D1246*
X011922Y008205D03*
D1247*
X010901Y008205D03*
D1248*
X011922Y008208D03*
D1249*
X010902Y008208D03*
D1250*
X014456Y008211D03*
D1251*
X013905Y008211D03*
X012570Y008514D03*
X012570Y008517D03*
X011829Y008643D03*
X011685Y008427D03*
X011355Y008553D03*
X009897Y008658D03*
D1252*
X011922Y008211D03*
X014247Y008466D03*
X014247Y008469D03*
X014247Y008472D03*
D1253*
X010901Y008211D03*
D1254*
X009162Y008253D03*
X012627Y010437D03*
X013527Y008484D03*
X013527Y008481D03*
X013527Y008478D03*
X013527Y008472D03*
X013902Y008214D03*
D1255*
X014246Y008451D03*
X014246Y008454D03*
X014246Y008457D03*
X014246Y008463D03*
X011921Y008217D03*
X011921Y008214D03*
D1256*
X010902Y008214D03*
D1257*
X011919Y008220D03*
D1258*
X010904Y008220D03*
D1259*
X011918Y008223D03*
X011918Y008226D03*
X014246Y008436D03*
X014246Y008439D03*
X014246Y008442D03*
X014246Y008448D03*
D1260*
X009222Y008229D03*
X008367Y008484D03*
X008367Y008487D03*
D1261*
X014444Y008565D03*
X014447Y008235D03*
D1262*
X010910Y008235D03*
D1263*
X010814Y008562D03*
X014441Y008553D03*
X014441Y008547D03*
X014444Y008241D03*
D1264*
X014442Y008244D03*
D1265*
X014438Y008250D03*
X010817Y008550D03*
D1266*
X011619Y008250D03*
X012147Y008475D03*
D1267*
X010913Y008265D03*
X010913Y008250D03*
D1268*
X011354Y008535D03*
X011717Y008490D03*
X009173Y008250D03*
D1269*
X010818Y008544D03*
X010818Y008547D03*
X014436Y008253D03*
D1270*
X013541Y008541D03*
X013541Y008544D03*
X013541Y008547D03*
X009149Y008256D03*
D1271*
X014430Y008265D03*
D1272*
X010821Y008535D03*
X009003Y008265D03*
D1273*
X011355Y008622D03*
X011625Y008271D03*
D1274*
X010830Y008508D03*
X014424Y008274D03*
D1275*
X008997Y008274D03*
D1276*
X010907Y008277D03*
D1277*
X014420Y008280D03*
D1278*
X010905Y008283D03*
D1279*
X010904Y008286D03*
X012563Y008682D03*
D1280*
X010808Y008583D03*
X009071Y008604D03*
X009068Y008601D03*
X008987Y008286D03*
X014438Y008628D03*
X014444Y008577D03*
X014444Y008574D03*
D1281*
X014412Y008289D03*
D1282*
X010902Y008289D03*
X010902Y008292D03*
D1283*
X008984Y008289D03*
D1284*
X014408Y008295D03*
D1285*
X010901Y008295D03*
D1286*
X010856Y008427D03*
X014399Y008304D03*
D1287*
X013988Y008535D03*
X012146Y008505D03*
X011639Y008310D03*
D1288*
X010896Y008310D03*
D1289*
X008958Y008310D03*
X008031Y008610D03*
X013026Y008400D03*
D1290*
X014360Y008331D03*
X010895Y008313D03*
D1291*
X010893Y008316D03*
X010893Y008319D03*
D1292*
X008945Y008319D03*
X013025Y008436D03*
D1293*
X014370Y008325D03*
D1294*
X010890Y008325D03*
D1295*
X014354Y008334D03*
D1296*
X010887Y008334D03*
D1297*
X010886Y008337D03*
X012626Y010413D03*
D1298*
X014340Y008340D03*
D1299*
X011648Y008340D03*
D1300*
X010886Y008340D03*
D1301*
X008901Y008340D03*
D1302*
X014333Y008343D03*
D1303*
X014322Y008346D03*
D1304*
X014315Y008349D03*
D1305*
X014300Y008352D03*
D1306*
X013025Y008355D03*
D1307*
X012153Y008355D03*
D1308*
X011655Y008355D03*
X011355Y008580D03*
X013551Y008580D03*
D1309*
X011355Y008355D03*
D1310*
X014243Y008358D03*
X014243Y008361D03*
X014243Y008364D03*
X014243Y008367D03*
X014243Y008373D03*
X014243Y008376D03*
X014243Y008379D03*
X014243Y008382D03*
X014243Y008388D03*
X014243Y008391D03*
X014243Y008394D03*
X014243Y008397D03*
X014243Y008403D03*
X014243Y008406D03*
X014243Y008409D03*
X014243Y008412D03*
X014243Y008418D03*
D1311*
X011354Y008358D03*
D1312*
X011658Y008364D03*
X011658Y008367D03*
X013548Y008571D03*
X008031Y008658D03*
D1313*
X014243Y008415D03*
X014243Y008400D03*
X014243Y008385D03*
X014243Y008370D03*
D1314*
X013547Y008565D03*
X011660Y008370D03*
D1315*
X011354Y008370D03*
D1316*
X010874Y008370D03*
D1317*
X011354Y008373D03*
D1318*
X011355Y008382D03*
X013254Y008589D03*
X009279Y008553D03*
D1319*
X013026Y008385D03*
D1320*
X010871Y008385D03*
D1321*
X010869Y008388D03*
X012564Y008673D03*
D1322*
X013023Y008541D03*
X013521Y008418D03*
X013521Y008412D03*
X013521Y008409D03*
X013521Y008406D03*
X013521Y008403D03*
X013521Y008397D03*
X013521Y008394D03*
X011706Y008472D03*
D1323*
X010790Y008646D03*
X013025Y008397D03*
D1324*
X012567Y008610D03*
X012150Y008400D03*
X009072Y008640D03*
D1325*
X011354Y008400D03*
D1326*
X010865Y008400D03*
D1327*
X011354Y008415D03*
D1328*
X010860Y008415D03*
X012564Y008670D03*
D1329*
X010857Y008424D03*
X010857Y008421D03*
D1330*
X011354Y008424D03*
X010121Y008541D03*
X009896Y008682D03*
D1331*
X014244Y008430D03*
D1332*
X013523Y008430D03*
X011810Y008625D03*
X011708Y008475D03*
X007898Y008580D03*
D1333*
X013026Y008430D03*
D1334*
X012573Y008430D03*
D1335*
X011355Y008430D03*
X010110Y008550D03*
D1336*
X014246Y008445D03*
D1337*
X013524Y008445D03*
X013524Y008460D03*
X012570Y008505D03*
X011700Y008460D03*
D1338*
X013026Y008445D03*
X008031Y008625D03*
D1339*
X012149Y008445D03*
D1340*
X011694Y008445D03*
D1341*
X011355Y008445D03*
D1342*
X010850Y008445D03*
D1343*
X011354Y008448D03*
X009896Y008679D03*
D1344*
X010848Y008451D03*
X010848Y008448D03*
D1345*
X011697Y008454D03*
D1346*
X014246Y008460D03*
D1347*
X012147Y008460D03*
D1348*
X013025Y008565D03*
X007775Y008460D03*
D1349*
X013025Y008463D03*
D1350*
X012147Y008463D03*
D1351*
X012147Y008466D03*
X012147Y008469D03*
D1352*
X010841Y008469D03*
X010841Y008472D03*
D1353*
X014249Y008475D03*
D1354*
X013527Y008475D03*
D1355*
X013026Y008475D03*
X011355Y008640D03*
X009900Y008625D03*
D1356*
X011355Y008520D03*
X012570Y008475D03*
D1357*
X010839Y008475D03*
D1358*
X011354Y008490D03*
X010223Y008490D03*
X008372Y008475D03*
D1359*
X014249Y008478D03*
X014249Y008481D03*
D1360*
X011354Y008493D03*
X011354Y008496D03*
X009746Y008559D03*
X008891Y008577D03*
X008369Y008481D03*
X007841Y008547D03*
D1361*
X014250Y008487D03*
X014250Y008484D03*
D1362*
X013025Y008484D03*
D1363*
X013529Y008487D03*
X013529Y008493D03*
D1364*
X014252Y008490D03*
D1365*
X013529Y008490D03*
X011354Y008550D03*
D1366*
X013025Y008490D03*
D1367*
X010836Y008490D03*
D1368*
X014252Y008493D03*
D1369*
X010832Y008502D03*
D1370*
X013533Y008505D03*
D1371*
X013025Y008505D03*
D1372*
X010830Y008505D03*
D1373*
X010215Y008505D03*
X009753Y008565D03*
X008895Y008580D03*
D1374*
X013535Y008517D03*
X013535Y008514D03*
D1375*
X012627Y010422D03*
X010827Y008514D03*
D1376*
X013535Y008520D03*
D1377*
X013025Y008520D03*
D1378*
X010827Y008520D03*
D1379*
X011735Y008523D03*
X011780Y008589D03*
X013025Y008544D03*
D1380*
X014438Y008526D03*
D1381*
X013992Y008529D03*
D1382*
X013538Y008535D03*
X012143Y008535D03*
D1383*
X011825Y008640D03*
X013025Y008535D03*
D1384*
X012570Y008535D03*
D1385*
X013968Y008580D03*
X008271Y008535D03*
D1386*
X010820Y008541D03*
D1387*
X013272Y008544D03*
D1388*
X014441Y008550D03*
X010814Y008565D03*
D1389*
X011355Y008565D03*
X013983Y008550D03*
D1390*
X013542Y008550D03*
D1391*
X013271Y008550D03*
D1392*
X013559Y008595D03*
X012569Y008550D03*
D1393*
X011751Y008550D03*
D1394*
X009282Y008550D03*
D1395*
X008255Y008550D03*
D1396*
X007845Y008550D03*
D1397*
X010811Y008571D03*
X012566Y008643D03*
X014444Y008568D03*
X014444Y008562D03*
D1398*
X013977Y008565D03*
D1399*
X013265Y008565D03*
D1400*
X009267Y008565D03*
D1401*
X013550Y008574D03*
X013550Y008577D03*
D1402*
X013025Y008574D03*
D1403*
X013260Y008577D03*
D1404*
X014445Y008580D03*
D1405*
X013259Y008580D03*
D1406*
X010808Y008580D03*
D1407*
X009792Y008580D03*
D1408*
X009072Y008607D03*
X014445Y008586D03*
X014445Y008583D03*
D1409*
X013253Y008595D03*
X009056Y008685D03*
D1410*
X009065Y008595D03*
D1411*
X012567Y008601D03*
X012627Y010431D03*
D1412*
X012567Y008604D03*
D1413*
X014448Y008610D03*
D1414*
X013566Y008610D03*
D1415*
X013245Y008610D03*
D1416*
X011355Y008610D03*
D1417*
X012566Y008640D03*
X014441Y008625D03*
X009074Y008610D03*
D1418*
X012567Y008616D03*
D1419*
X013574Y008625D03*
D1420*
X010796Y008625D03*
D1421*
X013235Y008628D03*
D1422*
X014427Y008640D03*
D1423*
X013226Y008640D03*
D1424*
X008031Y008640D03*
D1425*
X014408Y008655D03*
D1426*
X013596Y008655D03*
D1427*
X011843Y008655D03*
D1428*
X009897Y008655D03*
D1429*
X008031Y008655D03*
D1430*
X014399Y008661D03*
D1431*
X014382Y008670D03*
D1432*
X011292Y008670D03*
D1433*
X011295Y008673D03*
D1434*
X013464Y008676D03*
D1435*
X012626Y010308D03*
X011303Y008676D03*
D1436*
X011309Y008679D03*
D1437*
X013464Y008682D03*
D1438*
X014345Y008685D03*
D1439*
X013464Y008685D03*
D1440*
X012561Y008685D03*
D1441*
X011324Y008685D03*
D1442*
X009896Y008685D03*
D1443*
X008027Y008685D03*
D1444*
X012626Y008688D03*
X012626Y008691D03*
X012626Y008694D03*
D1445*
X012627Y008697D03*
X012627Y008703D03*
D1446*
X012627Y008700D03*
D1447*
X012626Y008706D03*
X012626Y008709D03*
X012626Y008712D03*
D1448*
X012627Y008715D03*
D1449*
X012627Y008718D03*
X012627Y008721D03*
D1450*
X012626Y008724D03*
X012626Y008727D03*
D1451*
X012627Y008730D03*
D1452*
X012627Y008733D03*
X012627Y008736D03*
D1453*
X012626Y008739D03*
X012626Y008742D03*
D1454*
X012626Y008745D03*
D1455*
X012627Y008748D03*
X012627Y008751D03*
X012627Y008754D03*
D1456*
X012626Y008757D03*
D1457*
X012626Y008760D03*
D1458*
X012627Y008763D03*
X012627Y008766D03*
D1459*
X012626Y008769D03*
X012626Y008772D03*
D1460*
X012626Y008775D03*
D1461*
X012627Y008778D03*
X012627Y008781D03*
D1462*
X012626Y008784D03*
X012626Y008787D03*
D1463*
X012626Y008790D03*
D1464*
X012627Y008793D03*
X012627Y008796D03*
X012627Y008799D03*
D1465*
X012626Y008802D03*
D1466*
X012626Y008805D03*
D1467*
X012627Y008808D03*
X012627Y008811D03*
D1468*
X012626Y008814D03*
X012626Y008817D03*
D1469*
X012627Y008820D03*
D1470*
X012627Y008823D03*
D1471*
X012626Y008826D03*
X012626Y008829D03*
D1472*
X012627Y008832D03*
X012627Y008838D03*
D1473*
X012627Y008835D03*
D1474*
X012626Y008841D03*
X012626Y008844D03*
D1475*
X012627Y008847D03*
D1476*
X012627Y008850D03*
D1477*
X012626Y008853D03*
X012626Y008856D03*
D1478*
X012627Y008859D03*
X012627Y008862D03*
D1479*
X012626Y008865D03*
D1480*
X012626Y008868D03*
D1481*
X012627Y008871D03*
X012627Y008874D03*
D1482*
X012626Y008877D03*
D1483*
X012626Y008880D03*
D1484*
X012627Y008883D03*
X012627Y008886D03*
D1485*
X012626Y008889D03*
D1486*
X012627Y008892D03*
D1487*
X012627Y008895D03*
D1488*
X012626Y008898D03*
X012626Y008901D03*
D1489*
X012627Y008904D03*
X012627Y008907D03*
D1490*
X012626Y008910D03*
D1491*
X012626Y008913D03*
D1492*
X012627Y008916D03*
X012627Y008919D03*
D1493*
X012626Y008922D03*
D1494*
X012626Y008925D03*
D1495*
X012627Y008928D03*
D1496*
X012626Y008931D03*
X012626Y008934D03*
D1497*
X012627Y008937D03*
D1498*
X012627Y008940D03*
D1499*
X012626Y008943D03*
X012626Y008946D03*
D1500*
X012627Y008949D03*
D1501*
X012626Y008952D03*
D1502*
X012626Y008955D03*
D1503*
X012627Y008958D03*
D1504*
X012626Y008961D03*
X012626Y008964D03*
D1505*
X012627Y008967D03*
D1506*
X012627Y008970D03*
D1507*
X012626Y008973D03*
X012626Y008976D03*
D1508*
X012627Y008979D03*
D1509*
X012626Y008982D03*
D1510*
X012626Y008985D03*
D1511*
X012627Y008988D03*
D1512*
X012626Y008991D03*
X012626Y008994D03*
D1513*
X012627Y008997D03*
D1514*
X012626Y009000D03*
D1515*
X012626Y009003D03*
D1516*
X012627Y009006D03*
X012627Y009009D03*
D1517*
X012626Y009012D03*
D1518*
X012627Y009015D03*
D1519*
X012626Y009018D03*
X012626Y009021D03*
D1520*
X012627Y009024D03*
D1521*
X012626Y009027D03*
D1522*
X012626Y009030D03*
D1523*
X012627Y009033D03*
D1524*
X012626Y009036D03*
X012626Y009039D03*
D1525*
X012627Y009042D03*
D1526*
X012626Y009045D03*
D1527*
X012627Y009048D03*
X012627Y009051D03*
D1528*
X012626Y009054D03*
X012626Y009057D03*
D1529*
X012627Y009060D03*
D1530*
X012626Y009063D03*
D1531*
X012627Y009066D03*
D1532*
X012626Y009069D03*
X012626Y009072D03*
D1533*
X012627Y009075D03*
D1534*
X012626Y009078D03*
X012626Y009081D03*
D1535*
X012627Y009084D03*
D1536*
X012626Y009087D03*
D1537*
X012627Y009090D03*
D1538*
X012627Y009093D03*
D1539*
X012626Y009096D03*
D1540*
X012627Y009099D03*
X012627Y009102D03*
D1541*
X012626Y009105D03*
D1542*
X012627Y009108D03*
D1543*
X012626Y009111D03*
D1544*
X012627Y009114D03*
D1545*
X012626Y009117D03*
D1546*
X012626Y009120D03*
D1547*
X012627Y009123D03*
D1548*
X012626Y009126D03*
D1549*
X012627Y009129D03*
X012627Y009132D03*
D1550*
X012626Y009135D03*
D1551*
X012627Y009138D03*
D1552*
X012626Y009141D03*
D1553*
X012627Y009144D03*
X012627Y009147D03*
D1554*
X012626Y009150D03*
D1555*
X012627Y009153D03*
D1556*
X012626Y009156D03*
D1557*
X012627Y009159D03*
D1558*
X012626Y009162D03*
D1559*
X012627Y009165D03*
D1560*
X012627Y009168D03*
D1561*
X012626Y009171D03*
D1562*
X012627Y009174D03*
D1563*
X012626Y009177D03*
D1564*
X012627Y009180D03*
D1565*
X012626Y009183D03*
D1566*
X012627Y009186D03*
X012627Y009189D03*
D1567*
X012626Y009192D03*
D1568*
X012627Y009195D03*
D1569*
X012626Y009198D03*
D1570*
X012627Y009201D03*
D1571*
X012626Y009204D03*
D1572*
X012627Y009207D03*
D1573*
X012627Y009210D03*
D1574*
X012626Y009213D03*
D1575*
X012627Y009216D03*
D1576*
X012626Y009219D03*
D1577*
X012627Y009222D03*
D1578*
X012626Y009225D03*
D1579*
X012627Y009228D03*
D1580*
X012626Y009231D03*
D1581*
X012627Y009234D03*
D1582*
X012626Y009237D03*
D1583*
X012627Y009240D03*
D1584*
X012626Y009243D03*
D1585*
X012627Y009246D03*
X012627Y009249D03*
D1586*
X012627Y009252D03*
D1587*
X012627Y009255D03*
D1588*
X012626Y009258D03*
D1589*
X012627Y009261D03*
D1590*
X012626Y009264D03*
D1591*
X012627Y009267D03*
D1592*
X012626Y009270D03*
D1593*
X012627Y009273D03*
D1594*
X012626Y009276D03*
D1595*
X012627Y009279D03*
D1596*
X012626Y009282D03*
D1597*
X012627Y009285D03*
D1598*
X012626Y009288D03*
D1599*
X012627Y009291D03*
D1600*
X012626Y009294D03*
D1601*
X012627Y009297D03*
D1602*
X012626Y009300D03*
D1603*
X012627Y009303D03*
D1604*
X012626Y009306D03*
D1605*
X012627Y009309D03*
D1606*
X012626Y009312D03*
D1607*
X012627Y009315D03*
D1608*
X012627Y009318D03*
X012627Y009321D03*
D1609*
X012627Y009324D03*
D1610*
X012626Y009327D03*
D1611*
X012627Y009330D03*
D1612*
X012626Y009333D03*
D1613*
X012627Y009336D03*
D1614*
X012626Y009339D03*
D1615*
X012627Y009342D03*
D1616*
X012626Y009345D03*
D1617*
X012627Y009348D03*
D1618*
X012626Y009351D03*
D1619*
X012627Y009354D03*
D1620*
X012626Y009357D03*
D1621*
X012627Y009360D03*
D1622*
X012627Y009363D03*
D1623*
X012626Y009366D03*
D1624*
X012627Y009369D03*
D1625*
X012626Y009372D03*
D1626*
X012627Y009375D03*
D1627*
X012627Y009381D03*
D1628*
X012627Y009390D03*
D1629*
X012627Y009396D03*
D1630*
X012626Y009399D03*
D1631*
X012627Y009402D03*
D1632*
X012626Y009405D03*
D1633*
X012627Y009408D03*
D1634*
X012627Y009411D03*
D1635*
X012626Y009414D03*
D1636*
X012627Y009417D03*
D1637*
X012626Y009420D03*
D1638*
X012627Y009423D03*
D1639*
X012627Y009426D03*
D1640*
X012627Y009432D03*
D1641*
X012627Y009438D03*
D1642*
X012627Y009441D03*
D1643*
X012627Y009447D03*
D1644*
X012626Y009450D03*
D1645*
X012627Y009453D03*
D1646*
X012627Y009456D03*
D1647*
X012627Y009462D03*
D1648*
X012627Y009465D03*
D1649*
X012627Y009471D03*
D1650*
X012626Y009474D03*
D1651*
X012627Y009480D03*
D1652*
X012627Y009486D03*
D1653*
X012627Y009489D03*
D1654*
X012627Y009495D03*
D1655*
X012627Y009498D03*
D1656*
X012627Y009504D03*
D1657*
X012627Y009507D03*
D1658*
X012626Y009510D03*
D1659*
X012627Y009513D03*
D1660*
X012627Y009516D03*
D1661*
X012626Y009519D03*
D1662*
X012627Y009522D03*
D1663*
X012627Y009525D03*
D1664*
X012626Y009528D03*
D1665*
X012627Y009531D03*
D1666*
X012627Y009534D03*
D1667*
X012626Y009540D03*
D1668*
X012627Y009543D03*
D1669*
X012627Y009552D03*
D1670*
X012627Y009555D03*
D1671*
X012627Y009561D03*
D1672*
X012627Y009564D03*
D1673*
X012626Y009567D03*
D1674*
X012627Y009570D03*
D1675*
X012627Y009573D03*
D1676*
X012626Y009576D03*
D1677*
X012626Y009579D03*
D1678*
X012627Y009582D03*
D1679*
X012627Y009585D03*
D1680*
X012626Y009591D03*
D1681*
X012627Y009594D03*
D1682*
X012627Y009597D03*
D1683*
X012626Y009600D03*
D1684*
X012626Y009603D03*
D1685*
X012627Y009606D03*
D1686*
X012626Y009615D03*
D1687*
X012627Y009618D03*
D1688*
X012627Y009621D03*
D1689*
X012626Y009624D03*
D1690*
X012626Y009627D03*
D1691*
X012627Y009633D03*
D1692*
X012626Y009636D03*
D1693*
X012626Y009639D03*
D1694*
X012627Y009642D03*
D1695*
X012627Y009645D03*
D1696*
X012626Y009651D03*
D1697*
X012626Y009654D03*
D1698*
X012627Y009657D03*
D1699*
X012627Y009660D03*
D1700*
X012627Y009663D03*
D1701*
X012626Y009666D03*
D1702*
X012626Y009669D03*
D1703*
X012626Y009672D03*
D1704*
X012627Y009675D03*
D1705*
X012627Y009678D03*
D1706*
X012626Y009681D03*
D1707*
X012626Y009684D03*
D1708*
X012626Y009687D03*
D1709*
X012627Y009690D03*
D1710*
X012627Y009693D03*
D1711*
X012627Y009696D03*
D1712*
X012626Y009699D03*
D1713*
X012626Y009702D03*
D1714*
X012626Y009705D03*
D1715*
X012627Y009708D03*
D1716*
X012627Y009711D03*
D1717*
X012627Y009714D03*
D1718*
X012627Y009717D03*
D1719*
X012626Y009720D03*
D1720*
X012626Y009723D03*
D1721*
X012626Y009726D03*
D1722*
X012626Y009729D03*
D1723*
X012627Y009732D03*
D1724*
X012627Y009735D03*
D1725*
X012627Y009741D03*
D1726*
X012627Y009744D03*
D1727*
X012626Y009747D03*
D1728*
X012626Y009750D03*
D1729*
X012626Y009753D03*
D1730*
X012626Y009756D03*
D1731*
X012627Y009759D03*
D1732*
X012627Y009762D03*
D1733*
X012627Y009765D03*
D1734*
X012627Y009768D03*
D1735*
X012627Y009774D03*
D1736*
X012626Y009777D03*
D1737*
X012626Y009780D03*
D1738*
X012626Y009783D03*
D1739*
X012626Y009786D03*
D1740*
X012626Y009789D03*
D1741*
X012626Y009792D03*
D1742*
X012626Y009795D03*
D1743*
X012626Y009798D03*
D1744*
X012626Y009801D03*
D1745*
X012627Y009804D03*
D1746*
X012627Y009807D03*
D1747*
X012627Y009810D03*
D1748*
X012627Y009813D03*
D1749*
X012627Y009816D03*
D1750*
X012627Y009822D03*
D1751*
X012627Y009825D03*
D1752*
X012627Y009828D03*
D1753*
X012627Y009831D03*
D1754*
X012627Y009837D03*
D1755*
X012627Y009840D03*
D1756*
X012627Y009843D03*
D1757*
X012627Y009846D03*
D1758*
X012627Y009852D03*
D1759*
X012627Y009858D03*
D1760*
X012626Y009861D03*
D1761*
X012626Y009864D03*
D1762*
X012626Y009867D03*
D1763*
X012626Y009870D03*
D1764*
X012626Y009873D03*
D1765*
X012626Y009876D03*
D1766*
X012626Y009879D03*
D1767*
X012627Y009882D03*
D1768*
X012627Y009885D03*
D1769*
X012627Y009888D03*
D1770*
X012627Y009891D03*
D1771*
X012627Y009894D03*
D1772*
X012627Y009897D03*
D1773*
X012627Y009900D03*
D1774*
X012626Y009903D03*
D1775*
X012626Y009906D03*
D1776*
X012626Y009909D03*
D1777*
X012627Y009915D03*
D1778*
X012627Y009918D03*
D1779*
X012627Y009921D03*
D1780*
X012627Y009924D03*
D1781*
X012626Y009927D03*
D1782*
X012626Y009930D03*
D1783*
X012626Y009933D03*
D1784*
X012627Y009936D03*
D1785*
X012627Y009939D03*
D1786*
X012627Y009942D03*
D1787*
X012626Y009945D03*
D1788*
X012626Y009948D03*
D1789*
X012627Y009954D03*
D1790*
X012627Y009957D03*
D1791*
X012627Y009960D03*
D1792*
X012626Y009966D03*
D1793*
X012627Y009972D03*
D1794*
X012626Y009975D03*
D1795*
X012626Y009978D03*
D1796*
X012626Y009990D03*
D1797*
X012626Y010002D03*
D1798*
X012627Y010014D03*
D1799*
X012627Y010023D03*
D1800*
X012627Y010026D03*
D1801*
X012627Y010035D03*
D1802*
X012626Y010038D03*
D1803*
X012627Y010041D03*
D1804*
X012626Y010044D03*
D1805*
X012626Y010047D03*
D1806*
X012627Y010050D03*
D1807*
X012626Y010053D03*
D1808*
X012626Y010056D03*
D1809*
X012627Y010059D03*
D1810*
X012626Y010062D03*
D1811*
X012627Y010065D03*
D1812*
X012626Y010068D03*
D1813*
X012627Y010071D03*
D1814*
X012626Y010074D03*
D1815*
X012627Y010077D03*
D1816*
X012626Y010080D03*
D1817*
X012626Y010083D03*
D1818*
X012627Y010086D03*
D1819*
X012627Y010089D03*
D1820*
X012627Y010095D03*
D1821*
X012626Y010098D03*
D1822*
X012626Y010104D03*
D1823*
X012627Y010107D03*
D1824*
X012626Y010110D03*
D1825*
X012627Y010113D03*
D1826*
X012626Y010116D03*
D1827*
X012627Y010119D03*
D1828*
X012626Y010122D03*
D1829*
X012627Y010125D03*
D1830*
X012627Y010128D03*
D1831*
X012626Y010131D03*
D1832*
X012627Y010134D03*
D1833*
X012626Y010137D03*
D1834*
X012626Y010140D03*
D1835*
X012627Y010143D03*
D1836*
X012626Y010146D03*
D1837*
X012626Y010149D03*
D1838*
X012627Y010152D03*
D1839*
X012626Y010155D03*
D1840*
X012626Y010158D03*
D1841*
X012627Y010161D03*
D1842*
X012627Y010164D03*
D1843*
X012626Y010167D03*
D1844*
X012626Y010170D03*
D1845*
X012627Y010173D03*
D1846*
X012627Y010176D03*
D1847*
X012627Y010179D03*
D1848*
X012626Y010182D03*
D1849*
X012626Y010185D03*
D1850*
X012627Y010188D03*
D1851*
X012627Y010194D03*
D1852*
X012627Y010197D03*
D1853*
X012626Y010200D03*
D1854*
X012626Y010203D03*
D1855*
X012626Y010206D03*
D1856*
X012626Y010209D03*
D1857*
X012627Y010212D03*
D1858*
X012627Y010215D03*
D1859*
X012627Y010218D03*
D1860*
X012627Y010221D03*
D1861*
X012627Y010224D03*
D1862*
X012627Y010227D03*
D1863*
X012627Y010230D03*
D1864*
X012626Y010239D03*
D1865*
X012626Y010242D03*
D1866*
X012627Y010245D03*
D1867*
X012627Y010248D03*
D1868*
X012626Y010254D03*
D1869*
X012627Y010257D03*
D1870*
X012626Y010260D03*
D1871*
X012627Y010263D03*
D1872*
X012627Y010266D03*
D1873*
X012626Y010269D03*
D1874*
X012627Y010272D03*
D1875*
X012627Y010275D03*
D1876*
X012626Y010278D03*
D1877*
X012627Y010281D03*
D1878*
X012627Y010284D03*
D1879*
X012627Y010287D03*
D1880*
X012627Y010296D03*
D1881*
X012627Y010299D03*
D1882*
X012627Y010302D03*
D1883*
X012627Y010305D03*
D1884*
X012627Y010311D03*
D1885*
X012627Y010314D03*
D1886*
X012627Y010317D03*
D1887*
X012627Y010320D03*
D1888*
X012626Y010323D03*
D1889*
X012626Y010326D03*
D1890*
X012627Y010332D03*
D1891*
X012627Y010335D03*
D1892*
X012627Y010338D03*
D1893*
X012627Y010341D03*
D1894*
X012626Y010344D03*
D1895*
X012627Y010347D03*
D1896*
X012627Y010350D03*
D1897*
X012627Y010353D03*
D1898*
X012627Y010356D03*
D1899*
X012626Y010365D03*
D1900*
X012626Y010374D03*
D1901*
X012627Y010377D03*
D1902*
X012627Y010380D03*
D1903*
X012627Y010383D03*
D1904*
X012626Y010386D03*
D1905*
X012627Y010389D03*
D1906*
X012627Y010395D03*
D1907*
X012626Y010398D03*
D1908*
X012627Y010416D03*
D1909*
X012627Y010425D03*
D1910*
X012627Y010440D03*
M02*
