G75*
G70*
%OFA0B0*%
%FSLAX24Y24*%
%IPPOS*%
%LPD*%
%AMOC8*
5,1,8,0,0,1.08239X$1,22.5*
%
%ADD10C,0.0600*%
%ADD11C,0.0860*%
%ADD12C,0.0320*%
%ADD13C,0.0100*%
D10*
X001811Y003599D02*
X002411Y003599D01*
X002411Y004599D02*
X001811Y004599D01*
X001811Y005599D02*
X002411Y005599D01*
X002411Y006599D02*
X001811Y006599D01*
X001811Y008099D02*
X002411Y008099D01*
X002411Y009099D02*
X001811Y009099D01*
X001811Y010099D02*
X002411Y010099D01*
X002411Y011099D02*
X001811Y011099D01*
X004311Y011699D02*
X004311Y012299D01*
X005311Y012299D02*
X005311Y011699D01*
X006711Y011699D02*
X006711Y012299D01*
X007711Y012299D02*
X007711Y011699D01*
X009111Y011699D02*
X009111Y012299D01*
X010111Y012299D02*
X010111Y011699D01*
X011511Y011699D02*
X011511Y012299D01*
X012511Y012299D02*
X012511Y011699D01*
X013511Y011699D02*
X013511Y012299D01*
D11*
X013779Y004668D03*
X012795Y004668D03*
X010826Y004668D03*
X009842Y004668D03*
X008279Y004668D03*
X007295Y004668D03*
X005326Y004668D03*
X004342Y004668D03*
X006311Y002699D03*
X011811Y002699D03*
D12*
X009011Y007399D03*
X006811Y007599D03*
X005611Y007699D03*
X002911Y001499D03*
D13*
X000840Y001594D02*
X000753Y001713D01*
X000671Y001966D01*
X000661Y002099D01*
X000661Y012231D01*
X000795Y011999D01*
X001043Y011790D01*
X001043Y011790D01*
X001348Y011679D01*
X001432Y011679D01*
X001673Y011679D01*
X001978Y011790D01*
X002226Y011999D01*
X002388Y012280D01*
X002445Y012599D01*
X002388Y012919D01*
X014433Y012919D01*
X014376Y012599D01*
X014433Y012280D01*
X014433Y012280D01*
X014595Y011999D01*
X014595Y011999D01*
X014843Y011790D01*
X014843Y011790D01*
X015148Y011679D01*
X015473Y011679D01*
X015778Y011790D01*
X016026Y011999D01*
X016131Y012179D01*
X016131Y002519D01*
X016026Y002700D01*
X015778Y002908D01*
X015778Y002908D01*
X015473Y003019D01*
X015148Y003019D01*
X014843Y002908D01*
X014595Y002700D01*
X014595Y002700D01*
X014595Y002700D01*
X014433Y002419D01*
X014376Y002099D01*
X014433Y001780D01*
X014433Y001780D01*
X014595Y001499D01*
X014595Y001499D01*
X014843Y001290D01*
X014956Y001249D01*
X001965Y001249D01*
X002078Y001290D01*
X002326Y001499D01*
X002488Y001780D01*
X002545Y002099D01*
X002488Y002419D01*
X002326Y002700D01*
X002078Y002908D01*
X002078Y002908D01*
X001773Y003019D01*
X001448Y003019D01*
X001143Y002908D01*
X000895Y002700D01*
X000895Y002700D01*
X000895Y002700D01*
X000733Y002419D01*
X000676Y002099D01*
X000733Y001780D01*
X000733Y001780D01*
X000840Y001594D01*
X000784Y001690D02*
X000770Y001690D01*
X000731Y001789D02*
X000729Y001789D01*
X000714Y001887D02*
X000697Y001887D01*
X000696Y001986D02*
X000670Y001986D01*
X000662Y002084D02*
X000679Y002084D01*
X000676Y002099D02*
X000676Y002099D01*
X000661Y002183D02*
X000691Y002183D01*
X000708Y002281D02*
X000661Y002281D01*
X000661Y002380D02*
X000726Y002380D01*
X000733Y002419D02*
X000733Y002419D01*
X000767Y002478D02*
X000661Y002478D01*
X000661Y002577D02*
X000824Y002577D01*
X000881Y002675D02*
X000661Y002675D01*
X000661Y002774D02*
X000983Y002774D01*
X001101Y002872D02*
X000661Y002872D01*
X000661Y002971D02*
X001315Y002971D01*
X001143Y002908D02*
X001143Y002908D01*
X000661Y003069D02*
X004226Y003069D01*
X004265Y003085D02*
X004123Y003026D01*
X004015Y002918D01*
X003956Y002776D01*
X003956Y002622D01*
X004015Y002480D01*
X004123Y002372D01*
X004265Y002313D01*
X004419Y002313D01*
X004561Y002372D01*
X004670Y002480D01*
X004728Y002622D01*
X004728Y002776D01*
X004670Y002918D01*
X004561Y003026D01*
X004419Y003085D01*
X004265Y003085D01*
X004458Y003069D02*
X005860Y003069D01*
X005819Y003028D02*
X005731Y002814D01*
X005731Y002584D01*
X005819Y002371D01*
X005982Y002207D01*
X006195Y002119D01*
X006426Y002119D01*
X006639Y002207D01*
X006802Y002371D01*
X006891Y002584D01*
X006891Y002814D01*
X006802Y003028D01*
X006639Y003191D01*
X006426Y003279D01*
X006195Y003279D01*
X005982Y003191D01*
X005819Y003028D01*
X005795Y002971D02*
X004617Y002971D01*
X004688Y002872D02*
X005754Y002872D01*
X005731Y002774D02*
X004728Y002774D01*
X004728Y002675D02*
X005731Y002675D01*
X005734Y002577D02*
X004709Y002577D01*
X004667Y002478D02*
X005774Y002478D01*
X005815Y002380D02*
X004569Y002380D01*
X004460Y002084D02*
X008161Y002084D01*
X008202Y002101D02*
X008060Y002042D01*
X007952Y001934D01*
X007893Y001792D01*
X007893Y001638D01*
X007952Y001496D01*
X008060Y001387D01*
X008202Y001329D01*
X008356Y001329D01*
X008498Y001387D01*
X008607Y001496D01*
X008665Y001638D01*
X008665Y001792D01*
X008607Y001934D01*
X008498Y002042D01*
X008356Y002101D01*
X008202Y002101D01*
X008397Y002084D02*
X009724Y002084D01*
X009765Y002101D02*
X009623Y002042D01*
X009515Y001934D01*
X009456Y001792D01*
X009456Y001638D01*
X009515Y001496D01*
X009623Y001387D01*
X009765Y001329D01*
X009919Y001329D01*
X010061Y001387D01*
X010170Y001496D01*
X010228Y001638D01*
X010228Y001792D01*
X010170Y001934D01*
X010061Y002042D01*
X009919Y002101D01*
X009765Y002101D01*
X009960Y002084D02*
X013661Y002084D01*
X013702Y002101D02*
X013560Y002042D01*
X013452Y001934D01*
X013393Y001792D01*
X013393Y001638D01*
X013452Y001496D01*
X013560Y001387D01*
X013702Y001329D01*
X013856Y001329D01*
X013998Y001387D01*
X014107Y001496D01*
X014165Y001638D01*
X014165Y001792D01*
X014107Y001934D01*
X013998Y002042D01*
X013856Y002101D01*
X013702Y002101D01*
X013504Y001986D02*
X010118Y001986D01*
X010189Y001887D02*
X013432Y001887D01*
X013393Y001789D02*
X010228Y001789D01*
X010228Y001690D02*
X013393Y001690D01*
X013412Y001592D02*
X010209Y001592D01*
X010167Y001493D02*
X013455Y001493D01*
X013553Y001395D02*
X010068Y001395D01*
X009616Y001395D02*
X008505Y001395D01*
X008604Y001493D02*
X009518Y001493D01*
X009475Y001592D02*
X008646Y001592D01*
X008665Y001690D02*
X009456Y001690D01*
X009456Y001789D02*
X008665Y001789D01*
X008626Y001887D02*
X009495Y001887D01*
X009567Y001986D02*
X008555Y001986D01*
X008356Y002313D02*
X008202Y002313D01*
X008060Y002372D01*
X007952Y002480D01*
X007893Y002622D01*
X007893Y002776D01*
X007952Y002918D01*
X008060Y003026D01*
X008202Y003085D01*
X008356Y003085D01*
X008498Y003026D01*
X008607Y002918D01*
X008665Y002776D01*
X008665Y002622D01*
X008607Y002480D01*
X008498Y002372D01*
X008356Y002313D01*
X008506Y002380D02*
X009615Y002380D01*
X009623Y002372D02*
X009765Y002313D01*
X009919Y002313D01*
X010061Y002372D01*
X010170Y002480D01*
X010228Y002622D01*
X010228Y002776D01*
X010170Y002918D01*
X010061Y003026D01*
X009919Y003085D01*
X009765Y003085D01*
X009623Y003026D01*
X009515Y002918D01*
X009456Y002776D01*
X009456Y002622D01*
X009515Y002480D01*
X009623Y002372D01*
X009517Y002478D02*
X008604Y002478D01*
X008646Y002577D02*
X009475Y002577D01*
X009456Y002675D02*
X008665Y002675D01*
X008665Y002774D02*
X009456Y002774D01*
X009496Y002872D02*
X008625Y002872D01*
X008554Y002971D02*
X009567Y002971D01*
X009726Y003069D02*
X008395Y003069D01*
X008163Y003069D02*
X006761Y003069D01*
X006826Y002971D02*
X008004Y002971D01*
X007933Y002872D02*
X006867Y002872D01*
X006891Y002774D02*
X007893Y002774D01*
X007893Y002675D02*
X006891Y002675D01*
X006888Y002577D02*
X007912Y002577D01*
X007954Y002478D02*
X006847Y002478D01*
X006806Y002380D02*
X008052Y002380D01*
X008004Y001986D02*
X004618Y001986D01*
X004670Y001934D02*
X004561Y002042D01*
X004419Y002101D01*
X004265Y002101D01*
X004123Y002042D01*
X004015Y001934D01*
X003956Y001792D01*
X003956Y001638D01*
X004015Y001496D01*
X004123Y001387D01*
X004265Y001329D01*
X004419Y001329D01*
X004561Y001387D01*
X004670Y001496D01*
X004728Y001638D01*
X004728Y001792D01*
X004670Y001934D01*
X004689Y001887D02*
X007932Y001887D01*
X007893Y001789D02*
X004728Y001789D01*
X004728Y001690D02*
X007893Y001690D01*
X007912Y001592D02*
X004709Y001592D01*
X004667Y001493D02*
X007955Y001493D01*
X008053Y001395D02*
X004568Y001395D01*
X004116Y001395D02*
X002202Y001395D01*
X002320Y001493D02*
X004018Y001493D01*
X003975Y001592D02*
X002380Y001592D01*
X002326Y001499D02*
X002326Y001499D01*
X002326Y001499D01*
X002437Y001690D02*
X003956Y001690D01*
X003956Y001789D02*
X002490Y001789D01*
X002488Y001780D02*
X002488Y001780D01*
X002507Y001887D02*
X003995Y001887D01*
X004067Y001986D02*
X002525Y001986D01*
X002542Y002084D02*
X004224Y002084D01*
X004115Y002380D02*
X002495Y002380D01*
X002488Y002419D02*
X002488Y002419D01*
X002454Y002478D02*
X004017Y002478D01*
X003975Y002577D02*
X002397Y002577D01*
X002340Y002675D02*
X003956Y002675D01*
X003956Y002774D02*
X002238Y002774D01*
X002326Y002700D02*
X002326Y002700D01*
X002121Y002872D02*
X003996Y002872D01*
X004067Y002971D02*
X001906Y002971D01*
X001721Y003149D02*
X002500Y003149D01*
X002665Y003218D01*
X002792Y003344D01*
X002861Y003510D01*
X002861Y003689D01*
X002792Y003854D01*
X002665Y003981D01*
X002500Y004049D01*
X001721Y004049D01*
X001556Y003981D01*
X001429Y003854D01*
X001361Y003689D01*
X001361Y003510D01*
X001429Y003344D01*
X001556Y003218D01*
X001721Y003149D01*
X001676Y003168D02*
X000661Y003168D01*
X000661Y003266D02*
X001507Y003266D01*
X001421Y003365D02*
X000661Y003365D01*
X000661Y003463D02*
X001380Y003463D01*
X001361Y003562D02*
X000661Y003562D01*
X000661Y003660D02*
X001361Y003660D01*
X001390Y003759D02*
X000661Y003759D01*
X000661Y003857D02*
X001432Y003857D01*
X001531Y003956D02*
X000661Y003956D01*
X000661Y004054D02*
X016131Y004054D01*
X016131Y003956D02*
X002690Y003956D01*
X002789Y003857D02*
X016131Y003857D01*
X016131Y003759D02*
X002832Y003759D01*
X002861Y003660D02*
X016131Y003660D01*
X016131Y003562D02*
X002861Y003562D01*
X002841Y003463D02*
X016131Y003463D01*
X016131Y003365D02*
X002801Y003365D01*
X002714Y003266D02*
X006164Y003266D01*
X005959Y003168D02*
X002545Y003168D01*
X002513Y002281D02*
X005908Y002281D01*
X006042Y002183D02*
X002530Y002183D01*
X002545Y002099D02*
X002545Y002099D01*
X002911Y001499D02*
X003011Y001499D01*
X002085Y001296D02*
X014836Y001296D01*
X014719Y001395D02*
X014005Y001395D01*
X014104Y001493D02*
X014602Y001493D01*
X014541Y001592D02*
X014146Y001592D01*
X014165Y001690D02*
X014484Y001690D01*
X014431Y001789D02*
X014165Y001789D01*
X014126Y001887D02*
X014414Y001887D01*
X014396Y001986D02*
X014055Y001986D01*
X013897Y002084D02*
X014379Y002084D01*
X014376Y002099D02*
X014376Y002099D01*
X014391Y002183D02*
X012079Y002183D01*
X012139Y002207D02*
X012302Y002371D01*
X012391Y002584D01*
X012391Y002814D01*
X012302Y003028D01*
X012139Y003191D01*
X011926Y003279D01*
X011695Y003279D01*
X011482Y003191D01*
X011319Y003028D01*
X011231Y002814D01*
X011231Y002584D01*
X011319Y002371D01*
X011482Y002207D01*
X011695Y002119D01*
X011926Y002119D01*
X012139Y002207D01*
X012213Y002281D02*
X014408Y002281D01*
X014426Y002380D02*
X014006Y002380D01*
X013998Y002372D02*
X014107Y002480D01*
X014165Y002622D01*
X014165Y002776D01*
X014107Y002918D01*
X013998Y003026D01*
X013856Y003085D01*
X013702Y003085D01*
X013560Y003026D01*
X013452Y002918D01*
X013393Y002776D01*
X013393Y002622D01*
X013452Y002480D01*
X013560Y002372D01*
X013702Y002313D01*
X013856Y002313D01*
X013998Y002372D01*
X014104Y002478D02*
X014467Y002478D01*
X014433Y002419D02*
X014433Y002419D01*
X014524Y002577D02*
X014146Y002577D01*
X014165Y002675D02*
X014581Y002675D01*
X014683Y002774D02*
X014165Y002774D01*
X014125Y002872D02*
X014801Y002872D01*
X014843Y002908D02*
X014843Y002908D01*
X015015Y002971D02*
X014054Y002971D01*
X013895Y003069D02*
X016131Y003069D01*
X016131Y002971D02*
X015606Y002971D01*
X015821Y002872D02*
X016131Y002872D01*
X016131Y002774D02*
X015938Y002774D01*
X016026Y002700D02*
X016026Y002700D01*
X016040Y002675D02*
X016131Y002675D01*
X016131Y002577D02*
X016097Y002577D01*
X016131Y003168D02*
X012162Y003168D01*
X012261Y003069D02*
X013663Y003069D01*
X013504Y002971D02*
X012326Y002971D01*
X012367Y002872D02*
X013433Y002872D01*
X013393Y002774D02*
X012391Y002774D01*
X012391Y002675D02*
X013393Y002675D01*
X013412Y002577D02*
X012388Y002577D01*
X012347Y002478D02*
X013454Y002478D01*
X013552Y002380D02*
X012306Y002380D01*
X011542Y002183D02*
X006579Y002183D01*
X006713Y002281D02*
X011408Y002281D01*
X011315Y002380D02*
X010069Y002380D01*
X010167Y002478D02*
X011274Y002478D01*
X011234Y002577D02*
X010209Y002577D01*
X010228Y002675D02*
X011231Y002675D01*
X011231Y002774D02*
X010228Y002774D01*
X010188Y002872D02*
X011254Y002872D01*
X011295Y002971D02*
X010117Y002971D01*
X009958Y003069D02*
X011360Y003069D01*
X011459Y003168D02*
X006662Y003168D01*
X006457Y003266D02*
X011664Y003266D01*
X011957Y003266D02*
X016131Y003266D01*
X016131Y004153D02*
X014046Y004153D01*
X014083Y004171D02*
X014002Y004130D01*
X013915Y004102D01*
X013829Y004088D01*
X013829Y004618D01*
X013829Y004718D01*
X013729Y004718D01*
X013729Y005247D01*
X013643Y005233D01*
X013556Y005205D01*
X013475Y005164D01*
X013401Y005110D01*
X013337Y005045D01*
X013292Y004984D01*
X013287Y004996D01*
X013123Y005159D01*
X012910Y005248D01*
X012679Y005248D01*
X012466Y005159D01*
X012303Y004996D01*
X012215Y004783D01*
X012215Y004552D01*
X012303Y004339D01*
X012466Y004176D01*
X012679Y004088D01*
X012910Y004088D01*
X013123Y004176D01*
X013287Y004339D01*
X013292Y004352D01*
X013337Y004290D01*
X013401Y004225D01*
X013475Y004171D01*
X013556Y004130D01*
X013643Y004102D01*
X013729Y004088D01*
X013729Y004618D01*
X013829Y004618D01*
X014358Y004618D01*
X014345Y004532D01*
X014317Y004445D01*
X014275Y004364D01*
X014221Y004290D01*
X014157Y004225D01*
X014083Y004171D01*
X014183Y004251D02*
X016131Y004251D01*
X016131Y004350D02*
X014265Y004350D01*
X014318Y004448D02*
X016131Y004448D01*
X016131Y004547D02*
X014347Y004547D01*
X014358Y004718D02*
X014345Y004803D01*
X014317Y004890D01*
X014275Y004972D01*
X014221Y005045D01*
X014157Y005110D01*
X014083Y005164D01*
X014002Y005205D01*
X013915Y005233D01*
X013829Y005247D01*
X013829Y004718D01*
X014358Y004718D01*
X014354Y004744D02*
X016131Y004744D01*
X016131Y004842D02*
X014332Y004842D01*
X014291Y004941D02*
X016131Y004941D01*
X016131Y005039D02*
X014226Y005039D01*
X014119Y005138D02*
X016131Y005138D01*
X016131Y005236D02*
X013897Y005236D01*
X013829Y005236D02*
X013729Y005236D01*
X013661Y005236D02*
X012938Y005236D01*
X013145Y005138D02*
X013439Y005138D01*
X013332Y005039D02*
X013244Y005039D01*
X013729Y005039D02*
X013829Y005039D01*
X013829Y004941D02*
X013729Y004941D01*
X013729Y004842D02*
X013829Y004842D01*
X013829Y004744D02*
X013729Y004744D01*
X013829Y004645D02*
X016131Y004645D01*
X016131Y005335D02*
X002782Y005335D01*
X002792Y005344D02*
X002861Y005510D01*
X002861Y005689D01*
X002792Y005854D01*
X002665Y005981D01*
X002500Y006049D01*
X001721Y006049D01*
X001556Y005981D01*
X001429Y005854D01*
X001361Y005689D01*
X001361Y005510D01*
X001429Y005344D01*
X001556Y005218D01*
X001721Y005149D01*
X002500Y005149D01*
X002665Y005218D01*
X002792Y005344D01*
X002829Y005433D02*
X016131Y005433D01*
X016131Y005532D02*
X002861Y005532D01*
X002861Y005630D02*
X016131Y005630D01*
X016131Y005729D02*
X002844Y005729D01*
X002803Y005827D02*
X016131Y005827D01*
X016131Y005926D02*
X002720Y005926D01*
X002560Y006024D02*
X016131Y006024D01*
X016131Y006123D02*
X000661Y006123D01*
X000661Y006221D02*
X001565Y006221D01*
X001575Y006214D02*
X001638Y006182D01*
X001705Y006160D01*
X001775Y006149D01*
X002061Y006149D01*
X002061Y006549D01*
X002161Y006549D01*
X002161Y006649D01*
X002858Y006649D01*
X002850Y006704D01*
X002828Y006772D01*
X002795Y006835D01*
X002754Y006892D01*
X002704Y006942D01*
X002646Y006984D01*
X002583Y007016D01*
X002516Y007038D01*
X002446Y007049D01*
X002161Y007049D01*
X002161Y006649D01*
X002061Y006649D01*
X002061Y007049D01*
X001775Y007049D01*
X001705Y007038D01*
X001638Y007016D01*
X001575Y006984D01*
X001517Y006942D01*
X001467Y006892D01*
X001426Y006835D01*
X001394Y006772D01*
X001372Y006704D01*
X001363Y006649D01*
X002061Y006649D01*
X002061Y006549D01*
X001363Y006549D01*
X001372Y006494D01*
X001394Y006426D01*
X001426Y006363D01*
X001467Y006306D01*
X001517Y006256D01*
X001575Y006214D01*
X001457Y006320D02*
X000661Y006320D01*
X000661Y006418D02*
X001398Y006418D01*
X001368Y006517D02*
X000661Y006517D01*
X000661Y006615D02*
X002061Y006615D01*
X002061Y006517D02*
X002161Y006517D01*
X002161Y006549D02*
X002161Y006149D01*
X002446Y006149D01*
X002516Y006160D01*
X002583Y006182D01*
X002646Y006214D01*
X002704Y006256D01*
X002754Y006306D01*
X002795Y006363D01*
X002828Y006426D01*
X002850Y006494D01*
X002858Y006549D01*
X002161Y006549D01*
X002161Y006615D02*
X016131Y006615D01*
X016131Y006517D02*
X002853Y006517D01*
X002823Y006418D02*
X016131Y006418D01*
X016131Y006320D02*
X002764Y006320D01*
X002656Y006221D02*
X016131Y006221D01*
X016131Y006714D02*
X002847Y006714D01*
X002807Y006812D02*
X016131Y006812D01*
X016131Y006911D02*
X002735Y006911D01*
X002597Y007009D02*
X016131Y007009D01*
X016131Y007108D02*
X000661Y007108D01*
X000661Y007206D02*
X016131Y007206D01*
X016131Y007305D02*
X000661Y007305D01*
X000661Y007403D02*
X016131Y007403D01*
X016131Y007502D02*
X000661Y007502D01*
X000661Y007600D02*
X016131Y007600D01*
X016131Y007699D02*
X002620Y007699D01*
X002665Y007718D02*
X002500Y007649D01*
X001721Y007649D01*
X001556Y007718D01*
X001429Y007844D01*
X001361Y008010D01*
X001361Y008189D01*
X001429Y008354D01*
X001556Y008481D01*
X001721Y008549D01*
X002478Y008549D01*
X002633Y008704D01*
X002500Y008649D01*
X001721Y008649D01*
X001556Y008718D01*
X001429Y008844D01*
X001361Y009010D01*
X001361Y009189D01*
X001429Y009354D01*
X001556Y009481D01*
X001721Y009549D01*
X002500Y009549D01*
X002665Y009481D01*
X002792Y009354D01*
X002861Y009189D01*
X002861Y009010D01*
X002806Y008877D01*
X004411Y010482D01*
X004528Y010599D01*
X009828Y010599D01*
X011061Y011832D01*
X011061Y012389D01*
X011129Y012554D01*
X011256Y012681D01*
X011421Y012749D01*
X011600Y012749D01*
X011765Y012681D01*
X011892Y012554D01*
X011961Y012389D01*
X011961Y011610D01*
X011892Y011444D01*
X011765Y011318D01*
X011600Y011249D01*
X011421Y011249D01*
X011256Y011318D01*
X011184Y011389D01*
X009993Y010199D01*
X004693Y010199D01*
X002809Y008314D01*
X002861Y008189D01*
X002861Y008010D01*
X002792Y007844D01*
X002665Y007718D01*
X002745Y007797D02*
X016131Y007797D01*
X016131Y007896D02*
X002813Y007896D01*
X002854Y007994D02*
X016131Y007994D01*
X016131Y008093D02*
X002861Y008093D01*
X002860Y008191D02*
X016131Y008191D01*
X016131Y008290D02*
X002819Y008290D01*
X002882Y008388D02*
X016131Y008388D01*
X016131Y008487D02*
X002981Y008487D01*
X003079Y008585D02*
X016131Y008585D01*
X016131Y008684D02*
X003178Y008684D01*
X003276Y008782D02*
X016131Y008782D01*
X016131Y008881D02*
X003375Y008881D01*
X003473Y008979D02*
X016131Y008979D01*
X016131Y009078D02*
X003572Y009078D01*
X003670Y009176D02*
X016131Y009176D01*
X016131Y009275D02*
X003769Y009275D01*
X003867Y009373D02*
X016131Y009373D01*
X016131Y009472D02*
X003966Y009472D01*
X004064Y009570D02*
X016131Y009570D01*
X016131Y009669D02*
X004163Y009669D01*
X004261Y009767D02*
X016131Y009767D01*
X016131Y009866D02*
X004360Y009866D01*
X004458Y009964D02*
X016131Y009964D01*
X016131Y010063D02*
X004557Y010063D01*
X004655Y010161D02*
X016131Y010161D01*
X016131Y010260D02*
X010054Y010260D01*
X010152Y010358D02*
X016131Y010358D01*
X016131Y010457D02*
X010251Y010457D01*
X010349Y010555D02*
X016131Y010555D01*
X016131Y010654D02*
X010448Y010654D01*
X010546Y010752D02*
X016131Y010752D01*
X016131Y010851D02*
X010645Y010851D01*
X010743Y010949D02*
X016131Y010949D01*
X016131Y011048D02*
X010842Y011048D01*
X010940Y011146D02*
X016131Y011146D01*
X016131Y011245D02*
X011039Y011245D01*
X011137Y011343D02*
X011230Y011343D01*
X010867Y011639D02*
X010557Y011639D01*
X010561Y011664D02*
X010561Y011949D01*
X010161Y011949D01*
X010161Y012049D01*
X010561Y012049D01*
X010561Y012334D01*
X010550Y012404D01*
X010528Y012472D01*
X010495Y012535D01*
X010454Y012592D01*
X010404Y012642D01*
X010346Y012684D01*
X010283Y012716D01*
X010216Y012738D01*
X010161Y012747D01*
X010161Y012049D01*
X010061Y012049D01*
X010061Y012747D01*
X010005Y012738D01*
X009938Y012716D01*
X009875Y012684D01*
X009817Y012642D01*
X009767Y012592D01*
X009726Y012535D01*
X009694Y012472D01*
X009672Y012404D01*
X009661Y012334D01*
X009661Y012049D01*
X010061Y012049D01*
X010061Y011949D01*
X010161Y011949D01*
X010161Y011251D01*
X010216Y011260D01*
X010283Y011282D01*
X010346Y011314D01*
X010404Y011356D01*
X010454Y011406D01*
X010495Y011463D01*
X010528Y011526D01*
X010550Y011594D01*
X010561Y011664D01*
X010561Y011737D02*
X010966Y011737D01*
X011061Y011836D02*
X010561Y011836D01*
X010561Y011934D02*
X011061Y011934D01*
X011061Y012033D02*
X010161Y012033D01*
X010161Y012131D02*
X010061Y012131D01*
X010061Y012033D02*
X009561Y012033D01*
X009561Y012131D02*
X009661Y012131D01*
X009661Y012230D02*
X009561Y012230D01*
X009561Y012328D02*
X009661Y012328D01*
X009679Y012427D02*
X009545Y012427D01*
X009561Y012389D02*
X009492Y012554D01*
X009365Y012681D01*
X009200Y012749D01*
X009021Y012749D01*
X008856Y012681D01*
X008729Y012554D01*
X008661Y012389D01*
X008661Y011610D01*
X008729Y011444D01*
X008856Y011318D01*
X009021Y011249D01*
X009200Y011249D01*
X009365Y011318D01*
X009492Y011444D01*
X009561Y011610D01*
X009561Y012389D01*
X009504Y012525D02*
X009721Y012525D01*
X009799Y012624D02*
X009422Y012624D01*
X009265Y012722D02*
X009956Y012722D01*
X010061Y012722D02*
X010161Y012722D01*
X010161Y012624D02*
X010061Y012624D01*
X010061Y012525D02*
X010161Y012525D01*
X010161Y012427D02*
X010061Y012427D01*
X010061Y012328D02*
X010161Y012328D01*
X010161Y012230D02*
X010061Y012230D01*
X010061Y011949D02*
X009661Y011949D01*
X009661Y011664D01*
X009672Y011594D01*
X009694Y011526D01*
X009726Y011463D01*
X009767Y011406D01*
X009817Y011356D01*
X009875Y011314D01*
X009938Y011282D01*
X010005Y011260D01*
X010061Y011251D01*
X010061Y011949D01*
X010061Y011934D02*
X010161Y011934D01*
X010161Y011836D02*
X010061Y011836D01*
X010061Y011737D02*
X010161Y011737D01*
X010161Y011639D02*
X010061Y011639D01*
X010061Y011540D02*
X010161Y011540D01*
X010161Y011442D02*
X010061Y011442D01*
X010061Y011343D02*
X010161Y011343D01*
X010386Y011343D02*
X010572Y011343D01*
X010480Y011442D02*
X010670Y011442D01*
X010769Y011540D02*
X010532Y011540D01*
X010473Y011245D02*
X002836Y011245D01*
X002828Y011272D02*
X002795Y011335D01*
X002754Y011392D01*
X002704Y011442D01*
X002646Y011484D01*
X002583Y011516D01*
X002516Y011538D01*
X002446Y011549D01*
X002161Y011549D01*
X002161Y011149D01*
X002858Y011149D01*
X002850Y011204D01*
X002828Y011272D01*
X002790Y011343D02*
X004030Y011343D01*
X004056Y011318D02*
X004221Y011249D01*
X004400Y011249D01*
X004565Y011318D01*
X004692Y011444D01*
X004761Y011610D01*
X004761Y012389D01*
X004692Y012554D01*
X004565Y012681D01*
X004400Y012749D01*
X004221Y012749D01*
X004056Y012681D01*
X003929Y012554D01*
X003861Y012389D01*
X003861Y011610D01*
X003929Y011444D01*
X004056Y011318D01*
X003932Y011442D02*
X002704Y011442D01*
X002503Y011540D02*
X003889Y011540D01*
X003861Y011639D02*
X000661Y011639D01*
X000661Y011737D02*
X001189Y011737D01*
X000989Y011836D02*
X000661Y011836D01*
X000661Y011934D02*
X000872Y011934D01*
X000775Y012033D02*
X000661Y012033D01*
X000661Y012131D02*
X000718Y012131D01*
X000662Y012230D02*
X000661Y012230D01*
X000661Y011540D02*
X001719Y011540D01*
X001705Y011538D02*
X001638Y011516D01*
X001575Y011484D01*
X001517Y011442D01*
X000661Y011442D01*
X000661Y011343D02*
X001432Y011343D01*
X001426Y011335D02*
X001394Y011272D01*
X001372Y011204D01*
X001363Y011149D01*
X002061Y011149D01*
X002061Y011549D01*
X001775Y011549D01*
X001705Y011538D01*
X001517Y011442D02*
X001467Y011392D01*
X001426Y011335D01*
X001385Y011245D02*
X000661Y011245D01*
X000661Y011146D02*
X002061Y011146D01*
X002061Y011149D02*
X002061Y011049D01*
X002161Y011049D01*
X002161Y011149D01*
X002061Y011149D01*
X002061Y011245D02*
X002161Y011245D01*
X002161Y011343D02*
X002061Y011343D01*
X002061Y011442D02*
X002161Y011442D01*
X002161Y011540D02*
X002061Y011540D01*
X001978Y011790D02*
X001978Y011790D01*
X002032Y011836D02*
X003861Y011836D01*
X003861Y011934D02*
X002149Y011934D01*
X002226Y011999D02*
X002226Y011999D01*
X002226Y011999D01*
X002246Y012033D02*
X003861Y012033D01*
X003861Y012131D02*
X002303Y012131D01*
X002360Y012230D02*
X003861Y012230D01*
X003861Y012328D02*
X002397Y012328D01*
X002388Y012280D02*
X002388Y012280D01*
X002414Y012427D02*
X003876Y012427D01*
X003917Y012525D02*
X002432Y012525D01*
X002445Y012599D02*
X002445Y012599D01*
X002440Y012624D02*
X003999Y012624D01*
X004156Y012722D02*
X002423Y012722D01*
X002406Y012821D02*
X014415Y012821D01*
X014433Y012919D02*
X014433Y012919D01*
X014595Y013200D01*
X014595Y013200D01*
X014595Y013200D01*
X014843Y013408D01*
X014843Y013408D01*
X014945Y013445D01*
X001876Y013445D01*
X001978Y013408D01*
X001978Y013408D01*
X002226Y013200D01*
X002226Y013200D01*
X002388Y012919D01*
X002388Y012919D01*
X002331Y013018D02*
X014490Y013018D01*
X014547Y013116D02*
X002274Y013116D01*
X002208Y013215D02*
X014613Y013215D01*
X014730Y013313D02*
X002091Y013313D01*
X001968Y013412D02*
X014853Y013412D01*
X014398Y012722D02*
X013665Y012722D01*
X013683Y012716D02*
X013616Y012738D01*
X013561Y012747D01*
X013561Y012049D01*
X013961Y012049D01*
X013961Y012334D01*
X013950Y012404D01*
X013928Y012472D01*
X013895Y012535D01*
X013854Y012592D01*
X013804Y012642D01*
X013746Y012684D01*
X013683Y012716D01*
X013561Y012722D02*
X013461Y012722D01*
X013461Y012747D02*
X013405Y012738D01*
X013338Y012716D01*
X013275Y012684D01*
X013217Y012642D01*
X013167Y012592D01*
X013126Y012535D01*
X013094Y012472D01*
X013072Y012404D01*
X013061Y012334D01*
X013061Y012049D01*
X013461Y012049D01*
X013461Y012747D01*
X013356Y012722D02*
X012665Y012722D01*
X012600Y012749D02*
X012421Y012749D01*
X012256Y012681D01*
X012129Y012554D01*
X012061Y012389D01*
X012061Y011610D01*
X012129Y011444D01*
X012256Y011318D01*
X012421Y011249D01*
X012600Y011249D01*
X012765Y011318D01*
X012892Y011444D01*
X012961Y011610D01*
X012961Y012389D01*
X012892Y012554D01*
X012765Y012681D01*
X012600Y012749D01*
X012822Y012624D02*
X013199Y012624D01*
X013121Y012525D02*
X012904Y012525D01*
X012945Y012427D02*
X013079Y012427D01*
X013061Y012328D02*
X012961Y012328D01*
X012961Y012230D02*
X013061Y012230D01*
X013061Y012131D02*
X012961Y012131D01*
X012961Y012033D02*
X013461Y012033D01*
X013461Y012049D02*
X013461Y011949D01*
X013561Y011949D01*
X013561Y012049D01*
X013461Y012049D01*
X013461Y012131D02*
X013561Y012131D01*
X013561Y012033D02*
X014575Y012033D01*
X014518Y012131D02*
X013961Y012131D01*
X013961Y012230D02*
X014462Y012230D01*
X014424Y012328D02*
X013961Y012328D01*
X013942Y012427D02*
X014407Y012427D01*
X014389Y012525D02*
X013900Y012525D01*
X013822Y012624D02*
X014381Y012624D01*
X014376Y012599D02*
X014376Y012599D01*
X013561Y012624D02*
X013461Y012624D01*
X013461Y012525D02*
X013561Y012525D01*
X013561Y012427D02*
X013461Y012427D01*
X013461Y012328D02*
X013561Y012328D01*
X013561Y012230D02*
X013461Y012230D01*
X013461Y011949D02*
X013061Y011949D01*
X013061Y011664D01*
X013072Y011594D01*
X013094Y011526D01*
X013126Y011463D01*
X013167Y011406D01*
X013217Y011356D01*
X013275Y011314D01*
X013338Y011282D01*
X013405Y011260D01*
X013461Y011251D01*
X013461Y011949D01*
X013461Y011934D02*
X013561Y011934D01*
X013561Y011949D02*
X013561Y011251D01*
X013616Y011260D01*
X013683Y011282D01*
X013746Y011314D01*
X013804Y011356D01*
X013854Y011406D01*
X013895Y011463D01*
X013928Y011526D01*
X013950Y011594D01*
X013961Y011664D01*
X013961Y011949D01*
X013561Y011949D01*
X013561Y011836D02*
X013461Y011836D01*
X013461Y011737D02*
X013561Y011737D01*
X013561Y011639D02*
X013461Y011639D01*
X013461Y011540D02*
X013561Y011540D01*
X013561Y011442D02*
X013461Y011442D01*
X013461Y011343D02*
X013561Y011343D01*
X013786Y011343D02*
X016131Y011343D01*
X016131Y011442D02*
X013880Y011442D01*
X013932Y011540D02*
X016131Y011540D01*
X016131Y011639D02*
X013957Y011639D01*
X013961Y011737D02*
X014989Y011737D01*
X014789Y011836D02*
X013961Y011836D01*
X013961Y011934D02*
X014672Y011934D01*
X015632Y011737D02*
X016131Y011737D01*
X016131Y011836D02*
X015832Y011836D01*
X015778Y011790D02*
X015778Y011790D01*
X015949Y011934D02*
X016131Y011934D01*
X016131Y012033D02*
X016046Y012033D01*
X016026Y011999D02*
X016026Y011999D01*
X016026Y011999D01*
X016103Y012131D02*
X016131Y012131D01*
X013235Y011343D02*
X012791Y011343D01*
X012890Y011442D02*
X013141Y011442D01*
X013089Y011540D02*
X012932Y011540D01*
X012961Y011639D02*
X013065Y011639D01*
X013061Y011737D02*
X012961Y011737D01*
X012961Y011836D02*
X013061Y011836D01*
X013061Y011934D02*
X012961Y011934D01*
X012230Y011343D02*
X011791Y011343D01*
X011890Y011442D02*
X012132Y011442D01*
X012089Y011540D02*
X011932Y011540D01*
X011961Y011639D02*
X012061Y011639D01*
X012061Y011737D02*
X011961Y011737D01*
X011961Y011836D02*
X012061Y011836D01*
X012061Y011934D02*
X011961Y011934D01*
X011961Y012033D02*
X012061Y012033D01*
X012061Y012131D02*
X011961Y012131D01*
X011961Y012230D02*
X012061Y012230D01*
X012061Y012328D02*
X011961Y012328D01*
X011945Y012427D02*
X012076Y012427D01*
X012117Y012525D02*
X011904Y012525D01*
X011822Y012624D02*
X012199Y012624D01*
X012356Y012722D02*
X011665Y012722D01*
X011356Y012722D02*
X010265Y012722D01*
X010422Y012624D02*
X011199Y012624D01*
X011117Y012525D02*
X010500Y012525D01*
X010542Y012427D02*
X011076Y012427D01*
X011061Y012328D02*
X010561Y012328D01*
X010561Y012230D02*
X011061Y012230D01*
X011061Y012131D02*
X010561Y012131D01*
X009661Y011934D02*
X009561Y011934D01*
X009561Y011836D02*
X009661Y011836D01*
X009661Y011737D02*
X009561Y011737D01*
X009561Y011639D02*
X009665Y011639D01*
X009689Y011540D02*
X009532Y011540D01*
X009490Y011442D02*
X009741Y011442D01*
X009835Y011343D02*
X009391Y011343D01*
X008830Y011343D02*
X007986Y011343D01*
X008004Y011356D02*
X008054Y011406D01*
X008095Y011463D01*
X008128Y011526D01*
X008150Y011594D01*
X008161Y011664D01*
X008161Y011949D01*
X007761Y011949D01*
X007761Y012049D01*
X008161Y012049D01*
X008161Y012334D01*
X008150Y012404D01*
X008128Y012472D01*
X008095Y012535D01*
X008054Y012592D01*
X008004Y012642D01*
X007946Y012684D01*
X007883Y012716D01*
X007816Y012738D01*
X007761Y012747D01*
X007761Y012049D01*
X007661Y012049D01*
X007661Y012747D01*
X007605Y012738D01*
X007538Y012716D01*
X007475Y012684D01*
X007417Y012642D01*
X007367Y012592D01*
X007326Y012535D01*
X007294Y012472D01*
X007272Y012404D01*
X007261Y012334D01*
X007261Y012049D01*
X007661Y012049D01*
X007661Y011949D01*
X007761Y011949D01*
X007761Y011251D01*
X007816Y011260D01*
X007883Y011282D01*
X007946Y011314D01*
X008004Y011356D01*
X008080Y011442D02*
X008732Y011442D01*
X008689Y011540D02*
X008132Y011540D01*
X008157Y011639D02*
X008661Y011639D01*
X008661Y011737D02*
X008161Y011737D01*
X008161Y011836D02*
X008661Y011836D01*
X008661Y011934D02*
X008161Y011934D01*
X008161Y012131D02*
X008661Y012131D01*
X008661Y012033D02*
X007761Y012033D01*
X007761Y012131D02*
X007661Y012131D01*
X007661Y012033D02*
X007161Y012033D01*
X007161Y012131D02*
X007261Y012131D01*
X007261Y012230D02*
X007161Y012230D01*
X007161Y012328D02*
X007261Y012328D01*
X007279Y012427D02*
X007145Y012427D01*
X007161Y012389D02*
X007092Y012554D01*
X006965Y012681D01*
X006800Y012749D01*
X006621Y012749D01*
X006456Y012681D01*
X006329Y012554D01*
X006261Y012389D01*
X006261Y011610D01*
X006329Y011444D01*
X006456Y011318D01*
X006621Y011249D01*
X006800Y011249D01*
X006965Y011318D01*
X007092Y011444D01*
X007161Y011610D01*
X007161Y012389D01*
X007104Y012525D02*
X007321Y012525D01*
X007399Y012624D02*
X007022Y012624D01*
X006865Y012722D02*
X007556Y012722D01*
X007661Y012722D02*
X007761Y012722D01*
X007761Y012624D02*
X007661Y012624D01*
X007661Y012525D02*
X007761Y012525D01*
X007761Y012427D02*
X007661Y012427D01*
X007661Y012328D02*
X007761Y012328D01*
X007761Y012230D02*
X007661Y012230D01*
X007661Y011949D02*
X007261Y011949D01*
X007261Y011664D01*
X007272Y011594D01*
X007294Y011526D01*
X007326Y011463D01*
X007367Y011406D01*
X007417Y011356D01*
X007475Y011314D01*
X007538Y011282D01*
X007605Y011260D01*
X007661Y011251D01*
X007661Y011949D01*
X007661Y011934D02*
X007761Y011934D01*
X007761Y011836D02*
X007661Y011836D01*
X007661Y011737D02*
X007761Y011737D01*
X007761Y011639D02*
X007661Y011639D01*
X007661Y011540D02*
X007761Y011540D01*
X007761Y011442D02*
X007661Y011442D01*
X007661Y011343D02*
X007761Y011343D01*
X007435Y011343D02*
X006991Y011343D01*
X007090Y011442D02*
X007341Y011442D01*
X007289Y011540D02*
X007132Y011540D01*
X007161Y011639D02*
X007265Y011639D01*
X007261Y011737D02*
X007161Y011737D01*
X007161Y011836D02*
X007261Y011836D01*
X007261Y011934D02*
X007161Y011934D01*
X006430Y011343D02*
X005586Y011343D01*
X005604Y011356D02*
X005654Y011406D01*
X005695Y011463D01*
X005728Y011526D01*
X005750Y011594D01*
X005761Y011664D01*
X005761Y011949D01*
X005361Y011949D01*
X005361Y012049D01*
X005761Y012049D01*
X005761Y012334D01*
X005750Y012404D01*
X005728Y012472D01*
X005695Y012535D01*
X005654Y012592D01*
X005604Y012642D01*
X005546Y012684D01*
X005483Y012716D01*
X005416Y012738D01*
X005361Y012747D01*
X005361Y012049D01*
X005261Y012049D01*
X005261Y012747D01*
X005205Y012738D01*
X005138Y012716D01*
X005075Y012684D01*
X005017Y012642D01*
X004967Y012592D01*
X004926Y012535D01*
X004894Y012472D01*
X004872Y012404D01*
X004861Y012334D01*
X004861Y012049D01*
X005261Y012049D01*
X005261Y011949D01*
X005361Y011949D01*
X005361Y011251D01*
X005416Y011260D01*
X005483Y011282D01*
X005546Y011314D01*
X005604Y011356D01*
X005680Y011442D02*
X006332Y011442D01*
X006289Y011540D02*
X005732Y011540D01*
X005757Y011639D02*
X006261Y011639D01*
X006261Y011737D02*
X005761Y011737D01*
X005761Y011836D02*
X006261Y011836D01*
X006261Y011934D02*
X005761Y011934D01*
X005761Y012131D02*
X006261Y012131D01*
X006261Y012033D02*
X005361Y012033D01*
X005361Y012131D02*
X005261Y012131D01*
X005261Y012033D02*
X004761Y012033D01*
X004761Y012131D02*
X004861Y012131D01*
X004861Y012230D02*
X004761Y012230D01*
X004761Y012328D02*
X004861Y012328D01*
X004879Y012427D02*
X004745Y012427D01*
X004704Y012525D02*
X004921Y012525D01*
X004999Y012624D02*
X004622Y012624D01*
X004465Y012722D02*
X005156Y012722D01*
X005261Y012722D02*
X005361Y012722D01*
X005361Y012624D02*
X005261Y012624D01*
X005261Y012525D02*
X005361Y012525D01*
X005361Y012427D02*
X005261Y012427D01*
X005261Y012328D02*
X005361Y012328D01*
X005361Y012230D02*
X005261Y012230D01*
X005261Y011949D02*
X004861Y011949D01*
X004861Y011664D01*
X004872Y011594D01*
X004894Y011526D01*
X004926Y011463D01*
X004967Y011406D01*
X005017Y011356D01*
X005075Y011314D01*
X005138Y011282D01*
X005205Y011260D01*
X005261Y011251D01*
X005261Y011949D01*
X005261Y011934D02*
X005361Y011934D01*
X005361Y011836D02*
X005261Y011836D01*
X005261Y011737D02*
X005361Y011737D01*
X005361Y011639D02*
X005261Y011639D01*
X005261Y011540D02*
X005361Y011540D01*
X005361Y011442D02*
X005261Y011442D01*
X005261Y011343D02*
X005361Y011343D01*
X005035Y011343D02*
X004591Y011343D01*
X004690Y011442D02*
X004941Y011442D01*
X004889Y011540D02*
X004732Y011540D01*
X004761Y011639D02*
X004865Y011639D01*
X004861Y011737D02*
X004761Y011737D01*
X004761Y011836D02*
X004861Y011836D01*
X004861Y011934D02*
X004761Y011934D01*
X003861Y011737D02*
X001832Y011737D01*
X002161Y011146D02*
X010375Y011146D01*
X010276Y011048D02*
X002858Y011048D01*
X002858Y011049D02*
X002161Y011049D01*
X002161Y010649D01*
X002446Y010649D01*
X002516Y010660D01*
X002583Y010682D01*
X002646Y010714D01*
X002704Y010756D01*
X002754Y010806D01*
X002795Y010863D01*
X002828Y010926D01*
X002850Y010994D01*
X002858Y011049D01*
X002835Y010949D02*
X010178Y010949D01*
X010079Y010851D02*
X002786Y010851D01*
X002699Y010752D02*
X009981Y010752D01*
X009882Y010654D02*
X002475Y010654D01*
X002500Y010549D02*
X002665Y010481D01*
X002792Y010354D01*
X002861Y010189D01*
X002861Y010010D01*
X002792Y009844D01*
X002665Y009718D01*
X002500Y009649D01*
X001721Y009649D01*
X001556Y009718D01*
X001429Y009844D01*
X001361Y010010D01*
X001361Y010189D01*
X001429Y010354D01*
X001556Y010481D01*
X001721Y010549D01*
X002500Y010549D01*
X002689Y010457D02*
X004385Y010457D01*
X004484Y010555D02*
X000661Y010555D01*
X000661Y010457D02*
X001532Y010457D01*
X001433Y010358D02*
X000661Y010358D01*
X000661Y010260D02*
X001390Y010260D01*
X001361Y010161D02*
X000661Y010161D01*
X000661Y010063D02*
X001361Y010063D01*
X001379Y009964D02*
X000661Y009964D01*
X000661Y009866D02*
X001420Y009866D01*
X001506Y009767D02*
X000661Y009767D01*
X000661Y009669D02*
X001674Y009669D01*
X001547Y009472D02*
X000661Y009472D01*
X000661Y009570D02*
X003499Y009570D01*
X003597Y009669D02*
X002547Y009669D01*
X002715Y009767D02*
X003696Y009767D01*
X003794Y009866D02*
X002801Y009866D01*
X002842Y009964D02*
X003893Y009964D01*
X003991Y010063D02*
X002861Y010063D01*
X002861Y010161D02*
X004090Y010161D01*
X004188Y010260D02*
X002831Y010260D01*
X002788Y010358D02*
X004287Y010358D01*
X004611Y010399D02*
X009911Y010399D01*
X011511Y011999D01*
X008956Y012722D02*
X007865Y012722D01*
X008022Y012624D02*
X008799Y012624D01*
X008717Y012525D02*
X008100Y012525D01*
X008142Y012427D02*
X008676Y012427D01*
X008661Y012328D02*
X008161Y012328D01*
X008161Y012230D02*
X008661Y012230D01*
X006556Y012722D02*
X005465Y012722D01*
X005622Y012624D02*
X006399Y012624D01*
X006317Y012525D02*
X005700Y012525D01*
X005742Y012427D02*
X006276Y012427D01*
X006261Y012328D02*
X005761Y012328D01*
X005761Y012230D02*
X006261Y012230D01*
X004611Y010399D02*
X002311Y008099D01*
X002111Y008099D01*
X002514Y008585D02*
X000661Y008585D01*
X000661Y008487D02*
X001570Y008487D01*
X001463Y008388D02*
X000661Y008388D01*
X000661Y008290D02*
X001402Y008290D01*
X001362Y008191D02*
X000661Y008191D01*
X000661Y008093D02*
X001361Y008093D01*
X001367Y007994D02*
X000661Y007994D01*
X000661Y007896D02*
X001408Y007896D01*
X001476Y007797D02*
X000661Y007797D01*
X000661Y007699D02*
X001602Y007699D01*
X001624Y007009D02*
X000661Y007009D01*
X000661Y006911D02*
X001486Y006911D01*
X001414Y006812D02*
X000661Y006812D01*
X000661Y006714D02*
X001375Y006714D01*
X002061Y006714D02*
X002161Y006714D01*
X002161Y006812D02*
X002061Y006812D01*
X002061Y006911D02*
X002161Y006911D01*
X002161Y007009D02*
X002061Y007009D01*
X002061Y006418D02*
X002161Y006418D01*
X002161Y006320D02*
X002061Y006320D01*
X002061Y006221D02*
X002161Y006221D01*
X001661Y006024D02*
X000661Y006024D01*
X000661Y005926D02*
X001501Y005926D01*
X001418Y005827D02*
X000661Y005827D01*
X000661Y005729D02*
X001377Y005729D01*
X001361Y005630D02*
X000661Y005630D01*
X000661Y005532D02*
X001361Y005532D01*
X001392Y005433D02*
X000661Y005433D01*
X000661Y005335D02*
X001439Y005335D01*
X001537Y005236D02*
X000661Y005236D01*
X000661Y005138D02*
X003992Y005138D01*
X004014Y005159D02*
X003850Y004996D01*
X003762Y004783D01*
X003762Y004552D01*
X003850Y004339D01*
X004014Y004176D01*
X004227Y004088D01*
X004457Y004088D01*
X004671Y004176D01*
X004834Y004339D01*
X004834Y004340D01*
X004835Y004339D01*
X004998Y004176D01*
X005211Y004088D01*
X005442Y004088D01*
X005655Y004176D01*
X005818Y004339D01*
X005906Y004552D01*
X005906Y004783D01*
X005818Y004996D01*
X005655Y005159D01*
X005442Y005248D01*
X005211Y005248D01*
X004998Y005159D01*
X004835Y004996D01*
X004834Y004995D01*
X004834Y004996D01*
X004671Y005159D01*
X004457Y005248D01*
X004227Y005248D01*
X004014Y005159D01*
X003893Y005039D02*
X002524Y005039D01*
X002500Y005049D02*
X002665Y004981D01*
X002792Y004854D01*
X002861Y004689D01*
X002861Y004510D01*
X002792Y004344D01*
X002665Y004218D01*
X002500Y004149D01*
X001721Y004149D01*
X001556Y004218D01*
X001429Y004344D01*
X001361Y004510D01*
X001361Y004689D01*
X001429Y004854D01*
X001556Y004981D01*
X001721Y005049D01*
X002500Y005049D01*
X002705Y004941D02*
X003827Y004941D01*
X003787Y004842D02*
X002797Y004842D01*
X002838Y004744D02*
X003762Y004744D01*
X003762Y004645D02*
X002861Y004645D01*
X002861Y004547D02*
X003764Y004547D01*
X003805Y004448D02*
X002835Y004448D01*
X002794Y004350D02*
X003846Y004350D01*
X003938Y004251D02*
X002699Y004251D01*
X002509Y004153D02*
X004070Y004153D01*
X004614Y004153D02*
X005054Y004153D01*
X004923Y004251D02*
X004746Y004251D01*
X004791Y005039D02*
X004878Y005039D01*
X004976Y005138D02*
X004692Y005138D01*
X004485Y005236D02*
X005183Y005236D01*
X005469Y005236D02*
X007152Y005236D01*
X007179Y005248D02*
X006966Y005159D01*
X006803Y004996D01*
X006715Y004783D01*
X006715Y004552D01*
X006803Y004339D01*
X006966Y004176D01*
X007179Y004088D01*
X007410Y004088D01*
X007623Y004176D01*
X007787Y004339D01*
X007792Y004352D01*
X007837Y004290D01*
X007901Y004225D01*
X007975Y004171D01*
X008056Y004130D01*
X008143Y004102D01*
X008229Y004088D01*
X008229Y004618D01*
X008329Y004618D01*
X008329Y004718D01*
X008229Y004718D01*
X008229Y005247D01*
X008143Y005233D01*
X008056Y005205D01*
X007975Y005164D01*
X007901Y005110D01*
X007837Y005045D01*
X007792Y004984D01*
X007787Y004996D01*
X007623Y005159D01*
X007410Y005248D01*
X007179Y005248D01*
X007438Y005236D02*
X008161Y005236D01*
X008229Y005236D02*
X008329Y005236D01*
X008329Y005247D02*
X008329Y004718D01*
X008858Y004718D01*
X008845Y004803D01*
X008817Y004890D01*
X008775Y004972D01*
X008721Y005045D01*
X008657Y005110D01*
X008583Y005164D01*
X008502Y005205D01*
X008415Y005233D01*
X008329Y005247D01*
X008397Y005236D02*
X009699Y005236D01*
X009727Y005248D02*
X009514Y005159D01*
X009350Y004996D01*
X009262Y004783D01*
X009262Y004552D01*
X009350Y004339D01*
X009514Y004176D01*
X009727Y004088D01*
X009957Y004088D01*
X010171Y004176D01*
X010334Y004339D01*
X010334Y004340D01*
X010335Y004339D01*
X010498Y004176D01*
X010711Y004088D01*
X010942Y004088D01*
X011155Y004176D01*
X011318Y004339D01*
X011406Y004552D01*
X011406Y004783D01*
X011318Y004996D01*
X011155Y005159D01*
X010942Y005248D01*
X010711Y005248D01*
X010498Y005159D01*
X010335Y004996D01*
X010334Y004995D01*
X010334Y004996D01*
X010171Y005159D01*
X009957Y005248D01*
X009727Y005248D01*
X009492Y005138D02*
X008619Y005138D01*
X008726Y005039D02*
X009393Y005039D01*
X009327Y004941D02*
X008791Y004941D01*
X008832Y004842D02*
X009287Y004842D01*
X009262Y004744D02*
X008854Y004744D01*
X008858Y004618D02*
X008329Y004618D01*
X008329Y004088D01*
X008415Y004102D01*
X008502Y004130D01*
X008583Y004171D01*
X008657Y004225D01*
X008721Y004290D01*
X008775Y004364D01*
X008817Y004445D01*
X008845Y004532D01*
X008858Y004618D01*
X008847Y004547D02*
X009264Y004547D01*
X009262Y004645D02*
X008329Y004645D01*
X008329Y004547D02*
X008229Y004547D01*
X008229Y004448D02*
X008329Y004448D01*
X008329Y004350D02*
X008229Y004350D01*
X008229Y004251D02*
X008329Y004251D01*
X008329Y004153D02*
X008229Y004153D01*
X008012Y004153D02*
X007567Y004153D01*
X007699Y004251D02*
X007875Y004251D01*
X007793Y004350D02*
X007791Y004350D01*
X008229Y004744D02*
X008329Y004744D01*
X008329Y004842D02*
X008229Y004842D01*
X008229Y004941D02*
X008329Y004941D01*
X008329Y005039D02*
X008229Y005039D01*
X008229Y005138D02*
X008329Y005138D01*
X007939Y005138D02*
X007645Y005138D01*
X007744Y005039D02*
X007832Y005039D01*
X008683Y004251D02*
X009438Y004251D01*
X009346Y004350D02*
X008765Y004350D01*
X008818Y004448D02*
X009305Y004448D01*
X009570Y004153D02*
X008546Y004153D01*
X007023Y004153D02*
X005599Y004153D01*
X005730Y004251D02*
X006891Y004251D01*
X006799Y004350D02*
X005822Y004350D01*
X005863Y004448D02*
X006758Y004448D01*
X006717Y004547D02*
X005904Y004547D01*
X005906Y004645D02*
X006715Y004645D01*
X006715Y004744D02*
X005906Y004744D01*
X005882Y004842D02*
X006739Y004842D01*
X006780Y004941D02*
X005841Y004941D01*
X005775Y005039D02*
X006846Y005039D01*
X006945Y005138D02*
X005677Y005138D01*
X004199Y005236D02*
X002684Y005236D01*
X001697Y005039D02*
X000661Y005039D01*
X000661Y004941D02*
X001516Y004941D01*
X001424Y004842D02*
X000661Y004842D01*
X000661Y004744D02*
X001383Y004744D01*
X001361Y004645D02*
X000661Y004645D01*
X000661Y004547D02*
X001361Y004547D01*
X001386Y004448D02*
X000661Y004448D01*
X000661Y004350D02*
X001427Y004350D01*
X001522Y004251D02*
X000661Y004251D01*
X000661Y004153D02*
X001713Y004153D01*
X002078Y001290D02*
X002078Y001290D01*
X009011Y007199D02*
X009011Y007399D01*
X006911Y007699D02*
X006811Y007599D01*
X005611Y007699D02*
X005611Y007499D01*
X003400Y009472D02*
X002674Y009472D01*
X002773Y009373D02*
X003302Y009373D01*
X003203Y009275D02*
X002825Y009275D01*
X002861Y009176D02*
X003105Y009176D01*
X003006Y009078D02*
X002861Y009078D01*
X002848Y008979D02*
X002908Y008979D01*
X002809Y008881D02*
X002807Y008881D01*
X002612Y008684D02*
X002583Y008684D01*
X001638Y008684D02*
X000661Y008684D01*
X000661Y008782D02*
X001491Y008782D01*
X001414Y008881D02*
X000661Y008881D01*
X000661Y008979D02*
X001373Y008979D01*
X001361Y009078D02*
X000661Y009078D01*
X000661Y009176D02*
X001361Y009176D01*
X001396Y009275D02*
X000661Y009275D01*
X000661Y009373D02*
X001448Y009373D01*
X001705Y010660D02*
X001638Y010682D01*
X001575Y010714D01*
X001517Y010756D01*
X001467Y010806D01*
X001426Y010863D01*
X001394Y010926D01*
X001372Y010994D01*
X001363Y011049D01*
X002061Y011049D01*
X002061Y010649D01*
X001775Y010649D01*
X001705Y010660D01*
X001747Y010654D02*
X000661Y010654D01*
X000661Y010752D02*
X001523Y010752D01*
X001435Y010851D02*
X000661Y010851D01*
X000661Y010949D02*
X001386Y010949D01*
X001363Y011048D02*
X000661Y011048D01*
X002061Y011048D02*
X002161Y011048D01*
X002161Y010949D02*
X002061Y010949D01*
X002061Y010851D02*
X002161Y010851D01*
X002161Y010752D02*
X002061Y010752D01*
X002061Y010654D02*
X002161Y010654D01*
X009985Y005236D02*
X010683Y005236D01*
X010476Y005138D02*
X010192Y005138D01*
X010291Y005039D02*
X010378Y005039D01*
X010969Y005236D02*
X012652Y005236D01*
X012445Y005138D02*
X011177Y005138D01*
X011275Y005039D02*
X012346Y005039D01*
X012280Y004941D02*
X011341Y004941D01*
X011382Y004842D02*
X012239Y004842D01*
X012215Y004744D02*
X011406Y004744D01*
X011406Y004645D02*
X012215Y004645D01*
X012217Y004547D02*
X011404Y004547D01*
X011363Y004448D02*
X012258Y004448D01*
X012299Y004350D02*
X011322Y004350D01*
X011230Y004251D02*
X012391Y004251D01*
X012523Y004153D02*
X011099Y004153D01*
X010554Y004153D02*
X010114Y004153D01*
X010246Y004251D02*
X010423Y004251D01*
X013067Y004153D02*
X013512Y004153D01*
X013375Y004251D02*
X013199Y004251D01*
X013291Y004350D02*
X013293Y004350D01*
X013729Y004350D02*
X013829Y004350D01*
X013829Y004448D02*
X013729Y004448D01*
X013729Y004547D02*
X013829Y004547D01*
X013829Y004251D02*
X013729Y004251D01*
X013729Y004153D02*
X013829Y004153D01*
X013829Y005138D02*
X013729Y005138D01*
M02*
