G75*
G70*
%OFA0B0*%
%FSLAX24Y24*%
%IPPOS*%
%LPD*%
%AMOC8*
5,1,8,0,0,1.08239X$1,22.5*
%
%ADD10C,0.0600*%
%ADD11R,0.0315X0.0315*%
%ADD12R,0.0591X0.0512*%
%ADD13C,0.0860*%
%ADD14R,0.0866X0.0236*%
%ADD15R,0.0512X0.0591*%
%ADD16C,0.0100*%
%ADD17C,0.0320*%
D10*
X001811Y003599D02*
X002411Y003599D01*
X002411Y004599D02*
X001811Y004599D01*
X001811Y005599D02*
X002411Y005599D01*
X002411Y006599D02*
X001811Y006599D01*
X001811Y008099D02*
X002411Y008099D01*
X002411Y009099D02*
X001811Y009099D01*
X001811Y010099D02*
X002411Y010099D01*
X002411Y011099D02*
X001811Y011099D01*
X004311Y011699D02*
X004311Y012299D01*
X005311Y012299D02*
X005311Y011699D01*
X006711Y011699D02*
X006711Y012299D01*
X007711Y012299D02*
X007711Y011699D01*
X009111Y011699D02*
X009111Y012299D01*
X010111Y012299D02*
X010111Y011699D01*
X011511Y011699D02*
X011511Y012299D01*
X012511Y012299D02*
X012511Y011699D01*
X013511Y011699D02*
X013511Y012299D01*
D11*
X006711Y007094D03*
X006711Y006504D03*
D12*
X007511Y006425D03*
X007511Y007173D03*
X008411Y007173D03*
X008411Y006425D03*
X012311Y006425D03*
X012311Y007173D03*
X003411Y002673D03*
X003411Y001925D03*
D13*
X006311Y002699D03*
X007295Y004668D03*
X008279Y004668D03*
X009842Y004668D03*
X010826Y004668D03*
X012795Y004668D03*
X013779Y004668D03*
X011811Y002699D03*
X005326Y004668D03*
X004342Y004668D03*
D14*
X005487Y008149D03*
X005487Y008649D03*
X005487Y009149D03*
X005487Y009649D03*
X007534Y009649D03*
X007534Y009149D03*
X007534Y008649D03*
X007534Y008149D03*
X010187Y008149D03*
X010187Y008649D03*
X010187Y009149D03*
X010187Y009649D03*
X012234Y009649D03*
X012234Y009149D03*
X012234Y008649D03*
X012234Y008149D03*
D15*
X010385Y007099D03*
X009637Y007099D03*
X009637Y006199D03*
X010385Y006199D03*
X013037Y010299D03*
X013785Y010299D03*
X005085Y006299D03*
X004337Y006299D03*
D16*
X004337Y004673D01*
X004342Y004668D01*
X004411Y004599D01*
X004411Y003899D01*
X003411Y002899D01*
X003411Y002673D01*
X002911Y003099D02*
X003211Y003399D01*
X003211Y004299D01*
X002911Y004599D01*
X002811Y004599D01*
X003711Y005499D01*
X003711Y008099D01*
X004761Y009149D01*
X005487Y009149D01*
X005487Y008649D02*
X005537Y008599D01*
X006111Y008599D01*
X006311Y008399D01*
X006311Y002699D01*
X008279Y004668D02*
X008279Y006294D01*
X008411Y006425D01*
X008411Y007173D02*
X007511Y007173D01*
X007511Y008125D01*
X007534Y008149D01*
X007534Y008649D02*
X007484Y008699D01*
X006811Y008699D01*
X006611Y008899D01*
X004911Y008899D01*
X004511Y008499D01*
X004511Y007899D01*
X005085Y007325D01*
X005085Y006299D01*
X005611Y007699D02*
X005487Y007823D01*
X005487Y008149D01*
X006711Y007499D02*
X006711Y007094D01*
X006711Y007499D02*
X006811Y007599D01*
X006711Y006504D02*
X006789Y006425D01*
X007511Y006425D01*
X008411Y007173D02*
X008437Y007199D01*
X008611Y007199D01*
X009111Y006699D01*
X009111Y004099D01*
X009511Y003699D01*
X010111Y003699D01*
X010611Y003199D01*
X010611Y002099D01*
X011111Y001599D01*
X012611Y001599D01*
X013011Y001999D01*
X013011Y003299D01*
X013411Y003699D01*
X014111Y003699D01*
X014611Y004199D01*
X014611Y005499D01*
X012937Y007173D01*
X012311Y007173D01*
X012311Y008073D01*
X012234Y008149D01*
X012284Y008199D01*
X012711Y008199D01*
X012911Y008399D01*
X012911Y010299D01*
X011511Y011699D01*
X011511Y011999D01*
X012511Y011999D02*
X012511Y012399D01*
X012011Y012899D01*
X008711Y012899D01*
X008511Y012699D01*
X008511Y010899D01*
X009211Y010199D01*
X010611Y010199D01*
X011011Y009799D01*
X011011Y009399D01*
X010811Y009199D01*
X010237Y009199D01*
X010187Y009149D01*
X010187Y008649D02*
X009161Y008649D01*
X008211Y009599D01*
X007584Y009599D01*
X007534Y009649D01*
X007484Y009199D02*
X007111Y009199D01*
X004311Y011999D01*
X006711Y011999D02*
X006711Y011799D01*
X008911Y009599D01*
X010137Y009599D01*
X010187Y009649D01*
X010187Y008649D02*
X010237Y008599D01*
X010811Y008599D01*
X011111Y008299D01*
X011111Y005799D01*
X011811Y005099D01*
X011811Y002699D01*
X011111Y003099D02*
X011111Y002199D01*
X011411Y001899D01*
X012311Y001899D01*
X012711Y002299D01*
X012711Y002899D01*
X012211Y003399D01*
X012211Y005299D01*
X011511Y005999D01*
X011511Y008399D01*
X011711Y008599D01*
X012184Y008599D01*
X012234Y008649D01*
X012234Y009149D02*
X011761Y009149D01*
X011411Y009499D01*
X011411Y010599D01*
X011111Y010899D01*
X009411Y010899D01*
X009211Y011099D01*
X009211Y011899D01*
X009111Y011999D01*
X007484Y009199D02*
X007534Y009149D01*
X009211Y007599D02*
X009011Y007399D01*
X009211Y007599D02*
X010011Y007599D01*
X010385Y007225D01*
X010385Y007099D01*
X010187Y007297D01*
X010187Y008149D01*
X009637Y007099D02*
X009637Y006199D01*
X009637Y004873D01*
X009842Y004668D01*
X010385Y006125D02*
X011511Y004999D01*
X011511Y003499D01*
X011111Y003099D01*
X013779Y004668D02*
X013779Y004957D01*
X012311Y006425D01*
X010385Y006199D02*
X010385Y006125D01*
X012911Y010299D02*
X013037Y010299D01*
X013785Y010299D02*
X013785Y010525D01*
X012611Y011699D01*
X012611Y011899D01*
X012511Y011999D01*
X005487Y009649D02*
X003261Y009649D01*
X003061Y009449D01*
X003111Y009399D01*
X003111Y005999D01*
X002711Y005599D01*
X002111Y005599D01*
X002111Y004599D02*
X002811Y004599D01*
X002111Y003599D02*
X001611Y003599D01*
X001211Y003999D01*
X001211Y007699D01*
X001611Y008099D01*
X002111Y008099D01*
X001911Y009099D02*
X001011Y008199D01*
X001011Y003599D01*
X001511Y003099D01*
X002911Y003099D01*
X003337Y001925D02*
X002911Y001499D01*
X003337Y001925D02*
X003411Y001925D01*
X002111Y009099D02*
X001911Y009099D01*
X002111Y010099D02*
X002411Y010099D01*
X003061Y009449D01*
D17*
X002911Y001499D03*
X009011Y007399D03*
X006811Y007599D03*
X005611Y007699D03*
M02*
