G75*
G70*
%OFA0B0*%
%FSLAX24Y24*%
%IPPOS*%
%LPD*%
%AMOC8*
5,1,8,0,0,1.08239X$1,22.5*
%
%ADD10C,0.0000*%
%ADD11C,0.0070*%
%ADD12C,0.0060*%
%ADD13C,0.0080*%
%ADD14C,0.0050*%
%ADD15C,0.0100*%
%ADD16R,0.0098X0.0098*%
D10*
X001511Y001099D02*
X015304Y001099D01*
X015365Y001101D01*
X015426Y001107D01*
X015487Y001116D01*
X015547Y001130D01*
X015606Y001147D01*
X015663Y001168D01*
X015720Y001192D01*
X015774Y001220D01*
X015827Y001251D01*
X015878Y001285D01*
X015926Y001323D01*
X015972Y001364D01*
X016015Y001407D01*
X016056Y001453D01*
X016094Y001501D01*
X016128Y001552D01*
X016159Y001605D01*
X016187Y001659D01*
X016211Y001716D01*
X016232Y001773D01*
X016249Y001832D01*
X016263Y001892D01*
X016272Y001953D01*
X016278Y002014D01*
X016280Y002075D01*
X016281Y002075D02*
X016281Y012695D01*
X016279Y012754D01*
X016273Y012812D01*
X016264Y012871D01*
X016250Y012928D01*
X016233Y012984D01*
X016212Y013039D01*
X016188Y013093D01*
X016160Y013145D01*
X016129Y013195D01*
X016095Y013243D01*
X016058Y013288D01*
X016017Y013331D01*
X015974Y013372D01*
X015929Y013409D01*
X015881Y013443D01*
X015831Y013474D01*
X015779Y013502D01*
X015725Y013526D01*
X015670Y013547D01*
X015614Y013564D01*
X015557Y013578D01*
X015498Y013587D01*
X015440Y013593D01*
X015381Y013595D01*
X001289Y013595D01*
X001289Y013596D02*
X001233Y013594D01*
X001178Y013588D01*
X001123Y013578D01*
X001070Y013564D01*
X001017Y013547D01*
X000965Y013526D01*
X000916Y013501D01*
X000868Y013472D01*
X000822Y013441D01*
X000779Y013406D01*
X000738Y013368D01*
X000700Y013327D01*
X000665Y013284D01*
X000634Y013238D01*
X000605Y013190D01*
X000580Y013141D01*
X000559Y013089D01*
X000542Y013036D01*
X000528Y012983D01*
X000518Y012928D01*
X000512Y012873D01*
X000510Y012817D01*
X000511Y012817D02*
X000511Y002099D01*
X000513Y002039D01*
X000518Y001978D01*
X000527Y001919D01*
X000540Y001860D01*
X000556Y001801D01*
X000576Y001744D01*
X000599Y001689D01*
X000626Y001634D01*
X000655Y001582D01*
X000688Y001531D01*
X000724Y001482D01*
X000762Y001436D01*
X000804Y001392D01*
X000848Y001350D01*
X000894Y001312D01*
X000943Y001276D01*
X000994Y001243D01*
X001046Y001214D01*
X001101Y001187D01*
X001156Y001164D01*
X001213Y001144D01*
X001272Y001128D01*
X001331Y001115D01*
X001390Y001106D01*
X001451Y001101D01*
X001511Y001099D01*
X000961Y002099D02*
X000963Y002149D01*
X000969Y002199D01*
X000979Y002249D01*
X000992Y002297D01*
X001009Y002345D01*
X001030Y002391D01*
X001054Y002435D01*
X001082Y002477D01*
X001113Y002517D01*
X001147Y002554D01*
X001184Y002589D01*
X001223Y002620D01*
X001264Y002649D01*
X001308Y002674D01*
X001354Y002696D01*
X001401Y002714D01*
X001449Y002728D01*
X001498Y002739D01*
X001548Y002746D01*
X001598Y002749D01*
X001649Y002748D01*
X001699Y002743D01*
X001749Y002734D01*
X001797Y002722D01*
X001845Y002705D01*
X001891Y002685D01*
X001936Y002662D01*
X001979Y002635D01*
X002019Y002605D01*
X002057Y002572D01*
X002092Y002536D01*
X002125Y002497D01*
X002154Y002456D01*
X002180Y002413D01*
X002203Y002368D01*
X002222Y002321D01*
X002237Y002273D01*
X002249Y002224D01*
X002257Y002174D01*
X002261Y002124D01*
X002261Y002074D01*
X002257Y002024D01*
X002249Y001974D01*
X002237Y001925D01*
X002222Y001877D01*
X002203Y001830D01*
X002180Y001785D01*
X002154Y001742D01*
X002125Y001701D01*
X002092Y001662D01*
X002057Y001626D01*
X002019Y001593D01*
X001979Y001563D01*
X001936Y001536D01*
X001891Y001513D01*
X001845Y001493D01*
X001797Y001476D01*
X001749Y001464D01*
X001699Y001455D01*
X001649Y001450D01*
X001598Y001449D01*
X001548Y001452D01*
X001498Y001459D01*
X001449Y001470D01*
X001401Y001484D01*
X001354Y001502D01*
X001308Y001524D01*
X001264Y001549D01*
X001223Y001578D01*
X001184Y001609D01*
X001147Y001644D01*
X001113Y001681D01*
X001082Y001721D01*
X001054Y001763D01*
X001030Y001807D01*
X001009Y001853D01*
X000992Y001901D01*
X000979Y001949D01*
X000969Y001999D01*
X000963Y002049D01*
X000961Y002099D01*
X004106Y001715D02*
X004108Y001745D01*
X004114Y001775D01*
X004123Y001804D01*
X004136Y001831D01*
X004153Y001856D01*
X004172Y001879D01*
X004195Y001900D01*
X004220Y001917D01*
X004246Y001931D01*
X004275Y001941D01*
X004304Y001948D01*
X004334Y001951D01*
X004365Y001950D01*
X004395Y001945D01*
X004424Y001936D01*
X004451Y001924D01*
X004477Y001909D01*
X004501Y001890D01*
X004522Y001868D01*
X004540Y001844D01*
X004555Y001817D01*
X004566Y001789D01*
X004574Y001760D01*
X004578Y001730D01*
X004578Y001700D01*
X004574Y001670D01*
X004566Y001641D01*
X004555Y001613D01*
X004540Y001586D01*
X004522Y001562D01*
X004501Y001540D01*
X004477Y001521D01*
X004451Y001506D01*
X004424Y001494D01*
X004395Y001485D01*
X004365Y001480D01*
X004334Y001479D01*
X004304Y001482D01*
X004275Y001489D01*
X004246Y001499D01*
X004220Y001513D01*
X004195Y001530D01*
X004172Y001551D01*
X004153Y001574D01*
X004136Y001599D01*
X004123Y001626D01*
X004114Y001655D01*
X004108Y001685D01*
X004106Y001715D01*
X004106Y002699D02*
X004108Y002729D01*
X004114Y002759D01*
X004123Y002788D01*
X004136Y002815D01*
X004153Y002840D01*
X004172Y002863D01*
X004195Y002884D01*
X004220Y002901D01*
X004246Y002915D01*
X004275Y002925D01*
X004304Y002932D01*
X004334Y002935D01*
X004365Y002934D01*
X004395Y002929D01*
X004424Y002920D01*
X004451Y002908D01*
X004477Y002893D01*
X004501Y002874D01*
X004522Y002852D01*
X004540Y002828D01*
X004555Y002801D01*
X004566Y002773D01*
X004574Y002744D01*
X004578Y002714D01*
X004578Y002684D01*
X004574Y002654D01*
X004566Y002625D01*
X004555Y002597D01*
X004540Y002570D01*
X004522Y002546D01*
X004501Y002524D01*
X004477Y002505D01*
X004451Y002490D01*
X004424Y002478D01*
X004395Y002469D01*
X004365Y002464D01*
X004334Y002463D01*
X004304Y002466D01*
X004275Y002473D01*
X004246Y002483D01*
X004220Y002497D01*
X004195Y002514D01*
X004172Y002535D01*
X004153Y002558D01*
X004136Y002583D01*
X004123Y002610D01*
X004114Y002639D01*
X004108Y002669D01*
X004106Y002699D01*
X008043Y002699D02*
X008045Y002729D01*
X008051Y002759D01*
X008060Y002788D01*
X008073Y002815D01*
X008090Y002840D01*
X008109Y002863D01*
X008132Y002884D01*
X008157Y002901D01*
X008183Y002915D01*
X008212Y002925D01*
X008241Y002932D01*
X008271Y002935D01*
X008302Y002934D01*
X008332Y002929D01*
X008361Y002920D01*
X008388Y002908D01*
X008414Y002893D01*
X008438Y002874D01*
X008459Y002852D01*
X008477Y002828D01*
X008492Y002801D01*
X008503Y002773D01*
X008511Y002744D01*
X008515Y002714D01*
X008515Y002684D01*
X008511Y002654D01*
X008503Y002625D01*
X008492Y002597D01*
X008477Y002570D01*
X008459Y002546D01*
X008438Y002524D01*
X008414Y002505D01*
X008388Y002490D01*
X008361Y002478D01*
X008332Y002469D01*
X008302Y002464D01*
X008271Y002463D01*
X008241Y002466D01*
X008212Y002473D01*
X008183Y002483D01*
X008157Y002497D01*
X008132Y002514D01*
X008109Y002535D01*
X008090Y002558D01*
X008073Y002583D01*
X008060Y002610D01*
X008051Y002639D01*
X008045Y002669D01*
X008043Y002699D01*
X008043Y001715D02*
X008045Y001745D01*
X008051Y001775D01*
X008060Y001804D01*
X008073Y001831D01*
X008090Y001856D01*
X008109Y001879D01*
X008132Y001900D01*
X008157Y001917D01*
X008183Y001931D01*
X008212Y001941D01*
X008241Y001948D01*
X008271Y001951D01*
X008302Y001950D01*
X008332Y001945D01*
X008361Y001936D01*
X008388Y001924D01*
X008414Y001909D01*
X008438Y001890D01*
X008459Y001868D01*
X008477Y001844D01*
X008492Y001817D01*
X008503Y001789D01*
X008511Y001760D01*
X008515Y001730D01*
X008515Y001700D01*
X008511Y001670D01*
X008503Y001641D01*
X008492Y001613D01*
X008477Y001586D01*
X008459Y001562D01*
X008438Y001540D01*
X008414Y001521D01*
X008388Y001506D01*
X008361Y001494D01*
X008332Y001485D01*
X008302Y001480D01*
X008271Y001479D01*
X008241Y001482D01*
X008212Y001489D01*
X008183Y001499D01*
X008157Y001513D01*
X008132Y001530D01*
X008109Y001551D01*
X008090Y001574D01*
X008073Y001599D01*
X008060Y001626D01*
X008051Y001655D01*
X008045Y001685D01*
X008043Y001715D01*
X009606Y001715D02*
X009608Y001745D01*
X009614Y001775D01*
X009623Y001804D01*
X009636Y001831D01*
X009653Y001856D01*
X009672Y001879D01*
X009695Y001900D01*
X009720Y001917D01*
X009746Y001931D01*
X009775Y001941D01*
X009804Y001948D01*
X009834Y001951D01*
X009865Y001950D01*
X009895Y001945D01*
X009924Y001936D01*
X009951Y001924D01*
X009977Y001909D01*
X010001Y001890D01*
X010022Y001868D01*
X010040Y001844D01*
X010055Y001817D01*
X010066Y001789D01*
X010074Y001760D01*
X010078Y001730D01*
X010078Y001700D01*
X010074Y001670D01*
X010066Y001641D01*
X010055Y001613D01*
X010040Y001586D01*
X010022Y001562D01*
X010001Y001540D01*
X009977Y001521D01*
X009951Y001506D01*
X009924Y001494D01*
X009895Y001485D01*
X009865Y001480D01*
X009834Y001479D01*
X009804Y001482D01*
X009775Y001489D01*
X009746Y001499D01*
X009720Y001513D01*
X009695Y001530D01*
X009672Y001551D01*
X009653Y001574D01*
X009636Y001599D01*
X009623Y001626D01*
X009614Y001655D01*
X009608Y001685D01*
X009606Y001715D01*
X009606Y002699D02*
X009608Y002729D01*
X009614Y002759D01*
X009623Y002788D01*
X009636Y002815D01*
X009653Y002840D01*
X009672Y002863D01*
X009695Y002884D01*
X009720Y002901D01*
X009746Y002915D01*
X009775Y002925D01*
X009804Y002932D01*
X009834Y002935D01*
X009865Y002934D01*
X009895Y002929D01*
X009924Y002920D01*
X009951Y002908D01*
X009977Y002893D01*
X010001Y002874D01*
X010022Y002852D01*
X010040Y002828D01*
X010055Y002801D01*
X010066Y002773D01*
X010074Y002744D01*
X010078Y002714D01*
X010078Y002684D01*
X010074Y002654D01*
X010066Y002625D01*
X010055Y002597D01*
X010040Y002570D01*
X010022Y002546D01*
X010001Y002524D01*
X009977Y002505D01*
X009951Y002490D01*
X009924Y002478D01*
X009895Y002469D01*
X009865Y002464D01*
X009834Y002463D01*
X009804Y002466D01*
X009775Y002473D01*
X009746Y002483D01*
X009720Y002497D01*
X009695Y002514D01*
X009672Y002535D01*
X009653Y002558D01*
X009636Y002583D01*
X009623Y002610D01*
X009614Y002639D01*
X009608Y002669D01*
X009606Y002699D01*
X013543Y002699D02*
X013545Y002729D01*
X013551Y002759D01*
X013560Y002788D01*
X013573Y002815D01*
X013590Y002840D01*
X013609Y002863D01*
X013632Y002884D01*
X013657Y002901D01*
X013683Y002915D01*
X013712Y002925D01*
X013741Y002932D01*
X013771Y002935D01*
X013802Y002934D01*
X013832Y002929D01*
X013861Y002920D01*
X013888Y002908D01*
X013914Y002893D01*
X013938Y002874D01*
X013959Y002852D01*
X013977Y002828D01*
X013992Y002801D01*
X014003Y002773D01*
X014011Y002744D01*
X014015Y002714D01*
X014015Y002684D01*
X014011Y002654D01*
X014003Y002625D01*
X013992Y002597D01*
X013977Y002570D01*
X013959Y002546D01*
X013938Y002524D01*
X013914Y002505D01*
X013888Y002490D01*
X013861Y002478D01*
X013832Y002469D01*
X013802Y002464D01*
X013771Y002463D01*
X013741Y002466D01*
X013712Y002473D01*
X013683Y002483D01*
X013657Y002497D01*
X013632Y002514D01*
X013609Y002535D01*
X013590Y002558D01*
X013573Y002583D01*
X013560Y002610D01*
X013551Y002639D01*
X013545Y002669D01*
X013543Y002699D01*
X013543Y001715D02*
X013545Y001745D01*
X013551Y001775D01*
X013560Y001804D01*
X013573Y001831D01*
X013590Y001856D01*
X013609Y001879D01*
X013632Y001900D01*
X013657Y001917D01*
X013683Y001931D01*
X013712Y001941D01*
X013741Y001948D01*
X013771Y001951D01*
X013802Y001950D01*
X013832Y001945D01*
X013861Y001936D01*
X013888Y001924D01*
X013914Y001909D01*
X013938Y001890D01*
X013959Y001868D01*
X013977Y001844D01*
X013992Y001817D01*
X014003Y001789D01*
X014011Y001760D01*
X014015Y001730D01*
X014015Y001700D01*
X014011Y001670D01*
X014003Y001641D01*
X013992Y001613D01*
X013977Y001586D01*
X013959Y001562D01*
X013938Y001540D01*
X013914Y001521D01*
X013888Y001506D01*
X013861Y001494D01*
X013832Y001485D01*
X013802Y001480D01*
X013771Y001479D01*
X013741Y001482D01*
X013712Y001489D01*
X013683Y001499D01*
X013657Y001513D01*
X013632Y001530D01*
X013609Y001551D01*
X013590Y001574D01*
X013573Y001599D01*
X013560Y001626D01*
X013551Y001655D01*
X013545Y001685D01*
X013543Y001715D01*
X014661Y002099D02*
X014663Y002149D01*
X014669Y002199D01*
X014679Y002249D01*
X014692Y002297D01*
X014709Y002345D01*
X014730Y002391D01*
X014754Y002435D01*
X014782Y002477D01*
X014813Y002517D01*
X014847Y002554D01*
X014884Y002589D01*
X014923Y002620D01*
X014964Y002649D01*
X015008Y002674D01*
X015054Y002696D01*
X015101Y002714D01*
X015149Y002728D01*
X015198Y002739D01*
X015248Y002746D01*
X015298Y002749D01*
X015349Y002748D01*
X015399Y002743D01*
X015449Y002734D01*
X015497Y002722D01*
X015545Y002705D01*
X015591Y002685D01*
X015636Y002662D01*
X015679Y002635D01*
X015719Y002605D01*
X015757Y002572D01*
X015792Y002536D01*
X015825Y002497D01*
X015854Y002456D01*
X015880Y002413D01*
X015903Y002368D01*
X015922Y002321D01*
X015937Y002273D01*
X015949Y002224D01*
X015957Y002174D01*
X015961Y002124D01*
X015961Y002074D01*
X015957Y002024D01*
X015949Y001974D01*
X015937Y001925D01*
X015922Y001877D01*
X015903Y001830D01*
X015880Y001785D01*
X015854Y001742D01*
X015825Y001701D01*
X015792Y001662D01*
X015757Y001626D01*
X015719Y001593D01*
X015679Y001563D01*
X015636Y001536D01*
X015591Y001513D01*
X015545Y001493D01*
X015497Y001476D01*
X015449Y001464D01*
X015399Y001455D01*
X015349Y001450D01*
X015298Y001449D01*
X015248Y001452D01*
X015198Y001459D01*
X015149Y001470D01*
X015101Y001484D01*
X015054Y001502D01*
X015008Y001524D01*
X014964Y001549D01*
X014923Y001578D01*
X014884Y001609D01*
X014847Y001644D01*
X014813Y001681D01*
X014782Y001721D01*
X014754Y001763D01*
X014730Y001807D01*
X014709Y001853D01*
X014692Y001901D01*
X014679Y001949D01*
X014669Y001999D01*
X014663Y002049D01*
X014661Y002099D01*
X014661Y012599D02*
X014663Y012649D01*
X014669Y012699D01*
X014679Y012749D01*
X014692Y012797D01*
X014709Y012845D01*
X014730Y012891D01*
X014754Y012935D01*
X014782Y012977D01*
X014813Y013017D01*
X014847Y013054D01*
X014884Y013089D01*
X014923Y013120D01*
X014964Y013149D01*
X015008Y013174D01*
X015054Y013196D01*
X015101Y013214D01*
X015149Y013228D01*
X015198Y013239D01*
X015248Y013246D01*
X015298Y013249D01*
X015349Y013248D01*
X015399Y013243D01*
X015449Y013234D01*
X015497Y013222D01*
X015545Y013205D01*
X015591Y013185D01*
X015636Y013162D01*
X015679Y013135D01*
X015719Y013105D01*
X015757Y013072D01*
X015792Y013036D01*
X015825Y012997D01*
X015854Y012956D01*
X015880Y012913D01*
X015903Y012868D01*
X015922Y012821D01*
X015937Y012773D01*
X015949Y012724D01*
X015957Y012674D01*
X015961Y012624D01*
X015961Y012574D01*
X015957Y012524D01*
X015949Y012474D01*
X015937Y012425D01*
X015922Y012377D01*
X015903Y012330D01*
X015880Y012285D01*
X015854Y012242D01*
X015825Y012201D01*
X015792Y012162D01*
X015757Y012126D01*
X015719Y012093D01*
X015679Y012063D01*
X015636Y012036D01*
X015591Y012013D01*
X015545Y011993D01*
X015497Y011976D01*
X015449Y011964D01*
X015399Y011955D01*
X015349Y011950D01*
X015298Y011949D01*
X015248Y011952D01*
X015198Y011959D01*
X015149Y011970D01*
X015101Y011984D01*
X015054Y012002D01*
X015008Y012024D01*
X014964Y012049D01*
X014923Y012078D01*
X014884Y012109D01*
X014847Y012144D01*
X014813Y012181D01*
X014782Y012221D01*
X014754Y012263D01*
X014730Y012307D01*
X014709Y012353D01*
X014692Y012401D01*
X014679Y012449D01*
X014669Y012499D01*
X014663Y012549D01*
X014661Y012599D01*
X000861Y012599D02*
X000863Y012649D01*
X000869Y012699D01*
X000879Y012749D01*
X000892Y012797D01*
X000909Y012845D01*
X000930Y012891D01*
X000954Y012935D01*
X000982Y012977D01*
X001013Y013017D01*
X001047Y013054D01*
X001084Y013089D01*
X001123Y013120D01*
X001164Y013149D01*
X001208Y013174D01*
X001254Y013196D01*
X001301Y013214D01*
X001349Y013228D01*
X001398Y013239D01*
X001448Y013246D01*
X001498Y013249D01*
X001549Y013248D01*
X001599Y013243D01*
X001649Y013234D01*
X001697Y013222D01*
X001745Y013205D01*
X001791Y013185D01*
X001836Y013162D01*
X001879Y013135D01*
X001919Y013105D01*
X001957Y013072D01*
X001992Y013036D01*
X002025Y012997D01*
X002054Y012956D01*
X002080Y012913D01*
X002103Y012868D01*
X002122Y012821D01*
X002137Y012773D01*
X002149Y012724D01*
X002157Y012674D01*
X002161Y012624D01*
X002161Y012574D01*
X002157Y012524D01*
X002149Y012474D01*
X002137Y012425D01*
X002122Y012377D01*
X002103Y012330D01*
X002080Y012285D01*
X002054Y012242D01*
X002025Y012201D01*
X001992Y012162D01*
X001957Y012126D01*
X001919Y012093D01*
X001879Y012063D01*
X001836Y012036D01*
X001791Y012013D01*
X001745Y011993D01*
X001697Y011976D01*
X001649Y011964D01*
X001599Y011955D01*
X001549Y011950D01*
X001498Y011949D01*
X001448Y011952D01*
X001398Y011959D01*
X001349Y011970D01*
X001301Y011984D01*
X001254Y012002D01*
X001208Y012024D01*
X001164Y012049D01*
X001123Y012078D01*
X001084Y012109D01*
X001047Y012144D01*
X001013Y012181D01*
X000982Y012221D01*
X000954Y012263D01*
X000930Y012307D01*
X000909Y012353D01*
X000892Y012401D01*
X000879Y012449D01*
X000869Y012499D01*
X000863Y012549D01*
X000861Y012599D01*
D11*
X014665Y007485D02*
X014665Y007212D01*
X015076Y007212D01*
X015076Y007485D01*
X014870Y007349D02*
X014870Y007212D01*
X015076Y007043D02*
X015076Y006770D01*
X014665Y006770D01*
X014665Y006601D02*
X015007Y006601D01*
X015076Y006533D01*
X015076Y006396D01*
X015007Y006328D01*
X014665Y006328D01*
X014734Y006159D02*
X014665Y006091D01*
X014665Y005886D01*
X015076Y005886D01*
X015076Y006091D01*
X015007Y006159D01*
X014734Y006159D01*
X014734Y005718D02*
X014665Y005649D01*
X014665Y005512D01*
X014734Y005444D01*
X015007Y005444D01*
X015076Y005512D01*
X015076Y005649D01*
X015007Y005718D01*
X014734Y005718D01*
X014665Y005276D02*
X015076Y005276D01*
X015076Y005002D02*
X014665Y005002D01*
X014802Y005139D01*
X014665Y005276D01*
X015397Y005412D02*
X015465Y005412D01*
X015602Y005412D02*
X015602Y005344D01*
X015602Y005412D02*
X015876Y005412D01*
X015876Y005344D02*
X015876Y005481D01*
X015807Y005707D02*
X015876Y005775D01*
X015807Y005707D02*
X015534Y005707D01*
X015602Y005639D02*
X015602Y005775D01*
X015670Y005933D02*
X015602Y006002D01*
X015602Y006138D01*
X015670Y006207D01*
X015876Y006207D01*
X015876Y005933D02*
X015465Y005933D01*
X015602Y005176D02*
X015807Y005176D01*
X015876Y005107D01*
X015807Y005039D01*
X015876Y004970D01*
X015807Y004902D01*
X015602Y004902D01*
X015602Y004292D02*
X015807Y004292D01*
X015876Y004223D01*
X015807Y004155D01*
X015876Y004086D01*
X015807Y004018D01*
X015602Y004018D01*
X015670Y003850D02*
X015602Y003781D01*
X015602Y003644D01*
X015670Y003576D01*
X015807Y003576D01*
X015876Y003644D01*
X015876Y003781D01*
X015807Y003850D01*
X015670Y003850D01*
X015876Y003408D02*
X015465Y003408D01*
X015465Y003134D02*
X015876Y003408D01*
X015876Y003134D02*
X015465Y003134D01*
X015076Y003234D02*
X014802Y003234D01*
X014665Y003371D01*
X014802Y003508D01*
X015076Y003508D01*
X015076Y003676D02*
X015076Y003881D01*
X015007Y003950D01*
X014734Y003950D01*
X014665Y003881D01*
X014665Y003676D01*
X015076Y003676D01*
X014870Y003508D02*
X014870Y003234D01*
X014734Y004118D02*
X014665Y004186D01*
X014665Y004323D01*
X014734Y004392D01*
X015007Y004392D02*
X015076Y004323D01*
X015076Y004186D01*
X015007Y004118D01*
X014734Y004118D01*
X015602Y006886D02*
X015602Y007022D01*
X015670Y007091D01*
X015876Y007091D01*
X015876Y006886D01*
X015807Y006817D01*
X015739Y006886D01*
X015739Y007091D01*
X015807Y007259D02*
X015670Y007259D01*
X015602Y007328D01*
X015602Y007533D01*
X015465Y007533D02*
X015876Y007533D01*
X015876Y007328D01*
X015807Y007259D01*
X015807Y007701D02*
X015670Y007701D01*
X015602Y007770D01*
X015602Y007975D01*
X015465Y007975D02*
X015876Y007975D01*
X015876Y007770D01*
X015807Y007701D01*
X015807Y008143D02*
X015670Y008143D01*
X015602Y008212D01*
X015602Y008348D01*
X015670Y008417D01*
X015739Y008417D01*
X015739Y008143D01*
X015807Y008143D02*
X015876Y008212D01*
X015876Y008348D01*
X015807Y008585D02*
X015670Y008585D01*
X015602Y008653D01*
X015602Y008859D01*
X015465Y008859D02*
X015876Y008859D01*
X015876Y008653D01*
X015807Y008585D01*
X015876Y009469D02*
X015876Y009606D01*
X015876Y009537D02*
X015465Y009537D01*
X015465Y009469D01*
X015670Y009764D02*
X015602Y009832D01*
X015602Y009969D01*
X015670Y010037D01*
X015739Y010037D01*
X015739Y009764D01*
X015807Y009764D02*
X015670Y009764D01*
X015807Y009764D02*
X015876Y009832D01*
X015876Y009969D01*
X015876Y010206D02*
X015602Y010206D01*
X015602Y010274D01*
X015670Y010342D01*
X015602Y010411D01*
X015670Y010479D01*
X015876Y010479D01*
X015876Y010342D02*
X015670Y010342D01*
X015670Y010648D02*
X015807Y010648D01*
X015876Y010716D01*
X015876Y010853D01*
X015807Y010921D01*
X015670Y010921D01*
X015602Y010853D01*
X015602Y010716D01*
X015670Y010648D01*
X015602Y011090D02*
X015602Y011295D01*
X015670Y011363D01*
X015876Y011363D01*
X015876Y011090D02*
X015602Y011090D01*
D12*
X012299Y010563D02*
X012299Y010449D01*
X012242Y010392D01*
X012072Y010392D01*
X012072Y010279D02*
X012072Y010619D01*
X012242Y010619D01*
X012299Y010563D01*
X011931Y010619D02*
X011931Y010279D01*
X011704Y010279D02*
X011704Y010619D01*
X011817Y010506D01*
X011931Y010619D01*
X011563Y010619D02*
X011336Y010619D01*
X011336Y010279D01*
X011563Y010279D01*
X011449Y010449D02*
X011336Y010449D01*
X011194Y010619D02*
X010967Y010619D01*
X011081Y010619D02*
X011081Y010279D01*
X009949Y010336D02*
X009892Y010279D01*
X009779Y010279D01*
X009722Y010336D01*
X009581Y010336D02*
X009524Y010279D01*
X009411Y010279D01*
X009354Y010336D01*
X009354Y010563D01*
X009411Y010619D01*
X009524Y010619D01*
X009581Y010563D01*
X009722Y010563D02*
X009779Y010619D01*
X009892Y010619D01*
X009949Y010563D01*
X009949Y010506D01*
X009892Y010449D01*
X009949Y010392D01*
X009949Y010336D01*
X009892Y010449D02*
X009836Y010449D01*
X009213Y010336D02*
X009156Y010279D01*
X008986Y010279D01*
X008986Y010619D01*
X009156Y010619D01*
X009213Y010563D01*
X009213Y010336D01*
X008844Y010279D02*
X008844Y010506D01*
X008731Y010619D01*
X008617Y010506D01*
X008617Y010279D01*
X008617Y010449D02*
X008844Y010449D01*
X008681Y009811D02*
X008681Y009698D01*
X008681Y009755D02*
X008340Y009755D01*
X008340Y009698D01*
X008510Y009556D02*
X008567Y009556D01*
X008567Y009330D01*
X008510Y009330D02*
X008454Y009386D01*
X008454Y009500D01*
X008510Y009556D01*
X008681Y009500D02*
X008681Y009386D01*
X008624Y009330D01*
X008510Y009330D01*
X008681Y009197D02*
X008681Y009084D01*
X008681Y009141D02*
X008454Y009141D01*
X008454Y009084D01*
X008340Y009141D02*
X008284Y009141D01*
X008510Y008943D02*
X008681Y008943D01*
X008510Y008943D02*
X008454Y008886D01*
X008454Y008716D01*
X008681Y008716D01*
X008681Y008574D02*
X008510Y008574D01*
X008454Y008518D01*
X008454Y008404D01*
X008567Y008404D02*
X008567Y008574D01*
X008681Y008574D02*
X008681Y008404D01*
X008624Y008347D01*
X008567Y008404D01*
X008624Y008206D02*
X008397Y008206D01*
X008340Y008149D01*
X008340Y007979D01*
X008681Y007979D01*
X008681Y008149D01*
X008624Y008206D01*
X007549Y010279D02*
X007322Y010279D01*
X007549Y010506D01*
X007549Y010563D01*
X007492Y010619D01*
X007379Y010619D01*
X007322Y010563D01*
X007181Y010563D02*
X007124Y010619D01*
X007011Y010619D01*
X006954Y010563D01*
X006954Y010336D01*
X007011Y010279D01*
X007124Y010279D01*
X007181Y010336D01*
X006813Y010336D02*
X006813Y010563D01*
X006756Y010619D01*
X006586Y010619D01*
X006586Y010279D01*
X006756Y010279D01*
X006813Y010336D01*
X006444Y010279D02*
X006444Y010506D01*
X006331Y010619D01*
X006217Y010506D01*
X006217Y010279D01*
X006217Y010449D02*
X006444Y010449D01*
X005099Y010279D02*
X004872Y010279D01*
X004986Y010279D02*
X004986Y010619D01*
X004872Y010506D01*
X004731Y010563D02*
X004674Y010619D01*
X004561Y010619D01*
X004504Y010563D01*
X004504Y010336D01*
X004561Y010279D01*
X004674Y010279D01*
X004731Y010336D01*
X004363Y010336D02*
X004306Y010279D01*
X004136Y010279D01*
X004136Y010619D01*
X004306Y010619D01*
X004363Y010563D01*
X004363Y010336D01*
X003994Y010279D02*
X003994Y010506D01*
X003881Y010619D01*
X003767Y010506D01*
X003767Y010279D01*
X003767Y010449D02*
X003994Y010449D01*
X003724Y008470D02*
X003781Y008413D01*
X003781Y008300D01*
X003724Y008243D01*
X003497Y008243D01*
X003440Y008300D01*
X003440Y008413D01*
X003497Y008470D01*
X003497Y008101D02*
X003440Y008045D01*
X003440Y007931D01*
X003497Y007875D01*
X003440Y007742D02*
X003440Y007629D01*
X003440Y007686D02*
X003781Y007686D01*
X003781Y007742D02*
X003781Y007629D01*
X003781Y007875D02*
X003554Y008101D01*
X003497Y008101D01*
X003781Y008101D02*
X003781Y007875D01*
X006040Y007236D02*
X006040Y007066D01*
X006381Y007066D01*
X006267Y007066D02*
X006267Y007236D01*
X006210Y007293D01*
X006097Y007293D01*
X006040Y007236D01*
X006267Y007179D02*
X006381Y007293D01*
X006381Y006924D02*
X006040Y006924D01*
X006267Y006811D02*
X006381Y006924D01*
X006267Y006811D02*
X006381Y006697D01*
X006040Y006697D01*
X006097Y006556D02*
X006210Y006556D01*
X006267Y006499D01*
X006267Y006329D01*
X006381Y006329D02*
X006040Y006329D01*
X006040Y006499D01*
X006097Y006556D01*
X003724Y003970D02*
X003781Y003913D01*
X003781Y003800D01*
X003724Y003743D01*
X003497Y003743D01*
X003440Y003800D01*
X003440Y003913D01*
X003497Y003970D01*
X003497Y003601D02*
X003440Y003545D01*
X003440Y003431D01*
X003497Y003375D01*
X003440Y003242D02*
X003440Y003129D01*
X003440Y003186D02*
X003781Y003186D01*
X003781Y003242D02*
X003781Y003129D01*
X003781Y003375D02*
X003554Y003601D01*
X003497Y003601D01*
X003781Y003601D02*
X003781Y003375D01*
D13*
X003948Y004077D02*
X003948Y001321D01*
X008673Y001321D01*
X008673Y004077D01*
X009448Y004077D02*
X009448Y001321D01*
X014173Y001321D01*
X014173Y004077D01*
X014173Y005258D02*
X014173Y005652D01*
X009448Y005652D01*
X009448Y005258D01*
X008673Y005258D02*
X008673Y005652D01*
X003948Y005652D01*
X003948Y005258D01*
X006320Y008039D02*
X006250Y008109D01*
X006250Y008249D01*
X006320Y008319D01*
X006601Y008039D01*
X006671Y008109D01*
X006671Y008249D01*
X006601Y008319D01*
X006320Y008319D01*
X006320Y008499D02*
X006250Y008570D01*
X006250Y008710D01*
X006320Y008780D01*
X006390Y008780D01*
X006460Y008710D01*
X006460Y008570D01*
X006390Y008499D01*
X006320Y008499D01*
X006460Y008570D02*
X006530Y008499D01*
X006601Y008499D01*
X006671Y008570D01*
X006671Y008710D01*
X006601Y008780D01*
X006530Y008780D01*
X006460Y008710D01*
X006250Y008960D02*
X006390Y009100D01*
X006250Y009240D01*
X006671Y009240D01*
X006671Y009420D02*
X006390Y009700D01*
X006320Y009700D01*
X006250Y009630D01*
X006250Y009490D01*
X006320Y009420D01*
X006671Y009420D02*
X006671Y009700D01*
X006671Y008960D02*
X006250Y008960D01*
X006320Y008039D02*
X006601Y008039D01*
X008890Y008119D02*
X008970Y008039D01*
X009050Y008039D01*
X009130Y008119D01*
X009130Y008279D01*
X009210Y008359D01*
X009291Y008359D01*
X009371Y008279D01*
X009371Y008119D01*
X009291Y008039D01*
X008890Y008119D02*
X008890Y008279D01*
X008970Y008359D01*
X009050Y008635D02*
X009050Y008795D01*
X009130Y008875D01*
X009371Y008875D01*
X009371Y008635D01*
X009291Y008555D01*
X009210Y008635D01*
X009210Y008875D01*
X009291Y009070D02*
X009050Y009070D01*
X009291Y009070D02*
X009371Y009150D01*
X009371Y009391D01*
X009050Y009391D01*
X008890Y009586D02*
X008890Y009666D01*
X009371Y009666D01*
X009371Y009586D02*
X009371Y009746D01*
X010950Y009630D02*
X010950Y009490D01*
X011020Y009420D01*
X010950Y009240D02*
X011371Y009240D01*
X011371Y009420D02*
X011090Y009700D01*
X011020Y009700D01*
X010950Y009630D01*
X011371Y009700D02*
X011371Y009420D01*
X011090Y009100D02*
X010950Y009240D01*
X011090Y009100D02*
X010950Y008960D01*
X011371Y008960D01*
X011301Y008780D02*
X011230Y008780D01*
X011160Y008710D01*
X011160Y008570D01*
X011090Y008499D01*
X011020Y008499D01*
X010950Y008570D01*
X010950Y008710D01*
X011020Y008780D01*
X011090Y008780D01*
X011160Y008710D01*
X011160Y008570D02*
X011230Y008499D01*
X011301Y008499D01*
X011371Y008570D01*
X011371Y008710D01*
X011301Y008780D01*
X011301Y008319D02*
X011020Y008319D01*
X011301Y008039D01*
X011371Y008109D01*
X011371Y008249D01*
X011301Y008319D01*
X011301Y008039D02*
X011020Y008039D01*
X010950Y008109D01*
X010950Y008249D01*
X011020Y008319D01*
D14*
X010111Y010849D02*
X010011Y010849D01*
X010111Y010849D02*
X010111Y010999D01*
X007711Y010999D02*
X007711Y010849D01*
X007611Y010849D01*
X005311Y010849D02*
X005211Y010849D01*
X005311Y010849D02*
X005311Y010999D01*
X003261Y010999D02*
X003261Y011099D01*
X003111Y011099D01*
X003811Y013149D02*
X004061Y013149D01*
X004561Y013149D02*
X004811Y013149D01*
X005561Y013149D02*
X005711Y013149D01*
X006211Y013149D02*
X006461Y013149D01*
X006961Y013149D02*
X007211Y013149D01*
X007961Y013149D02*
X008111Y013149D01*
X008611Y013149D02*
X008861Y013149D01*
X009361Y013149D02*
X009611Y013149D01*
X010361Y013149D02*
X010511Y013149D01*
X012761Y013149D02*
X013011Y013149D01*
X013511Y010999D02*
X013511Y010849D01*
X013411Y010849D01*
X003261Y006599D02*
X003261Y006499D01*
X003261Y006599D02*
X003111Y006599D01*
D15*
X003261Y006599D02*
X002861Y006599D01*
X002861Y006499D01*
X003261Y006499D01*
X003261Y006599D02*
X003261Y006099D01*
X003261Y003099D01*
X002111Y003099D01*
X000961Y003099D01*
X000961Y003349D01*
X001211Y003349D01*
X001211Y003849D01*
X000961Y003849D01*
X000961Y004349D01*
X001211Y004349D01*
X001211Y004849D01*
X000961Y004849D01*
X000961Y005349D01*
X000961Y006849D01*
X001211Y006849D01*
X001211Y006349D01*
X000961Y006349D01*
X000961Y005849D01*
X001211Y005849D01*
X001211Y005349D01*
X000961Y005349D01*
X000961Y006149D02*
X000961Y003099D01*
X002861Y003599D02*
X003261Y003599D01*
X003261Y003699D02*
X002861Y003699D01*
X002861Y003599D01*
X002861Y003699D02*
X002861Y006499D01*
X003261Y006599D02*
X003261Y007099D01*
X002111Y007099D01*
X000961Y007099D01*
X000961Y006149D01*
X000961Y006849D02*
X000961Y006999D01*
X000961Y007599D02*
X000961Y007849D01*
X001211Y007849D01*
X001211Y008349D01*
X000961Y008349D01*
X000961Y008849D01*
X001211Y008849D01*
X001211Y009349D01*
X000961Y009349D01*
X000961Y009849D01*
X000961Y011349D01*
X001211Y011349D01*
X001211Y010849D01*
X000961Y010849D01*
X000961Y010349D01*
X001211Y010349D01*
X001211Y009849D01*
X000961Y009849D01*
X000961Y010649D02*
X000961Y007599D01*
X002111Y007599D01*
X003261Y007599D01*
X003261Y010599D01*
X003261Y011099D01*
X002861Y011099D01*
X002861Y010999D01*
X003261Y010999D01*
X003261Y011099D02*
X003261Y011599D01*
X002111Y011599D01*
X000961Y011599D01*
X000961Y010649D01*
X000961Y011349D02*
X000961Y011499D01*
X002861Y010999D02*
X002861Y008199D01*
X003261Y008199D01*
X003261Y008099D02*
X002861Y008099D01*
X002861Y008199D01*
X003811Y010849D02*
X004811Y010849D01*
X005311Y010849D01*
X005311Y011249D01*
X005211Y011249D01*
X005211Y010849D01*
X005311Y010849D02*
X005811Y010849D01*
X005811Y011999D01*
X005811Y013149D01*
X005561Y013149D01*
X005561Y012899D01*
X005061Y012899D01*
X005061Y013149D01*
X004561Y013149D01*
X004561Y012899D01*
X004061Y012899D01*
X004061Y013149D01*
X003811Y013149D01*
X003811Y011999D01*
X003811Y010849D01*
X004311Y010849D02*
X004311Y011249D01*
X004411Y011249D01*
X004411Y010849D01*
X004411Y011249D02*
X005211Y011249D01*
X006211Y010849D02*
X006211Y011999D01*
X006211Y013149D01*
X006461Y013149D01*
X006461Y012899D01*
X006961Y012899D01*
X006961Y013149D01*
X007461Y013149D01*
X007461Y012899D01*
X007961Y012899D01*
X007961Y013149D01*
X008211Y013149D01*
X007211Y013149D01*
X006961Y013149D02*
X006461Y013149D01*
X005811Y013149D02*
X004811Y013149D01*
X004561Y013149D02*
X004061Y013149D01*
X006711Y011249D02*
X006711Y010849D01*
X006811Y010849D02*
X006811Y011249D01*
X006711Y011249D01*
X006811Y011249D02*
X007611Y011249D01*
X007611Y010849D01*
X007711Y010849D02*
X007711Y011249D01*
X007611Y011249D01*
X007711Y010849D02*
X007211Y010849D01*
X006211Y010849D01*
X007711Y010849D02*
X008211Y010849D01*
X008211Y011999D01*
X008211Y013149D01*
X008611Y013149D02*
X008861Y013149D01*
X008861Y012899D01*
X009361Y012899D01*
X009361Y013149D01*
X009861Y013149D01*
X009861Y012899D01*
X010361Y012899D01*
X010361Y013149D01*
X010611Y013149D01*
X009611Y013149D01*
X009361Y013149D02*
X008861Y013149D01*
X008611Y013149D02*
X008611Y011999D01*
X008611Y010849D01*
X009611Y010849D01*
X010111Y010849D01*
X010111Y011249D01*
X010011Y011249D01*
X010011Y010849D01*
X010111Y010849D02*
X010611Y010849D01*
X010611Y011999D01*
X010611Y013149D01*
X011011Y013149D02*
X011261Y013149D01*
X011261Y012899D01*
X011761Y012899D01*
X011761Y013149D01*
X012261Y013149D01*
X012261Y012899D01*
X012761Y012899D01*
X012761Y013149D01*
X013261Y013149D01*
X013761Y013149D01*
X013761Y012899D01*
X013261Y012899D01*
X013261Y013149D01*
X013011Y013149D02*
X014011Y013149D01*
X014011Y011999D01*
X014011Y010849D01*
X013511Y010849D01*
X013511Y011249D01*
X013411Y011249D01*
X013411Y010849D01*
X013511Y010849D02*
X013011Y010849D01*
X011011Y010849D01*
X011011Y011999D01*
X011011Y013149D01*
X011261Y013149D02*
X011761Y013149D01*
X012261Y013149D02*
X012761Y013149D01*
X013761Y013149D02*
X013911Y013149D01*
X013411Y011249D02*
X011611Y011249D01*
X011611Y010849D01*
X011511Y010849D02*
X011511Y011249D01*
X011611Y011249D01*
X010011Y011249D02*
X009211Y011249D01*
X009211Y010849D01*
X009111Y010849D02*
X009111Y011249D01*
X009211Y011249D01*
D16*
X006711Y006848D03*
M02*
