G75*
G70*
%OFA0B0*%
%FSLAX24Y24*%
%IPPOS*%
%LPD*%
%AMOC8*
5,1,8,0,0,1.08239X$1,22.5*
%
%ADD10C,0.0640*%
%ADD11R,0.0355X0.0355*%
%ADD12R,0.0631X0.0552*%
%ADD13C,0.1340*%
%ADD14C,0.0900*%
%ADD15C,0.0512*%
%ADD16R,0.0906X0.0276*%
%ADD17R,0.0552X0.0631*%
D10*
X001811Y003599D02*
X002411Y003599D01*
X002411Y004599D02*
X001811Y004599D01*
X001811Y005599D02*
X002411Y005599D01*
X002411Y006599D02*
X001811Y006599D01*
X001811Y008099D02*
X002411Y008099D01*
X002411Y009099D02*
X001811Y009099D01*
X001811Y010099D02*
X002411Y010099D01*
X002411Y011099D02*
X001811Y011099D01*
X004311Y011699D02*
X004311Y012299D01*
X005311Y012299D02*
X005311Y011699D01*
X006711Y011699D02*
X006711Y012299D01*
X007711Y012299D02*
X007711Y011699D01*
X009111Y011699D02*
X009111Y012299D01*
X010111Y012299D02*
X010111Y011699D01*
X011511Y011699D02*
X011511Y012299D01*
X012511Y012299D02*
X012511Y011699D01*
X013511Y011699D02*
X013511Y012299D01*
D11*
X006711Y007094D03*
X006711Y006504D03*
D12*
X007511Y006425D03*
X007511Y007173D03*
X008411Y007173D03*
X008411Y006425D03*
X012311Y006425D03*
X012311Y007173D03*
X003411Y002673D03*
X003411Y001925D03*
D13*
X001611Y002099D03*
X001511Y012599D03*
X015311Y012599D03*
X015311Y002099D03*
D14*
X013779Y004668D03*
X012795Y004668D03*
X010826Y004668D03*
X009842Y004668D03*
X008279Y004668D03*
X007295Y004668D03*
X005326Y004668D03*
X004342Y004668D03*
X006311Y002699D03*
X011811Y002699D03*
D15*
X013779Y002699D03*
X013779Y001715D03*
X009842Y001715D03*
X009842Y002699D03*
X008279Y002699D03*
X008279Y001715D03*
X004342Y001715D03*
X004342Y002699D03*
D16*
X005487Y008149D03*
X005487Y008649D03*
X005487Y009149D03*
X005487Y009649D03*
X007534Y009649D03*
X007534Y009149D03*
X007534Y008649D03*
X007534Y008149D03*
X010187Y008149D03*
X010187Y008649D03*
X010187Y009149D03*
X010187Y009649D03*
X012234Y009649D03*
X012234Y009149D03*
X012234Y008649D03*
X012234Y008149D03*
D17*
X010385Y007099D03*
X009637Y007099D03*
X009637Y006199D03*
X010385Y006199D03*
X013037Y010299D03*
X013785Y010299D03*
X005085Y006299D03*
X004337Y006299D03*
M02*
